<svg width="908" height="222" viewBox="0 0 908 222" fill="none" xmlns="http://www.w3.org/2000/svg">
<rect width="907" height="222" transform="translate(0.5)" fill="white"/>
<rect width="820" height="44" transform="translate(44.5 53)" fill="#F7F7F7"/>
<rect x="57" y="65.5" width="19" height="19" rx="3.5" fill="white"/>
<rect x="57" y="65.5" width="19" height="19" rx="3.5" stroke="#C2C2C2"/>
<rect width="88" height="44" transform="translate(88.5 53)" fill="#F7F7F7"/>
<path d="M103.916 69.864V68.604H105.414V69.864H108.326V71.054H100.99V69.864H103.916ZM101.648 73.84C101.648 73.392 101.774 72.9953 102.026 72.65C102.278 72.2953 102.633 72.0247 103.09 71.838C103.547 71.642 104.07 71.544 104.658 71.544C105.246 71.544 105.769 71.642 106.226 71.838C106.693 72.0247 107.052 72.2953 107.304 72.65C107.565 72.9953 107.696 73.392 107.696 73.84C107.696 74.288 107.565 74.6847 107.304 75.03C107.052 75.366 106.697 75.6273 106.24 75.814C105.783 76.0007 105.255 76.094 104.658 76.094C104.07 76.094 103.547 76.0007 103.09 75.814C102.633 75.6273 102.278 75.366 102.026 75.03C101.774 74.6847 101.648 74.288 101.648 73.84ZM102.516 77.046H110.72V81.12H109.208V78.264H102.516V77.046ZM103.076 73.84C103.076 74.1853 103.221 74.4607 103.51 74.666C103.799 74.862 104.182 74.96 104.658 74.96C105.134 74.96 105.517 74.862 105.806 74.666C106.095 74.4607 106.24 74.1853 106.24 73.84C106.24 73.4853 106.095 73.21 105.806 73.014C105.526 72.8087 105.143 72.706 104.658 72.706C104.182 72.706 103.799 72.8087 103.51 73.014C103.221 73.21 103.076 73.4853 103.076 73.84ZM109.208 68.674H110.72V71.978H112.442V73.224H110.72V76.472H109.208V68.674ZM123.404 68.688V77.872H121.906V73.28H119.414V75.856H113.632V69.5H115.13V71.516H117.93V69.5H119.414V72.062H121.906V68.688H123.404ZM117.93 74.652V72.678H115.13V74.652H117.93ZM115.284 76.976H116.782V79.664H123.684V80.882H115.284V76.976Z" fill="#6B6B6B"/>
<rect width="74" height="44" transform="translate(176.5 53)" fill="#F7F7F7"/>
<path d="M199.238 68.66V81.148H197.726V68.66H199.238ZM189.368 73.966C189.368 73.0887 189.503 72.3187 189.774 71.656C190.054 70.984 190.437 70.4707 190.922 70.116C191.407 69.752 191.963 69.57 192.588 69.57C193.213 69.57 193.769 69.752 194.254 70.116C194.739 70.4707 195.117 70.984 195.388 71.656C195.668 72.3187 195.808 73.0887 195.808 73.966C195.808 74.8527 195.668 75.632 195.388 76.304C195.117 76.9667 194.739 77.48 194.254 77.844C193.769 78.208 193.213 78.39 192.588 78.39C191.963 78.39 191.407 78.208 190.922 77.844C190.437 77.48 190.054 76.9667 189.774 76.304C189.503 75.632 189.368 74.8527 189.368 73.966ZM190.824 73.966C190.824 74.918 190.983 75.6647 191.3 76.206C191.627 76.7473 192.056 77.018 192.588 77.018C193.12 77.018 193.549 76.7473 193.876 76.206C194.203 75.6647 194.366 74.918 194.366 73.966C194.366 73.0233 194.203 72.286 193.876 71.754C193.549 71.2127 193.12 70.942 192.588 70.942C192.056 70.942 191.627 71.2127 191.3 71.754C190.983 72.286 190.824 73.0233 190.824 73.966ZM212.342 75.016V76.22H201.072V75.016H212.342ZM202.486 68.954H210.942V72.104H203.984V73.014H211.194V74.176H202.5V71.012H209.458V70.102H202.486V68.954ZM202.542 77.13H210.984V80.966H202.542V77.13ZM209.5 79.776V78.306H204.012V79.776H209.5Z" fill="#6B6B6B"/>
<rect width="124" height="44" transform="translate(250.5 53)" fill="#F7F7F7"/>
<path d="M271.796 71.978V68.688H273.308V77.76H271.796V73.21H269.612V71.978H271.796ZM262.948 75.114C263.9 74.7873 264.642 74.26 265.174 73.532C265.706 72.804 265.972 72.0107 265.972 71.152V70.788H263.382V69.584H270.046V70.788H267.498V71.152C267.498 71.936 267.75 72.6733 268.254 73.364C268.767 74.0547 269.481 74.554 270.396 74.862L269.654 76.052C268.982 75.8093 268.399 75.464 267.904 75.016C267.419 74.568 267.036 74.0407 266.756 73.434C266.485 74.106 266.089 74.694 265.566 75.198C265.043 75.702 264.423 76.0753 263.704 76.318L262.948 75.114ZM265.202 76.99H266.714V79.664H273.63V80.882H265.202V76.99ZM284.844 68.674V73.826H286.566V75.086H284.844V81.12H283.332V68.674H284.844ZM274.932 77.676C276.295 77.676 277.354 77.6667 278.11 77.648V76.472C277.429 76.36 276.883 76.1033 276.472 75.702C276.062 75.2913 275.856 74.7967 275.856 74.218C275.856 73.7607 275.982 73.3547 276.234 73C276.496 72.6453 276.85 72.3747 277.298 72.188C277.756 71.992 278.274 71.894 278.852 71.894C279.44 71.894 279.958 71.992 280.406 72.188C280.864 72.3747 281.218 72.6453 281.47 73C281.732 73.3547 281.862 73.7607 281.862 74.218C281.862 74.7967 281.657 75.2867 281.246 75.688C280.845 76.0893 280.299 76.3507 279.608 76.472V77.592C280.887 77.5267 281.9 77.438 282.646 77.326L282.758 78.404C281.592 78.628 280.402 78.7727 279.188 78.838C277.975 78.894 276.626 78.922 275.142 78.922L274.932 77.676ZM275.17 70.102H278.11V68.716H279.608V70.102H282.534V71.292H275.17V70.102ZM277.298 74.218C277.298 74.582 277.438 74.8713 277.718 75.086C277.998 75.2913 278.376 75.394 278.852 75.394C279.328 75.394 279.711 75.2913 280 75.086C280.29 74.8713 280.434 74.582 280.434 74.218C280.434 73.854 280.29 73.5647 280 73.35C279.711 73.1353 279.328 73.028 278.852 73.028C278.376 73.028 277.998 73.1353 277.718 73.35C277.438 73.5647 277.298 73.854 277.298 74.218ZM297.501 68.688V77.872H296.003V73.28H293.511V75.856H287.729V69.5H289.227V71.516H292.027V69.5H293.511V72.062H296.003V68.688H297.501ZM292.027 74.652V72.678H289.227V74.652H292.027ZM289.381 76.976H290.879V79.664H297.781V80.882H289.381V76.976ZM304.137 70.326V68.828H305.635V70.326H309.975V71.53H299.783V70.326H304.137ZM299.265 78.544H304.137V76.976C303.064 76.9013 302.224 76.6587 301.617 76.248C301.02 75.828 300.721 75.2773 300.721 74.596C300.721 73.84 301.09 73.252 301.827 72.832C302.574 72.412 303.591 72.202 304.879 72.202C306.158 72.202 307.166 72.4167 307.903 72.846C308.65 73.266 309.023 73.8493 309.023 74.596C309.023 75.2773 308.724 75.828 308.127 76.248C307.53 76.6587 306.699 76.9013 305.635 76.976V78.544H310.535V79.762H299.265V78.544ZM302.247 74.596C302.247 74.9973 302.471 75.3053 302.919 75.52C303.376 75.7253 304.03 75.828 304.879 75.828C305.719 75.828 306.363 75.7253 306.811 75.52C307.268 75.3053 307.497 74.9973 307.497 74.596C307.497 74.1947 307.268 73.8913 306.811 73.686C306.363 73.4713 305.719 73.364 304.879 73.364C304.039 73.364 303.39 73.4713 302.933 73.686C302.476 73.8913 302.247 74.1947 302.247 74.596Z" fill="#6B6B6B"/>
<rect width="133" height="44" transform="translate(374.5 53)" fill="#F7F7F7"/>
<path d="M397.238 68.674V81.148H395.726V68.674H397.238ZM387.746 69.808H393.696V71.04H389.244V76.864C390.495 76.8547 391.512 76.8267 392.296 76.78C393.08 76.724 393.859 76.6213 394.634 76.472L394.774 77.732C393.925 77.8907 393.066 77.998 392.198 78.054C391.339 78.1007 390.205 78.124 388.796 78.124H387.746V69.808ZM405.456 69.444V70.368C405.456 71.012 405.648 71.642 406.03 72.258C406.422 72.8647 406.954 73.3873 407.626 73.826C408.308 74.2553 409.064 74.54 409.894 74.68L409.236 75.926C408.2 75.7113 407.276 75.3053 406.464 74.708C405.662 74.1107 405.06 73.392 404.658 72.552C404.248 73.392 403.636 74.1153 402.824 74.722C402.022 75.3193 401.107 75.7207 400.08 75.926L399.436 74.68C400.258 74.5307 401.004 74.2413 401.676 73.812C402.358 73.3733 402.89 72.8507 403.272 72.244C403.664 71.628 403.86 71.0027 403.86 70.368V69.444H405.456ZM399.072 78.292H410.342V79.524H399.072V78.292ZM421.207 69.78V70.914C421.207 71.9873 421.179 72.944 421.123 73.784C421.067 74.624 420.917 75.6273 420.675 76.794L419.191 76.626C419.405 75.6087 419.545 74.7127 419.611 73.938L412.317 74.33L412.121 73.042L419.695 72.79C419.713 72.3513 419.723 71.754 419.723 70.998H412.471V69.78H421.207ZM411.169 78.348H415.327V75.268H416.825V78.348H422.411V79.566H411.169V78.348ZM433.177 69.738V70.97H426.121V74.512H433.303V75.716H424.637V69.738H433.177ZM423.265 78.292H434.535V79.538H423.265V78.292ZM442.858 69.682V71.67C442.858 72.4167 442.975 73.1493 443.208 73.868C443.451 74.5773 443.796 75.2167 444.244 75.786C444.701 76.3553 445.238 76.7893 445.854 77.088L444.944 78.292C444.291 77.956 443.721 77.4753 443.236 76.85C442.76 76.2247 442.387 75.5013 442.116 74.68C441.836 75.5573 441.439 76.332 440.926 77.004C440.422 77.6667 439.825 78.1753 439.134 78.53L438.238 77.298C438.882 76.99 439.437 76.542 439.904 75.954C440.38 75.366 440.739 74.6987 440.982 73.952C441.234 73.2053 441.36 72.4447 441.36 71.67V69.682H442.858ZM446.61 68.674H448.122V73.574H450.026V74.834H448.122V81.12H446.61V68.674ZM453.176 74.694V73.084C452.71 72.8787 452.35 72.622 452.098 72.314C451.846 71.9967 451.72 71.6373 451.72 71.236C451.72 70.4987 452.117 69.9247 452.91 69.514C453.713 69.094 454.8 68.884 456.172 68.884C457.544 68.884 458.627 69.094 459.42 69.514C460.223 69.9247 460.624 70.4987 460.624 71.236C460.624 71.6373 460.494 71.9967 460.232 72.314C459.98 72.6313 459.616 72.8927 459.14 73.098V74.694H461.786V75.87H450.544V74.694H453.176ZM451.86 78.88C451.86 78.1707 452.238 77.62 452.994 77.228C453.75 76.836 454.805 76.64 456.158 76.64C457.502 76.64 458.552 76.836 459.308 77.228C460.064 77.62 460.442 78.1707 460.442 78.88C460.442 79.5893 460.064 80.14 459.308 80.532C458.552 80.924 457.502 81.12 456.158 81.12C454.805 81.12 453.75 80.924 452.994 80.532C452.238 80.14 451.86 79.5893 451.86 78.88ZM453.274 71.236C453.274 71.6187 453.526 71.9173 454.03 72.132C454.544 72.3373 455.258 72.44 456.172 72.44C457.087 72.44 457.796 72.3373 458.3 72.132C458.814 71.9173 459.07 71.6187 459.07 71.236C459.07 70.844 458.814 70.5453 458.3 70.34C457.796 70.1347 457.087 70.032 456.172 70.032C455.258 70.032 454.544 70.1347 454.03 70.34C453.526 70.5453 453.274 70.844 453.274 71.236ZM453.372 78.88C453.372 79.244 453.61 79.5193 454.086 79.706C454.562 79.8833 455.253 79.972 456.158 79.972C457.054 79.972 457.736 79.8833 458.202 79.706C458.678 79.5193 458.916 79.244 458.916 78.88C458.916 78.5253 458.678 78.2547 458.202 78.068C457.736 77.8813 457.054 77.788 456.158 77.788C455.253 77.788 454.562 77.8813 454.086 78.068C453.61 78.2547 453.372 78.5253 453.372 78.88ZM457.642 74.694V73.49C457.222 73.5553 456.732 73.588 456.172 73.588C455.603 73.588 455.104 73.5553 454.674 73.49V74.694H457.642ZM469.641 69.892V71.152H467.051V72.23C467.051 72.874 467.177 73.532 467.429 74.204C467.681 74.8667 468.04 75.4687 468.507 76.01C468.983 76.5513 469.533 76.9667 470.159 77.256L469.319 78.446C468.637 78.1287 468.04 77.6573 467.527 77.032C467.013 76.4067 466.612 75.6927 466.323 74.89C466.033 75.7673 465.623 76.5467 465.091 77.228C464.568 77.9093 463.961 78.418 463.271 78.754L462.403 77.578C463.028 77.27 463.579 76.8313 464.055 76.262C464.54 75.6833 464.913 75.0393 465.175 74.33C465.436 73.6207 465.567 72.9207 465.567 72.23V71.152H462.865V69.892H469.641ZM470.803 68.674H472.315V73.546H474.219V74.792H472.315V81.12H470.803V68.674ZM485.069 68.674V75.996H483.571V74.26H481.065V75.226H475.269V69.584H481.065V70.564H483.571V68.674H485.069ZM476.697 78.726C476.697 77.97 477.07 77.382 477.817 76.962C478.573 76.542 479.604 76.332 480.911 76.332C482.218 76.332 483.244 76.542 483.991 76.962C484.747 77.382 485.125 77.97 485.125 78.726C485.125 79.482 484.752 80.0653 484.005 80.476C483.258 80.896 482.227 81.106 480.911 81.106C479.595 81.106 478.564 80.896 477.817 80.476C477.07 80.0653 476.697 79.482 476.697 78.726ZM479.595 74.05V70.788H476.753V74.05H479.595ZM478.195 78.726C478.195 79.1273 478.428 79.4353 478.895 79.65C479.371 79.8553 480.043 79.958 480.911 79.958C481.779 79.958 482.446 79.8553 482.913 79.65C483.38 79.4353 483.613 79.1273 483.613 78.726C483.613 78.3247 483.38 78.0213 482.913 77.816C482.446 77.6107 481.779 77.508 480.911 77.508C480.034 77.508 479.362 77.6153 478.895 77.83C478.428 78.0353 478.195 78.334 478.195 78.726ZM483.571 73.042V71.768H481.065V73.042H483.571Z" fill="#6B6B6B"/>
<rect width="133" height="44" transform="translate(507.5 53)" fill="#F7F7F7"/>
<path d="M530.238 68.674V81.148H528.726V68.674H530.238ZM520.746 69.808H526.696V71.04H522.244V76.864C523.495 76.8547 524.512 76.8267 525.296 76.78C526.08 76.724 526.859 76.6213 527.634 76.472L527.774 77.732C526.925 77.8907 526.066 77.998 525.198 78.054C524.339 78.1007 523.205 78.124 521.796 78.124H520.746V69.808ZM538.456 69.444V70.368C538.456 71.012 538.648 71.642 539.03 72.258C539.422 72.8647 539.954 73.3873 540.626 73.826C541.308 74.2553 542.064 74.54 542.894 74.68L542.236 75.926C541.2 75.7113 540.276 75.3053 539.464 74.708C538.662 74.1107 538.06 73.392 537.658 72.552C537.248 73.392 536.636 74.1153 535.824 74.722C535.022 75.3193 534.107 75.7207 533.08 75.926L532.436 74.68C533.258 74.5307 534.004 74.2413 534.676 73.812C535.358 73.3733 535.89 72.8507 536.272 72.244C536.664 71.628 536.86 71.0027 536.86 70.368V69.444H538.456ZM532.072 78.292H543.342V79.524H532.072V78.292ZM554.207 69.78V70.914C554.207 71.9873 554.179 72.944 554.123 73.784C554.067 74.624 553.917 75.6273 553.675 76.794L552.191 76.626C552.405 75.6087 552.545 74.7127 552.611 73.938L545.317 74.33L545.121 73.042L552.695 72.79C552.713 72.3513 552.723 71.754 552.723 70.998H545.471V69.78H554.207ZM544.169 78.348H548.327V75.268H549.825V78.348H555.411V79.566H544.169V78.348ZM566.177 69.738V70.97H559.121V74.512H566.303V75.716H557.637V69.738H566.177ZM556.265 78.292H567.535V79.538H556.265V78.292ZM581.724 76.374V81.148H580.212V77.592H573.31V76.374H581.724ZM572.19 69.36H573.674V73.77C575.643 73.742 577.435 73.5647 579.05 73.238L579.246 74.456C577.361 74.8387 575.354 75.03 573.226 75.03H572.19V69.36ZM580.212 68.702H581.724V75.814H580.212V68.702ZM585.56 69.934V76.78C586.251 76.7613 586.876 76.7287 587.436 76.682C588.006 76.626 588.589 76.5373 589.186 76.416L589.382 77.676C588.664 77.8347 587.959 77.942 587.268 77.998C586.578 78.0447 585.794 78.068 584.916 78.068H584.076V69.934H585.56ZM587.534 72.706H590.124V68.926H591.538V80.518H590.124V73.938H587.534V72.706ZM592.77 68.674H594.198V81.12H592.77V68.674ZM605.903 68.688V75.758H604.405V68.688H605.903ZM595.865 72.23C595.865 71.6607 596.005 71.1567 596.285 70.718C596.574 70.27 596.971 69.92 597.475 69.668C597.979 69.416 598.548 69.29 599.183 69.29C599.808 69.29 600.373 69.416 600.877 69.668C601.381 69.92 601.777 70.27 602.067 70.718C602.356 71.1567 602.501 71.6607 602.501 72.23C602.501 72.7993 602.356 73.308 602.067 73.756C601.777 74.204 601.381 74.554 600.877 74.806C600.373 75.058 599.808 75.184 599.183 75.184C598.548 75.184 597.979 75.058 597.475 74.806C596.971 74.554 596.574 74.204 596.285 73.756C596.005 73.308 595.865 72.7993 595.865 72.23ZM597.335 72.23C597.335 72.7433 597.507 73.154 597.853 73.462C598.198 73.77 598.641 73.924 599.183 73.924C599.724 73.924 600.167 73.77 600.513 73.462C600.858 73.154 601.031 72.7433 601.031 72.23C601.031 71.7167 600.858 71.306 600.513 70.998C600.167 70.69 599.724 70.536 599.183 70.536C598.641 70.536 598.198 70.69 597.853 70.998C597.507 71.306 597.335 71.7167 597.335 72.23ZM597.741 76.36H605.903V80.966H597.741V76.36ZM604.433 79.776V77.55H599.211V79.776H604.433Z" fill="#6B6B6B"/>
<rect width="90" height="44" transform="translate(640.5 53)" fill="#F7F7F7"/>
<path d="M662.72 68.674V71.306H664.456V72.552H662.72V75.184H661.222V68.674H662.72ZM653.536 69.22H655.034V73.49C656.807 73.462 658.506 73.2893 660.13 72.972L660.298 74.19C658.515 74.554 656.602 74.736 654.558 74.736H653.536V69.22ZM654.698 75.8H656.182V77.228H661.236V75.8H662.72V80.966H654.698V75.8ZM661.236 79.776V78.404H656.182V79.776H661.236ZM675.334 68.674V75.352H673.836V68.674H675.334ZM665.296 72.118C665.296 71.558 665.436 71.0633 665.716 70.634C666.006 70.1953 666.402 69.8547 666.906 69.612C667.41 69.36 667.98 69.234 668.614 69.234C669.24 69.234 669.804 69.36 670.308 69.612C670.812 69.8547 671.209 70.1953 671.498 70.634C671.788 71.0633 671.932 71.558 671.932 72.118C671.932 72.678 671.788 73.182 671.498 73.63C671.218 74.0687 670.822 74.414 670.308 74.666C669.804 74.9087 669.24 75.03 668.614 75.03C667.98 75.03 667.41 74.9087 666.906 74.666C666.402 74.414 666.006 74.0687 665.716 73.63C665.436 73.1913 665.296 72.6873 665.296 72.118ZM666.766 72.118C666.766 72.622 666.939 73.028 667.284 73.336C667.63 73.6347 668.073 73.784 668.614 73.784C669.156 73.784 669.599 73.6347 669.944 73.336C670.29 73.028 670.462 72.622 670.462 72.118C670.462 71.6233 670.29 71.2267 669.944 70.928C669.599 70.62 669.156 70.466 668.614 70.466C668.073 70.466 667.63 70.62 667.284 70.928C666.939 71.2267 666.766 71.6233 666.766 72.118ZM667.186 75.94H668.67V77.242H673.85V75.94H675.334V80.966H667.186V75.94ZM673.85 79.762V78.404H668.67V79.762H673.85ZM680.529 69.57C681.089 69.57 681.593 69.724 682.041 70.032C682.498 70.3307 682.862 70.76 683.133 71.32H686.017V68.66H687.515V81.148H686.017V76.43H683.231C682.96 77.0553 682.591 77.5407 682.125 77.886C681.658 78.222 681.126 78.39 680.529 78.39C679.922 78.39 679.376 78.208 678.891 77.844C678.415 77.48 678.041 76.9667 677.771 76.304C677.5 75.632 677.365 74.8527 677.365 73.966C677.365 73.0887 677.5 72.3187 677.771 71.656C678.041 70.984 678.415 70.4707 678.891 70.116C679.376 69.752 679.922 69.57 680.529 69.57ZM678.793 73.966C678.793 74.918 678.951 75.6647 679.269 76.206C679.586 76.7473 680.006 77.018 680.529 77.018C681.061 77.018 681.485 76.7473 681.803 76.206C682.12 75.6647 682.279 74.918 682.279 73.966C682.279 73.0233 682.12 72.286 681.803 71.754C681.485 71.2127 681.061 70.942 680.529 70.942C680.006 70.942 679.586 71.2127 679.269 71.754C678.951 72.2953 678.793 73.0327 678.793 73.966ZM683.553 72.538C683.646 72.9487 683.693 73.4247 683.693 73.966C683.693 74.3393 683.66 74.7547 683.595 75.212H686.017V72.538H683.553ZM700.535 75.94V77.144H695.607V81.12H694.123V77.144H689.265V75.94H700.535ZM690.609 69.178H692.107V70.704H697.665V69.178H699.149V74.624H690.609V69.178ZM697.665 73.42V71.894H692.107V73.42H697.665Z" fill="#6B6B6B"/>
<rect width="134" height="44" transform="translate(730.5 53)" fill="#F7F7F7"/>
<path d="M752.72 68.674V71.306H754.456V72.552H752.72V75.184H751.222V68.674H752.72ZM743.536 69.22H745.034V73.49C746.807 73.462 748.506 73.2893 750.13 72.972L750.298 74.19C748.515 74.554 746.602 74.736 744.558 74.736H743.536V69.22ZM744.698 75.8H746.182V77.228H751.236V75.8H752.72V80.966H744.698V75.8ZM751.236 79.776V78.404H746.182V79.776H751.236ZM765.334 68.674V75.352H763.836V68.674H765.334ZM755.296 72.118C755.296 71.558 755.436 71.0633 755.716 70.634C756.006 70.1953 756.402 69.8547 756.906 69.612C757.41 69.36 757.98 69.234 758.614 69.234C759.24 69.234 759.804 69.36 760.308 69.612C760.812 69.8547 761.209 70.1953 761.498 70.634C761.788 71.0633 761.932 71.558 761.932 72.118C761.932 72.678 761.788 73.182 761.498 73.63C761.218 74.0687 760.822 74.414 760.308 74.666C759.804 74.9087 759.24 75.03 758.614 75.03C757.98 75.03 757.41 74.9087 756.906 74.666C756.402 74.414 756.006 74.0687 755.716 73.63C755.436 73.1913 755.296 72.6873 755.296 72.118ZM756.766 72.118C756.766 72.622 756.939 73.028 757.284 73.336C757.63 73.6347 758.073 73.784 758.614 73.784C759.156 73.784 759.599 73.6347 759.944 73.336C760.29 73.028 760.462 72.622 760.462 72.118C760.462 71.6233 760.29 71.2267 759.944 70.928C759.599 70.62 759.156 70.466 758.614 70.466C758.073 70.466 757.63 70.62 757.284 70.928C756.939 71.2267 756.766 71.6233 756.766 72.118ZM757.186 75.94H758.67V77.242H763.85V75.94H765.334V80.966H757.186V75.94ZM763.85 79.762V78.404H758.67V79.762H763.85ZM770.067 69.444C770.608 69.444 771.093 69.57 771.523 69.822C771.961 70.074 772.302 70.4287 772.545 70.886C772.787 71.3433 772.909 71.8613 772.909 72.44C772.909 73.0187 772.787 73.5367 772.545 73.994C772.302 74.442 771.961 74.792 771.523 75.044C771.093 75.296 770.608 75.422 770.067 75.422C769.525 75.422 769.04 75.296 768.611 75.044C768.181 74.792 767.845 74.442 767.603 73.994C767.36 73.5367 767.239 73.0187 767.239 72.44C767.239 71.8613 767.36 71.3433 767.603 70.886C767.845 70.4287 768.181 70.074 768.611 69.822C769.04 69.57 769.525 69.444 770.067 69.444ZM768.597 72.44C768.597 72.9627 768.732 73.3827 769.003 73.7C769.283 74.008 769.637 74.162 770.067 74.162C770.496 74.162 770.851 74.008 771.131 73.7C771.411 73.3827 771.551 72.9627 771.551 72.44C771.551 71.9173 771.411 71.4973 771.131 71.18C770.851 70.8627 770.496 70.704 770.067 70.704C769.637 70.704 769.283 70.8627 769.003 71.18C768.732 71.4973 768.597 71.9173 768.597 72.44ZM769.255 76.71H777.725V81.12H776.213V77.914H769.255V76.71ZM773.651 68.912H775.065V71.768H776.283V68.688H777.725V76.094H776.283V73H775.065V76.038H773.651V68.912ZM788.085 70.368V68.688H789.597V77.928H788.085V74.05H785.831V72.846H788.085V71.6H785.831V70.368H788.085ZM779.223 75.24C780.184 74.876 780.922 74.302 781.435 73.518C781.958 72.7247 782.219 71.8427 782.219 70.872V69.36H783.731V70.872C783.731 71.7867 783.983 72.6267 784.487 73.392C784.991 74.1573 785.7 74.7127 786.615 75.058L785.789 76.234C785.136 75.9727 784.571 75.5993 784.095 75.114C783.628 74.6193 783.26 74.0407 782.989 73.378C782.728 74.0873 782.345 74.7033 781.841 75.226C781.337 75.7393 780.73 76.1313 780.021 76.402L779.223 75.24ZM781.463 77.046H782.961V79.664H789.877V80.882H781.463V77.046Z" fill="#6B6B6B"/>
<rect x="57" y="109.5" width="19" height="19" rx="3.5" fill="white"/>
<rect x="57" y="109.5" width="19" height="19" rx="3.5" stroke="#C2C2C2"/>
<path d="M106.59 124.168C105.619 124.168 104.751 123.949 103.986 123.51C103.221 123.062 102.623 122.441 102.194 121.648C101.765 120.855 101.55 119.954 101.55 118.946C101.55 117.938 101.765 117.037 102.194 116.244C102.623 115.451 103.221 114.835 103.986 114.396C104.751 113.948 105.619 113.724 106.59 113.724C107.271 113.724 107.92 113.859 108.536 114.13C109.152 114.401 109.689 114.774 110.146 115.25L109.334 116.006C108.998 115.633 108.587 115.343 108.102 115.138C107.626 114.923 107.122 114.816 106.59 114.816C105.853 114.816 105.195 114.989 104.616 115.334C104.047 115.679 103.599 116.169 103.272 116.804C102.955 117.429 102.796 118.143 102.796 118.946C102.796 119.749 102.955 120.467 103.272 121.102C103.599 121.727 104.047 122.213 104.616 122.558C105.195 122.903 105.853 123.076 106.59 123.076C107.122 123.076 107.621 122.973 108.088 122.768C108.555 122.553 108.956 122.264 109.292 121.9L110.146 122.642C109.679 123.118 109.143 123.491 108.536 123.762C107.929 124.033 107.281 124.168 106.59 124.168ZM115.093 123.034C115.569 123.034 115.993 122.861 116.367 122.516C116.74 122.171 117.029 121.69 117.235 121.074C117.449 120.449 117.557 119.739 117.557 118.946C117.557 118.153 117.449 117.448 117.235 116.832C117.029 116.216 116.74 115.735 116.367 115.39C115.993 115.045 115.569 114.872 115.093 114.872C114.607 114.872 114.178 115.045 113.805 115.39C113.431 115.735 113.137 116.216 112.923 116.832C112.717 117.448 112.615 118.153 112.615 118.946C112.615 119.739 112.717 120.449 112.923 121.074C113.137 121.69 113.431 122.171 113.805 122.516C114.178 122.861 114.607 123.034 115.093 123.034ZM111.383 118.946C111.383 117.947 111.541 117.056 111.859 116.272C112.176 115.488 112.615 114.877 113.175 114.438C113.735 113.999 114.374 113.78 115.093 113.78C115.811 113.78 116.451 113.999 117.011 114.438C117.571 114.877 118.005 115.488 118.313 116.272C118.63 117.056 118.789 117.947 118.789 118.946C118.789 119.945 118.63 120.836 118.313 121.62C118.005 122.404 117.571 123.015 117.011 123.454C116.451 123.893 115.811 124.112 115.093 124.112C114.374 124.112 113.735 123.893 113.175 123.454C112.615 123.015 112.176 122.404 111.859 121.62C111.541 120.836 111.383 119.945 111.383 118.946ZM123.798 123.034C124.274 123.034 124.699 122.861 125.072 122.516C125.446 122.171 125.735 121.69 125.94 121.074C126.155 120.449 126.262 119.739 126.262 118.946C126.262 118.153 126.155 117.448 125.94 116.832C125.735 116.216 125.446 115.735 125.072 115.39C124.699 115.045 124.274 114.872 123.798 114.872C123.313 114.872 122.884 115.045 122.51 115.39C122.137 115.735 121.843 116.216 121.628 116.832C121.423 117.448 121.32 118.153 121.32 118.946C121.32 119.739 121.423 120.449 121.628 121.074C121.843 121.69 122.137 122.171 122.51 122.516C122.884 122.861 123.313 123.034 123.798 123.034ZM120.088 118.946C120.088 117.947 120.247 117.056 120.564 116.272C120.882 115.488 121.32 114.877 121.88 114.438C122.44 113.999 123.08 113.78 123.798 113.78C124.517 113.78 125.156 113.999 125.716 114.438C126.276 114.877 126.71 115.488 127.018 116.272C127.336 117.056 127.494 117.947 127.494 118.946C127.494 119.945 127.336 120.836 127.018 121.62C126.71 122.404 126.276 123.015 125.716 123.454C125.156 123.893 124.517 124.112 123.798 124.112C123.08 124.112 122.44 123.893 121.88 123.454C121.32 123.015 120.882 122.404 120.564 121.62C120.247 120.836 120.088 119.945 120.088 118.946ZM132.504 123.034C132.98 123.034 133.405 122.861 133.778 122.516C134.151 122.171 134.441 121.69 134.646 121.074C134.861 120.449 134.968 119.739 134.968 118.946C134.968 118.153 134.861 117.448 134.646 116.832C134.441 116.216 134.151 115.735 133.778 115.39C133.405 115.045 132.98 114.872 132.504 114.872C132.019 114.872 131.589 115.045 131.216 115.39C130.843 115.735 130.549 116.216 130.334 116.832C130.129 117.448 130.026 118.153 130.026 118.946C130.026 119.739 130.129 120.449 130.334 121.074C130.549 121.69 130.843 122.171 131.216 122.516C131.589 122.861 132.019 123.034 132.504 123.034ZM128.794 118.946C128.794 117.947 128.953 117.056 129.27 116.272C129.587 115.488 130.026 114.877 130.586 114.438C131.146 113.999 131.785 113.78 132.504 113.78C133.223 113.78 133.862 113.999 134.422 114.438C134.982 114.877 135.416 115.488 135.724 116.272C136.041 117.056 136.2 117.947 136.2 118.946C136.2 119.945 136.041 120.836 135.724 121.62C135.416 122.404 134.982 123.015 134.422 123.454C133.862 123.893 133.223 124.112 132.504 124.112C131.785 124.112 131.146 123.893 130.586 123.454C130.026 123.015 129.587 122.404 129.27 121.62C128.953 120.836 128.794 119.945 128.794 118.946ZM141.21 123.034C141.686 123.034 142.11 122.861 142.484 122.516C142.857 122.171 143.146 121.69 143.352 121.074C143.566 120.449 143.674 119.739 143.674 118.946C143.674 118.153 143.566 117.448 143.352 116.832C143.146 116.216 142.857 115.735 142.484 115.39C142.11 115.045 141.686 114.872 141.21 114.872C140.724 114.872 140.295 115.045 139.922 115.39C139.548 115.735 139.254 116.216 139.04 116.832C138.834 117.448 138.732 118.153 138.732 118.946C138.732 119.739 138.834 120.449 139.04 121.074C139.254 121.69 139.548 122.171 139.922 122.516C140.295 122.861 140.724 123.034 141.21 123.034ZM137.5 118.946C137.5 117.947 137.658 117.056 137.976 116.272C138.293 115.488 138.732 114.877 139.292 114.438C139.852 113.999 140.491 113.78 141.21 113.78C141.928 113.78 142.568 113.999 143.128 114.438C143.688 114.877 144.122 115.488 144.43 116.272C144.747 117.056 144.906 117.947 144.906 118.946C144.906 119.945 144.747 120.836 144.43 121.62C144.122 122.404 143.688 123.015 143.128 123.454C142.568 123.893 141.928 124.112 141.21 124.112C140.491 124.112 139.852 123.893 139.292 123.454C138.732 123.015 138.293 122.404 137.976 121.62C137.658 120.836 137.5 119.945 137.5 118.946ZM149.915 123.034C150.391 123.034 150.816 122.861 151.189 122.516C151.563 122.171 151.852 121.69 152.057 121.074C152.272 120.449 152.379 119.739 152.379 118.946C152.379 118.153 152.272 117.448 152.057 116.832C151.852 116.216 151.563 115.735 151.189 115.39C150.816 115.045 150.391 114.872 149.915 114.872C149.43 114.872 149.001 115.045 148.627 115.39C148.254 115.735 147.96 116.216 147.745 116.832C147.54 117.448 147.437 118.153 147.437 118.946C147.437 119.739 147.54 120.449 147.745 121.074C147.96 121.69 148.254 122.171 148.627 122.516C149.001 122.861 149.43 123.034 149.915 123.034ZM146.205 118.946C146.205 117.947 146.364 117.056 146.681 116.272C146.999 115.488 147.437 114.877 147.997 114.438C148.557 113.999 149.197 113.78 149.915 113.78C150.634 113.78 151.273 113.999 151.833 114.438C152.393 114.877 152.827 115.488 153.135 116.272C153.453 117.056 153.611 117.947 153.611 118.946C153.611 119.945 153.453 120.836 153.135 121.62C152.827 122.404 152.393 123.015 151.833 123.454C151.273 123.893 150.634 124.112 149.915 124.112C149.197 124.112 148.557 123.893 147.997 123.454C147.437 123.015 146.999 122.404 146.681 121.62C146.364 120.836 146.205 119.945 146.205 118.946ZM158.621 123.034C159.097 123.034 159.522 122.861 159.895 122.516C160.268 122.171 160.558 121.69 160.763 121.074C160.978 120.449 161.085 119.739 161.085 118.946C161.085 118.153 160.978 117.448 160.763 116.832C160.558 116.216 160.268 115.735 159.895 115.39C159.522 115.045 159.097 114.872 158.621 114.872C158.136 114.872 157.706 115.045 157.333 115.39C156.96 115.735 156.666 116.216 156.451 116.832C156.246 117.448 156.143 118.153 156.143 118.946C156.143 119.739 156.246 120.449 156.451 121.074C156.666 121.69 156.96 122.171 157.333 122.516C157.706 122.861 158.136 123.034 158.621 123.034ZM154.911 118.946C154.911 117.947 155.07 117.056 155.387 116.272C155.704 115.488 156.143 114.877 156.703 114.438C157.263 113.999 157.902 113.78 158.621 113.78C159.34 113.78 159.979 113.999 160.539 114.438C161.099 114.877 161.533 115.488 161.841 116.272C162.158 117.056 162.317 117.947 162.317 118.946C162.317 119.945 162.158 120.836 161.841 121.62C161.533 122.404 161.099 123.015 160.539 123.454C159.979 123.893 159.34 124.112 158.621 124.112C157.902 124.112 157.263 123.893 156.703 123.454C156.143 123.015 155.704 122.404 155.387 121.62C155.07 120.836 154.911 119.945 154.911 118.946Z" fill="#121212"/>
<path d="M198.566 112.702V117.658H200.47V118.722H198.566V125.064H197.264V112.702H198.566ZM189.046 121.788C192.135 120.22 193.806 117.98 194.058 115.068H189.648V114.032H195.346C195.346 115.899 194.898 117.579 194.002 119.072C193.106 120.565 191.692 121.797 189.76 122.768L189.046 121.788ZM210.662 112.702V117.588H212.566V118.652H210.662V125.064H209.374V112.702H210.662ZM201.59 113.92H202.864V120.906C204.778 120.887 206.593 120.705 208.31 120.36L208.464 121.41C207.484 121.615 206.518 121.76 205.566 121.844C204.614 121.919 203.625 121.956 202.598 121.956H201.59V113.92ZM222.759 112.702V117.518H224.719V118.582H222.759V125.092H221.471V112.702H222.759ZM213.743 113.92H219.483V114.942H215.003V120.962C216.123 120.962 217.089 120.934 217.901 120.878C218.722 120.813 219.553 120.701 220.393 120.542L220.533 121.62C219.637 121.788 218.755 121.9 217.887 121.956C217.019 122.012 215.964 122.04 214.723 122.04H213.743V113.92Z" fill="#121212"/>
<path d="M266.924 123.034C267.4 123.034 267.825 122.861 268.198 122.516C268.571 122.171 268.861 121.69 269.066 121.074C269.281 120.449 269.388 119.739 269.388 118.946C269.388 118.153 269.281 117.448 269.066 116.832C268.861 116.216 268.571 115.735 268.198 115.39C267.825 115.045 267.4 114.872 266.924 114.872C266.439 114.872 266.009 115.045 265.636 115.39C265.263 115.735 264.969 116.216 264.754 116.832C264.549 117.448 264.446 118.153 264.446 118.946C264.446 119.739 264.549 120.449 264.754 121.074C264.969 121.69 265.263 122.171 265.636 122.516C266.009 122.861 266.439 123.034 266.924 123.034ZM263.214 118.946C263.214 117.947 263.373 117.056 263.69 116.272C264.007 115.488 264.446 114.877 265.006 114.438C265.566 113.999 266.205 113.78 266.924 113.78C267.643 113.78 268.282 113.999 268.842 114.438C269.402 114.877 269.836 115.488 270.144 116.272C270.461 117.056 270.62 117.947 270.62 118.946C270.62 119.945 270.461 120.836 270.144 121.62C269.836 122.404 269.402 123.015 268.842 123.454C268.282 123.893 267.643 124.112 266.924 124.112C266.205 124.112 265.566 123.893 265.006 123.454C264.446 123.015 264.007 122.404 263.69 121.62C263.373 120.836 263.214 119.945 263.214 118.946ZM275.336 124.014H274.104V115.236L272.424 116.286L271.836 115.292L274.104 113.878H275.336V124.014ZM280.999 123.034C281.475 123.034 281.9 122.861 282.273 122.516C282.647 122.171 282.936 121.69 283.141 121.074C283.356 120.449 283.463 119.739 283.463 118.946C283.463 118.153 283.356 117.448 283.141 116.832C282.936 116.216 282.647 115.735 282.273 115.39C281.9 115.045 281.475 114.872 280.999 114.872C280.514 114.872 280.085 115.045 279.711 115.39C279.338 115.735 279.044 116.216 278.829 116.832C278.624 117.448 278.521 118.153 278.521 118.946C278.521 119.739 278.624 120.449 278.829 121.074C279.044 121.69 279.338 122.171 279.711 122.516C280.085 122.861 280.514 123.034 280.999 123.034ZM277.289 118.946C277.289 117.947 277.448 117.056 277.765 116.272C278.083 115.488 278.521 114.877 279.081 114.438C279.641 113.999 280.281 113.78 280.999 113.78C281.718 113.78 282.357 113.999 282.917 114.438C283.477 114.877 283.911 115.488 284.219 116.272C284.537 117.056 284.695 117.947 284.695 118.946C284.695 119.945 284.537 120.836 284.219 121.62C283.911 122.404 283.477 123.015 282.917 123.454C282.357 123.893 281.718 124.112 280.999 124.112C280.281 124.112 279.641 123.893 279.081 123.454C278.521 123.015 278.083 122.404 277.765 121.62C277.448 120.836 277.289 119.945 277.289 118.946ZM289.705 123.034C290.181 123.034 290.606 122.861 290.979 122.516C291.353 122.171 291.642 121.69 291.847 121.074C292.062 120.449 292.169 119.739 292.169 118.946C292.169 118.153 292.062 117.448 291.847 116.832C291.642 116.216 291.353 115.735 290.979 115.39C290.606 115.045 290.181 114.872 289.705 114.872C289.22 114.872 288.791 115.045 288.417 115.39C288.044 115.735 287.75 116.216 287.535 116.832C287.33 117.448 287.227 118.153 287.227 118.946C287.227 119.739 287.33 120.449 287.535 121.074C287.75 121.69 288.044 122.171 288.417 122.516C288.791 122.861 289.22 123.034 289.705 123.034ZM285.995 118.946C285.995 117.947 286.154 117.056 286.471 116.272C286.789 115.488 287.227 114.877 287.787 114.438C288.347 113.999 288.987 113.78 289.705 113.78C290.424 113.78 291.063 113.999 291.623 114.438C292.183 114.877 292.617 115.488 292.925 116.272C293.243 117.056 293.401 117.947 293.401 118.946C293.401 119.945 293.243 120.836 292.925 121.62C292.617 122.404 292.183 123.015 291.623 123.454C291.063 123.893 290.424 124.112 289.705 124.112C288.987 124.112 288.347 123.893 287.787 123.454C287.227 123.015 286.789 122.404 286.471 121.62C286.154 120.836 285.995 119.945 285.995 118.946ZM298.411 123.034C298.887 123.034 299.312 122.861 299.685 122.516C300.058 122.171 300.348 121.69 300.553 121.074C300.768 120.449 300.875 119.739 300.875 118.946C300.875 118.153 300.768 117.448 300.553 116.832C300.348 116.216 300.058 115.735 299.685 115.39C299.312 115.045 298.887 114.872 298.411 114.872C297.926 114.872 297.496 115.045 297.123 115.39C296.75 115.735 296.456 116.216 296.241 116.832C296.036 117.448 295.933 118.153 295.933 118.946C295.933 119.739 296.036 120.449 296.241 121.074C296.456 121.69 296.75 122.171 297.123 122.516C297.496 122.861 297.926 123.034 298.411 123.034ZM294.701 118.946C294.701 117.947 294.86 117.056 295.177 116.272C295.494 115.488 295.933 114.877 296.493 114.438C297.053 113.999 297.692 113.78 298.411 113.78C299.13 113.78 299.769 113.999 300.329 114.438C300.889 114.877 301.323 115.488 301.631 116.272C301.948 117.056 302.107 117.947 302.107 118.946C302.107 119.945 301.948 120.836 301.631 121.62C301.323 122.404 300.889 123.015 300.329 123.454C299.769 123.893 299.13 124.112 298.411 124.112C297.692 124.112 297.053 123.893 296.493 123.454C295.933 123.015 295.494 122.404 295.177 121.62C294.86 120.836 294.701 119.945 294.701 118.946ZM307.117 123.034C307.593 123.034 308.017 122.861 308.391 122.516C308.764 122.171 309.053 121.69 309.259 121.074C309.473 120.449 309.581 119.739 309.581 118.946C309.581 118.153 309.473 117.448 309.259 116.832C309.053 116.216 308.764 115.735 308.391 115.39C308.017 115.045 307.593 114.872 307.117 114.872C306.631 114.872 306.202 115.045 305.829 115.39C305.455 115.735 305.161 116.216 304.947 116.832C304.741 117.448 304.639 118.153 304.639 118.946C304.639 119.739 304.741 120.449 304.947 121.074C305.161 121.69 305.455 122.171 305.829 122.516C306.202 122.861 306.631 123.034 307.117 123.034ZM303.407 118.946C303.407 117.947 303.565 117.056 303.883 116.272C304.2 115.488 304.639 114.877 305.199 114.438C305.759 113.999 306.398 113.78 307.117 113.78C307.835 113.78 308.475 113.999 309.035 114.438C309.595 114.877 310.029 115.488 310.337 116.272C310.654 117.056 310.813 117.947 310.813 118.946C310.813 119.945 310.654 120.836 310.337 121.62C310.029 122.404 309.595 123.015 309.035 123.454C308.475 123.893 307.835 124.112 307.117 124.112C306.398 124.112 305.759 123.893 305.199 123.454C304.639 123.015 304.2 122.404 303.883 121.62C303.565 120.836 303.407 119.945 303.407 118.946ZM315.822 123.034C316.298 123.034 316.723 122.861 317.096 122.516C317.47 122.171 317.759 121.69 317.964 121.074C318.179 120.449 318.286 119.739 318.286 118.946C318.286 118.153 318.179 117.448 317.964 116.832C317.759 116.216 317.47 115.735 317.096 115.39C316.723 115.045 316.298 114.872 315.822 114.872C315.337 114.872 314.908 115.045 314.534 115.39C314.161 115.735 313.867 116.216 313.652 116.832C313.447 117.448 313.344 118.153 313.344 118.946C313.344 119.739 313.447 120.449 313.652 121.074C313.867 121.69 314.161 122.171 314.534 122.516C314.908 122.861 315.337 123.034 315.822 123.034ZM312.112 118.946C312.112 117.947 312.271 117.056 312.588 116.272C312.906 115.488 313.344 114.877 313.904 114.438C314.464 113.999 315.104 113.78 315.822 113.78C316.541 113.78 317.18 113.999 317.74 114.438C318.3 114.877 318.734 115.488 319.042 116.272C319.36 117.056 319.518 117.947 319.518 118.946C319.518 119.945 319.36 120.836 319.042 121.62C318.734 122.404 318.3 123.015 317.74 123.454C317.18 123.893 316.541 124.112 315.822 124.112C315.104 124.112 314.464 123.893 313.904 123.454C313.344 123.015 312.906 122.404 312.588 121.62C312.271 120.836 312.112 119.945 312.112 118.946ZM324.528 123.034C325.004 123.034 325.429 122.861 325.802 122.516C326.175 122.171 326.465 121.69 326.67 121.074C326.885 120.449 326.992 119.739 326.992 118.946C326.992 118.153 326.885 117.448 326.67 116.832C326.465 116.216 326.175 115.735 325.802 115.39C325.429 115.045 325.004 114.872 324.528 114.872C324.043 114.872 323.613 115.045 323.24 115.39C322.867 115.735 322.573 116.216 322.358 116.832C322.153 117.448 322.05 118.153 322.05 118.946C322.05 119.739 322.153 120.449 322.358 121.074C322.573 121.69 322.867 122.171 323.24 122.516C323.613 122.861 324.043 123.034 324.528 123.034ZM320.818 118.946C320.818 117.947 320.977 117.056 321.294 116.272C321.611 115.488 322.05 114.877 322.61 114.438C323.17 113.999 323.809 113.78 324.528 113.78C325.247 113.78 325.886 113.999 326.446 114.438C327.006 114.877 327.44 115.488 327.748 116.272C328.065 117.056 328.224 117.947 328.224 118.946C328.224 119.945 328.065 120.836 327.748 121.62C327.44 122.404 327.006 123.015 326.446 123.454C325.886 123.893 325.247 124.112 324.528 124.112C323.809 124.112 323.17 123.893 322.61 123.454C322.05 123.015 321.611 122.404 321.294 121.62C320.977 120.836 320.818 119.945 320.818 118.946ZM333.234 123.034C333.71 123.034 334.134 122.861 334.508 122.516C334.881 122.171 335.17 121.69 335.376 121.074C335.59 120.449 335.698 119.739 335.698 118.946C335.698 118.153 335.59 117.448 335.376 116.832C335.17 116.216 334.881 115.735 334.508 115.39C334.134 115.045 333.71 114.872 333.234 114.872C332.748 114.872 332.319 115.045 331.946 115.39C331.572 115.735 331.278 116.216 331.064 116.832C330.858 117.448 330.756 118.153 330.756 118.946C330.756 119.739 330.858 120.449 331.064 121.074C331.278 121.69 331.572 122.171 331.946 122.516C332.319 122.861 332.748 123.034 333.234 123.034ZM329.524 118.946C329.524 117.947 329.682 117.056 330 116.272C330.317 115.488 330.756 114.877 331.316 114.438C331.876 113.999 332.515 113.78 333.234 113.78C333.952 113.78 334.592 113.999 335.152 114.438C335.712 114.877 336.146 115.488 336.454 116.272C336.771 117.056 336.93 117.947 336.93 118.946C336.93 119.945 336.771 120.836 336.454 121.62C336.146 122.404 335.712 123.015 335.152 123.454C334.592 123.893 333.952 124.112 333.234 124.112C332.515 124.112 331.876 123.893 331.316 123.454C330.756 123.015 330.317 122.404 330 121.62C329.682 120.836 329.524 119.945 329.524 118.946ZM341.939 123.034C342.415 123.034 342.84 122.861 343.213 122.516C343.587 122.171 343.876 121.69 344.081 121.074C344.296 120.449 344.403 119.739 344.403 118.946C344.403 118.153 344.296 117.448 344.081 116.832C343.876 116.216 343.587 115.735 343.213 115.39C342.84 115.045 342.415 114.872 341.939 114.872C341.454 114.872 341.025 115.045 340.651 115.39C340.278 115.735 339.984 116.216 339.769 116.832C339.564 117.448 339.461 118.153 339.461 118.946C339.461 119.739 339.564 120.449 339.769 121.074C339.984 121.69 340.278 122.171 340.651 122.516C341.025 122.861 341.454 123.034 341.939 123.034ZM338.229 118.946C338.229 117.947 338.388 117.056 338.705 116.272C339.023 115.488 339.461 114.877 340.021 114.438C340.581 113.999 341.221 113.78 341.939 113.78C342.658 113.78 343.297 113.999 343.857 114.438C344.417 114.877 344.851 115.488 345.159 116.272C345.477 117.056 345.635 117.947 345.635 118.946C345.635 119.945 345.477 120.836 345.159 121.62C344.851 122.404 344.417 123.015 343.857 123.454C343.297 123.893 342.658 124.112 341.939 124.112C341.221 124.112 340.581 123.893 340.021 123.454C339.461 123.015 339.023 122.404 338.705 121.62C338.388 120.836 338.229 119.945 338.229 118.946ZM350.645 123.034C351.121 123.034 351.546 122.861 351.919 122.516C352.292 122.171 352.582 121.69 352.787 121.074C353.002 120.449 353.109 119.739 353.109 118.946C353.109 118.153 353.002 117.448 352.787 116.832C352.582 116.216 352.292 115.735 351.919 115.39C351.546 115.045 351.121 114.872 350.645 114.872C350.16 114.872 349.73 115.045 349.357 115.39C348.984 115.735 348.69 116.216 348.475 116.832C348.27 117.448 348.167 118.153 348.167 118.946C348.167 119.739 348.27 120.449 348.475 121.074C348.69 121.69 348.984 122.171 349.357 122.516C349.73 122.861 350.16 123.034 350.645 123.034ZM346.935 118.946C346.935 117.947 347.094 117.056 347.411 116.272C347.728 115.488 348.167 114.877 348.727 114.438C349.287 113.999 349.926 113.78 350.645 113.78C351.364 113.78 352.003 113.999 352.563 114.438C353.123 114.877 353.557 115.488 353.865 116.272C354.182 117.056 354.341 117.947 354.341 118.946C354.341 119.945 354.182 120.836 353.865 121.62C353.557 122.404 353.123 123.015 352.563 123.454C352.003 123.893 351.364 124.112 350.645 124.112C349.926 124.112 349.287 123.893 348.727 123.454C348.167 123.015 347.728 122.404 347.411 121.62C347.094 120.836 346.935 119.945 346.935 118.946Z" fill="#121212"/>
<path d="M390.77 123.076C391.171 123.076 391.545 122.964 391.89 122.74C392.245 122.516 392.529 122.208 392.744 121.816C392.959 121.415 393.066 120.971 393.066 120.486C393.066 120.001 392.959 119.562 392.744 119.17C392.529 118.778 392.245 118.47 391.89 118.246C391.545 118.022 391.171 117.91 390.77 117.91C390.331 117.91 389.939 118.017 389.594 118.232C389.258 118.447 388.992 118.75 388.796 119.142C388.609 119.534 388.516 119.982 388.516 120.486C388.516 121.251 388.726 121.877 389.146 122.362C389.566 122.838 390.107 123.076 390.77 123.076ZM387.284 120.486C387.284 119.786 387.429 119.161 387.718 118.61C388.007 118.059 388.413 117.63 388.936 117.322C389.459 117.014 390.051 116.86 390.714 116.86C391.143 116.86 391.563 116.977 391.974 117.21C392.385 117.434 392.739 117.775 393.038 118.232V116.818H394.27V124.056H393.038V122.754C392.73 123.23 392.375 123.58 391.974 123.804C391.573 124.028 391.153 124.14 390.714 124.14C390.051 124.14 389.459 123.986 388.936 123.678C388.413 123.361 388.007 122.927 387.718 122.376C387.429 121.825 387.284 121.195 387.284 120.486ZM399.717 124.14C399.316 124.14 398.9 124.033 398.471 123.818C398.042 123.603 397.673 123.249 397.365 122.754V124.056H396.133V113.836H397.365V118.204C397.673 117.709 398.042 117.355 398.471 117.14C398.9 116.925 399.32 116.818 399.731 116.818C400.403 116.818 401 116.977 401.523 117.294C402.046 117.602 402.452 118.031 402.741 118.582C403.04 119.133 403.189 119.763 403.189 120.472C403.189 121.181 403.04 121.816 402.741 122.376C402.452 122.927 402.041 123.361 401.509 123.678C400.986 123.986 400.389 124.14 399.717 124.14ZM397.365 120.486C397.365 120.962 397.468 121.401 397.673 121.802C397.888 122.203 398.172 122.521 398.527 122.754C398.882 122.987 399.264 123.104 399.675 123.104C400.114 123.104 400.506 122.992 400.851 122.768C401.206 122.544 401.476 122.236 401.663 121.844C401.859 121.443 401.957 120.99 401.957 120.486C401.957 119.982 401.859 119.534 401.663 119.142C401.476 118.741 401.206 118.433 400.851 118.218C400.506 117.994 400.114 117.882 399.675 117.882C399.264 117.882 398.882 117.999 398.527 118.232C398.172 118.465 397.888 118.783 397.673 119.184C397.468 119.585 397.365 120.019 397.365 120.486ZM407.685 122.95C407.993 122.95 408.315 122.88 408.651 122.74C408.987 122.6 409.267 122.418 409.491 122.194L410.345 123.006C410.028 123.333 409.627 123.599 409.141 123.804C408.656 124.009 408.189 124.112 407.741 124.112C407.032 124.112 406.397 123.958 405.837 123.65C405.287 123.333 404.853 122.899 404.535 122.348C404.227 121.797 404.073 121.167 404.073 120.458C404.073 119.749 404.227 119.119 404.535 118.568C404.853 118.017 405.287 117.588 405.837 117.28C406.397 116.972 407.032 116.818 407.741 116.818C408.199 116.818 408.665 116.921 409.141 117.126C409.617 117.331 410.019 117.597 410.345 117.924L409.491 118.736C409.267 118.503 408.987 118.316 408.651 118.176C408.315 118.036 407.993 117.966 407.685 117.966C407.228 117.966 406.817 118.073 406.453 118.288C406.089 118.493 405.805 118.787 405.599 119.17C405.403 119.543 405.305 119.973 405.305 120.458C405.305 121.195 405.525 121.797 405.963 122.264C406.411 122.721 406.985 122.95 407.685 122.95ZM414.603 124.14C413.94 124.14 413.348 123.986 412.825 123.678C412.302 123.361 411.892 122.927 411.593 122.376C411.304 121.816 411.159 121.181 411.159 120.472C411.159 119.763 411.304 119.133 411.593 118.582C411.892 118.022 412.302 117.588 412.825 117.28C413.348 116.963 413.94 116.804 414.603 116.804C415.042 116.804 415.476 116.921 415.905 117.154C416.334 117.378 416.694 117.733 416.983 118.218V113.836H418.215V124.056H416.983V122.74C416.684 123.216 416.32 123.571 415.891 123.804C415.462 124.028 415.032 124.14 414.603 124.14ZM412.391 120.486C412.391 120.99 412.484 121.443 412.671 121.844C412.867 122.236 413.138 122.544 413.483 122.768C413.838 122.992 414.234 123.104 414.673 123.104C415.084 123.104 415.466 122.987 415.821 122.754C416.176 122.511 416.456 122.189 416.661 121.788C416.876 121.387 416.983 120.953 416.983 120.486C416.983 120.019 416.876 119.585 416.661 119.184C416.456 118.783 416.176 118.465 415.821 118.232C415.466 117.989 415.084 117.868 414.673 117.868C414.234 117.868 413.838 117.98 413.483 118.204C413.138 118.428 412.867 118.741 412.671 119.142C412.484 119.534 412.391 119.982 412.391 120.486Z" fill="#121212"/>
<path d="M529.566 112.702V117.658H531.47V118.722H529.566V125.064H528.264V112.702H529.566ZM520.046 121.788C523.135 120.22 524.806 117.98 525.058 115.068H520.648V114.032H526.346C526.346 115.899 525.898 117.579 525.002 119.072C524.106 120.565 522.692 121.797 520.76 122.768L520.046 121.788ZM541.662 112.702V117.588H543.566V118.652H541.662V125.064H540.374V112.702H541.662ZM532.59 113.92H533.864V120.906C535.778 120.887 537.593 120.705 539.31 120.36L539.464 121.41C538.484 121.615 537.518 121.76 536.566 121.844C535.614 121.919 534.625 121.956 533.598 121.956H532.59V113.92ZM553.759 112.702V117.518H555.719V118.582H553.759V125.092H552.471V112.702H553.759ZM544.743 113.92H550.483V114.942H546.003V120.962C547.123 120.962 548.089 120.934 548.901 120.878C549.722 120.813 550.553 120.701 551.393 120.542L551.533 121.62C550.637 121.788 549.755 121.9 548.887 121.956C548.019 122.012 546.964 122.04 545.723 122.04H544.743V113.92ZM565.855 112.702V117.56H567.815V118.638H565.855V125.092H564.595V112.702H565.855ZM556.797 113.85H562.397V118.358H558.099V121.074C559.238 121.065 560.222 121.032 561.053 120.976C561.884 120.911 562.724 120.803 563.573 120.654L563.685 121.69C562.77 121.858 561.865 121.975 560.969 122.04C560.073 122.105 559.023 122.138 557.819 122.138H556.825V117.322H561.137V114.886H556.797V113.85Z" fill="#121212"/>
<path d="M659.43 113.906V122.012H653.69V113.906H659.43ZM658.184 120.976V114.928H654.95V120.976H658.184ZM661.866 112.702H663.14V125.092H661.866V112.702ZM674.746 112.716V115.418H676.524V116.482H674.746V119.17H673.458V112.716H674.746ZM665.702 113.29H666.976V117.574C668.871 117.555 670.64 117.383 672.282 117.056L672.422 118.092C670.593 118.465 668.684 118.652 666.696 118.652H665.702V113.29ZM666.878 119.8H668.138V121.34H673.486V119.8H674.746V124.91H666.878V119.8ZM673.486 123.888V122.362H668.138V123.888H673.486Z" fill="#121212"/>
<g clip-path="url(#clip0_2277_3673)">
<mask id="path-16-inside-1_2277_3673" fill="white">
<path d="M730.5 119C730.5 108.507 739.007 100 749.5 100H776.5C786.993 100 795.5 108.507 795.5 119C795.5 129.493 786.993 138 776.5 138H749.5C739.007 138 730.5 129.493 730.5 119Z"/>
</mask>
<path d="M730.5 119C730.5 108.507 739.007 100 749.5 100H776.5C786.993 100 795.5 108.507 795.5 119C795.5 129.493 786.993 138 776.5 138H749.5C739.007 138 730.5 129.493 730.5 119Z" fill="white"/>
<path d="M749.5 101H776.5V99H749.5V101ZM776.5 137H749.5V139H776.5V137ZM749.5 137C739.559 137 731.5 128.941 731.5 119H729.5C729.5 130.046 738.454 139 749.5 139V137ZM794.5 119C794.5 128.941 786.441 137 776.5 137V139C787.546 139 796.5 130.046 796.5 119H794.5ZM776.5 101C786.441 101 794.5 109.059 794.5 119H796.5C796.5 107.954 787.546 99 776.5 99V101ZM749.5 99C738.454 99 729.5 107.954 729.5 119H731.5C731.5 109.059 739.559 101 749.5 101V99Z" fill="#2A8642" mask="url(#path-16-inside-1_2277_3673)"/>
<path d="M761.054 112.674V115.306H762.79V116.552H761.054V119.184H759.556V112.674H761.054ZM751.87 113.22H753.368V117.49C755.141 117.462 756.84 117.289 758.464 116.972L758.632 118.19C756.849 118.554 754.936 118.736 752.892 118.736H751.87V113.22ZM753.032 119.8H754.516V121.228H759.57V119.8H761.054V124.966H753.032V119.8ZM759.57 123.776V122.404H754.516V123.776H759.57ZM773.668 112.674V119.352H772.17V112.674H773.668ZM763.63 116.118C763.63 115.558 763.77 115.063 764.05 114.634C764.339 114.195 764.736 113.855 765.24 113.612C765.744 113.36 766.313 113.234 766.948 113.234C767.573 113.234 768.138 113.36 768.642 113.612C769.146 113.855 769.543 114.195 769.832 114.634C770.121 115.063 770.266 115.558 770.266 116.118C770.266 116.678 770.121 117.182 769.832 117.63C769.552 118.069 769.155 118.414 768.642 118.666C768.138 118.909 767.573 119.03 766.948 119.03C766.313 119.03 765.744 118.909 765.24 118.666C764.736 118.414 764.339 118.069 764.05 117.63C763.77 117.191 763.63 116.687 763.63 116.118ZM765.1 116.118C765.1 116.622 765.273 117.028 765.618 117.336C765.963 117.635 766.407 117.784 766.948 117.784C767.489 117.784 767.933 117.635 768.278 117.336C768.623 117.028 768.796 116.622 768.796 116.118C768.796 115.623 768.623 115.227 768.278 114.928C767.933 114.62 767.489 114.466 766.948 114.466C766.407 114.466 765.963 114.62 765.618 114.928C765.273 115.227 765.1 115.623 765.1 116.118ZM765.52 119.94H767.004V121.242H772.184V119.94H773.668V124.966H765.52V119.94ZM772.184 123.762V122.404H767.004V123.762H772.184Z" fill="#2A8642"/>
<mask id="path-19-inside-2_2277_3673" fill="white">
<path d="M799.5 119C799.5 108.507 808.007 100 818.5 100H845.5C855.993 100 864.5 108.507 864.5 119C864.5 129.493 855.993 138 845.5 138H818.5C808.007 138 799.5 129.493 799.5 119Z"/>
</mask>
<path d="M799.5 119C799.5 108.507 808.007 100 818.5 100H845.5C855.993 100 864.5 108.507 864.5 119C864.5 129.493 855.993 138 845.5 138H818.5C808.007 138 799.5 129.493 799.5 119Z" fill="white"/>
<path d="M818.5 101H845.5V99H818.5V101ZM845.5 137H818.5V139H845.5V137ZM818.5 137C808.559 137 800.5 128.941 800.5 119H798.5C798.5 130.046 807.454 139 818.5 139V137ZM863.5 119C863.5 128.941 855.441 137 845.5 137V139C856.546 139 865.5 130.046 865.5 119H863.5ZM845.5 101C855.441 101 863.5 109.059 863.5 119H865.5C865.5 107.954 856.546 99 845.5 99V101ZM818.5 99C807.454 99 798.5 107.954 798.5 119H800.5C800.5 109.059 808.559 101 818.5 101V99Z" fill="#BB362A" mask="url(#path-19-inside-2_2277_3673)"/>
<path d="M826.82 113.836V122.082H820.954V113.836H826.82ZM825.364 120.892V115.026H822.438V120.892H825.364ZM829.06 112.66H830.572V125.148H829.06V112.66ZM842.15 112.674V115.306H843.886V116.552H842.15V119.184H840.652V112.674H842.15ZM832.966 113.22H834.464V117.49C836.237 117.462 837.936 117.289 839.56 116.972L839.728 118.19C837.945 118.554 836.032 118.736 833.988 118.736H832.966V113.22ZM834.128 119.8H835.612V121.228H840.666V119.8H842.15V124.966H834.128V119.8ZM840.666 123.776V122.404H835.612V123.776H840.666Z" fill="#BB362A"/>
</g>
<path d="M44.0757 161.576C43.8414 161.81 43.8414 162.19 44.0757 162.424L47.8941 166.243C48.1284 166.477 48.5083 166.477 48.7426 166.243C48.977 166.008 48.977 165.628 48.7426 165.394L45.3485 162L48.7426 158.606C48.977 158.372 48.977 157.992 48.7426 157.757C48.5083 157.523 48.1284 157.523 47.8941 157.757L44.0757 161.576ZM864.924 162.424C865.159 162.19 865.159 161.81 864.924 161.576L861.106 157.757C860.872 157.523 860.492 157.523 860.257 157.757C860.023 157.992 860.023 158.372 860.257 158.606L863.651 162L860.257 165.394C860.023 165.628 860.023 166.008 860.257 166.243C860.492 166.477 860.872 166.477 861.106 166.243L864.924 162.424ZM44.5 162.6H864.5V161.4H44.5V162.6Z" fill="#6B6B6B"/>
<path d="M453.918 179.054H448.304V182.302H453.022V183.562H448.304V188.098H446.848V177.794H453.918V179.054ZM456.942 180.818V188.098H455.486V180.818H456.942ZM455.388 178.438C455.388 178.195 455.463 177.999 455.612 177.85C455.771 177.691 455.972 177.612 456.214 177.612C456.457 177.612 456.653 177.691 456.802 177.85C456.961 177.999 457.04 178.195 457.04 178.438C457.04 178.671 456.961 178.867 456.802 179.026C456.653 179.185 456.457 179.264 456.214 179.264C455.972 179.264 455.771 179.189 455.612 179.04C455.463 178.881 455.388 178.681 455.388 178.438ZM460.201 177.794V188.098H458.745V177.794H460.201ZM463.343 177.794V188.098H461.887V177.794H463.343Z" fill="#6B6B6B"/>
<defs>
<clipPath id="clip0_2277_3673">
<rect width="134" height="44" fill="white" transform="translate(730.5 97)"/>
</clipPath>
</defs>
</svg>
