<svg xmlns="http://www.w3.org/2000/svg" width="908" height="222" fill="none" viewBox="0 0 908 222"><path fill="#fff" d="M.5 0h907v222H.5z"/><path fill="#F7F7F7" d="M44.5 53h820v44h-820z"/><rect width="19" height="19" x="57" y="65.5" fill="#fff" rx="3.5"/><rect width="19" height="19" x="57" y="65.5" stroke="#C2C2C2" rx="3.5"/><path fill="#F7F7F7" d="M88.5 53h88v44h-88z"/><path fill="#6B6B6B" d="M103.916 69.864v-1.26h1.498v1.26h2.912v1.19h-7.336v-1.19zm-2.268 3.976q0-.672.378-1.19.378-.532 1.064-.812.686-.294 1.568-.294t1.568.294q.7.28 1.078.812.392.518.392 1.19t-.392 1.19q-.378.504-1.064.784t-1.582.28q-.882 0-1.568-.28t-1.064-.784a1.97 1.97 0 0 1-.378-1.19m.868 3.206h8.204v4.074h-1.512v-2.856h-6.692zm.56-3.206q0 .517.434.826.434.294 1.148.294t1.148-.294a.96.96 0 0 0 .434-.826.94.94 0 0 0-.434-.826q-.42-.308-1.148-.308-.714 0-1.148.308a.94.94 0 0 0-.434.826m6.132-5.166h1.512v3.304h1.722v1.246h-1.722v3.248h-1.512zm14.196.014v9.184h-1.498V73.28h-2.492v2.576h-5.782V69.5h1.498v2.016h2.8V69.5h1.484v2.562h2.492v-3.374zm-5.474 5.964v-1.974h-2.8v1.974zm-2.646 2.324h1.498v2.688h6.902v1.218h-8.4z"/><path fill="#F7F7F7" d="M176.5 53h74v44h-74z"/><path fill="#6B6B6B" d="M199.238 68.66v12.488h-1.512V68.66zm-9.87 5.306q0-1.315.406-2.31.42-1.008 1.148-1.54a2.7 2.7 0 0 1 1.666-.546q.938 0 1.666.546.727.532 1.134 1.54.42.995.42 2.31 0 1.33-.42 2.338-.406.994-1.134 1.54a2.7 2.7 0 0 1-1.666.546 2.7 2.7 0 0 1-1.666-.546q-.728-.546-1.148-1.54-.406-1.008-.406-2.338m1.456 0q0 1.428.476 2.24.49.812 1.288.812t1.288-.812.49-2.24q0-1.414-.49-2.212-.49-.812-1.288-.812t-1.288.812q-.476.798-.476 2.212m21.518 1.05v1.204h-11.27v-1.204zm-9.856-6.062h8.456v3.15h-6.958v.91h7.21v1.162H202.5v-3.164h6.958v-.91h-6.972zm.056 8.176h8.442v3.836h-8.442zm6.958 2.646v-1.47h-5.488v1.47z"/><path fill="#F7F7F7" d="M250.5 53h124v44h-124z"/><path fill="#6B6B6B" d="M271.796 71.978v-3.29h1.512v9.072h-1.512v-4.55h-2.184v-1.232zm-8.848 3.136q1.428-.49 2.226-1.582t.798-2.38v-.364h-2.59v-1.204h6.664v1.204h-2.548v.364q0 1.176.756 2.212.77 1.035 2.142 1.498l-.742 1.19a5.2 5.2 0 0 1-1.75-1.036 5 5 0 0 1-1.148-1.582 5 5 0 0 1-1.19 1.764 4.9 4.9 0 0 1-1.862 1.12zm2.254 1.876h1.512v2.674h6.916v1.218h-8.428zm19.642-8.316v5.152h1.722v1.26h-1.722v6.034h-1.512V68.674zm-9.912 9.002q2.044 0 3.178-.028v-1.176q-1.021-.168-1.638-.77a2.03 2.03 0 0 1-.616-1.484q0-.686.378-1.218a2.47 2.47 0 0 1 1.064-.812 3.9 3.9 0 0 1 1.554-.294q.882 0 1.554.294.687.28 1.064.812.392.532.392 1.218 0 .868-.616 1.47-.601.602-1.638.784v1.12q1.919-.098 3.038-.266l.112 1.078a26.4 26.4 0 0 1-3.57.434 88 88 0 0 1-4.046.084zm.238-7.574h2.94v-1.386h1.498v1.386h2.926v1.19h-7.364zm2.128 4.116q0 .546.42.868.42.308 1.134.308t1.148-.308q.435-.322.434-.868 0-.546-.434-.868t-1.148-.322-1.134.322-.42.868m20.203-5.53v9.184h-1.498V73.28h-2.492v2.576h-5.782V69.5h1.498v2.016h2.8V69.5h1.484v2.562h2.492v-3.374zm-5.474 5.964v-1.974h-2.8v1.974zm-2.646 2.324h1.498v2.688h6.902v1.218h-8.4zm14.756-6.65v-1.498h1.498v1.498h4.34v1.204h-10.192v-1.204zm-4.872 8.218h4.872v-1.568q-1.61-.112-2.52-.728-.896-.63-.896-1.652 0-1.134 1.106-1.764 1.12-.63 3.052-.63 1.918 0 3.024.644 1.12.63 1.12 1.75 0 1.022-.896 1.652-.896.615-2.492.728v1.568h4.9v1.218h-11.27zm2.982-3.948q0 .602.672.924.686.308 1.96.308 1.26 0 1.932-.308.686-.323.686-.924 0-.602-.686-.91-.672-.322-1.932-.322t-1.946.322q-.686.308-.686.91"/><path fill="#F7F7F7" d="M374.5 53h133v44h-133z"/><path fill="#6B6B6B" d="M397.238 68.674v12.474h-1.512V68.674zm-9.492 1.134h5.95v1.232h-4.452v5.824a61 61 0 0 0 3.052-.084 20 20 0 0 0 2.338-.308l.14 1.26q-1.274.238-2.576.322-1.288.07-3.402.07h-1.05zm17.71-.364v.924q0 .966.574 1.89.588.91 1.596 1.568 1.023.645 2.268.854l-.658 1.246a7 7 0 0 1-2.772-1.218q-1.203-.896-1.806-2.156-.615 1.26-1.834 2.17a6.74 6.74 0 0 1-2.744 1.204l-.644-1.246a6.2 6.2 0 0 0 2.24-.868q1.023-.658 1.596-1.568.588-.924.588-1.876v-.924zm-6.384 8.848h11.27v1.232h-11.27zm22.135-8.512v1.134q0 1.61-.084 2.87t-.448 3.01l-1.484-.168q.321-1.525.42-2.688l-7.294.392-.196-1.288 7.574-.252q.028-.658.028-1.792h-7.252V69.78zm-10.038 8.568h4.158v-3.08h1.498v3.08h5.586v1.218h-11.242zm22.008-8.61v1.232h-7.056v3.542h7.182v1.204h-8.666v-5.978zm-9.912 8.554h11.27v1.246h-11.27zm19.593-8.61v1.988q0 1.12.35 2.198.364 1.065 1.036 1.918.686.854 1.61 1.302l-.91 1.204a5.1 5.1 0 0 1-1.708-1.442 7.4 7.4 0 0 1-1.12-2.17 7.6 7.6 0 0 1-1.19 2.324 5.26 5.26 0 0 1-1.792 1.526l-.896-1.232a4.7 4.7 0 0 0 1.666-1.344 6.2 6.2 0 0 0 1.078-2.002 7.1 7.1 0 0 0 .378-2.282v-1.988zm3.752-1.008h1.512v4.9h1.904v1.26h-1.904v6.286h-1.512zm6.566 6.02v-1.61q-.7-.308-1.078-.77a1.7 1.7 0 0 1-.378-1.078q0-1.105 1.19-1.722 1.204-.63 3.262-.63t3.248.63q1.204.616 1.204 1.722 0 .601-.392 1.078-.378.476-1.092.784v1.596h2.646v1.176h-11.242v-1.176zm-1.316 4.186q0-1.065 1.134-1.652 1.134-.588 3.164-.588 2.016 0 3.15.588t1.134 1.652-1.134 1.652-3.15.588q-2.03 0-3.164-.588t-1.134-1.652m1.414-7.644q0 .574.756.896.771.308 2.142.308 1.372 0 2.128-.308.77-.322.77-.896 0-.587-.77-.896-.756-.308-2.128-.308-1.371 0-2.142.308-.756.308-.756.896m.098 7.644q0 .547.714.826.714.266 2.072.266 1.345 0 2.044-.266.714-.28.714-.826 0-.532-.714-.812-.7-.28-2.044-.28-1.358 0-2.072.28t-.714.812m4.27-4.186V73.49q-.63.098-1.47.098-.853 0-1.498-.098v1.204zm11.999-4.802v1.26h-2.59v1.078a5.6 5.6 0 0 0 .378 1.974 6 6 0 0 0 1.078 1.806 4.95 4.95 0 0 0 1.652 1.246l-.84 1.19a5.1 5.1 0 0 1-1.792-1.414 7.2 7.2 0 0 1-1.204-2.142q-.434 1.316-1.232 2.338-.785 1.022-1.82 1.526l-.868-1.176a5.1 5.1 0 0 0 1.652-1.316 6.5 6.5 0 0 0 1.12-1.932q.392-1.065.392-2.1v-1.078h-2.702v-1.26zm1.162-1.218h1.512v4.872h1.904v1.246h-1.904v6.328h-1.512zm14.266 0v7.322h-1.498V74.26h-2.506v.966h-5.796v-5.642h5.796v.98h2.506v-1.89zm-8.372 10.052q0-1.134 1.12-1.764 1.134-.63 3.094-.63t3.08.63q1.134.63 1.134 1.764 0 1.135-1.12 1.75-1.12.63-3.094.63t-3.094-.63q-1.12-.615-1.12-1.75m2.898-4.676v-3.262h-2.842v3.262zm-1.4 4.676q0 .602.7.924.714.308 2.016.308t2.002-.308q.7-.322.7-.924t-.7-.91-2.002-.308q-1.316 0-2.016.322-.7.308-.7.896m5.376-5.684v-1.274h-2.506v1.274z"/><path fill="#F7F7F7" d="M507.5 53h133v44h-133z"/><path fill="#6B6B6B" d="M530.238 68.674v12.474h-1.512V68.674zm-9.492 1.134h5.95v1.232h-4.452v5.824a61 61 0 0 0 3.052-.084 20 20 0 0 0 2.338-.308l.14 1.26q-1.274.238-2.576.322-1.288.07-3.402.07h-1.05zm17.71-.364v.924q0 .966.574 1.89.588.91 1.596 1.568 1.023.645 2.268.854l-.658 1.246a7 7 0 0 1-2.772-1.218q-1.203-.896-1.806-2.156-.615 1.26-1.834 2.17a6.74 6.74 0 0 1-2.744 1.204l-.644-1.246a6.2 6.2 0 0 0 2.24-.868q1.023-.658 1.596-1.568.588-.924.588-1.876v-.924zm-6.384 8.848h11.27v1.232h-11.27zm22.135-8.512v1.134q0 1.61-.084 2.87-.085 1.26-.448 3.01l-1.484-.168q.321-1.525.42-2.688l-7.294.392-.196-1.288 7.574-.252q.028-.658.028-1.792h-7.252V69.78zm-10.038 8.568h4.158v-3.08h1.498v3.08h5.586v1.218h-11.242zm22.008-8.61v1.232h-7.056v3.542h7.182v1.204h-8.666v-5.978zm-9.912 8.554h11.27v1.246h-11.27zm25.459-1.918v4.774h-1.512v-3.556h-6.902v-1.218zm-9.534-7.014h1.484v4.41q2.954-.042 5.376-.532l.196 1.218q-2.828.574-6.02.574h-1.036zm8.022-.658h1.512v7.112h-1.512zm5.348 1.232v6.846a34 34 0 0 0 1.876-.098 17 17 0 0 0 1.75-.266l.196 1.26q-1.077.238-2.114.322-1.035.07-2.352.07h-.84v-8.134zm1.974 2.772h2.59v-3.78h1.414v11.592h-1.414v-6.58h-2.59zm5.236-4.032h1.428V81.12h-1.428zm13.133.014v7.07h-1.498v-7.07zm-10.038 3.542q0-.854.42-1.512a2.96 2.96 0 0 1 1.19-1.05q.756-.378 1.708-.378.938 0 1.694.378.755.378 1.19 1.05.434.658.434 1.512t-.434 1.526-1.19 1.05a3.74 3.74 0 0 1-1.694.378q-.952 0-1.708-.378a2.96 2.96 0 0 1-1.19-1.05 2.8 2.8 0 0 1-.42-1.526m1.47 0q0 .77.518 1.232.517.462 1.33.462.811 0 1.33-.462.518-.462.518-1.232t-.518-1.232q-.519-.462-1.33-.462-.813 0-1.33.462-.519.462-.518 1.232m.406 4.13h8.162v4.606h-8.162zm6.692 3.416V77.55h-5.222v2.226z"/><path fill="#F7F7F7" d="M640.5 53h90v44h-90z"/><path fill="#6B6B6B" d="M662.72 68.674v2.632h1.736v1.246h-1.736v2.632h-1.498v-6.51zm-9.184.546h1.498v4.27q2.66-.042 5.096-.518l.168 1.218q-2.674.546-5.74.546h-1.022zm1.162 6.58h1.484v1.428h5.054V75.8h1.484v5.166h-8.022zm6.538 3.976v-1.372h-5.054v1.372zm14.098-11.102v6.678h-1.498v-6.678zm-10.038 3.444q0-.84.42-1.484a2.9 2.9 0 0 1 1.19-1.022q.756-.378 1.708-.378.938 0 1.694.378.756.364 1.19 1.022.434.645.434 1.484 0 .84-.434 1.512-.42.658-1.19 1.036a3.85 3.85 0 0 1-1.694.364q-.952 0-1.708-.364a3 3 0 0 1-1.19-1.036q-.42-.659-.42-1.512m1.47 0q0 .756.518 1.218.519.448 1.33.448.813 0 1.33-.448.519-.462.518-1.218 0-.742-.518-1.19-.517-.462-1.33-.462-.811 0-1.33.462-.518.448-.518 1.19m.42 3.822h1.484v1.302h5.18V75.94h1.484v5.026h-8.148zm6.664 3.822v-1.358h-5.18v1.358zm6.679-10.192q.84 0 1.512.462.685.448 1.092 1.288h2.884v-2.66h1.498v12.488h-1.498V76.43h-2.786q-.407.937-1.106 1.456a2.66 2.66 0 0 1-1.596.504 2.66 2.66 0 0 1-1.638-.546q-.715-.546-1.12-1.54-.406-1.008-.406-2.338 0-1.315.406-2.31.405-1.008 1.12-1.54a2.66 2.66 0 0 1 1.638-.546m-1.736 4.396q0 1.428.476 2.24t1.26.812q.798 0 1.274-.812t.476-2.24q0-1.414-.476-2.212-.476-.812-1.274-.812-.784 0-1.26.812t-.476 2.212m4.76-1.428q.14.616.14 1.428 0 .56-.098 1.246h2.422v-2.674zm16.982 3.402v1.204h-4.928v3.976h-1.484v-3.976h-4.858V75.94zm-9.926-6.762h1.498v1.526h5.558v-1.526h1.484v5.446h-8.54zm7.056 4.242v-1.526h-5.558v1.526z"/><path fill="#F7F7F7" d="M730.5 53h134v44h-134z"/><path fill="#6B6B6B" d="M752.72 68.674v2.632h1.736v1.246h-1.736v2.632h-1.498v-6.51zm-9.184.546h1.498v4.27q2.66-.042 5.096-.518l.168 1.218q-2.674.546-5.74.546h-1.022zm1.162 6.58h1.484v1.428h5.054V75.8h1.484v5.166h-8.022zm6.538 3.976v-1.372h-5.054v1.372zm14.098-11.102v6.678h-1.498v-6.678zm-10.038 3.444q0-.84.42-1.484a2.9 2.9 0 0 1 1.19-1.022q.756-.378 1.708-.378.939 0 1.694.378.756.364 1.19 1.022.435.645.434 1.484 0 .84-.434 1.512-.42.658-1.19 1.036a3.85 3.85 0 0 1-1.694.364q-.951 0-1.708-.364a3 3 0 0 1-1.19-1.036q-.42-.659-.42-1.512m1.47 0q0 .756.518 1.218.519.448 1.33.448.813 0 1.33-.448.519-.462.518-1.218 0-.742-.518-1.19-.517-.462-1.33-.462-.811 0-1.33.462-.518.448-.518 1.19m.42 3.822h1.484v1.302h5.18V75.94h1.484v5.026h-8.148zm6.664 3.822v-1.358h-5.18v1.358zm6.217-10.318q.811 0 1.456.378.657.378 1.022 1.064.363.685.364 1.554 0 .868-.364 1.554a2.64 2.64 0 0 1-1.022 1.05q-.645.378-1.456.378a2.8 2.8 0 0 1-1.456-.378 2.65 2.65 0 0 1-1.008-1.05q-.364-.685-.364-1.554 0-.868.364-1.554a2.63 2.63 0 0 1 1.008-1.064 2.8 2.8 0 0 1 1.456-.378m-1.47 2.996q0 .785.406 1.26.42.462 1.064.462t1.064-.462q.42-.475.42-1.26t-.42-1.26a1.36 1.36 0 0 0-1.064-.476q-.644 0-1.064.476-.406.475-.406 1.26m.658 4.27h8.47v4.41h-1.512v-3.206h-6.958zm4.396-7.798h1.414v2.856h1.218v-3.08h1.442v7.406h-1.442V73h-1.218v3.038h-1.414zm14.434 1.456v-1.68h1.512v9.24h-1.512V74.05h-2.254v-1.204h2.254V71.6h-2.254v-1.232zm-8.862 4.872q1.442-.546 2.212-1.722a4.7 4.7 0 0 0 .784-2.646V69.36h1.512v1.512q0 1.373.756 2.52t2.128 1.666l-.826 1.176a4.9 4.9 0 0 1-1.694-1.12 5.6 5.6 0 0 1-1.106-1.736 5.2 5.2 0 0 1-1.148 1.848 5 5 0 0 1-1.82 1.176zm2.24 1.806h1.498v2.618h6.916v1.218h-8.414z"/><rect width="19" height="19" x="57" y="109.5" fill="#fff" rx="3.5"/><rect width="19" height="19" x="57" y="109.5" stroke="#C2C2C2" rx="3.5"/><path fill="#121212" d="M106.59 124.168q-1.457 0-2.604-.658a4.7 4.7 0 0 1-1.792-1.862q-.644-1.19-.644-2.702t.644-2.702a4.6 4.6 0 0 1 1.792-1.848q1.147-.672 2.604-.672 1.022 0 1.946.406a5 5 0 0 1 1.61 1.12l-.812.756a3.4 3.4 0 0 0-1.232-.868 3.6 3.6 0 0 0-1.512-.322q-1.105 0-1.974.518a3.6 3.6 0 0 0-1.344 1.47q-.476.938-.476 2.142t.476 2.156a3.63 3.63 0 0 0 1.344 1.456q.868.518 1.974.518.798 0 1.498-.308a3.8 3.8 0 0 0 1.204-.868l.854.742a5.2 5.2 0 0 1-1.61 1.12 4.7 4.7 0 0 1-1.946.406m8.503-1.134q.713 0 1.274-.518.56-.518.868-1.442.321-.938.322-2.128 0-1.19-.322-2.114-.309-.924-.868-1.442-.56-.518-1.274-.518-.729 0-1.288.518-.561.518-.882 1.442-.309.924-.308 2.114 0 1.19.308 2.128.321.924.882 1.442t1.288.518m-3.71-4.088q0-1.498.476-2.674t1.316-1.834a3.02 3.02 0 0 1 1.918-.658q1.077 0 1.918.658.84.658 1.302 1.834.476 1.176.476 2.674t-.476 2.674q-.462 1.176-1.302 1.834t-1.918.658a3.02 3.02 0 0 1-1.918-.658q-.84-.658-1.316-1.834t-.476-2.674m12.415 4.088q.714 0 1.274-.518t.868-1.442q.322-.938.322-2.128t-.322-2.114q-.307-.924-.868-1.442t-1.274-.518q-.727 0-1.288.518-.56.518-.882 1.442-.308.924-.308 2.114t.308 2.128q.323.924.882 1.442.56.518 1.288.518m-3.71-4.088q0-1.498.476-2.674t1.316-1.834 1.918-.658 1.918.658 1.302 1.834q.476 1.176.476 2.674t-.476 2.674q-.462 1.176-1.302 1.834a3.02 3.02 0 0 1-1.918.658 3.03 3.03 0 0 1-1.918-.658q-.84-.658-1.316-1.834t-.476-2.674m12.416 4.088q.714 0 1.274-.518t.868-1.442q.322-.938.322-2.128t-.322-2.114q-.308-.924-.868-1.442t-1.274-.518q-.728 0-1.288.518t-.882 1.442q-.308.924-.308 2.114t.308 2.128q.322.924.882 1.442t1.288.518m-3.71-4.088q0-1.498.476-2.674t1.316-1.834a3.02 3.02 0 0 1 1.918-.658q1.078 0 1.918.658t1.302 1.834q.476 1.176.476 2.674t-.476 2.674q-.462 1.176-1.302 1.834a3.02 3.02 0 0 1-1.918.658 3.02 3.02 0 0 1-1.918-.658q-.84-.658-1.316-1.834t-.476-2.674m12.416 4.088q.713 0 1.274-.518.56-.518.868-1.442.322-.938.322-2.128t-.322-2.114q-.309-.924-.868-1.442-.56-.518-1.274-.518-.729 0-1.288.518-.561.518-.882 1.442-.308.924-.308 2.114t.308 2.128q.321.924.882 1.442t1.288.518m-3.71-4.088q0-1.498.476-2.674t1.316-1.834a3.02 3.02 0 0 1 1.918-.658q1.077 0 1.918.658.84.658 1.302 1.834.476 1.176.476 2.674t-.476 2.674q-.462 1.176-1.302 1.834t-1.918.658a3.02 3.02 0 0 1-1.918-.658q-.84-.658-1.316-1.834t-.476-2.674m12.415 4.088q.714 0 1.274-.518t.868-1.442q.322-.938.322-2.128t-.322-2.114q-.307-.924-.868-1.442t-1.274-.518q-.727 0-1.288.518-.56.518-.882 1.442-.308.924-.308 2.114t.308 2.128q.322.924.882 1.442t1.288.518m-3.71-4.088q0-1.498.476-2.674.477-1.176 1.316-1.834t1.918-.658 1.918.658 1.302 1.834q.477 1.176.476 2.674 0 1.498-.476 2.674-.462 1.176-1.302 1.834a3.02 3.02 0 0 1-1.918.658 3.03 3.03 0 0 1-1.918-.658q-.84-.658-1.316-1.834t-.476-2.674m12.416 4.088q.714 0 1.274-.518t.868-1.442q.322-.938.322-2.128t-.322-2.114q-.308-.924-.868-1.442t-1.274-.518q-.728 0-1.288.518t-.882 1.442q-.308.924-.308 2.114t.308 2.128q.322.924.882 1.442t1.288.518m-3.71-4.088q0-1.498.476-2.674t1.316-1.834a3.02 3.02 0 0 1 1.918-.658q1.078 0 1.918.658t1.302 1.834q.476 1.176.476 2.674t-.476 2.674q-.462 1.176-1.302 1.834a3.02 3.02 0 0 1-1.918.658 3.02 3.02 0 0 1-1.918-.658q-.84-.658-1.316-1.834t-.476-2.674M198.566 112.702v4.956h1.904v1.064h-1.904v6.342h-1.302v-12.362zm-9.52 9.086q4.634-2.352 5.012-6.72h-4.41v-1.036h5.698q0 2.8-1.344 5.04t-4.242 3.696zm21.616-9.086v4.886h1.904v1.064h-1.904v6.412h-1.288v-12.362zm-9.072 1.218h1.274v6.986a29 29 0 0 0 5.446-.546l.154 1.05q-1.47.308-2.898.434a38 38 0 0 1-2.968.112h-1.008zm21.169-1.218v4.816h1.96v1.064h-1.96v6.51h-1.288v-12.39zm-9.016 1.218h5.74v1.022h-4.48v6.02q1.68 0 2.898-.084a23 23 0 0 0 2.492-.336l.14 1.078a22 22 0 0 1-2.646.336q-1.302.084-3.164.084h-.98zM266.924 123.034q.714 0 1.274-.518t.868-1.442q.322-.938.322-2.128t-.322-2.114q-.308-.924-.868-1.442t-1.274-.518q-.728 0-1.288.518t-.882 1.442q-.308.924-.308 2.114t.308 2.128q.322.924.882 1.442t1.288.518m-3.71-4.088q0-1.498.476-2.674t1.316-1.834a3.02 3.02 0 0 1 1.918-.658q1.078 0 1.918.658t1.302 1.834q.476 1.176.476 2.674t-.476 2.674q-.462 1.176-1.302 1.834a3.02 3.02 0 0 1-1.918.658 3.02 3.02 0 0 1-1.918-.658q-.84-.658-1.316-1.834t-.476-2.674m12.122 5.068h-1.232v-8.778l-1.68 1.05-.588-.994 2.268-1.414h1.232zm5.663-.98q.714 0 1.274-.518t.868-1.442q.322-.938.322-2.128t-.322-2.114q-.307-.924-.868-1.442t-1.274-.518q-.727 0-1.288.518-.56.518-.882 1.442-.308.924-.308 2.114t.308 2.128q.322.924.882 1.442t1.288.518m-3.71-4.088q0-1.498.476-2.674t1.316-1.834 1.918-.658 1.918.658 1.302 1.834q.476 1.176.476 2.674t-.476 2.674q-.462 1.176-1.302 1.834a3.02 3.02 0 0 1-1.918.658 3.03 3.03 0 0 1-1.918-.658q-.84-.658-1.316-1.834t-.476-2.674m12.416 4.088q.714 0 1.274-.518t.868-1.442q.322-.938.322-2.128t-.322-2.114q-.307-.924-.868-1.442t-1.274-.518q-.727 0-1.288.518-.56.518-.882 1.442-.308.924-.308 2.114t.308 2.128q.322.924.882 1.442t1.288.518m-3.71-4.088q0-1.498.476-2.674t1.316-1.834 1.918-.658 1.918.658 1.302 1.834q.476 1.176.476 2.674t-.476 2.674q-.462 1.176-1.302 1.834a3.02 3.02 0 0 1-1.918.658 3.03 3.03 0 0 1-1.918-.658q-.84-.658-1.316-1.834t-.476-2.674m12.416 4.088q.714 0 1.274-.518t.868-1.442q.322-.938.322-2.128t-.322-2.114q-.308-.924-.868-1.442t-1.274-.518q-.728 0-1.288.518t-.882 1.442q-.308.924-.308 2.114t.308 2.128q.322.924.882 1.442t1.288.518m-3.71-4.088q0-1.498.476-2.674t1.316-1.834a3.02 3.02 0 0 1 1.918-.658q1.078 0 1.918.658t1.302 1.834q.476 1.176.476 2.674t-.476 2.674q-.462 1.176-1.302 1.834a3.02 3.02 0 0 1-1.918.658 3.02 3.02 0 0 1-1.918-.658q-.84-.658-1.316-1.834t-.476-2.674m12.416 4.088q.713 0 1.274-.518.56-.518.868-1.442.322-.938.322-2.128t-.322-2.114q-.309-.924-.868-1.442-.56-.518-1.274-.518-.729 0-1.288.518-.561.518-.882 1.442-.308.924-.308 2.114t.308 2.128q.321.924.882 1.442t1.288.518m-3.71-4.088q0-1.498.476-2.674t1.316-1.834a3.02 3.02 0 0 1 1.918-.658q1.078 0 1.918.658t1.302 1.834q.476 1.176.476 2.674t-.476 2.674q-.462 1.176-1.302 1.834t-1.918.658a3.02 3.02 0 0 1-1.918-.658q-.84-.658-1.316-1.834t-.476-2.674m12.415 4.088q.714 0 1.274-.518t.868-1.442q.322-.938.322-2.128t-.322-2.114q-.307-.924-.868-1.442t-1.274-.518q-.727 0-1.288.518-.56.518-.882 1.442-.308.924-.308 2.114t.308 2.128q.322.924.882 1.442t1.288.518m-3.71-4.088q0-1.498.476-2.674t1.316-1.834 1.918-.658 1.918.658 1.302 1.834q.476 1.176.476 2.674t-.476 2.674q-.462 1.176-1.302 1.834a3.02 3.02 0 0 1-1.918.658 3.03 3.03 0 0 1-1.918-.658q-.84-.658-1.316-1.834t-.476-2.674m12.416 4.088q.714 0 1.274-.518t.868-1.442q.322-.938.322-2.128t-.322-2.114q-.308-.924-.868-1.442t-1.274-.518q-.728 0-1.288.518t-.882 1.442q-.308.924-.308 2.114t.308 2.128q.322.924.882 1.442t1.288.518m-3.71-4.088q0-1.498.476-2.674t1.316-1.834a3.02 3.02 0 0 1 1.918-.658q1.078 0 1.918.658t1.302 1.834q.476 1.176.476 2.674t-.476 2.674q-.462 1.176-1.302 1.834a3.02 3.02 0 0 1-1.918.658 3.02 3.02 0 0 1-1.918-.658q-.84-.658-1.316-1.834t-.476-2.674m12.416 4.088q.713 0 1.274-.518.56-.518.868-1.442.322-.938.322-2.128t-.322-2.114q-.309-.924-.868-1.442-.56-.518-1.274-.518-.729 0-1.288.518-.561.518-.882 1.442-.309.924-.308 2.114 0 1.19.308 2.128.321.924.882 1.442t1.288.518m-3.71-4.088q0-1.498.476-2.674t1.316-1.834a3.02 3.02 0 0 1 1.918-.658q1.078 0 1.918.658t1.302 1.834q.476 1.176.476 2.674t-.476 2.674q-.462 1.176-1.302 1.834t-1.918.658a3.02 3.02 0 0 1-1.918-.658q-.84-.658-1.316-1.834t-.476-2.674m12.415 4.088q.714 0 1.274-.518t.868-1.442q.322-.938.322-2.128t-.322-2.114q-.307-.924-.868-1.442t-1.274-.518q-.727 0-1.288.518-.56.518-.882 1.442-.308.924-.308 2.114t.308 2.128q.322.924.882 1.442t1.288.518m-3.71-4.088q0-1.498.476-2.674t1.316-1.834 1.918-.658 1.918.658 1.302 1.834q.476 1.176.476 2.674t-.476 2.674q-.462 1.176-1.302 1.834a3.02 3.02 0 0 1-1.918.658 3.03 3.03 0 0 1-1.918-.658q-.84-.658-1.316-1.834t-.476-2.674m12.416 4.088q.714 0 1.274-.518t.868-1.442q.322-.938.322-2.128t-.322-2.114q-.308-.924-.868-1.442t-1.274-.518q-.728 0-1.288.518t-.882 1.442q-.308.924-.308 2.114t.308 2.128q.322.924.882 1.442t1.288.518m-3.71-4.088q0-1.498.476-2.674t1.316-1.834a3.02 3.02 0 0 1 1.918-.658q1.078 0 1.918.658t1.302 1.834q.476 1.176.476 2.674t-.476 2.674q-.462 1.176-1.302 1.834a3.02 3.02 0 0 1-1.918.658 3.02 3.02 0 0 1-1.918-.658q-.84-.658-1.316-1.834t-.476-2.674M390.77 123.076a2 2 0 0 0 1.12-.336q.532-.336.854-.924.322-.602.322-1.33t-.322-1.316a2.5 2.5 0 0 0-.854-.924 2 2 0 0 0-1.12-.336q-.659 0-1.176.322a2.24 2.24 0 0 0-.798.91q-.28.588-.28 1.344 0 1.148.63 1.876.63.714 1.624.714m-3.486-2.59q0-1.05.434-1.876.433-.826 1.218-1.288t1.778-.462q.643 0 1.26.35.616.336 1.064 1.022v-1.414h1.232v7.238h-1.232v-1.302q-.462.714-1.064 1.05a2.55 2.55 0 0 1-1.26.336q-.994 0-1.778-.462a3.27 3.27 0 0 1-1.218-1.302q-.434-.826-.434-1.89m12.433 3.654q-.602 0-1.246-.322t-1.106-1.064v1.302h-1.232v-10.22h1.232v4.368q.462-.742 1.106-1.064a2.8 2.8 0 0 1 1.26-.322q1.008 0 1.792.476.784.462 1.218 1.288.448.827.448 1.89 0 1.064-.448 1.904-.434.827-1.232 1.302-.784.462-1.792.462m-2.352-3.654q0 .714.308 1.316.322.602.854.952t1.148.35q.659 0 1.176-.336.532-.336.812-.924.294-.602.294-1.358t-.294-1.344a2.07 2.07 0 0 0-.812-.924 2.1 2.1 0 0 0-1.176-.336q-.616 0-1.148.35a2.56 2.56 0 0 0-.854.952 2.8 2.8 0 0 0-.308 1.302m10.32 2.464q.462 0 .966-.21t.84-.546l.854.812a3.6 3.6 0 0 1-1.204.798 3.6 3.6 0 0 1-1.4.308q-1.064 0-1.904-.462a3.5 3.5 0 0 1-1.302-1.302q-.462-.827-.462-1.89 0-1.064.462-1.89.477-.826 1.302-1.288.84-.462 1.904-.462.687 0 1.4.308a3.8 3.8 0 0 1 1.204.798l-.854.812a2.5 2.5 0 0 0-.84-.56 2.5 2.5 0 0 0-.966-.21q-.686 0-1.232.322a2.16 2.16 0 0 0-.854.882 2.7 2.7 0 0 0-.294 1.288q0 1.105.658 1.806.672.686 1.722.686m6.918 1.19q-.994 0-1.778-.462a3.37 3.37 0 0 1-1.232-1.302q-.434-.84-.434-1.904 0-1.063.434-1.89a3.25 3.25 0 0 1 1.232-1.302 3.36 3.36 0 0 1 1.778-.476q.659 0 1.302.35.644.336 1.078 1.064v-4.382h1.232v10.22h-1.232v-1.316q-.448.714-1.092 1.064a2.76 2.76 0 0 1-1.288.336m-2.212-3.654q0 .756.28 1.358.294.588.812.924.532.336 1.19.336.616 0 1.148-.35a2.56 2.56 0 0 0 .84-.966q.322-.601.322-1.302 0-.7-.322-1.302a2.44 2.44 0 0 0-.84-.952 2 2 0 0 0-1.148-.364q-.658 0-1.19.336a2.3 2.3 0 0 0-.812.938q-.28.588-.28 1.344M529.566 112.702v4.956h1.904v1.064h-1.904v6.342h-1.302v-12.362zm-9.52 9.086q4.634-2.352 5.012-6.72h-4.41v-1.036h5.698q0 2.8-1.344 5.04t-4.242 3.696zm21.616-9.086v4.886h1.904v1.064h-1.904v6.412h-1.288v-12.362zm-9.072 1.218h1.274v6.986a29 29 0 0 0 5.446-.546l.154 1.05q-1.47.308-2.898.434a38 38 0 0 1-2.968.112h-1.008zm21.169-1.218v4.816h1.96v1.064h-1.96v6.51h-1.288v-12.39zm-9.016 1.218h5.74v1.022h-4.48v6.02q1.68 0 2.898-.084a23 23 0 0 0 2.492-.336l.14 1.078a22 22 0 0 1-2.646.336q-1.302.084-3.164.084h-.98zm21.112-1.218v4.858h1.96v1.078h-1.96v6.454h-1.26v-12.39zm-9.058 1.148h5.6v4.508h-4.298v2.716a51 51 0 0 0 2.954-.098 27 27 0 0 0 2.52-.322l.112 1.036q-1.372.252-2.716.35a44 44 0 0 1-3.15.098h-.994v-4.816h4.312v-2.436h-4.34zM659.43 113.906v8.106h-5.74v-8.106zm-1.246 7.07v-6.048h-3.234v6.048zm3.682-8.274h1.274v12.39h-1.274zm12.88.014v2.702h1.778v1.064h-1.778v2.688h-1.288v-6.454zm-9.044.574h1.274v4.284q2.843-.028 5.306-.518l.14 1.036q-2.744.56-5.726.56h-.994zm1.176 6.51h1.26v1.54h5.348v-1.54h1.26v5.11h-7.868zm6.608 4.088v-1.526h-5.348v1.526z"/><g clip-path="url(#a)"><mask id="b" fill="#fff"><path d="M730.5 119c0-10.493 8.507-19 19-19h27c10.493 0 19 8.507 19 19s-8.507 19-19 19h-27c-10.493 0-19-8.507-19-19"/></mask><path fill="#fff" d="M730.5 119c0-10.493 8.507-19 19-19h27c10.493 0 19 8.507 19 19s-8.507 19-19 19h-27c-10.493 0-19-8.507-19-19"/><path fill="#2A8642" d="M749.5 101h27v-2h-27zm27 36h-27v2h27zm-27 0c-9.941 0-18-8.059-18-18h-2c0 11.046 8.954 20 20 20zm45-18c0 9.941-8.059 18-18 18v2c11.046 0 20-8.954 20-20zm-18-18c9.941 0 18 8.059 18 18h2c0-11.046-8.954-20-20-20zm-27-2c-11.046 0-20 8.954-20 20h2c0-9.941 8.059-18 18-18z" mask="url(#b)"/><path fill="#2A8642" d="M761.054 112.674v2.632h1.736v1.246h-1.736v2.632h-1.498v-6.51zm-9.184.546h1.498v4.27a29 29 0 0 0 5.096-.518l.168 1.218q-2.674.546-5.74.546h-1.022zm1.162 6.58h1.484v1.428h5.054V119.8h1.484v5.166h-8.022zm6.538 3.976v-1.372h-5.054v1.372zm14.098-11.102v6.678h-1.498v-6.678zm-10.038 3.444q0-.84.42-1.484a2.9 2.9 0 0 1 1.19-1.022q.756-.378 1.708-.378.938 0 1.694.378.756.364 1.19 1.022.434.644.434 1.484a2.73 2.73 0 0 1-.434 1.512q-.42.658-1.19 1.036a3.85 3.85 0 0 1-1.694.364q-.952 0-1.708-.364a3 3 0 0 1-1.19-1.036 2.75 2.75 0 0 1-.42-1.512m1.47 0q0 .756.518 1.218.518.448 1.33.448t1.33-.448q.518-.462.518-1.218 0-.742-.518-1.19-.518-.462-1.33-.462t-1.33.462q-.518.448-.518 1.19m.42 3.822h1.484v1.302h5.18v-1.302h1.484v5.026h-8.148zm6.664 3.822v-1.358h-5.18v1.358z"/><mask id="c" fill="#fff"><path d="M799.5 119c0-10.493 8.507-19 19-19h27c10.493 0 19 8.507 19 19s-8.507 19-19 19h-27c-10.493 0-19-8.507-19-19"/></mask><path fill="#fff" d="M799.5 119c0-10.493 8.507-19 19-19h27c10.493 0 19 8.507 19 19s-8.507 19-19 19h-27c-10.493 0-19-8.507-19-19"/><path fill="#BB362A" d="M818.5 101h27v-2h-27zm27 36h-27v2h27zm-27 0c-9.941 0-18-8.059-18-18h-2c0 11.046 8.954 20 20 20zm45-18c0 9.941-8.059 18-18 18v2c11.046 0 20-8.954 20-20zm-18-18c9.941 0 18 8.059 18 18h2c0-11.046-8.954-20-20-20zm-27-2c-11.046 0-20 8.954-20 20h2c0-9.941 8.059-18 18-18z" mask="url(#c)"/><path fill="#BB362A" d="M826.82 113.836v8.246h-5.866v-8.246zm-1.456 7.056v-5.866h-2.926v5.866zm3.696-8.232h1.512v12.488h-1.512zm13.09.014v2.632h1.736v1.246h-1.736v2.632h-1.498v-6.51zm-9.184.546h1.498v4.27a29 29 0 0 0 5.096-.518l.168 1.218q-2.674.546-5.74.546h-1.022zm1.162 6.58h1.484v1.428h5.054V119.8h1.484v5.166h-8.022zm6.538 3.976v-1.372h-5.054v1.372z"/></g><path fill="#6B6B6B" d="M44.076 161.576a.6.6 0 0 0 0 .848l3.818 3.819a.6.6 0 0 0 .849-.849L45.348 162l3.395-3.394a.6.6 0 0 0-.849-.849zm820.848.848a.6.6 0 0 0 0-.848l-3.818-3.819a.601.601 0 0 0-.849.849l3.394 3.394-3.394 3.394a.601.601 0 0 0 .849.849zM44.5 162.6h820v-1.2h-820zM453.918 179.054h-5.614v3.248h4.718v1.26h-4.718v4.536h-1.456v-10.304h7.07zm3.024 1.764v7.28h-1.456v-7.28zm-1.554-2.38q0-.364.224-.588a.82.82 0 0 1 .602-.238q.365 0 .588.238a.77.77 0 0 1 .238.588.8.8 0 0 1-.238.588.77.77 0 0 1-.588.238.85.85 0 0 1-.602-.224.85.85 0 0 1-.224-.602m4.813-.644v10.304h-1.456v-10.304zm3.142 0v10.304h-1.456v-10.304z"/><defs><clipPath id="a"><path fill="#fff" d="M730.5 97h134v44h-134z"/></clipPath></defs></svg>