<svg xmlns="http://www.w3.org/2000/svg" width="908" height="272" fill="none" viewBox="0 0 908 272"><path fill="#fff" d="M.5 0h907v271.2H.5z"/><path fill="#F7F7F7" d="M126.5 63.201h656v35.2h-656z"/><rect width="15.2" height="15.2" x="136.5" y="73.201" fill="#fff" rx="2.8"/><rect width="15.2" height="15.2" x="136.5" y="73.201" stroke="#C2C2C2" stroke-width=".8" rx="2.8"/><path fill="#F7F7F7" d="M161.699 63.201h70.4v35.2h-70.4z"/><path fill="#6B6B6B" d="M174.032 77.192v-1.008h1.198v1.008h2.33v.952h-5.869v-.952zm-1.815 3.18q0-.537.303-.951.302-.425.851-.65a3.2 3.2 0 0 1 1.254-.235q.706 0 1.255.235.56.225.862.65.314.414.314.952 0 .537-.314.952-.302.404-.851.627-.549.225-1.266.224-.705 0-1.254-.224-.55-.224-.851-.627a1.57 1.57 0 0 1-.303-.952m.695 2.566h6.563v3.259h-1.21v-2.285h-5.353zm.448-2.565a.77.77 0 0 0 .347.66q.346.236.918.236.571 0 .919-.235a.77.77 0 0 0 .347-.661.75.75 0 0 0-.347-.661q-.337-.246-.919-.246-.572 0-.918.246a.75.75 0 0 0-.347.66m4.905-4.133h1.21v2.643h1.377v.997h-1.377v2.598h-1.21zm11.357.011v7.347h-1.198v-3.673h-1.994v2.06h-4.625v-5.084h1.198v1.613h2.24V76.9h1.187v2.05h1.994v-2.7zm-4.379 4.771v-1.579h-2.24v1.58zm-2.117 1.86h1.199v2.15h5.521v.974h-6.72z"/><path fill="#F7F7F7" d="M232.1 63.201h59.2v35.2h-59.2z"/><path fill="#6B6B6B" d="M250.29 76.229v9.99h-1.21v-9.99zm-7.896 4.245q0-1.053.324-1.848.336-.807.919-1.232a2.16 2.16 0 0 1 1.333-.437q.75 0 1.332.437.583.425.908 1.232.336.795.336 1.848 0 1.063-.336 1.87-.325.794-.908 1.232a2.16 2.16 0 0 1-1.332.437q-.751 0-1.333-.437t-.919-1.232q-.324-.807-.324-1.87m1.164 0q0 1.141.381 1.792.392.65 1.031.65t1.03-.65q.392-.65.392-1.792 0-1.132-.392-1.77-.392-.65-1.03-.65t-1.031.65q-.381.638-.381 1.77m17.215.84v.963h-9.016v-.963zm-7.885-4.85h6.765v2.52h-5.566v.728h5.768v.93h-6.956V78.11h5.567v-.728h-5.578zm.045 6.54h6.754v3.07h-6.754zm5.566 2.118v-1.176h-4.39v1.176z"/><path fill="#F7F7F7" d="M291.301 63.201h99.2v35.2h-99.2z"/><path fill="#6B6B6B" d="M308.337 78.883v-2.632h1.21v7.258h-1.21v-3.64h-1.747v-.986zm-7.078 2.509q1.142-.392 1.781-1.266a3.16 3.16 0 0 0 .638-1.904v-.29h-2.072v-.964h5.331v.963h-2.038v.291q0 .941.605 1.77.615.829 1.713 1.198l-.593.952a4.2 4.2 0 0 1-1.4-.828 4 4 0 0 1-.919-1.266 4 4 0 0 1-.952 1.411 3.9 3.9 0 0 1-1.489.896zm1.803 1.5h1.21v2.14h5.532v.974h-6.742zm15.714-6.652v4.122h1.377v1.008h-1.377v4.827h-1.21V76.24zm-7.93 7.202q1.635 0 2.543-.023v-.94q-.817-.135-1.311-.617a1.62 1.62 0 0 1-.493-1.187q0-.549.303-.974.314-.425.851-.65.549-.235 1.243-.235.706 0 1.243.235.549.225.852.65a1.6 1.6 0 0 1 .313.974q0 .694-.493 1.176-.481.482-1.31.627v.896q1.534-.078 2.43-.212l.09.862q-1.4.27-2.856.347-1.457.067-3.237.067zm.191-6.06h2.352v-1.108h1.198v1.108h2.341v.952h-5.891zm1.702 3.293a.83.83 0 0 0 .336.695q.336.246.907.246t.919-.246a.82.82 0 0 0 .347-.695.82.82 0 0 0-.347-.694q-.348-.258-.919-.258t-.907.258a.83.83 0 0 0-.336.694m16.162-4.424v7.347h-1.198v-3.673h-1.994v2.06h-4.626v-5.084h1.199v1.613h2.24V76.9h1.187v2.05h1.994v-2.7zm-4.379 4.771v-1.579h-2.24v1.58zm-2.117 1.86h1.198v2.15h5.522v.974h-6.72zm11.805-5.32v-1.199h1.198v1.199h3.472v.963h-8.153v-.963zm-3.898 6.574h3.898v-1.254q-1.288-.09-2.016-.583-.717-.504-.717-1.321 0-.908.885-1.412.895-.504 2.442-.504 1.534 0 2.419.516.896.504.896 1.4 0 .817-.717 1.321-.716.493-1.994.583v1.254h3.92v.974h-9.016zm2.386-3.158q0 .48.538.739.548.246 1.568.246 1.008 0 1.545-.246.549-.257.549-.74 0-.48-.549-.727-.537-.258-1.545-.258t-1.557.258q-.549.246-.549.728"/><path fill="#F7F7F7" d="M390.5 63.201h106.4v35.2H390.5z"/><path fill="#6B6B6B" d="M408.69 76.24v9.98h-1.21v-9.98zm-7.594.907h4.76v.986h-3.561v4.659q1.5-.012 2.441-.067a16 16 0 0 0 1.871-.247l.112 1.008q-1.02.19-2.061.258-1.03.056-2.722.056h-.84zm14.169-.291v.74q0 .771.459 1.511.47.729 1.277 1.255.818.514 1.814.683l-.526.997a5.6 5.6 0 0 1-2.218-.975 4.6 4.6 0 0 1-1.445-1.725q-.492 1.008-1.467 1.736a5.4 5.4 0 0 1-2.195.964l-.515-.997a4.9 4.9 0 0 0 1.792-.695q.817-.526 1.276-1.254.471-.74.471-1.5v-.74zm-5.108 7.078h9.016v.986h-9.016zm17.708-6.81v.908q0 1.288-.067 2.296-.068 1.008-.359 2.408l-1.187-.134q.258-1.221.336-2.15l-5.835.313-.157-1.03 6.059-.202q.023-.526.023-1.434h-5.802v-.974zm-8.03 6.855h3.326v-2.464h1.198v2.464h4.469v.975h-8.993zm17.606-6.888v.986h-5.645v2.833h5.746v.964h-6.933V77.09zm-7.929 6.843h9.016v.997h-9.016zm15.674-6.888v1.59q0 .896.28 1.76.29.85.829 1.534.549.683 1.288 1.041l-.728.963a4.1 4.1 0 0 1-1.367-1.153 5.9 5.9 0 0 1-.896-1.736 6.1 6.1 0 0 1-.952 1.859 4.2 4.2 0 0 1-1.433 1.22l-.717-.985a3.8 3.8 0 0 0 1.333-1.075q.571-.705.862-1.602a5.7 5.7 0 0 0 .303-1.825v-1.59zm3.002-.806h1.209v3.92h1.523v1.008h-1.523v5.029h-1.209zm5.253 4.816v-1.288q-.56-.246-.863-.616a1.35 1.35 0 0 1-.302-.862q0-.885.952-1.378.963-.504 2.609-.504 1.647 0 2.599.504.963.493.963 1.378 0 .48-.314.862-.302.381-.873.627v1.277h2.117v.94h-8.994v-.94zm-1.053 3.349q0-.851.907-1.322.908-.47 2.531-.47 1.613 0 2.52.47t.907 1.322-.907 1.321q-.908.47-2.52.47-1.623 0-2.531-.47-.907-.47-.907-1.321m1.131-6.115q0 .46.605.716.616.247 1.713.247 1.098 0 1.703-.247.616-.257.616-.716 0-.471-.616-.717-.605-.246-1.703-.247-1.097 0-1.713.247-.605.246-.605.717m.078 6.115q0 .436.572.66.57.213 1.657.213 1.075 0 1.635-.212.572-.225.572-.661 0-.425-.572-.65-.56-.225-1.635-.224-1.087 0-1.657.224-.572.225-.572.65m3.416-3.349v-.963a8 8 0 0 1-1.176.078q-.683 0-1.198-.078v.963zm9.599-3.842v1.008h-2.072v.863q0 .772.302 1.579.303.795.863 1.445.571.65 1.321.997l-.672.952a4.1 4.1 0 0 1-1.433-1.132 5.7 5.7 0 0 1-.963-1.713 6.1 6.1 0 0 1-.986 1.87q-.627.817-1.456 1.221l-.694-.94q.75-.37 1.321-1.054.582-.694.896-1.545a4.8 4.8 0 0 0 .314-1.68v-.863h-2.162v-1.008zm.93-.974h1.209v3.898h1.523v.996h-1.523v5.063h-1.209zm11.413 0v5.858h-1.199v-1.39h-2.005v.774h-4.636v-4.514h4.636v.784h2.005V76.24zm-6.698 8.042q0-.908.896-1.412.908-.504 2.475-.504 1.569 0 2.464.504.907.504.907 1.412 0 .906-.896 1.4-.896.504-2.475.504t-2.475-.504q-.896-.494-.896-1.4m2.318-3.741v-2.61h-2.273v2.61zm-1.12 3.74q0 .483.56.74.572.246 1.613.246 1.043 0 1.602-.246.56-.258.56-.74 0-.48-.56-.727t-1.602-.247q-1.052 0-1.613.258-.56.246-.56.717m4.301-4.547v-1.019h-2.005v1.02z"/><path fill="#F7F7F7" d="M496.9 63.201h106.4v35.2H496.9z"/><path fill="#6B6B6B" d="M515.09 76.24v9.98h-1.209v-9.98zm-7.593.907h4.76v.986h-3.562v4.659a49 49 0 0 0 2.442-.067q.94-.067 1.87-.247l.112 1.008q-1.019.19-2.061.258-1.03.056-2.721.056h-.84zm14.168-.291v.74q0 .771.459 1.511a4.3 4.3 0 0 0 1.277 1.255q.818.514 1.814.683l-.526.997a5.6 5.6 0 0 1-2.218-.975 4.6 4.6 0 0 1-1.444-1.725q-.493 1.008-1.468 1.736a5.4 5.4 0 0 1-2.195.964l-.515-.997a4.9 4.9 0 0 0 1.792-.695q.818-.526 1.277-1.254.47-.74.47-1.5v-.74zm-5.107 7.078h9.016v.986h-9.016zm17.707-6.81v.908q0 1.288-.067 2.296t-.358 2.408l-1.187-.134q.256-1.221.336-2.15l-5.836.313-.156-1.03 6.059-.202q.022-.526.022-1.434h-5.801v-.974zm-8.03 6.855h3.326v-2.464h1.199v2.464h4.469v.975h-8.994zm17.607-6.888v.986h-5.645v2.833h5.745v.964h-6.932V77.09zm-7.93 6.843h9.016v.997h-9.016zm20.367-1.534v3.82h-1.209v-2.846h-5.522V82.4zm-7.627-5.611h1.187v3.528q2.364-.034 4.301-.426l.157.975q-2.263.459-4.816.459h-.829zm6.418-.527h1.209v5.69h-1.209zm4.278.986v5.477a27 27 0 0 0 1.501-.079q.683-.066 1.4-.212l.157 1.008q-.863.19-1.691.257-.83.056-1.882.056h-.672v-6.507zm1.579 2.218h2.072v-3.024h1.132v9.273h-1.132v-5.264h-2.072zm4.189-3.226h1.143v9.957h-1.143zm10.506.011v5.656h-1.198v-5.656zm-8.03 2.834a2.2 2.2 0 0 1 .336-1.21q.346-.537.952-.84a3 3 0 0 1 1.366-.302q.75 0 1.355.302.605.303.952.84.347.526.347 1.21t-.347 1.22a2.37 2.37 0 0 1-.952.84 3 3 0 0 1-1.355.303q-.762 0-1.366-.302a2.36 2.36 0 0 1-.952-.84 2.26 2.26 0 0 1-.336-1.221m1.176 0q0 .615.414.985t1.064.37q.65 0 1.064-.37t.414-.985-.414-.986-1.064-.37-1.064.37-.414.986m.324 3.304h6.53v3.685h-6.53zm5.354 2.733V83.34h-4.178v1.78z"/><path fill="#F7F7F7" d="M603.301 63.201h72v35.2h-72z"/><path fill="#6B6B6B" d="M621.076 76.24v2.106h1.389v.996h-1.389v2.106h-1.198V76.24zm-7.347.437h1.199v3.416a23 23 0 0 0 4.076-.415l.135.975q-2.14.437-4.592.437h-.818zm.93 5.264h1.187v1.142h4.043v-1.142h1.187v4.133h-6.417zm5.23 3.18v-1.097h-4.043v1.098zm11.279-8.881v5.342h-1.199V76.24zm-8.031 2.755q0-.672.336-1.187a2.3 2.3 0 0 1 .952-.818 3 3 0 0 1 1.367-.302q.75 0 1.355.302.605.292.952.818.347.516.347 1.187 0 .672-.347 1.21-.336.525-.952.829a3.1 3.1 0 0 1-1.355.29q-.762 0-1.367-.29a2.4 2.4 0 0 1-.952-.83 2.2 2.2 0 0 1-.336-1.209m1.176 0q0 .605.415.975.414.358 1.064.358t1.064-.358q.414-.37.414-.975 0-.594-.414-.952-.414-.37-1.064-.37t-1.064.37q-.414.359-.415.952m.336 3.058h1.188v1.041h4.144v-1.041h1.187v4.02h-6.519zm5.332 3.057v-1.086h-4.144v1.086zm5.342-8.153q.672 0 1.21.37.549.357.874 1.03h2.307v-2.128h1.198v9.99h-1.198v-3.774h-2.229q-.325.75-.885 1.165a2.13 2.13 0 0 1-1.277.403q-.728 0-1.31-.437-.572-.437-.896-1.232-.325-.807-.325-1.87 0-1.053.325-1.848.324-.807.896-1.232a2.13 2.13 0 0 1 1.31-.437m-1.388 3.517q0 1.141.38 1.792.381.65 1.008.65.639 0 1.02-.65.38-.65.38-1.792 0-1.132-.38-1.77-.381-.65-1.02-.65-.627 0-1.008.65-.38.65-.38 1.77m3.808-1.143q.111.493.112 1.143 0 .447-.079.996h1.938v-2.139zm13.585 2.722v.963h-3.942v3.18h-1.187v-3.18h-3.887v-.963zm-7.94-5.41h1.198v1.221h4.446v-1.22h1.188V81h-6.832zm5.644 3.394v-1.221h-4.446v1.22z"/><path fill="#F7F7F7" d="M675.301 63.201h107.2v35.2h-107.2z"/><path fill="#6B6B6B" d="M693.076 76.24v2.106h1.389v.996h-1.389v2.106h-1.198V76.24zm-7.347.437h1.199v3.416a23 23 0 0 0 4.076-.415l.135.975q-2.14.437-4.592.437h-.818zm.93 5.264h1.187v1.142h4.043v-1.142h1.187v4.133h-6.417zm5.23 3.18v-1.097h-4.043v1.098zm11.279-8.881v5.342h-1.199V76.24zm-8.031 2.755q0-.672.336-1.187a2.3 2.3 0 0 1 .952-.818 3 3 0 0 1 1.367-.302q.75 0 1.355.302.605.292.952.818.347.516.347 1.187 0 .672-.347 1.21-.336.525-.952.829a3.1 3.1 0 0 1-1.355.29q-.762 0-1.367-.29a2.4 2.4 0 0 1-.952-.83 2.2 2.2 0 0 1-.336-1.209m1.176 0q0 .605.415.975.414.358 1.064.358t1.064-.358q.414-.37.414-.975 0-.594-.414-.952-.414-.37-1.064-.37t-1.064.37q-.415.359-.415.952m.336 3.058h1.188v1.041h4.144v-1.041h1.187v4.02h-6.519zm5.332 3.057v-1.086h-4.144v1.086zm4.973-8.254q.65 0 1.165.302.525.303.817.852t.291 1.243q0 .694-.291 1.243a2.1 2.1 0 0 1-.817.84 2.26 2.26 0 0 1-1.165.302q-.65 0-1.165-.302a2.1 2.1 0 0 1-.806-.84 2.6 2.6 0 0 1-.292-1.243q0-.695.292-1.243.29-.549.806-.852a2.26 2.26 0 0 1 1.165-.302m-1.176 2.397q0 .627.325 1.008a1.1 1.1 0 0 0 .851.37 1.1 1.1 0 0 0 .851-.37q.336-.381.336-1.008t-.336-1.008a1.09 1.09 0 0 0-.851-.381q-.515 0-.851.38-.325.382-.325 1.009m.526 3.416h6.776v3.528h-1.209v-2.565h-5.567zm3.517-6.239h1.131v2.285h.975v-2.464h1.153v5.925h-1.153v-2.475h-.975v2.43h-1.131zm11.547 1.165v-1.344h1.21v7.392h-1.21v-3.102h-1.803v-.963h1.803v-.997h-1.803v-.986zm-7.089 3.898q1.154-.436 1.769-1.378a3.76 3.76 0 0 0 .628-2.117v-1.21h1.209v1.21q0 1.098.605 2.016.605.92 1.702 1.333l-.66.941a3.9 3.9 0 0 1-1.356-.896 4.5 4.5 0 0 1-.884-1.389 4.2 4.2 0 0 1-.919 1.479q-.604.615-1.456.94zm1.792 1.445h1.198v2.094h5.533v.974h-6.731z"/><rect width="15.2" height="15.2" x="136.5" y="108.4" fill="#fff" rx="2.8"/><rect width="15.2" height="15.2" x="136.5" y="108.4" stroke="#C2C2C2" stroke-width=".8" rx="2.8"/><path fill="#121212" d="M176.171 120.134q-1.165 0-2.083-.526a3.76 3.76 0 0 1-1.434-1.49q-.515-.951-.515-2.161t.515-2.162a3.7 3.7 0 0 1 1.434-1.478q.918-.538 2.083-.538.817 0 1.557.325a4 4 0 0 1 1.288.896l-.65.605a2.75 2.75 0 0 0-.986-.695 2.9 2.9 0 0 0-1.209-.257q-.885 0-1.579.414a2.9 2.9 0 0 0-1.076 1.176q-.38.75-.38 1.714 0 .963.38 1.725.393.75 1.076 1.164.694.415 1.579.415a2.9 2.9 0 0 0 1.198-.247q.561-.257.963-.694l.684.594q-.56.57-1.288.896a3.8 3.8 0 0 1-1.557.324m6.802-.907q.571 0 1.019-.414t.695-1.154q.257-.75.257-1.702 0-.953-.257-1.691-.247-.74-.695-1.154a1.472 1.472 0 0 0-2.049 0q-.448.414-.706 1.154-.246.738-.246 1.691 0 .951.246 1.702.258.74.706 1.154t1.03.414m-2.968-3.27q0-1.199.381-2.139.381-.942 1.053-1.468a2.42 2.42 0 0 1 1.534-.526q.862 0 1.534.526.673.526 1.042 1.468.381.94.381 2.139t-.381 2.139q-.37.94-1.042 1.467a2.42 2.42 0 0 1-1.534.527 2.42 2.42 0 0 1-1.534-.527q-.672-.526-1.053-1.467-.381-.94-.381-2.139m9.932 3.27q.572 0 1.02-.414t.694-1.154q.258-.75.258-1.702 0-.953-.258-1.691-.246-.74-.694-1.154a1.474 1.474 0 0 0-2.05 0q-.448.414-.706 1.154-.246.738-.246 1.691 0 .951.246 1.702.258.74.706 1.154t1.03.414m-2.968-3.27q0-1.199.381-2.139.381-.942 1.053-1.468a2.42 2.42 0 0 1 1.534-.526q.863 0 1.535.526t1.041 1.468q.381.94.381 2.139t-.381 2.139q-.369.94-1.041 1.467t-1.535.527a2.42 2.42 0 0 1-1.534-.527q-.672-.526-1.053-1.467-.381-.94-.381-2.139m9.933 3.27q.572 0 1.019-.414.448-.414.695-1.154.257-.75.257-1.702 0-.953-.257-1.691-.247-.74-.695-1.154a1.472 1.472 0 0 0-2.049 0q-.448.414-.706 1.154-.246.738-.246 1.691 0 .951.246 1.702.258.74.706 1.154t1.03.414m-2.968-3.27q0-1.199.381-2.139.381-.942 1.053-1.468a2.42 2.42 0 0 1 1.534-.526q.862 0 1.534.526t1.042 1.468q.381.94.381 2.139t-.381 2.139q-.37.94-1.042 1.467a2.42 2.42 0 0 1-1.534.527 2.42 2.42 0 0 1-1.534-.527q-.672-.526-1.053-1.467-.381-.94-.381-2.139m9.933 3.27q.57 0 1.019-.414t.694-1.154q.258-.75.258-1.702 0-.953-.258-1.691-.246-.74-.694-1.154a1.475 1.475 0 0 0-2.05 0q-.448.414-.705 1.154-.247.738-.247 1.691 0 .951.247 1.702.257.74.705 1.154t1.031.414m-2.968-3.27q0-1.199.38-2.139.381-.942 1.053-1.468t1.535-.526q.862 0 1.534.526t1.042 1.468q.38.94.38 2.139t-.38 2.139q-.37.94-1.042 1.467a2.42 2.42 0 0 1-1.534.527 2.42 2.42 0 0 1-1.535-.527q-.672-.526-1.053-1.467-.38-.94-.38-2.139m9.932 3.27q.572 0 1.019-.414.448-.414.695-1.154.257-.75.257-1.702 0-.953-.257-1.691-.247-.74-.695-1.154a1.472 1.472 0 0 0-2.049 0q-.448.414-.706 1.154-.246.738-.246 1.691 0 .951.246 1.702.258.74.706 1.154t1.03.414m-2.968-3.27q0-1.199.381-2.139.381-.942 1.053-1.468a2.42 2.42 0 0 1 1.534-.526q.863 0 1.535.526t1.041 1.468q.381.94.381 2.139t-.381 2.139q-.369.94-1.041 1.467t-1.535.527a2.42 2.42 0 0 1-1.534-.527q-.672-.526-1.053-1.467-.381-.94-.381-2.139m9.933 3.27q.571 0 1.019-.414t.694-1.154q.258-.75.258-1.702 0-.953-.258-1.691-.246-.74-.694-1.154a1.475 1.475 0 0 0-2.05 0q-.448.414-.705 1.154-.247.738-.247 1.691 0 .951.247 1.702.257.74.705 1.154t1.031.414m-2.968-3.27q0-1.199.381-2.139.38-.942 1.052-1.468t1.535-.526q.862 0 1.534.526t1.042 1.468q.381.94.381 2.139t-.381 2.139q-.37.94-1.042 1.467a2.42 2.42 0 0 1-1.534.527 2.42 2.42 0 0 1-1.535-.527q-.672-.526-1.052-1.467-.381-.94-.381-2.139M249.752 110.962v3.964h1.523v.852h-1.523v5.073h-1.042v-9.889zm-7.616 7.268q3.707-1.881 4.01-5.376h-3.528v-.828h4.558q0 2.24-1.075 4.032t-3.394 2.956zm17.293-7.268v3.908h1.523v.852h-1.523v5.129h-1.03v-9.889zm-7.258.974h1.02v5.589a23.2 23.2 0 0 0 4.356-.437l.124.84a20 20 0 0 1-2.319.347q-1.142.09-2.374.09h-.807zm16.935-.974v3.852h1.568v.852h-1.568v5.208h-1.03v-9.912zm-7.213.974h4.592v.818h-3.584v4.816q1.344 0 2.319-.068a19 19 0 0 0 1.993-.268l.112.862q-1.075.201-2.116.269-1.042.067-2.532.067h-.784zM304.44 119.227q.57 0 1.019-.414.447-.414.694-1.154.258-.75.258-1.702 0-.953-.258-1.691-.247-.74-.694-1.154a1.475 1.475 0 0 0-2.05 0q-.448.414-.705 1.154-.247.738-.247 1.691 0 .951.247 1.702.257.74.705 1.154t1.031.414m-2.968-3.27q0-1.199.38-2.139.381-.942 1.053-1.468t1.535-.526 1.534.526q.672.526 1.042 1.468.38.94.38 2.139t-.38 2.139q-.37.94-1.042 1.467a2.42 2.42 0 0 1-1.534.527 2.42 2.42 0 0 1-1.535-.527q-.672-.526-1.053-1.467-.38-.94-.38-2.139m9.697 4.054h-.986v-7.022l-1.344.84-.47-.795 1.814-1.132h.986zm4.531-.784q.571 0 1.019-.414t.695-1.154q.257-.75.257-1.702 0-.953-.257-1.691-.247-.74-.695-1.154a1.472 1.472 0 0 0-2.049 0q-.448.414-.706 1.154-.246.738-.246 1.691 0 .951.246 1.702.258.74.706 1.154t1.03.414m-2.968-3.27q0-1.199.381-2.139.381-.942 1.053-1.468a2.42 2.42 0 0 1 1.534-.526q.862 0 1.534.526t1.042 1.468q.381.94.381 2.139t-.381 2.139q-.37.94-1.042 1.467a2.42 2.42 0 0 1-1.534.527 2.42 2.42 0 0 1-1.534-.527q-.672-.526-1.053-1.467-.381-.94-.381-2.139m9.933 3.27q.57 0 1.019-.414t.694-1.154q.258-.75.258-1.702 0-.953-.258-1.691-.246-.74-.694-1.154a1.475 1.475 0 0 0-2.05 0q-.448.414-.705 1.154-.247.738-.247 1.691 0 .951.247 1.702.256.74.705 1.154t1.031.414m-2.968-3.27q0-1.199.38-2.139.381-.942 1.053-1.468t1.535-.526a2.42 2.42 0 0 1 1.534.526q.672.526 1.042 1.468.38.94.38 2.139t-.38 2.139q-.37.94-1.042 1.467t-1.534.527a2.42 2.42 0 0 1-1.535-.527q-.672-.526-1.053-1.467-.38-.94-.38-2.139m9.932 3.27q.572 0 1.019-.414.448-.414.695-1.154.257-.75.257-1.702 0-.953-.257-1.691-.247-.74-.695-1.154a1.472 1.472 0 0 0-2.049 0q-.448.414-.706 1.154-.246.738-.246 1.691 0 .951.246 1.702.258.74.706 1.154t1.03.414m-2.968-3.27q0-1.199.381-2.139.381-.942 1.053-1.468a2.42 2.42 0 0 1 1.534-.526q.862 0 1.534.526.673.526 1.042 1.468.381.94.381 2.139t-.381 2.139q-.37.94-1.042 1.467a2.42 2.42 0 0 1-1.534.527 2.42 2.42 0 0 1-1.534-.527q-.672-.526-1.053-1.467-.381-.94-.381-2.139m9.933 3.27q.57 0 1.019-.414t.694-1.154q.258-.75.258-1.702 0-.953-.258-1.691-.246-.74-.694-1.154a1.475 1.475 0 0 0-2.05 0q-.448.414-.705 1.154-.247.738-.247 1.691 0 .951.247 1.702.257.74.705 1.154t1.031.414m-2.968-3.27q0-1.199.38-2.139.381-.942 1.053-1.468t1.535-.526 1.534.526 1.042 1.468q.38.94.38 2.139t-.38 2.139q-.37.94-1.042 1.467a2.42 2.42 0 0 1-1.534.527 2.42 2.42 0 0 1-1.535-.527q-.672-.526-1.053-1.467-.38-.94-.38-2.139m9.932 3.27q.572 0 1.019-.414.449-.414.695-1.154.258-.75.257-1.702 0-.953-.257-1.691-.246-.74-.695-1.154a1.472 1.472 0 0 0-2.049 0q-.448.414-.706 1.154-.246.738-.246 1.691 0 .951.246 1.702.258.74.706 1.154t1.03.414m-2.968-3.27q0-1.199.381-2.139.381-.942 1.053-1.468a2.42 2.42 0 0 1 1.534-.526q.863 0 1.535.526t1.041 1.468q.381.94.381 2.139t-.381 2.139q-.369.94-1.041 1.467t-1.535.527a2.42 2.42 0 0 1-1.534-.527q-.672-.526-1.053-1.467-.381-.94-.381-2.139m9.933 3.27q.571 0 1.019-.414t.694-1.154q.258-.75.258-1.702 0-.953-.258-1.691-.246-.74-.694-1.154a1.476 1.476 0 0 0-2.05 0q-.447.414-.705 1.154-.247.738-.247 1.691 0 .951.247 1.702.258.74.705 1.154.449.414 1.031.414m-2.968-3.27q0-1.199.381-2.139.38-.942 1.052-1.468t1.535-.526 1.534.526q.672.526 1.042 1.468.381.94.381 2.139t-.381 2.139q-.37.94-1.042 1.467a2.42 2.42 0 0 1-1.534.527 2.42 2.42 0 0 1-1.535-.527q-.672-.526-1.052-1.467-.381-.94-.381-2.139m9.932 3.27q.571 0 1.02-.414.447-.414.694-1.154.258-.75.258-1.702 0-.953-.258-1.691-.247-.74-.694-1.154a1.474 1.474 0 0 0-2.05 0q-.448.414-.706 1.154-.246.738-.246 1.691 0 .951.246 1.702.258.74.706 1.154t1.03.414m-2.968-3.27q0-1.199.381-2.139.381-.942 1.053-1.468a2.42 2.42 0 0 1 1.534-.526q.863 0 1.535.526t1.041 1.468q.381.94.381 2.139t-.381 2.139q-.369.94-1.041 1.467t-1.535.527a2.42 2.42 0 0 1-1.534-.527q-.672-.526-1.053-1.467-.381-.94-.381-2.139m9.933 3.27q.571 0 1.019-.414t.695-1.154q.257-.75.257-1.702 0-.953-.257-1.691-.247-.74-.695-1.154a1.472 1.472 0 0 0-2.049 0q-.448.414-.706 1.154-.246.738-.246 1.691 0 .951.246 1.702.258.74.706 1.154t1.03.414m-2.968-3.27q0-1.199.381-2.139.381-.942 1.053-1.468a2.42 2.42 0 0 1 1.534-.526q.862 0 1.534.526.673.526 1.042 1.468.381.94.381 2.139t-.381 2.139q-.37.94-1.042 1.467a2.42 2.42 0 0 1-1.534.527 2.42 2.42 0 0 1-1.534-.527q-.672-.526-1.053-1.467-.381-.94-.381-2.139m9.932 3.27q.572 0 1.02-.414t.694-1.154q.258-.75.258-1.702 0-.953-.258-1.691-.246-.74-.694-1.154a1.474 1.474 0 0 0-2.05 0q-.448.414-.706 1.154-.246.738-.246 1.691 0 .951.246 1.702.258.74.706 1.154t1.03.414m-2.968-3.27q0-1.199.381-2.139.381-.942 1.053-1.468a2.42 2.42 0 0 1 1.534-.526q.863 0 1.535.526t1.041 1.468q.381.94.381 2.139t-.381 2.139q-.369.94-1.041 1.467t-1.535.527a2.42 2.42 0 0 1-1.534-.527q-.672-.526-1.053-1.467-.381-.94-.381-2.139M403.516 119.261q.481 0 .896-.269.425-.269.683-.739.257-.482.257-1.064t-.257-1.053q-.258-.47-.683-.739a1.6 1.6 0 0 0-.896-.269q-.527 0-.941.258a1.8 1.8 0 0 0-.639.728 2.5 2.5 0 0 0-.224 1.075q0 .918.504 1.501.504.57 1.3.571m-2.789-2.072q0-.84.347-1.501t.974-1.03q.628-.37 1.423-.37.514 0 1.008.28.492.269.851.818v-1.132h.986v5.791h-.986v-1.042q-.37.572-.851.84a2.04 2.04 0 0 1-1.008.269q-.795 0-1.423-.37a2.6 2.6 0 0 1-.974-1.041q-.347-.661-.347-1.512m9.946 2.923q-.481 0-.997-.258-.515-.257-.884-.851v1.042h-.986v-8.176h.986v3.494q.37-.593.884-.851.516-.258 1.008-.258.807 0 1.434.381.627.37.974 1.031.359.66.359 1.512 0 .85-.359 1.523-.347.66-.985 1.041-.627.37-1.434.37m-1.881-2.923q0 .572.246 1.053.258.482.683.761.426.28.919.28.526 0 .94-.269a1.73 1.73 0 0 0 .65-.739 2.44 2.44 0 0 0 .235-1.086q0-.605-.235-1.075a1.66 1.66 0 0 0-.65-.74 1.7 1.7 0 0 0-.94-.268q-.493 0-.919.28a2.04 2.04 0 0 0-.683.761 2.26 2.26 0 0 0-.246 1.042m8.256 1.971q.37 0 .773-.168.402-.168.672-.437l.683.65a2.9 2.9 0 0 1-.963.638 2.9 2.9 0 0 1-1.12.247 3.1 3.1 0 0 1-1.524-.37 2.8 2.8 0 0 1-1.041-1.042q-.37-.66-.37-1.512 0-.85.37-1.512a2.7 2.7 0 0 1 1.041-1.03q.672-.37 1.524-.37.549 0 1.12.247.57.246.963.638l-.683.65a2 2 0 0 0-.672-.448 2 2 0 0 0-.773-.168 1.9 1.9 0 0 0-.986.257q-.437.247-.683.706a2.2 2.2 0 0 0-.235 1.03q0 .885.526 1.445.538.549 1.378.549m5.534.952q-.795 0-1.422-.37a2.7 2.7 0 0 1-.986-1.041q-.348-.672-.347-1.523 0-.852.347-1.512.358-.673.986-1.042a2.7 2.7 0 0 1 1.422-.381q.526 0 1.042.28.514.269.862.851v-3.505h.986v8.176h-.986v-1.053q-.358.572-.874.851a2.2 2.2 0 0 1-1.03.269m-1.77-2.923q0 .605.224 1.086.236.47.65.739.426.27.952.269.493 0 .918-.28.426-.291.672-.773a2.2 2.2 0 0 0 .258-1.041q0-.56-.258-1.042a1.95 1.95 0 0 0-.672-.761 1.6 1.6 0 0 0-.918-.292q-.526 0-.952.269-.414.269-.65.751a2.5 2.5 0 0 0-.224 1.075m10.206-.415q-.078-.716-.47-1.198-.381-.493-1.154-.493-.706 0-1.21.482-.492.47-.593 1.221zm-4.402.381q0-.85.348-1.512.347-.66.974-1.03t1.422-.37q1.67 0 2.386 1.568.235.627.235 1.333a4 4 0 0 1-.022.437h-4.368q.111.728.605 1.187.504.459 1.176.459.537 0 .884-.168.359-.168.493-.325a3 3 0 0 0 .258-.336l.784.404q-.258.526-.885.896-.616.369-1.546.369a2.75 2.75 0 0 1-1.422-.369 2.54 2.54 0 0 1-.974-1.031q-.348-.66-.348-1.512m7.073 2.89v-4.895h-1.042v-.862h1.042v-.773q0-.504.224-.918.235-.414.638-.65a1.85 1.85 0 0 1 .93-.235q.324 0 .649.112t.538.302l-.56.695q-.291-.246-.582-.247a.8.8 0 0 0-.616.269q-.236.258-.236.672v.773h1.669v.862h-1.669v4.895zm6.101-.784q.505 0 .919-.28a1.9 1.9 0 0 0 .661-.762q.246-.481.246-1.03 0-.55-.246-1.019a1.9 1.9 0 0 0-.661-.751 1.6 1.6 0 0 0-.919-.28q-.526 0-.94.258a1.8 1.8 0 0 0-.639.728 2.45 2.45 0 0 0-.224 1.064q0 .604.224 1.075.236.47.639.739.414.258.94.258m-2.788-2.072q0-.84.347-1.49.347-.66.974-1.03t1.423-.37q.582 0 1.086.291.516.28.784.796v-1.132h.986v5.466q-.012.84-.37 1.49a2.43 2.43 0 0 1-.997 1.019q-.638.369-1.489.369a2.84 2.84 0 0 1-1.344-.324q-.606-.314-1.031-.964l.784-.515q.628.94 1.591.941.85 0 1.355-.549.504-.549.515-1.411v-.806a2.54 2.54 0 0 1-.84.828 2 2 0 0 1-1.03.303q-.795 0-1.423-.37a2.54 2.54 0 0 1-.974-1.03q-.347-.661-.347-1.512m11.1-.314q0-.762-.381-1.232a1.17 1.17 0 0 0-.975-.481q-.436 0-.817.257a1.86 1.86 0 0 0-.594.695 2.1 2.1 0 0 0-.213.94v2.991h-.985v-8.176h.985v3.393q.247-.425.684-.683a1.8 1.8 0 0 1 .94-.269q.684 0 1.21.314.538.314.829.885.302.56.302 1.277v3.259h-.985zm3.526-2.598v5.768h-.986v-5.768zm-1.087-1.938q0-.246.168-.403a.58.58 0 0 1 .426-.168q.258 0 .414.168a.53.53 0 0 1 .168.403.58.58 0 0 1-.168.426.54.54 0 0 1-.414.168.577.577 0 0 1-.594-.594m1.357 9.218.28.045q.213.044.392.044a.56.56 0 0 0 .471-.246.9.9 0 0 0 .19-.582v-6.541h.986v6.541q0 .773-.46 1.254-.459.493-1.187.493-.358 0-.862-.101zm1.243-9.218q0-.246.168-.403a.58.58 0 0 1 .426-.168q.258 0 .414.168a.53.53 0 0 1 .168.403.58.58 0 0 1-.168.426.54.54 0 0 1-.414.168.577.577 0 0 1-.594-.594m3.436 4.749 2.43-2.834h1.322l-2.218 2.565 2.251 3.226h-1.198l-1.758-2.498-.829 1.008v1.49h-.986v-8.176h.986zm5.845-5.219v8.176h-.985v-8.176zm9.013 4.749q0-.661-.359-1.076a1.16 1.16 0 0 0-.929-.425q-.639 0-1.053.403a1.37 1.37 0 0 0-.403 1.008v3.517h-.986v-3.427q0-.661-.358-1.076a1.12 1.12 0 0 0-.907-.425q-.426 0-.762.224a1.46 1.46 0 0 0-.526.593 1.7 1.7 0 0 0-.191.796v3.315h-.985v-5.791h.985v.986q.246-.436.672-.706.426-.268.874-.268.549 0 1.041.324.504.325.74.829.269-.504.806-.829a2.1 2.1 0 0 1 1.098-.324q.65 0 1.153.291.516.29.795.817.28.516.28 1.176v3.495h-.985zm6.314.112q0-.729-.392-1.165-.393-.448-1.042-.448-.459 0-.829.224-.369.213-.582.582a1.6 1.6 0 0 0-.213.807v3.315h-.986v-5.791h.986v.986a2.2 2.2 0 0 1 .75-.694q.483-.28.952-.28.628 0 1.165.28.538.28.851.828.325.538.325 1.3v3.371h-.985zm3.238-1.423a.56.56 0 0 1 .414.157.56.56 0 0 1 .157.414.58.58 0 0 1-.168.426.55.55 0 0 1-.403.157.56.56 0 0 1-.415-.168.56.56 0 0 1-.168-.415q0-.246.157-.403a.58.58 0 0 1 .426-.168m2.217.56q0-.246.157-.403a.58.58 0 0 1 .426-.168.56.56 0 0 1 .414.157.56.56 0 0 1 .157.414.58.58 0 0 1-.168.426.55.55 0 0 1-.403.157.56.56 0 0 1-.415-.168.56.56 0 0 1-.168-.415m2.811 0q0-.246.157-.403a.58.58 0 0 1 .426-.168q.258 0 .414.157a.56.56 0 0 1 .157.414.58.58 0 0 1-.168.426.55.55 0 0 1-.403.157.56.56 0 0 1-.415-.168.56.56 0 0 1-.168-.415M514.553 110.962v3.964h1.523v.852h-1.523v5.073h-1.042v-9.889zm-7.616 7.268q3.707-1.881 4.009-5.376h-3.528v-.828h4.559q0 2.24-1.075 4.032t-3.394 2.956zm17.293-7.268v3.908h1.523v.852h-1.523v5.129h-1.031v-9.889zm-7.258.974h1.019v5.589a23.3 23.3 0 0 0 4.357-.437l.123.84q-1.176.246-2.318.347-1.143.09-2.374.09h-.807zm16.935-.974v3.852h1.568v.852h-1.568v5.208h-1.03v-9.912zm-7.213.974h4.592v.818h-3.584v4.816q1.344 0 2.319-.068a19 19 0 0 0 1.993-.268l.112.862q-1.075.201-2.117.269-1.041.067-2.531.067h-.784zm16.89-.974v3.886h1.568v.862h-1.568v5.164h-1.008v-9.912zm-7.246.918h4.48v3.606h-3.439v2.173a40 40 0 0 0 2.363-.078 21 21 0 0 0 2.016-.258l.09.829q-1.098.201-2.173.28-1.076.078-2.52.078h-.795v-3.852h3.45v-1.949h-3.472zM618.444 111.925v6.485h-4.592v-6.485zm-.996 5.656v-4.839h-2.588v4.839zm2.945-6.619h1.019v9.912h-1.019zm10.304.011v2.161h1.423v.852h-1.423v2.15h-1.03v-5.163zm-7.235.459h1.019v3.427a23 23 0 0 0 4.245-.414l.112.829q-2.195.448-4.581.448h-.795zm.941 5.208h1.008v1.232h4.278v-1.232h1.008v4.088h-6.294zm5.286 3.27v-1.22h-4.278v1.22z"/><g clip-path="url(#a)"><mask id="b" fill="#fff"><path d="M675.301 116c0-8.339 6.76-15.1 15.1-15.1h21.8c8.339 0 15.1 6.761 15.1 15.1 0 8.34-6.761 15.1-15.1 15.1h-21.8c-8.34 0-15.1-6.76-15.1-15.1"/></mask><path fill="#fff" d="M675.301 116c0-8.339 6.76-15.1 15.1-15.1h21.8c8.339 0 15.1 6.761 15.1 15.1 0 8.34-6.761 15.1-15.1 15.1h-21.8c-8.34 0-15.1-6.76-15.1-15.1"/><path fill="#2A8642" d="M690.401 101.7h21.8v-1.6h-21.8zm21.8 28.6h-21.8v1.6h21.8zm-21.8 0c-7.898 0-14.3-6.402-14.3-14.3h-1.6c0 8.782 7.118 15.9 15.9 15.9zm36.1-14.3c0 7.898-6.403 14.3-14.3 14.3v1.6c8.781 0 15.9-7.118 15.9-15.9zm-14.3-14.3c7.897 0 14.3 6.403 14.3 14.3h1.6c0-8.781-7.119-15.9-15.9-15.9zm-21.8-1.6c-8.782 0-15.9 7.119-15.9 15.9h1.6c0-7.897 6.402-14.3 14.3-14.3z" mask="url(#b)"/><path fill="#2A8642" d="M699.744 111.439v2.106h1.389v.997h-1.389v2.105h-1.199v-5.208zm-7.347.437h1.198v3.416a23 23 0 0 0 4.077-.414l.134.974q-2.14.437-4.592.437h-.817zm.929 5.264h1.187v1.142h4.044v-1.142h1.187v4.133h-6.418zm5.231 3.181v-1.098h-4.044v1.098zm11.278-8.882v5.343h-1.198v-5.343zm-8.03 2.755q0-.671.336-1.187.347-.526.952-.817a3 3 0 0 1 1.366-.303q.75 0 1.355.303.606.29.952.817.348.516.348 1.187 0 .672-.348 1.21a2.3 2.3 0 0 1-.952.829 3.1 3.1 0 0 1-1.355.291q-.762 0-1.366-.291a2.4 2.4 0 0 1-.952-.829 2.2 2.2 0 0 1-.336-1.21m1.176 0q0 .605.414.975.414.358 1.064.358t1.064-.358q.414-.37.415-.975 0-.593-.415-.952-.414-.369-1.064-.369t-1.064.369q-.414.359-.414.952m.336 3.058h1.187v1.042h4.144v-1.042h1.187v4.021h-6.518zm5.331 3.058v-1.087h-4.144v1.087z"/><mask id="c" fill="#fff"><path d="M730.5 116c0-8.339 6.761-15.1 15.1-15.1h21.8c8.339 0 15.1 6.761 15.1 15.1 0 8.34-6.761 15.1-15.1 15.1h-21.8c-8.339 0-15.1-6.76-15.1-15.1"/></mask><path fill="#fff" d="M730.5 116c0-8.339 6.761-15.1 15.1-15.1h21.8c8.339 0 15.1 6.761 15.1 15.1 0 8.34-6.761 15.1-15.1 15.1h-21.8c-8.339 0-15.1-6.76-15.1-15.1"/><path fill="#BB362A" d="M745.6 101.7h21.8v-1.6h-21.8zm21.8 28.6h-21.8v1.6h21.8zm-21.8 0c-7.898 0-14.3-6.402-14.3-14.3h-1.6c0 8.782 7.119 15.9 15.9 15.9zm36.1-14.3c0 7.898-6.402 14.3-14.3 14.3v1.6c8.781 0 15.9-7.118 15.9-15.9zm-14.3-14.3c7.898 0 14.3 6.403 14.3 14.3h1.6c0-8.781-7.119-15.9-15.9-15.9zm-21.8-1.6c-8.781 0-15.9 7.119-15.9 15.9h1.6c0-7.897 6.402-14.3 14.3-14.3z" mask="url(#c)"/><path fill="#BB362A" d="M752.356 112.369v6.597h-4.693v-6.597zm-1.165 5.645v-4.693h-2.341v4.693zm2.957-6.586h1.209v9.99h-1.209zm10.472.011v2.106h1.389v.997h-1.389v2.105h-1.198v-5.208zm-7.347.437h1.198v3.416a23 23 0 0 0 4.077-.414l.134.974q-2.139.437-4.592.437h-.817zm.929 5.264h1.188v1.142h4.043v-1.142h1.187v4.133h-6.418zm5.231 3.181v-1.098h-4.043v1.098z"/></g><path fill="#F7F7F7" d="M126.5 133.602h656v35.2h-656z"/><rect width="15.2" height="15.2" x="136.5" y="143.601" fill="#EBF4FE" rx="2.8"/><rect width="15.2" height="15.2" x="136.5" y="143.601" stroke="#368FF7" stroke-width=".8" rx="2.8"/><path stroke="#368FF7" stroke-linejoin="bevel" stroke-width="1.12" d="m148.901 148.002-6.4 5.6-3.2-2.8"/><path fill="#121212" d="M176.171 155.336q-1.165 0-2.083-.527a3.76 3.76 0 0 1-1.434-1.489q-.515-.953-.515-2.162t.515-2.162a3.7 3.7 0 0 1 1.434-1.478q.918-.538 2.083-.538.817 0 1.557.325a4 4 0 0 1 1.288.896l-.65.605a2.7 2.7 0 0 0-.986-.694 2.9 2.9 0 0 0-1.209-.258q-.885 0-1.579.414a2.9 2.9 0 0 0-1.076 1.176q-.38.751-.38 1.714t.38 1.725q.393.75 1.076 1.165.694.414 1.579.414.638 0 1.198-.246.561-.258.963-.695l.684.594a4.2 4.2 0 0 1-1.288.896 3.8 3.8 0 0 1-1.557.325m6.802-.908q.571 0 1.019-.414t.695-1.154q.257-.75.257-1.702t-.257-1.691q-.247-.74-.695-1.154a1.472 1.472 0 0 0-2.049 0q-.448.414-.706 1.154-.246.739-.246 1.691t.246 1.702q.258.74.706 1.154t1.03.414m-2.968-3.27q0-1.198.381-2.139t1.053-1.467a2.42 2.42 0 0 1 1.534-.527 2.42 2.42 0 0 1 1.534.527q.673.526 1.042 1.467.381.94.381 2.139t-.381 2.139q-.37.94-1.042 1.467a2.42 2.42 0 0 1-1.534.527 2.42 2.42 0 0 1-1.534-.527q-.672-.526-1.053-1.467-.381-.94-.381-2.139m9.932 3.27q.572 0 1.02-.414t.694-1.154q.258-.75.258-1.702t-.258-1.691q-.246-.74-.694-1.154a1.474 1.474 0 0 0-2.05 0q-.448.414-.706 1.154-.246.739-.246 1.691t.246 1.702q.258.74.706 1.154t1.03.414m-2.968-3.27q0-1.198.381-2.139t1.053-1.467 1.534-.527 1.535.527q.672.526 1.041 1.467.381.94.381 2.139t-.381 2.139q-.369.94-1.041 1.467t-1.535.527a2.42 2.42 0 0 1-1.534-.527q-.672-.526-1.053-1.467-.381-.94-.381-2.139m9.933 3.27q.572 0 1.019-.414.448-.414.695-1.154.257-.75.257-1.702t-.257-1.691q-.247-.74-.695-1.154a1.472 1.472 0 0 0-2.049 0q-.448.414-.706 1.154-.246.739-.246 1.691t.246 1.702q.258.74.706 1.154t1.03.414m-2.968-3.27q0-1.198.381-2.139t1.053-1.467a2.42 2.42 0 0 1 1.534-.527 2.42 2.42 0 0 1 1.534.527q.672.526 1.042 1.467.381.94.381 2.139t-.381 2.139q-.37.94-1.042 1.467a2.42 2.42 0 0 1-1.534.527 2.42 2.42 0 0 1-1.534-.527q-.672-.526-1.053-1.467-.381-.94-.381-2.139m9.933 3.27q.57 0 1.019-.414t.694-1.154q.258-.75.258-1.702t-.258-1.691q-.246-.74-.694-1.154a1.475 1.475 0 0 0-2.05 0q-.448.414-.705 1.154-.247.739-.247 1.691t.247 1.702q.257.74.705 1.154t1.031.414m-2.968-3.27q0-1.198.38-2.139.381-.94 1.053-1.467t1.535-.527a2.42 2.42 0 0 1 1.534.527q.672.526 1.042 1.467.38.94.38 2.139t-.38 2.139q-.37.94-1.042 1.467a2.42 2.42 0 0 1-1.534.527 2.42 2.42 0 0 1-1.535-.527q-.672-.526-1.053-1.467-.38-.94-.38-2.139m9.932 3.27q.572 0 1.019-.414.448-.414.695-1.154.257-.75.257-1.702t-.257-1.691q-.247-.74-.695-1.154a1.472 1.472 0 0 0-2.049 0q-.448.414-.706 1.154-.246.739-.246 1.691t.246 1.702q.258.74.706 1.154t1.03.414m-2.968-3.27q0-1.198.381-2.139t1.053-1.467a2.42 2.42 0 0 1 1.534-.527q.863 0 1.535.527.672.526 1.041 1.467.381.94.381 2.139t-.381 2.139q-.369.94-1.041 1.467t-1.535.527a2.42 2.42 0 0 1-1.534-.527q-.672-.526-1.053-1.467-.381-.94-.381-2.139m9.933 3.27q.571 0 1.019-.414t.694-1.154q.258-.75.258-1.702t-.258-1.691q-.246-.74-.694-1.154a1.475 1.475 0 0 0-2.05 0q-.448.414-.705 1.154-.247.739-.247 1.691t.247 1.702q.257.74.705 1.154t1.031.414m-2.968-3.27q0-1.198.381-2.139.38-.94 1.052-1.467t1.535-.527a2.42 2.42 0 0 1 1.534.527q.672.526 1.042 1.467.381.94.381 2.139t-.381 2.139q-.37.94-1.042 1.467a2.42 2.42 0 0 1-1.534.527 2.42 2.42 0 0 1-1.535-.527q-.672-.526-1.052-1.467-.381-.94-.381-2.139M249.752 146.163v3.965h1.523v.851h-1.523v5.073h-1.042v-9.889zm-7.616 7.269q3.707-1.883 4.01-5.376h-3.528v-.829h4.558q0 2.24-1.075 4.032t-3.394 2.957zm17.293-7.269v3.909h1.523v.851h-1.523v5.129h-1.03v-9.889zm-7.258.974h1.02v5.589a23.2 23.2 0 0 0 4.356-.437l.124.84a20 20 0 0 1-2.319.347q-1.142.09-2.374.09h-.807zm16.935-.974v3.853h1.568v.851h-1.568v5.208h-1.03v-9.912zm-7.213.974h4.592v.818h-3.584v4.816q1.344 0 2.319-.067a19 19 0 0 0 1.993-.269l.112.862q-1.075.202-2.116.269t-2.532.067h-.784zM304.44 154.428q.57 0 1.019-.414.447-.414.694-1.154.258-.75.258-1.702t-.258-1.691q-.247-.74-.694-1.154a1.475 1.475 0 0 0-2.05 0q-.448.414-.705 1.154-.247.739-.247 1.691t.247 1.702q.257.74.705 1.154t1.031.414m-2.968-3.27q0-1.198.38-2.139.381-.94 1.053-1.467t1.535-.527a2.42 2.42 0 0 1 1.534.527q.672.526 1.042 1.467.38.94.38 2.139t-.38 2.139q-.37.94-1.042 1.467a2.42 2.42 0 0 1-1.534.527 2.42 2.42 0 0 1-1.535-.527q-.672-.526-1.053-1.467-.38-.94-.38-2.139m9.697 4.054h-.986v-7.022l-1.344.84-.47-.795 1.814-1.131h.986zm4.531-.784q.571 0 1.019-.414t.695-1.154q.257-.75.257-1.702t-.257-1.691q-.247-.74-.695-1.154a1.472 1.472 0 0 0-2.049 0q-.448.414-.706 1.154-.246.739-.246 1.691t.246 1.702q.258.74.706 1.154t1.03.414m-2.968-3.27q0-1.198.381-2.139t1.053-1.467a2.42 2.42 0 0 1 1.534-.527 2.42 2.42 0 0 1 1.534.527q.672.526 1.042 1.467.381.94.381 2.139t-.381 2.139q-.37.94-1.042 1.467a2.42 2.42 0 0 1-1.534.527 2.42 2.42 0 0 1-1.534-.527q-.672-.526-1.053-1.467-.381-.94-.381-2.139m9.933 3.27q.57 0 1.019-.414t.694-1.154q.258-.75.258-1.702t-.258-1.691q-.246-.74-.694-1.154a1.475 1.475 0 0 0-2.05 0q-.448.414-.705 1.154-.247.739-.247 1.691t.247 1.702q.256.74.705 1.154t1.031.414m-2.968-3.27q0-1.198.38-2.139.381-.94 1.053-1.467t1.535-.527 1.534.527q.672.526 1.042 1.467.38.94.38 2.139t-.38 2.139q-.37.94-1.042 1.467t-1.534.527a2.42 2.42 0 0 1-1.535-.527q-.672-.526-1.053-1.467-.38-.94-.38-2.139m9.932 3.27q.572 0 1.019-.414.448-.414.695-1.154.257-.75.257-1.702t-.257-1.691q-.247-.74-.695-1.154a1.472 1.472 0 0 0-2.049 0q-.448.414-.706 1.154-.246.739-.246 1.691t.246 1.702q.258.74.706 1.154t1.03.414m-2.968-3.27q0-1.198.381-2.139t1.053-1.467a2.42 2.42 0 0 1 1.534-.527 2.42 2.42 0 0 1 1.534.527q.673.526 1.042 1.467.381.94.381 2.139t-.381 2.139q-.37.94-1.042 1.467a2.42 2.42 0 0 1-1.534.527 2.42 2.42 0 0 1-1.534-.527q-.672-.526-1.053-1.467-.381-.94-.381-2.139m9.933 3.27q.57 0 1.019-.414t.694-1.154q.258-.75.258-1.702t-.258-1.691q-.246-.74-.694-1.154a1.475 1.475 0 0 0-2.05 0q-.448.414-.705 1.154-.247.739-.247 1.691t.247 1.702q.257.74.705 1.154t1.031.414m-2.968-3.27q0-1.198.38-2.139.381-.94 1.053-1.467t1.535-.527a2.42 2.42 0 0 1 1.534.527q.672.526 1.042 1.467.38.94.38 2.139t-.38 2.139q-.37.94-1.042 1.467a2.42 2.42 0 0 1-1.534.527 2.42 2.42 0 0 1-1.535-.527q-.672-.526-1.053-1.467-.38-.94-.38-2.139m9.932 3.27q.572 0 1.019-.414.449-.414.695-1.154.258-.75.257-1.702 0-.952-.257-1.691-.246-.74-.695-1.154a1.472 1.472 0 0 0-2.049 0q-.448.414-.706 1.154-.246.739-.246 1.691t.246 1.702q.258.74.706 1.154t1.03.414m-2.968-3.27q0-1.198.381-2.139t1.053-1.467a2.42 2.42 0 0 1 1.534-.527q.863 0 1.535.527.672.526 1.041 1.467.381.94.381 2.139t-.381 2.139q-.369.94-1.041 1.467t-1.535.527a2.42 2.42 0 0 1-1.534-.527q-.672-.526-1.053-1.467-.381-.94-.381-2.139m9.933 3.27q.571 0 1.019-.414t.694-1.154q.258-.75.258-1.702t-.258-1.691q-.246-.74-.694-1.154a1.476 1.476 0 0 0-2.05 0q-.447.414-.705 1.154-.247.739-.247 1.691t.247 1.702q.258.74.705 1.154.449.414 1.031.414m-2.968-3.27q0-1.198.381-2.139.38-.94 1.052-1.467t1.535-.527a2.42 2.42 0 0 1 1.534.527q.672.526 1.042 1.467.381.94.381 2.139t-.381 2.139q-.37.94-1.042 1.467a2.42 2.42 0 0 1-1.534.527 2.42 2.42 0 0 1-1.535-.527q-.672-.526-1.052-1.467-.381-.94-.381-2.139m9.932 3.27q.571 0 1.02-.414.447-.414.694-1.154.258-.75.258-1.702t-.258-1.691q-.247-.74-.694-1.154a1.474 1.474 0 0 0-2.05 0q-.448.414-.706 1.154-.246.739-.246 1.691t.246 1.702q.258.74.706 1.154t1.03.414m-2.968-3.27q0-1.198.381-2.139t1.053-1.467a2.42 2.42 0 0 1 1.534-.527q.863 0 1.535.527.672.526 1.041 1.467.381.94.381 2.139t-.381 2.139q-.369.94-1.041 1.467t-1.535.527a2.42 2.42 0 0 1-1.534-.527q-.672-.526-1.053-1.467-.381-.94-.381-2.139m9.933 3.27q.571 0 1.019-.414t.695-1.154q.257-.75.257-1.702t-.257-1.691q-.247-.74-.695-1.154a1.472 1.472 0 0 0-2.049 0q-.448.414-.706 1.154-.246.739-.246 1.691t.246 1.702q.258.74.706 1.154t1.03.414m-2.968-3.27q0-1.198.381-2.139t1.053-1.467a2.42 2.42 0 0 1 1.534-.527 2.42 2.42 0 0 1 1.534.527q.673.526 1.042 1.467.381.94.381 2.139t-.381 2.139q-.37.94-1.042 1.467a2.42 2.42 0 0 1-1.534.527 2.42 2.42 0 0 1-1.534-.527q-.672-.526-1.053-1.467-.381-.94-.381-2.139m9.932 3.27q.572 0 1.02-.414t.694-1.154q.258-.75.258-1.702t-.258-1.691q-.246-.74-.694-1.154a1.474 1.474 0 0 0-2.05 0q-.448.414-.706 1.154-.246.739-.246 1.691t.246 1.702q.258.74.706 1.154t1.03.414m-2.968-3.27q0-1.198.381-2.139t1.053-1.467 1.534-.527 1.535.527q.672.526 1.041 1.467.381.94.381 2.139t-.381 2.139q-.369.94-1.041 1.467t-1.535.527a2.42 2.42 0 0 1-1.534-.527q-.672-.526-1.053-1.467-.381-.94-.381-2.139M403.516 154.462q.481 0 .896-.269.425-.268.683-.739.257-.482.257-1.064t-.257-1.053q-.258-.47-.683-.739a1.6 1.6 0 0 0-.896-.269q-.527 0-.941.258a1.8 1.8 0 0 0-.639.728 2.5 2.5 0 0 0-.224 1.075q0 .918.504 1.501.504.571 1.3.571m-2.789-2.072q0-.84.347-1.501t.974-1.03q.628-.37 1.423-.37.514 0 1.008.28.492.269.851.818v-1.131h.986v5.79h-.986v-1.042q-.37.572-.851.84-.482.27-1.008.269-.795 0-1.423-.369a2.6 2.6 0 0 1-.974-1.042q-.347-.661-.347-1.512m9.946 2.923q-.481 0-.997-.257-.515-.258-.884-.852v1.042h-.986v-8.176h.986v3.494q.37-.593.884-.851.516-.258 1.008-.257.807 0 1.434.38.627.37.974 1.031.359.66.359 1.512 0 .85-.359 1.523-.347.661-.985 1.042a2.8 2.8 0 0 1-1.434.369m-1.881-2.923q0 .572.246 1.053.258.482.683.761.426.28.919.28.526 0 .94-.268.426-.27.65-.74a2.44 2.44 0 0 0 .235-1.086q0-.605-.235-1.075a1.65 1.65 0 0 0-.65-.739 1.7 1.7 0 0 0-.94-.269q-.493 0-.919.28a2.04 2.04 0 0 0-.683.761 2.26 2.26 0 0 0-.246 1.042m8.256 1.971q.37 0 .773-.168.402-.167.672-.437l.683.65a2.9 2.9 0 0 1-.963.638 2.9 2.9 0 0 1-1.12.247 3.1 3.1 0 0 1-1.524-.37 2.8 2.8 0 0 1-1.041-1.041q-.37-.661-.37-1.512 0-.852.37-1.512a2.7 2.7 0 0 1 1.041-1.031 3.1 3.1 0 0 1 1.524-.369q.549 0 1.12.246.57.246.963.638l-.683.65a2 2 0 0 0-.672-.448 2 2 0 0 0-.773-.168q-.55 0-.986.258a1.73 1.73 0 0 0-.683.705 2.2 2.2 0 0 0-.235 1.031q0 .884.526 1.444.538.549 1.378.549m5.534.952a2.75 2.75 0 0 1-1.422-.369 2.7 2.7 0 0 1-.986-1.042q-.348-.672-.347-1.523 0-.852.347-1.512.358-.672.986-1.042a2.7 2.7 0 0 1 1.422-.381q.526 0 1.042.28.514.27.862.852v-3.506h.986v8.176h-.986v-1.053q-.358.572-.874.851a2.2 2.2 0 0 1-1.03.269m-1.77-2.923q0 .604.224 1.086.236.47.65.74.426.268.952.268.493 0 .918-.28a2.04 2.04 0 0 0 .672-.772q.258-.482.258-1.042t-.258-1.042a1.95 1.95 0 0 0-.672-.761 1.6 1.6 0 0 0-.918-.291q-.526 0-.952.268-.414.27-.65.751a2.5 2.5 0 0 0-.224 1.075M514.553 146.163v3.965h1.523v.851h-1.523v5.073h-1.042v-9.889zm-7.616 7.269q3.707-1.883 4.009-5.376h-3.528v-.829h4.559q0 2.24-1.075 4.032t-3.394 2.957zm17.293-7.269v3.909h1.523v.851h-1.523v5.129h-1.031v-9.889zm-7.258.974h1.019v5.589a23.3 23.3 0 0 0 4.357-.437l.123.84q-1.176.246-2.318.347-1.143.09-2.374.09h-.807zm16.935-.974v3.853h1.568v.851h-1.568v5.208h-1.03v-9.912zm-7.213.974h4.592v.818h-3.584v4.816q1.344 0 2.319-.067a19 19 0 0 0 1.993-.269l.112.862q-1.075.202-2.117.269-1.041.067-2.531.067h-.784zm16.89-.974v3.886h1.568v.863h-1.568v5.163h-1.008v-9.912zm-7.246.918h4.48v3.607h-3.439v2.172a40 40 0 0 0 2.363-.078 21 21 0 0 0 2.016-.258l.09.829q-1.098.202-2.173.28-1.076.079-2.52.079h-.795v-3.853h3.45v-1.949h-3.472zM618.444 147.126v6.485h-4.592v-6.485zm-.996 5.656v-4.838h-2.588v4.838zm2.945-6.619h1.019v9.912h-1.019zm10.304.011v2.162h1.423v.851h-1.423v2.15h-1.03v-5.163zm-7.235.459h1.019v3.427a23 23 0 0 0 4.245-.414l.112.829q-2.195.447-4.581.448h-.795zm.941 5.208h1.008v1.232h4.278v-1.232h1.008v4.088h-6.294zm5.286 3.271v-1.221h-4.278v1.221z"/><g clip-path="url(#d)"><mask id="e" fill="#fff"><path d="M714.5 151.202c0-8.34 6.761-15.1 15.1-15.1h37.8c8.339 0 15.1 6.76 15.1 15.1s-6.761 15.1-15.1 15.1h-37.8c-8.339 0-15.1-6.761-15.1-15.1"/></mask><path fill="#fff" d="M714.5 151.202c0-8.34 6.761-15.1 15.1-15.1h37.8c8.339 0 15.1 6.76 15.1 15.1s-6.761 15.1-15.1 15.1h-37.8c-8.339 0-15.1-6.761-15.1-15.1"/><path fill="#C2C2C2" d="M729.6 136.902h37.8v-1.6h-37.8zm37.8 28.6h-37.8v1.6h37.8zm-37.8 0c-7.898 0-14.3-6.403-14.3-14.3h-1.6c0 8.781 7.119 15.9 15.9 15.9zm52.1-14.3c0 7.897-6.402 14.3-14.3 14.3v1.6c8.781 0 15.9-7.119 15.9-15.9zm-14.3-14.3c7.898 0 14.3 6.402 14.3 14.3h1.6c0-8.782-7.119-15.9-15.9-15.9zm-37.8-1.6c-8.781 0-15.9 7.118-15.9 15.9h1.6c0-7.898 6.402-14.3 14.3-14.3z" mask="url(#e)"/><path fill="#121212" d="M731.629 147.536h3.304q.65 0 1.165.292.515.279.806.795.292.504.292 1.153 0 .404-.202.84a2.4 2.4 0 0 1-.538.74q.034.022.079.056a.5.5 0 0 1 .112.067q.47.302.761.851.303.549.303 1.109 0 .683-.291 1.221a2.07 2.07 0 0 1-.796.828 2.34 2.34 0 0 1-1.176.292h-3.819zm3.696 7.236q.549 0 .885-.359.347-.369.347-.963 0-.627-.347-1.019-.336-.392-.885-.392h-2.531v2.733zm-.358-3.752q.481-.012.784-.336.302-.336.302-.852 0-.57-.336-.929t-.885-.359h-2.038v2.476zm5.096 2.251q0 .706.392 1.153.392.438 1.019.437.683-.01 1.109-.437.426-.425.415-1.12v-3.382h1.164v5.858h-1.164v-.852a1.84 1.84 0 0 1-.728.661 2 2 0 0 1-.952.247q-.695 0-1.244-.314a2.3 2.3 0 0 1-.862-.896 2.66 2.66 0 0 1-.314-1.299v-3.405h1.165zm7.878 2.542q-.76 0-1.254-.504-.492-.504-.504-1.299v-3.024h-1.008v-1.019h1.008v-1.602h1.165v1.602h1.254v1.019h-1.254v2.968a.85.85 0 0 0 .168.526q.168.225.425.236.19 0 .359-.034.179-.045.235-.056l.246 1.086a5 5 0 0 1-.84.101m3.903 0q-.762 0-1.255-.504t-.504-1.299v-3.024h-1.008v-1.019h1.008v-1.602h1.165v1.602h1.254v1.019h-1.254v2.968a.85.85 0 0 0 .168.526q.168.225.426.236.19 0 .358-.034.179-.045.235-.056l.247 1.086a5 5 0 0 1-.84.101m4.509-.963q.75 0 1.21-.549.459-.55.459-1.433 0-.885-.459-1.434-.46-.549-1.21-.549-.74 0-1.198.549-.46.549-.46 1.434t.46 1.433q.459.549 1.198.549m-2.822-1.982q0-.863.358-1.535t.997-1.053q.65-.38 1.467-.38.829 0 1.467.38.65.381 1.008 1.053.359.672.359 1.535 0 .85-.359 1.523a2.63 2.63 0 0 1-1.008 1.053q-.638.38-1.467.38a2.85 2.85 0 0 1-1.467-.38 2.65 2.65 0 0 1-.997-1.053 3.2 3.2 0 0 1-.358-1.523m10.85-.336q0-.74-.381-1.176-.37-.448-1.019-.448-.438 0-.796.224a1.5 1.5 0 0 0-.548.582 1.76 1.76 0 0 0-.191.818v3.248h-1.165v-5.858h1.165v.986a2.1 2.1 0 0 1 .739-.695q.47-.28.952-.28.605 0 1.154.28.548.268.896.84.358.572.358 1.434v3.293h-1.164z"/></g><rect width="19.2" height="19.2" x="401.699" y="207.199" fill="#fff" rx="3.2" transform="rotate(180 401.699 207.199)"/><path stroke="#C2C2C2" stroke-linejoin="bevel" stroke-width="1.12" d="m396.1 202.401-4-4.8 4-4.8M392.1 202.401l-4-4.8 4-4.8"/><rect width="19.2" height="19.2" x="420.9" y="207.199" fill="#fff" rx="3.2" transform="rotate(180 420.9 207.199)"/><path stroke="#C2C2C2" stroke-linejoin="bevel" stroke-width="1.12" d="m412.9 202.401-4-4.8 4-4.8"/><path fill="#fff" d="M424.5 192a3.6 3.6 0 0 1 3.6-3.6h11.2a3.6 3.6 0 0 1 3.6 3.6v11.2a3.6 3.6 0 0 1-3.6 3.6h-11.2a3.6 3.6 0 0 1-3.6-3.6z"/><path stroke="#368FF7" stroke-width=".8" d="M424.5 192a3.6 3.6 0 0 1 3.6-3.6h11.2a3.6 3.6 0 0 1 3.6 3.6v11.2a3.6 3.6 0 0 1-3.6 3.6h-11.2a3.6 3.6 0 0 1-3.6-3.6z"/><path fill="#121212" d="M434.475 202.612h-1.126v-8.025l-1.536.96-.538-.909 2.074-1.293h1.126z"/><path fill="#fff" d="M446.5 192a4 4 0 0 1 4-4h11.2a4 4 0 0 1 4 4v11.2a4 4 0 0 1-4 4h-11.2a4 4 0 0 1-4-4z"/><path fill="#6B6B6B" d="M452.88 201.627q-.089.076 1.114-1.037a52 52 0 0 0 1.779-1.677q.678-.691 1.152-1.408t.474-1.331q0-.845-.487-1.382-.473-.538-1.241-.538-.564 0-1.101.384-.525.371-.781.973l-1.011-.435a3.16 3.16 0 0 1 1.178-1.396q.818-.55 1.715-.55.831 0 1.472.384.652.37 1.011 1.037.37.666.371 1.523 0 .845-.525 1.715a9 9 0 0 1-1.267 1.613 40 40 0 0 1-1.894 1.779l-.384.346h4.224v.998h-5.671z"/><path fill="#fff" d="M468.9 192a4 4 0 0 1 4-4h11.2a4 4 0 0 1 4 4v11.2a4 4 0 0 1-4 4h-11.2a4 4 0 0 1-4-4z"/><path fill="#6B6B6B" d="M479.978 197.825q.602.358.948.973.358.601.358 1.203 0 .782-.397 1.395a2.65 2.65 0 0 1-1.075.948q-.692.345-1.587.345a3.56 3.56 0 0 1-1.587-.345 2.7 2.7 0 0 1-1.088-.96 2.67 2.67 0 0 1-.384-1.421h1.126q0 .755.538 1.241.537.487 1.395.487t1.408-.487q.55-.486.55-1.241 0-.73-.55-1.191-.538-.46-1.383-.46h-.678v-.986h.678q.782 0 1.28-.422.513-.423.512-1.088 0-.68-.486-1.114t-1.254-.435q-.769 0-1.255.435-.486.436-.486 1.126h-1.127q0-.742.359-1.318a2.46 2.46 0 0 1 1.024-.909q.653-.333 1.485-.333.819 0 1.472.32a2.41 2.41 0 0 1 1.382 2.202q0 .537-.32 1.101a2.8 2.8 0 0 1-.858.934"/><path fill="#fff" d="M491.301 192a4 4 0 0 1 4-4h11.2a4 4 0 0 1 4 4v11.2a4 4 0 0 1-4 4h-11.2a4 4 0 0 1-4-4z"/><path fill="#6B6B6B" d="M502.852 199.118h1.28v.986h-1.28v2.508h-1.126v-2.508h-4.032l-.128-.986 4.198-5.773h1.088zm-1.126 0v-3.866l-2.803 3.866z"/><path fill="#fff" d="M513.699 192a4 4 0 0 1 4-4h11.2a4 4 0 0 1 4 4v11.2a4 4 0 0 1-4 4h-11.2a4 4 0 0 1-4-4z"/><path fill="#6B6B6B" d="m520.374 198.184.307-4.852h4.787v.999h-3.699l-.166 2.573q.742-.359 1.421-.359.934 0 1.651.397.73.384 1.139 1.088.41.692.41 1.587a3.2 3.2 0 0 1-.41 1.626 2.9 2.9 0 0 1-1.139 1.101q-.717.396-1.651.396a3.2 3.2 0 0 1-1.357-.294 3.2 3.2 0 0 1-1.088-.845 3.2 3.2 0 0 1-.602-1.229l1.101-.256q.153.692.691 1.127.55.435 1.255.435.908 0 1.484-.576.59-.576.589-1.485 0-.883-.589-1.446-.576-.563-1.484-.563a1.86 1.86 0 0 0-.807.204q-.422.205-.717.538z"/><rect width="19.2" height="19.2" x="536.1" y="188" fill="#fff" rx="3.2"/><path stroke="#C2C2C2" stroke-linejoin="bevel" stroke-width="1.12" d="m544.1 192.8 4 4.8-4 4.8"/><rect width="19.2" height="19.2" x="555.299" y="188" fill="#fff" rx="3.2"/><path stroke="#C2C2C2" stroke-linejoin="bevel" stroke-width="1.12" d="m560.898 192.8 4 4.8-4 4.8M564.898 192.8l4 4.8-4 4.8"/><path fill="#232021" d="M52.144 145.497v7.117h-1.113v-3.162h-1.306v2.765h-1.1v-6.503h1.1v2.778h1.306v-2.995zm-9.612 1.293h2.278v-1.204h1.152v1.204h2.24v.934h-5.67zm.448 3.392q0-.871.665-1.396.666-.537 1.74-.537 1.077 0 1.742.537.666.525.665 1.396 0 .882-.665 1.42-.666.525-1.741.525t-1.74-.525q-.667-.537-.666-1.42m1.036 0a.96.96 0 0 0 .372.793q.383.294.998.295.614 0 .998-.295a.95.95 0 0 0 .384-.793.94.94 0 0 0-.384-.781q-.384-.294-.998-.295-.614 0-.998.295-.372.282-.372.781m.602 4.608q0-.96.998-1.472.999-.525 2.79-.525 1.793 0 2.791.525 1.011.512 1.011 1.472 0 .934-1.01 1.446-1 .525-2.791.525-1.793 0-2.79-.525-1-.512-1-1.446m1.152 0q0 .524.678.806.691.282 1.959.282 1.267 0 1.945-.282.68-.282.679-.806 0-.538-.679-.82-.678-.28-1.945-.281-1.267 0-1.959.281-.678.282-.678.82m18.873-6.708v-2.585h1.165v8.422h-1.165v-4.864h-2.368v-.973zm-8.166 3.354a4.2 4.2 0 0 0 2.022-1.549 4.03 4.03 0 0 0 .756-2.368v-1.357h1.164v1.383q0 1.177.73 2.189.73.997 1.958 1.446l-.614.909a4.7 4.7 0 0 1-1.587-1.024 4.8 4.8 0 0 1-1.05-1.575 4.8 4.8 0 0 1-1.075 1.741 4.6 4.6 0 0 1-1.69 1.127zm2.022 1.562h1.165v2.585h6.413v.96h-7.578zm13.876-6.708v.948h-3.239v1.305h3.136v.896h-3.136v1.395a37 37 0 0 0 2.036-.064q.793-.05 1.612-.217l.116.947q-.922.18-1.83.243-.91.051-2.317.051h-.743v-5.504zm-2.906 6.618h7.616v3.878h-1.164v-2.918h-6.452zm4.032-7.206h1.101v2.688h1.37v-2.906h1.113v6.861h-1.113v-2.995h-1.37v2.931h-1.1zm9.191.742v1.92q0 1.024.384 2.022a6.1 6.1 0 0 0 1.05 1.767q.678.768 1.523 1.152l-.691.934q-.96-.461-1.703-1.369a6.9 6.9 0 0 1-1.126-2.1 7 7 0 0 1-1.152 2.24q-.756.96-1.754 1.447l-.704-.96a4.5 4.5 0 0 0 1.536-1.191 6 6 0 0 0 1.075-1.843 6 6 0 0 0 .384-2.099v-1.92zm3.994-.973h1.164v11.328h-1.164zm7.302 1.075v2.701h2.15v-2.701h1.088v7.45h-4.339v-7.45zm2.15 6.49v-2.854h-2.15v2.854zm2.355-7.309h1.101v4.199h1.396v-4.442h1.113v11.29h-1.113v-5.901h-1.396v5.35h-1.1zm13.21 4.122v-1.408h-2.726q-.537 1.344-1.766 2.304t-3.072 1.497l-.461-.921q2.01-.576 3.149-1.613 1.139-1.05 1.28-2.445h-3.84v-.947h5.107q0 .614-.115 1.19h2.444v-2.022h1.165v6.707h-1.165v-1.395h-2.841v-.947zm-6.284 4.685q0-1.037 1.011-1.626 1.01-.59 2.752-.589 1.715 0 2.726.589t1.011 1.626q0 .665-.46 1.164-.462.5-1.306.756-.833.268-1.971.268-1.14 0-1.997-.268-.844-.257-1.306-.756a1.66 1.66 0 0 1-.46-1.164m1.164 0q0 .589.692.934.704.333 1.907.333t1.894-.333q.691-.345.691-.934 0-.615-.691-.948-.678-.345-1.894-.345-1.217 0-1.907.345-.692.333-.692.948M428.693 37.24v-2.714h1.101v6.682h-1.101v-3.034h-1.395v-.934zm-5.734-2.164h4.262v.948h-3.136v1.344h2.688v.908h-2.688v1.447a30 30 0 0 0 1.971-.077 16 16 0 0 0 1.652-.218l.102.935q-.909.18-1.792.243-.883.051-2.33.051h-.729zm1.395 6.733h7.642v3.776h-1.165v-2.829h-6.477zm6.528-7.526h1.114v7.001h-1.114zm8.32.742v.858q0 .909.563 1.753a5.2 5.2 0 0 0 1.511 1.447 5.7 5.7 0 0 0 2.009.78l-.524.96a6.6 6.6 0 0 1-2.496-1.151q-1.14-.845-1.677-2.01-.55 1.178-1.69 2.022a6.3 6.3 0 0 1-2.483 1.14l-.512-.96a5.45 5.45 0 0 0 1.984-.794 5 5 0 0 0 1.51-1.446q.576-.846.576-1.741v-.858zm-5.683 8.09h10.227v.96h-10.227zm20.032-7.898v.947h-6.502v1.562h6.259v.934h-6.259V40.3h6.618v.947h-7.796v-6.029zm-8.972 7.975h10.227v.96h-10.227zm19.789-8.922v4.531h1.74v.973h-1.74v5.798h-1.191V34.27zm-8.704 8.307q4.236-2.15 4.582-6.144h-4.032v-.947h5.21q0 2.56-1.229 4.608t-3.879 3.38zm23.174-1.267v4.122h-7.309V41.31zm-8.678-6.362h1.164v4.199a30 30 0 0 0 2.445-.115q1.14-.103 2.266-.333l.141.985q-1.242.244-2.471.346-1.216.102-2.649.102h-.896zm7.539 9.55v-2.254h-5.043v2.253zm-3.111-8.142h3.085v-2.073h1.165v6.49h-1.165v-3.47h-3.085zm15.271-2.06v5.939h-1.178v-5.94zm-9.114 4.979q1.216-.345 1.984-1.127.768-.793.845-1.766h-2.509v-.947h2.509v-1.229h1.165v1.229h2.47v.947h-2.47q.064.921.832 1.677.768.742 1.984 1.05l-.499.895a5.1 5.1 0 0 1-1.754-.832 3.9 3.9 0 0 1-1.139-1.33 3.9 3.9 0 0 1-1.126 1.446 4.8 4.8 0 0 1-1.754.883zm1.767 1.485h7.347v2.713h-6.182v1.075h6.54v.922h-7.68v-2.842h6.157v-.972h-6.182zm13.21-5.517v1.92q0 1.024.384 2.022a6.2 6.2 0 0 0 1.049 1.767q.679.768 1.524 1.152l-.692.934q-.96-.46-1.702-1.37a6.9 6.9 0 0 1-1.126-2.099 7.1 7.1 0 0 1-1.152 2.24q-.755.96-1.754 1.447l-.704-.96a4.5 4.5 0 0 0 1.536-1.19 6 6 0 0 0 1.075-1.844q.384-1.036.384-2.1v-1.92zm3.993-.973h1.165v11.328h-1.165zm14.611.026v2.368h1.613v.96h-1.613v2.38h-1.177v-5.708zm-8.358.601h5.235v4.557h-5.235zm1.126 5.62h7.232v2.854h-6.054v1.126h6.438v.935h-7.603V42.5h6.067v-1.062h-6.08zm2.97-1.985V35.82h-2.944v2.713zm16.717.41v.947h-4.518V40.9h3.225v2.663h-6.515v1.011h6.848v.896h-7.987v-2.74h6.502v-.946h-6.54V40.9h3.289v-1.01h-4.505v-.948zm-9.677-1.37a7.5 7.5 0 0 0 1.844-.358q.844-.281 1.369-.704.538-.423.653-.922h-3.456v-.934h8.346v.934h-3.469q.115.5.64.922.537.422 1.382.704a7.7 7.7 0 0 0 1.856.358l-.384.884q-1.459-.142-2.585-.64-1.114-.513-1.613-1.306-.5.78-1.626 1.293-1.127.512-2.585.653zm19.802-3.276v6.438h-1.165v-6.438zm-9.037 3.225q0-.767.384-1.37a2.6 2.6 0 0 1 1.063-.934q.678-.345 1.523-.345t1.523.345q.68.333 1.063.935.384.6.384 1.37 0 .767-.384 1.369-.384.601-1.063.947a3.4 3.4 0 0 1-1.523.333 3.4 3.4 0 0 1-1.523-.333 2.67 2.67 0 0 1-1.063-.947 2.5 2.5 0 0 1-.384-1.37m1.14 0q0 .756.512 1.216.511.46 1.318.461.807 0 1.318-.46.513-.462.512-1.217 0-.742-.512-1.203-.511-.474-1.318-.474t-1.318.474q-.513.46-.512 1.203m.563 3.789h7.334v4.122h-7.334zm6.195 3.187v-2.253h-5.056v2.253zm5.696-1.216v-2.547h-1.856V39.8h1.664V36.24h-1.689v-.947h8.422v.947h-1.702V39.8h1.677v.934h-1.869v2.547h2.816v.947h-10.227v-.947zm3.674-3.481V36.24h-2.688V39.8zm-.179 3.481v-2.547h-2.33v2.547zM797.902 115.071v11.328h-1.164v-6.221h-2.484v3.418h-5.248v-7.616h1.165v2.88h2.931v-2.88h1.152v3.251h2.484v-4.16zm-4.8 7.565v-2.855h-2.931v2.855zm16.718-1.332v.948h-10.189v-.948zm-8.896 1.703h1.164v2.189h6.682v.96h-7.846zm.038-7.514h7.629v.909h-6.464v1.062h6.182v.884h-6.182v1.1h6.541v.896h-7.706zm18.758 1.626v-1.831h1.101v5.709h-1.101v-2.931h-1.625v-.947zm-6.246 3.021a3.77 3.77 0 0 0 1.689-1.485q.603-.986.602-2.061v-1.037h1.139v1.088q0 1.012.563 1.882.564.858 1.575 1.28l-.602.883a3.8 3.8 0 0 1-1.293-.883 4.1 4.1 0 0 1-.806-1.319 4.9 4.9 0 0 1-.87 1.511 3.9 3.9 0 0 1-1.344 1.011zm2.073 1.42h7.501v2.74h-6.323v1.036h6.746v.935h-7.898v-2.842h6.336v-.947h-6.362zm6.388-6.464h1.113v5.991h-1.113zm6.285.794q.87 0 1.561.346.692.345 1.076.96.396.601.396 1.382t-.396 1.395a2.6 2.6 0 0 1-1.076.96q-.69.333-1.561.333a3.7 3.7 0 0 1-1.587-.333 2.7 2.7 0 0 1-1.088-.96 2.57 2.57 0 0 1-.384-1.395q0-.781.384-1.382.396-.615 1.088-.96a3.54 3.54 0 0 1 1.587-.346m-3.597 7.104q2.15 0 3.917-.064a32 32 0 0 0 3.392-.32l.089.858a25 25 0 0 1-3.404.409q-1.729.09-3.853.09zm1.677-4.416q0 .742.537 1.216.55.46 1.383.461.819 0 1.357-.461.537-.474.537-1.216 0-.743-.537-1.203-.538-.474-1.357-.474-.832 0-1.383.461-.537.461-.537 1.216m6.336-3.507h1.177v11.328h-1.177zm13.971 4.377v-1.408h-2.727q-.537 1.344-1.766 2.304-1.228.96-3.072 1.498l-.461-.922q2.01-.576 3.149-1.612 1.14-1.05 1.28-2.445h-3.84v-.947h5.107q0 .614-.115 1.19h2.445v-2.022h1.165v6.707h-1.165v-1.395h-2.842v-.948zm-6.285 4.685q0-1.037 1.011-1.625 1.011-.59 2.752-.589 1.716 0 2.727.589 1.011.588 1.011 1.625 0 .666-.461 1.165-.46.5-1.306.755-.831.269-1.971.269-1.139 0-1.997-.269-.845-.255-1.305-.755a1.67 1.67 0 0 1-.461-1.165m1.165 0q0 .589.691.935.704.332 1.907.332t1.895-.332q.69-.346.691-.935 0-.614-.691-.947-.679-.346-1.895-.346t-1.907.346q-.691.333-.691.947m18.253-2.611v.96h-4.57v3.904h-1.152v-3.904h-4.505v-.96zm-9.126-3.507q0-.756.499-1.306.5-.563 1.395-.857.909-.308 2.086-.308 1.19 0 2.087.308.895.294 1.395.857.5.55.499 1.306 0 .755-.499 1.318-.5.564-1.408.871-.896.294-2.074.294t-2.086-.294q-.895-.307-1.395-.871a1.92 1.92 0 0 1-.499-1.318m1.203 0q0 .716.755 1.139.768.422 2.022.422 1.267 0 2.023-.422.768-.422.768-1.139 0-.705-.768-1.127-.756-.422-2.023-.422-1.254 0-2.022.422-.756.422-.755 1.127m-59.943 27.398h-1.127v-8.025l-1.536.96-.537-.909 2.073-1.293h1.127zm11.194-10.329v11.289h-1.139v-5.862h-1.383v5.325h-1.113v-10.458h1.113v4.186h1.383v-4.48zm-9.626 8.064q1.818-1.025 2.701-2.432t1.024-3.226h-3.264v-.96h4.403q0 2.419-.96 4.301-.947 1.87-3.225 3.161zm12.34 2.918h-1.127l2.714-10.496h1.114zm4.2-1.638q-.09.076 1.114-1.037a54 54 0 0 0 1.779-1.677q.678-.691 1.152-1.408t.473-1.331q0-.845-.486-1.383-.474-.537-1.242-.537-.563 0-1.1.384-.526.371-.781.973l-1.011-.436a3.17 3.17 0 0 1 1.177-1.395q.82-.55 1.715-.55.833 0 1.472.384.654.37 1.012 1.037.37.665.371 1.523 0 .845-.525 1.715a9 9 0 0 1-1.267 1.613 40 40 0 0 1-1.895 1.779l-.384.346h4.224v.998h-5.67zm16.402-9.344v11.289h-1.139v-5.862h-1.383v5.325h-1.113v-10.458h1.113v4.186h1.383v-4.48zm-9.626 8.064q1.818-1.025 2.701-2.432t1.024-3.226h-3.264v-.96h4.403q0 2.419-.96 4.301-.947 1.87-3.225 3.161zm15.617.908v-2.022h-3.264v-3.571h6.579v-1.626h-6.605v-.947h7.77v3.494h-6.592v1.703h6.848v.947h-3.572v2.022h4.544v.96h-10.227v-.96zm13.228-8.012v1.92q0 .998.359 1.971a5.9 5.9 0 0 0 .998 1.741q.64.768 1.459 1.177l-.704.922a4.85 4.85 0 0 1-1.6-1.37 6.7 6.7 0 0 1-1.062-2.048 7.5 7.5 0 0 1-1.114 2.189q-.717.96-1.664 1.446l-.704-.947a4.5 4.5 0 0 0 1.485-1.203 6.2 6.2 0 0 0 1.037-1.818 6 6 0 0 0 .371-2.06v-1.92zm3.674-.948h1.178v4.506h1.804v.986h-1.804v5.798h-1.178zm5.991 5.53v-1.536q-.666-.269-1.024-.691a1.54 1.54 0 0 1-.346-.986q0-.998 1.075-1.561 1.076-.564 2.919-.564 1.856 0 2.931.564 1.075.563 1.075 1.561 0 .55-.358.986-.346.422-1.012.691v1.536h2.471v.922h-10.202v-.922zm-1.255 3.725q0-.96 1.024-1.485 1.037-.525 2.855-.525 1.817 0 2.841.525 1.037.525 1.037 1.485t-1.024 1.485q-1.024.537-2.854.537t-2.855-.537q-1.024-.525-1.024-1.485m1.088-6.938q0 .564.743.883.742.32 2.048.32 1.305 0 2.048-.32.755-.32.755-.883 0-.575-.743-.896-.741-.333-2.06-.333-1.306 0-2.048.333-.743.32-.743.896m.09 6.938q0 .55.704.845.704.28 1.997.281 1.28 0 1.984-.281.704-.295.704-.845 0-.538-.704-.819-.705-.295-1.984-.295-1.293 0-1.997.295-.704.28-.704.819m4.185-3.725v-1.229a8.7 8.7 0 0 1-1.484.115q-.794 0-1.472-.115v1.229zm16.032-5.555v4.531h1.741v.973h-1.741v5.798h-1.19v-11.302zm-8.704 8.307q4.237-2.151 4.583-6.144h-4.032v-.947h5.209q0 2.559-1.228 4.608-1.23 2.048-3.879 3.379zm13.569-8.064v2.842h6.528v.947h-7.693v-3.789zm-2.522 5.018h10.202v.947h-10.202zm1.203 3.942q0-.973 1.024-1.51 1.024-.538 2.855-.538 1.817 0 2.841.538 1.037.537 1.037 1.51 0 .986-1.037 1.523-1.024.55-2.841.551-1.818 0-2.855-.551-1.023-.537-1.024-1.523m1.178 0q0 .55.704.858.716.294 1.997.294 1.28 0 1.984-.294.704-.308.704-.858t-.704-.845q-.705-.294-1.984-.294-1.293 0-1.997.294t-.704.845"/><path fill="red" fill-opacity=".1" d="M783 168.801v19.2H127v-19.2z"/><path fill="#6B6B6B" d="M122.039 168.461a.48.48 0 0 0-.679 0l-3.055 3.055a.481.481 0 0 0 .679.679l2.715-2.715 2.716 2.715a.48.48 0 0 0 .678-.679zm-.679 19.879a.48.48 0 0 0 .679 0l3.054-3.055a.48.48 0 0 0 0-.678.48.48 0 0 0-.678 0l-2.716 2.715-2.715-2.715a.48.48 0 1 0-.679.678zm-.141-19.539v19.2h.96v-19.2zM88.218 180.216l1.142-1.053a50 50 0 0 0 1.445-1.344q.549-.538.918-1.098.37-.571.37-1.075 0-.695-.403-1.131-.393-.448-1.02-.448a1.6 1.6 0 0 0-.93.313 1.88 1.88 0 0 0-.66.807l-1.02-.448a2.85 2.85 0 0 1 1.065-1.243q.74-.493 1.545-.493.75 0 1.333.336.594.336.919.941.336.593.336 1.366 0 .762-.46 1.512a7 7 0 0 1-1.097 1.389q-.638.638-1.635 1.489l-.202.18h3.517v1.019H88.33zm10.933-2.117h1.042v1.019h-1.042v2.117h-1.153v-2.117H94.48l-.112-1.019 3.674-5.018h1.108zm-1.153 0v-3.08l-2.24 3.08zm6.452 2.273q.752 0 1.221-.548.471-.56.471-1.456 0-.885-.471-1.434-.47-.549-1.221-.549-.47 0-.873.269a1.9 1.9 0 0 0-.639.728 2.1 2.1 0 0 0-.235.986q0 .548.235 1.008a1.9 1.9 0 0 0 .639.728q.404.268.873.268m-2.923-4.95h1.165v1.008q.303-.504.84-.75.537-.258.986-.258.817 0 1.444.381.64.369.986 1.041.358.662.358 1.524 0 .863-.358 1.545-.347.672-.986 1.053-.627.37-1.444.37-.449 0-.986-.258a2 2 0 0 1-.84-.773v3.483h-1.165zm9.894 2.934 2.161 2.924h-1.444l-1.4-1.983-1.389 1.983h-1.445l2.128-2.924-2.173-2.934h1.456l1.423 2.038 1.411-2.038h1.456zM423.755 245.207v3.193h-1.011v-7.962h2.581q.536.011 1.012.169.481.159.842.46.361.3.569.744.213.442.213 1.017t-.213 1.017a2.14 2.14 0 0 1-.569.738 2.5 2.5 0 0 1-.842.46q-.476.158-1.012.164zm0-.832h1.57q.35-.005.645-.109.296-.11.514-.306.219-.197.339-.476a1.6 1.6 0 0 0 .126-.645q0-.361-.126-.651a1.4 1.4 0 0 0-.333-.492 1.5 1.5 0 0 0-.52-.312 2 2 0 0 0-.645-.115h-1.57zm9.175 4.025a1.2 1.2 0 0 1-.099-.284 4 4 0 0 1-.049-.361 2.7 2.7 0 0 1-.755.531 2.7 2.7 0 0 1-.486.164q-.258.06-.547.06-.47 0-.853-.137a1.9 1.9 0 0 1-.64-.372 1.6 1.6 0 0 1-.416-.547 1.7 1.7 0 0 1-.142-.694q0-.487.191-.853.198-.367.553-.613.355-.24.853-.361.503-.12 1.121-.12h1.105v-.465q0-.268-.099-.481a1.06 1.06 0 0 0-.279-.367 1.3 1.3 0 0 0-.443-.229 1.9 1.9 0 0 0-.579-.082q-.301 0-.542.076-.236.077-.399.203a.9.9 0 0 0-.257.3.8.8 0 0 0-.088.356h-1.017q.006-.323.164-.635.164-.31.471-.563.3-.246.732-.399.438-.153.99-.153.503 0 .935.126.432.12.75.366.31.252.492.623.18.372.18.87v2.751q0 .295.055.629.054.327.153.574v.087zm-1.789-.771q.295 0 .553-.076.257-.077.47-.203.208-.125.361-.284a1.5 1.5 0 0 0 .241-.339v-1.198h-.941q-.525 0-.919.093-.388.088-.618.274a.9.9 0 0 0-.251.311 1 1 0 0 0-.082.411q0 .218.071.404a.84.84 0 0 0 .224.317q.147.138.372.214.224.076.519.076m4.105-2.236q0-.663.159-1.214.164-.558.47-.958t.744-.623a2.14 2.14 0 0 1 .989-.224q.356 0 .651.082a1.9 1.9 0 0 1 1.012.673l.049-.646h.919v5.792q0 .585-.186 1.039-.18.453-.509.771a2.2 2.2 0 0 1-.793.481 3 3 0 0 1-1.017.164q-.23 0-.525-.055a3 3 0 0 1-.596-.169 2.7 2.7 0 0 1-.59-.312 2 2 0 0 1-.482-.487l.525-.607q.186.225.383.378.197.158.399.251.203.093.405.132.203.043.405.043.36 0 .65-.104.291-.103.498-.306.202-.197.312-.492.11-.296.109-.678v-.509a2.1 2.1 0 0 1-.519.432 2 2 0 0 1-.509.192 2.4 2.4 0 0 1-.601.071q-.542 0-.979-.23a2.2 2.2 0 0 1-.739-.634 3 3 0 0 1-.47-.952 4.2 4.2 0 0 1-.164-1.187zm1.012.114q0 .432.087.821.093.388.29.683.192.296.492.471.301.17.722.169.263 0 .47-.06.214-.066.383-.18.165-.115.296-.274a2 2 0 0 0 .229-.35v-2.712a2 2 0 0 0-.229-.339 1.5 1.5 0 0 0-.301-.268 1.4 1.4 0 0 0-.378-.17 1.5 1.5 0 0 0-.459-.066q-.427 0-.733.175-.3.175-.492.471-.197.3-.29.694a3.8 3.8 0 0 0-.087.821zm5.723-3.024h3.024v5.042h1.931v.875h-4.955v-.875h2.013v-4.161h-2.013zm1.881-1.553q0-.13.039-.246a.52.52 0 0 1 .311-.306.7.7 0 0 1 .257-.044q.142 0 .252.044a.5.5 0 0 1 .18.109.5.5 0 0 1 .132.192.7.7 0 0 1 .043.251.58.58 0 0 1-.153.41q-.153.164-.454.164-.306 0-.459-.164a.6.6 0 0 1-.148-.41m4.351 7.47v-5.917h.908l.071.875q.13-.186.284-.339a2.12 2.12 0 0 1 .903-.541q.31-.1.656-.104.465 0 .842.131.382.131.651.41.268.279.41.711.148.427.148 1.017v3.757h-1.012v-3.735q0-.393-.088-.667a1.1 1.1 0 0 0-.257-.443 1 1 0 0 0-.426-.246 1.9 1.9 0 0 0-1.088.005 1.7 1.7 0 0 0-.443.214q-.165.12-.307.279a2 2 0 0 0-.24.35v4.243zm10.279 0a1.2 1.2 0 0 1-.099-.284 4 4 0 0 1-.049-.361 2.8 2.8 0 0 1-.754.531 2.7 2.7 0 0 1-.487.164q-.258.06-.547.06-.47 0-.853-.137a1.9 1.9 0 0 1-.64-.372 1.6 1.6 0 0 1-.416-.547 1.7 1.7 0 0 1-.142-.694q0-.487.192-.853a1.7 1.7 0 0 1 .552-.613q.355-.24.853-.361.503-.12 1.121-.12h1.105v-.465q0-.268-.099-.481a1.04 1.04 0 0 0-.279-.367 1.3 1.3 0 0 0-.443-.229 1.9 1.9 0 0 0-.579-.082q-.301 0-.542.076a1.3 1.3 0 0 0-.399.203.9.9 0 0 0-.257.3.8.8 0 0 0-.087.356h-1.018q.006-.323.165-.635.164-.31.47-.563.3-.246.733-.399a3 3 0 0 1 .989-.153q.504 0 .936.126.431.12.749.366.312.252.492.623.18.372.181.87v2.751q0 .295.054.629.055.327.153.574v.087zm-1.788-.771q.295 0 .552-.076.257-.077.47-.203.208-.125.361-.284a1.5 1.5 0 0 0 .241-.339v-1.198h-.941q-.525 0-.919.093a1.5 1.5 0 0 0-.618.274.9.9 0 0 0-.251.311 1 1 0 0 0-.082.411q0 .218.071.404.077.186.224.317.149.138.372.214.225.076.52.076m6.685-6.579v1.433h2.254v.782h-2.254v3.216q0 .345.088.569a.87.87 0 0 0 .591.546 1.6 1.6 0 0 0 .426.055q.165 0 .339-.016a12 12 0 0 0 .651-.104l.241-.055.142.717a1.5 1.5 0 0 1-.306.136 3 3 0 0 1-.394.093 4 4 0 0 1-.454.066 5 5 0 0 1-.47.022q-.394 0-.739-.11a1.5 1.5 0 0 1-.59-.361 1.7 1.7 0 0 1-.4-.623 2.8 2.8 0 0 1-.142-.935v-3.216h-1.553v-.782h1.553v-1.433zm4.154 1.433h3.025v5.042h1.93v.875h-4.955v-.875h2.013v-4.161h-2.013zm1.882-1.553q0-.13.038-.246a.52.52 0 0 1 .312-.306.7.7 0 0 1 .257-.044q.141 0 .251.044a.5.5 0 0 1 .181.109.5.5 0 0 1 .131.192.7.7 0 0 1 .044.251.57.57 0 0 1-.154.41q-.153.164-.453.164-.307 0-.46-.164a.6.6 0 0 1-.147-.41m4.066 4.457q0-.64.186-1.187.186-.552.536-.957.344-.404.842-.634a2.6 2.6 0 0 1 1.121-.235q.629 0 1.127.235.502.23.853.634.344.405.53.957.186.548.186 1.187v.12q0 .64-.186 1.187a2.9 2.9 0 0 1-.53.952 2.5 2.5 0 0 1-.848.634q-.498.23-1.121.23-.629 0-1.132-.23a2.4 2.4 0 0 1-.842-.634 2.8 2.8 0 0 1-.536-.952 3.7 3.7 0 0 1-.186-1.187zm1.012.12q0 .438.104.837.104.394.317.695.207.3.525.475.316.175.738.175.416 0 .727-.175.318-.175.531-.475.207-.301.312-.695a3.3 3.3 0 0 0 .103-.837v-.12q0-.432-.109-.826a2.2 2.2 0 0 0-.312-.7 1.6 1.6 0 0 0-.53-.475 1.43 1.43 0 0 0-.733-.181q-.421 0-.733.181a1.5 1.5 0 0 0-.519.475 2.1 2.1 0 0 0-.317.7q-.104.394-.104.826zm5.663 2.893v-5.917h.908l.071.875q.13-.186.284-.339a2.128 2.128 0 0 1 .902-.541q.312-.1.657-.104.464 0 .842.131.382.131.651.41.267.279.41.711.148.427.148 1.017v3.757h-1.012v-3.735q0-.393-.088-.667a1.1 1.1 0 0 0-.257-.443 1.03 1.03 0 0 0-.426-.246 1.9 1.9 0 0 0-1.089.005 1.7 1.7 0 0 0-.443.214 2 2 0 0 0-.306.279 2 2 0 0 0-.24.35v4.243z"/><path stroke="#6B6B6B" stroke-dasharray="1.6 1.6" stroke-width=".96" d="M454.5 212.801v20.8M485.699 56v46.4"/><defs><clipPath id="a"><path fill="#fff" d="M675.301 98.4h107.2v35.2h-107.2z"/></clipPath><clipPath id="d"><path fill="#fff" d="M714.5 133.602h68v35.2h-68z"/></clipPath></defs></svg>