<svg width="908" height="174" viewBox="0 0 908 174" fill="none" xmlns="http://www.w3.org/2000/svg">
<g filter="url(#filter0_bd_2495_7213)">
<path d="M82 59C82 54.5817 85.5817 51 90 51H432C436.418 51 440 54.5817 440 59V115C440 119.418 436.418 123 432 123H90C85.5817 123 82 119.418 82 115V59Z" fill="black" fill-opacity="0.6" shape-rendering="crispEdges"/>
<path d="M111.36 77.104V78.304H105.664V83.232H104.224V78.304H98.592V77.104H111.36ZM99.328 74.832C100.181 74.7147 100.976 74.4747 101.712 74.112C102.448 73.7493 103.035 73.3067 103.472 72.784C103.92 72.2507 104.149 71.7013 104.16 71.136H99.776V69.968H110.144V71.136H105.792C105.803 71.7013 106.027 72.2507 106.464 72.784C106.912 73.3067 107.504 73.7493 108.24 74.112C108.976 74.4747 109.771 74.7147 110.624 74.832L110.08 76.016C108.939 75.824 107.909 75.456 106.992 74.912C106.075 74.3573 105.403 73.68 104.976 72.88C104.549 73.68 103.877 74.3573 102.96 74.912C102.043 75.456 101.013 75.824 99.872 76.016L99.328 74.832ZM115.488 80.24V76.512C114.902 76.192 114.443 75.7867 114.112 75.296C113.792 74.7947 113.632 74.2347 113.632 73.616C113.632 72.8907 113.851 72.2507 114.288 71.696C114.736 71.1413 115.35 70.7147 116.128 70.416C116.907 70.1067 117.792 69.952 118.784 69.952C119.787 69.952 120.678 70.1067 121.456 70.416C122.246 70.7147 122.859 71.1413 123.296 71.696C123.734 72.2507 123.952 72.8907 123.952 73.616C123.952 74.2347 123.792 74.7893 123.472 75.28C123.163 75.76 122.72 76.1653 122.144 76.496V80.24H125.2V81.44H112.416V80.24H115.488ZM115.056 73.616C115.056 74.1173 115.211 74.56 115.52 74.944C115.84 75.3173 116.283 75.6107 116.848 75.824C117.414 76.0267 118.059 76.128 118.784 76.128C119.51 76.128 120.155 76.0267 120.72 75.824C121.286 75.6107 121.728 75.3173 122.048 74.944C122.368 74.56 122.528 74.1173 122.528 73.616C122.528 73.1147 122.368 72.6773 122.048 72.304C121.728 71.92 121.286 71.6267 120.72 71.424C120.155 71.2107 119.51 71.104 118.784 71.104C118.059 71.104 117.414 71.2107 116.848 71.424C116.283 71.6267 115.84 71.92 115.52 72.304C115.211 72.6773 115.056 73.1147 115.056 73.616ZM120.672 80.24V77.056C120.118 77.1947 119.488 77.264 118.784 77.264C118.102 77.264 117.483 77.1947 116.928 77.056V80.24H120.672ZM141.688 69.12V78.016H140.296V74.064H138.664V77.52H137.288V69.392H138.664V72.864H140.296V69.12H141.688ZM129.672 70.736H132.52V69.232H133.96V70.736H136.76V71.904H129.672V70.736ZM130.232 74.976C130.232 74.2507 130.51 73.6693 131.064 73.232C131.619 72.784 132.344 72.56 133.24 72.56C134.136 72.56 134.862 72.784 135.416 73.232C135.971 73.6693 136.248 74.2507 136.248 74.976C136.248 75.712 135.971 76.304 135.416 76.752C134.862 77.1893 134.136 77.408 133.24 77.408C132.344 77.408 131.619 77.1893 131.064 76.752C130.51 76.304 130.232 75.712 130.232 74.976ZM131.528 74.976C131.528 75.392 131.683 75.7227 131.992 75.968C132.312 76.2133 132.728 76.336 133.24 76.336C133.752 76.336 134.168 76.2133 134.488 75.968C134.808 75.7227 134.968 75.392 134.968 74.976C134.968 74.5707 134.808 74.2453 134.488 74C134.168 73.7547 133.752 73.632 133.24 73.632C132.728 73.632 132.312 73.7547 131.992 74C131.683 74.2347 131.528 74.56 131.528 74.976ZM132.28 80.736C132.28 79.936 132.696 79.3227 133.528 78.896C134.36 78.4587 135.523 78.24 137.016 78.24C138.51 78.24 139.672 78.4587 140.504 78.896C141.347 79.3227 141.768 79.936 141.768 80.736C141.768 81.5147 141.347 82.1173 140.504 82.544C139.672 82.9813 138.51 83.2 137.016 83.2C135.523 83.2 134.36 82.9813 133.528 82.544C132.696 82.1173 132.28 81.5147 132.28 80.736ZM133.72 80.736C133.72 81.1733 134.003 81.5093 134.568 81.744C135.144 81.9787 135.96 82.096 137.016 82.096C138.072 82.096 138.883 81.9787 139.448 81.744C140.014 81.5093 140.296 81.1733 140.296 80.736C140.296 80.288 140.014 79.9467 139.448 79.712C138.883 79.4773 138.072 79.36 137.016 79.36C135.96 79.36 135.144 79.4773 134.568 79.712C134.003 79.9467 133.72 80.288 133.72 80.736ZM149.241 76V74.496H145.209V69.76H154.777V70.928H146.649V73.312H154.873V74.496H150.697V76H156.361V77.184H143.609V76H149.241ZM145.113 80.672C145.113 79.8613 145.539 79.232 146.393 78.784C147.246 78.336 148.435 78.112 149.961 78.112C151.475 78.112 152.659 78.336 153.513 78.784C154.377 79.232 154.809 79.8613 154.809 80.672C154.809 81.4827 154.377 82.1067 153.513 82.544C152.659 82.992 151.475 83.216 149.961 83.216C148.435 83.216 147.246 82.992 146.393 82.544C145.539 82.1067 145.113 81.4827 145.113 80.672ZM146.585 80.672C146.585 81.1307 146.878 81.4827 147.465 81.728C148.051 81.9733 148.883 82.096 149.961 82.096C151.027 82.096 151.854 81.9733 152.441 81.728C153.027 81.4827 153.321 81.1307 153.321 80.672C153.321 80.2133 153.027 79.8613 152.441 79.616C151.854 79.3707 151.027 79.248 149.961 79.248C148.894 79.248 148.062 79.3707 147.465 79.616C146.878 79.8613 146.585 80.2133 146.585 80.672ZM169.281 70.528V71.744H166.049V73.312C166.049 74.0907 166.209 74.864 166.529 75.632C166.849 76.3893 167.291 77.0667 167.857 77.664C168.422 78.2613 169.057 78.7147 169.761 79.024L168.945 80.176C168.134 79.8133 167.409 79.264 166.769 78.528C166.139 77.7813 165.659 76.9333 165.329 75.984C165.009 77.008 164.534 77.9253 163.905 78.736C163.275 79.536 162.555 80.1333 161.745 80.528L160.913 79.376C161.595 79.0453 162.219 78.5547 162.785 77.904C163.35 77.2533 163.793 76.528 164.113 75.728C164.433 74.9173 164.593 74.112 164.593 73.312V71.744H161.377V70.528H169.281ZM171.041 69.12H172.497V83.232H171.041V69.12ZM179.873 70.304V72.704C179.873 73.5573 180.033 74.4 180.353 75.232C180.673 76.0533 181.11 76.7893 181.665 77.44C182.23 78.08 182.865 78.56 183.569 78.88L182.705 80.048C181.905 79.664 181.196 79.0933 180.577 78.336C179.969 77.568 179.5 76.6933 179.169 75.712C178.838 76.768 178.358 77.7013 177.729 78.512C177.1 79.312 176.369 79.9147 175.537 80.32L174.657 79.12C175.372 78.7893 176.012 78.2933 176.577 77.632C177.153 76.96 177.601 76.192 177.921 75.328C178.241 74.464 178.401 73.5893 178.401 72.704V70.304H179.873ZM184.865 69.088H186.321V83.248H184.865V69.088ZM199.505 69.12V74.848H201.745V76.064H199.505V83.232H198.049V69.12H199.505ZM188.513 71.328H191.969V69.296H193.457V71.328H196.833V72.512H188.513V71.328ZM189.265 76.864C189.265 76.2347 189.415 75.6747 189.713 75.184C190.012 74.6827 190.423 74.2933 190.945 74.016C191.479 73.7387 192.071 73.6 192.721 73.6C193.383 73.6 193.975 73.7387 194.497 74.016C195.031 74.2933 195.447 74.6827 195.745 75.184C196.044 75.6747 196.193 76.2347 196.193 76.864C196.193 77.4933 196.044 78.0587 195.745 78.56C195.447 79.0507 195.031 79.4347 194.497 79.712C193.975 79.9893 193.383 80.128 192.721 80.128C192.071 80.128 191.479 79.9893 190.945 79.712C190.423 79.4347 190.012 79.0507 189.713 78.56C189.415 78.0587 189.265 77.4933 189.265 76.864ZM190.657 76.864C190.657 77.472 190.849 77.968 191.233 78.352C191.617 78.736 192.113 78.928 192.721 78.928C193.329 78.928 193.825 78.736 194.209 78.352C194.604 77.968 194.801 77.472 194.801 76.864C194.801 76.256 194.604 75.76 194.209 75.376C193.825 74.992 193.329 74.8 192.721 74.8C192.124 74.8 191.628 74.992 191.233 75.376C190.849 75.76 190.657 76.256 190.657 76.864ZM214.034 69.104V83.216H212.562V69.104H214.034ZM202.546 79.488C204.391 78.6027 205.788 77.52 206.738 76.24C207.687 74.96 208.236 73.4773 208.386 71.792H203.218V70.608H209.858C209.858 72.7947 209.34 74.736 208.306 76.432C207.271 78.128 205.607 79.5307 203.314 80.64L202.546 79.488Z" fill="white"/>
<path d="M103.46 103.46V100.898H99.806V94.57H101.08V96.698H107.128V94.57H108.402V100.898H104.734V103.46H109.704V104.524H98.518V103.46H103.46ZM107.128 99.876V97.734H101.08V99.876H107.128ZM115.57 103.46V100.534H116.844V103.46H121.8V104.51H110.614V103.46H115.57ZM111.146 99.974C111.893 99.8527 112.602 99.596 113.274 99.204C113.956 98.8027 114.502 98.3173 114.912 97.748C115.323 97.1787 115.528 96.586 115.528 95.97V95.844H111.552V94.808H120.848V95.844H116.872V95.97C116.872 96.586 117.078 97.1787 117.488 97.748C117.908 98.308 118.459 98.784 119.14 99.176C119.822 99.5587 120.55 99.8107 121.324 99.932L120.806 100.94C119.798 100.744 118.879 100.366 118.048 99.806C117.218 99.246 116.606 98.5693 116.214 97.776C115.822 98.5787 115.211 99.2647 114.38 99.834C113.559 100.394 112.654 100.777 111.664 100.982L111.146 99.974ZM134.715 95.858V93.73H135.989V100.072H134.715V96.908H132.125V95.858H134.715ZM125.769 99.106C126.712 98.798 127.454 98.294 127.995 97.594C128.537 96.8847 128.807 96.0867 128.807 95.2V94.108H130.081V95.2C130.081 95.7227 130.203 96.2267 130.445 96.712C130.688 97.1973 131.033 97.6267 131.481 98C131.929 98.3733 132.447 98.658 133.035 98.854L132.377 99.834C131.715 99.6007 131.131 99.26 130.627 98.812C130.133 98.364 129.75 97.8413 129.479 97.244C129.209 97.916 128.812 98.4993 128.289 98.994C127.767 99.4887 127.151 99.8573 126.441 100.1L125.769 99.106ZM127.995 100.674H135.989V103.726H129.269V104.902H136.423V105.91H128.009V102.774H134.729V101.682H127.995V100.674ZM148.086 93.73V101.01H146.812V99.162H144.124V100.184H138.454V94.64H144.124V95.662H146.812V93.73H148.086ZM142.878 99.162V95.662H139.7V99.162H142.878ZM139.854 103.712C139.854 102.975 140.222 102.401 140.96 101.99C141.697 101.57 142.71 101.36 143.998 101.36C145.286 101.36 146.298 101.57 147.036 101.99C147.773 102.401 148.142 102.975 148.142 103.712C148.142 104.459 147.773 105.033 147.036 105.434C146.298 105.845 145.286 106.05 143.998 106.05C142.71 106.05 141.697 105.845 140.96 105.434C140.222 105.033 139.854 104.459 139.854 103.712ZM141.128 103.712C141.128 104.141 141.38 104.473 141.884 104.706C142.388 104.939 143.092 105.056 143.998 105.056C144.903 105.056 145.608 104.939 146.112 104.706C146.616 104.473 146.868 104.141 146.868 103.712C146.868 103.283 146.616 102.951 146.112 102.718C145.608 102.485 144.903 102.368 143.998 102.368C143.092 102.368 142.388 102.485 141.884 102.718C141.38 102.951 141.128 103.283 141.128 103.712ZM146.812 98.126V96.712H144.124V98.126H146.812ZM161.98 96.88V93.73H163.254V101.094H161.98V97.93H159.698V96.88H161.98ZM153.076 99.918C153.692 99.7033 154.229 99.3907 154.686 98.98C155.153 98.5693 155.512 98.1027 155.764 97.58C156.016 97.048 156.142 96.4973 156.142 95.928V95.564H153.468V94.528H160.076V95.564H157.43V95.928C157.43 96.7213 157.696 97.4633 158.228 98.154C158.76 98.8353 159.479 99.3347 160.384 99.652L159.74 100.66C159.068 100.417 158.48 100.063 157.976 99.596C157.472 99.12 157.085 98.5693 156.814 97.944C156.544 98.6347 156.142 99.2413 155.61 99.764C155.078 100.287 154.453 100.674 153.734 100.926L153.076 99.918ZM154.98 101.738H163.254V106.078H161.98V102.788H154.98V101.738ZM175.337 93.716V106.064H174.049V93.716H175.337ZM165.285 102.802C166.899 102.027 168.122 101.08 168.953 99.96C169.783 98.84 170.264 97.5427 170.395 96.068H165.873V95.032H171.683C171.683 96.9453 171.23 98.644 170.325 100.128C169.419 101.612 167.963 102.839 165.957 103.81L165.285 102.802Z" fill="#C2C2C2"/>
<path d="M411.5 93L416.5 87L411.5 81" stroke="#C2C2C2" stroke-width="1.4" stroke-linejoin="bevel"/>
</g>
<g filter="url(#filter1_bd_2495_7213)">
<path d="M467 57C467 52.5817 470.582 49 475 49H817C821.418 49 825 52.5817 825 57V117C825 121.418 821.418 125 817 125H475C470.582 125 467 121.418 467 117V57Z" fill="black" fill-opacity="0.6" shape-rendering="crispEdges"/>
<path d="M489.496 68.688V72.384H491.4V67.408H492.776V80.528H491.4V73.584H489.496V77.488H484.088V68.688H489.496ZM488.136 76.352V69.856H485.448V76.352H488.136ZM494.216 67.104H495.608V81.216H494.216V67.104ZM509.016 67.12V77.376H507.544V67.12H509.016ZM497.704 71.584C497.704 70.912 497.864 70.3093 498.184 69.776C498.515 69.2427 498.963 68.8267 499.528 68.528C500.094 68.2293 500.723 68.08 501.416 68.08C502.11 68.08 502.739 68.2293 503.304 68.528C503.87 68.8267 504.312 69.2427 504.632 69.776C504.963 70.3093 505.128 70.912 505.128 71.584C505.128 72.2453 504.963 72.8427 504.632 73.376C504.312 73.9093 503.87 74.3253 503.304 74.624C502.739 74.9227 502.11 75.072 501.416 75.072C500.723 75.072 500.094 74.9227 499.528 74.624C498.963 74.3253 498.515 73.9093 498.184 73.376C497.864 72.8427 497.704 72.2453 497.704 71.584ZM499.128 71.584C499.128 72.2347 499.347 72.768 499.784 73.184C500.222 73.5893 500.766 73.792 501.416 73.792C502.078 73.792 502.627 73.5893 503.064 73.184C503.502 72.768 503.72 72.2347 503.72 71.584C503.72 70.9227 503.502 70.384 503.064 69.968C502.627 69.552 502.078 69.344 501.416 69.344C500.755 69.344 500.206 69.552 499.768 69.968C499.342 70.384 499.128 70.9227 499.128 71.584ZM499.88 76.336H501.336V79.728H509.432V80.928H499.88V76.336ZM522.56 70.8V67.408H523.936V75.76H522.56V71.968H520.816V70.8H522.56ZM515.392 68.096H520.72V69.28H516.8V70.96H520.16V72.096H516.8V73.904C517.771 73.8933 518.592 73.8613 519.264 73.808C519.947 73.7547 520.635 73.664 521.328 73.536L521.456 74.704C520.699 74.8533 519.952 74.9547 519.216 75.008C518.48 75.0507 517.51 75.072 516.304 75.072H515.392V68.096ZM517.136 76.512H526.688V81.232H525.232V77.696H517.136V76.512ZM525.296 67.104H526.688V75.856H525.296V67.104ZM535.697 68.032V69.104C535.697 69.8613 535.931 70.592 536.401 71.296C536.881 72 537.51 72.6027 538.289 73.104C539.078 73.5947 539.915 73.92 540.801 74.08L540.145 75.28C539.014 75.024 537.974 74.544 537.025 73.84C536.075 73.136 535.377 72.2987 534.929 71.328C534.47 72.3093 533.766 73.152 532.817 73.856C531.878 74.56 530.843 75.0347 529.713 75.28L529.073 74.08C529.947 73.92 530.774 73.5893 531.553 73.088C532.342 72.5867 532.971 71.984 533.441 71.28C533.921 70.576 534.161 69.8507 534.161 69.104V68.032H535.697ZM528.593 78.144H541.377V79.344H528.593V78.144ZM553.633 68.272V69.456H545.505V71.408H553.329V72.576H545.505V74.624H553.777V75.808H544.033V68.272H553.633ZM542.417 78.24H555.201V79.44H542.417V78.24ZM563.345 68.352V74.96H556.801V68.352H563.345ZM561.921 73.776V69.52H558.241V73.776H561.921ZM558.385 76.448H559.841V79.728H567.841V80.928H558.385V76.448ZM565.777 67.104H567.249V71.344H569.265V72.56H567.249V77.44H565.777V67.104ZM578.425 68.304V70.704C578.425 71.536 578.575 72.3573 578.873 73.168C579.172 73.9787 579.588 74.704 580.121 75.344C580.655 75.984 581.263 76.4747 581.945 76.816L581.065 77.968C580.308 77.5733 579.641 77.0027 579.065 76.256C578.489 75.5093 578.047 74.656 577.737 73.696C577.407 74.72 576.943 75.632 576.345 76.432C575.748 77.232 575.055 77.8347 574.265 78.24L573.385 77.056C574.079 76.7147 574.697 76.2133 575.241 75.552C575.796 74.88 576.228 74.1227 576.537 73.28C576.847 72.4267 577.001 71.568 577.001 70.704V68.304H578.425ZM583.017 67.12H584.489V72.752H586.745V73.984H584.489V81.232H583.017V67.12ZM590.506 74.032V72.112C589.951 71.888 589.524 71.6 589.226 71.248C588.938 70.8853 588.794 70.4747 588.794 70.016C588.794 69.184 589.242 68.5333 590.138 68.064C591.034 67.5947 592.25 67.36 593.786 67.36C595.332 67.36 596.554 67.5947 597.45 68.064C598.346 68.5333 598.794 69.184 598.794 70.016C598.794 70.4747 598.644 70.8853 598.346 71.248C598.058 71.6 597.636 71.888 597.082 72.112V74.032H600.17V75.184H587.418V74.032H590.506ZM588.938 78.688C588.938 77.888 589.364 77.2693 590.218 76.832C591.082 76.3947 592.271 76.176 593.786 76.176C595.3 76.176 596.484 76.3947 597.338 76.832C598.202 77.2693 598.634 77.888 598.634 78.688C598.634 79.488 598.207 80.1067 597.354 80.544C596.5 80.992 595.311 81.216 593.786 81.216C592.26 81.216 591.071 80.992 590.218 80.544C589.364 80.1067 588.938 79.488 588.938 78.688ZM590.298 70.016C590.298 70.4853 590.607 70.8533 591.226 71.12C591.844 71.3867 592.698 71.52 593.786 71.52C594.874 71.52 595.727 71.3867 596.346 71.12C596.975 70.8533 597.29 70.4853 597.29 70.016C597.29 69.536 596.98 69.1627 596.362 68.896C595.743 68.6187 594.884 68.48 593.786 68.48C592.698 68.48 591.844 68.6187 591.226 68.896C590.607 69.1627 590.298 69.536 590.298 70.016ZM590.41 78.688C590.41 79.1467 590.703 79.4987 591.29 79.744C591.876 79.9787 592.708 80.096 593.786 80.096C594.852 80.096 595.679 79.9787 596.266 79.744C596.852 79.4987 597.146 79.1467 597.146 78.688C597.146 78.24 596.852 77.8987 596.266 77.664C595.679 77.4187 594.852 77.296 593.786 77.296C592.708 77.296 591.876 77.4187 591.29 77.664C590.703 77.8987 590.41 78.24 590.41 78.688ZM595.642 74.032V72.496C595.087 72.592 594.468 72.64 593.786 72.64C593.124 72.64 592.511 72.592 591.946 72.496V74.032H595.642ZM606.346 68.304V70.704C606.346 71.5573 606.506 72.4 606.826 73.232C607.146 74.0533 607.583 74.7893 608.138 75.44C608.703 76.08 609.338 76.56 610.042 76.88L609.178 78.048C608.378 77.664 607.669 77.0933 607.05 76.336C606.442 75.568 605.973 74.6933 605.642 73.712C605.311 74.768 604.831 75.7013 604.202 76.512C603.573 77.312 602.842 77.9147 602.01 78.32L601.13 77.12C601.845 76.7893 602.485 76.2933 603.05 75.632C603.626 74.96 604.074 74.192 604.394 73.328C604.714 72.464 604.874 71.5893 604.874 70.704V68.304H606.346ZM611.338 67.088H612.794V81.248H611.338V67.088ZM494.616 93.92V95.12H486.792V98.32H494.792V99.504H485.32V93.92H494.616ZM483.592 101.216H496.376V102.432H490.664V107.2H489.224V102.432H483.592V101.216ZM513.696 98.928V100.112H508.048V101.376H512.08V104.704H503.936V105.968H512.496V107.088H502.512V103.664H510.64V102.48H502.464V101.376H506.576V100.112H500.944V98.928H513.696ZM501.6 97.216C502.443 97.152 503.211 97.0027 503.904 96.768C504.608 96.5333 505.179 96.24 505.616 95.888C506.064 95.536 506.336 95.152 506.432 94.736H502.112V93.568H512.544V94.736H508.208C508.304 95.152 508.571 95.536 509.008 95.888C509.456 96.24 510.032 96.5333 510.736 96.768C511.44 97.0027 512.213 97.152 513.056 97.216L512.576 98.32C511.36 98.2027 510.283 97.936 509.344 97.52C508.416 97.0933 507.744 96.5493 507.328 95.888C506.912 96.5387 506.235 97.0773 505.296 97.504C504.357 97.9307 503.28 98.2027 502.064 98.32L501.6 97.216ZM525.872 93.104V98.848H527.936V100.064H525.872V107.216H524.432V93.104H525.872ZM514.656 103.264C515.638 102.24 516.358 101.12 516.816 99.904C517.275 98.6773 517.536 97.312 517.6 95.808H515.152V94.608H518.976C518.976 96.56 518.742 98.3093 518.272 99.856C517.814 101.403 516.992 102.821 515.808 104.112L514.656 103.264ZM518.672 104.208C519.643 103.056 520.336 101.787 520.752 100.4C521.168 99.0133 521.408 97.4827 521.472 95.808H519.44V94.608H522.848C522.848 96.72 522.64 98.6347 522.224 100.352C521.808 102.059 521.014 103.616 519.84 105.024L518.672 104.208ZM536.929 94.528V95.744H533.697V97.312C533.697 98.0907 533.857 98.864 534.177 99.632C534.497 100.389 534.939 101.067 535.505 101.664C536.07 102.261 536.705 102.715 537.409 103.024L536.593 104.176C535.782 103.813 535.057 103.264 534.417 102.528C533.787 101.781 533.307 100.933 532.977 99.984C532.657 101.008 532.182 101.925 531.553 102.736C530.923 103.536 530.203 104.133 529.393 104.528L528.561 103.376C529.243 103.045 529.867 102.555 530.433 101.904C530.998 101.253 531.441 100.528 531.761 99.728C532.081 98.9173 532.241 98.112 532.241 97.312V95.744H529.025V94.528H536.929ZM538.689 93.12H540.145V107.232H538.689V93.12ZM557.561 93.104V107.216H556.089V93.104H557.561ZM546.073 103.488C547.918 102.603 549.315 101.52 550.265 100.24C551.214 98.96 551.763 97.4773 551.913 95.792H546.745V94.608H553.385C553.385 96.7947 552.867 98.736 551.833 100.432C550.798 102.128 549.134 103.531 546.841 104.64L546.073 103.488ZM571.833 93.104V107.216H570.441V99.952H568.745V106.528H567.369V93.408H568.745V98.736H570.441V93.104H571.833ZM559.577 103.248C560.569 102.683 561.316 101.84 561.817 100.72C562.329 99.6 562.585 98.3093 562.585 96.848V95.92H559.945V94.72H566.457V95.92H563.993V96.848C563.993 98.1813 564.244 99.376 564.745 100.432C565.257 101.477 565.998 102.245 566.969 102.736L566.105 103.872C564.793 103.147 563.865 101.925 563.321 100.208C563.076 101.147 562.713 101.973 562.233 102.688C561.764 103.392 561.182 103.957 560.489 104.384L559.577 103.248ZM588.033 93.088V98.752H590.209V99.968H588.033V107.216H586.545V93.088H588.033ZM577.153 103.472C580.683 101.68 582.593 99.12 582.881 95.792H577.841V94.608H584.353C584.353 96.7413 583.841 98.6613 582.817 100.368C581.793 102.075 580.177 103.483 577.969 104.592L577.153 103.472ZM594.113 93.392V96.944H602.273V98.128H592.657V93.392H594.113ZM590.961 99.664H603.713V100.848H590.961V99.664ZM592.465 104.592C592.465 103.781 592.892 103.152 593.745 102.704C594.598 102.256 595.788 102.032 597.313 102.032C598.828 102.032 600.012 102.256 600.865 102.704C601.729 103.152 602.161 103.781 602.161 104.592C602.161 105.413 601.729 106.048 600.865 106.496C600.012 106.955 598.828 107.184 597.313 107.184C595.798 107.184 594.609 106.955 593.745 106.496C592.892 106.048 592.465 105.413 592.465 104.592ZM593.937 104.592C593.937 105.051 594.23 105.408 594.817 105.664C595.414 105.909 596.246 106.032 597.313 106.032C598.38 106.032 599.206 105.909 599.793 105.664C600.38 105.408 600.673 105.051 600.673 104.592C600.673 104.133 600.38 103.781 599.793 103.536C599.206 103.291 598.38 103.168 597.313 103.168C596.236 103.168 595.404 103.291 594.817 103.536C594.23 103.781 593.937 104.133 593.937 104.592Z" fill="white"/>
</g>
<defs>
<filter id="filter0_bd_2495_7213" x="52" y="21" width="418" height="132" filterUnits="userSpaceOnUse" color-interpolation-filters="sRGB">
<feFlood flood-opacity="0" result="BackgroundImageFix"/>
<feGaussianBlur in="BackgroundImageFix" stdDeviation="15"/>
<feComposite in2="SourceAlpha" operator="in" result="effect1_backgroundBlur_2495_7213"/>
<feColorMatrix in="SourceAlpha" type="matrix" values="0 0 0 0 0 0 0 0 0 0 0 0 0 0 0 0 0 0 127 0" result="hardAlpha"/>
<feOffset dy="4"/>
<feGaussianBlur stdDeviation="4"/>
<feComposite in2="hardAlpha" operator="out"/>
<feColorMatrix type="matrix" values="0 0 0 0 0 0 0 0 0 0 0 0 0 0 0 0 0 0 0.2 0"/>
<feBlend mode="normal" in2="effect1_backgroundBlur_2495_7213" result="effect2_dropShadow_2495_7213"/>
<feBlend mode="normal" in="SourceGraphic" in2="effect2_dropShadow_2495_7213" result="shape"/>
</filter>
<filter id="filter1_bd_2495_7213" x="437" y="19" width="418" height="136" filterUnits="userSpaceOnUse" color-interpolation-filters="sRGB">
<feFlood flood-opacity="0" result="BackgroundImageFix"/>
<feGaussianBlur in="BackgroundImageFix" stdDeviation="15"/>
<feComposite in2="SourceAlpha" operator="in" result="effect1_backgroundBlur_2495_7213"/>
<feColorMatrix in="SourceAlpha" type="matrix" values="0 0 0 0 0 0 0 0 0 0 0 0 0 0 0 0 0 0 127 0" result="hardAlpha"/>
<feOffset dy="4"/>
<feGaussianBlur stdDeviation="4"/>
<feComposite in2="hardAlpha" operator="out"/>
<feColorMatrix type="matrix" values="0 0 0 0 0 0 0 0 0 0 0 0 0 0 0 0 0 0 0.2 0"/>
<feBlend mode="normal" in2="effect1_backgroundBlur_2495_7213" result="effect2_dropShadow_2495_7213"/>
<feBlend mode="normal" in="SourceGraphic" in2="effect2_dropShadow_2495_7213" result="shape"/>
</filter>
</defs>
</svg>
