<svg width="390" height="149" viewBox="0 0 390 149" fill="none" xmlns="http://www.w3.org/2000/svg">
<rect width="390" height="149" fill="white"/>
<path d="M15.5757 91.5757C15.3414 91.8101 15.3414 92.1899 15.5757 92.4243L19.3941 96.2426C19.6284 96.477 20.0083 96.477 20.2426 96.2426C20.477 96.0083 20.477 95.6284 20.2426 95.3941L16.8485 92L20.2426 88.6059C20.477 88.3716 20.477 87.9917 20.2426 87.7574C20.0083 87.523 19.6284 87.523 19.3941 87.7574L15.5757 91.5757ZM374.424 92.4243C374.659 92.1899 374.659 91.8101 374.424 91.5757L370.606 87.7574C370.372 87.523 369.992 87.523 369.757 87.7574C369.523 87.9917 369.523 88.3716 369.757 88.6059L373.151 92L369.757 95.3941C369.523 95.6284 369.523 96.0083 369.757 96.2426C369.992 96.477 370.372 96.477 370.606 96.2426L374.424 92.4243ZM16 92.6H374V91.4H16V92.6Z" fill="#6B6B6B"/>
<path d="M193.418 106.054H187.804V109.302H192.522V110.562H187.804V115.098H186.348V104.794H193.418V106.054ZM196.442 107.818V115.098H194.986V107.818H196.442ZM194.888 105.438C194.888 105.195 194.963 104.999 195.112 104.85C195.271 104.691 195.472 104.612 195.714 104.612C195.957 104.612 196.153 104.691 196.302 104.85C196.461 104.999 196.54 105.195 196.54 105.438C196.54 105.671 196.461 105.867 196.302 106.026C196.153 106.185 195.957 106.264 195.714 106.264C195.472 106.264 195.271 106.189 195.112 106.04C194.963 105.881 194.888 105.681 194.888 105.438ZM199.701 104.794V115.098H198.245V104.794H199.701ZM202.843 104.794V115.098H201.387V104.794H202.843Z" fill="#6B6B6B"/>
<g filter="url(#filter0_bd_2495_7238)">
<path d="M16 39C16 34.5817 19.5817 31 24 31H366C370.418 31 374 34.5817 374 39V73C374 77.4183 370.418 81 366 81H24C19.5817 81 16 77.4183 16 73V39Z" fill="black" fill-opacity="0.6" shape-rendering="crispEdges"/>
<path d="M41.552 51.632H38V62.064H36.592V51.632H33.024V50.384H41.552V51.632ZM47.7428 57.392C47.6681 56.7093 47.4441 56.1387 47.0708 55.68C46.7081 55.2107 46.1588 54.976 45.4228 54.976C44.7508 54.976 44.1748 55.2053 43.6948 55.664C43.2254 56.112 42.9428 56.6933 42.8468 57.408L47.7428 57.392ZM41.4548 57.936C41.4548 57.1253 41.6201 56.4053 41.9508 55.776C42.2814 55.1467 42.7454 54.656 43.3428 54.304C43.9401 53.952 44.6174 53.776 45.3748 53.776C46.9641 53.776 48.1001 54.5227 48.7828 56.016C49.0068 56.6133 49.1188 57.248 49.1188 57.92C49.1188 58.1013 49.1134 58.2507 49.1028 58.368C49.0921 58.4747 49.0868 58.5333 49.0868 58.544H42.8468C42.9534 59.2373 43.2414 59.8027 43.7108 60.24C44.1908 60.6773 44.7508 60.896 45.3908 60.896C45.9028 60.896 46.3241 60.816 46.6548 60.656C46.9961 60.496 47.2308 60.3413 47.3588 60.192C47.4974 60.032 47.6201 59.872 47.7268 59.712L48.8468 60.288C48.6014 60.7893 48.1801 61.216 47.5828 61.568C46.9961 61.92 46.2601 62.096 45.3748 62.096C44.6174 62.096 43.9401 61.92 43.3428 61.568C42.7454 61.216 42.2814 60.7253 41.9508 60.096C41.6201 59.4667 41.4548 58.7467 41.4548 57.936ZM54.6661 57.936L57.7541 62.064H56.0101L53.8821 59.12L51.7861 62.064H50.0261L53.0821 57.936L49.9941 53.792H51.7701L53.8821 56.784L56.0101 53.792H57.7701L54.6661 57.936ZM62.2314 62.096C61.5487 62.096 60.9887 61.872 60.5514 61.424C60.114 60.976 59.8847 60.4 59.8634 59.696V55.072H58.4874V53.84H59.8634V51.648H61.2714V53.84H63.0474V55.072H61.2714V59.6C61.2714 59.92 61.362 60.1973 61.5434 60.432C61.7247 60.6667 61.954 60.784 62.2314 60.784C62.3914 60.784 62.5354 60.7733 62.6634 60.752C62.7914 60.7307 62.9194 60.704 63.0474 60.672L63.3034 61.968C62.898 62.0533 62.5407 62.096 62.2314 62.096Z" fill="white"/>
</g>
<defs>
<filter id="filter0_bd_2495_7238" x="-14" y="1" width="418" height="110" filterUnits="userSpaceOnUse" color-interpolation-filters="sRGB">
<feFlood flood-opacity="0" result="BackgroundImageFix"/>
<feGaussianBlur in="BackgroundImageFix" stdDeviation="15"/>
<feComposite in2="SourceAlpha" operator="in" result="effect1_backgroundBlur_2495_7238"/>
<feColorMatrix in="SourceAlpha" type="matrix" values="0 0 0 0 0 0 0 0 0 0 0 0 0 0 0 0 0 0 127 0" result="hardAlpha"/>
<feOffset dy="4"/>
<feGaussianBlur stdDeviation="4"/>
<feComposite in2="hardAlpha" operator="out"/>
<feColorMatrix type="matrix" values="0 0 0 0 0 0 0 0 0 0 0 0 0 0 0 0 0 0 0.2 0"/>
<feBlend mode="normal" in2="effect1_backgroundBlur_2495_7238" result="effect2_dropShadow_2495_7238"/>
<feBlend mode="normal" in="SourceGraphic" in2="effect2_dropShadow_2495_7238" result="shape"/>
</filter>
</defs>
</svg>
