<svg width="880" height="135" viewBox="0 0 880 135" fill="none" xmlns="http://www.w3.org/2000/svg">
<g clip-path="url(#clip0_2495_7226)">
<rect width="880" height="135" fill="white"/>
<mask id="path-1-inside-1_2495_7226" fill="white">
<path d="M0 0H880V43.2H0V0Z"/>
</mask>
<path d="M0 0H880V43.2H0V0Z" fill="white"/>
<path d="M880 42.4H0V44H880V42.4Z" fill="#C2C2C2" mask="url(#path-1-inside-1_2495_7226)"/>
<g clip-path="url(#clip1_2495_7226)">
<path d="M53.1557 22.0483L59.5144 18.3225C61.0067 17.4526 61.5258 15.5159 60.6661 13.9895C59.8063 12.4631 57.8922 11.9542 56.3837 12.8241L45.3857 19.2416L53.1557 22.0483Z" fill="#EA4335"/>
<path d="M57.9407 31.6004C59.0275 31.6004 60.0819 31.0259 60.6496 30.0083C61.5094 28.4983 61.0065 26.5615 59.4979 25.6752L48.5 19.2577C47.0077 18.3878 45.0936 18.8966 44.2176 20.4231C43.3579 21.9331 43.8608 23.8698 45.3693 24.7561L56.3673 31.1736C56.8701 31.4526 57.4216 31.6004 57.9407 31.6004Z" fill="#4285F4"/>
<path d="M68.8898 31.6017C69.4251 31.6017 69.9604 31.4704 70.4471 31.1749L81.445 24.7574L73.7886 21.918L67.3326 25.693C65.8402 26.5629 65.3212 28.4996 66.1809 30.026C66.7486 31.0272 67.803 31.6017 68.8898 31.6017Z" fill="#FBBC04"/>
<path d="M79.8717 25.166C80.9586 25.166 82.0129 24.5915 82.5807 23.5903C83.4404 22.0803 82.9375 20.1436 81.429 19.2573L70.4473 12.8398C68.9549 11.9699 67.0408 12.4787 66.1649 14.0051C65.3052 15.5151 65.808 17.4518 67.3166 18.3381L78.3145 24.7556C78.8012 25.0347 79.3365 25.166 79.8717 25.166Z" fill="#0F9D58"/>
</g>
<path d="M95.9914 21.212H101.607C101.639 21.34 101.666 21.4947 101.687 21.676C101.709 21.8573 101.719 22.0387 101.719 22.22C101.719 22.956 101.607 23.6493 101.383 24.3C101.159 24.9507 100.807 25.532 100.327 26.044C99.8154 26.588 99.2021 27.0093 98.4874 27.308C97.7727 27.6067 96.9567 27.756 96.0394 27.756C95.2074 27.756 94.4234 27.6067 93.6874 27.308C92.9514 27.0093 92.3114 26.5933 91.7674 26.06C91.2234 25.5267 90.7914 24.8973 90.4714 24.172C90.1514 23.436 89.9914 22.636 89.9914 21.772C89.9914 20.908 90.1514 20.1133 90.4714 19.388C90.7914 18.652 91.2234 18.0173 91.7674 17.484C92.3114 16.9507 92.9514 16.5347 93.6874 16.236C94.4234 15.9373 95.2074 15.788 96.0394 15.788C96.9674 15.788 97.7941 15.948 98.5194 16.268C99.2554 16.588 99.8847 17.0307 100.407 17.596L98.9194 19.052C98.5461 18.6573 98.1301 18.3587 97.6714 18.156C97.2127 17.9427 96.6634 17.836 96.0234 17.836C95.5007 17.836 95.0047 17.932 94.5354 18.124C94.0661 18.3053 93.6554 18.5667 93.3034 18.908C92.9514 19.2493 92.6687 19.6653 92.4554 20.156C92.2527 20.636 92.1514 21.1747 92.1514 21.772C92.1514 22.3693 92.2527 22.9133 92.4554 23.404C92.6687 23.884 92.9514 24.2947 93.3034 24.636C93.6661 24.9773 94.0821 25.244 94.5514 25.436C95.0207 25.6173 95.5221 25.708 96.0554 25.708C96.6634 25.708 97.1754 25.6227 97.5914 25.452C98.0181 25.2707 98.3807 25.0413 98.6794 24.764C98.8927 24.572 99.0741 24.332 99.2234 24.044C99.3834 23.7453 99.5061 23.4147 99.5914 23.052H95.9914V21.212ZM103.505 16.044H107.377C108.283 16.044 109.099 16.1827 109.825 16.46C110.55 16.7373 111.169 17.132 111.681 17.644C112.193 18.1453 112.582 18.748 112.849 19.452C113.126 20.156 113.265 20.9293 113.265 21.772C113.265 22.6253 113.126 23.404 112.849 24.108C112.582 24.812 112.193 25.4147 111.681 25.916C111.169 26.4173 110.55 26.8067 109.825 27.084C109.099 27.3613 108.283 27.5 107.377 27.5H103.505V16.044ZM107.281 25.452C107.91 25.452 108.465 25.3667 108.945 25.196C109.425 25.0147 109.825 24.764 110.145 24.444C110.465 24.124 110.705 23.74 110.865 23.292C111.025 22.8333 111.105 22.3267 111.105 21.772C111.105 21.2173 111.025 20.716 110.865 20.268C110.705 19.8093 110.465 19.42 110.145 19.1C109.825 18.78 109.425 18.5347 108.945 18.364C108.465 18.1827 107.91 18.092 107.281 18.092H105.665V25.452H107.281ZM118.509 27.756C118.018 27.756 117.549 27.6867 117.101 27.548C116.653 27.4093 116.242 27.2013 115.869 26.924C115.495 26.6467 115.17 26.3107 114.893 25.916C114.615 25.5107 114.397 25.0413 114.237 24.508L116.269 23.708C116.418 24.284 116.679 24.764 117.053 25.148C117.426 25.5213 117.917 25.708 118.525 25.708C118.749 25.708 118.962 25.6813 119.165 25.628C119.378 25.564 119.565 25.4787 119.725 25.372C119.895 25.2547 120.029 25.1107 120.125 24.94C120.221 24.7693 120.269 24.572 120.269 24.348C120.269 24.1347 120.231 23.9427 120.157 23.772C120.082 23.6013 119.954 23.4413 119.773 23.292C119.602 23.1427 119.373 22.9987 119.085 22.86C118.807 22.7213 118.461 22.5773 118.045 22.428L117.341 22.172C117.031 22.0653 116.717 21.9213 116.397 21.74C116.087 21.5587 115.805 21.34 115.549 21.084C115.293 20.828 115.079 20.5293 114.909 20.188C114.749 19.836 114.669 19.4413 114.669 19.004C114.669 18.556 114.754 18.14 114.925 17.756C115.106 17.3613 115.357 17.02 115.677 16.732C116.007 16.4333 116.397 16.204 116.845 16.044C117.303 15.8733 117.81 15.788 118.365 15.788C118.941 15.788 119.437 15.868 119.853 16.028C120.279 16.1773 120.637 16.3747 120.925 16.62C121.223 16.8547 121.463 17.116 121.645 17.404C121.826 17.692 121.959 17.964 122.045 18.22L120.141 19.02C120.034 18.7 119.837 18.412 119.549 18.156C119.271 17.9 118.887 17.772 118.397 17.772C117.927 17.772 117.538 17.884 117.229 18.108C116.919 18.3213 116.765 18.604 116.765 18.956C116.765 19.2973 116.914 19.5907 117.213 19.836C117.511 20.0707 117.986 20.3 118.637 20.524L119.357 20.764C119.815 20.924 120.231 21.1107 120.605 21.324C120.989 21.5267 121.314 21.772 121.581 22.06C121.858 22.348 122.066 22.6787 122.205 23.052C122.354 23.4147 122.429 23.836 122.429 24.316C122.429 24.9133 122.306 25.4307 122.061 25.868C121.826 26.2947 121.522 26.6467 121.149 26.924C120.775 27.2013 120.354 27.4093 119.885 27.548C119.415 27.6867 118.957 27.756 118.509 27.756ZM134.224 25.66C133.658 26.3427 132.992 26.8653 132.224 27.228C131.456 27.58 130.597 27.756 129.648 27.756C128.794 27.756 128 27.6013 127.264 27.292C126.538 26.9827 125.909 26.5613 125.376 26.028C124.842 25.4947 124.421 24.8653 124.112 24.14C123.802 23.404 123.648 22.6147 123.648 21.772C123.648 20.9293 123.802 20.1453 124.112 19.42C124.421 18.684 124.842 18.0493 125.376 17.516C125.909 16.9827 126.538 16.5613 127.264 16.252C128 15.9427 128.794 15.788 129.648 15.788C130.565 15.788 131.37 15.948 132.064 16.268C132.768 16.588 133.392 17.052 133.936 17.66L132.416 19.132C132.074 18.7373 131.68 18.4227 131.232 18.188C130.794 17.9533 130.272 17.836 129.664 17.836C129.13 17.836 128.629 17.932 128.16 18.124C127.69 18.3053 127.28 18.5667 126.928 18.908C126.586 19.2493 126.314 19.6653 126.112 20.156C125.909 20.636 125.808 21.1747 125.808 21.772C125.808 22.3693 125.909 22.9133 126.112 23.404C126.314 23.884 126.586 24.2947 126.928 24.636C127.28 24.9773 127.69 25.244 128.16 25.436C128.629 25.6173 129.13 25.708 129.664 25.708C130.304 25.708 130.869 25.58 131.36 25.324C131.861 25.0573 132.304 24.684 132.688 24.204L134.224 25.66Z" fill="#121212"/>
<path d="M143.637 26H142.606V17.9808H143.637V21.4192H147.646V17.9808H148.677V26H147.646V22.3824H143.637V26ZM149.792 23.256C149.792 22.4123 150.057 21.7141 150.587 21.1616C151.124 20.6091 151.8 20.3328 152.614 20.3328C153.428 20.3328 154.1 20.6091 154.63 21.1616C155.168 21.7141 155.436 22.4123 155.436 23.256C155.436 24.1072 155.168 24.8053 154.63 25.3504C154.1 25.9029 153.428 26.1792 152.614 26.1792C151.8 26.1792 151.124 25.9029 150.587 25.3504C150.057 24.7979 149.792 24.0997 149.792 23.256ZM150.822 23.256C150.822 23.8459 150.994 24.3237 151.337 24.6896C151.681 25.0555 152.106 25.2384 152.614 25.2384C153.122 25.2384 153.547 25.0555 153.891 24.6896C154.234 24.3237 154.406 23.8459 154.406 23.256C154.406 22.6736 154.234 22.1995 153.891 21.8336C153.54 21.4603 153.114 21.2736 152.614 21.2736C152.114 21.2736 151.688 21.4603 151.337 21.8336C150.994 22.1995 150.822 22.6736 150.822 23.256ZM156.263 20.512H157.249V21.2736H157.293C157.45 21.0048 157.689 20.7808 158.01 20.6016C158.339 20.4224 158.678 20.3328 159.029 20.3328C159.701 20.3328 160.217 20.5269 160.575 20.9152C160.941 21.296 161.124 21.8411 161.124 22.5504V26H160.093V22.6176C160.071 21.7216 159.619 21.2736 158.738 21.2736C158.327 21.2736 157.984 21.4416 157.708 21.7776C157.431 22.1061 157.293 22.5019 157.293 22.9648V26H156.263V20.512ZM164.743 25.2384C165.25 25.2384 165.665 25.0555 165.986 24.6896C166.322 24.3237 166.49 23.8459 166.49 23.256C166.49 22.6811 166.322 22.2069 165.986 21.8336C165.657 21.4603 165.243 21.2736 164.743 21.2736C164.25 21.2736 163.835 21.4603 163.499 21.8336C163.163 22.2069 162.995 22.6811 162.995 23.256C162.995 23.8384 163.163 24.3125 163.499 24.6784C163.835 25.0517 164.25 25.2384 164.743 25.2384ZM164.709 28.5984C164.403 28.5984 164.115 28.5573 163.847 28.4752C163.578 28.4005 163.331 28.2923 163.107 28.1504C162.891 28.0085 162.704 27.8405 162.547 27.6464C162.391 27.4523 162.271 27.2357 162.189 26.9968L163.163 26.5936C163.275 26.9147 163.47 27.1723 163.746 27.3664C164.022 27.5605 164.343 27.6576 164.709 27.6576C165.269 27.6576 165.706 27.4896 166.019 27.1536C166.333 26.8176 166.49 26.3547 166.49 25.7648V25.2384H166.445C166.251 25.5296 165.986 25.7611 165.65 25.9328C165.321 26.0971 164.963 26.1792 164.575 26.1792C163.858 26.1792 163.242 25.8992 162.727 25.3392C162.219 24.7643 161.965 24.0699 161.965 23.256C161.965 22.4421 162.219 21.7515 162.727 21.184C163.242 20.6165 163.858 20.3328 164.575 20.3328C164.963 20.3328 165.321 20.4187 165.65 20.5904C165.986 20.7547 166.251 20.9824 166.445 21.2736H166.49V20.512H167.475V25.7648C167.475 26.6459 167.225 27.3365 166.725 27.8368C166.217 28.3445 165.545 28.5984 164.709 28.5984ZM170.064 18.6192C170.064 18.8208 169.994 18.9925 169.852 19.1344C169.71 19.2763 169.538 19.3472 169.336 19.3472C169.135 19.3472 168.963 19.2763 168.821 19.1344C168.679 18.9925 168.608 18.8208 168.608 18.6192C168.608 18.4176 168.679 18.2459 168.821 18.104C168.963 17.9621 169.135 17.8912 169.336 17.8912C169.538 17.8912 169.71 17.9621 169.852 18.104C169.994 18.2459 170.064 18.4176 170.064 18.6192ZM169.852 20.512V26H168.821V20.512H169.852ZM176.02 26H174.777L173.063 23.4128L172.223 24.2416V26H171.193V17.9808H172.223V22.92L174.597 20.512H175.919V20.5568L173.78 22.6848L176.02 25.9552V26ZM181.817 26.1792C180.928 26.1792 180.212 25.888 179.666 25.3056C179.121 24.7307 178.849 23.9691 178.849 23.0208V17.9808H179.879V23.0656C179.879 23.7227 180.051 24.2416 180.394 24.6224C180.738 25.0032 181.212 25.1936 181.817 25.1936C182.422 25.1936 182.896 25.0032 183.239 24.6224C183.583 24.2416 183.754 23.7227 183.754 23.0656V17.9808H184.785V23.0208C184.785 23.9915 184.516 24.7605 183.978 25.328C183.441 25.8955 182.72 26.1792 181.817 26.1792ZM186.035 20.512H187.02V21.2736H187.065C187.222 21.0048 187.461 20.7808 187.782 20.6016C188.111 20.4224 188.45 20.3328 188.801 20.3328C189.473 20.3328 189.988 20.5269 190.347 20.9152C190.713 21.296 190.896 21.8411 190.896 22.5504V26H189.865V22.6176C189.843 21.7216 189.391 21.2736 188.51 21.2736C188.099 21.2736 187.756 21.4416 187.48 21.7776C187.203 22.1061 187.065 22.5019 187.065 22.9648V26H186.035V20.512ZM193.438 18.6192C193.438 18.8208 193.367 18.9925 193.225 19.1344C193.083 19.2763 192.912 19.3472 192.71 19.3472C192.508 19.3472 192.337 19.2763 192.195 19.1344C192.053 18.9925 191.982 18.8208 191.982 18.6192C191.982 18.4176 192.053 18.2459 192.195 18.104C192.337 17.9621 192.508 17.8912 192.71 17.8912C192.912 17.8912 193.083 17.9621 193.225 18.104C193.367 18.2459 193.438 18.4176 193.438 18.6192ZM193.225 20.512V26H192.195V20.512H193.225ZM197.232 26H196.201L193.984 20.512H195.104L196.716 24.768H196.739L198.374 20.512H199.472L197.232 26ZM201.02 25.3056C201.02 25.5147 200.945 25.6939 200.796 25.8432C200.654 25.9925 200.475 26.0672 200.258 26.0672C200.049 26.0672 199.87 25.9925 199.721 25.8432C199.571 25.6939 199.497 25.5147 199.497 25.3056C199.497 25.0891 199.571 24.9099 199.721 24.768C199.87 24.6187 200.049 24.544 200.258 24.544C200.475 24.544 200.654 24.6187 200.796 24.768C200.945 24.9099 201.02 25.0891 201.02 25.3056Z" fill="#368FF7"/>
<mask id="path-9-inside-2_2495_7226" fill="white">
<path d="M729.9 22.0004C729.9 13.6609 736.661 6.90039 745 6.90039H819.8C828.14 6.90039 834.9 13.6609 834.9 22.0004C834.9 30.3399 828.14 37.1004 819.8 37.1004H745C736.661 37.1004 729.9 30.3399 729.9 22.0004Z"/>
</mask>
<path d="M729.9 22.0004C729.9 13.6609 736.661 6.90039 745 6.90039H819.8C828.14 6.90039 834.9 13.6609 834.9 22.0004C834.9 30.3399 828.14 37.1004 819.8 37.1004H745C736.661 37.1004 729.9 30.3399 729.9 22.0004Z" fill="white"/>
<path d="M745 7.70039H819.8V6.10039H745V7.70039ZM819.8 36.3004H745V37.9004H819.8V36.3004ZM745 36.3004C737.103 36.3004 730.7 29.8981 730.7 22.0004H729.1C729.1 30.7817 736.219 37.9004 745 37.9004V36.3004ZM834.1 22.0004C834.1 29.8981 827.698 36.3004 819.8 36.3004V37.9004C828.582 37.9004 835.7 30.7817 835.7 22.0004H834.1ZM819.8 7.70039C827.698 7.70039 834.1 14.1027 834.1 22.0004H835.7C835.7 13.2191 828.582 6.10039 819.8 6.10039V7.70039ZM745 6.10039C736.219 6.10039 729.1 13.2191 729.1 22.0004H730.7C730.7 14.1027 737.103 7.70039 745 7.70039V6.10039Z" fill="#C2C2C2" mask="url(#path-9-inside-2_2495_7226)"/>
<path d="M750.408 25.2568V23.5992H747.586V20.3512H753.287V19.0744H747.575V18.1112H754.474V21.3032H748.784V22.636H754.698V23.5992H751.607V25.2568H755.527V26.2312H746.511V25.2568H750.408ZM764.05 18.4024V19.5112C764.05 20.4072 764.028 21.2024 763.983 21.8968C763.946 22.5912 763.845 23.4013 763.681 24.3272L762.471 24.2152C762.643 23.3491 762.747 22.5725 762.785 21.8856C762.829 21.1912 762.852 20.3997 762.852 19.5112V19.3656H757.14V18.4024H764.05ZM756.188 25.044H765.193V26.0296H756.188V25.044ZM774.086 17.4504V24.6408H772.876V17.4504H774.086ZM766.044 20.5976C766.044 20.1197 766.16 19.6904 766.391 19.3096C766.623 18.9288 766.94 18.6339 767.343 18.4248C767.754 18.2083 768.206 18.1 768.698 18.1C769.199 18.1 769.65 18.2083 770.054 18.4248C770.457 18.6339 770.774 18.9288 771.006 19.3096C771.237 19.6904 771.353 20.1197 771.353 20.5976C771.353 21.068 771.237 21.4936 771.006 21.8744C770.774 22.2552 770.457 22.5539 770.054 22.7704C769.65 22.9795 769.199 23.084 768.698 23.084C768.206 23.084 767.754 22.9795 767.343 22.7704C766.94 22.5539 766.623 22.2552 766.391 21.8744C766.16 21.4936 766.044 21.068 766.044 20.5976ZM767.22 20.5976C767.22 21.0307 767.358 21.3779 767.634 21.6392C767.918 21.9005 768.273 22.0312 768.698 22.0312C769.124 22.0312 769.479 21.9005 769.762 21.6392C770.046 21.3704 770.188 21.0232 770.188 20.5976C770.188 20.1571 770.046 19.8061 769.762 19.5448C769.479 19.276 769.124 19.1416 768.698 19.1416C768.273 19.1416 767.918 19.276 767.634 19.5448C767.358 19.8061 767.22 20.1571 767.22 20.5976ZM767.567 23.924H768.766V26.2312H774.366V27.2056H767.567V23.924ZM776.841 27.1272H775.676L778.073 17.8536H779.227L776.841 27.1272ZM787.971 17.428V21.3368H789.449V22.3336H787.971V27.3848H786.761V17.428H787.971ZM780.198 24.6744C781.4 24.0621 782.326 23.3267 782.975 22.468C783.633 21.6019 784.021 20.5976 784.14 19.4552H780.713V18.4808H785.361C785.361 21.7288 783.868 24.0995 780.881 25.5928L780.198 24.6744ZM798.118 17.4392V22.7816H796.92V17.4392H798.118ZM790.088 20.1944C790.088 19.7464 790.2 19.3507 790.424 19.0072C790.655 18.6563 790.973 18.3837 791.376 18.1896C791.779 17.988 792.234 17.8872 792.742 17.8872C793.242 17.8872 793.694 17.988 794.097 18.1896C794.501 18.3837 794.818 18.6563 795.049 19.0072C795.281 19.3507 795.397 19.7464 795.397 20.1944C795.397 20.6424 795.281 21.0456 795.049 21.404C794.825 21.7549 794.508 22.0312 794.097 22.2328C793.694 22.4269 793.242 22.524 792.742 22.524C792.234 22.524 791.779 22.4269 791.376 22.2328C790.973 22.0312 790.655 21.7549 790.424 21.404C790.2 21.0531 790.088 20.6499 790.088 20.1944ZM791.264 20.1944C791.264 20.5976 791.402 20.9224 791.678 21.1688C791.954 21.4077 792.309 21.5272 792.742 21.5272C793.175 21.5272 793.53 21.4077 793.806 21.1688C794.082 20.9224 794.221 20.5976 794.221 20.1944C794.221 19.7987 794.082 19.4813 793.806 19.2424C793.53 18.996 793.175 18.8728 792.742 18.8728C792.309 18.8728 791.954 18.996 791.678 19.2424C791.402 19.4813 791.264 19.7987 791.264 20.1944ZM791.6 23.252H792.787V24.2936H796.931V23.252H798.118V27.2728H791.6V23.252ZM796.931 26.3096V25.2232H792.787V26.3096H796.931ZM807.336 17.4392V21.4152H808.848V22.412H807.336V27.396H806.126V17.4392H807.336ZM799.53 18.9624H801.87V17.5848H803.091V18.9624H805.376V19.9256H799.53V18.9624ZM800 22.9384C800 22.4904 800.108 22.0909 800.325 21.74C800.541 21.3816 800.836 21.1053 801.21 20.9112C801.59 20.7096 802.016 20.6088 802.486 20.6088C802.957 20.6088 803.379 20.7096 803.752 20.9112C804.133 21.1053 804.428 21.3816 804.637 21.74C804.853 22.0909 804.962 22.4904 804.962 22.9384C804.962 23.3939 804.853 23.8008 804.637 24.1592C804.428 24.5101 804.133 24.7864 803.752 24.988C803.379 25.1821 802.957 25.2792 802.486 25.2792C802.016 25.2792 801.59 25.1821 801.21 24.988C800.836 24.7864 800.541 24.5064 800.325 24.148C800.108 23.7896 800 23.3864 800 22.9384ZM801.154 22.9384C801.154 23.3491 801.277 23.6776 801.523 23.924C801.77 24.1704 802.091 24.2936 802.486 24.2936C802.875 24.2936 803.192 24.1704 803.438 23.924C803.685 23.6776 803.808 23.3491 803.808 22.9384C803.808 22.5352 803.685 22.2104 803.438 21.964C803.192 21.7176 802.875 21.5944 802.486 21.5944C802.091 21.5944 801.77 21.7176 801.523 21.964C801.277 22.2104 801.154 22.5352 801.154 22.9384ZM817.495 17.4392V27.396H816.285V17.4392H817.495ZM809.319 24.6856C810.595 24.0659 811.555 23.3304 812.197 22.4792C812.839 21.6205 813.212 20.6088 813.317 19.444H809.823V18.4808H814.549C814.549 20.0712 814.194 21.4637 813.485 22.6584C812.776 23.8456 811.6 24.8387 809.957 25.6376L809.319 24.6856Z" fill="#121212"/>
<g filter="url(#filter0_bd_2495_7226)">
<path d="M314 70.4004C314 65.9821 317.582 62.4004 322 62.4004H558.8C563.218 62.4004 566.8 65.9821 566.8 70.4004V93.6004C566.8 98.0187 563.218 101.6 558.8 101.6H322C317.582 101.6 314 98.0187 314 93.6004V70.4004Z" fill="black" fill-opacity="0.6" shape-rendering="crispEdges"/>
<path d="M334.441 78.7056H331.6V87.0512H330.473V78.7056H327.619V77.7072H334.441V78.7056ZM339.394 83.3136C339.334 82.7675 339.155 82.3109 338.856 81.944C338.566 81.5685 338.127 81.3808 337.538 81.3808C337 81.3808 336.54 81.5643 336.156 81.9312C335.78 82.2896 335.554 82.7547 335.477 83.3264L339.394 83.3136ZM334.364 83.7488C334.364 83.1003 334.496 82.5243 334.76 82.0208C335.025 81.5173 335.396 81.1248 335.874 80.8432C336.352 80.5616 336.894 80.4208 337.5 80.4208C338.771 80.4208 339.68 81.0181 340.226 82.2128C340.405 82.6907 340.495 83.1984 340.495 83.736C340.495 83.8811 340.491 84.0005 340.482 84.0944C340.473 84.1797 340.469 84.2267 340.469 84.2352H335.477C335.563 84.7899 335.793 85.2421 336.168 85.592C336.552 85.9419 337 86.1168 337.512 86.1168C337.922 86.1168 338.259 86.0528 338.524 85.9248C338.797 85.7968 338.984 85.6731 339.087 85.5536C339.198 85.4256 339.296 85.2976 339.381 85.1696L340.277 85.6304C340.081 86.0315 339.744 86.3728 339.266 86.6544C338.797 86.936 338.208 87.0768 337.5 87.0768C336.894 87.0768 336.352 86.936 335.874 86.6544C335.396 86.3728 335.025 85.9803 334.76 85.4768C334.496 84.9733 334.364 84.3973 334.364 83.7488ZM344.933 83.7488L347.403 87.0512H346.008L344.306 84.696L342.629 87.0512H341.221L343.666 83.7488L341.195 80.4336H342.616L344.306 82.8272L346.008 80.4336H347.416L344.933 83.7488ZM350.985 87.0768C350.439 87.0768 349.991 86.8976 349.641 86.5392C349.291 86.1808 349.108 85.72 349.091 85.1568V81.4576H347.99V80.472H349.091V78.7184H350.217V80.472H351.638V81.4576H350.217V85.08C350.217 85.336 350.289 85.5579 350.435 85.7456C350.58 85.9333 350.763 86.0272 350.985 86.0272C351.113 86.0272 351.228 86.0187 351.331 86.0016C351.433 85.9845 351.535 85.9632 351.638 85.9376L351.843 86.9744C351.518 87.0427 351.232 87.0768 350.985 87.0768Z" fill="white"/>
</g>
<rect x="566.402" y="43.1992" width="19.2" height="252.8" transform="rotate(90 566.402 43.1992)" fill="#FF0000" fill-opacity="0.1"/>
<path d="M309.14 42.8598C308.953 42.6724 308.649 42.6724 308.461 42.8598L305.407 45.9145C305.219 46.102 305.219 46.4059 305.407 46.5933C305.594 46.7808 305.898 46.7808 306.085 46.5933L308.801 43.878L311.516 46.5933C311.704 46.7808 312.007 46.7808 312.195 46.5933C312.382 46.4059 312.382 46.102 312.195 45.9145L309.14 42.8598ZM308.461 62.7386C308.649 62.9261 308.953 62.9261 309.14 62.7386L312.195 59.6839C312.382 59.4965 312.382 59.1926 312.195 59.0051C312.007 58.8177 311.704 58.8177 311.516 59.0051L308.801 61.7204L306.085 59.0051C305.898 58.8177 305.594 58.8177 305.407 59.0051C305.219 59.1926 305.219 59.4965 305.407 59.6839L308.461 62.7386ZM308.321 43.1992L308.321 62.3992L309.281 62.3992L309.281 43.1992L308.321 43.1992Z" fill="#6B6B6B"/>
<path d="M275.323 54.614C275.428 54.5169 275.808 54.166 276.465 53.5612C277.07 53.0161 277.552 52.5681 277.91 52.2172C278.276 51.8588 278.582 51.4929 278.829 51.1196C279.075 50.7388 279.198 50.3804 279.198 50.0444C279.198 49.5815 279.064 49.2044 278.795 48.9132C278.534 48.6145 278.194 48.4652 277.776 48.4652C277.455 48.4652 277.145 48.5697 276.846 48.7788C276.548 48.9879 276.327 49.2567 276.185 49.5852L275.166 49.1372C275.39 48.6295 275.745 48.2151 276.23 47.894C276.723 47.5655 277.238 47.4012 277.776 47.4012C278.276 47.4012 278.72 47.5132 279.109 47.7372C279.504 47.9612 279.811 48.2748 280.027 48.678C280.251 49.0737 280.363 49.5292 280.363 50.0444C280.363 50.5521 280.21 51.0561 279.904 51.5564C279.605 52.0567 279.239 52.5196 278.806 52.9452C278.381 53.3708 277.836 53.8673 277.171 54.4348L276.969 54.614H280.486V55.6332H275.435L275.323 54.614ZM286.257 52.4972H287.298V53.5164H286.257V55.6332H285.103V53.5164H281.586L281.474 52.4972L285.148 47.4796H286.257V52.4972ZM285.103 52.4972V49.4172L282.863 52.4972H285.103ZM291.556 54.7708C292.056 54.7708 292.463 54.5879 292.777 54.222C293.09 53.8487 293.247 53.3633 293.247 52.766C293.247 52.1761 293.09 51.6983 292.777 51.3324C292.463 50.9665 292.056 50.7836 291.556 50.7836C291.242 50.7836 290.951 50.8732 290.682 51.0524C290.414 51.2316 290.201 51.4743 290.044 51.7804C289.887 52.0791 289.809 52.4076 289.809 52.766C289.809 53.1319 289.887 53.4679 290.044 53.774C290.201 54.0801 290.414 54.3228 290.682 54.502C290.951 54.6812 291.242 54.7708 291.556 54.7708ZM288.633 49.8204H289.798V50.8284C289.999 50.4924 290.279 50.2423 290.638 50.078C290.996 49.9063 291.324 49.8204 291.623 49.8204C292.168 49.8204 292.65 49.9473 293.068 50.2012C293.494 50.4476 293.822 50.7948 294.054 51.2428C294.292 51.6833 294.412 52.1911 294.412 52.766C294.412 53.3409 294.292 53.8561 294.054 54.3116C293.822 54.7596 293.494 55.1105 293.068 55.3644C292.65 55.6108 292.168 55.734 291.623 55.734C291.324 55.734 290.996 55.6481 290.638 55.4764C290.279 55.2972 289.999 55.0396 289.798 54.7036V58.1868H288.633V49.8204ZM298.526 52.7548L300.688 55.678H299.243L297.843 53.6956L296.454 55.678H295.009L297.137 52.7548L294.965 49.8204H296.421L297.843 51.8588L299.254 49.8204H300.71L298.526 52.7548Z" fill="#6B6B6B"/>
</g>
<defs>
<filter id="filter0_bd_2495_7226" x="284" y="32.4004" width="312.8" height="99.1992" filterUnits="userSpaceOnUse" color-interpolation-filters="sRGB">
<feFlood flood-opacity="0" result="BackgroundImageFix"/>
<feGaussianBlur in="BackgroundImageFix" stdDeviation="15"/>
<feComposite in2="SourceAlpha" operator="in" result="effect1_backgroundBlur_2495_7226"/>
<feColorMatrix in="SourceAlpha" type="matrix" values="0 0 0 0 0 0 0 0 0 0 0 0 0 0 0 0 0 0 127 0" result="hardAlpha"/>
<feOffset dy="4"/>
<feGaussianBlur stdDeviation="4"/>
<feComposite in2="hardAlpha" operator="out"/>
<feColorMatrix type="matrix" values="0 0 0 0 0 0 0 0 0 0 0 0 0 0 0 0 0 0 0.2 0"/>
<feBlend mode="normal" in2="effect1_backgroundBlur_2495_7226" result="effect2_dropShadow_2495_7226"/>
<feBlend mode="normal" in="SourceGraphic" in2="effect2_dropShadow_2495_7226" result="shape"/>
</filter>
<clipPath id="clip0_2495_7226">
<rect width="880" height="135" fill="white"/>
</clipPath>
<clipPath id="clip1_2495_7226">
<rect width="39.2" height="19.2" fill="white" transform="translate(43.7998 12.4004)"/>
</clipPath>
</defs>
</svg>
