<svg xmlns="http://www.w3.org/2000/svg" width="49" height="24" fill="none" viewBox="0 0 49 24"><g clip-path="url(#a)"><path fill="#EA4335" d="m11.695 12.06 7.948-4.658c1.866-1.087 2.514-3.508 1.44-5.416A3.89 3.89 0 0 0 15.73.529L1.982 8.551z"/><path fill="#4285F4" d="M17.676 24a3.87 3.87 0 0 0 3.387-1.99 3.994 3.994 0 0 0-1.44-5.417L5.875 8.571C4.01 7.484 1.617 8.121.523 10.028a3.994 3.994 0 0 0 1.44 5.416l13.747 8.022a4.1 4.1 0 0 0 1.966.534"/><path fill="#FBBC04" d="M31.363 24a3.7 3.7 0 0 0 1.947-.534l13.747-8.021-9.57-3.55-8.07 4.719c-1.866 1.087-2.515 3.508-1.44 5.416A3.9 3.9 0 0 0 31.363 24"/><path fill="#0F9D58" d="M45.09 15.957a3.9 3.9 0 0 0 3.386-1.97 3.994 3.994 0 0 0-1.44-5.416L33.31.55C31.444-.538 29.051.1 27.956 2.006a3.994 3.994 0 0 0 1.44 5.416l13.747 8.022a3.9 3.9 0 0 0 1.947.513"/></g><defs><clipPath id="a"><path fill="#fff" d="M0 0h49v24H0z"/></clipPath></defs></svg>