<svg width="912" height="266" viewBox="0 0 912 266" fill="none" xmlns="http://www.w3.org/2000/svg">
<rect width="912" height="266" fill="white"/>
<path d="M851.4 67.0001L61 67" stroke="#E1E1E1" stroke-width="0.96" stroke-linecap="round" stroke-linejoin="round"/>
<path d="M784 148H128" stroke="#E1E1E1" stroke-width="0.96" stroke-linecap="round" stroke-linejoin="round"/>
<path d="M716.799 230H195.199" stroke="#E1E1E1" stroke-width="0.96" stroke-linecap="round" stroke-linejoin="round"/>
<rect x="384.5" y="52.5" width="143" height="29" rx="14.5" fill="white"/>
<rect x="384.5" y="52.5" width="143" height="29" rx="14.5" stroke="#6B6B6B"/>
<path d="M400.636 72.042L399.18 72.028V63.418L397.402 64.426L396.786 63.208L399.194 61.864H400.636V72.042ZM402.765 70.768C402.895 70.6467 403.371 70.208 404.193 69.452C404.949 68.7707 405.551 68.2107 405.999 67.772C406.456 67.324 406.839 66.8667 407.147 66.4C407.455 65.924 407.609 65.476 407.609 65.056C407.609 64.4773 407.441 64.006 407.105 63.642C406.778 63.2687 406.353 63.082 405.831 63.082C405.429 63.082 405.042 63.2127 404.669 63.474C404.295 63.7353 404.02 64.0713 403.843 64.482L402.569 63.922C402.849 63.2873 403.292 62.7693 403.899 62.368C404.515 61.9573 405.159 61.752 405.831 61.752C406.456 61.752 407.011 61.892 407.497 62.172C407.991 62.452 408.374 62.844 408.645 63.348C408.925 63.8427 409.065 64.412 409.065 65.056C409.065 65.6907 408.873 66.3207 408.491 66.946C408.117 67.5713 407.66 68.15 407.119 68.682C406.587 69.214 405.905 69.8347 405.075 70.544L404.823 70.768H409.219V72.042H402.905L402.765 70.768ZM416.782 66.12V67.562H410.678V66.12H416.782ZM423.648 72.21C422.658 72.21 421.776 71.986 421.002 71.538C420.236 71.09 419.634 70.4693 419.196 69.676C418.766 68.8733 418.552 67.9633 418.552 66.946C418.552 65.9287 418.766 65.0233 419.196 64.23C419.625 63.4273 420.222 62.802 420.988 62.354C421.762 61.906 422.64 61.682 423.62 61.682C424.32 61.682 424.978 61.8173 425.594 62.088C426.219 62.3587 426.765 62.7367 427.232 63.222L426.28 64.16C425.972 63.7867 425.58 63.4927 425.104 63.278C424.637 63.0633 424.147 62.956 423.634 62.956C422.924 62.956 422.294 63.124 421.744 63.46C421.202 63.7867 420.778 64.2533 420.47 64.86C420.171 65.4573 420.022 66.1527 420.022 66.946C420.022 67.73 420.171 68.4253 420.47 69.032C420.778 69.6293 421.202 70.096 421.744 70.432C422.294 70.768 422.924 70.936 423.634 70.936C424.166 70.936 424.651 70.8333 425.09 70.628C425.538 70.4133 425.916 70.1287 426.224 69.774L427.232 70.67C426.756 71.1647 426.214 71.5473 425.608 71.818C425.01 72.0887 424.357 72.2193 423.648 72.21ZM431.846 70.936C432.471 70.936 432.975 70.7073 433.358 70.25C433.741 69.7927 433.932 69.1953 433.932 68.458C433.932 67.7207 433.741 67.1233 433.358 66.666C432.975 66.2087 432.471 65.98 431.846 65.98C431.23 65.98 430.731 66.2087 430.348 66.666C429.965 67.1233 429.774 67.7207 429.774 68.458C429.774 69.1953 429.965 69.7927 430.348 70.25C430.731 70.7073 431.23 70.936 431.846 70.936ZM428.318 68.458C428.318 67.7393 428.467 67.1 428.766 66.54C429.065 65.98 429.48 65.5413 430.012 65.224C430.553 64.9067 431.165 64.748 431.846 64.748C432.537 64.748 433.148 64.9067 433.68 65.224C434.221 65.5413 434.641 65.98 434.94 66.54C435.239 67.1 435.388 67.7393 435.388 68.458C435.388 69.1673 435.239 69.802 434.94 70.362C434.641 70.922 434.221 71.3607 433.68 71.678C433.148 71.9953 432.537 72.154 431.846 72.154C431.165 72.154 430.553 71.9953 430.012 71.678C429.48 71.3607 429.065 70.922 428.766 70.362C428.467 69.802 428.318 69.1673 428.318 68.458ZM438.101 61.794V72.098H436.645V61.794H438.101ZM441.368 68.962C441.368 69.55 441.531 70.0307 441.858 70.404C442.185 70.768 442.609 70.95 443.132 70.95C443.701 70.9407 444.163 70.7587 444.518 70.404C444.873 70.0493 445.045 69.5827 445.036 69.004V64.776H446.492V72.098H445.036V71.034C444.821 71.3793 444.518 71.6547 444.126 71.86C443.743 72.0653 443.347 72.168 442.936 72.168C442.357 72.168 441.839 72.0373 441.382 71.776C440.925 71.5053 440.565 71.132 440.304 70.656C440.043 70.18 439.912 69.6387 439.912 69.032V64.776H441.368V68.962ZM457.81 67.912C457.81 67.352 457.665 66.8993 457.376 66.554C457.086 66.1993 456.713 66.022 456.256 66.022C455.761 66.022 455.35 66.1947 455.024 66.54C454.706 66.8853 454.548 67.3147 454.548 67.828V72.098H453.092V67.912C453.092 67.352 452.947 66.8993 452.658 66.554C452.378 66.1993 452.014 66.022 451.566 66.022C451.052 66.022 450.632 66.2133 450.306 66.596C449.979 66.9787 449.816 67.45 449.816 68.01V72.098H448.36V64.776H449.816V66.022C450.021 65.658 450.296 65.364 450.642 65.14C450.987 64.9067 451.346 64.79 451.72 64.79C452.177 64.79 452.611 64.93 453.022 65.21C453.442 65.4807 453.75 65.8307 453.946 66.26C454.179 65.8307 454.524 65.4807 454.982 65.21C455.439 64.93 455.901 64.79 456.368 64.79C456.937 64.79 457.441 64.9207 457.88 65.182C458.318 65.434 458.659 65.7933 458.902 66.26C459.144 66.7267 459.266 67.254 459.266 67.842V72.098H457.81V67.912ZM466.043 68.038C466.043 67.422 465.884 66.932 465.567 66.568C465.259 66.1947 464.834 66.008 464.293 66.008C463.929 66.008 463.597 66.1013 463.299 66.288C463.009 66.4653 462.781 66.708 462.613 67.016C462.454 67.324 462.375 67.6647 462.375 68.038V72.098H460.919V64.776H462.375V66.008C462.599 65.6533 462.907 65.364 463.299 65.14C463.691 64.9067 464.087 64.79 464.489 64.79C464.993 64.79 465.473 64.9067 465.931 65.14C466.388 65.364 466.761 65.714 467.051 66.19C467.349 66.666 467.499 67.2633 467.499 67.982V72.098H466.043V68.038ZM470.028 69.816C470.214 70.18 470.462 70.4647 470.77 70.67C471.087 70.8753 471.386 70.978 471.666 70.978C472.067 70.978 472.384 70.894 472.618 70.726C472.86 70.558 472.982 70.3293 472.982 70.04C472.982 69.788 472.865 69.592 472.632 69.452C472.398 69.312 472.025 69.1487 471.512 68.962C471.026 68.794 470.63 68.6307 470.322 68.472C470.014 68.3133 469.748 68.094 469.524 67.814C469.309 67.534 469.202 67.184 469.202 66.764C469.202 66.1387 469.44 65.644 469.916 65.28C470.392 64.916 471.008 64.734 471.764 64.734C472.258 64.734 472.748 64.8833 473.234 65.182C473.728 65.4713 474.069 65.896 474.256 66.456L473.038 66.904C472.916 66.5493 472.734 66.3067 472.492 66.176C472.258 66.036 472.016 65.966 471.764 65.966C471.409 65.966 471.134 66.0407 470.938 66.19C470.751 66.33 470.658 66.5213 470.658 66.764C470.658 67.0067 470.774 67.2027 471.008 67.352C471.25 67.5013 471.624 67.6647 472.128 67.842C472.613 68.0193 473.005 68.1827 473.304 68.332C473.612 68.4813 473.873 68.696 474.088 68.976C474.312 69.2467 474.424 69.592 474.424 70.012C474.424 70.6747 474.172 71.2067 473.668 71.608C473.173 72 472.506 72.196 471.666 72.196C471.106 72.196 470.574 72.042 470.07 71.734C469.575 71.4167 469.188 70.992 468.908 70.46L470.028 69.816ZM477.012 69.928C476.694 68.8453 476.536 67.8513 476.536 66.946C476.536 66.0407 476.694 65.0513 477.012 63.978C477.338 62.8953 477.754 61.9527 478.258 61.15H479.798C479.228 61.934 478.762 62.8673 478.398 63.95C478.034 65.0327 477.852 66.0313 477.852 66.946C477.852 67.8607 478.034 68.8593 478.398 69.942C478.762 71.0247 479.228 71.958 479.798 72.742H478.258C477.754 71.9393 477.338 71.0013 477.012 69.928ZM483.148 64.328V72.098H481.692V61.794H483.26L487.012 67.87L490.764 61.794H492.332V72.098H490.876V64.314L487.012 70.362L483.148 64.328ZM497.596 70.964C497.979 70.964 498.338 70.8567 498.674 70.642C499.01 70.418 499.276 70.1193 499.472 69.746C499.678 69.3633 499.78 68.9433 499.78 68.486C499.78 68.0287 499.678 67.6133 499.472 67.24C499.276 66.8573 499.01 66.5587 498.674 66.344C498.338 66.12 497.979 66.008 497.596 66.008C496.971 66.008 496.462 66.2367 496.07 66.694C495.678 67.1513 495.482 67.7487 495.482 68.486C495.482 69.2233 495.678 69.8207 496.07 70.278C496.462 70.7353 496.971 70.964 497.596 70.964ZM494.026 68.486C494.026 67.7767 494.171 67.142 494.46 66.582C494.759 66.022 495.17 65.588 495.692 65.28C496.224 64.9627 496.826 64.804 497.498 64.804C497.928 64.804 498.338 64.9113 498.73 65.126C499.132 65.3313 499.477 65.644 499.766 66.064V64.776H501.222V72.098L499.766 72.112V70.894C499.468 71.3233 499.122 71.6453 498.73 71.86C498.338 72.0653 497.928 72.168 497.498 72.168C496.826 72.168 496.224 72.014 495.692 71.706C495.17 71.3887 494.759 70.95 494.46 70.39C494.171 69.83 494.026 69.1953 494.026 68.486ZM507.181 68.444L509.883 72.098H508.077L506.327 69.62L504.591 72.098H502.785L505.445 68.444L502.729 64.776H504.549L506.327 67.324L508.091 64.776H509.911L507.181 68.444ZM514.049 63.978C514.376 65.0607 514.539 66.05 514.539 66.946C514.539 67.842 514.376 68.8313 514.049 69.914C513.732 70.9967 513.326 71.9393 512.831 72.742H511.291C511.86 71.958 512.322 71.0247 512.677 69.942C513.041 68.8593 513.223 67.8607 513.223 66.946C513.223 66.0313 513.041 65.0327 512.677 63.95C512.322 62.8673 511.86 61.934 511.291 61.15H512.831C513.326 61.9527 513.732 62.8953 514.049 63.978Z" fill="#121212"/>
<rect x="405" y="133.5" width="103" height="29" rx="14.5" fill="white"/>
<rect x="405" y="133.5" width="103" height="29" rx="14.5" stroke="#6B6B6B"/>
<path d="M420.973 153.042L419.517 153.028V144.418L417.739 145.426L417.123 144.208L419.531 142.864H420.973V153.042ZM426.7 151.852C427.157 151.852 427.563 151.689 427.918 151.362C428.282 151.035 428.562 150.578 428.758 149.99C428.954 149.393 429.052 148.711 429.052 147.946C429.052 147.171 428.954 146.49 428.758 145.902C428.562 145.314 428.287 144.857 427.932 144.53C427.577 144.203 427.167 144.04 426.7 144.04C426.233 144.04 425.818 144.203 425.454 144.53C425.099 144.857 424.824 145.314 424.628 145.902C424.432 146.49 424.334 147.171 424.334 147.946C424.334 148.711 424.432 149.393 424.628 149.99C424.824 150.578 425.099 151.035 425.454 151.362C425.818 151.689 426.233 151.852 426.7 151.852ZM422.878 147.946C422.878 146.947 423.041 146.056 423.368 145.272C423.695 144.479 424.147 143.863 424.726 143.424C425.305 142.976 425.963 142.752 426.7 142.752C427.437 142.752 428.095 142.976 428.674 143.424C429.253 143.863 429.701 144.479 430.018 145.272C430.345 146.056 430.508 146.947 430.508 147.946C430.508 148.945 430.345 149.841 430.018 150.634C429.701 151.418 429.253 152.029 428.674 152.468C428.095 152.907 427.437 153.126 426.7 153.126C425.963 153.126 425.305 152.907 424.726 152.468C424.147 152.029 423.695 151.418 423.368 150.634C423.041 149.841 422.878 148.945 422.878 147.946ZM438.062 147.12V148.562H431.958V147.12H438.062ZM444.928 153.21C443.939 153.21 443.057 152.986 442.282 152.538C441.517 152.09 440.915 151.469 440.476 150.676C440.047 149.873 439.832 148.963 439.832 147.946C439.832 146.929 440.047 146.023 440.476 145.23C440.905 144.427 441.503 143.802 442.268 143.354C443.043 142.906 443.92 142.682 444.9 142.682C445.6 142.682 446.258 142.817 446.874 143.088C447.499 143.359 448.045 143.737 448.512 144.222L447.56 145.16C447.252 144.787 446.86 144.493 446.384 144.278C445.917 144.063 445.427 143.956 444.914 143.956C444.205 143.956 443.575 144.124 443.024 144.46C442.483 144.787 442.058 145.253 441.75 145.86C441.451 146.457 441.302 147.153 441.302 147.946C441.302 148.73 441.451 149.425 441.75 150.032C442.058 150.629 442.483 151.096 443.024 151.432C443.575 151.768 444.205 151.936 444.914 151.936C445.446 151.936 445.931 151.833 446.37 151.628C446.818 151.413 447.196 151.129 447.504 150.774L448.512 151.67C448.036 152.165 447.495 152.547 446.888 152.818C446.291 153.089 445.637 153.219 444.928 153.21ZM453.127 151.936C453.752 151.936 454.256 151.707 454.639 151.25C455.021 150.793 455.213 150.195 455.213 149.458C455.213 148.721 455.021 148.123 454.639 147.666C454.256 147.209 453.752 146.98 453.127 146.98C452.511 146.98 452.011 147.209 451.629 147.666C451.246 148.123 451.055 148.721 451.055 149.458C451.055 150.195 451.246 150.793 451.629 151.25C452.011 151.707 452.511 151.936 453.127 151.936ZM449.599 149.458C449.599 148.739 449.748 148.1 450.047 147.54C450.345 146.98 450.761 146.541 451.293 146.224C451.834 145.907 452.445 145.748 453.127 145.748C453.817 145.748 454.429 145.907 454.961 146.224C455.502 146.541 455.922 146.98 456.221 147.54C456.519 148.1 456.669 148.739 456.669 149.458C456.669 150.167 456.519 150.802 456.221 151.362C455.922 151.922 455.502 152.361 454.961 152.678C454.429 152.995 453.817 153.154 453.127 153.154C452.445 153.154 451.834 152.995 451.293 152.678C450.761 152.361 450.345 151.922 450.047 151.362C449.748 150.802 449.599 150.167 449.599 149.458ZM459.381 142.794V153.098H457.925V142.794H459.381ZM462.648 149.962C462.648 150.55 462.812 151.031 463.138 151.404C463.465 151.768 463.89 151.95 464.412 151.95C464.982 151.941 465.444 151.759 465.798 151.404C466.153 151.049 466.326 150.583 466.316 150.004V145.776H467.772V153.098H466.316V152.034C466.102 152.379 465.798 152.655 465.406 152.86C465.024 153.065 464.627 153.168 464.216 153.168C463.638 153.168 463.12 153.037 462.662 152.776C462.205 152.505 461.846 152.132 461.584 151.656C461.323 151.18 461.192 150.639 461.192 150.032V145.776H462.648V149.962ZM479.09 148.912C479.09 148.352 478.946 147.899 478.656 147.554C478.367 147.199 477.994 147.022 477.536 147.022C477.042 147.022 476.631 147.195 476.304 147.54C475.987 147.885 475.828 148.315 475.828 148.828V153.098H474.372V148.912C474.372 148.352 474.228 147.899 473.938 147.554C473.658 147.199 473.294 147.022 472.846 147.022C472.333 147.022 471.913 147.213 471.586 147.596C471.26 147.979 471.096 148.45 471.096 149.01V153.098H469.64V145.776H471.096V147.022C471.302 146.658 471.577 146.364 471.922 146.14C472.268 145.907 472.627 145.79 473 145.79C473.458 145.79 473.892 145.93 474.302 146.21C474.722 146.481 475.03 146.831 475.226 147.26C475.46 146.831 475.805 146.481 476.262 146.21C476.72 145.93 477.182 145.79 477.648 145.79C478.218 145.79 478.722 145.921 479.16 146.182C479.599 146.434 479.94 146.793 480.182 147.26C480.425 147.727 480.546 148.254 480.546 148.842V153.098H479.09V148.912ZM487.323 149.038C487.323 148.422 487.164 147.932 486.847 147.568C486.539 147.195 486.114 147.008 485.573 147.008C485.209 147.008 484.878 147.101 484.579 147.288C484.29 147.465 484.061 147.708 483.893 148.016C483.734 148.324 483.655 148.665 483.655 149.038V153.098H482.199V145.776H483.655V147.008C483.879 146.653 484.187 146.364 484.579 146.14C484.971 145.907 485.368 145.79 485.769 145.79C486.273 145.79 486.754 145.907 487.211 146.14C487.668 146.364 488.042 146.714 488.331 147.19C488.63 147.666 488.779 148.263 488.779 148.982V153.098H487.323V149.038ZM491.308 150.816C491.495 151.18 491.742 151.465 492.05 151.67C492.368 151.875 492.666 151.978 492.946 151.978C493.348 151.978 493.665 151.894 493.898 151.726C494.141 151.558 494.262 151.329 494.262 151.04C494.262 150.788 494.146 150.592 493.912 150.452C493.679 150.312 493.306 150.149 492.792 149.962C492.307 149.794 491.91 149.631 491.602 149.472C491.294 149.313 491.028 149.094 490.804 148.814C490.59 148.534 490.482 148.184 490.482 147.764C490.482 147.139 490.72 146.644 491.196 146.28C491.672 145.916 492.288 145.734 493.044 145.734C493.539 145.734 494.029 145.883 494.514 146.182C495.009 146.471 495.35 146.896 495.536 147.456L494.318 147.904C494.197 147.549 494.015 147.307 493.772 147.176C493.539 147.036 493.296 146.966 493.044 146.966C492.69 146.966 492.414 147.041 492.218 147.19C492.032 147.33 491.938 147.521 491.938 147.764C491.938 148.007 492.055 148.203 492.288 148.352C492.531 148.501 492.904 148.665 493.408 148.842C493.894 149.019 494.286 149.183 494.584 149.332C494.892 149.481 495.154 149.696 495.368 149.976C495.592 150.247 495.704 150.592 495.704 151.012C495.704 151.675 495.452 152.207 494.948 152.608C494.454 153 493.786 153.196 492.946 153.196C492.386 153.196 491.854 153.042 491.35 152.734C490.856 152.417 490.468 151.992 490.188 151.46L491.308 150.816Z" fill="#121212"/>
<rect x="390" y="215.5" width="133" height="29" rx="14.5" fill="white"/>
<rect x="390" y="215.5" width="133" height="29" rx="14.5" stroke="#6B6B6B"/>
<path d="M406.449 233.964C407.037 233.964 407.513 233.796 407.877 233.46C408.25 233.115 408.437 232.671 408.437 232.13C408.437 231.589 408.25 231.15 407.877 230.814C407.513 230.469 407.037 230.296 406.449 230.296C405.851 230.296 405.366 230.469 404.993 230.814C404.619 231.15 404.433 231.589 404.433 232.13C404.433 232.671 404.619 233.115 404.993 233.46C405.366 233.796 405.851 233.964 406.449 233.964ZM402.977 232.158C402.977 231.701 403.135 231.243 403.453 230.786C403.77 230.319 404.176 229.951 404.671 229.68C404.26 229.4 403.924 229.055 403.663 228.644C403.401 228.233 403.271 227.846 403.271 227.482C403.271 226.941 403.406 226.46 403.677 226.04C403.947 225.611 404.321 225.279 404.797 225.046C405.282 224.803 405.833 224.682 406.449 224.682C407.065 224.682 407.611 224.803 408.087 225.046C408.572 225.279 408.95 225.611 409.221 226.04C409.491 226.46 409.627 226.941 409.627 227.482C409.627 227.855 409.496 228.247 409.235 228.658C408.973 229.069 408.637 229.409 408.227 229.68C408.721 229.96 409.123 230.329 409.431 230.786C409.739 231.243 409.893 231.701 409.893 232.158C409.893 232.746 409.748 233.273 409.459 233.74C409.169 234.197 408.763 234.557 408.241 234.818C407.718 235.07 407.121 235.196 406.449 235.196C405.777 235.196 405.175 235.07 404.643 234.818C404.12 234.557 403.709 234.197 403.411 233.74C403.121 233.273 402.977 232.746 402.977 232.158ZM404.727 227.482C404.727 227.949 404.885 228.327 405.203 228.616C405.52 228.905 405.935 229.05 406.449 229.05C406.953 229.05 407.363 228.905 407.681 228.616C408.007 228.317 408.171 227.939 408.171 227.482C408.171 227.025 408.007 226.651 407.681 226.362C407.363 226.063 406.953 225.914 406.449 225.914C405.935 225.914 405.52 226.059 405.203 226.348C404.885 226.637 404.727 227.015 404.727 227.482ZM417.464 229.12V230.562H411.36V229.12H417.464ZM424.329 235.21C423.34 235.21 422.458 234.986 421.683 234.538C420.918 234.09 420.316 233.469 419.877 232.676C419.448 231.873 419.233 230.963 419.233 229.946C419.233 228.929 419.448 228.023 419.877 227.23C420.307 226.427 420.904 225.802 421.669 225.354C422.444 224.906 423.321 224.682 424.301 224.682C425.001 224.682 425.659 224.817 426.275 225.088C426.901 225.359 427.447 225.737 427.913 226.222L426.961 227.16C426.653 226.787 426.261 226.493 425.785 226.278C425.319 226.063 424.829 225.956 424.315 225.956C423.606 225.956 422.976 226.124 422.425 226.46C421.884 226.787 421.459 227.253 421.151 227.86C420.853 228.457 420.703 229.153 420.703 229.946C420.703 230.73 420.853 231.425 421.151 232.032C421.459 232.629 421.884 233.096 422.425 233.432C422.976 233.768 423.606 233.936 424.315 233.936C424.847 233.936 425.333 233.833 425.771 233.628C426.219 233.413 426.597 233.129 426.905 232.774L427.913 233.67C427.437 234.165 426.896 234.547 426.289 234.818C425.692 235.089 425.039 235.219 424.329 235.21ZM432.528 233.936C433.153 233.936 433.657 233.707 434.04 233.25C434.422 232.793 434.614 232.195 434.614 231.458C434.614 230.721 434.422 230.123 434.04 229.666C433.657 229.209 433.153 228.98 432.528 228.98C431.912 228.98 431.412 229.209 431.03 229.666C430.647 230.123 430.456 230.721 430.456 231.458C430.456 232.195 430.647 232.793 431.03 233.25C431.412 233.707 431.912 233.936 432.528 233.936ZM429 231.458C429 230.739 429.149 230.1 429.448 229.54C429.746 228.98 430.162 228.541 430.694 228.224C431.235 227.907 431.846 227.748 432.528 227.748C433.218 227.748 433.83 227.907 434.362 228.224C434.903 228.541 435.323 228.98 435.622 229.54C435.92 230.1 436.07 230.739 436.07 231.458C436.07 232.167 435.92 232.802 435.622 233.362C435.323 233.922 434.903 234.361 434.362 234.678C433.83 234.995 433.218 235.154 432.528 235.154C431.846 235.154 431.235 234.995 430.694 234.678C430.162 234.361 429.746 233.922 429.448 233.362C429.149 232.802 429 232.167 429 231.458ZM438.782 224.794V235.098H437.326V224.794H438.782ZM442.049 231.962C442.049 232.55 442.213 233.031 442.539 233.404C442.866 233.768 443.291 233.95 443.813 233.95C444.383 233.941 444.845 233.759 445.199 233.404C445.554 233.049 445.727 232.583 445.717 232.004V227.776H447.173V235.098H445.717V234.034C445.503 234.379 445.199 234.655 444.807 234.86C444.425 235.065 444.028 235.168 443.617 235.168C443.039 235.168 442.521 235.037 442.063 234.776C441.606 234.505 441.247 234.132 440.985 233.656C440.724 233.18 440.593 232.639 440.593 232.032V227.776H442.049V231.962ZM458.491 230.912C458.491 230.352 458.347 229.899 458.057 229.554C457.768 229.199 457.395 229.022 456.937 229.022C456.443 229.022 456.032 229.195 455.705 229.54C455.388 229.885 455.229 230.315 455.229 230.828V235.098H453.773V230.912C453.773 230.352 453.629 229.899 453.339 229.554C453.059 229.199 452.695 229.022 452.247 229.022C451.734 229.022 451.314 229.213 450.987 229.596C450.661 229.979 450.497 230.45 450.497 231.01V235.098H449.041V227.776H450.497V229.022C450.703 228.658 450.978 228.364 451.323 228.14C451.669 227.907 452.028 227.79 452.401 227.79C452.859 227.79 453.293 227.93 453.703 228.21C454.123 228.481 454.431 228.831 454.627 229.26C454.861 228.831 455.206 228.481 455.663 228.21C456.121 227.93 456.583 227.79 457.049 227.79C457.619 227.79 458.123 227.921 458.561 228.182C459 228.434 459.341 228.793 459.583 229.26C459.826 229.727 459.947 230.254 459.947 230.842V235.098H458.491V230.912ZM466.724 231.038C466.724 230.422 466.566 229.932 466.248 229.568C465.94 229.195 465.516 229.008 464.974 229.008C464.61 229.008 464.279 229.101 463.98 229.288C463.691 229.465 463.462 229.708 463.294 230.016C463.136 230.324 463.056 230.665 463.056 231.038V235.098H461.6V227.776H463.056V229.008C463.28 228.653 463.588 228.364 463.98 228.14C464.372 227.907 464.769 227.79 465.17 227.79C465.674 227.79 466.155 227.907 466.612 228.14C467.07 228.364 467.443 228.714 467.732 229.19C468.031 229.666 468.18 230.263 468.18 230.982V235.098H466.724V231.038ZM470.709 232.816C470.896 233.18 471.143 233.465 471.451 233.67C471.769 233.875 472.067 233.978 472.347 233.978C472.749 233.978 473.066 233.894 473.299 233.726C473.542 233.558 473.663 233.329 473.663 233.04C473.663 232.788 473.547 232.592 473.313 232.452C473.08 232.312 472.707 232.149 472.193 231.962C471.708 231.794 471.311 231.631 471.003 231.472C470.695 231.313 470.429 231.094 470.205 230.814C469.991 230.534 469.883 230.184 469.883 229.764C469.883 229.139 470.121 228.644 470.597 228.28C471.073 227.916 471.689 227.734 472.445 227.734C472.94 227.734 473.43 227.883 473.915 228.182C474.41 228.471 474.751 228.896 474.937 229.456L473.719 229.904C473.598 229.549 473.416 229.307 473.173 229.176C472.94 229.036 472.697 228.966 472.445 228.966C472.091 228.966 471.815 229.041 471.619 229.19C471.433 229.33 471.339 229.521 471.339 229.764C471.339 230.007 471.456 230.203 471.689 230.352C471.932 230.501 472.305 230.665 472.809 230.842C473.295 231.019 473.687 231.183 473.985 231.332C474.293 231.481 474.555 231.696 474.769 231.976C474.993 232.247 475.105 232.592 475.105 233.012C475.105 233.675 474.853 234.207 474.349 234.608C473.855 235 473.187 235.196 472.347 235.196C471.787 235.196 471.255 235.042 470.751 234.734C470.257 234.417 469.869 233.992 469.589 233.46L470.709 232.816ZM477.693 232.928C477.376 231.845 477.217 230.851 477.217 229.946C477.217 229.041 477.376 228.051 477.693 226.978C478.02 225.895 478.435 224.953 478.939 224.15H480.479C479.91 224.934 479.443 225.867 479.079 226.95C478.715 228.033 478.533 229.031 478.533 229.946C478.533 230.861 478.715 231.859 479.079 232.942C479.443 234.025 479.91 234.958 480.479 235.742H478.939C478.435 234.939 478.02 234.001 477.693 232.928ZM483.83 227.328V235.098H482.374V224.794H483.942L487.694 230.87L491.446 224.794H493.014V235.098H491.558V227.314L487.694 233.362L483.83 227.328ZM496.624 227.818V235.098H495.168V227.818H496.624ZM495.07 225.438C495.07 225.195 495.145 224.999 495.294 224.85C495.453 224.691 495.653 224.612 495.896 224.612C496.139 224.612 496.335 224.691 496.484 224.85C496.643 224.999 496.722 225.195 496.722 225.438C496.722 225.671 496.643 225.867 496.484 226.026C496.335 226.185 496.139 226.264 495.896 226.264C495.653 226.264 495.453 226.189 495.294 226.04C495.145 225.881 495.07 225.681 495.07 225.438ZM503.663 231.038C503.663 230.422 503.504 229.932 503.187 229.568C502.879 229.195 502.454 229.008 501.913 229.008C501.549 229.008 501.218 229.101 500.919 229.288C500.63 229.465 500.401 229.708 500.233 230.016C500.074 230.324 499.995 230.665 499.995 231.038V235.098H498.539V227.776H499.995V229.008C500.219 228.653 500.527 228.364 500.919 228.14C501.311 227.907 501.708 227.79 502.109 227.79C502.613 227.79 503.094 227.907 503.551 228.14C504.008 228.364 504.382 228.714 504.671 229.19C504.97 229.666 505.119 230.263 505.119 230.982V235.098H503.663V231.038ZM509.549 226.978C509.876 228.061 510.039 229.05 510.039 229.946C510.039 230.842 509.876 231.831 509.549 232.914C509.232 233.997 508.826 234.939 508.331 235.742H506.791C507.36 234.958 507.822 234.025 508.177 232.942C508.541 231.859 508.723 230.861 508.723 229.946C508.723 229.031 508.541 228.033 508.177 226.95C507.822 225.867 507.36 224.934 506.791 224.15H508.331C508.826 224.953 509.232 225.895 509.549 226.978Z" fill="#121212"/>
<path d="M60.5757 41.5757C60.3414 41.8101 60.3414 42.1899 60.5757 42.4243L64.3941 46.2426C64.6284 46.477 65.0083 46.477 65.2426 46.2426C65.477 46.0083 65.477 45.6284 65.2426 45.3941L61.8485 42L65.2426 38.6059C65.477 38.3716 65.477 37.9917 65.2426 37.7574C65.0083 37.523 64.6284 37.523 64.3941 37.7574L60.5757 41.5757ZM851.424 42.4243C851.659 42.1899 851.659 41.8101 851.424 41.5757L847.606 37.7574C847.372 37.523 846.992 37.523 846.757 37.7574C846.523 37.9917 846.523 38.3716 846.757 38.6059L850.151 42L846.757 45.3941C846.523 45.6284 846.523 46.0083 846.757 46.2426C846.992 46.477 847.372 46.477 847.606 46.2426L851.424 42.4243ZM61 42.6H851V41.4H61V42.6Z" fill="#6B6B6B"/>
<path d="M127.576 123.576C127.341 123.81 127.341 124.19 127.576 124.424L131.394 128.243C131.628 128.477 132.008 128.477 132.243 128.243C132.477 128.008 132.477 127.628 132.243 127.394L128.849 124L132.243 120.606C132.477 120.372 132.477 119.992 132.243 119.757C132.008 119.523 131.628 119.523 131.394 119.757L127.576 123.576ZM784.424 124.424C784.659 124.19 784.659 123.81 784.424 123.576L780.606 119.757C780.372 119.523 779.992 119.523 779.757 119.757C779.523 119.992 779.523 120.372 779.757 120.606L783.151 124L779.757 127.394C779.523 127.628 779.523 128.008 779.757 128.243C779.992 128.477 780.372 128.477 780.606 128.243L784.424 124.424ZM128 124.6L784 124.6L784 123.4L128 123.4L128 124.6Z" fill="#6B6B6B"/>
<path d="M194.576 204.576C194.341 204.81 194.341 205.19 194.576 205.424L198.394 209.243C198.628 209.477 199.008 209.477 199.243 209.243C199.477 209.008 199.477 208.628 199.243 208.394L195.849 205L199.243 201.606C199.477 201.372 199.477 200.992 199.243 200.757C199.008 200.523 198.628 200.523 198.394 200.757L194.576 204.576ZM717.424 205.424C717.659 205.19 717.659 204.81 717.424 204.576L713.606 200.757C713.372 200.523 712.992 200.523 712.757 200.757C712.523 200.992 712.523 201.372 712.757 201.606L716.151 205L712.757 208.394C712.523 208.628 712.523 209.008 712.757 209.243C712.992 209.477 713.372 209.477 713.606 209.243L717.424 205.424ZM195 205.6L717 205.6L717 204.4L195 204.4L195 205.6Z" fill="#6B6B6B"/>
<path d="M439.529 23.012C438.913 23.012 438.409 23.2127 438.017 23.614C437.634 24.006 437.443 24.51 437.443 25.126C437.443 25.7513 437.634 26.2647 438.017 26.666C438.409 27.058 438.913 27.254 439.529 27.254C440.126 27.254 440.611 27.058 440.985 26.666C441.367 26.2647 441.559 25.7513 441.559 25.126C441.559 24.51 441.367 24.006 440.985 23.614C440.611 23.2127 440.126 23.012 439.529 23.012ZM435.987 25.126C435.987 24.4727 436.136 23.8893 436.435 23.376C436.733 22.8627 437.149 22.4613 437.681 22.172C438.222 21.8827 438.833 21.738 439.515 21.738C440.196 21.738 440.798 21.8827 441.321 22.172C441.853 22.4613 442.268 22.8627 442.567 23.376C442.865 23.8893 443.015 24.4727 443.015 25.126C443.015 25.7513 442.833 26.3953 442.469 27.058L439.655 32.056H437.989L440.019 28.472C439.832 28.5187 439.65 28.542 439.473 28.542C438.801 28.5327 438.199 28.3833 437.667 28.094C437.135 27.7953 436.719 27.3893 436.421 26.876C436.131 26.3627 435.987 25.7793 435.987 25.126ZM447.727 30.964C448.315 30.964 448.791 30.796 449.155 30.46C449.528 30.1147 449.715 29.6713 449.715 29.13C449.715 28.5887 449.528 28.15 449.155 27.814C448.791 27.4687 448.315 27.296 447.727 27.296C447.129 27.296 446.644 27.4687 446.271 27.814C445.897 28.15 445.711 28.5887 445.711 29.13C445.711 29.6713 445.897 30.1147 446.271 30.46C446.644 30.796 447.129 30.964 447.727 30.964ZM444.255 29.158C444.255 28.7007 444.413 28.2433 444.731 27.786C445.048 27.3193 445.454 26.9507 445.949 26.68C445.538 26.4 445.202 26.0547 444.941 25.644C444.679 25.2333 444.549 24.846 444.549 24.482C444.549 23.9407 444.684 23.46 444.955 23.04C445.225 22.6107 445.599 22.2793 446.075 22.046C446.56 21.8033 447.111 21.682 447.727 21.682C448.343 21.682 448.889 21.8033 449.365 22.046C449.85 22.2793 450.228 22.6107 450.499 23.04C450.769 23.46 450.905 23.9407 450.905 24.482C450.905 24.8553 450.774 25.2473 450.513 25.658C450.251 26.0687 449.915 26.4093 449.505 26.68C449.999 26.96 450.401 27.3287 450.709 27.786C451.017 28.2433 451.171 28.7007 451.171 29.158C451.171 29.746 451.026 30.2733 450.737 30.74C450.447 31.1973 450.041 31.5567 449.519 31.818C448.996 32.07 448.399 32.196 447.727 32.196C447.055 32.196 446.453 32.07 445.921 31.818C445.398 31.5567 444.987 31.1973 444.689 30.74C444.399 30.2733 444.255 29.746 444.255 29.158ZM446.005 24.482C446.005 24.9487 446.163 25.3267 446.481 25.616C446.798 25.9053 447.213 26.05 447.727 26.05C448.231 26.05 448.641 25.9053 448.959 25.616C449.285 25.3173 449.449 24.9393 449.449 24.482C449.449 24.0247 449.285 23.6513 448.959 23.362C448.641 23.0633 448.231 22.914 447.727 22.914C447.213 22.914 446.798 23.0587 446.481 23.348C446.163 23.6373 446.005 24.0153 446.005 24.482ZM455.886 30.964C456.474 30.964 456.95 30.796 457.314 30.46C457.687 30.1147 457.874 29.6713 457.874 29.13C457.874 28.5887 457.687 28.15 457.314 27.814C456.95 27.4687 456.474 27.296 455.886 27.296C455.288 27.296 454.803 27.4687 454.43 27.814C454.056 28.15 453.87 28.5887 453.87 29.13C453.87 29.6713 454.056 30.1147 454.43 30.46C454.803 30.796 455.288 30.964 455.886 30.964ZM452.414 29.158C452.414 28.7007 452.572 28.2433 452.89 27.786C453.207 27.3193 453.613 26.9507 454.108 26.68C453.697 26.4 453.361 26.0547 453.1 25.644C452.838 25.2333 452.708 24.846 452.708 24.482C452.708 23.9407 452.843 23.46 453.114 23.04C453.384 22.6107 453.758 22.2793 454.234 22.046C454.719 21.8033 455.27 21.682 455.886 21.682C456.502 21.682 457.048 21.8033 457.524 22.046C458.009 22.2793 458.387 22.6107 458.658 23.04C458.928 23.46 459.064 23.9407 459.064 24.482C459.064 24.8553 458.933 25.2473 458.672 25.658C458.41 26.0687 458.074 26.4093 457.664 26.68C458.158 26.96 458.56 27.3287 458.868 27.786C459.176 28.2433 459.33 28.7007 459.33 29.158C459.33 29.746 459.185 30.2733 458.896 30.74C458.606 31.1973 458.2 31.5567 457.678 31.818C457.155 32.07 456.558 32.196 455.886 32.196C455.214 32.196 454.612 32.07 454.08 31.818C453.557 31.5567 453.146 31.1973 452.848 30.74C452.558 30.2733 452.414 29.746 452.414 29.158ZM454.164 24.482C454.164 24.9487 454.322 25.3267 454.64 25.616C454.957 25.9053 455.372 26.05 455.886 26.05C456.39 26.05 456.8 25.9053 457.118 25.616C457.444 25.3173 457.608 24.9393 457.608 24.482C457.608 24.0247 457.444 23.6513 457.118 23.362C456.8 23.0633 456.39 22.914 455.886 22.914C455.372 22.914 454.957 23.0587 454.64 23.348C454.322 23.6373 454.164 24.0153 454.164 24.482ZM464.646 30.964C465.272 30.964 465.78 30.7353 466.172 30.278C466.564 29.8113 466.76 29.2047 466.76 28.458C466.76 27.7207 466.564 27.1233 466.172 26.666C465.78 26.2087 465.272 25.98 464.646 25.98C464.254 25.98 463.89 26.092 463.554 26.316C463.218 26.54 462.952 26.8433 462.756 27.226C462.56 27.5993 462.462 28.01 462.462 28.458C462.462 28.9153 462.56 29.3353 462.756 29.718C462.952 30.1007 463.218 30.404 463.554 30.628C463.89 30.852 464.254 30.964 464.646 30.964ZM460.992 24.776H462.448V26.036C462.7 25.616 463.05 25.3033 463.498 25.098C463.946 24.8833 464.357 24.776 464.73 24.776C465.412 24.776 466.014 24.9347 466.536 25.252C467.068 25.56 467.479 25.994 467.768 26.554C468.067 27.1047 468.216 27.7393 468.216 28.458C468.216 29.1767 468.067 29.8207 467.768 30.39C467.479 30.95 467.068 31.3887 466.536 31.706C466.014 32.014 465.412 32.168 464.73 32.168C464.357 32.168 463.946 32.0607 463.498 31.846C463.05 31.622 462.7 31.3 462.448 30.88V35.234H460.992V24.776ZM473.359 28.444L476.061 32.098H474.255L472.505 29.62L470.769 32.098H468.963L471.623 28.444L468.907 24.776H470.727L472.505 27.324L474.269 24.776H476.089L473.359 28.444Z" fill="#6B6B6B"/>
<path d="M439.301 112.964C439.889 112.964 440.365 112.796 440.729 112.46C441.103 112.115 441.289 111.671 441.289 111.13C441.289 110.589 441.103 110.15 440.729 109.814C440.365 109.469 439.889 109.296 439.301 109.296C438.704 109.296 438.219 109.469 437.845 109.814C437.472 110.15 437.285 110.589 437.285 111.13C437.285 111.671 437.472 112.115 437.845 112.46C438.219 112.796 438.704 112.964 439.301 112.964ZM435.829 111.158C435.829 110.701 435.988 110.243 436.305 109.786C436.623 109.319 437.029 108.951 437.523 108.68C437.113 108.4 436.777 108.055 436.515 107.644C436.254 107.233 436.123 106.846 436.123 106.482C436.123 105.941 436.259 105.46 436.529 105.04C436.8 104.611 437.173 104.279 437.649 104.046C438.135 103.803 438.685 103.682 439.301 103.682C439.917 103.682 440.463 103.803 440.939 104.046C441.425 104.279 441.803 104.611 442.073 105.04C442.344 105.46 442.479 105.941 442.479 106.482C442.479 106.855 442.349 107.247 442.087 107.658C441.826 108.069 441.49 108.409 441.079 108.68C441.574 108.96 441.975 109.329 442.283 109.786C442.591 110.243 442.745 110.701 442.745 111.158C442.745 111.746 442.601 112.273 442.311 112.74C442.022 113.197 441.616 113.557 441.093 113.818C440.571 114.07 439.973 114.196 439.301 114.196C438.629 114.196 438.027 114.07 437.495 113.818C436.973 113.557 436.562 113.197 436.263 112.74C435.974 112.273 435.829 111.746 435.829 111.158ZM437.579 106.482C437.579 106.949 437.738 107.327 438.055 107.616C438.373 107.905 438.788 108.05 439.301 108.05C439.805 108.05 440.216 107.905 440.533 107.616C440.86 107.317 441.023 106.939 441.023 106.482C441.023 106.025 440.86 105.651 440.533 105.362C440.216 105.063 439.805 104.914 439.301 104.914C438.788 104.914 438.373 105.059 438.055 105.348C437.738 105.637 437.579 106.015 437.579 106.482ZM444.198 112.768C444.329 112.647 444.805 112.208 445.626 111.452C446.382 110.771 446.984 110.211 447.432 109.772C447.889 109.324 448.272 108.867 448.58 108.4C448.888 107.924 449.042 107.476 449.042 107.056C449.042 106.477 448.874 106.006 448.538 105.642C448.211 105.269 447.787 105.082 447.264 105.082C446.863 105.082 446.475 105.213 446.102 105.474C445.729 105.735 445.453 106.071 445.276 106.482L444.002 105.922C444.282 105.287 444.725 104.769 445.332 104.368C445.948 103.957 446.592 103.752 447.264 103.752C447.889 103.752 448.445 103.892 448.93 104.172C449.425 104.452 449.807 104.844 450.078 105.348C450.358 105.843 450.498 106.412 450.498 107.056C450.498 107.691 450.307 108.321 449.924 108.946C449.551 109.571 449.093 110.15 448.552 110.682C448.02 111.214 447.339 111.835 446.508 112.544L446.256 112.768H450.652V114.042H444.338L444.198 112.768ZM455.695 112.852C456.153 112.852 456.559 112.689 456.913 112.362C457.277 112.035 457.557 111.578 457.753 110.99C457.949 110.393 458.047 109.711 458.047 108.946C458.047 108.171 457.949 107.49 457.753 106.902C457.557 106.314 457.282 105.857 456.927 105.53C456.573 105.203 456.162 105.04 455.695 105.04C455.229 105.04 454.813 105.203 454.449 105.53C454.095 105.857 453.819 106.314 453.623 106.902C453.427 107.49 453.329 108.171 453.329 108.946C453.329 109.711 453.427 110.393 453.623 110.99C453.819 111.578 454.095 112.035 454.449 112.362C454.813 112.689 455.229 112.852 455.695 112.852ZM451.873 108.946C451.873 107.947 452.037 107.056 452.363 106.272C452.69 105.479 453.143 104.863 453.721 104.424C454.3 103.976 454.958 103.752 455.695 103.752C456.433 103.752 457.091 103.976 457.669 104.424C458.248 104.863 458.696 105.479 459.013 106.272C459.34 107.056 459.503 107.947 459.503 108.946C459.503 109.945 459.34 110.841 459.013 111.634C458.696 112.418 458.248 113.029 457.669 113.468C457.091 113.907 456.433 114.126 455.695 114.126C454.958 114.126 454.3 113.907 453.721 113.468C453.143 113.029 452.69 112.418 452.363 111.634C452.037 110.841 451.873 109.945 451.873 108.946ZM464.804 112.964C465.429 112.964 465.938 112.735 466.33 112.278C466.722 111.811 466.918 111.205 466.918 110.458C466.918 109.721 466.722 109.123 466.33 108.666C465.938 108.209 465.429 107.98 464.804 107.98C464.412 107.98 464.048 108.092 463.712 108.316C463.376 108.54 463.11 108.843 462.914 109.226C462.718 109.599 462.62 110.01 462.62 110.458C462.62 110.915 462.718 111.335 462.914 111.718C463.11 112.101 463.376 112.404 463.712 112.628C464.048 112.852 464.412 112.964 464.804 112.964ZM461.15 106.776H462.606V108.036C462.858 107.616 463.208 107.303 463.656 107.098C464.104 106.883 464.514 106.776 464.888 106.776C465.569 106.776 466.171 106.935 466.694 107.252C467.226 107.56 467.636 107.994 467.926 108.554C468.224 109.105 468.374 109.739 468.374 110.458C468.374 111.177 468.224 111.821 467.926 112.39C467.636 112.95 467.226 113.389 466.694 113.706C466.171 114.014 465.569 114.168 464.888 114.168C464.514 114.168 464.104 114.061 463.656 113.846C463.208 113.622 462.858 113.3 462.606 112.88V117.234H461.15V106.776ZM473.517 110.444L476.219 114.098H474.413L472.663 111.62L470.927 114.098H469.121L471.781 110.444L469.065 106.776H470.885L472.663 109.324L474.427 106.776H476.247L473.517 110.444Z" fill="#6B6B6B"/>
<path d="M439.562 193.866C440.168 193.866 440.663 193.67 441.046 193.278C441.438 192.886 441.634 192.377 441.634 191.752C441.634 191.127 441.438 190.618 441.046 190.226C440.663 189.825 440.168 189.624 439.562 189.624C438.964 189.624 438.474 189.825 438.092 190.226C437.709 190.618 437.518 191.127 437.518 191.752C437.518 192.377 437.709 192.886 438.092 193.278C438.474 193.67 438.964 193.866 439.562 193.866ZM436.062 191.752C436.062 191.136 436.248 190.492 436.622 189.82L439.436 184.836H441.102L439.058 188.406C439.216 188.369 439.403 188.35 439.618 188.35C440.29 188.35 440.887 188.499 441.41 188.798C441.942 189.087 442.352 189.489 442.642 190.002C442.94 190.515 443.09 191.099 443.09 191.752C443.09 192.405 442.94 192.989 442.642 193.502C442.343 194.015 441.928 194.417 441.396 194.706C440.864 194.995 440.257 195.14 439.576 195.14C438.894 195.14 438.288 194.995 437.756 194.706C437.224 194.417 436.808 194.015 436.51 193.502C436.211 192.989 436.062 192.405 436.062 191.752ZM444.75 190.282L445.086 184.85H450.518V186.124H446.486L446.318 188.658C446.813 188.434 447.298 188.322 447.774 188.322C448.465 188.322 449.081 188.467 449.622 188.756C450.173 189.045 450.597 189.447 450.896 189.96C451.204 190.473 451.358 191.061 451.358 191.724C451.358 192.396 451.204 192.993 450.896 193.516C450.597 194.039 450.173 194.445 449.622 194.734C449.081 195.023 448.465 195.168 447.774 195.168C447.233 195.168 446.724 195.056 446.248 194.832C445.772 194.608 445.366 194.295 445.03 193.894C444.694 193.493 444.465 193.035 444.344 192.522L445.758 192.186C445.87 192.662 446.113 193.054 446.486 193.362C446.859 193.661 447.289 193.81 447.774 193.81C448.399 193.81 448.908 193.619 449.3 193.236C449.701 192.844 449.902 192.34 449.902 191.724C449.902 191.127 449.701 190.641 449.3 190.268C448.908 189.885 448.399 189.694 447.774 189.694C447.513 189.694 447.237 189.769 446.948 189.918C446.659 190.058 446.407 190.24 446.192 190.464L444.75 190.282ZM452.808 193.768C452.939 193.647 453.415 193.208 454.236 192.452C454.992 191.771 455.594 191.211 456.042 190.772C456.499 190.324 456.882 189.867 457.19 189.4C457.498 188.924 457.652 188.476 457.652 188.056C457.652 187.477 457.484 187.006 457.148 186.642C456.821 186.269 456.397 186.082 455.874 186.082C455.473 186.082 455.085 186.213 454.712 186.474C454.339 186.735 454.063 187.071 453.886 187.482L452.612 186.922C452.892 186.287 453.335 185.769 453.942 185.368C454.558 184.957 455.202 184.752 455.874 184.752C456.499 184.752 457.055 184.892 457.54 185.172C458.035 185.452 458.417 185.844 458.688 186.348C458.968 186.843 459.108 187.412 459.108 188.056C459.108 188.691 458.917 189.321 458.534 189.946C458.161 190.571 457.703 191.15 457.162 191.682C456.63 192.214 455.949 192.835 455.118 193.544L454.866 193.768H459.262V195.042H452.948L452.808 193.768ZM464.571 193.964C465.197 193.964 465.705 193.735 466.097 193.278C466.489 192.811 466.685 192.205 466.685 191.458C466.685 190.721 466.489 190.123 466.097 189.666C465.705 189.209 465.197 188.98 464.571 188.98C464.179 188.98 463.815 189.092 463.479 189.316C463.143 189.54 462.877 189.843 462.681 190.226C462.485 190.599 462.387 191.01 462.387 191.458C462.387 191.915 462.485 192.335 462.681 192.718C462.877 193.101 463.143 193.404 463.479 193.628C463.815 193.852 464.179 193.964 464.571 193.964ZM460.917 187.776H462.373V189.036C462.625 188.616 462.975 188.303 463.423 188.098C463.871 187.883 464.282 187.776 464.655 187.776C465.337 187.776 465.939 187.935 466.461 188.252C466.993 188.56 467.404 188.994 467.693 189.554C467.992 190.105 468.141 190.739 468.141 191.458C468.141 192.177 467.992 192.821 467.693 193.39C467.404 193.95 466.993 194.389 466.461 194.706C465.939 195.014 465.337 195.168 464.655 195.168C464.282 195.168 463.871 195.061 463.423 194.846C462.975 194.622 462.625 194.3 462.373 193.88V198.234H460.917V187.776ZM473.284 191.444L475.986 195.098H474.18L472.43 192.62L470.694 195.098H468.888L471.548 191.444L468.832 187.776H470.652L472.43 190.324L474.194 187.776H476.014L473.284 191.444Z" fill="#6B6B6B"/>
</svg>
