<svg xmlns="http://www.w3.org/2000/svg" width="912" height="160" fill="none" viewBox="0 0 912 160"><path fill="#fff" d="M0 0h912v160H0z"/><path fill="#fff" d="M130.5 64a7.5 7.5 0 0 1 7.5-7.5h636a7.5 7.5 0 0 1 7.5 7.5v32a7.5 7.5 0 0 1-7.5 7.5H138a7.5 7.5 0 0 1-7.5-7.5z"/><path stroke="#C2C2C2" d="M130.5 64a7.5 7.5 0 0 1 7.5-7.5h636a7.5 7.5 0 0 1 7.5 7.5v32a7.5 7.5 0 0 1-7.5 7.5H138a7.5 7.5 0 0 1-7.5-7.5z"/><path stroke="#E1E1E1" stroke-linecap="round" stroke-linejoin="round" stroke-width="1.2" d="M758 82H154"/></svg>