<svg xmlns="http://www.w3.org/2000/svg" width="912" height="266" fill="none" viewBox="0 0 912 266"><path fill="#fff" d="M0 0h912v266H0z"/><path stroke="#E1E1E1" stroke-linecap="round" stroke-linejoin="round" stroke-width=".96" d="M851.4 67H61M784 148H128M716.799 230h-521.6"/><rect width="143" height="29" x="384.5" y="52.5" fill="#fff" rx="14.5"/><rect width="143" height="29" x="384.5" y="52.5" stroke="#6B6B6B" rx="14.5"/><path fill="#121212" d="m400.636 72.042-1.456-.014v-8.61l-1.778 1.008-.616-1.218 2.408-1.344h1.442zm2.129-1.274q.195-.182 1.428-1.316a62 62 0 0 0 1.806-1.68q.686-.672 1.148-1.372.462-.714.462-1.344 0-.868-.504-1.414-.49-.56-1.274-.56-.603 0-1.162.392a2.34 2.34 0 0 0-.826 1.008l-1.274-.56a3.56 3.56 0 0 1 1.33-1.554q.924-.615 1.932-.616.937 0 1.666.42.741.42 1.148 1.176.42.742.42 1.708 0 .953-.574 1.89a8.7 8.7 0 0 1-1.372 1.736 36 36 0 0 1-2.044 1.862l-.252.224h4.396v1.274h-6.314zm14.017-4.648v1.442h-6.104V66.12zm6.866 6.09q-1.485 0-2.646-.672a4.8 4.8 0 0 1-1.806-1.862q-.645-1.204-.644-2.73 0-1.526.644-2.716a4.7 4.7 0 0 1 1.792-1.876q1.161-.672 2.632-.672 1.05 0 1.974.406.938.406 1.638 1.134l-.952.938a3.2 3.2 0 0 0-1.176-.882 3.5 3.5 0 0 0-1.47-.322q-1.065 0-1.89.504-.812.49-1.274 1.4-.448.896-.448 2.086 0 1.177.448 2.086a3.5 3.5 0 0 0 1.274 1.4q.825.504 1.89.504.798 0 1.456-.308.672-.323 1.134-.854l1.008.896a5.2 5.2 0 0 1-1.624 1.148 4.55 4.55 0 0 1-1.96.392m8.198-1.274q.938 0 1.512-.686t.574-1.792-.574-1.792-1.512-.686q-.924 0-1.498.686t-.574 1.792.574 1.792 1.498.686m-3.528-2.478q0-1.078.448-1.918a3.3 3.3 0 0 1 1.246-1.316q.812-.476 1.834-.476 1.036 0 1.834.476.811.476 1.26 1.316t.448 1.918q0 1.064-.448 1.904-.449.84-1.26 1.316-.798.476-1.834.476-1.022 0-1.834-.476a3.3 3.3 0 0 1-1.246-1.316q-.448-.84-.448-1.904m9.783-6.664v10.304h-1.456V61.794zm3.267 7.168q0 .882.49 1.442.49.546 1.274.546.853-.014 1.386-.546t.518-1.4v-4.228h1.456v7.322h-1.456v-1.064q-.322.517-.91.826a2.5 2.5 0 0 1-1.19.308q-.868 0-1.554-.392a2.9 2.9 0 0 1-1.078-1.12q-.392-.714-.392-1.624v-4.256h1.456zm16.442-1.05q0-.84-.434-1.358a1.38 1.38 0 0 0-1.12-.532q-.743 0-1.232.518-.476.518-.476 1.288v4.27h-1.456v-4.186q0-.84-.434-1.358a1.33 1.33 0 0 0-1.092-.532 1.58 1.58 0 0 0-1.26.574q-.49.574-.49 1.414v4.088h-1.456v-7.322h1.456v1.246q.307-.546.826-.882.517-.35 1.078-.35.685 0 1.302.42.63.405.924 1.05a2.7 2.7 0 0 1 1.036-1.05q.685-.42 1.386-.42.853 0 1.512.392.657.378 1.022 1.078.363.7.364 1.582v4.256h-1.456zm8.233.126q0-.924-.476-1.47-.462-.56-1.274-.56-.547 0-.994.28-.435.266-.686.728a2.2 2.2 0 0 0-.238 1.022v4.06h-1.456v-7.322h1.456v1.232q.336-.532.924-.868.587-.35 1.19-.35.755 0 1.442.35.685.336 1.12 1.05.447.714.448 1.792v4.116h-1.456zm3.985 1.778q.28.546.742.854.476.308.896.308.601 0 .952-.252a.8.8 0 0 0 .364-.686q0-.378-.35-.588t-1.12-.49a9 9 0 0 1-1.19-.49 2.45 2.45 0 0 1-.798-.658q-.322-.42-.322-1.05 0-.938.714-1.484t1.848-.546q.741 0 1.47.448.741.434 1.022 1.274l-1.218.448q-.183-.532-.546-.728a1.4 1.4 0 0 0-.728-.21q-.532 0-.826.224a.68.68 0 0 0-.28.574q0 .364.35.588.363.225 1.12.49.728.265 1.176.49.462.225.784.644.336.406.336 1.036 0 .994-.756 1.596-.742.588-2.002.588-.84 0-1.596-.462a3.3 3.3 0 0 1-1.162-1.274zm6.984.112q-.476-1.624-.476-2.982t.476-2.968q.49-1.624 1.246-2.828h1.54q-.855 1.176-1.4 2.8-.546 1.624-.546 2.996t.546 2.996q.545 1.624 1.4 2.8h-1.54q-.757-1.204-1.246-2.814m6.136-5.6v7.77h-1.456V61.794h1.568l3.752 6.076 3.752-6.076h1.568v10.304h-1.456v-7.784l-3.864 6.048zm14.448 6.636q.574 0 1.078-.322.504-.336.798-.896.309-.574.308-1.26 0-.686-.308-1.246a2.26 2.26 0 0 0-.798-.896 1.9 1.9 0 0 0-1.078-.336q-.938 0-1.526.686t-.588 1.792.588 1.792 1.526.686m-3.57-2.478q0-1.064.434-1.904.449-.84 1.232-1.302.798-.476 1.806-.476.644 0 1.232.322.603.308 1.036.938v-1.288h1.456v7.322l-1.456.014v-1.218q-.448.644-1.036.966a2.6 2.6 0 0 1-1.232.308q-1.008 0-1.806-.462a3.36 3.36 0 0 1-1.232-1.316q-.434-.84-.434-1.904m13.155-.042 2.702 3.654h-1.806l-1.75-2.478-1.736 2.478h-1.806l2.66-3.654-2.716-3.668h1.82l1.778 2.548 1.764-2.548h1.82zm6.868-4.466q.49 1.624.49 2.968t-.49 2.968q-.476 1.624-1.218 2.828h-1.54q.853-1.176 1.386-2.8.546-1.624.546-2.996t-.546-2.996q-.533-1.624-1.386-2.8h1.54q.742 1.204 1.218 2.828"/><rect width="103" height="29" x="405" y="133.5" fill="#fff" rx="14.5"/><rect width="103" height="29" x="405" y="133.5" stroke="#6B6B6B" rx="14.5"/><path fill="#121212" d="m420.973 153.042-1.456-.014v-8.61l-1.778 1.008-.616-1.218 2.408-1.344h1.442zm5.727-1.19q.685 0 1.218-.49.546-.49.84-1.372.294-.896.294-2.044 0-1.162-.294-2.044t-.826-1.372a1.76 1.76 0 0 0-1.232-.49q-.7 0-1.246.49-.532.49-.826 1.372t-.294 2.044q0 1.148.294 2.044.294.882.826 1.372.546.49 1.246.49m-3.822-3.906q0-1.498.49-2.674.49-1.19 1.358-1.848a3.14 3.14 0 0 1 1.974-.672 3.14 3.14 0 0 1 1.974.672q.868.658 1.344 1.848.49 1.176.49 2.674 0 1.499-.49 2.688-.476 1.176-1.344 1.834a3.18 3.18 0 0 1-1.974.658 3.18 3.18 0 0 1-1.974-.658q-.868-.658-1.358-1.834-.49-1.19-.49-2.688m15.184-.826v1.442h-6.104v-1.442zm6.866 6.09q-1.483 0-2.646-.672a4.8 4.8 0 0 1-1.806-1.862q-.644-1.204-.644-2.73t.644-2.716a4.7 4.7 0 0 1 1.792-1.876q1.162-.672 2.632-.672 1.05 0 1.974.406a5 5 0 0 1 1.638 1.134l-.952.938a3.2 3.2 0 0 0-1.176-.882 3.5 3.5 0 0 0-1.47-.322q-1.063 0-1.89.504a3.4 3.4 0 0 0-1.274 1.4q-.448.896-.448 2.086 0 1.176.448 2.086a3.5 3.5 0 0 0 1.274 1.4q.827.504 1.89.504.798 0 1.456-.308a3.5 3.5 0 0 0 1.134-.854l1.008.896a5.2 5.2 0 0 1-1.624 1.148 4.55 4.55 0 0 1-1.96.392m8.199-1.274q.938 0 1.512-.686t.574-1.792-.574-1.792-1.512-.686q-.924 0-1.498.686t-.574 1.792.574 1.792 1.498.686m-3.528-2.478q0-1.078.448-1.918.447-.84 1.246-1.316.811-.476 1.834-.476 1.036 0 1.834.476.812.476 1.26 1.316t.448 1.918q0 1.064-.448 1.904t-1.26 1.316q-.798.476-1.834.476-1.023 0-1.834-.476a3.3 3.3 0 0 1-1.246-1.316q-.448-.84-.448-1.904m9.782-6.664v10.304h-1.456v-10.304zm3.267 7.168q0 .882.49 1.442.49.546 1.274.546.855-.014 1.386-.546.533-.532.518-1.4v-4.228h1.456v7.322h-1.456v-1.064a2.3 2.3 0 0 1-.91.826 2.5 2.5 0 0 1-1.19.308 3.1 3.1 0 0 1-1.554-.392 2.9 2.9 0 0 1-1.078-1.12q-.392-.714-.392-1.624v-4.256h1.456zm16.442-1.05q0-.84-.434-1.358a1.38 1.38 0 0 0-1.12-.532q-.741 0-1.232.518-.476.518-.476 1.288v4.27h-1.456v-4.186q0-.84-.434-1.358a1.33 1.33 0 0 0-1.092-.532q-.77 0-1.26.574t-.49 1.414v4.088h-1.456v-7.322h1.456v1.246q.309-.546.826-.882.519-.35 1.078-.35.687 0 1.302.42.63.406.924 1.05a2.74 2.74 0 0 1 1.036-1.05q.687-.42 1.386-.42.855 0 1.512.392.659.378 1.022 1.078.364.7.364 1.582v4.256h-1.456zm8.233.126q0-.924-.476-1.47-.462-.56-1.274-.56-.546 0-.994.28-.434.266-.686.728a2.2 2.2 0 0 0-.238 1.022v4.06h-1.456v-7.322h1.456v1.232q.336-.532.924-.868.588-.35 1.19-.35.756 0 1.442.35.686.336 1.12 1.05.448.714.448 1.792v4.116h-1.456zm3.985 1.778q.28.546.742.854.477.308.896.308.603 0 .952-.252a.79.79 0 0 0 .364-.686q0-.378-.35-.588t-1.12-.49a9 9 0 0 1-1.19-.49 2.5 2.5 0 0 1-.798-.658q-.322-.42-.322-1.05 0-.938.714-1.484t1.848-.546q.743 0 1.47.448.743.434 1.022 1.274l-1.218.448q-.181-.532-.546-.728a1.4 1.4 0 0 0-.728-.21q-.531 0-.826.224a.68.68 0 0 0-.28.574q0 .365.35.588.364.224 1.12.49.729.266 1.176.49.462.224.784.644.336.406.336 1.036 0 .995-.756 1.596-.741.588-2.002.588-.84 0-1.596-.462a3.3 3.3 0 0 1-1.162-1.274z"/><rect width="133" height="29" x="390" y="215.5" fill="#fff" rx="14.5"/><rect width="133" height="29" x="390" y="215.5" stroke="#6B6B6B" rx="14.5"/><path fill="#121212" d="M406.449 233.964q.882 0 1.428-.504.56-.518.56-1.33t-.56-1.316q-.546-.518-1.428-.518-.897 0-1.456.518-.56.504-.56 1.316t.56 1.33q.56.504 1.456.504m-3.472-1.806q0-.686.476-1.372a3.46 3.46 0 0 1 1.218-1.106 3.5 3.5 0 0 1-1.008-1.036q-.392-.616-.392-1.162 0-.812.406-1.442a2.7 2.7 0 0 1 1.12-.994q.728-.364 1.652-.364t1.638.364q.727.35 1.134.994.406.63.406 1.442 0 .56-.392 1.176a3.4 3.4 0 0 1-1.008 1.022q.741.42 1.204 1.106t.462 1.372q0 .882-.434 1.582a3 3 0 0 1-1.218 1.078q-.784.378-1.792.378t-1.806-.378a3.1 3.1 0 0 1-1.232-1.078 2.94 2.94 0 0 1-.434-1.582m1.75-4.676q0 .7.476 1.134.475.434 1.246.434.755 0 1.232-.434.49-.448.49-1.134t-.49-1.12q-.477-.448-1.232-.448-.77 0-1.246.434t-.476 1.134m12.737 1.638v1.442h-6.104v-1.442zm6.865 6.09q-1.483 0-2.646-.672a4.8 4.8 0 0 1-1.806-1.862q-.644-1.204-.644-2.73t.644-2.716a4.7 4.7 0 0 1 1.792-1.876q1.162-.672 2.632-.672 1.05 0 1.974.406a5 5 0 0 1 1.638 1.134l-.952.938a3.2 3.2 0 0 0-1.176-.882 3.5 3.5 0 0 0-1.47-.322q-1.064 0-1.89.504a3.4 3.4 0 0 0-1.274 1.4q-.447.896-.448 2.086 0 1.176.448 2.086a3.5 3.5 0 0 0 1.274 1.4q.826.504 1.89.504.798 0 1.456-.308a3.5 3.5 0 0 0 1.134-.854l1.008.896a5.2 5.2 0 0 1-1.624 1.148 4.54 4.54 0 0 1-1.96.392m8.199-1.274q.938 0 1.512-.686t.574-1.792-.574-1.792q-.575-.686-1.512-.686-.924 0-1.498.686t-.574 1.792.574 1.792 1.498.686M429 231.458q0-1.078.448-1.918.447-.84 1.246-1.316.811-.476 1.834-.476 1.036 0 1.834.476.811.476 1.26 1.316.447.84.448 1.918 0 1.064-.448 1.904-.449.84-1.26 1.316-.798.476-1.834.476-1.023 0-1.834-.476a3.3 3.3 0 0 1-1.246-1.316q-.448-.84-.448-1.904m9.782-6.664v10.304h-1.456v-10.304zm3.267 7.168q0 .882.49 1.442.49.546 1.274.546.855-.014 1.386-.546.533-.532.518-1.4v-4.228h1.456v7.322h-1.456v-1.064a2.3 2.3 0 0 1-.91.826 2.5 2.5 0 0 1-1.19.308 3.1 3.1 0 0 1-1.554-.392 2.9 2.9 0 0 1-1.078-1.12q-.392-.714-.392-1.624v-4.256h1.456zm16.442-1.05q0-.84-.434-1.358a1.38 1.38 0 0 0-1.12-.532q-.741 0-1.232.518-.476.518-.476 1.288v4.27h-1.456v-4.186q0-.84-.434-1.358a1.33 1.33 0 0 0-1.092-.532q-.77 0-1.26.574t-.49 1.414v4.088h-1.456v-7.322h1.456v1.246q.309-.546.826-.882.519-.35 1.078-.35.687 0 1.302.42.63.406.924 1.05a2.74 2.74 0 0 1 1.036-1.05q.687-.42 1.386-.42.855 0 1.512.392.659.378 1.022 1.078.364.7.364 1.582v4.256h-1.456zm8.233.126q0-.924-.476-1.47-.462-.56-1.274-.56-.546 0-.994.28-.434.266-.686.728a2.2 2.2 0 0 0-.238 1.022v4.06H461.6v-7.322h1.456v1.232q.336-.532.924-.868.588-.35 1.19-.35.756 0 1.442.35.687.336 1.12 1.05.448.714.448 1.792v4.116h-1.456zm3.985 1.778q.28.546.742.854.476.308.896.308.603 0 .952-.252a.79.79 0 0 0 .364-.686q0-.378-.35-.588t-1.12-.49a9 9 0 0 1-1.19-.49 2.5 2.5 0 0 1-.798-.658q-.322-.42-.322-1.05 0-.938.714-1.484t1.848-.546q.743 0 1.47.448.743.434 1.022 1.274l-1.218.448q-.181-.532-.546-.728a1.4 1.4 0 0 0-.728-.21q-.531 0-.826.224a.68.68 0 0 0-.28.574q0 .364.35.588.364.224 1.12.49.729.266 1.176.49.462.224.784.644.336.406.336 1.036 0 .995-.756 1.596-.741.588-2.002.588-.84 0-1.596-.462a3.3 3.3 0 0 1-1.162-1.274zm6.984.112q-.476-1.625-.476-2.982t.476-2.968q.49-1.624 1.246-2.828h1.54q-.854 1.176-1.4 2.8t-.546 2.996.546 2.996 1.4 2.8h-1.54q-.756-1.204-1.246-2.814m6.137-5.6v7.77h-1.456v-10.304h1.568l3.752 6.076 3.752-6.076h1.568v10.304h-1.456v-7.784l-3.864 6.048zm12.794.49v7.28h-1.456v-7.28zm-1.554-2.38q0-.364.224-.588a.82.82 0 0 1 .602-.238q.364 0 .588.238a.77.77 0 0 1 .238.588.8.8 0 0 1-.238.588.77.77 0 0 1-.588.238.85.85 0 0 1-.602-.224.85.85 0 0 1-.224-.602m8.593 5.6q0-.924-.476-1.47-.462-.56-1.274-.56-.546 0-.994.28-.434.266-.686.728a2.2 2.2 0 0 0-.238 1.022v4.06h-1.456v-7.322h1.456v1.232q.336-.532.924-.868.588-.35 1.19-.35.756 0 1.442.35.686.336 1.12 1.05.448.714.448 1.792v4.116h-1.456zm5.886-4.06q.49 1.624.49 2.968t-.49 2.968q-.476 1.624-1.218 2.828h-1.54q.853-1.176 1.386-2.8.546-1.624.546-2.996t-.546-2.996q-.533-1.624-1.386-2.8h1.54q.743 1.204 1.218 2.828"/><path fill="#6B6B6B" d="M60.576 41.576a.6.6 0 0 0 0 .848l3.818 3.819a.6.6 0 1 0 .849-.849L61.849 42l3.394-3.394a.6.6 0 1 0-.849-.849zm790.848.848a.6.6 0 0 0 0-.848l-3.818-3.819a.6.6 0 0 0-.849.849L850.151 42l-3.394 3.394a.6.6 0 0 0 .849.849zM61 42.6h790v-1.2H61zM127.576 123.576a.6.6 0 0 0 0 .848l3.818 3.819a.601.601 0 0 0 .849-.849L128.849 124l3.394-3.394a.601.601 0 0 0-.849-.849zm656.848.848a.6.6 0 0 0 0-.848l-3.818-3.819a.601.601 0 0 0-.849.849l3.394 3.394-3.394 3.394a.601.601 0 0 0 .849.849zM128 124.6h656v-1.2H128zM194.576 204.576a.6.6 0 0 0 0 .848l3.818 3.819a.601.601 0 0 0 .849-.849L195.849 205l3.394-3.394a.601.601 0 0 0-.849-.849zm522.848.848a.6.6 0 0 0 0-.848l-3.818-3.819a.601.601 0 0 0-.849.849l3.394 3.394-3.394 3.394a.601.601 0 0 0 .849.849zM195 205.6h522v-1.2H195zM439.529 23.012q-.924 0-1.512.602-.574.588-.574 1.512 0 .938.574 1.54.588.588 1.512.588.895 0 1.456-.588.574-.602.574-1.54 0-.924-.574-1.512-.56-.602-1.456-.602m-3.542 2.114q0-.98.448-1.75a3.15 3.15 0 0 1 1.246-1.204q.811-.434 1.834-.434 1.022 0 1.806.434.798.434 1.246 1.204t.448 1.75q0 .938-.546 1.932l-2.814 4.998h-1.666l2.03-3.584a2.3 2.3 0 0 1-.546.07q-1.008-.015-1.806-.448a3.25 3.25 0 0 1-1.246-1.218q-.435-.77-.434-1.75m11.74 5.838q.882 0 1.428-.504.56-.518.56-1.33t-.56-1.316q-.546-.518-1.428-.518-.897 0-1.456.518-.56.504-.56 1.316t.56 1.33q.56.504 1.456.504m-3.472-1.806q0-.686.476-1.372a3.46 3.46 0 0 1 1.218-1.106 3.5 3.5 0 0 1-1.008-1.036q-.393-.616-.392-1.162a2.6 2.6 0 0 1 .406-1.442q.406-.644 1.12-.994.728-.364 1.652-.364t1.638.364q.728.35 1.134.994.406.63.406 1.442 0 .56-.392 1.176a3.4 3.4 0 0 1-1.008 1.022q.741.42 1.204 1.106t.462 1.372q0 .882-.434 1.582a3 3 0 0 1-1.218 1.078q-.784.378-1.792.378t-1.806-.378a3.1 3.1 0 0 1-1.232-1.078 2.94 2.94 0 0 1-.434-1.582m1.75-4.676q0 .7.476 1.134.475.434 1.246.434.755 0 1.232-.434.49-.448.49-1.134t-.49-1.12q-.477-.448-1.232-.448-.77 0-1.246.434t-.476 1.134m9.881 6.482q.882 0 1.428-.504.56-.518.56-1.33t-.56-1.316q-.546-.518-1.428-.518-.897 0-1.456.518-.56.504-.56 1.316t.56 1.33q.56.504 1.456.504m-3.472-1.806q0-.686.476-1.372a3.46 3.46 0 0 1 1.218-1.106 3.5 3.5 0 0 1-1.008-1.036q-.393-.616-.392-1.162a2.6 2.6 0 0 1 .406-1.442q.405-.644 1.12-.994.728-.364 1.652-.364t1.638.364q.728.35 1.134.994.405.63.406 1.442 0 .56-.392 1.176a3.4 3.4 0 0 1-1.008 1.022q.742.42 1.204 1.106t.462 1.372q0 .882-.434 1.582a3 3 0 0 1-1.218 1.078q-.784.378-1.792.378t-1.806-.378a3.1 3.1 0 0 1-1.232-1.078 2.94 2.94 0 0 1-.434-1.582m1.75-4.676q0 .7.476 1.134.475.434 1.246.434.756 0 1.232-.434.49-.448.49-1.134t-.49-1.12q-.476-.448-1.232-.448-.77 0-1.246.434t-.476 1.134m10.482 6.482q.939 0 1.526-.686.588-.7.588-1.82 0-1.106-.588-1.792-.587-.686-1.526-.686a1.93 1.93 0 0 0-1.092.336 2.37 2.37 0 0 0-.798.91 2.6 2.6 0 0 0-.294 1.232q0 .686.294 1.26t.798.91 1.092.336m-3.654-6.188h1.456v1.26q.378-.63 1.05-.938.672-.322 1.232-.322 1.023 0 1.806.476.798.462 1.232 1.302.448.825.448 1.904t-.448 1.932q-.434.84-1.232 1.316-.783.462-1.806.462-.56 0-1.232-.322a2.5 2.5 0 0 1-1.05-.966v4.354h-1.456zm12.367 3.668 2.702 3.654h-1.806l-1.75-2.478-1.736 2.478h-1.806l2.66-3.654-2.716-3.668h1.82l1.778 2.548 1.764-2.548h1.82zM439.301 112.964q.882 0 1.428-.504.56-.518.56-1.33t-.56-1.316q-.546-.518-1.428-.518-.895 0-1.456.518-.56.504-.56 1.316t.56 1.33q.56.504 1.456.504m-3.472-1.806q0-.686.476-1.372a3.5 3.5 0 0 1 1.218-1.106 3.6 3.6 0 0 1-1.008-1.036q-.392-.616-.392-1.162 0-.812.406-1.442a2.7 2.7 0 0 1 1.12-.994q.729-.364 1.652-.364.924 0 1.638.364a2.67 2.67 0 0 1 1.134.994q.406.63.406 1.442 0 .56-.392 1.176a3.4 3.4 0 0 1-1.008 1.022q.742.42 1.204 1.106t.462 1.372q0 .882-.434 1.582a3 3 0 0 1-1.218 1.078q-.783.378-1.792.378t-1.806-.378a3.1 3.1 0 0 1-1.232-1.078 2.94 2.94 0 0 1-.434-1.582m1.75-4.676q0 .7.476 1.134.477.434 1.246.434.756 0 1.232-.434a1.47 1.47 0 0 0 .49-1.134q0-.686-.49-1.12-.476-.448-1.232-.448-.77 0-1.246.434-.476.433-.476 1.134m6.619 6.286 1.428-1.316a61 61 0 0 0 1.806-1.68 8.5 8.5 0 0 0 1.148-1.372q.462-.714.462-1.344 0-.868-.504-1.414-.49-.56-1.274-.56-.602 0-1.162.392a2.34 2.34 0 0 0-.826 1.008l-1.274-.56a3.56 3.56 0 0 1 1.33-1.554q.924-.616 1.932-.616.938 0 1.666.42.742.42 1.148 1.176.42.742.42 1.708 0 .953-.574 1.89a8.7 8.7 0 0 1-1.372 1.736 36 36 0 0 1-2.044 1.862l-.252.224h4.396v1.274h-6.314zm11.497.084q.687 0 1.218-.49.546-.49.84-1.372.294-.896.294-2.044 0-1.162-.294-2.044t-.826-1.372a1.76 1.76 0 0 0-1.232-.49q-.7 0-1.246.49-.531.49-.826 1.372t-.294 2.044q0 1.148.294 2.044.294.882.826 1.372.546.49 1.246.49m-3.822-3.906q0-1.498.49-2.674.49-1.19 1.358-1.848a3.14 3.14 0 0 1 1.974-.672q1.107 0 1.974.672.869.659 1.344 1.848.49 1.176.49 2.674t-.49 2.688q-.475 1.176-1.344 1.834a3.18 3.18 0 0 1-1.974.658 3.18 3.18 0 0 1-1.974-.658q-.867-.658-1.358-1.834-.49-1.19-.49-2.688m12.931 4.018q.938 0 1.526-.686.588-.7.588-1.82 0-1.106-.588-1.792t-1.526-.686a1.93 1.93 0 0 0-1.092.336 2.36 2.36 0 0 0-.798.91 2.6 2.6 0 0 0-.294 1.232q0 .685.294 1.26.294.574.798.91t1.092.336m-3.654-6.188h1.456v1.26q.378-.63 1.05-.938.671-.322 1.232-.322 1.022 0 1.806.476.797.462 1.232 1.302.447.826.448 1.904 0 1.078-.448 1.932-.435.84-1.232 1.316-.785.462-1.806.462-.56 0-1.232-.322a2.5 2.5 0 0 1-1.05-.966v4.354h-1.456zm12.367 3.668 2.702 3.654h-1.806l-1.75-2.478-1.736 2.478h-1.806l2.66-3.654-2.716-3.668h1.82l1.778 2.548 1.764-2.548h1.82zM439.562 193.866q.91 0 1.484-.588.588-.588.588-1.526t-.588-1.526q-.575-.602-1.484-.602-.897 0-1.47.602-.574.588-.574 1.526t.574 1.526q.573.588 1.47.588m-3.5-2.114q0-.924.56-1.932l2.814-4.984h1.666l-2.044 3.57a2.5 2.5 0 0 1 .56-.056q1.008 0 1.792.448.797.434 1.232 1.204.447.77.448 1.75 0 .98-.448 1.75a3.16 3.16 0 0 1-1.246 1.204q-.798.434-1.82.434t-1.82-.434a3.15 3.15 0 0 1-1.246-1.204q-.448-.77-.448-1.75m8.688-1.47.336-5.432h5.432v1.274h-4.032l-.168 2.534q.742-.336 1.456-.336 1.036 0 1.848.434.826.434 1.274 1.204.462.77.462 1.764 0 1.008-.462 1.792a3.1 3.1 0 0 1-1.274 1.218q-.812.434-1.848.434a3.54 3.54 0 0 1-1.526-.336 3.5 3.5 0 0 1-1.218-.938 3.3 3.3 0 0 1-.686-1.372l1.414-.336q.168.714.728 1.176.56.448 1.288.448.938 0 1.526-.574.602-.588.602-1.512 0-.896-.602-1.456-.588-.574-1.526-.574-.392 0-.826.224-.433.21-.756.546zm8.058 3.486 1.428-1.316a61 61 0 0 0 1.806-1.68 8.5 8.5 0 0 0 1.148-1.372q.462-.714.462-1.344 0-.868-.504-1.414-.49-.56-1.274-.56-.602 0-1.162.392a2.34 2.34 0 0 0-.826 1.008l-1.274-.56a3.56 3.56 0 0 1 1.33-1.554q.924-.616 1.932-.616.938 0 1.666.42.742.42 1.148 1.176.42.742.42 1.708 0 .952-.574 1.89a8.7 8.7 0 0 1-1.372 1.736 36 36 0 0 1-2.044 1.862l-.252.224h4.396v1.274h-6.314zm11.763.196q.938 0 1.526-.686.588-.7.588-1.82 0-1.106-.588-1.792-.587-.686-1.526-.686a1.93 1.93 0 0 0-1.092.336 2.36 2.36 0 0 0-.798.91 2.6 2.6 0 0 0-.294 1.232q0 .686.294 1.26t.798.91 1.092.336m-3.654-6.188h1.456v1.26q.378-.63 1.05-.938.672-.322 1.232-.322 1.023 0 1.806.476.798.462 1.232 1.302.448.826.448 1.904t-.448 1.932q-.434.84-1.232 1.316-.783.462-1.806.462-.56 0-1.232-.322a2.5 2.5 0 0 1-1.05-.966v4.354h-1.456zm12.367 3.668 2.702 3.654h-1.806l-1.75-2.478-1.736 2.478h-1.806l2.66-3.654-2.716-3.668h1.82l1.778 2.548 1.764-2.548h1.82z"/></svg>