<svg width="912" height="160" viewBox="0 0 912 160" fill="none" xmlns="http://www.w3.org/2000/svg">
<rect width="912" height="160" fill="white"/>
<path d="M277.5 64C277.5 59.8579 280.858 56.5 285 56.5H627C631.142 56.5 634.5 59.8579 634.5 64V96C634.5 100.142 631.142 103.5 627 103.5H285C280.858 103.5 277.5 100.142 277.5 96V64Z" fill="white"/>
<path d="M277.5 64C277.5 59.8579 280.858 56.5 285 56.5H627C631.142 56.5 634.5 59.8579 634.5 64V96C634.5 100.142 631.142 103.5 627 103.5H285C280.858 103.5 277.5 100.142 277.5 96V64Z" stroke="#C2C2C2"/>
<path d="M301 82H611" stroke="#E1E1E1" stroke-width="1.2" stroke-linecap="round"/>
</svg>
