<svg width="908" height="140" viewBox="0 0 908 140" fill="none" xmlns="http://www.w3.org/2000/svg">
<rect width="907" height="140" transform="translate(0.5)" fill="white"/>
<rect width="280" height="64" transform="translate(184 38)" fill="#F7F7F7"/>
<rect x="228" y="82" width="24" height="24" rx="4" transform="rotate(180 228 82)" fill="white"/>
<path d="M221 76L216 70L221 64" stroke="#C2C2C2" stroke-width="1.4" stroke-linejoin="bevel"/>
<path d="M216 76L211 70L216 64" stroke="#C2C2C2" stroke-width="1.4" stroke-linejoin="bevel"/>
<rect x="252" y="82" width="24" height="24" rx="4" transform="rotate(180 252 82)" fill="white"/>
<path d="M242 76L237 70L242 64" stroke="#C2C2C2" stroke-width="1.4" stroke-linejoin="bevel"/>
<path d="M256.5 62C256.5 60.067 258.067 58.5 260 58.5H276C277.933 58.5 279.5 60.067 279.5 62V78C279.5 79.933 277.933 81.5 276 81.5H260C258.067 81.5 256.5 79.933 256.5 78V62Z" fill="white"/>
<path d="M256.5 62C256.5 60.067 258.067 58.5 260 58.5H276C277.933 58.5 279.5 60.067 279.5 62V78C279.5 79.933 277.933 81.5 276 81.5H260C258.067 81.5 256.5 79.933 256.5 78V62Z" stroke="#368FF7"/>
<path d="M269.22 76.016H267.812V65.984L265.892 67.184L265.22 66.048L267.812 64.432H269.22V76.016Z" fill="#121212"/>
<path d="M284 62C284 59.7909 285.791 58 288 58H304C306.209 58 308 59.7909 308 62V78C308 80.2091 306.209 82 304 82H288C285.791 82 284 80.2091 284 78V62Z" fill="white"/>
<path d="M291.976 74.784C291.901 74.848 292.365 74.416 293.368 73.488C294.285 72.656 295.027 71.9573 295.592 71.392C296.157 70.816 296.637 70.2293 297.032 69.632C297.427 69.0347 297.624 68.48 297.624 67.968C297.624 67.264 297.421 66.688 297.016 66.24C296.621 65.792 296.104 65.568 295.464 65.568C294.995 65.568 294.536 65.728 294.088 66.048C293.651 66.3573 293.325 66.7627 293.112 67.264L291.848 66.72C292.157 66.0053 292.648 65.424 293.32 64.976C294.003 64.5173 294.717 64.288 295.464 64.288C296.157 64.288 296.771 64.448 297.304 64.768C297.848 65.0773 298.269 65.5093 298.568 66.064C298.877 66.6187 299.032 67.2533 299.032 67.968C299.032 68.672 298.813 69.3867 298.376 70.112C297.939 70.8267 297.411 71.4987 296.792 72.128C296.184 72.7467 295.395 73.488 294.424 74.352L293.944 74.784H299.224V76.032H292.136L291.976 74.784Z" fill="#6B6B6B"/>
<path d="M312 62C312 59.7909 313.791 58 316 58H332C334.209 58 336 59.7909 336 62V78C336 80.2091 334.209 82 332 82H316C313.791 82 312 80.2091 312 78V62Z" fill="white"/>
<path d="M325.848 70.032C326.349 70.3307 326.744 70.736 327.032 71.248C327.331 71.7493 327.48 72.2507 327.48 72.752C327.48 73.4027 327.315 73.984 326.984 74.496C326.664 74.9973 326.216 75.392 325.64 75.68C325.064 75.968 324.403 76.112 323.656 76.112C322.92 76.112 322.259 75.968 321.672 75.68C321.096 75.392 320.643 74.992 320.312 74.48C319.992 73.9573 319.832 73.3653 319.832 72.704H321.24C321.24 73.3333 321.464 73.8507 321.912 74.256C322.36 74.6613 322.941 74.864 323.656 74.864C324.371 74.864 324.957 74.6613 325.416 74.256C325.875 73.8507 326.104 73.3333 326.104 72.704C326.104 72.096 325.875 71.6 325.416 71.216C324.968 70.832 324.392 70.64 323.688 70.64H322.84V69.408H323.688C324.339 69.408 324.872 69.232 325.288 68.88C325.715 68.528 325.928 68.0747 325.928 67.52C325.928 66.9547 325.725 66.4907 325.32 66.128C324.915 65.7653 324.392 65.584 323.752 65.584C323.112 65.584 322.589 65.7653 322.184 66.128C321.779 66.4907 321.576 66.96 321.576 67.536H320.168C320.168 66.9173 320.317 66.368 320.616 65.888C320.925 65.3973 321.352 65.0187 321.896 64.752C322.44 64.4747 323.059 64.336 323.752 64.336C324.435 64.336 325.048 64.4693 325.592 64.736C326.136 65.0027 326.557 65.376 326.856 65.856C327.165 66.336 327.32 66.88 327.32 67.488C327.32 67.936 327.187 68.3947 326.92 68.864C326.653 69.3333 326.296 69.7227 325.848 70.032Z" fill="#6B6B6B"/>
<path d="M340 62C340 59.7909 341.791 58 344 58H360C362.209 58 364 59.7909 364 62V78C364 80.2091 362.209 82 360 82H344C341.791 82 340 80.2091 340 78V62Z" fill="white"/>
<path d="M354.44 71.648H356.04V72.88H354.44V76.016H353.032V72.88H347.992L347.832 71.648L353.08 64.432H354.44V71.648ZM353.032 71.648V66.816L349.528 71.648H353.032Z" fill="#6B6B6B"/>
<path d="M368 62C368 59.7909 369.791 58 372 58H388C390.209 58 392 59.7909 392 62V78C392 80.2091 390.209 82 388 82H372C369.791 82 368 80.2091 368 78V62Z" fill="white"/>
<path d="M376.344 70.48L376.728 64.416H382.712V65.664H378.088L377.88 68.88C378.499 68.5813 379.091 68.432 379.656 68.432C380.435 68.432 381.123 68.5973 381.72 68.928C382.328 69.248 382.803 69.7013 383.144 70.288C383.485 70.864 383.656 71.5253 383.656 72.272C383.656 73.0293 383.485 73.7067 383.144 74.304C382.803 74.8907 382.328 75.3493 381.72 75.68C381.123 76.0107 380.435 76.176 379.656 76.176C379.059 76.176 378.493 76.0533 377.96 75.808C377.427 75.552 376.973 75.2 376.6 74.752C376.237 74.2933 375.987 73.7813 375.848 73.216L377.224 72.896C377.352 73.472 377.64 73.9413 378.088 74.304C378.547 74.6667 379.069 74.848 379.656 74.848C380.413 74.848 381.032 74.608 381.512 74.128C382.003 73.648 382.248 73.0293 382.248 72.272C382.248 71.536 382.003 70.9333 381.512 70.464C381.032 69.9947 380.413 69.76 379.656 69.76C379.336 69.76 379 69.8453 378.648 70.016C378.296 70.1867 377.997 70.4107 377.752 70.688L376.344 70.48Z" fill="#6B6B6B"/>
<rect x="396" y="58" width="24" height="24" rx="4" fill="white"/>
<path d="M406 64L411 70L406 76" stroke="#C2C2C2" stroke-width="1.4" stroke-linejoin="bevel"/>
<rect x="420" y="58" width="24" height="24" rx="4" fill="white"/>
<path d="M427 64L432 70L427 76" stroke="#C2C2C2" stroke-width="1.4" stroke-linejoin="bevel"/>
<path d="M432 64L437 70L432 76" stroke="#C2C2C2" stroke-width="1.4" stroke-linejoin="bevel"/>
<rect x="508" y="82" width="24" height="24" rx="4" transform="rotate(180 508 82)" fill="#F7F7F7"/>
<path d="M501 76L496 70L501 64" stroke="#C2C2C2" stroke-width="1.4" stroke-linejoin="bevel"/>
<path d="M496 76L491 70L496 64" stroke="#C2C2C2" stroke-width="1.4" stroke-linejoin="bevel"/>
<rect x="532" y="82" width="24" height="24" rx="4" transform="rotate(180 532 82)" fill="#F7F7F7"/>
<path d="M522 76L517 70L522 64" stroke="#C2C2C2" stroke-width="1.4" stroke-linejoin="bevel"/>
<path d="M536.5 62C536.5 60.067 538.067 58.5 540 58.5H556C557.933 58.5 559.5 60.067 559.5 62V78C559.5 79.933 557.933 81.5 556 81.5H540C538.067 81.5 536.5 79.933 536.5 78V62Z" fill="white"/>
<path d="M536.5 62C536.5 60.067 538.067 58.5 540 58.5H556C557.933 58.5 559.5 60.067 559.5 62V78C559.5 79.933 557.933 81.5 556 81.5H540C538.067 81.5 536.5 79.933 536.5 78V62Z" stroke="#368FF7"/>
<path d="M549.22 76.016H547.812V65.984L545.892 67.184L545.22 66.048L547.812 64.432H549.22V76.016Z" fill="#121212"/>
<path d="M564 62C564 59.7909 565.791 58 568 58H584C586.209 58 588 59.7909 588 62V78C588 80.2091 586.209 82 584 82H568C565.791 82 564 80.2091 564 78V62Z" fill="#F7F7F7"/>
<path d="M571.976 74.784C571.901 74.848 572.365 74.416 573.368 73.488C574.285 72.656 575.027 71.9573 575.592 71.392C576.157 70.816 576.637 70.2293 577.032 69.632C577.427 69.0347 577.624 68.48 577.624 67.968C577.624 67.264 577.421 66.688 577.016 66.24C576.621 65.792 576.104 65.568 575.464 65.568C574.995 65.568 574.536 65.728 574.088 66.048C573.651 66.3573 573.325 66.7627 573.112 67.264L571.848 66.72C572.157 66.0053 572.648 65.424 573.32 64.976C574.003 64.5173 574.717 64.288 575.464 64.288C576.157 64.288 576.771 64.448 577.304 64.768C577.848 65.0773 578.269 65.5093 578.568 66.064C578.877 66.6187 579.032 67.2533 579.032 67.968C579.032 68.672 578.813 69.3867 578.376 70.112C577.939 70.8267 577.411 71.4987 576.792 72.128C576.184 72.7467 575.395 73.488 574.424 74.352L573.944 74.784H579.224V76.032H572.136L571.976 74.784Z" fill="#6B6B6B"/>
<path d="M592 62C592 59.7909 593.791 58 596 58H612C614.209 58 616 59.7909 616 62V78C616 80.2091 614.209 82 612 82H596C593.791 82 592 80.2091 592 78V62Z" fill="#F7F7F7"/>
<path d="M605.848 70.032C606.349 70.3307 606.744 70.736 607.032 71.248C607.331 71.7493 607.48 72.2507 607.48 72.752C607.48 73.4027 607.315 73.984 606.984 74.496C606.664 74.9973 606.216 75.392 605.64 75.68C605.064 75.968 604.403 76.112 603.656 76.112C602.92 76.112 602.259 75.968 601.672 75.68C601.096 75.392 600.643 74.992 600.312 74.48C599.992 73.9573 599.832 73.3653 599.832 72.704H601.24C601.24 73.3333 601.464 73.8507 601.912 74.256C602.36 74.6613 602.941 74.864 603.656 74.864C604.371 74.864 604.957 74.6613 605.416 74.256C605.875 73.8507 606.104 73.3333 606.104 72.704C606.104 72.096 605.875 71.6 605.416 71.216C604.968 70.832 604.392 70.64 603.688 70.64H602.84V69.408H603.688C604.339 69.408 604.872 69.232 605.288 68.88C605.715 68.528 605.928 68.0747 605.928 67.52C605.928 66.9547 605.725 66.4907 605.32 66.128C604.915 65.7653 604.392 65.584 603.752 65.584C603.112 65.584 602.589 65.7653 602.184 66.128C601.779 66.4907 601.576 66.96 601.576 67.536H600.168C600.168 66.9173 600.317 66.368 600.616 65.888C600.925 65.3973 601.352 65.0187 601.896 64.752C602.44 64.4747 603.059 64.336 603.752 64.336C604.435 64.336 605.048 64.4693 605.592 64.736C606.136 65.0027 606.557 65.376 606.856 65.856C607.165 66.336 607.32 66.88 607.32 67.488C607.32 67.936 607.187 68.3947 606.92 68.864C606.653 69.3333 606.296 69.7227 605.848 70.032Z" fill="#6B6B6B"/>
<path d="M620 62C620 59.7909 621.791 58 624 58H640C642.209 58 644 59.7909 644 62V78C644 80.2091 642.209 82 640 82H624C621.791 82 620 80.2091 620 78V62Z" fill="#F7F7F7"/>
<path d="M634.44 71.648H636.04V72.88H634.44V76.016H633.032V72.88H627.992L627.832 71.648L633.08 64.432H634.44V71.648ZM633.032 71.648V66.816L629.528 71.648H633.032Z" fill="#6B6B6B"/>
<path d="M648 62C648 59.7909 649.791 58 652 58H668C670.209 58 672 59.7909 672 62V78C672 80.2091 670.209 82 668 82H652C649.791 82 648 80.2091 648 78V62Z" fill="#F7F7F7"/>
<path d="M656.344 70.48L656.728 64.416H662.712V65.664H658.088L657.88 68.88C658.499 68.5813 659.091 68.432 659.656 68.432C660.435 68.432 661.123 68.5973 661.72 68.928C662.328 69.248 662.803 69.7013 663.144 70.288C663.485 70.864 663.656 71.5253 663.656 72.272C663.656 73.0293 663.485 73.7067 663.144 74.304C662.803 74.8907 662.328 75.3493 661.72 75.68C661.123 76.0107 660.435 76.176 659.656 76.176C659.059 76.176 658.493 76.0533 657.96 75.808C657.427 75.552 656.973 75.2 656.6 74.752C656.237 74.2933 655.987 73.7813 655.848 73.216L657.224 72.896C657.352 73.472 657.64 73.9413 658.088 74.304C658.547 74.6667 659.069 74.848 659.656 74.848C660.413 74.848 661.032 74.608 661.512 74.128C662.003 73.648 662.248 73.0293 662.248 72.272C662.248 71.536 662.003 70.9333 661.512 70.464C661.032 69.9947 660.413 69.76 659.656 69.76C659.336 69.76 659 69.8453 658.648 70.016C658.296 70.1867 657.997 70.4107 657.752 70.688L656.344 70.48Z" fill="#6B6B6B"/>
<rect x="676" y="58" width="24" height="24" rx="4" fill="#F7F7F7"/>
<path d="M686 64L691 70L686 76" stroke="#C2C2C2" stroke-width="1.4" stroke-linejoin="bevel"/>
<rect x="700" y="58" width="24" height="24" rx="4" fill="#F7F7F7"/>
<path d="M707 64L712 70L707 76" stroke="#C2C2C2" stroke-width="1.4" stroke-linejoin="bevel"/>
<path d="M712 64L717 70L712 76" stroke="#C2C2C2" stroke-width="1.4" stroke-linejoin="bevel"/>
</svg>
