<svg width="908" height="149" viewBox="0 0 908 149" fill="none" xmlns="http://www.w3.org/2000/svg">
<rect width="907" height="149" transform="translate(0.5)" fill="white"/>
<rect x="358" y="87" width="24" height="24" rx="4" transform="rotate(180 358 87)" fill="#F7F7F7"/>
<path d="M351 81L346 75L351 69" stroke="#C2C2C2" stroke-width="1.4" stroke-linejoin="bevel"/>
<path d="M346 81L341 75L346 69" stroke="#C2C2C2" stroke-width="1.4" stroke-linejoin="bevel"/>
<rect x="382" y="87" width="24" height="24" rx="4" transform="rotate(180 382 87)" fill="#F7F7F7"/>
<path d="M372 81L367 75L372 69" stroke="#C2C2C2" stroke-width="1.4" stroke-linejoin="bevel"/>
<path d="M386.5 67C386.5 65.067 388.067 63.5 390 63.5H406C407.933 63.5 409.5 65.067 409.5 67V83C409.5 84.933 407.933 86.5 406 86.5H390C388.067 86.5 386.5 84.933 386.5 83V67Z" fill="white"/>
<path d="M386.5 67C386.5 65.067 388.067 63.5 390 63.5H406C407.933 63.5 409.5 65.067 409.5 67V83C409.5 84.933 407.933 86.5 406 86.5H390C388.067 86.5 386.5 84.933 386.5 83V67Z" stroke="#368FF7"/>
<path d="M399.22 81.016H397.812V70.984L395.892 72.184L395.22 71.048L397.812 69.432H399.22V81.016Z" fill="#121212"/>
<path d="M414 67C414 64.7909 415.791 63 418 63H434C436.209 63 438 64.7909 438 67V83C438 85.2091 436.209 87 434 87H418C415.791 87 414 85.2091 414 83V67Z" fill="#F7F7F7"/>
<path d="M421.976 79.784C421.901 79.848 422.365 79.416 423.368 78.488C424.285 77.656 425.027 76.9573 425.592 76.392C426.157 75.816 426.637 75.2293 427.032 74.632C427.427 74.0347 427.624 73.48 427.624 72.968C427.624 72.264 427.421 71.688 427.016 71.24C426.621 70.792 426.104 70.568 425.464 70.568C424.995 70.568 424.536 70.728 424.088 71.048C423.651 71.3573 423.325 71.7627 423.112 72.264L421.848 71.72C422.157 71.0053 422.648 70.424 423.32 69.976C424.003 69.5173 424.717 69.288 425.464 69.288C426.157 69.288 426.771 69.448 427.304 69.768C427.848 70.0773 428.269 70.5093 428.568 71.064C428.877 71.6187 429.032 72.2533 429.032 72.968C429.032 73.672 428.813 74.3867 428.376 75.112C427.939 75.8267 427.411 76.4987 426.792 77.128C426.184 77.7467 425.395 78.488 424.424 79.352L423.944 79.784H429.224V81.032H422.136L421.976 79.784Z" fill="#6B6B6B"/>
<path d="M442 67C442 64.7909 443.791 63 446 63H462C464.209 63 466 64.7909 466 67V83C466 85.2091 464.209 87 462 87H446C443.791 87 442 85.2091 442 83V67Z" fill="#F7F7F7"/>
<path d="M455.848 75.032C456.349 75.3307 456.744 75.736 457.032 76.248C457.331 76.7493 457.48 77.2507 457.48 77.752C457.48 78.4027 457.315 78.984 456.984 79.496C456.664 79.9973 456.216 80.392 455.64 80.68C455.064 80.968 454.403 81.112 453.656 81.112C452.92 81.112 452.259 80.968 451.672 80.68C451.096 80.392 450.643 79.992 450.312 79.48C449.992 78.9573 449.832 78.3653 449.832 77.704H451.24C451.24 78.3333 451.464 78.8507 451.912 79.256C452.36 79.6613 452.941 79.864 453.656 79.864C454.371 79.864 454.957 79.6613 455.416 79.256C455.875 78.8507 456.104 78.3333 456.104 77.704C456.104 77.096 455.875 76.6 455.416 76.216C454.968 75.832 454.392 75.64 453.688 75.64H452.84V74.408H453.688C454.339 74.408 454.872 74.232 455.288 73.88C455.715 73.528 455.928 73.0747 455.928 72.52C455.928 71.9547 455.725 71.4907 455.32 71.128C454.915 70.7653 454.392 70.584 453.752 70.584C453.112 70.584 452.589 70.7653 452.184 71.128C451.779 71.4907 451.576 71.96 451.576 72.536H450.168C450.168 71.9173 450.317 71.368 450.616 70.888C450.925 70.3973 451.352 70.0187 451.896 69.752C452.44 69.4747 453.059 69.336 453.752 69.336C454.435 69.336 455.048 69.4693 455.592 69.736C456.136 70.0027 456.557 70.376 456.856 70.856C457.165 71.336 457.32 71.88 457.32 72.488C457.32 72.936 457.187 73.3947 456.92 73.864C456.653 74.3333 456.296 74.7227 455.848 75.032Z" fill="#6B6B6B"/>
<path d="M470 67C470 64.7909 471.791 63 474 63H490C492.209 63 494 64.7909 494 67V83C494 85.2091 492.209 87 490 87H474C471.791 87 470 85.2091 470 83V67Z" fill="#F7F7F7"/>
<path d="M484.44 76.648H486.04V77.88H484.44V81.016H483.032V77.88H477.992L477.832 76.648L483.08 69.432H484.44V76.648ZM483.032 76.648V71.816L479.528 76.648H483.032Z" fill="#6B6B6B"/>
<path d="M498 67C498 64.7909 499.791 63 502 63H518C520.209 63 522 64.7909 522 67V83C522 85.2091 520.209 87 518 87H502C499.791 87 498 85.2091 498 83V67Z" fill="#F7F7F7"/>
<path d="M506.344 75.48L506.728 69.416H512.712V70.664H508.088L507.88 73.88C508.499 73.5813 509.091 73.432 509.656 73.432C510.435 73.432 511.123 73.5973 511.72 73.928C512.328 74.248 512.803 74.7013 513.144 75.288C513.485 75.864 513.656 76.5253 513.656 77.272C513.656 78.0293 513.485 78.7067 513.144 79.304C512.803 79.8907 512.328 80.3493 511.72 80.68C511.123 81.0107 510.435 81.176 509.656 81.176C509.059 81.176 508.493 81.0533 507.96 80.808C507.427 80.552 506.973 80.2 506.6 79.752C506.237 79.2933 505.987 78.7813 505.848 78.216L507.224 77.896C507.352 78.472 507.64 78.9413 508.088 79.304C508.547 79.6667 509.069 79.848 509.656 79.848C510.413 79.848 511.032 79.608 511.512 79.128C512.003 78.648 512.248 78.0293 512.248 77.272C512.248 76.536 512.003 75.9333 511.512 75.464C511.032 74.9947 510.413 74.76 509.656 74.76C509.336 74.76 509 74.8453 508.648 75.016C508.296 75.1867 507.997 75.4107 507.752 75.688L506.344 75.48Z" fill="#6B6B6B"/>
<rect x="526" y="63" width="24" height="24" rx="4" fill="#F7F7F7"/>
<path d="M536 69L541 75L536 81" stroke="#C2C2C2" stroke-width="1.4" stroke-linejoin="bevel"/>
<rect x="550" y="63" width="24" height="24" rx="4" fill="#F7F7F7"/>
<path d="M557 69L562 75L557 81" stroke="#C2C2C2" stroke-width="1.4" stroke-linejoin="bevel"/>
<path d="M562 69L567 75L562 81" stroke="#C2C2C2" stroke-width="1.4" stroke-linejoin="bevel"/>
<path d="M494 63L498 63" stroke="#6B6B6B" stroke-width="1.2"/>
<path d="M522 63L526 63" stroke="#6B6B6B" stroke-width="1.2"/>
<path d="M466 63L470 63" stroke="#6B6B6B" stroke-width="1.2"/>
<path d="M438 63L442 63" stroke="#6B6B6B" stroke-width="1.2"/>
<path d="M410 63L414 63" stroke="#6B6B6B" stroke-width="1.2"/>
<path d="M382 63L386 63" stroke="#6B6B6B" stroke-width="1.2"/>
<rect x="494" y="63" width="4" height="24" fill="#FF0000" fill-opacity="0.1"/>
<rect x="522" y="63" width="4" height="24" fill="#FF0000" fill-opacity="0.1"/>
<rect x="466" y="63" width="4" height="24" fill="#FF0000" fill-opacity="0.1"/>
<rect x="438" y="63" width="4" height="24" fill="#FF0000" fill-opacity="0.1"/>
<rect x="410" y="63" width="4" height="24" fill="#FF0000" fill-opacity="0.1"/>
<rect x="382" y="63" width="4" height="24" fill="#FF0000" fill-opacity="0.1"/>
<path d="M377.993 51.122H379.295V52.396H377.993V55.042H376.551V52.396H372.155L372.015 51.122L376.607 44.85H377.993V51.122ZM376.551 51.122V47.272L373.751 51.122H376.551ZM384.617 53.964C385.243 53.964 385.751 53.7353 386.143 53.278C386.535 52.8113 386.731 52.2047 386.731 51.458C386.731 50.7207 386.535 50.1233 386.143 49.666C385.751 49.2087 385.243 48.98 384.617 48.98C384.225 48.98 383.861 49.092 383.525 49.316C383.189 49.54 382.923 49.8433 382.727 50.226C382.531 50.5993 382.433 51.01 382.433 51.458C382.433 51.9153 382.531 52.3353 382.727 52.718C382.923 53.1007 383.189 53.404 383.525 53.628C383.861 53.852 384.225 53.964 384.617 53.964ZM380.963 47.776H382.419V49.036C382.671 48.616 383.021 48.3033 383.469 48.098C383.917 47.8833 384.328 47.776 384.701 47.776C385.383 47.776 385.985 47.9347 386.507 48.252C387.039 48.56 387.45 48.994 387.739 49.554C388.038 50.1047 388.187 50.7393 388.187 51.458C388.187 52.1767 388.038 52.8207 387.739 53.39C387.45 53.95 387.039 54.3887 386.507 54.706C385.985 55.014 385.383 55.168 384.701 55.168C384.328 55.168 383.917 55.0607 383.469 54.846C383.021 54.622 382.671 54.3 382.419 53.88V58.234H380.963V47.776ZM393.33 51.444L396.032 55.098H394.226L392.476 52.62L390.74 55.098H388.934L391.594 51.444L388.878 47.776H390.698L392.476 50.324L394.24 47.776H396.06L393.33 51.444Z" fill="#6B6B6B"/>
<path d="M405.993 51.122H407.295V52.396H405.993V55.042H404.551V52.396H400.155L400.015 51.122L404.607 44.85H405.993V51.122ZM404.551 51.122V47.272L401.751 51.122H404.551ZM412.617 53.964C413.243 53.964 413.751 53.7353 414.143 53.278C414.535 52.8113 414.731 52.2047 414.731 51.458C414.731 50.7207 414.535 50.1233 414.143 49.666C413.751 49.2087 413.243 48.98 412.617 48.98C412.225 48.98 411.861 49.092 411.525 49.316C411.189 49.54 410.923 49.8433 410.727 50.226C410.531 50.5993 410.433 51.01 410.433 51.458C410.433 51.9153 410.531 52.3353 410.727 52.718C410.923 53.1007 411.189 53.404 411.525 53.628C411.861 53.852 412.225 53.964 412.617 53.964ZM408.963 47.776H410.419V49.036C410.671 48.616 411.021 48.3033 411.469 48.098C411.917 47.8833 412.328 47.776 412.701 47.776C413.383 47.776 413.985 47.9347 414.507 48.252C415.039 48.56 415.45 48.994 415.739 49.554C416.038 50.1047 416.187 50.7393 416.187 51.458C416.187 52.1767 416.038 52.8207 415.739 53.39C415.45 53.95 415.039 54.3887 414.507 54.706C413.985 55.014 413.383 55.168 412.701 55.168C412.328 55.168 411.917 55.0607 411.469 54.846C411.021 54.622 410.671 54.3 410.419 53.88V58.234H408.963V47.776ZM421.33 51.444L424.032 55.098H422.226L420.476 52.62L418.74 55.098H416.934L419.594 51.444L416.878 47.776H418.698L420.476 50.324L422.24 47.776H424.06L421.33 51.444Z" fill="#6B6B6B"/>
<path d="M433.993 51.122H435.295V52.396H433.993V55.042H432.551V52.396H428.155L428.015 51.122L432.607 44.85H433.993V51.122ZM432.551 51.122V47.272L429.751 51.122H432.551ZM440.617 53.964C441.243 53.964 441.751 53.7353 442.143 53.278C442.535 52.8113 442.731 52.2047 442.731 51.458C442.731 50.7207 442.535 50.1233 442.143 49.666C441.751 49.2087 441.243 48.98 440.617 48.98C440.225 48.98 439.861 49.092 439.525 49.316C439.189 49.54 438.923 49.8433 438.727 50.226C438.531 50.5993 438.433 51.01 438.433 51.458C438.433 51.9153 438.531 52.3353 438.727 52.718C438.923 53.1007 439.189 53.404 439.525 53.628C439.861 53.852 440.225 53.964 440.617 53.964ZM436.963 47.776H438.419V49.036C438.671 48.616 439.021 48.3033 439.469 48.098C439.917 47.8833 440.328 47.776 440.701 47.776C441.383 47.776 441.985 47.9347 442.507 48.252C443.039 48.56 443.45 48.994 443.739 49.554C444.038 50.1047 444.187 50.7393 444.187 51.458C444.187 52.1767 444.038 52.8207 443.739 53.39C443.45 53.95 443.039 54.3887 442.507 54.706C441.985 55.014 441.383 55.168 440.701 55.168C440.328 55.168 439.917 55.0607 439.469 54.846C439.021 54.622 438.671 54.3 438.419 53.88V58.234H436.963V47.776ZM449.33 51.444L452.032 55.098H450.226L448.476 52.62L446.74 55.098H444.934L447.594 51.444L444.878 47.776H446.698L448.476 50.324L450.24 47.776H452.06L449.33 51.444Z" fill="#6B6B6B"/>
<path d="M461.993 51.122H463.295V52.396H461.993V55.042H460.551V52.396H456.155L456.015 51.122L460.607 44.85H461.993V51.122ZM460.551 51.122V47.272L457.751 51.122H460.551ZM468.617 53.964C469.243 53.964 469.751 53.7353 470.143 53.278C470.535 52.8113 470.731 52.2047 470.731 51.458C470.731 50.7207 470.535 50.1233 470.143 49.666C469.751 49.2087 469.243 48.98 468.617 48.98C468.225 48.98 467.861 49.092 467.525 49.316C467.189 49.54 466.923 49.8433 466.727 50.226C466.531 50.5993 466.433 51.01 466.433 51.458C466.433 51.9153 466.531 52.3353 466.727 52.718C466.923 53.1007 467.189 53.404 467.525 53.628C467.861 53.852 468.225 53.964 468.617 53.964ZM464.963 47.776H466.419V49.036C466.671 48.616 467.021 48.3033 467.469 48.098C467.917 47.8833 468.328 47.776 468.701 47.776C469.383 47.776 469.985 47.9347 470.507 48.252C471.039 48.56 471.45 48.994 471.739 49.554C472.038 50.1047 472.187 50.7393 472.187 51.458C472.187 52.1767 472.038 52.8207 471.739 53.39C471.45 53.95 471.039 54.3887 470.507 54.706C469.985 55.014 469.383 55.168 468.701 55.168C468.328 55.168 467.917 55.0607 467.469 54.846C467.021 54.622 466.671 54.3 466.419 53.88V58.234H464.963V47.776ZM477.33 51.444L480.032 55.098H478.226L476.476 52.62L474.74 55.098H472.934L475.594 51.444L472.878 47.776H474.698L476.476 50.324L478.24 47.776H480.06L477.33 51.444Z" fill="#6B6B6B"/>
<path d="M489.993 51.122H491.295V52.396H489.993V55.042H488.551V52.396H484.155L484.015 51.122L488.607 44.85H489.993V51.122ZM488.551 51.122V47.272L485.751 51.122H488.551ZM496.617 53.964C497.243 53.964 497.751 53.7353 498.143 53.278C498.535 52.8113 498.731 52.2047 498.731 51.458C498.731 50.7207 498.535 50.1233 498.143 49.666C497.751 49.2087 497.243 48.98 496.617 48.98C496.225 48.98 495.861 49.092 495.525 49.316C495.189 49.54 494.923 49.8433 494.727 50.226C494.531 50.5993 494.433 51.01 494.433 51.458C494.433 51.9153 494.531 52.3353 494.727 52.718C494.923 53.1007 495.189 53.404 495.525 53.628C495.861 53.852 496.225 53.964 496.617 53.964ZM492.963 47.776H494.419V49.036C494.671 48.616 495.021 48.3033 495.469 48.098C495.917 47.8833 496.328 47.776 496.701 47.776C497.383 47.776 497.985 47.9347 498.507 48.252C499.039 48.56 499.45 48.994 499.739 49.554C500.038 50.1047 500.187 50.7393 500.187 51.458C500.187 52.1767 500.038 52.8207 499.739 53.39C499.45 53.95 499.039 54.3887 498.507 54.706C497.985 55.014 497.383 55.168 496.701 55.168C496.328 55.168 495.917 55.0607 495.469 54.846C495.021 54.622 494.671 54.3 494.419 53.88V58.234H492.963V47.776ZM505.33 51.444L508.032 55.098H506.226L504.476 52.62L502.74 55.098H500.934L503.594 51.444L500.878 47.776H502.698L504.476 50.324L506.24 47.776H508.06L505.33 51.444Z" fill="#6B6B6B"/>
<path d="M517.993 51.122H519.295V52.396H517.993V55.042H516.551V52.396H512.155L512.015 51.122L516.607 44.85H517.993V51.122ZM516.551 51.122V47.272L513.751 51.122H516.551ZM524.617 53.964C525.243 53.964 525.751 53.7353 526.143 53.278C526.535 52.8113 526.731 52.2047 526.731 51.458C526.731 50.7207 526.535 50.1233 526.143 49.666C525.751 49.2087 525.243 48.98 524.617 48.98C524.225 48.98 523.861 49.092 523.525 49.316C523.189 49.54 522.923 49.8433 522.727 50.226C522.531 50.5993 522.433 51.01 522.433 51.458C522.433 51.9153 522.531 52.3353 522.727 52.718C522.923 53.1007 523.189 53.404 523.525 53.628C523.861 53.852 524.225 53.964 524.617 53.964ZM520.963 47.776H522.419V49.036C522.671 48.616 523.021 48.3033 523.469 48.098C523.917 47.8833 524.328 47.776 524.701 47.776C525.383 47.776 525.985 47.9347 526.507 48.252C527.039 48.56 527.45 48.994 527.739 49.554C528.038 50.1047 528.187 50.7393 528.187 51.458C528.187 52.1767 528.038 52.8207 527.739 53.39C527.45 53.95 527.039 54.3887 526.507 54.706C525.985 55.014 525.383 55.168 524.701 55.168C524.328 55.168 523.917 55.0607 523.469 54.846C523.021 54.622 522.671 54.3 522.419 53.88V58.234H520.963V47.776ZM533.33 51.444L536.032 55.098H534.226L532.476 52.62L530.74 55.098H528.934L531.594 51.444L528.878 47.776H530.698L532.476 50.324L534.24 47.776H536.06L533.33 51.444Z" fill="#6B6B6B"/>
<path d="M349.666 101.852C350.124 101.852 350.53 101.689 350.884 101.362C351.248 101.035 351.528 100.578 351.724 99.99C351.92 99.3927 352.018 98.7113 352.018 97.946C352.018 97.1713 351.92 96.49 351.724 95.902C351.528 95.314 351.253 94.8567 350.898 94.53C350.544 94.2033 350.133 94.04 349.666 94.04C349.2 94.04 348.784 94.2033 348.42 94.53C348.066 94.8567 347.79 95.314 347.594 95.902C347.398 96.49 347.3 97.1713 347.3 97.946C347.3 98.7113 347.398 99.3927 347.594 99.99C347.79 100.578 348.066 101.035 348.42 101.362C348.784 101.689 349.2 101.852 349.666 101.852ZM345.844 97.946C345.844 96.9473 346.008 96.056 346.334 95.272C346.661 94.4787 347.114 93.8627 347.692 93.424C348.271 92.976 348.929 92.752 349.666 92.752C350.404 92.752 351.062 92.976 351.64 93.424C352.219 93.8627 352.667 94.4787 352.984 95.272C353.311 96.056 353.474 96.9473 353.474 97.946C353.474 98.9447 353.311 99.8407 352.984 100.634C352.667 101.418 352.219 102.029 351.64 102.468C351.062 102.907 350.404 103.126 349.666 103.126C348.929 103.126 348.271 102.907 347.692 102.468C347.114 102.029 346.661 101.418 346.334 100.634C346.008 99.8407 345.844 98.9447 345.844 97.946ZM358.775 101.964C359.4 101.964 359.909 101.735 360.301 101.278C360.693 100.811 360.889 100.205 360.889 99.458C360.889 98.7207 360.693 98.1233 360.301 97.666C359.909 97.2087 359.4 96.98 358.775 96.98C358.383 96.98 358.019 97.092 357.683 97.316C357.347 97.54 357.081 97.8433 356.885 98.226C356.689 98.5993 356.591 99.01 356.591 99.458C356.591 99.9153 356.689 100.335 356.885 100.718C357.081 101.101 357.347 101.404 357.683 101.628C358.019 101.852 358.383 101.964 358.775 101.964ZM355.121 95.776H356.577V97.036C356.829 96.616 357.179 96.3033 357.627 96.098C358.075 95.8833 358.485 95.776 358.859 95.776C359.54 95.776 360.142 95.9347 360.665 96.252C361.197 96.56 361.607 96.994 361.897 97.554C362.195 98.1047 362.345 98.7393 362.345 99.458C362.345 100.177 362.195 100.821 361.897 101.39C361.607 101.95 361.197 102.389 360.665 102.706C360.142 103.014 359.54 103.168 358.859 103.168C358.485 103.168 358.075 103.061 357.627 102.846C357.179 102.622 356.829 102.3 356.577 101.88V106.234H355.121V95.776ZM367.488 99.444L370.19 103.098H368.384L366.634 100.62L364.898 103.098H363.092L365.752 99.444L363.036 95.776H364.856L366.634 98.324L368.398 95.776H370.218L367.488 99.444Z" fill="#6B6B6B"/>
<path d="M541.666 101.852C542.124 101.852 542.53 101.689 542.884 101.362C543.248 101.035 543.528 100.578 543.724 99.99C543.92 99.3927 544.018 98.7113 544.018 97.946C544.018 97.1713 543.92 96.49 543.724 95.902C543.528 95.314 543.253 94.8567 542.898 94.53C542.544 94.2033 542.133 94.04 541.666 94.04C541.2 94.04 540.784 94.2033 540.42 94.53C540.066 94.8567 539.79 95.314 539.594 95.902C539.398 96.49 539.3 97.1713 539.3 97.946C539.3 98.7113 539.398 99.3927 539.594 99.99C539.79 100.578 540.066 101.035 540.42 101.362C540.784 101.689 541.2 101.852 541.666 101.852ZM537.844 97.946C537.844 96.9473 538.008 96.056 538.334 95.272C538.661 94.4787 539.114 93.8627 539.692 93.424C540.271 92.976 540.929 92.752 541.666 92.752C542.404 92.752 543.062 92.976 543.64 93.424C544.219 93.8627 544.667 94.4787 544.984 95.272C545.311 96.056 545.474 96.9473 545.474 97.946C545.474 98.9447 545.311 99.8407 544.984 100.634C544.667 101.418 544.219 102.029 543.64 102.468C543.062 102.907 542.404 103.126 541.666 103.126C540.929 103.126 540.271 102.907 539.692 102.468C539.114 102.029 538.661 101.418 538.334 100.634C538.008 99.8407 537.844 98.9447 537.844 97.946ZM550.775 101.964C551.4 101.964 551.909 101.735 552.301 101.278C552.693 100.811 552.889 100.205 552.889 99.458C552.889 98.7207 552.693 98.1233 552.301 97.666C551.909 97.2087 551.4 96.98 550.775 96.98C550.383 96.98 550.019 97.092 549.683 97.316C549.347 97.54 549.081 97.8433 548.885 98.226C548.689 98.5993 548.591 99.01 548.591 99.458C548.591 99.9153 548.689 100.335 548.885 100.718C549.081 101.101 549.347 101.404 549.683 101.628C550.019 101.852 550.383 101.964 550.775 101.964ZM547.121 95.776H548.577V97.036C548.829 96.616 549.179 96.3033 549.627 96.098C550.075 95.8833 550.485 95.776 550.859 95.776C551.54 95.776 552.142 95.9347 552.665 96.252C553.197 96.56 553.607 96.994 553.897 97.554C554.195 98.1047 554.345 98.7393 554.345 99.458C554.345 100.177 554.195 100.821 553.897 101.39C553.607 101.95 553.197 102.389 552.665 102.706C552.142 103.014 551.54 103.168 550.859 103.168C550.485 103.168 550.075 103.061 549.627 102.846C549.179 102.622 548.829 102.3 548.577 101.88V106.234H547.121V95.776ZM559.488 99.444L562.19 103.098H560.384L558.634 100.62L556.898 103.098H555.092L557.752 99.444L555.036 95.776H556.856L558.634 98.324L560.398 95.776H562.218L559.488 99.444Z" fill="#6B6B6B"/>
<path d="M550 62.5V87.5" stroke="#BB362A"/>
<path d="M358 62.5V87.5" stroke="#BB362A"/>
</svg>
