<svg width="908" height="163" viewBox="0 0 908 163" fill="none" xmlns="http://www.w3.org/2000/svg">
<rect width="907" height="163" transform="translate(0.5)" fill="white"/>
<rect x="358" y="93" width="24" height="24" rx="4" transform="rotate(180 358 93)" fill="#F7F7F7"/>
<path d="M351 87L346 81L351 75" stroke="#C2C2C2" stroke-width="1.4" stroke-linejoin="bevel"/>
<path d="M346 87L341 81L346 75" stroke="#C2C2C2" stroke-width="1.4" stroke-linejoin="bevel"/>
<rect x="382" y="93" width="24" height="24" rx="4" transform="rotate(180 382 93)" fill="#F7F7F7"/>
<path d="M372 87L367 81L372 75" stroke="#C2C2C2" stroke-width="1.4" stroke-linejoin="bevel"/>
<path d="M386.5 73C386.5 71.067 388.067 69.5 390 69.5H406C407.933 69.5 409.5 71.067 409.5 73V89C409.5 90.933 407.933 92.5 406 92.5H390C388.067 92.5 386.5 90.933 386.5 89V73Z" fill="white"/>
<path d="M386.5 73C386.5 71.067 388.067 69.5 390 69.5H406C407.933 69.5 409.5 71.067 409.5 73V89C409.5 90.933 407.933 92.5 406 92.5H390C388.067 92.5 386.5 90.933 386.5 89V73Z" stroke="#368FF7"/>
<path d="M397.72 85.896C398.467 85.896 399.075 85.656 399.544 85.176C400.013 84.696 400.248 84.072 400.248 83.304C400.248 82.5467 400.013 81.9227 399.544 81.432C399.075 80.9413 398.467 80.696 397.72 80.696C396.995 80.696 396.397 80.9413 395.928 81.432C395.469 81.9227 395.24 82.5467 395.24 83.304C395.24 84.072 395.469 84.696 395.928 85.176C396.397 85.656 396.995 85.896 397.72 85.896ZM393.832 83.304C393.832 82.568 394.04 81.8427 394.456 81.128L397.688 75.416H399.32L396.936 79.544C397.224 79.4907 397.501 79.464 397.768 79.464C398.525 79.464 399.197 79.6293 399.784 79.96C400.371 80.28 400.829 80.7333 401.16 81.32C401.491 81.896 401.656 82.5573 401.656 83.304C401.656 84.0507 401.491 84.7173 401.16 85.304C400.829 85.88 400.365 86.3333 399.768 86.664C399.181 86.984 398.509 87.144 397.752 87.144C396.995 87.144 396.317 86.984 395.72 86.664C395.123 86.3333 394.659 85.88 394.328 85.304C393.997 84.7173 393.832 84.0507 393.832 83.304Z" fill="#121212"/>
<path d="M414 73C414 70.7909 415.791 69 418 69H434C436.209 69 438 70.7909 438 73V89C438 91.2091 436.209 93 434 93H418C415.791 93 414 91.2091 414 89V73Z" fill="#F7F7F7"/>
<path d="M423.436 87.032L428.06 76.648H422.572V75.4H429.436L429.596 76.648L424.972 87.032H423.436Z" fill="#6B6B6B"/>
<path d="M442 73C442 70.7909 443.791 69 446 69H462C464.209 69 466 70.7909 466 73V89C466 91.2091 464.209 93 462 93H446C443.791 93 442 91.2091 442 89V73Z" fill="#F7F7F7"/>
<path d="M453.688 85.96C454.403 85.96 454.989 85.752 455.448 85.336C455.907 84.92 456.136 84.3813 456.136 83.72C456.136 83.08 455.907 82.5573 455.448 82.152C454.989 81.736 454.403 81.528 453.688 81.528C452.973 81.528 452.387 81.736 451.928 82.152C451.469 82.5573 451.24 83.08 451.24 83.72C451.24 84.3813 451.469 84.92 451.928 85.336C452.387 85.752 452.973 85.96 453.688 85.96ZM449.832 83.72C449.832 83.208 450.008 82.6907 450.36 82.168C450.712 81.6453 451.171 81.224 451.736 80.904C451.267 80.584 450.883 80.1947 450.584 79.736C450.296 79.2667 450.152 78.824 450.152 78.408C450.152 77.7893 450.301 77.24 450.6 76.76C450.899 76.28 451.315 75.9067 451.848 75.64C452.392 75.3627 453.005 75.224 453.688 75.224C454.381 75.224 454.995 75.3627 455.528 75.64C456.072 75.9067 456.493 76.28 456.792 76.76C457.101 77.24 457.256 77.7893 457.256 78.408C457.256 78.824 457.107 79.2667 456.808 79.736C456.509 80.2053 456.131 80.5947 455.672 80.904C456.227 81.224 456.675 81.6453 457.016 82.168C457.368 82.6907 457.544 83.208 457.544 83.72C457.544 84.392 457.379 84.9947 457.048 85.528C456.728 86.0507 456.275 86.4613 455.688 86.76C455.101 87.048 454.435 87.192 453.688 87.192C452.941 87.192 452.275 87.048 451.688 86.76C451.112 86.4613 450.659 86.0507 450.328 85.528C449.997 84.9947 449.832 84.392 449.832 83.72ZM451.56 78.392C451.56 78.9467 451.757 79.4053 452.152 79.768C452.547 80.12 453.059 80.296 453.688 80.296C454.317 80.296 454.835 80.12 455.24 79.768C455.645 79.4053 455.848 78.9467 455.848 78.392C455.848 77.816 455.645 77.3467 455.24 76.984C454.835 76.6213 454.317 76.44 453.688 76.44C453.059 76.44 452.547 76.6213 452.152 76.984C451.757 77.3467 451.56 77.816 451.56 78.392Z" fill="#6B6B6B"/>
<path d="M470 73C470 70.7909 471.791 69 474 69H490C492.209 69 494 70.7909 494 73V89C494 91.2091 492.209 93 490 93H474C471.791 93 470 91.2091 470 89V73Z" fill="#F7F7F7"/>
<path d="M481.768 76.536C481.021 76.536 480.413 76.7813 479.944 77.272C479.475 77.752 479.24 78.3707 479.24 79.128C479.24 79.896 479.475 80.5253 479.944 81.016C480.413 81.496 481.021 81.736 481.768 81.736C482.493 81.736 483.085 81.496 483.544 81.016C484.013 80.5253 484.248 79.896 484.248 79.128C484.248 78.3707 484.013 77.752 483.544 77.272C483.085 76.7813 482.493 76.536 481.768 76.536ZM477.832 79.128C477.832 78.392 477.997 77.736 478.328 77.16C478.659 76.5733 479.123 76.12 479.72 75.8C480.317 75.4693 480.995 75.304 481.752 75.304C482.509 75.304 483.181 75.4693 483.768 75.8C484.365 76.12 484.829 76.5733 485.16 77.16C485.491 77.736 485.656 78.392 485.656 79.128C485.656 79.864 485.453 80.5893 485.048 81.304L481.8 87.032H480.184L482.552 82.888C482.211 82.952 481.939 82.984 481.736 82.984C480.979 82.984 480.301 82.8187 479.704 82.488C479.117 82.1573 478.659 81.704 478.328 81.128C477.997 80.5413 477.832 79.8747 477.832 79.128Z" fill="#6B6B6B"/>
<path d="M498 73C498 70.7909 499.791 69 502 69H518C520.209 69 522 70.7909 522 73V89C522 91.2091 520.209 93 518 93H502C499.791 93 498 91.2091 498 89V73Z" fill="#F7F7F7"/>
<path d="M506.22 87.016H504.812V76.984L502.892 78.184L502.22 77.048L504.812 75.432H506.22V87.016ZM512.693 85.896C513.237 85.896 513.722 85.6987 514.149 85.304C514.576 84.9093 514.906 84.36 515.141 83.656C515.386 82.9413 515.509 82.1307 515.509 81.224C515.509 80.3173 515.386 79.512 515.141 78.808C514.906 78.104 514.576 77.5547 514.149 77.16C513.722 76.7653 513.237 76.568 512.693 76.568C512.138 76.568 511.648 76.7653 511.221 77.16C510.794 77.5547 510.458 78.104 510.213 78.808C509.978 79.512 509.861 80.3173 509.861 81.224C509.861 82.1307 509.978 82.9413 510.213 83.656C510.458 84.36 510.794 84.9093 511.221 85.304C511.648 85.6987 512.138 85.896 512.693 85.896ZM508.453 81.224C508.453 80.0827 508.634 79.064 508.997 78.168C509.36 77.272 509.861 76.5733 510.501 76.072C511.141 75.5707 511.872 75.32 512.693 75.32C513.514 75.32 514.245 75.5707 514.885 76.072C515.525 76.5733 516.021 77.272 516.373 78.168C516.736 79.064 516.917 80.0827 516.917 81.224C516.917 82.3653 516.736 83.384 516.373 84.28C516.021 85.176 515.525 85.8747 514.885 86.376C514.245 86.8773 513.514 87.128 512.693 87.128C511.872 87.128 511.141 86.8773 510.501 86.376C509.861 85.8747 509.36 85.176 508.997 84.28C508.634 83.384 508.453 82.3653 508.453 81.224Z" fill="#6B6B6B"/>
<rect x="526" y="69" width="24" height="24" rx="4" fill="#F7F7F7"/>
<path d="M536 75L541 81L536 87" stroke="#C2C2C2" stroke-width="1.4" stroke-linejoin="bevel"/>
<rect x="550" y="69" width="24" height="24" rx="4" fill="#F7F7F7"/>
<path d="M557 75L562 81L557 87" stroke="#C2C2C2" stroke-width="1.4" stroke-linejoin="bevel"/>
<path d="M562 75L567 81L562 87" stroke="#C2C2C2" stroke-width="1.4" stroke-linejoin="bevel"/>
<rect x="386" y="133" width="24" height="24" rx="4" transform="rotate(180 386 133)" fill="#F7F7F7"/>
<path d="M379 127L374 121L379 115" stroke="#C2C2C2" stroke-width="1.4" stroke-linejoin="bevel"/>
<path d="M374 127L369 121L374 115" stroke="#C2C2C2" stroke-width="1.4" stroke-linejoin="bevel"/>
<rect x="410" y="133" width="24" height="24" rx="4" transform="rotate(180 410 133)" fill="#F7F7F7"/>
<path d="M400 127L395 121L400 115" stroke="#C2C2C2" stroke-width="1.4" stroke-linejoin="bevel"/>
<path d="M414.5 113C414.5 111.067 416.067 109.5 418 109.5H434C435.933 109.5 437.5 111.067 437.5 113V129C437.5 130.933 435.933 132.5 434 132.5H418C416.067 132.5 414.5 130.933 414.5 129V113Z" fill="white"/>
<path d="M414.5 113C414.5 111.067 416.067 109.5 418 109.5H434C435.933 109.5 437.5 111.067 437.5 113V129C437.5 130.933 435.933 132.5 434 132.5H418C416.067 132.5 414.5 130.933 414.5 129V113Z" stroke="#368FF7"/>
<path d="M423.72 127.016H422.312V116.984L420.392 118.184L419.72 117.048L422.312 115.432H423.72V127.016ZM430.498 127.016H429.09V116.984L427.17 118.184L426.498 117.048L429.09 115.432H430.498V127.016Z" fill="#121212"/>
<path d="M442 113C442 110.791 443.791 109 446 109H462C464.209 109 466 110.791 466 113V129C466 131.209 464.209 133 462 133H446C443.791 133 442 131.209 442 129V113Z" fill="#F7F7F7"/>
<path d="M450.72 127.016H449.312V116.984L447.392 118.184L446.72 117.048L449.312 115.432H450.72V127.016ZM453.113 125.784C453.038 125.848 453.502 125.416 454.505 124.488C455.422 123.656 456.164 122.957 456.729 122.392C457.294 121.816 457.774 121.229 458.169 120.632C458.564 120.035 458.761 119.48 458.761 118.968C458.761 118.264 458.558 117.688 458.153 117.24C457.758 116.792 457.241 116.568 456.601 116.568C456.132 116.568 455.673 116.728 455.225 117.048C454.788 117.357 454.462 117.763 454.249 118.264L452.985 117.72C453.294 117.005 453.785 116.424 454.457 115.976C455.14 115.517 455.854 115.288 456.601 115.288C457.294 115.288 457.908 115.448 458.441 115.768C458.985 116.077 459.406 116.509 459.705 117.064C460.014 117.619 460.169 118.253 460.169 118.968C460.169 119.672 459.95 120.387 459.513 121.112C459.076 121.827 458.548 122.499 457.929 123.128C457.321 123.747 456.532 124.488 455.561 125.352L455.081 125.784H460.361V127.032H453.273L453.113 125.784Z" fill="#6B6B6B"/>
<path d="M470 113C470 110.791 471.791 109 474 109H490C492.209 109 494 110.791 494 113V129C494 131.209 492.209 133 490 133H474C471.791 133 470 131.209 470 129V113Z" fill="#F7F7F7"/>
<path d="M478.72 127.016H477.312V116.984L475.392 118.184L474.72 117.048L477.312 115.432H478.72V127.016ZM486.985 121.032C487.486 121.331 487.881 121.736 488.169 122.248C488.468 122.749 488.617 123.251 488.617 123.752C488.617 124.403 488.452 124.984 488.121 125.496C487.801 125.997 487.353 126.392 486.777 126.68C486.201 126.968 485.54 127.112 484.793 127.112C484.057 127.112 483.396 126.968 482.809 126.68C482.233 126.392 481.78 125.992 481.449 125.48C481.129 124.957 480.969 124.365 480.969 123.704H482.377C482.377 124.333 482.601 124.851 483.049 125.256C483.497 125.661 484.078 125.864 484.793 125.864C485.508 125.864 486.094 125.661 486.553 125.256C487.012 124.851 487.241 124.333 487.241 123.704C487.241 123.096 487.012 122.6 486.553 122.216C486.105 121.832 485.529 121.64 484.825 121.64H483.977V120.408H484.825C485.476 120.408 486.009 120.232 486.425 119.88C486.852 119.528 487.065 119.075 487.065 118.52C487.065 117.955 486.862 117.491 486.457 117.128C486.052 116.765 485.529 116.584 484.889 116.584C484.249 116.584 483.726 116.765 483.321 117.128C482.916 117.491 482.713 117.96 482.713 118.536H481.305C481.305 117.917 481.454 117.368 481.753 116.888C482.062 116.397 482.489 116.019 483.033 115.752C483.577 115.475 484.196 115.336 484.889 115.336C485.572 115.336 486.185 115.469 486.729 115.736C487.273 116.003 487.694 116.376 487.993 116.856C488.302 117.336 488.457 117.88 488.457 118.488C488.457 118.936 488.324 119.395 488.057 119.864C487.79 120.333 487.433 120.723 486.985 121.032Z" fill="#6B6B6B"/>
<rect x="498" y="109" width="24" height="24" rx="4" fill="#F7F7F7"/>
<path d="M508 115L513 121L508 127" stroke="#C2C2C2" stroke-width="1.4" stroke-linejoin="bevel"/>
<rect x="522" y="109" width="24" height="24" rx="4" fill="#F7F7F7"/>
<path d="M529 115L534 121L529 127" stroke="#C2C2C2" stroke-width="1.4" stroke-linejoin="bevel"/>
<path d="M534 115L539 121L534 127" stroke="#C2C2C2" stroke-width="1.4" stroke-linejoin="bevel"/>
<rect x="358" y="53" width="24" height="24" rx="4" transform="rotate(180 358 53)" fill="#F7F7F7"/>
<path d="M351 47L346 41L351 35" stroke="#C2C2C2" stroke-width="1.4" stroke-linejoin="bevel"/>
<path d="M346 47L341 41L346 35" stroke="#C2C2C2" stroke-width="1.4" stroke-linejoin="bevel"/>
<rect x="382" y="53" width="24" height="24" rx="4" transform="rotate(180 382 53)" fill="#F7F7F7"/>
<path d="M372 47L367 41L372 35" stroke="#C2C2C2" stroke-width="1.4" stroke-linejoin="bevel"/>
<path d="M386.5 33C386.5 31.067 388.067 29.5 390 29.5H406C407.933 29.5 409.5 31.067 409.5 33V49C409.5 50.933 407.933 52.5 406 52.5H390C388.067 52.5 386.5 50.933 386.5 49V33Z" fill="white"/>
<path d="M386.5 33C386.5 31.067 388.067 29.5 390 29.5H406C407.933 29.5 409.5 31.067 409.5 33V49C409.5 50.933 407.933 52.5 406 52.5H390C388.067 52.5 386.5 50.933 386.5 49V33Z" stroke="#368FF7"/>
<path d="M399.22 47.016H397.812V36.984L395.892 38.184L395.22 37.048L397.812 35.432H399.22V47.016Z" fill="#121212"/>
<path d="M414 33C414 30.7909 415.791 29 418 29H434C436.209 29 438 30.7909 438 33V49C438 51.2091 436.209 53 434 53H418C415.791 53 414 51.2091 414 49V33Z" fill="#F7F7F7"/>
<path d="M421.976 45.784C421.901 45.848 422.365 45.416 423.368 44.488C424.285 43.656 425.027 42.9573 425.592 42.392C426.157 41.816 426.637 41.2293 427.032 40.632C427.427 40.0347 427.624 39.48 427.624 38.968C427.624 38.264 427.421 37.688 427.016 37.24C426.621 36.792 426.104 36.568 425.464 36.568C424.995 36.568 424.536 36.728 424.088 37.048C423.651 37.3573 423.325 37.7627 423.112 38.264L421.848 37.72C422.157 37.0053 422.648 36.424 423.32 35.976C424.003 35.5173 424.717 35.288 425.464 35.288C426.157 35.288 426.771 35.448 427.304 35.768C427.848 36.0773 428.269 36.5093 428.568 37.064C428.877 37.6187 429.032 38.2533 429.032 38.968C429.032 39.672 428.813 40.3867 428.376 41.112C427.939 41.8267 427.411 42.4987 426.792 43.128C426.184 43.7467 425.395 44.488 424.424 45.352L423.944 45.784H429.224V47.032H422.136L421.976 45.784Z" fill="#6B6B6B"/>
<path d="M442 33C442 30.7909 443.791 29 446 29H462C464.209 29 466 30.7909 466 33V49C466 51.2091 464.209 53 462 53H446C443.791 53 442 51.2091 442 49V33Z" fill="#F7F7F7"/>
<path d="M455.848 41.032C456.349 41.3307 456.744 41.736 457.032 42.248C457.331 42.7493 457.48 43.2507 457.48 43.752C457.48 44.4027 457.315 44.984 456.984 45.496C456.664 45.9973 456.216 46.392 455.64 46.68C455.064 46.968 454.403 47.112 453.656 47.112C452.92 47.112 452.259 46.968 451.672 46.68C451.096 46.392 450.643 45.992 450.312 45.48C449.992 44.9573 449.832 44.3653 449.832 43.704H451.24C451.24 44.3333 451.464 44.8507 451.912 45.256C452.36 45.6613 452.941 45.864 453.656 45.864C454.371 45.864 454.957 45.6613 455.416 45.256C455.875 44.8507 456.104 44.3333 456.104 43.704C456.104 43.096 455.875 42.6 455.416 42.216C454.968 41.832 454.392 41.64 453.688 41.64H452.84V40.408H453.688C454.339 40.408 454.872 40.232 455.288 39.88C455.715 39.528 455.928 39.0747 455.928 38.52C455.928 37.9547 455.725 37.4907 455.32 37.128C454.915 36.7653 454.392 36.584 453.752 36.584C453.112 36.584 452.589 36.7653 452.184 37.128C451.779 37.4907 451.576 37.96 451.576 38.536H450.168C450.168 37.9173 450.317 37.368 450.616 36.888C450.925 36.3973 451.352 36.0187 451.896 35.752C452.44 35.4747 453.059 35.336 453.752 35.336C454.435 35.336 455.048 35.4693 455.592 35.736C456.136 36.0027 456.557 36.376 456.856 36.856C457.165 37.336 457.32 37.88 457.32 38.488C457.32 38.936 457.187 39.3947 456.92 39.864C456.653 40.3333 456.296 40.7227 455.848 41.032Z" fill="#6B6B6B"/>
<path d="M470 33C470 30.7909 471.791 29 474 29H490C492.209 29 494 30.7909 494 33V49C494 51.2091 492.209 53 490 53H474C471.791 53 470 51.2091 470 49V33Z" fill="#F7F7F7"/>
<path d="M484.44 42.648H486.04V43.88H484.44V47.016H483.032V43.88H477.992L477.832 42.648L483.08 35.432H484.44V42.648ZM483.032 42.648V37.816L479.528 42.648H483.032Z" fill="#6B6B6B"/>
<path d="M498 33C498 30.7909 499.791 29 502 29H518C520.209 29 522 30.7909 522 33V49C522 51.2091 520.209 53 518 53H502C499.791 53 498 51.2091 498 49V33Z" fill="#F7F7F7"/>
<path d="M506.344 41.48L506.728 35.416H512.712V36.664H508.088L507.88 39.88C508.499 39.5813 509.091 39.432 509.656 39.432C510.435 39.432 511.123 39.5973 511.72 39.928C512.328 40.248 512.803 40.7013 513.144 41.288C513.485 41.864 513.656 42.5253 513.656 43.272C513.656 44.0293 513.485 44.7067 513.144 45.304C512.803 45.8907 512.328 46.3493 511.72 46.68C511.123 47.0107 510.435 47.176 509.656 47.176C509.059 47.176 508.493 47.0533 507.96 46.808C507.427 46.552 506.973 46.2 506.6 45.752C506.237 45.2933 505.987 44.7813 505.848 44.216L507.224 43.896C507.352 44.472 507.64 44.9413 508.088 45.304C508.547 45.6667 509.069 45.848 509.656 45.848C510.413 45.848 511.032 45.608 511.512 45.128C512.003 44.648 512.248 44.0293 512.248 43.272C512.248 42.536 512.003 41.9333 511.512 41.464C511.032 40.9947 510.413 40.76 509.656 40.76C509.336 40.76 509 40.8453 508.648 41.016C508.296 41.1867 507.997 41.4107 507.752 41.688L506.344 41.48Z" fill="#6B6B6B"/>
<rect x="526" y="29" width="24" height="24" rx="4" fill="#F7F7F7"/>
<path d="M536 35L541 41L536 47" stroke="#C2C2C2" stroke-width="1.4" stroke-linejoin="bevel"/>
<rect x="550" y="29" width="24" height="24" rx="4" fill="#F7F7F7"/>
<path d="M557 35L562 41L557 47" stroke="#C2C2C2" stroke-width="1.4" stroke-linejoin="bevel"/>
<path d="M562 35L567 41L562 47" stroke="#C2C2C2" stroke-width="1.4" stroke-linejoin="bevel"/>
</svg>
