<svg xmlns="http://www.w3.org/2000/svg" width="908" height="140" fill="none" viewBox="0 0 908 140"><path fill="#fff" d="M0 0h908v140H0z"/><circle cx="417" cy="40" r="9.5" fill="#EBF4FE" stroke="#368FF7"/><circle cx="417" cy="40" r="5" fill="#368FF7"/><path fill="#121212" d="M443.358 35.928h-3.108v9.128h-1.232v-9.128h-3.122v-1.092h7.462zm5.417 5.04q-.097-.896-.588-1.498-.476-.615-1.442-.616-.882 0-1.512.602-.616.588-.742 1.526zm-5.502.476q0-1.065.434-1.89.433-.825 1.218-1.288.784-.462 1.778-.462 2.087 0 2.982 1.96.294.784.294 1.666 0 .239-.014.392l-.014.154h-5.46q.14.91.756 1.484.63.574 1.47.574.672 0 1.106-.21.448-.21.616-.406.182-.21.322-.42l.98.504q-.322.658-1.106 1.12-.77.462-1.932.462-.994 0-1.778-.462a3.17 3.17 0 0 1-1.218-1.288q-.434-.825-.434-1.89m11.56 0 2.702 3.612h-1.526l-1.862-2.576-1.834 2.576h-1.54l2.674-3.612-2.702-3.626h1.554l1.848 2.618 1.862-2.618h1.54zm6.619 3.64q-.895 0-1.47-.588-.573-.588-.602-1.512v-4.046h-1.204V37.86h1.204v-1.918h1.232v1.918h1.554v1.078h-1.554V42.9q0 .42.238.728.239.308.602.308.21 0 .378-.028t.336-.07l.224 1.134a4.6 4.6 0 0 1-.938.112"/><circle cx="417" cy="70" r="9.5" fill="#EBF4FE" stroke="#368FF7"/><circle cx="417" cy="70" r="5" fill="#368FF7"/><path fill="#121212" d="M443.358 65.928h-3.108v9.128h-1.232v-9.128h-3.122v-1.092h7.462zm5.417 5.04q-.097-.896-.588-1.498-.476-.615-1.442-.616-.882 0-1.512.602-.616.587-.742 1.526zm-5.502.476q0-1.065.434-1.89.433-.826 1.218-1.288t1.778-.462q2.087 0 2.982 1.96.294.784.294 1.666 0 .239-.014.392l-.014.154h-5.46q.14.91.756 1.484.63.574 1.47.574.672 0 1.106-.21.448-.21.616-.406.182-.21.322-.42l.98.504q-.322.658-1.106 1.12-.77.462-1.932.462-.994 0-1.778-.462a3.17 3.17 0 0 1-1.218-1.288q-.434-.825-.434-1.89m11.56 0 2.702 3.612h-1.526l-1.862-2.576-1.834 2.576h-1.54l2.674-3.612-2.702-3.626h1.554l1.848 2.618 1.862-2.618h1.54zm6.619 3.64q-.895 0-1.47-.588-.573-.588-.602-1.512v-4.046h-1.204V67.86h1.204v-1.918h1.232v1.918h1.554v1.078h-1.554V72.9q0 .42.238.728.239.308.602.308.21 0 .378-.028t.336-.07l.224 1.134a4.6 4.6 0 0 1-.938.112"/><circle cx="417" cy="100" r="9.5" fill="#EBF4FE" stroke="#368FF7"/><circle cx="417" cy="100" r="5" fill="#368FF7"/><path fill="#121212" d="M443.358 95.928h-3.108v9.128h-1.232v-9.128h-3.122v-1.092h7.462zm5.417 5.04q-.097-.896-.588-1.498-.476-.615-1.442-.616-.882 0-1.512.602-.616.588-.742 1.526zm-5.502.476q0-1.064.434-1.89.433-.826 1.218-1.288t1.778-.462q2.087 0 2.982 1.96.294.784.294 1.666a5 5 0 0 1-.028.546h-5.46q.14.91.756 1.484.63.574 1.47.574.672 0 1.106-.21.448-.21.616-.406.182-.21.322-.42l.98.504q-.322.658-1.106 1.12-.77.462-1.932.462-.994 0-1.778-.462a3.17 3.17 0 0 1-1.218-1.288q-.434-.827-.434-1.89m11.56 0 2.702 3.612h-1.526l-1.862-2.576-1.834 2.576h-1.54l2.674-3.612-2.702-3.626h1.554l1.848 2.618 1.862-2.618h1.54zm6.619 3.64q-.895 0-1.47-.588-.573-.588-.602-1.512v-4.046h-1.204V97.86h1.204v-1.918h1.232v1.918h1.554v1.078h-1.554v3.962q0 .42.238.728.239.308.602.308.21 0 .378-.028t.336-.07l.224 1.134a4.6 4.6 0 0 1-.938.112"/><path stroke="#6B6B6B" stroke-width="1.2" d="M468 51v8"/><path fill="red" fill-opacity=".1" d="M468 51v8h-61v-8z"/><path fill="#6B6B6B" d="M479.172 58.964q.882 0 1.428-.504.56-.518.56-1.33t-.56-1.316q-.546-.518-1.428-.518-.896 0-1.456.518-.56.504-.56 1.316t.56 1.33q.56.504 1.456.504m-3.472-1.806q0-.686.476-1.372a3.46 3.46 0 0 1 1.218-1.106 3.5 3.5 0 0 1-1.008-1.036q-.392-.616-.392-1.162a2.6 2.6 0 0 1 .406-1.442q.406-.644 1.12-.994.728-.364 1.652-.364t1.638.364q.728.35 1.134.994.406.63.406 1.442 0 .56-.392 1.176t-1.008 1.022q.742.42 1.204 1.106t.462 1.372q0 .882-.434 1.582a3 3 0 0 1-1.218 1.078q-.784.378-1.792.378t-1.806-.378a3.1 3.1 0 0 1-1.232-1.078 2.94 2.94 0 0 1-.434-1.582m1.75-4.676q0 .7.476 1.134t1.246.434q.756 0 1.232-.434.49-.448.49-1.134t-.49-1.12q-.476-.448-1.232-.448-.77 0-1.246.434t-.476 1.134m10.483 6.482q.938 0 1.526-.686.588-.7.588-1.82 0-1.106-.588-1.792t-1.526-.686a1.93 1.93 0 0 0-1.092.336 2.37 2.37 0 0 0-.798.91 2.6 2.6 0 0 0-.294 1.232q0 .686.294 1.26t.798.91 1.092.336m-3.654-6.188h1.456v1.26q.378-.63 1.05-.938.672-.322 1.232-.322 1.022 0 1.806.476.798.462 1.232 1.302.448.825.448 1.904t-.448 1.932q-.434.84-1.232 1.316-.784.462-1.806.462-.56 0-1.232-.322a2.5 2.5 0 0 1-1.05-.966v4.354h-1.456zm12.367 3.668 2.702 3.654h-1.806l-1.75-2.478-1.736 2.478h-1.806l2.66-3.654-2.716-3.668h1.82l1.778 2.548 1.764-2.548h1.82z"/><path stroke="#6B6B6B" stroke-width="1.2" d="M468 81v8"/><path fill="red" fill-opacity=".1" d="M468 81v8h-61v-8z"/><path fill="#6B6B6B" d="M479.172 88.964q.882 0 1.428-.504.56-.518.56-1.33t-.56-1.316q-.546-.518-1.428-.518-.896 0-1.456.518-.56.504-.56 1.316t.56 1.33q.56.504 1.456.504m-3.472-1.806q0-.686.476-1.372a3.46 3.46 0 0 1 1.218-1.106 3.5 3.5 0 0 1-1.008-1.036q-.392-.615-.392-1.162a2.6 2.6 0 0 1 .406-1.442q.406-.644 1.12-.994.728-.364 1.652-.364t1.638.364q.728.35 1.134.994.406.63.406 1.442 0 .56-.392 1.176t-1.008 1.022q.742.42 1.204 1.106t.462 1.372q0 .882-.434 1.582a3 3 0 0 1-1.218 1.078q-.784.378-1.792.378t-1.806-.378a3.1 3.1 0 0 1-1.232-1.078 2.94 2.94 0 0 1-.434-1.582m1.75-4.676q0 .7.476 1.134t1.246.434q.756 0 1.232-.434.49-.449.49-1.134t-.49-1.12q-.476-.448-1.232-.448-.77 0-1.246.434t-.476 1.134m10.483 6.482q.938 0 1.526-.686.588-.7.588-1.82 0-1.106-.588-1.792t-1.526-.686a1.93 1.93 0 0 0-1.092.336 2.37 2.37 0 0 0-.798.91 2.6 2.6 0 0 0-.294 1.232q0 .685.294 1.26.294.574.798.91t1.092.336m-3.654-6.188h1.456v1.26q.378-.63 1.05-.938.672-.322 1.232-.322 1.022 0 1.806.476.798.462 1.232 1.302.448.825.448 1.904t-.448 1.932q-.434.84-1.232 1.316-.784.462-1.806.462-.56 0-1.232-.322a2.5 2.5 0 0 1-1.05-.966v4.354h-1.456zm12.367 3.668 2.702 3.654h-1.806l-1.75-2.478-1.736 2.478h-1.806l2.66-3.654-2.716-3.668h1.82l1.778 2.548 1.764-2.548h1.82z"/></svg>