<svg xmlns="http://www.w3.org/2000/svg" width="908" height="230" fill="none" viewBox="0 0 908 230"><path fill="#fff" d="M.5 0h907v230H.5z"/><path stroke="#6B6B6B" stroke-width="1.2" d="M479.5 70v-8"/><path fill="#6B6B6B" d="M490.672 69.964q.882 0 1.428-.504.56-.518.56-1.33t-.56-1.316q-.546-.518-1.428-.518-.896 0-1.456.518-.56.504-.56 1.316t.56 1.33q.56.504 1.456.504m-3.472-1.806q0-.686.476-1.372a3.46 3.46 0 0 1 1.218-1.106 3.5 3.5 0 0 1-1.008-1.036q-.392-.615-.392-1.162a2.6 2.6 0 0 1 .406-1.442q.406-.644 1.12-.994.728-.364 1.652-.364t1.638.364q.728.35 1.134.994.406.63.406 1.442 0 .56-.392 1.176t-1.008 1.022q.742.42 1.204 1.106t.462 1.372q0 .882-.434 1.582a3 3 0 0 1-1.218 1.078q-.784.378-1.792.378t-1.806-.378a3.1 3.1 0 0 1-1.232-1.078 2.94 2.94 0 0 1-.434-1.582m1.75-4.676q0 .7.476 1.134t1.246.434q.756 0 1.232-.434.49-.449.49-1.134t-.49-1.12q-.476-.448-1.232-.448-.77 0-1.246.434t-.476 1.134m10.483 6.482q.938 0 1.526-.686.588-.7.588-1.82 0-1.106-.588-1.792t-1.526-.686a1.93 1.93 0 0 0-1.092.336 2.37 2.37 0 0 0-.798.91 2.6 2.6 0 0 0-.294 1.232q0 .685.294 1.26.294.574.798.91t1.092.336m-3.654-6.188h1.456v1.26q.378-.63 1.05-.938.672-.322 1.232-.322 1.022 0 1.806.476.798.462 1.232 1.302.448.825.448 1.904t-.448 1.932q-.434.84-1.232 1.316-.784.462-1.806.462-.56 0-1.232-.322a2.5 2.5 0 0 1-1.05-.966v4.354h-1.456zm12.367 3.668 2.702 3.654h-1.806l-1.75-2.478-1.736 2.478h-1.806l2.66-3.654-2.716-3.668h1.82l1.778 2.548 1.764-2.548h1.82zM289.56 132v-9.953h2.303q.581.006 1.094.123.519.11.957.314a3.7 3.7 0 0 1 1.073.739q.472.45.752 1.046.253.506.383 1.107.137.601.144 1.285v.732q0 .656-.13 1.244a4.6 4.6 0 0 1-.363 1.08 4.027 4.027 0 0 1-1.462 1.64q-.493.308-1.115.472-.615.163-1.333.171zm1.285-8.914v7.882h1.018a3.7 3.7 0 0 0 .991-.137 2.8 2.8 0 0 0 .8-.369q.369-.246.636-.602.273-.362.431-.806.136-.363.205-.78a6 6 0 0 0 .075-.881v-.746a5.6 5.6 0 0 0-.082-.888 4 4 0 0 0-.212-.8 3.1 3.1 0 0 0-.499-.861 2.4 2.4 0 0 0-.759-.629 2.8 2.8 0 0 0-.718-.274 3.7 3.7 0 0 0-.868-.109zm11.679 1.381q.349 0 .725.048.383.048.574.13l-.171 1.237a6 6 0 0 0-.704-.116 5.5 5.5 0 0 0-.69-.041q-.465 0-.841.116a1.9 1.9 0 0 0-.656.328 2 2 0 0 0-.445.472 2.8 2.8 0 0 0-.307.615V132h-1.272v-7.396h1.203l.055.991.007.184a3.4 3.4 0 0 1 1.08-.957 2.9 2.9 0 0 1 1.442-.355m2.786 3.766q0-.8.233-1.483a3.5 3.5 0 0 1 .67-1.196 3 3 0 0 1 1.052-.793 3.24 3.24 0 0 1 1.402-.294q.786 0 1.408.294.629.286 1.066.793.432.506.664 1.196.231.684.232 1.483v.151q0 .8-.232 1.483a3.6 3.6 0 0 1-.664 1.19 3.1 3.1 0 0 1-1.059.793 3.3 3.3 0 0 1-1.401.287 3.4 3.4 0 0 1-1.416-.287 3.05 3.05 0 0 1-1.052-.793 3.5 3.5 0 0 1-.67-1.19 4.6 4.6 0 0 1-.233-1.483zm1.265.151q0 .546.13 1.046.13.492.396.868.26.376.657.595.396.218.923.218.519 0 .909-.218.396-.219.663-.595.26-.376.389-.868.13-.5.13-1.046v-.151q0-.54-.136-1.032a2.8 2.8 0 0 0-.39-.875 2 2 0 0 0-.663-.595 1.8 1.8 0 0 0-.916-.225 1.8 1.8 0 0 0-.916.225q-.39.22-.65.595a2.7 2.7 0 0 0-.396.875 4 4 0 0 0-.13 1.032zm7.072 6.46v-10.24h1.155l.062.806a2.4 2.4 0 0 1 .711-.608q.286-.165.636-.246.356-.09.758-.089.711 0 1.258.28t.916.779q.369.5.561 1.197.19.69.191 1.517v.144q0 .792-.191 1.483a3.7 3.7 0 0 1-.561 1.19 2.65 2.65 0 0 1-.916.793q-.54.287-1.237.287-.424 0-.793-.089a2.6 2.6 0 0 1-.656-.253 3 3 0 0 1-.335-.226 3 3 0 0 1-.294-.28v3.555zm4.984-6.604q0-.54-.123-1.025a2.7 2.7 0 0 0-.363-.868 1.9 1.9 0 0 0-.635-.588 1.8 1.8 0 0 0-.916-.219q-.295 0-.547.068a1.6 1.6 0 0 0-.445.199 1.6 1.6 0 0 0-.389.321 2.4 2.4 0 0 0-.301.424v3.561q.116.206.266.383t.342.301q.219.144.486.225.273.082.601.082a1.8 1.8 0 0 0 .909-.218q.383-.226.629-.602.246-.375.363-.868a4.2 4.2 0 0 0 .123-1.032zm10.87 3.76v-9.953h2.303q.582.006 1.094.123.519.11.957.314a3.7 3.7 0 0 1 1.073.739q.472.45.752 1.046.253.506.383 1.107.137.601.144 1.285v.732q0 .656-.13 1.244a4.6 4.6 0 0 1-.363 1.08 4.027 4.027 0 0 1-1.462 1.64q-.493.308-1.115.472-.615.163-1.333.171zm1.285-8.914v7.882h1.018q.547-.007.992-.137.45-.13.799-.369.369-.246.636-.602.273-.362.431-.806.136-.363.205-.78a6 6 0 0 0 .075-.881v-.746a5.6 5.6 0 0 0-.082-.888 4 4 0 0 0-.212-.8 3.1 3.1 0 0 0-.499-.861 2.4 2.4 0 0 0-.759-.629 2.8 2.8 0 0 0-.718-.274 3.7 3.7 0 0 0-.868-.109zm6.477 5.147q0-.8.233-1.483a3.5 3.5 0 0 1 .67-1.196 3 3 0 0 1 1.052-.793 3.24 3.24 0 0 1 1.402-.294q.786 0 1.408.294.629.286 1.066.793.43.506.663 1.196.233.684.233 1.483v.151q0 .8-.233 1.483a3.6 3.6 0 0 1-.663 1.19 3.1 3.1 0 0 1-1.059.793 3.3 3.3 0 0 1-1.402.287q-.786 0-1.415-.287a3.05 3.05 0 0 1-1.052-.793 3.5 3.5 0 0 1-.67-1.19 4.6 4.6 0 0 1-.233-1.483zm1.265.151q0 .546.13 1.046.129.492.396.868.26.376.656.595.397.218.923.218.52 0 .909-.218a2 2 0 0 0 .664-.595q.26-.376.389-.868.13-.5.13-1.046v-.151q0-.54-.137-1.032a2.7 2.7 0 0 0-.389-.875 2 2 0 0 0-.663-.595 1.8 1.8 0 0 0-.916-.225q-.527 0-.916.225-.39.22-.65.595-.267.376-.396.875a4 4 0 0 0-.13 1.032zm7.79 3.616-1.572-7.396h1.121l.861 4.716.15 1.06.185-1.06 1.183-4.716h.813l1.176 4.716.198 1.162.185-1.162.82-4.716h1.121L350.987 132h-.998l-1.156-4.532-.191-1.149-.185 1.149-1.141 4.532zm7.277 0v-7.396h1.135l.089 1.093a3.3 3.3 0 0 1 .355-.424q.198-.198.417-.341.329-.22.711-.335.39-.123.82-.13.582 0 1.053.164.478.163.814.513.335.348.512.888.185.534.185 1.272V132h-1.265v-4.669q0-.492-.109-.834a1.36 1.36 0 0 0-.321-.554 1.3 1.3 0 0 0-.534-.307 2.4 2.4 0 0 0-.711-.096q-.348 0-.649.103a2.1 2.1 0 0 0-.554.266q-.205.15-.382.349a2.5 2.5 0 0 0-.301.437V132z"/><path fill="red" fill-opacity=".1" d="M406 70v-8h74v8z"/><rect width="73" height="29" x="406.5" y="32.5" fill="#F7F7F7" rx="14.5"/><rect width="73" height="29" x="406.5" y="32.5" stroke="#121212" rx="14.5"/><path fill="#121212" d="M424.887 52.21q-1.483 0-2.646-.672a4.8 4.8 0 0 1-1.806-1.862q-.644-1.204-.644-2.73t.644-2.716a4.7 4.7 0 0 1 1.792-1.876q1.162-.672 2.632-.672 1.05 0 1.974.406.938.406 1.638 1.134l-.952.938a3.2 3.2 0 0 0-1.176-.882 3.5 3.5 0 0 0-1.47-.322q-1.064 0-1.89.504a3.4 3.4 0 0 0-1.274 1.4q-.448.896-.448 2.086 0 1.177.448 2.086a3.5 3.5 0 0 0 1.274 1.4q.826.504 1.89.504.798 0 1.456-.308.672-.323 1.134-.854l1.008.896a5.2 5.2 0 0 1-1.624 1.148 4.55 4.55 0 0 1-1.96.392m10.32-4.018q0-.938-.448-1.512a1.41 1.41 0 0 0-1.176-.588q-.532 0-.98.308-.449.307-.714.826a2.56 2.56 0 0 0-.252 1.134v3.738h-1.456V41.794h1.456v4.144q.322-.504.868-.784a2.3 2.3 0 0 1 1.092-.294q.882 0 1.582.406a2.74 2.74 0 0 1 1.092 1.12q.392.714.392 1.638v4.074h-1.456zm4.794-3.374v7.28h-1.456v-7.28zm-1.554-2.38q0-.364.224-.588a.82.82 0 0 1 .602-.238q.365 0 .588.238.238.224.238.588 0 .35-.238.588a.77.77 0 0 1-.588.238.85.85 0 0 1-.602-.224.85.85 0 0 1-.224-.602m7.208 8.526q.938 0 1.526-.686.588-.7.588-1.82 0-1.106-.588-1.792t-1.526-.686a1.93 1.93 0 0 0-1.092.336 2.37 2.37 0 0 0-.798.91 2.6 2.6 0 0 0-.294 1.232q0 .686.294 1.26t.798.91 1.092.336m-3.654-6.188h1.456v1.26q.378-.63 1.05-.938.671-.322 1.232-.322 1.022 0 1.806.476.797.462 1.232 1.302.447.825.448 1.904 0 1.079-.448 1.932-.435.84-1.232 1.316-.785.462-1.806.462-.56 0-1.232-.322a2.5 2.5 0 0 1-1.05-.966v4.354h-1.456z"/><path stroke="#121212" stroke-linejoin="bevel" stroke-width="1.2" d="m466 48-5-4-5 4"/><path stroke="#6B6B6B" stroke-dasharray="2 2" stroke-width="1.2" d="M369.5 127h36"/><g clip-path="url(#a)"><path fill="#fff" d="M405.5 70h74v42h-74z"/><path fill="#6B6B6B" d="M427.052 86.632H423.5v10.432h-1.408V86.632h-3.568v-1.248h8.528zm6.191 5.76q-.112-1.024-.672-1.712-.544-.704-1.648-.704-1.008 0-1.728.688-.704.672-.848 1.744zm-6.288.544q0-1.215.496-2.16.495-.945 1.392-1.472.895-.528 2.032-.528 2.384 0 3.408 2.24.336.896.336 1.904a5 5 0 0 1-.032.624h-6.24q.159 1.04.864 1.696.72.656 1.68.656.768 0 1.264-.24.512-.24.704-.464.207-.24.368-.48l1.12.576q-.369.752-1.264 1.28-.88.528-2.208.528-1.137 0-2.032-.528a3.6 3.6 0 0 1-1.392-1.472q-.496-.945-.496-2.16m13.211 0 3.088 4.128h-1.744l-2.128-2.944-2.096 2.944h-1.76l3.056-4.128-3.088-4.144h1.776l2.112 2.992 2.128-2.992h1.76zm7.565 4.16q-1.023 0-1.68-.672-.655-.672-.688-1.728v-4.624h-1.376V88.84h1.376v-2.192h1.408v2.192h1.776v1.232h-1.776V94.6q0 .48.272.832a.84.84 0 0 0 .688.352q.24 0 .432-.032t.384-.08l.256 1.296a5.3 5.3 0 0 1-1.072.128"/><path fill="#fff" d="M405.5 112h74v42h-74z"/><path fill="#6B6B6B" d="M427.052 128.632H423.5v10.432h-1.408v-10.432h-3.568v-1.248h8.528zm6.191 5.76q-.112-1.024-.672-1.712-.544-.704-1.648-.704-1.008 0-1.728.688-.704.672-.848 1.744zm-6.288.544q0-1.217.496-2.16.495-.944 1.392-1.472.895-.528 2.032-.528 2.384 0 3.408 2.24.336.896.336 1.904a5 5 0 0 1-.032.624h-6.24q.159 1.04.864 1.696.72.656 1.68.656.768 0 1.264-.24.512-.24.704-.464.207-.24.368-.48l1.12.576q-.369.752-1.264 1.28-.88.528-2.208.528-1.137 0-2.032-.528a3.63 3.63 0 0 1-1.392-1.472q-.496-.943-.496-2.16m13.211 0 3.088 4.128h-1.744l-2.128-2.944-2.096 2.944h-1.76l3.056-4.128-3.088-4.144h1.776l2.112 2.992 2.128-2.992h1.76zm7.565 4.16q-1.023 0-1.68-.672-.655-.672-.688-1.728v-4.624h-1.376v-1.232h1.376v-2.192h1.408v2.192h1.776v1.232h-1.776v4.528q0 .48.272.832a.84.84 0 0 0 .688.352q.24 0 .432-.032t.384-.08l.256 1.296a5.3 5.3 0 0 1-1.072.128"/><path fill="#fff" d="M405.5 154h74v42h-74z"/><path fill="#6B6B6B" d="M427.052 170.632H423.5v10.432h-1.408v-10.432h-3.568v-1.248h8.528zm6.191 5.76q-.112-1.024-.672-1.712-.544-.704-1.648-.704-1.008 0-1.728.688-.704.672-.848 1.744zm-6.288.544q0-1.217.496-2.16.495-.944 1.392-1.472.895-.528 2.032-.528 2.384 0 3.408 2.24.336.896.336 1.904a5 5 0 0 1-.032.624h-6.24q.159 1.04.864 1.696.72.656 1.68.656.768 0 1.264-.24.512-.24.704-.464.207-.24.368-.48l1.12.576q-.369.752-1.264 1.28-.88.528-2.208.528-1.137 0-2.032-.528a3.63 3.63 0 0 1-1.392-1.472q-.496-.944-.496-2.16m13.211 0 3.088 4.128h-1.744l-2.128-2.944-2.096 2.944h-1.76l3.056-4.128-3.088-4.144h1.776l2.112 2.992 2.128-2.992h1.76zm7.565 4.16q-1.023 0-1.68-.672-.655-.672-.688-1.728v-4.624h-1.376v-1.232h1.376v-2.192h1.408v2.192h1.776v1.232h-1.776v4.528q0 .48.272.832a.84.84 0 0 0 .688.352q.24 0 .432-.032t.384-.08l.256 1.296a5.3 5.3 0 0 1-1.072.128"/></g><path stroke="#C2C2C2" d="M406 74a3.5 3.5 0 0 1 3.5-3.5h66A3.5 3.5 0 0 1 479 74v118a3.5 3.5 0 0 1-3.5 3.5h-66a3.5 3.5 0 0 1-3.5-3.5z"/><defs><clipPath id="a"><path fill="#fff" d="M405.5 74a4 4 0 0 1 4-4h66a4 4 0 0 1 4 4v118a4 4 0 0 1-4 4h-66a4 4 0 0 1-4-4z"/></clipPath></defs></svg>