<svg width="908" height="230" viewBox="0 0 908 230" fill="none" xmlns="http://www.w3.org/2000/svg">
<rect width="907" height="230" transform="translate(0.5)" fill="white"/>
<path d="M479.5 70L479.5 62" stroke="#6B6B6B" stroke-width="1.2"/>
<path d="M490.672 69.964C491.26 69.964 491.736 69.796 492.1 69.46C492.473 69.1147 492.66 68.6713 492.66 68.13C492.66 67.5887 492.473 67.15 492.1 66.814C491.736 66.4687 491.26 66.296 490.672 66.296C490.075 66.296 489.589 66.4687 489.216 66.814C488.843 67.15 488.656 67.5887 488.656 68.13C488.656 68.6713 488.843 69.1147 489.216 69.46C489.589 69.796 490.075 69.964 490.672 69.964ZM487.2 68.158C487.2 67.7007 487.359 67.2433 487.676 66.786C487.993 66.3193 488.399 65.9507 488.894 65.68C488.483 65.4 488.147 65.0547 487.886 64.644C487.625 64.2333 487.494 63.846 487.494 63.482C487.494 62.9407 487.629 62.46 487.9 62.04C488.171 61.6107 488.544 61.2793 489.02 61.046C489.505 60.8033 490.056 60.682 490.672 60.682C491.288 60.682 491.834 60.8033 492.31 61.046C492.795 61.2793 493.173 61.6107 493.444 62.04C493.715 62.46 493.85 62.9407 493.85 63.482C493.85 63.8553 493.719 64.2473 493.458 64.658C493.197 65.0687 492.861 65.4093 492.45 65.68C492.945 65.96 493.346 66.3287 493.654 66.786C493.962 67.2433 494.116 67.7007 494.116 68.158C494.116 68.746 493.971 69.2733 493.682 69.74C493.393 70.1973 492.987 70.5567 492.464 70.818C491.941 71.07 491.344 71.196 490.672 71.196C490 71.196 489.398 71.07 488.866 70.818C488.343 70.5567 487.933 70.1973 487.634 69.74C487.345 69.2733 487.2 68.746 487.2 68.158ZM488.95 63.482C488.95 63.9487 489.109 64.3267 489.426 64.616C489.743 64.9053 490.159 65.05 490.672 65.05C491.176 65.05 491.587 64.9053 491.904 64.616C492.231 64.3173 492.394 63.9393 492.394 63.482C492.394 63.0247 492.231 62.6513 491.904 62.362C491.587 62.0633 491.176 61.914 490.672 61.914C490.159 61.914 489.743 62.0587 489.426 62.348C489.109 62.6373 488.95 63.0153 488.95 63.482ZM499.433 69.964C500.058 69.964 500.567 69.7353 500.959 69.278C501.351 68.8113 501.547 68.2047 501.547 67.458C501.547 66.7207 501.351 66.1233 500.959 65.666C500.567 65.2087 500.058 64.98 499.433 64.98C499.041 64.98 498.677 65.092 498.341 65.316C498.005 65.54 497.739 65.8433 497.543 66.226C497.347 66.5993 497.249 67.01 497.249 67.458C497.249 67.9153 497.347 68.3353 497.543 68.718C497.739 69.1007 498.005 69.404 498.341 69.628C498.677 69.852 499.041 69.964 499.433 69.964ZM495.779 63.776H497.235V65.036C497.487 64.616 497.837 64.3033 498.285 64.098C498.733 63.8833 499.144 63.776 499.517 63.776C500.198 63.776 500.8 63.9347 501.323 64.252C501.855 64.56 502.266 64.994 502.555 65.554C502.854 66.1047 503.003 66.7393 503.003 67.458C503.003 68.1767 502.854 68.8207 502.555 69.39C502.266 69.95 501.855 70.3887 501.323 70.706C500.8 71.014 500.198 71.168 499.517 71.168C499.144 71.168 498.733 71.0607 498.285 70.846C497.837 70.622 497.487 70.3 497.235 69.88V74.234H495.779V63.776ZM508.146 67.444L510.848 71.098H509.042L507.292 68.62L505.556 71.098H503.75L506.41 67.444L503.694 63.776H505.514L507.292 66.324L509.056 63.776H510.876L508.146 67.444Z" fill="#6B6B6B"/>
<path d="M289.56 132V122.047H291.863C292.251 122.051 292.615 122.092 292.957 122.17C293.303 122.243 293.622 122.348 293.914 122.484C294.32 122.671 294.677 122.917 294.987 123.223C295.302 123.523 295.552 123.872 295.739 124.269C295.908 124.606 296.035 124.975 296.122 125.376C296.213 125.777 296.261 126.205 296.266 126.661V127.393C296.266 127.83 296.222 128.245 296.136 128.637C296.054 129.029 295.933 129.389 295.773 129.717C295.609 130.059 295.402 130.368 295.151 130.646C294.901 130.924 294.62 131.161 294.311 131.357C293.982 131.562 293.611 131.72 293.196 131.829C292.786 131.938 292.342 131.995 291.863 132H289.56ZM290.845 123.086V130.968H291.863C292.228 130.963 292.558 130.918 292.854 130.831C293.155 130.744 293.422 130.621 293.654 130.462C293.9 130.298 294.112 130.097 294.29 129.86C294.472 129.619 294.616 129.35 294.721 129.054C294.812 128.812 294.88 128.552 294.926 128.274C294.971 127.992 294.996 127.698 295.001 127.393V126.647C294.996 126.338 294.969 126.041 294.919 125.759C294.873 125.472 294.803 125.205 294.707 124.959C294.584 124.64 294.418 124.353 294.208 124.098C294.003 123.838 293.75 123.628 293.449 123.469C293.235 123.35 292.996 123.259 292.731 123.195C292.467 123.127 292.178 123.09 291.863 123.086H290.845ZM302.524 124.467C302.757 124.467 302.998 124.483 303.249 124.515C303.504 124.547 303.696 124.59 303.823 124.645L303.652 125.882C303.406 125.827 303.171 125.788 302.948 125.766C302.729 125.738 302.499 125.725 302.258 125.725C301.948 125.725 301.668 125.763 301.417 125.841C301.166 125.914 300.948 126.023 300.761 126.169C300.592 126.297 300.444 126.454 300.316 126.641C300.193 126.823 300.091 127.028 300.009 127.256V132H298.737V124.604H299.94L299.995 125.595L300.002 125.779C300.303 125.374 300.663 125.055 301.082 124.822C301.506 124.585 301.987 124.467 302.524 124.467ZM305.31 128.233C305.31 127.7 305.388 127.206 305.543 126.75C305.698 126.29 305.921 125.891 306.213 125.554C306.5 125.216 306.851 124.952 307.265 124.761C307.68 124.565 308.147 124.467 308.667 124.467C309.191 124.467 309.66 124.565 310.075 124.761C310.494 124.952 310.85 125.216 311.141 125.554C311.429 125.891 311.65 126.29 311.805 126.75C311.959 127.206 312.037 127.7 312.037 128.233V128.384C312.037 128.917 311.959 129.411 311.805 129.867C311.65 130.323 311.429 130.719 311.141 131.057C310.85 131.394 310.497 131.658 310.082 131.85C309.667 132.041 309.2 132.137 308.681 132.137C308.156 132.137 307.685 132.041 307.265 131.85C306.851 131.658 306.5 131.394 306.213 131.057C305.921 130.719 305.698 130.323 305.543 129.867C305.388 129.411 305.31 128.917 305.31 128.384V128.233ZM306.575 128.384C306.575 128.748 306.618 129.097 306.705 129.43C306.792 129.758 306.924 130.047 307.101 130.298C307.275 130.549 307.493 130.747 307.758 130.893C308.022 131.038 308.33 131.111 308.681 131.111C309.027 131.111 309.33 131.038 309.59 130.893C309.854 130.747 310.075 130.549 310.253 130.298C310.426 130.047 310.556 129.758 310.642 129.43C310.729 129.097 310.772 128.748 310.772 128.384V128.233C310.772 127.873 310.727 127.529 310.636 127.201C310.549 126.868 310.419 126.577 310.246 126.326C310.068 126.076 309.847 125.877 309.583 125.731C309.323 125.581 309.018 125.506 308.667 125.506C308.316 125.506 308.011 125.581 307.751 125.731C307.491 125.877 307.275 126.076 307.101 126.326C306.924 126.577 306.792 126.868 306.705 127.201C306.618 127.529 306.575 127.873 306.575 128.233V128.384ZM313.647 134.844V124.604H314.802L314.864 125.41C314.964 125.283 315.074 125.169 315.192 125.068C315.311 124.964 315.438 124.875 315.575 124.802C315.766 124.692 315.978 124.61 316.211 124.556C316.448 124.496 316.701 124.467 316.969 124.467C317.443 124.467 317.863 124.56 318.227 124.747C318.592 124.934 318.897 125.194 319.143 125.526C319.389 125.859 319.576 126.258 319.704 126.723C319.831 127.183 319.895 127.689 319.895 128.24V128.384C319.895 128.912 319.831 129.407 319.704 129.867C319.576 130.323 319.389 130.719 319.143 131.057C318.897 131.394 318.592 131.658 318.227 131.85C317.867 132.041 317.455 132.137 316.99 132.137C316.707 132.137 316.443 132.107 316.197 132.048C315.955 131.989 315.737 131.904 315.541 131.795C315.422 131.727 315.311 131.651 315.206 131.569C315.101 131.483 315.003 131.389 314.912 131.289V134.844H313.647ZM318.631 128.24C318.631 127.88 318.59 127.538 318.508 127.215C318.43 126.887 318.309 126.597 318.145 126.347C317.977 126.101 317.765 125.905 317.51 125.759C317.254 125.613 316.949 125.54 316.594 125.54C316.398 125.54 316.215 125.563 316.047 125.608C315.883 125.654 315.734 125.72 315.602 125.807C315.456 125.893 315.327 126 315.213 126.128C315.099 126.256 314.998 126.397 314.912 126.552V130.113C314.989 130.25 315.078 130.378 315.178 130.496C315.279 130.615 315.393 130.715 315.52 130.797C315.666 130.893 315.828 130.968 316.006 131.022C316.188 131.077 316.388 131.104 316.607 131.104C316.958 131.104 317.261 131.032 317.516 130.886C317.772 130.735 317.981 130.535 318.145 130.284C318.309 130.034 318.43 129.744 318.508 129.416C318.59 129.088 318.631 128.744 318.631 128.384V128.24ZM329.501 132V122.047H331.804C332.192 122.051 332.556 122.092 332.898 122.17C333.244 122.243 333.563 122.348 333.855 122.484C334.261 122.671 334.618 122.917 334.928 123.223C335.243 123.523 335.493 123.872 335.68 124.269C335.849 124.606 335.976 124.975 336.063 125.376C336.154 125.777 336.202 126.205 336.207 126.661V127.393C336.207 127.83 336.163 128.245 336.077 128.637C335.995 129.029 335.874 129.389 335.714 129.717C335.55 130.059 335.343 130.368 335.092 130.646C334.842 130.924 334.561 131.161 334.252 131.357C333.923 131.562 333.552 131.72 333.137 131.829C332.727 131.938 332.283 131.995 331.804 132H329.501ZM330.786 123.086V130.968H331.804C332.169 130.963 332.499 130.918 332.796 130.831C333.096 130.744 333.363 130.621 333.595 130.462C333.841 130.298 334.053 130.097 334.231 129.86C334.413 129.619 334.557 129.35 334.662 129.054C334.753 128.812 334.821 128.552 334.867 128.274C334.912 127.992 334.937 127.698 334.942 127.393V126.647C334.937 126.338 334.91 126.041 334.86 125.759C334.814 125.472 334.744 125.205 334.648 124.959C334.525 124.64 334.359 124.353 334.149 124.098C333.944 123.838 333.691 123.628 333.39 123.469C333.176 123.35 332.937 123.259 332.672 123.195C332.408 123.127 332.119 123.09 331.804 123.086H330.786ZM337.263 128.233C337.263 127.7 337.341 127.206 337.496 126.75C337.651 126.29 337.874 125.891 338.166 125.554C338.453 125.216 338.804 124.952 339.218 124.761C339.633 124.565 340.1 124.467 340.62 124.467C341.144 124.467 341.613 124.565 342.028 124.761C342.447 124.952 342.803 125.216 343.094 125.554C343.381 125.891 343.602 126.29 343.757 126.75C343.912 127.206 343.99 127.7 343.99 128.233V128.384C343.99 128.917 343.912 129.411 343.757 129.867C343.602 130.323 343.381 130.719 343.094 131.057C342.803 131.394 342.449 131.658 342.035 131.85C341.62 132.041 341.153 132.137 340.633 132.137C340.109 132.137 339.638 132.041 339.218 131.85C338.804 131.658 338.453 131.394 338.166 131.057C337.874 130.719 337.651 130.323 337.496 129.867C337.341 129.411 337.263 128.917 337.263 128.384V128.233ZM338.528 128.384C338.528 128.748 338.571 129.097 338.658 129.43C338.744 129.758 338.876 130.047 339.054 130.298C339.227 130.549 339.446 130.747 339.71 130.893C339.975 131.038 340.282 131.111 340.633 131.111C340.98 131.111 341.283 131.038 341.542 130.893C341.807 130.747 342.028 130.549 342.206 130.298C342.379 130.047 342.509 129.758 342.595 129.43C342.682 129.097 342.725 128.748 342.725 128.384V128.233C342.725 127.873 342.68 127.529 342.588 127.201C342.502 126.868 342.372 126.577 342.199 126.326C342.021 126.076 341.8 125.877 341.536 125.731C341.276 125.581 340.971 125.506 340.62 125.506C340.269 125.506 339.963 125.581 339.704 125.731C339.444 125.877 339.227 126.076 339.054 126.326C338.876 126.577 338.744 126.868 338.658 127.201C338.571 127.529 338.528 127.873 338.528 128.233V128.384ZM346.318 132L344.746 124.604H345.867L346.728 129.32L346.878 130.38L347.063 129.32L348.246 124.604H349.059L350.235 129.32L350.433 130.482L350.618 129.32L351.438 124.604H352.559L350.987 132H349.989L348.833 127.468L348.642 126.319L348.457 127.468L347.316 132H346.318ZM353.595 132V124.604H354.73L354.819 125.697C354.928 125.542 355.047 125.401 355.174 125.273C355.306 125.141 355.445 125.027 355.591 124.932C355.81 124.786 356.047 124.674 356.302 124.597C356.562 124.515 356.835 124.471 357.122 124.467C357.51 124.467 357.861 124.521 358.175 124.631C358.494 124.74 358.765 124.911 358.989 125.144C359.212 125.376 359.383 125.672 359.501 126.032C359.624 126.388 359.686 126.812 359.686 127.304V132H358.421V127.331C358.421 127.003 358.385 126.725 358.312 126.497C358.239 126.269 358.132 126.085 357.991 125.943C357.845 125.802 357.667 125.7 357.457 125.636C357.252 125.572 357.015 125.54 356.746 125.54C356.514 125.54 356.298 125.574 356.097 125.643C355.897 125.706 355.712 125.795 355.543 125.909C355.407 126.009 355.279 126.126 355.161 126.258C355.047 126.39 354.946 126.536 354.86 126.695V132H353.595Z" fill="#6B6B6B"/>
<rect x="406" y="70" width="8.00004" height="74" transform="rotate(-90 406 70)" fill="#FF0000" fill-opacity="0.1"/>
<rect x="406.5" y="32.5" width="73" height="29" rx="14.5" fill="#F7F7F7"/>
<rect x="406.5" y="32.5" width="73" height="29" rx="14.5" stroke="#121212"/>
<path d="M424.887 52.21C423.898 52.21 423.016 51.986 422.241 51.538C421.476 51.09 420.874 50.4693 420.435 49.676C420.006 48.8733 419.791 47.9633 419.791 46.946C419.791 45.9287 420.006 45.0233 420.435 44.23C420.864 43.4273 421.462 42.802 422.227 42.354C423.002 41.906 423.879 41.682 424.859 41.682C425.559 41.682 426.217 41.8173 426.833 42.088C427.458 42.3587 428.004 42.7367 428.471 43.222L427.519 44.16C427.211 43.7867 426.819 43.4927 426.343 43.278C425.876 43.0633 425.386 42.956 424.873 42.956C424.164 42.956 423.534 43.124 422.983 43.46C422.442 43.7867 422.017 44.2533 421.709 44.86C421.41 45.4573 421.261 46.1527 421.261 46.946C421.261 47.73 421.41 48.4253 421.709 49.032C422.017 49.6293 422.442 50.096 422.983 50.432C423.534 50.768 424.164 50.936 424.873 50.936C425.405 50.936 425.89 50.8333 426.329 50.628C426.777 50.4133 427.155 50.1287 427.463 49.774L428.471 50.67C427.995 51.1647 427.454 51.5473 426.847 51.818C426.25 52.0887 425.596 52.2193 424.887 52.21ZM435.207 48.192C435.207 47.5667 435.058 47.0627 434.759 46.68C434.46 46.288 434.068 46.092 433.583 46.092C433.228 46.092 432.902 46.1947 432.603 46.4C432.304 46.6053 432.066 46.8807 431.889 47.226C431.721 47.5713 431.637 47.9493 431.637 48.36V52.098H430.181V41.794H431.637V45.938C431.852 45.602 432.141 45.3407 432.505 45.154C432.869 44.958 433.233 44.86 433.597 44.86C434.185 44.86 434.712 44.9953 435.179 45.266C435.646 45.5273 436.01 45.9007 436.271 46.386C436.532 46.862 436.663 47.408 436.663 48.024V52.098H435.207V48.192ZM440.001 44.818V52.098H438.545V44.818H440.001ZM438.447 42.438C438.447 42.1953 438.522 41.9993 438.671 41.85C438.83 41.6913 439.031 41.612 439.273 41.612C439.516 41.612 439.712 41.6913 439.861 41.85C440.02 41.9993 440.099 42.1953 440.099 42.438C440.099 42.6713 440.02 42.8673 439.861 43.026C439.712 43.1847 439.516 43.264 439.273 43.264C439.031 43.264 438.83 43.1893 438.671 43.04C438.522 42.8813 438.447 42.6807 438.447 42.438ZM445.655 50.964C446.28 50.964 446.789 50.7353 447.181 50.278C447.573 49.8113 447.769 49.2047 447.769 48.458C447.769 47.7207 447.573 47.1233 447.181 46.666C446.789 46.2087 446.28 45.98 445.655 45.98C445.263 45.98 444.899 46.092 444.563 46.316C444.227 46.54 443.961 46.8433 443.765 47.226C443.569 47.5993 443.471 48.01 443.471 48.458C443.471 48.9153 443.569 49.3353 443.765 49.718C443.961 50.1007 444.227 50.404 444.563 50.628C444.899 50.852 445.263 50.964 445.655 50.964ZM442.001 44.776H443.457V46.036C443.709 45.616 444.059 45.3033 444.507 45.098C444.955 44.8833 445.365 44.776 445.739 44.776C446.42 44.776 447.022 44.9347 447.545 45.252C448.077 45.56 448.487 45.994 448.777 46.554C449.075 47.1047 449.225 47.7393 449.225 48.458C449.225 49.1767 449.075 49.8207 448.777 50.39C448.487 50.95 448.077 51.3887 447.545 51.706C447.022 52.014 446.42 52.168 445.739 52.168C445.365 52.168 444.955 52.0607 444.507 51.846C444.059 51.622 443.709 51.3 443.457 50.88V55.234H442.001V44.776Z" fill="#121212"/>
<path d="M466 48L461 44L456 48" stroke="#121212" stroke-width="1.2" stroke-linejoin="bevel"/>
<path d="M369.5 127L405.5 127" stroke="#6B6B6B" stroke-width="1.2" stroke-dasharray="2 2"/>
<g clip-path="url(#clip0_2269_2057)">
<rect width="74" height="42" transform="translate(405.5 70)" fill="white"/>
<path d="M427.052 86.632H423.5V97.064H422.092V86.632H418.524V85.384H427.052V86.632ZM433.243 92.392C433.168 91.7093 432.944 91.1387 432.571 90.68C432.208 90.2107 431.659 89.976 430.923 89.976C430.251 89.976 429.675 90.2053 429.195 90.664C428.725 91.112 428.443 91.6933 428.347 92.408L433.243 92.392ZM426.955 92.936C426.955 92.1253 427.12 91.4053 427.451 90.776C427.781 90.1467 428.245 89.656 428.843 89.304C429.44 88.952 430.117 88.776 430.875 88.776C432.464 88.776 433.6 89.5227 434.283 91.016C434.507 91.6133 434.619 92.248 434.619 92.92C434.619 93.1013 434.613 93.2507 434.603 93.368C434.592 93.4747 434.587 93.5333 434.587 93.544H428.347C428.453 94.2373 428.741 94.8027 429.211 95.24C429.691 95.6773 430.251 95.896 430.891 95.896C431.403 95.896 431.824 95.816 432.155 95.656C432.496 95.496 432.731 95.3413 432.859 95.192C432.997 95.032 433.12 94.872 433.227 94.712L434.347 95.288C434.101 95.7893 433.68 96.216 433.083 96.568C432.496 96.92 431.76 97.096 430.875 97.096C430.117 97.096 429.44 96.92 428.843 96.568C428.245 96.216 427.781 95.7253 427.451 95.096C427.12 94.4667 426.955 93.7467 426.955 92.936ZM440.166 92.936L443.254 97.064H441.51L439.382 94.12L437.286 97.064H435.526L438.582 92.936L435.494 88.792H437.27L439.382 91.784L441.51 88.792H443.27L440.166 92.936ZM447.731 97.096C447.049 97.096 446.489 96.872 446.051 96.424C445.614 95.976 445.385 95.4 445.363 94.696V90.072H443.987V88.84H445.363V86.648H446.771V88.84H448.547V90.072H446.771V94.6C446.771 94.92 446.862 95.1973 447.043 95.432C447.225 95.6667 447.454 95.784 447.731 95.784C447.891 95.784 448.035 95.7733 448.163 95.752C448.291 95.7307 448.419 95.704 448.547 95.672L448.803 96.968C448.398 97.0533 448.041 97.096 447.731 97.096Z" fill="#6B6B6B"/>
<rect width="74" height="42" transform="translate(405.5 112)" fill="white"/>
<path d="M427.052 128.632H423.5V139.064H422.092V128.632H418.524V127.384H427.052V128.632ZM433.243 134.392C433.168 133.709 432.944 133.139 432.571 132.68C432.208 132.211 431.659 131.976 430.923 131.976C430.251 131.976 429.675 132.205 429.195 132.664C428.725 133.112 428.443 133.693 428.347 134.408L433.243 134.392ZM426.955 134.936C426.955 134.125 427.12 133.405 427.451 132.776C427.781 132.147 428.245 131.656 428.843 131.304C429.44 130.952 430.117 130.776 430.875 130.776C432.464 130.776 433.6 131.523 434.283 133.016C434.507 133.613 434.619 134.248 434.619 134.92C434.619 135.101 434.613 135.251 434.603 135.368C434.592 135.475 434.587 135.533 434.587 135.544H428.347C428.453 136.237 428.741 136.803 429.211 137.24C429.691 137.677 430.251 137.896 430.891 137.896C431.403 137.896 431.824 137.816 432.155 137.656C432.496 137.496 432.731 137.341 432.859 137.192C432.997 137.032 433.12 136.872 433.227 136.712L434.347 137.288C434.101 137.789 433.68 138.216 433.083 138.568C432.496 138.92 431.76 139.096 430.875 139.096C430.117 139.096 429.44 138.92 428.843 138.568C428.245 138.216 427.781 137.725 427.451 137.096C427.12 136.467 426.955 135.747 426.955 134.936ZM440.166 134.936L443.254 139.064H441.51L439.382 136.12L437.286 139.064H435.526L438.582 134.936L435.494 130.792H437.27L439.382 133.784L441.51 130.792H443.27L440.166 134.936ZM447.731 139.096C447.049 139.096 446.489 138.872 446.051 138.424C445.614 137.976 445.385 137.4 445.363 136.696V132.072H443.987V130.84H445.363V128.648H446.771V130.84H448.547V132.072H446.771V136.6C446.771 136.92 446.862 137.197 447.043 137.432C447.225 137.667 447.454 137.784 447.731 137.784C447.891 137.784 448.035 137.773 448.163 137.752C448.291 137.731 448.419 137.704 448.547 137.672L448.803 138.968C448.398 139.053 448.041 139.096 447.731 139.096Z" fill="#6B6B6B"/>
<rect width="74" height="42" transform="translate(405.5 154)" fill="white"/>
<path d="M427.052 170.632H423.5V181.064H422.092V170.632H418.524V169.384H427.052V170.632ZM433.243 176.392C433.168 175.709 432.944 175.139 432.571 174.68C432.208 174.211 431.659 173.976 430.923 173.976C430.251 173.976 429.675 174.205 429.195 174.664C428.725 175.112 428.443 175.693 428.347 176.408L433.243 176.392ZM426.955 176.936C426.955 176.125 427.12 175.405 427.451 174.776C427.781 174.147 428.245 173.656 428.843 173.304C429.44 172.952 430.117 172.776 430.875 172.776C432.464 172.776 433.6 173.523 434.283 175.016C434.507 175.613 434.619 176.248 434.619 176.92C434.619 177.101 434.613 177.251 434.603 177.368C434.592 177.475 434.587 177.533 434.587 177.544H428.347C428.453 178.237 428.741 178.803 429.211 179.24C429.691 179.677 430.251 179.896 430.891 179.896C431.403 179.896 431.824 179.816 432.155 179.656C432.496 179.496 432.731 179.341 432.859 179.192C432.997 179.032 433.12 178.872 433.227 178.712L434.347 179.288C434.101 179.789 433.68 180.216 433.083 180.568C432.496 180.92 431.76 181.096 430.875 181.096C430.117 181.096 429.44 180.92 428.843 180.568C428.245 180.216 427.781 179.725 427.451 179.096C427.12 178.467 426.955 177.747 426.955 176.936ZM440.166 176.936L443.254 181.064H441.51L439.382 178.12L437.286 181.064H435.526L438.582 176.936L435.494 172.792H437.27L439.382 175.784L441.51 172.792H443.27L440.166 176.936ZM447.731 181.096C447.049 181.096 446.489 180.872 446.051 180.424C445.614 179.976 445.385 179.4 445.363 178.696V174.072H443.987V172.84H445.363V170.648H446.771V172.84H448.547V174.072H446.771V178.6C446.771 178.92 446.862 179.197 447.043 179.432C447.225 179.667 447.454 179.784 447.731 179.784C447.891 179.784 448.035 179.773 448.163 179.752C448.291 179.731 448.419 179.704 448.547 179.672L448.803 180.968C448.398 181.053 448.041 181.096 447.731 181.096Z" fill="#6B6B6B"/>
</g>
<path d="M406 74C406 72.067 407.567 70.5 409.5 70.5H475.5C477.433 70.5 479 72.067 479 74V192C479 193.933 477.433 195.5 475.5 195.5H409.5C407.567 195.5 406 193.933 406 192V74Z" stroke="#C2C2C2"/>
<defs>
<clipPath id="clip0_2269_2057">
<path d="M405.5 74C405.5 71.7909 407.291 70 409.5 70H475.5C477.709 70 479.5 71.7909 479.5 74V192C479.5 194.209 477.709 196 475.5 196H409.5C407.291 196 405.5 194.209 405.5 192V74Z" fill="white"/>
</clipPath>
</defs>
</svg>
