<svg width="908" height="179" viewBox="0 0 908 179" fill="none" xmlns="http://www.w3.org/2000/svg">
<rect width="907" height="179" transform="translate(0.5)" fill="white"/>
<rect x="230.5" y="47.5" width="92" height="29" rx="14.5" fill="white"/>
<rect x="230.5" y="47.5" width="92" height="29" rx="14.5" stroke="#6B6B6B"/>
<path d="M253.233 62.59C253.233 63.542 253.027 64.3633 252.617 65.054C252.215 65.7447 251.651 66.2767 250.923 66.65C250.195 67.014 249.355 67.2007 248.403 67.21C247.413 67.21 246.527 66.986 245.743 66.538C244.968 66.09 244.361 65.4693 243.923 64.676C243.484 63.8733 243.265 62.9633 243.265 61.946C243.265 60.9287 243.484 60.0233 243.923 59.23C244.361 58.4367 244.968 57.816 245.743 57.368C246.527 56.92 247.413 56.696 248.403 56.696C249.457 56.696 250.353 56.9387 251.091 57.424C251.837 57.9 252.393 58.4833 252.757 59.174L251.511 59.818C251.249 59.3047 250.853 58.8707 250.321 58.516C249.789 58.152 249.149 57.97 248.403 57.97C247.675 57.97 247.031 58.138 246.471 58.474C245.92 58.8007 245.491 59.2673 245.183 59.874C244.875 60.4713 244.721 61.162 244.721 61.946C244.721 62.73 244.875 63.4253 245.183 64.032C245.491 64.6293 245.92 65.096 246.471 65.432C247.031 65.768 247.675 65.936 248.403 65.936C249.411 65.908 250.227 65.642 250.853 65.138C251.487 64.6247 251.809 63.8827 251.819 62.912H248.557V61.694H253.247L253.233 62.59ZM256.268 61.162C256.464 60.742 256.777 60.4013 257.206 60.14C257.645 59.8693 258.111 59.734 258.606 59.734V61.064C258.167 61.064 257.771 61.1807 257.416 61.414C257.061 61.6473 256.781 61.9507 256.576 62.324C256.371 62.688 256.268 63.0613 256.268 63.444V67.098H254.812V59.776H256.268V61.162ZM262.748 65.936C263.374 65.936 263.878 65.7073 264.26 65.25C264.643 64.7927 264.834 64.1953 264.834 63.458C264.834 62.7207 264.643 62.1233 264.26 61.666C263.878 61.2087 263.374 60.98 262.748 60.98C262.132 60.98 261.633 61.2087 261.25 61.666C260.868 62.1233 260.676 62.7207 260.676 63.458C260.676 64.1953 260.868 64.7927 261.25 65.25C261.633 65.7073 262.132 65.936 262.748 65.936ZM259.22 63.458C259.22 62.7393 259.37 62.1 259.668 61.54C259.967 60.98 260.382 60.5413 260.914 60.224C261.456 59.9067 262.067 59.748 262.748 59.748C263.439 59.748 264.05 59.9067 264.582 60.224C265.124 60.5413 265.544 60.98 265.842 61.54C266.141 62.1 266.29 62.7393 266.29 63.458C266.29 64.1673 266.141 64.802 265.842 65.362C265.544 65.922 265.124 66.3607 264.582 66.678C264.05 66.9953 263.439 67.154 262.748 67.154C262.067 67.154 261.456 66.9953 260.914 66.678C260.382 66.3607 259.967 65.922 259.668 65.362C259.37 64.802 259.22 64.1673 259.22 63.458ZM269.266 63.962C269.266 64.55 269.429 65.0307 269.756 65.404C270.082 65.768 270.507 65.95 271.03 65.95C271.599 65.9407 272.061 65.7587 272.416 65.404C272.77 65.0493 272.943 64.5827 272.934 64.004V59.776H274.39V67.098H272.934V66.034C272.719 66.3793 272.416 66.6547 272.024 66.86C271.641 67.0653 271.244 67.168 270.834 67.168C270.255 67.168 269.737 67.0373 269.28 66.776C268.822 66.5053 268.463 66.132 268.202 65.656C267.94 65.18 267.81 64.6387 267.81 64.032V59.776H269.266V63.962ZM279.897 65.964C280.523 65.964 281.031 65.7353 281.423 65.278C281.815 64.8113 282.011 64.2047 282.011 63.458C282.011 62.7207 281.815 62.1233 281.423 61.666C281.031 61.2087 280.523 60.98 279.897 60.98C279.505 60.98 279.141 61.092 278.805 61.316C278.469 61.54 278.203 61.8433 278.007 62.226C277.811 62.5993 277.713 63.01 277.713 63.458C277.713 63.9153 277.811 64.3353 278.007 64.718C278.203 65.1007 278.469 65.404 278.805 65.628C279.141 65.852 279.505 65.964 279.897 65.964ZM276.243 59.776H277.699V61.036C277.951 60.616 278.301 60.3033 278.749 60.098C279.197 59.8833 279.608 59.776 279.981 59.776C280.663 59.776 281.265 59.9347 281.787 60.252C282.319 60.56 282.73 60.994 283.019 61.554C283.318 62.1047 283.467 62.7393 283.467 63.458C283.467 64.1767 283.318 64.8207 283.019 65.39C282.73 65.95 282.319 66.3887 281.787 66.706C281.265 67.014 280.663 67.168 279.981 67.168C279.608 67.168 279.197 67.0607 278.749 66.846C278.301 66.622 277.951 66.3 277.699 65.88V70.234H276.243V59.776ZM291.627 67.042L290.171 67.028V58.418L288.393 59.426L287.777 58.208L290.185 56.864H291.627V67.042Z" fill="#121212"/>
<path d="M309 61L304 65L299 61" stroke="#6B6B6B" stroke-width="1.2" stroke-linejoin="bevel"/>
<rect x="331.5" y="47.5" width="94" height="29" rx="14.5" fill="white"/>
<rect x="331.5" y="47.5" width="94" height="29" rx="14.5" stroke="#6B6B6B"/>
<path d="M354.004 62.59C354.004 63.542 353.799 64.3633 353.388 65.054C352.987 65.7447 352.422 66.2767 351.694 66.65C350.966 67.014 350.126 67.2007 349.174 67.21C348.185 67.21 347.298 66.986 346.514 66.538C345.739 66.09 345.133 65.4693 344.694 64.676C344.255 63.8733 344.036 62.9633 344.036 61.946C344.036 60.9287 344.255 60.0233 344.694 59.23C345.133 58.4367 345.739 57.816 346.514 57.368C347.298 56.92 348.185 56.696 349.174 56.696C350.229 56.696 351.125 56.9387 351.862 57.424C352.609 57.9 353.164 58.4833 353.528 59.174L352.282 59.818C352.021 59.3047 351.624 58.8707 351.092 58.516C350.56 58.152 349.921 57.97 349.174 57.97C348.446 57.97 347.802 58.138 347.242 58.474C346.691 58.8007 346.262 59.2673 345.954 59.874C345.646 60.4713 345.492 61.162 345.492 61.946C345.492 62.73 345.646 63.4253 345.954 64.032C346.262 64.6293 346.691 65.096 347.242 65.432C347.802 65.768 348.446 65.936 349.174 65.936C350.182 65.908 350.999 65.642 351.624 65.138C352.259 64.6247 352.581 63.8827 352.59 62.912H349.328V61.694H354.018L354.004 62.59ZM357.04 61.162C357.236 60.742 357.548 60.4013 357.978 60.14C358.416 59.8693 358.883 59.734 359.378 59.734V61.064C358.939 61.064 358.542 61.1807 358.188 61.414C357.833 61.6473 357.553 61.9507 357.348 62.324C357.142 62.688 357.04 63.0613 357.04 63.444V67.098H355.584V59.776H357.04V61.162ZM363.52 65.936C364.145 65.936 364.649 65.7073 365.032 65.25C365.414 64.7927 365.606 64.1953 365.606 63.458C365.606 62.7207 365.414 62.1233 365.032 61.666C364.649 61.2087 364.145 60.98 363.52 60.98C362.904 60.98 362.404 61.2087 362.022 61.666C361.639 62.1233 361.448 62.7207 361.448 63.458C361.448 64.1953 361.639 64.7927 362.022 65.25C362.404 65.7073 362.904 65.936 363.52 65.936ZM359.992 63.458C359.992 62.7393 360.141 62.1 360.44 61.54C360.738 60.98 361.154 60.5413 361.686 60.224C362.227 59.9067 362.838 59.748 363.52 59.748C364.21 59.748 364.822 59.9067 365.354 60.224C365.895 60.5413 366.315 60.98 366.614 61.54C366.912 62.1 367.062 62.7393 367.062 63.458C367.062 64.1673 366.912 64.802 366.614 65.362C366.315 65.922 365.895 66.3607 365.354 66.678C364.822 66.9953 364.21 67.154 363.52 67.154C362.838 67.154 362.227 66.9953 361.686 66.678C361.154 66.3607 360.738 65.922 360.44 65.362C360.141 64.802 359.992 64.1673 359.992 63.458ZM370.037 63.962C370.037 64.55 370.2 65.0307 370.527 65.404C370.854 65.768 371.278 65.95 371.801 65.95C372.37 65.9407 372.832 65.7587 373.187 65.404C373.542 65.0493 373.714 64.5827 373.705 64.004V59.776H375.161V67.098H373.705V66.034C373.49 66.3793 373.187 66.6547 372.795 66.86C372.412 67.0653 372.016 67.168 371.605 67.168C371.026 67.168 370.508 67.0373 370.051 66.776C369.594 66.5053 369.234 66.132 368.973 65.656C368.712 65.18 368.581 64.6387 368.581 64.032V59.776H370.037V63.962ZM380.669 65.964C381.294 65.964 381.803 65.7353 382.195 65.278C382.587 64.8113 382.783 64.2047 382.783 63.458C382.783 62.7207 382.587 62.1233 382.195 61.666C381.803 61.2087 381.294 60.98 380.669 60.98C380.277 60.98 379.913 61.092 379.577 61.316C379.241 61.54 378.975 61.8433 378.779 62.226C378.583 62.5993 378.485 63.01 378.485 63.458C378.485 63.9153 378.583 64.3353 378.779 64.718C378.975 65.1007 379.241 65.404 379.577 65.628C379.913 65.852 380.277 65.964 380.669 65.964ZM377.015 59.776H378.471V61.036C378.723 60.616 379.073 60.3033 379.521 60.098C379.969 59.8833 380.38 59.776 380.753 59.776C381.434 59.776 382.036 59.9347 382.559 60.252C383.091 60.56 383.502 60.994 383.791 61.554C384.09 62.1047 384.239 62.7393 384.239 63.458C384.239 64.1767 384.09 64.8207 383.791 65.39C383.502 65.95 383.091 66.3887 382.559 66.706C382.036 67.014 381.434 67.168 380.753 67.168C380.38 67.168 379.969 67.0607 379.521 66.846C379.073 66.622 378.723 66.3 378.471 65.88V70.234H377.015V59.776ZM388.857 65.768C388.988 65.6467 389.464 65.208 390.285 64.452C391.041 63.7707 391.643 63.2107 392.091 62.772C392.548 62.324 392.931 61.8667 393.239 61.4C393.547 60.924 393.701 60.476 393.701 60.056C393.701 59.4773 393.533 59.006 393.197 58.642C392.87 58.2687 392.446 58.082 391.923 58.082C391.522 58.082 391.134 58.2127 390.761 58.474C390.388 58.7353 390.112 59.0713 389.935 59.482L388.661 58.922C388.941 58.2873 389.384 57.7693 389.991 57.368C390.607 56.9573 391.251 56.752 391.923 56.752C392.548 56.752 393.104 56.892 393.589 57.172C394.084 57.452 394.466 57.844 394.737 58.348C395.017 58.8427 395.157 59.412 395.157 60.056C395.157 60.6907 394.966 61.3207 394.583 61.946C394.21 62.5713 393.752 63.15 393.211 63.682C392.679 64.214 391.998 64.8347 391.167 65.544L390.915 65.768H395.311V67.042H388.997L388.857 65.768Z" fill="#121212"/>
<path d="M412 61L407 65L402 61" stroke="#6B6B6B" stroke-width="1.2" stroke-linejoin="bevel"/>
<rect x="434.5" y="47.5" width="95" height="29" rx="14.5" fill="white"/>
<rect x="434.5" y="47.5" width="95" height="29" rx="14.5" stroke="#6B6B6B"/>
<path d="M457.785 62.59C457.785 63.542 457.58 64.3633 457.169 65.054C456.768 65.7447 456.203 66.2767 455.475 66.65C454.747 67.014 453.907 67.2007 452.955 67.21C451.966 67.21 451.079 66.986 450.295 66.538C449.521 66.09 448.914 65.4693 448.475 64.676C448.037 63.8733 447.817 62.9633 447.817 61.946C447.817 60.9287 448.037 60.0233 448.475 59.23C448.914 58.4367 449.521 57.816 450.295 57.368C451.079 56.92 451.966 56.696 452.955 56.696C454.01 56.696 454.906 56.9387 455.643 57.424C456.39 57.9 456.945 58.4833 457.309 59.174L456.063 59.818C455.802 59.3047 455.405 58.8707 454.873 58.516C454.341 58.152 453.702 57.97 452.955 57.97C452.227 57.97 451.583 58.138 451.023 58.474C450.473 58.8007 450.043 59.2673 449.735 59.874C449.427 60.4713 449.273 61.162 449.273 61.946C449.273 62.73 449.427 63.4253 449.735 64.032C450.043 64.6293 450.473 65.096 451.023 65.432C451.583 65.768 452.227 65.936 452.955 65.936C453.963 65.908 454.78 65.642 455.405 65.138C456.04 64.6247 456.362 63.8827 456.371 62.912H453.109V61.694H457.799L457.785 62.59ZM460.821 61.162C461.017 60.742 461.33 60.4013 461.759 60.14C462.198 59.8693 462.664 59.734 463.159 59.734V61.064C462.72 61.064 462.324 61.1807 461.969 61.414C461.614 61.6473 461.334 61.9507 461.129 62.324C460.924 62.688 460.821 63.0613 460.821 63.444V67.098H459.365V59.776H460.821V61.162ZM467.301 65.936C467.926 65.936 468.43 65.7073 468.813 65.25C469.196 64.7927 469.387 64.1953 469.387 63.458C469.387 62.7207 469.196 62.1233 468.813 61.666C468.43 61.2087 467.926 60.98 467.301 60.98C466.685 60.98 466.186 61.2087 465.803 61.666C465.42 62.1233 465.229 62.7207 465.229 63.458C465.229 64.1953 465.42 64.7927 465.803 65.25C466.186 65.7073 466.685 65.936 467.301 65.936ZM463.773 63.458C463.773 62.7393 463.922 62.1 464.221 61.54C464.52 60.98 464.935 60.5413 465.467 60.224C466.008 59.9067 466.62 59.748 467.301 59.748C467.992 59.748 468.603 59.9067 469.135 60.224C469.676 60.5413 470.096 60.98 470.395 61.54C470.694 62.1 470.843 62.7393 470.843 63.458C470.843 64.1673 470.694 64.802 470.395 65.362C470.096 65.922 469.676 66.3607 469.135 66.678C468.603 66.9953 467.992 67.154 467.301 67.154C466.62 67.154 466.008 66.9953 465.467 66.678C464.935 66.3607 464.52 65.922 464.221 65.362C463.922 64.802 463.773 64.1673 463.773 63.458ZM473.818 63.962C473.818 64.55 473.982 65.0307 474.308 65.404C474.635 65.768 475.06 65.95 475.582 65.95C476.152 65.9407 476.614 65.7587 476.968 65.404C477.323 65.0493 477.496 64.5827 477.486 64.004V59.776H478.942V67.098H477.486V66.034C477.272 66.3793 476.968 66.6547 476.576 66.86C476.194 67.0653 475.797 67.168 475.386 67.168C474.808 67.168 474.29 67.0373 473.832 66.776C473.375 66.5053 473.016 66.132 472.754 65.656C472.493 65.18 472.362 64.6387 472.362 64.032V59.776H473.818V63.962ZM484.45 65.964C485.075 65.964 485.584 65.7353 485.976 65.278C486.368 64.8113 486.564 64.2047 486.564 63.458C486.564 62.7207 486.368 62.1233 485.976 61.666C485.584 61.2087 485.075 60.98 484.45 60.98C484.058 60.98 483.694 61.092 483.358 61.316C483.022 61.54 482.756 61.8433 482.56 62.226C482.364 62.5993 482.266 63.01 482.266 63.458C482.266 63.9153 482.364 64.3353 482.56 64.718C482.756 65.1007 483.022 65.404 483.358 65.628C483.694 65.852 484.058 65.964 484.45 65.964ZM480.796 59.776H482.252V61.036C482.504 60.616 482.854 60.3033 483.302 60.098C483.75 59.8833 484.161 59.776 484.534 59.776C485.215 59.776 485.817 59.9347 486.34 60.252C486.872 60.56 487.283 60.994 487.572 61.554C487.871 62.1047 488.02 62.7393 488.02 63.458C488.02 64.1767 487.871 64.8207 487.572 65.39C487.283 65.95 486.872 66.3887 486.34 66.706C485.817 67.014 485.215 67.168 484.534 67.168C484.161 67.168 483.75 67.0607 483.302 66.846C482.854 66.622 482.504 66.3 482.252 65.88V70.234H480.796V59.776ZM497.832 61.778C498.28 62.0393 498.635 62.394 498.896 62.842C499.167 63.2807 499.302 63.7193 499.302 64.158C499.302 64.7273 499.158 65.236 498.868 65.684C498.579 66.132 498.173 66.482 497.65 66.734C497.128 66.986 496.535 67.112 495.872 67.112C495.21 67.112 494.617 66.986 494.094 66.734C493.572 66.4727 493.161 66.1133 492.862 65.656C492.573 65.1893 492.428 64.662 492.428 64.074H493.884C493.884 64.5873 494.071 65.0073 494.444 65.334C494.818 65.6607 495.294 65.824 495.872 65.824C496.47 65.824 496.955 65.6653 497.328 65.348C497.702 65.0213 497.888 64.6013 497.888 64.088C497.888 63.584 497.702 63.1733 497.328 62.856C496.955 62.5387 496.479 62.38 495.9 62.38H495.172V61.162H495.9C496.442 61.162 496.885 61.0173 497.23 60.728C497.576 60.4387 497.748 60.0653 497.748 59.608C497.748 59.1507 497.58 58.782 497.244 58.502C496.908 58.2127 496.479 58.068 495.956 58.068C495.443 58.068 495.018 58.2127 494.682 58.502C494.356 58.7913 494.192 59.1647 494.192 59.622H492.736C492.736 59.0713 492.872 58.5813 493.142 58.152C493.422 57.7133 493.805 57.3773 494.29 57.144C494.776 56.9013 495.331 56.78 495.956 56.78C496.572 56.78 497.123 56.8967 497.608 57.13C498.103 57.3633 498.486 57.69 498.756 58.11C499.027 58.53 499.162 59.006 499.162 59.538C499.162 59.9393 499.041 60.35 498.798 60.77C498.556 61.1807 498.234 61.5167 497.832 61.778Z" fill="#121212"/>
<path d="M516 61L511 65L506 61" stroke="#6B6B6B" stroke-width="1.2" stroke-linejoin="bevel"/>
<path d="M714 90H230" stroke="#E1E1E1" stroke-width="1.2" stroke-linecap="round" stroke-linejoin="round"/>
<rect x="230.5" y="102.5" width="111" height="29" rx="14.5" fill="white"/>
<rect x="230.5" y="102.5" width="111" height="29" rx="14.5" stroke="#368FF7"/>
<path d="M244.943 119.186C245.242 119.755 245.62 120.194 246.077 120.502C246.535 120.81 247.006 120.964 247.491 120.964C248.145 120.964 248.667 120.815 249.059 120.516C249.461 120.208 249.661 119.807 249.661 119.312C249.661 118.976 249.559 118.701 249.353 118.486C249.157 118.262 248.905 118.08 248.597 117.94C248.299 117.8 247.883 117.637 247.351 117.45C246.679 117.217 246.133 116.993 245.713 116.778C245.293 116.563 244.934 116.26 244.635 115.868C244.337 115.476 244.187 114.972 244.187 114.356C244.187 113.815 244.337 113.343 244.635 112.942C244.934 112.531 245.34 112.219 245.853 112.004C246.376 111.789 246.955 111.682 247.589 111.682C248.317 111.682 248.989 111.883 249.605 112.284C250.221 112.685 250.665 113.264 250.935 114.02L249.647 114.496C249.479 113.992 249.199 113.609 248.807 113.348C248.425 113.077 248.019 112.942 247.589 112.942C247.029 112.942 246.563 113.073 246.189 113.334C245.825 113.595 245.643 113.941 245.643 114.37C245.643 114.697 245.746 114.972 245.951 115.196C246.157 115.42 246.409 115.607 246.707 115.756C247.006 115.896 247.426 116.064 247.967 116.26C248.639 116.503 249.185 116.731 249.605 116.946C250.025 117.161 250.38 117.464 250.669 117.856C250.968 118.239 251.117 118.729 251.117 119.326C251.117 119.895 250.963 120.399 250.655 120.838C250.347 121.277 249.918 121.617 249.367 121.86C248.817 122.103 248.187 122.224 247.477 122.224C246.712 122.224 246.003 122.019 245.349 121.608C244.705 121.188 244.164 120.605 243.725 119.858L244.943 119.186ZM257.994 117.898C257.929 117.357 257.737 116.904 257.42 116.54C257.103 116.167 256.645 115.98 256.048 115.98C255.507 115.98 255.035 116.167 254.634 116.54C254.242 116.904 254.004 117.361 253.92 117.912L257.994 117.898ZM252.52 118.458C252.52 117.739 252.669 117.1 252.968 116.54C253.267 115.98 253.677 115.546 254.2 115.238C254.732 114.921 255.339 114.762 256.02 114.762C256.981 114.762 257.686 114.995 258.134 115.462C258.591 115.929 258.899 116.358 259.058 116.75C259.273 117.273 259.38 117.851 259.38 118.486C259.38 118.617 259.375 118.733 259.366 118.836C259.357 118.929 259.352 118.99 259.352 119.018H253.92C254.004 119.578 254.247 120.035 254.648 120.39C255.049 120.745 255.511 120.922 256.034 120.922C256.454 120.922 256.799 120.857 257.07 120.726C257.35 120.595 257.541 120.474 257.644 120.362C257.747 120.25 257.845 120.124 257.938 119.984L259.114 120.516C258.89 120.973 258.517 121.361 257.994 121.678C257.471 121.986 256.813 122.14 256.02 122.14C255.339 122.14 254.732 121.986 254.2 121.678C253.677 121.361 253.267 120.922 252.968 120.362C252.669 119.802 252.52 119.167 252.52 118.458ZM262.138 111.794V122.098H260.682V111.794H262.138ZM268.87 117.898C268.805 117.357 268.613 116.904 268.296 116.54C267.979 116.167 267.521 115.98 266.924 115.98C266.383 115.98 265.911 116.167 265.51 116.54C265.118 116.904 264.88 117.361 264.796 117.912L268.87 117.898ZM263.396 118.458C263.396 117.739 263.545 117.1 263.844 116.54C264.143 115.98 264.553 115.546 265.076 115.238C265.608 114.921 266.215 114.762 266.896 114.762C267.857 114.762 268.562 114.995 269.01 115.462C269.467 115.929 269.775 116.358 269.934 116.75C270.149 117.273 270.256 117.851 270.256 118.486C270.256 118.617 270.251 118.733 270.242 118.836C270.233 118.929 270.228 118.99 270.228 119.018H264.796C264.88 119.578 265.123 120.035 265.524 120.39C265.925 120.745 266.387 120.922 266.91 120.922C267.33 120.922 267.675 120.857 267.946 120.726C268.226 120.595 268.417 120.474 268.52 120.362C268.623 120.25 268.721 120.124 268.814 119.984L269.99 120.516C269.766 120.973 269.393 121.361 268.87 121.678C268.347 121.986 267.689 122.14 266.896 122.14C266.215 122.14 265.608 121.986 265.076 121.678C264.553 121.361 264.143 120.922 263.844 120.362C263.545 119.802 263.396 119.167 263.396 118.458ZM274.833 120.782C275.123 120.782 275.421 120.717 275.729 120.586C276.047 120.446 276.313 120.269 276.527 120.054L277.521 121.034C277.195 121.361 276.784 121.631 276.289 121.846C275.804 122.051 275.337 122.154 274.889 122.154C274.171 122.154 273.527 122 272.957 121.692C272.397 121.375 271.959 120.936 271.641 120.376C271.324 119.816 271.165 119.177 271.165 118.458C271.165 117.739 271.324 117.1 271.641 116.54C271.959 115.98 272.397 115.546 272.957 115.238C273.527 114.921 274.171 114.762 274.889 114.762C275.356 114.762 275.827 114.865 276.303 115.07C276.789 115.275 277.195 115.546 277.521 115.882L276.527 116.862C276.313 116.647 276.047 116.475 275.729 116.344C275.421 116.204 275.123 116.134 274.833 116.134C274.171 116.134 273.634 116.349 273.223 116.778C272.822 117.207 272.621 117.767 272.621 118.458C272.621 119.149 272.822 119.709 273.223 120.138C273.634 120.567 274.171 120.782 274.833 120.782ZM281.621 122.14C280.987 122.14 280.464 121.93 280.053 121.51C279.643 121.09 279.433 120.549 279.423 119.886V116.106H278.163V114.832H279.423V112.83H280.879V114.832H282.447V116.106H280.879V119.816C280.879 120.068 280.949 120.287 281.089 120.474C281.229 120.661 281.407 120.759 281.621 120.768C281.78 120.768 281.929 120.754 282.069 120.726C282.219 120.689 282.317 120.665 282.363 120.656L282.671 122.014C282.214 122.098 281.864 122.14 281.621 122.14ZM285.673 114.818V122.098H284.217V114.818H285.673ZM284.119 112.438C284.119 112.195 284.194 111.999 284.343 111.85C284.502 111.691 284.703 111.612 284.945 111.612C285.188 111.612 285.384 111.691 285.533 111.85C285.692 111.999 285.771 112.195 285.771 112.438C285.771 112.671 285.692 112.867 285.533 113.026C285.384 113.185 285.188 113.264 284.945 113.264C284.703 113.264 284.502 113.189 284.343 113.04C284.194 112.881 284.119 112.681 284.119 112.438ZM290.85 120.936C291.476 120.936 291.98 120.707 292.362 120.25C292.745 119.793 292.936 119.195 292.936 118.458C292.936 117.721 292.745 117.123 292.362 116.666C291.98 116.209 291.476 115.98 290.85 115.98C290.234 115.98 289.735 116.209 289.352 116.666C288.97 117.123 288.778 117.721 288.778 118.458C288.778 119.195 288.97 119.793 289.352 120.25C289.735 120.707 290.234 120.936 290.85 120.936ZM287.322 118.458C287.322 117.739 287.472 117.1 287.77 116.54C288.069 115.98 288.484 115.541 289.016 115.224C289.558 114.907 290.169 114.748 290.85 114.748C291.541 114.748 292.152 114.907 292.684 115.224C293.226 115.541 293.646 115.98 293.944 116.54C294.243 117.1 294.392 117.739 294.392 118.458C294.392 119.167 294.243 119.802 293.944 120.362C293.646 120.922 293.226 121.361 292.684 121.678C292.152 121.995 291.541 122.154 290.85 122.154C290.169 122.154 289.558 121.995 289.016 121.678C288.484 121.361 288.069 120.922 287.77 120.362C287.472 119.802 287.322 119.167 287.322 118.458ZM300.885 118.038C300.885 117.422 300.726 116.932 300.409 116.568C300.101 116.195 299.676 116.008 299.135 116.008C298.771 116.008 298.44 116.101 298.141 116.288C297.852 116.465 297.623 116.708 297.455 117.016C297.296 117.324 297.217 117.665 297.217 118.038V122.098H295.761V114.776H297.217V116.008C297.441 115.653 297.749 115.364 298.141 115.14C298.533 114.907 298.93 114.79 299.331 114.79C299.835 114.79 300.316 114.907 300.773 115.14C301.23 115.364 301.604 115.714 301.893 116.19C302.192 116.666 302.341 117.263 302.341 117.982V122.098H300.885V118.038ZM310.627 122.042L309.171 122.028V113.418L307.393 114.426L306.777 113.208L309.185 111.864H310.627V122.042Z" fill="#368FF7"/>
<path d="M327 122L323 117L327 112" stroke="#6B6B6B" stroke-width="1.2" stroke-linejoin="bevel"/>
<path d="M319 122L323 117L319 112" stroke="#6B6B6B" stroke-width="1.2" stroke-linejoin="bevel"/>
<rect x="350.5" y="102.5" width="113" height="29" rx="14.5" fill="white"/>
<rect x="350.5" y="102.5" width="113" height="29" rx="14.5" stroke="#368FF7"/>
<path d="M364.715 119.186C365.014 119.755 365.392 120.194 365.849 120.502C366.306 120.81 366.778 120.964 367.263 120.964C367.916 120.964 368.439 120.815 368.831 120.516C369.232 120.208 369.433 119.807 369.433 119.312C369.433 118.976 369.33 118.701 369.125 118.486C368.929 118.262 368.677 118.08 368.369 117.94C368.07 117.8 367.655 117.637 367.123 117.45C366.451 117.217 365.905 116.993 365.485 116.778C365.065 116.563 364.706 116.26 364.407 115.868C364.108 115.476 363.959 114.972 363.959 114.356C363.959 113.815 364.108 113.343 364.407 112.942C364.706 112.531 365.112 112.219 365.625 112.004C366.148 111.789 366.726 111.682 367.361 111.682C368.089 111.682 368.761 111.883 369.377 112.284C369.993 112.685 370.436 113.264 370.707 114.02L369.419 114.496C369.251 113.992 368.971 113.609 368.579 113.348C368.196 113.077 367.79 112.942 367.361 112.942C366.801 112.942 366.334 113.073 365.961 113.334C365.597 113.595 365.415 113.941 365.415 114.37C365.415 114.697 365.518 114.972 365.723 115.196C365.928 115.42 366.18 115.607 366.479 115.756C366.778 115.896 367.198 116.064 367.739 116.26C368.411 116.503 368.957 116.731 369.377 116.946C369.797 117.161 370.152 117.464 370.441 117.856C370.74 118.239 370.889 118.729 370.889 119.326C370.889 119.895 370.735 120.399 370.427 120.838C370.119 121.277 369.69 121.617 369.139 121.86C368.588 122.103 367.958 122.224 367.249 122.224C366.484 122.224 365.774 122.019 365.121 121.608C364.477 121.188 363.936 120.605 363.497 119.858L364.715 119.186ZM377.765 117.898C377.7 117.357 377.509 116.904 377.191 116.54C376.874 116.167 376.417 115.98 375.819 115.98C375.278 115.98 374.807 116.167 374.405 116.54C374.013 116.904 373.775 117.361 373.691 117.912L377.765 117.898ZM372.291 118.458C372.291 117.739 372.441 117.1 372.739 116.54C373.038 115.98 373.449 115.546 373.971 115.238C374.503 114.921 375.11 114.762 375.791 114.762C376.753 114.762 377.457 114.995 377.905 115.462C378.363 115.929 378.671 116.358 378.829 116.75C379.044 117.273 379.151 117.851 379.151 118.486C379.151 118.617 379.147 118.733 379.137 118.836C379.128 118.929 379.123 118.99 379.123 119.018H373.691C373.775 119.578 374.018 120.035 374.419 120.39C374.821 120.745 375.283 120.922 375.805 120.922C376.225 120.922 376.571 120.857 376.841 120.726C377.121 120.595 377.313 120.474 377.415 120.362C377.518 120.25 377.616 120.124 377.709 119.984L378.885 120.516C378.661 120.973 378.288 121.361 377.765 121.678C377.243 121.986 376.585 122.14 375.791 122.14C375.11 122.14 374.503 121.986 373.971 121.678C373.449 121.361 373.038 120.922 372.739 120.362C372.441 119.802 372.291 119.167 372.291 118.458ZM381.91 111.794V122.098H380.454V111.794H381.91ZM388.642 117.898C388.576 117.357 388.385 116.904 388.068 116.54C387.75 116.167 387.293 115.98 386.696 115.98C386.154 115.98 385.683 116.167 385.282 116.54C384.89 116.904 384.652 117.361 384.568 117.912L388.642 117.898ZM383.168 118.458C383.168 117.739 383.317 117.1 383.616 116.54C383.914 115.98 384.325 115.546 384.848 115.238C385.38 114.921 385.986 114.762 386.668 114.762C387.629 114.762 388.334 114.995 388.782 115.462C389.239 115.929 389.547 116.358 389.706 116.75C389.92 117.273 390.028 117.851 390.028 118.486C390.028 118.617 390.023 118.733 390.014 118.836C390.004 118.929 390 118.99 390 119.018H384.568C384.652 119.578 384.894 120.035 385.296 120.39C385.697 120.745 386.159 120.922 386.682 120.922C387.102 120.922 387.447 120.857 387.718 120.726C387.998 120.595 388.189 120.474 388.292 120.362C388.394 120.25 388.492 120.124 388.586 119.984L389.762 120.516C389.538 120.973 389.164 121.361 388.642 121.678C388.119 121.986 387.461 122.14 386.668 122.14C385.986 122.14 385.38 121.986 384.848 121.678C384.325 121.361 383.914 120.922 383.616 120.362C383.317 119.802 383.168 119.167 383.168 118.458ZM394.605 120.782C394.894 120.782 395.193 120.717 395.501 120.586C395.818 120.446 396.084 120.269 396.299 120.054L397.293 121.034C396.966 121.361 396.555 121.631 396.061 121.846C395.575 122.051 395.109 122.154 394.661 122.154C393.942 122.154 393.298 122 392.729 121.692C392.169 121.375 391.73 120.936 391.413 120.376C391.095 119.816 390.937 119.177 390.937 118.458C390.937 117.739 391.095 117.1 391.413 116.54C391.73 115.98 392.169 115.546 392.729 115.238C393.298 114.921 393.942 114.762 394.661 114.762C395.127 114.762 395.599 114.865 396.075 115.07C396.56 115.275 396.966 115.546 397.293 115.882L396.299 116.862C396.084 116.647 395.818 116.475 395.501 116.344C395.193 116.204 394.894 116.134 394.605 116.134C393.942 116.134 393.405 116.349 392.995 116.778C392.593 117.207 392.393 117.767 392.393 118.458C392.393 119.149 392.593 119.709 392.995 120.138C393.405 120.567 393.942 120.782 394.605 120.782ZM401.393 122.14C400.758 122.14 400.235 121.93 399.825 121.51C399.414 121.09 399.204 120.549 399.195 119.886V116.106H397.935V114.832H399.195V112.83H400.651V114.832H402.219V116.106H400.651V119.816C400.651 120.068 400.721 120.287 400.861 120.474C401.001 120.661 401.178 120.759 401.393 120.768C401.551 120.768 401.701 120.754 401.841 120.726C401.99 120.689 402.088 120.665 402.135 120.656L402.443 122.014C401.985 122.098 401.635 122.14 401.393 122.14ZM405.445 114.818V122.098H403.989V114.818H405.445ZM403.891 112.438C403.891 112.195 403.966 111.999 404.115 111.85C404.274 111.691 404.474 111.612 404.717 111.612C404.96 111.612 405.156 111.691 405.305 111.85C405.464 111.999 405.543 112.195 405.543 112.438C405.543 112.671 405.464 112.867 405.305 113.026C405.156 113.185 404.96 113.264 404.717 113.264C404.474 113.264 404.274 113.189 404.115 113.04C403.966 112.881 403.891 112.681 403.891 112.438ZM410.622 120.936C411.247 120.936 411.751 120.707 412.134 120.25C412.517 119.793 412.708 119.195 412.708 118.458C412.708 117.721 412.517 117.123 412.134 116.666C411.751 116.209 411.247 115.98 410.622 115.98C410.006 115.98 409.507 116.209 409.124 116.666C408.741 117.123 408.55 117.721 408.55 118.458C408.55 119.195 408.741 119.793 409.124 120.25C409.507 120.707 410.006 120.936 410.622 120.936ZM407.094 118.458C407.094 117.739 407.243 117.1 407.542 116.54C407.841 115.98 408.256 115.541 408.788 115.224C409.329 114.907 409.941 114.748 410.622 114.748C411.313 114.748 411.924 114.907 412.456 115.224C412.997 115.541 413.417 115.98 413.716 116.54C414.015 117.1 414.164 117.739 414.164 118.458C414.164 119.167 414.015 119.802 413.716 120.362C413.417 120.922 412.997 121.361 412.456 121.678C411.924 121.995 411.313 122.154 410.622 122.154C409.941 122.154 409.329 121.995 408.788 121.678C408.256 121.361 407.841 120.922 407.542 120.362C407.243 119.802 407.094 119.167 407.094 118.458ZM420.656 118.038C420.656 117.422 420.498 116.932 420.18 116.568C419.872 116.195 419.448 116.008 418.906 116.008C418.542 116.008 418.211 116.101 417.912 116.288C417.623 116.465 417.394 116.708 417.226 117.016C417.068 117.324 416.988 117.665 416.988 118.038V122.098H415.532V114.776H416.988V116.008C417.212 115.653 417.52 115.364 417.912 115.14C418.304 114.907 418.701 114.79 419.102 114.79C419.606 114.79 420.087 114.907 420.544 115.14C421.002 115.364 421.375 115.714 421.664 116.19C421.963 116.666 422.112 117.263 422.112 117.982V122.098H420.656V118.038ZM426.857 120.768C426.988 120.647 427.464 120.208 428.285 119.452C429.041 118.771 429.643 118.211 430.091 117.772C430.548 117.324 430.931 116.867 431.239 116.4C431.547 115.924 431.701 115.476 431.701 115.056C431.701 114.477 431.533 114.006 431.197 113.642C430.87 113.269 430.446 113.082 429.923 113.082C429.522 113.082 429.134 113.213 428.761 113.474C428.388 113.735 428.112 114.071 427.935 114.482L426.661 113.922C426.941 113.287 427.384 112.769 427.991 112.368C428.607 111.957 429.251 111.752 429.923 111.752C430.548 111.752 431.104 111.892 431.589 112.172C432.084 112.452 432.466 112.844 432.737 113.348C433.017 113.843 433.157 114.412 433.157 115.056C433.157 115.691 432.966 116.321 432.583 116.946C432.21 117.571 431.752 118.15 431.211 118.682C430.679 119.214 429.998 119.835 429.167 120.544L428.915 120.768H433.311V122.042H426.997L426.857 120.768Z" fill="#368FF7"/>
<path d="M449 122L445 117L449 112" stroke="#6B6B6B" stroke-width="1.2" stroke-linejoin="bevel"/>
<path d="M441 122L445 117L441 112" stroke="#6B6B6B" stroke-width="1.2" stroke-linejoin="bevel"/>
<rect x="472.5" y="102.5" width="113" height="29" rx="14.5" fill="white"/>
<rect x="472.5" y="102.5" width="113" height="29" rx="14.5" stroke="#368FF7"/>
<path d="M486.496 119.186C486.795 119.755 487.173 120.194 487.63 120.502C488.087 120.81 488.559 120.964 489.044 120.964C489.697 120.964 490.22 120.815 490.612 120.516C491.013 120.208 491.214 119.807 491.214 119.312C491.214 118.976 491.111 118.701 490.906 118.486C490.71 118.262 490.458 118.08 490.15 117.94C489.851 117.8 489.436 117.637 488.904 117.45C488.232 117.217 487.686 116.993 487.266 116.778C486.846 116.563 486.487 116.26 486.188 115.868C485.889 115.476 485.74 114.972 485.74 114.356C485.74 113.815 485.889 113.343 486.188 112.942C486.487 112.531 486.893 112.219 487.406 112.004C487.929 111.789 488.507 111.682 489.142 111.682C489.87 111.682 490.542 111.883 491.158 112.284C491.774 112.685 492.217 113.264 492.488 114.02L491.2 114.496C491.032 113.992 490.752 113.609 490.36 113.348C489.977 113.077 489.571 112.942 489.142 112.942C488.582 112.942 488.115 113.073 487.742 113.334C487.378 113.595 487.196 113.941 487.196 114.37C487.196 114.697 487.299 114.972 487.504 115.196C487.709 115.42 487.961 115.607 488.26 115.756C488.559 115.896 488.979 116.064 489.52 116.26C490.192 116.503 490.738 116.731 491.158 116.946C491.578 117.161 491.933 117.464 492.222 117.856C492.521 118.239 492.67 118.729 492.67 119.326C492.67 119.895 492.516 120.399 492.208 120.838C491.9 121.277 491.471 121.617 490.92 121.86C490.369 122.103 489.739 122.224 489.03 122.224C488.265 122.224 487.555 122.019 486.902 121.608C486.258 121.188 485.717 120.605 485.278 119.858L486.496 119.186ZM499.547 117.898C499.481 117.357 499.29 116.904 498.973 116.54C498.655 116.167 498.198 115.98 497.601 115.98C497.059 115.98 496.588 116.167 496.187 116.54C495.795 116.904 495.557 117.361 495.473 117.912L499.547 117.898ZM494.073 118.458C494.073 117.739 494.222 117.1 494.521 116.54C494.819 115.98 495.23 115.546 495.753 115.238C496.285 114.921 496.891 114.762 497.573 114.762C498.534 114.762 499.239 114.995 499.687 115.462C500.144 115.929 500.452 116.358 500.611 116.75C500.825 117.273 500.933 117.851 500.933 118.486C500.933 118.617 500.928 118.733 500.919 118.836C500.909 118.929 500.905 118.99 500.905 119.018H495.473C495.557 119.578 495.799 120.035 496.201 120.39C496.602 120.745 497.064 120.922 497.587 120.922C498.007 120.922 498.352 120.857 498.623 120.726C498.903 120.595 499.094 120.474 499.197 120.362C499.299 120.25 499.397 120.124 499.491 119.984L500.667 120.516C500.443 120.973 500.069 121.361 499.547 121.678C499.024 121.986 498.366 122.14 497.573 122.14C496.891 122.14 496.285 121.986 495.753 121.678C495.23 121.361 494.819 120.922 494.521 120.362C494.222 119.802 494.073 119.167 494.073 118.458ZM503.691 111.794V122.098H502.235V111.794H503.691ZM510.423 117.898C510.358 117.357 510.166 116.904 509.849 116.54C509.532 116.167 509.074 115.98 508.477 115.98C507.936 115.98 507.464 116.167 507.063 116.54C506.671 116.904 506.433 117.361 506.349 117.912L510.423 117.898ZM504.949 118.458C504.949 117.739 505.098 117.1 505.397 116.54C505.696 115.98 506.106 115.546 506.629 115.238C507.161 114.921 507.768 114.762 508.449 114.762C509.41 114.762 510.115 114.995 510.563 115.462C511.02 115.929 511.328 116.358 511.487 116.75C511.702 117.273 511.809 117.851 511.809 118.486C511.809 118.617 511.804 118.733 511.795 118.836C511.786 118.929 511.781 118.99 511.781 119.018H506.349C506.433 119.578 506.676 120.035 507.077 120.39C507.478 120.745 507.94 120.922 508.463 120.922C508.883 120.922 509.228 120.857 509.499 120.726C509.779 120.595 509.97 120.474 510.073 120.362C510.176 120.25 510.274 120.124 510.367 119.984L511.543 120.516C511.319 120.973 510.946 121.361 510.423 121.678C509.9 121.986 509.242 122.14 508.449 122.14C507.768 122.14 507.161 121.986 506.629 121.678C506.106 121.361 505.696 120.922 505.397 120.362C505.098 119.802 504.949 119.167 504.949 118.458ZM516.386 120.782C516.675 120.782 516.974 120.717 517.282 120.586C517.599 120.446 517.865 120.269 518.08 120.054L519.074 121.034C518.747 121.361 518.337 121.631 517.842 121.846C517.357 122.051 516.89 122.154 516.442 122.154C515.723 122.154 515.079 122 514.51 121.692C513.95 121.375 513.511 120.936 513.194 120.376C512.877 119.816 512.718 119.177 512.718 118.458C512.718 117.739 512.877 117.1 513.194 116.54C513.511 115.98 513.95 115.546 514.51 115.238C515.079 114.921 515.723 114.762 516.442 114.762C516.909 114.762 517.38 114.865 517.856 115.07C518.341 115.275 518.747 115.546 519.074 115.882L518.08 116.862C517.865 116.647 517.599 116.475 517.282 116.344C516.974 116.204 516.675 116.134 516.386 116.134C515.723 116.134 515.187 116.349 514.776 116.778C514.375 117.207 514.174 117.767 514.174 118.458C514.174 119.149 514.375 119.709 514.776 120.138C515.187 120.567 515.723 120.782 516.386 120.782ZM523.174 122.14C522.539 122.14 522.017 121.93 521.606 121.51C521.195 121.09 520.985 120.549 520.976 119.886V116.106H519.716V114.832H520.976V112.83H522.432V114.832H524V116.106H522.432V119.816C522.432 120.068 522.502 120.287 522.642 120.474C522.782 120.661 522.959 120.759 523.174 120.768C523.333 120.768 523.482 120.754 523.622 120.726C523.771 120.689 523.869 120.665 523.916 120.656L524.224 122.014C523.767 122.098 523.417 122.14 523.174 122.14ZM527.226 114.818V122.098H525.77V114.818H527.226ZM525.672 112.438C525.672 112.195 525.747 111.999 525.896 111.85C526.055 111.691 526.256 111.612 526.498 111.612C526.741 111.612 526.937 111.691 527.086 111.85C527.245 111.999 527.324 112.195 527.324 112.438C527.324 112.671 527.245 112.867 527.086 113.026C526.937 113.185 526.741 113.264 526.498 113.264C526.256 113.264 526.055 113.189 525.896 113.04C525.747 112.881 525.672 112.681 525.672 112.438ZM532.403 120.936C533.029 120.936 533.533 120.707 533.915 120.25C534.298 119.793 534.489 119.195 534.489 118.458C534.489 117.721 534.298 117.123 533.915 116.666C533.533 116.209 533.029 115.98 532.403 115.98C531.787 115.98 531.288 116.209 530.905 116.666C530.523 117.123 530.331 117.721 530.331 118.458C530.331 119.195 530.523 119.793 530.905 120.25C531.288 120.707 531.787 120.936 532.403 120.936ZM528.875 118.458C528.875 117.739 529.025 117.1 529.323 116.54C529.622 115.98 530.037 115.541 530.569 115.224C531.111 114.907 531.722 114.748 532.403 114.748C533.094 114.748 533.705 114.907 534.237 115.224C534.779 115.541 535.199 115.98 535.497 116.54C535.796 117.1 535.945 117.739 535.945 118.458C535.945 119.167 535.796 119.802 535.497 120.362C535.199 120.922 534.779 121.361 534.237 121.678C533.705 121.995 533.094 122.154 532.403 122.154C531.722 122.154 531.111 121.995 530.569 121.678C530.037 121.361 529.622 120.922 529.323 120.362C529.025 119.802 528.875 119.167 528.875 118.458ZM542.438 118.038C542.438 117.422 542.279 116.932 541.962 116.568C541.654 116.195 541.229 116.008 540.688 116.008C540.324 116.008 539.992 116.101 539.694 116.288C539.404 116.465 539.176 116.708 539.008 117.016C538.849 117.324 538.77 117.665 538.77 118.038V122.098H537.314V114.776H538.77V116.008C538.994 115.653 539.302 115.364 539.694 115.14C540.086 114.907 540.482 114.79 540.884 114.79C541.388 114.79 541.868 114.907 542.326 115.14C542.783 115.364 543.156 115.714 543.446 116.19C543.744 116.666 543.894 117.263 543.894 117.982V122.098H542.438V118.038ZM553.832 116.778C554.28 117.039 554.635 117.394 554.896 117.842C555.167 118.281 555.302 118.719 555.302 119.158C555.302 119.727 555.158 120.236 554.868 120.684C554.579 121.132 554.173 121.482 553.65 121.734C553.128 121.986 552.535 122.112 551.872 122.112C551.21 122.112 550.617 121.986 550.094 121.734C549.572 121.473 549.161 121.113 548.862 120.656C548.573 120.189 548.428 119.662 548.428 119.074H549.884C549.884 119.587 550.071 120.007 550.444 120.334C550.818 120.661 551.294 120.824 551.872 120.824C552.47 120.824 552.955 120.665 553.328 120.348C553.702 120.021 553.888 119.601 553.888 119.088C553.888 118.584 553.702 118.173 553.328 117.856C552.955 117.539 552.479 117.38 551.9 117.38H551.172V116.162H551.9C552.442 116.162 552.885 116.017 553.23 115.728C553.576 115.439 553.748 115.065 553.748 114.608C553.748 114.151 553.58 113.782 553.244 113.502C552.908 113.213 552.479 113.068 551.956 113.068C551.443 113.068 551.018 113.213 550.682 113.502C550.356 113.791 550.192 114.165 550.192 114.622H548.736C548.736 114.071 548.872 113.581 549.142 113.152C549.422 112.713 549.805 112.377 550.29 112.144C550.776 111.901 551.331 111.78 551.956 111.78C552.572 111.78 553.123 111.897 553.608 112.13C554.103 112.363 554.486 112.69 554.756 113.11C555.027 113.53 555.162 114.006 555.162 114.538C555.162 114.939 555.041 115.35 554.798 115.77C554.556 116.181 554.234 116.517 553.832 116.778Z" fill="#368FF7"/>
<path d="M571 122L567 117L571 112" stroke="#6B6B6B" stroke-width="1.2" stroke-linejoin="bevel"/>
<path d="M563 122L567 117L563 112" stroke="#6B6B6B" stroke-width="1.2" stroke-linejoin="bevel"/>
<path d="M230 77L230 89" stroke="#6B6B6B" stroke-width="1.2"/>
<path d="M230 90L230 102" stroke="#6B6B6B" stroke-width="1.2"/>
<path d="M198.562 87.042L197.106 87.028V78.418L195.328 79.426L194.712 78.208L197.12 76.864H198.562V87.042ZM203.981 85.866C204.587 85.866 205.082 85.67 205.465 85.278C205.857 84.886 206.053 84.3773 206.053 83.752C206.053 83.1267 205.857 82.618 205.465 82.226C205.082 81.8247 204.587 81.624 203.981 81.624C203.383 81.624 202.893 81.8247 202.511 82.226C202.128 82.618 201.937 83.1267 201.937 83.752C201.937 84.3773 202.128 84.886 202.511 85.278C202.893 85.67 203.383 85.866 203.981 85.866ZM200.481 83.752C200.481 83.136 200.667 82.492 201.041 81.82L203.855 76.836H205.521L203.477 80.406C203.635 80.3687 203.822 80.35 204.037 80.35C204.709 80.35 205.306 80.4993 205.829 80.798C206.361 81.0873 206.771 81.4887 207.061 82.002C207.359 82.5153 207.509 83.0987 207.509 83.752C207.509 84.4053 207.359 84.9887 207.061 85.502C206.762 86.0153 206.347 86.4167 205.815 86.706C205.283 86.9953 204.676 87.14 203.995 87.14C203.313 87.14 202.707 86.9953 202.175 86.706C201.643 86.4167 201.227 86.0153 200.929 85.502C200.63 84.9887 200.481 84.4053 200.481 83.752ZM212.823 85.964C213.448 85.964 213.957 85.7353 214.349 85.278C214.741 84.8113 214.937 84.2047 214.937 83.458C214.937 82.7207 214.741 82.1233 214.349 81.666C213.957 81.2087 213.448 80.98 212.823 80.98C212.431 80.98 212.067 81.092 211.731 81.316C211.395 81.54 211.129 81.8433 210.933 82.226C210.737 82.5993 210.639 83.01 210.639 83.458C210.639 83.9153 210.737 84.3353 210.933 84.718C211.129 85.1007 211.395 85.404 211.731 85.628C212.067 85.852 212.431 85.964 212.823 85.964ZM209.169 79.776H210.625V81.036C210.877 80.616 211.227 80.3033 211.675 80.098C212.123 79.8833 212.533 79.776 212.907 79.776C213.588 79.776 214.19 79.9347 214.713 80.252C215.245 80.56 215.655 80.994 215.945 81.554C216.243 82.1047 216.393 82.7393 216.393 83.458C216.393 84.1767 216.243 84.8207 215.945 85.39C215.655 85.95 215.245 86.3887 214.713 86.706C214.19 87.014 213.588 87.168 212.907 87.168C212.533 87.168 212.123 87.0607 211.675 86.846C211.227 86.622 210.877 86.3 210.625 85.88V90.234H209.169V79.776ZM221.536 83.444L224.238 87.098H222.432L220.682 84.62L218.946 87.098H217.14L219.8 83.444L217.084 79.776H218.904L220.682 82.324L222.446 79.776H224.266L221.536 83.444Z" fill="#6B6B6B"/>
<path d="M198.562 100.042L197.106 100.028V91.418L195.328 92.426L194.712 91.208L197.12 89.864H198.562V100.042ZM203.981 98.866C204.587 98.866 205.082 98.67 205.465 98.278C205.857 97.886 206.053 97.3773 206.053 96.752C206.053 96.1267 205.857 95.618 205.465 95.226C205.082 94.8247 204.587 94.624 203.981 94.624C203.383 94.624 202.893 94.8247 202.511 95.226C202.128 95.618 201.937 96.1267 201.937 96.752C201.937 97.3773 202.128 97.886 202.511 98.278C202.893 98.67 203.383 98.866 203.981 98.866ZM200.481 96.752C200.481 96.136 200.667 95.492 201.041 94.82L203.855 89.836H205.521L203.477 93.406C203.635 93.3687 203.822 93.35 204.037 93.35C204.709 93.35 205.306 93.4993 205.829 93.798C206.361 94.0873 206.771 94.4887 207.061 95.002C207.359 95.5153 207.509 96.0987 207.509 96.752C207.509 97.4053 207.359 97.9887 207.061 98.502C206.762 99.0153 206.347 99.4167 205.815 99.706C205.283 99.9953 204.676 100.14 203.995 100.14C203.313 100.14 202.707 99.9953 202.175 99.706C201.643 99.4167 201.227 99.0153 200.929 98.502C200.63 97.9887 200.481 97.4053 200.481 96.752ZM212.823 98.964C213.448 98.964 213.957 98.7353 214.349 98.278C214.741 97.8113 214.937 97.2047 214.937 96.458C214.937 95.7207 214.741 95.1233 214.349 94.666C213.957 94.2087 213.448 93.98 212.823 93.98C212.431 93.98 212.067 94.092 211.731 94.316C211.395 94.54 211.129 94.8433 210.933 95.226C210.737 95.5993 210.639 96.01 210.639 96.458C210.639 96.9153 210.737 97.3353 210.933 97.718C211.129 98.1007 211.395 98.404 211.731 98.628C212.067 98.852 212.431 98.964 212.823 98.964ZM209.169 92.776H210.625V94.036C210.877 93.616 211.227 93.3033 211.675 93.098C212.123 92.8833 212.533 92.776 212.907 92.776C213.588 92.776 214.19 92.9347 214.713 93.252C215.245 93.56 215.655 93.994 215.945 94.554C216.243 95.1047 216.393 95.7393 216.393 96.458C216.393 97.1767 216.243 97.8207 215.945 98.39C215.655 98.95 215.245 99.3887 214.713 99.706C214.19 100.014 213.588 100.168 212.907 100.168C212.533 100.168 212.123 100.061 211.675 99.846C211.227 99.622 210.877 99.3 210.625 98.88V103.234H209.169V92.776ZM221.536 96.444L224.238 100.098H222.432L220.682 97.62L218.946 100.098H217.14L219.8 96.444L217.084 92.776H218.904L220.682 95.324L222.446 92.776H224.266L221.536 96.444Z" fill="#6B6B6B"/>
<rect x="714" y="77" width="12" height="484" transform="rotate(90 714 77)" fill="#FF0000" fill-opacity="0.1"/>
<rect x="714" y="90" width="12" height="484" transform="rotate(90 714 90)" fill="#FF0000" fill-opacity="0.1"/>
<path d="M331 47L323 47" stroke="#6B6B6B" stroke-width="1.2"/>
<path d="M318.172 35.964C318.76 35.964 319.236 35.796 319.6 35.46C319.973 35.1147 320.16 34.6713 320.16 34.13C320.16 33.5887 319.973 33.15 319.6 32.814C319.236 32.4687 318.76 32.296 318.172 32.296C317.575 32.296 317.089 32.4687 316.716 32.814C316.343 33.15 316.156 33.5887 316.156 34.13C316.156 34.6713 316.343 35.1147 316.716 35.46C317.089 35.796 317.575 35.964 318.172 35.964ZM314.7 34.158C314.7 33.7007 314.859 33.2433 315.176 32.786C315.493 32.3193 315.899 31.9507 316.394 31.68C315.983 31.4 315.647 31.0547 315.386 30.644C315.125 30.2333 314.994 29.846 314.994 29.482C314.994 28.9407 315.129 28.46 315.4 28.04C315.671 27.6107 316.044 27.2793 316.52 27.046C317.005 26.8033 317.556 26.682 318.172 26.682C318.788 26.682 319.334 26.8033 319.81 27.046C320.295 27.2793 320.673 27.6107 320.944 28.04C321.215 28.46 321.35 28.9407 321.35 29.482C321.35 29.8553 321.219 30.2473 320.958 30.658C320.697 31.0687 320.361 31.4093 319.95 31.68C320.445 31.96 320.846 32.3287 321.154 32.786C321.462 33.2433 321.616 33.7007 321.616 34.158C321.616 34.746 321.471 35.2733 321.182 35.74C320.893 36.1973 320.487 36.5567 319.964 36.818C319.441 37.07 318.844 37.196 318.172 37.196C317.5 37.196 316.898 37.07 316.366 36.818C315.843 36.5567 315.433 36.1973 315.134 35.74C314.845 35.2733 314.7 34.746 314.7 34.158ZM316.45 29.482C316.45 29.9487 316.609 30.3267 316.926 30.616C317.243 30.9053 317.659 31.05 318.172 31.05C318.676 31.05 319.087 30.9053 319.404 30.616C319.731 30.3173 319.894 29.9393 319.894 29.482C319.894 29.0247 319.731 28.6513 319.404 28.362C319.087 28.0633 318.676 27.914 318.172 27.914C317.659 27.914 317.243 28.0587 316.926 28.348C316.609 28.6373 316.45 29.0153 316.45 29.482ZM326.933 35.964C327.558 35.964 328.067 35.7353 328.459 35.278C328.851 34.8113 329.047 34.2047 329.047 33.458C329.047 32.7207 328.851 32.1233 328.459 31.666C328.067 31.2087 327.558 30.98 326.933 30.98C326.541 30.98 326.177 31.092 325.841 31.316C325.505 31.54 325.239 31.8433 325.043 32.226C324.847 32.5993 324.749 33.01 324.749 33.458C324.749 33.9153 324.847 34.3353 325.043 34.718C325.239 35.1007 325.505 35.404 325.841 35.628C326.177 35.852 326.541 35.964 326.933 35.964ZM323.279 29.776H324.735V31.036C324.987 30.616 325.337 30.3033 325.785 30.098C326.233 29.8833 326.644 29.776 327.017 29.776C327.698 29.776 328.3 29.9347 328.823 30.252C329.355 30.56 329.766 30.994 330.055 31.554C330.354 32.1047 330.503 32.7393 330.503 33.458C330.503 34.1767 330.354 34.8207 330.055 35.39C329.766 35.95 329.355 36.3887 328.823 36.706C328.3 37.014 327.698 37.168 327.017 37.168C326.644 37.168 326.233 37.0607 325.785 36.846C325.337 36.622 324.987 36.3 324.735 35.88V40.234H323.279V29.776ZM335.646 33.444L338.348 37.098H336.542L334.792 34.62L333.056 37.098H331.25L333.91 33.444L331.194 29.776H333.014L334.792 32.324L336.556 29.776H338.376L335.646 33.444Z" fill="#6B6B6B"/>
<rect x="331" y="77" width="8.00001" height="30" transform="rotate(-180 331 77)" fill="#FF0000" fill-opacity="0.1"/>
<path d="M434 47L426 47" stroke="#6B6B6B" stroke-width="1.2"/>
<path d="M421.172 35.964C421.76 35.964 422.236 35.796 422.6 35.46C422.973 35.1147 423.16 34.6713 423.16 34.13C423.16 33.5887 422.973 33.15 422.6 32.814C422.236 32.4687 421.76 32.296 421.172 32.296C420.575 32.296 420.089 32.4687 419.716 32.814C419.343 33.15 419.156 33.5887 419.156 34.13C419.156 34.6713 419.343 35.1147 419.716 35.46C420.089 35.796 420.575 35.964 421.172 35.964ZM417.7 34.158C417.7 33.7007 417.859 33.2433 418.176 32.786C418.493 32.3193 418.899 31.9507 419.394 31.68C418.983 31.4 418.647 31.0547 418.386 30.644C418.125 30.2333 417.994 29.846 417.994 29.482C417.994 28.9407 418.129 28.46 418.4 28.04C418.671 27.6107 419.044 27.2793 419.52 27.046C420.005 26.8033 420.556 26.682 421.172 26.682C421.788 26.682 422.334 26.8033 422.81 27.046C423.295 27.2793 423.673 27.6107 423.944 28.04C424.215 28.46 424.35 28.9407 424.35 29.482C424.35 29.8553 424.219 30.2473 423.958 30.658C423.697 31.0687 423.361 31.4093 422.95 31.68C423.445 31.96 423.846 32.3287 424.154 32.786C424.462 33.2433 424.616 33.7007 424.616 34.158C424.616 34.746 424.471 35.2733 424.182 35.74C423.893 36.1973 423.487 36.5567 422.964 36.818C422.441 37.07 421.844 37.196 421.172 37.196C420.5 37.196 419.898 37.07 419.366 36.818C418.843 36.5567 418.433 36.1973 418.134 35.74C417.845 35.2733 417.7 34.746 417.7 34.158ZM419.45 29.482C419.45 29.9487 419.609 30.3267 419.926 30.616C420.243 30.9053 420.659 31.05 421.172 31.05C421.676 31.05 422.087 30.9053 422.404 30.616C422.731 30.3173 422.894 29.9393 422.894 29.482C422.894 29.0247 422.731 28.6513 422.404 28.362C422.087 28.0633 421.676 27.914 421.172 27.914C420.659 27.914 420.243 28.0587 419.926 28.348C419.609 28.6373 419.45 29.0153 419.45 29.482ZM429.933 35.964C430.558 35.964 431.067 35.7353 431.459 35.278C431.851 34.8113 432.047 34.2047 432.047 33.458C432.047 32.7207 431.851 32.1233 431.459 31.666C431.067 31.2087 430.558 30.98 429.933 30.98C429.541 30.98 429.177 31.092 428.841 31.316C428.505 31.54 428.239 31.8433 428.043 32.226C427.847 32.5993 427.749 33.01 427.749 33.458C427.749 33.9153 427.847 34.3353 428.043 34.718C428.239 35.1007 428.505 35.404 428.841 35.628C429.177 35.852 429.541 35.964 429.933 35.964ZM426.279 29.776H427.735V31.036C427.987 30.616 428.337 30.3033 428.785 30.098C429.233 29.8833 429.644 29.776 430.017 29.776C430.698 29.776 431.3 29.9347 431.823 30.252C432.355 30.56 432.766 30.994 433.055 31.554C433.354 32.1047 433.503 32.7393 433.503 33.458C433.503 34.1767 433.354 34.8207 433.055 35.39C432.766 35.95 432.355 36.3887 431.823 36.706C431.3 37.014 430.698 37.168 430.017 37.168C429.644 37.168 429.233 37.0607 428.785 36.846C428.337 36.622 427.987 36.3 427.735 35.88V40.234H426.279V29.776ZM438.646 33.444L441.348 37.098H439.542L437.792 34.62L436.056 37.098H434.25L436.91 33.444L434.194 29.776H436.014L437.792 32.324L439.556 29.776H441.376L438.646 33.444Z" fill="#6B6B6B"/>
<rect x="434" y="77" width="8.00001" height="30" transform="rotate(-180 434 77)" fill="#FF0000" fill-opacity="0.1"/>
<path d="M472 132L464 132" stroke="#6B6B6B" stroke-width="1.2"/>
<rect x="472" y="132" width="8.00001" height="30" transform="rotate(-180 472 132)" fill="#FF0000" fill-opacity="0.1"/>
<path d="M459.172 147.964C459.76 147.964 460.236 147.796 460.6 147.46C460.973 147.115 461.16 146.671 461.16 146.13C461.16 145.589 460.973 145.15 460.6 144.814C460.236 144.469 459.76 144.296 459.172 144.296C458.575 144.296 458.089 144.469 457.716 144.814C457.343 145.15 457.156 145.589 457.156 146.13C457.156 146.671 457.343 147.115 457.716 147.46C458.089 147.796 458.575 147.964 459.172 147.964ZM455.7 146.158C455.7 145.701 455.859 145.243 456.176 144.786C456.493 144.319 456.899 143.951 457.394 143.68C456.983 143.4 456.647 143.055 456.386 142.644C456.125 142.233 455.994 141.846 455.994 141.482C455.994 140.941 456.129 140.46 456.4 140.04C456.671 139.611 457.044 139.279 457.52 139.046C458.005 138.803 458.556 138.682 459.172 138.682C459.788 138.682 460.334 138.803 460.81 139.046C461.295 139.279 461.673 139.611 461.944 140.04C462.215 140.46 462.35 140.941 462.35 141.482C462.35 141.855 462.219 142.247 461.958 142.658C461.697 143.069 461.361 143.409 460.95 143.68C461.445 143.96 461.846 144.329 462.154 144.786C462.462 145.243 462.616 145.701 462.616 146.158C462.616 146.746 462.471 147.273 462.182 147.74C461.893 148.197 461.487 148.557 460.964 148.818C460.441 149.07 459.844 149.196 459.172 149.196C458.5 149.196 457.898 149.07 457.366 148.818C456.843 148.557 456.433 148.197 456.134 147.74C455.845 147.273 455.7 146.746 455.7 146.158ZM457.45 141.482C457.45 141.949 457.609 142.327 457.926 142.616C458.243 142.905 458.659 143.05 459.172 143.05C459.676 143.05 460.087 142.905 460.404 142.616C460.731 142.317 460.894 141.939 460.894 141.482C460.894 141.025 460.731 140.651 460.404 140.362C460.087 140.063 459.676 139.914 459.172 139.914C458.659 139.914 458.243 140.059 457.926 140.348C457.609 140.637 457.45 141.015 457.45 141.482ZM467.933 147.964C468.558 147.964 469.067 147.735 469.459 147.278C469.851 146.811 470.047 146.205 470.047 145.458C470.047 144.721 469.851 144.123 469.459 143.666C469.067 143.209 468.558 142.98 467.933 142.98C467.541 142.98 467.177 143.092 466.841 143.316C466.505 143.54 466.239 143.843 466.043 144.226C465.847 144.599 465.749 145.01 465.749 145.458C465.749 145.915 465.847 146.335 466.043 146.718C466.239 147.101 466.505 147.404 466.841 147.628C467.177 147.852 467.541 147.964 467.933 147.964ZM464.279 141.776H465.735V143.036C465.987 142.616 466.337 142.303 466.785 142.098C467.233 141.883 467.644 141.776 468.017 141.776C468.698 141.776 469.3 141.935 469.823 142.252C470.355 142.56 470.766 142.994 471.055 143.554C471.354 144.105 471.503 144.739 471.503 145.458C471.503 146.177 471.354 146.821 471.055 147.39C470.766 147.95 470.355 148.389 469.823 148.706C469.3 149.014 468.698 149.168 468.017 149.168C467.644 149.168 467.233 149.061 466.785 148.846C466.337 148.622 465.987 148.3 465.735 147.88V152.234H464.279V141.776ZM476.646 145.444L479.348 149.098H477.542L475.792 146.62L474.056 149.098H472.25L474.91 145.444L472.194 141.776H474.014L475.792 144.324L477.556 141.776H479.376L476.646 145.444Z" fill="#6B6B6B"/>
<path d="M350 132L342 132" stroke="#6B6B6B" stroke-width="1.2"/>
<rect x="350" y="132" width="8.00001" height="30" transform="rotate(-180 350 132)" fill="#FF0000" fill-opacity="0.1"/>
<path d="M337.172 147.964C337.76 147.964 338.236 147.796 338.6 147.46C338.973 147.115 339.16 146.671 339.16 146.13C339.16 145.589 338.973 145.15 338.6 144.814C338.236 144.469 337.76 144.296 337.172 144.296C336.575 144.296 336.089 144.469 335.716 144.814C335.343 145.15 335.156 145.589 335.156 146.13C335.156 146.671 335.343 147.115 335.716 147.46C336.089 147.796 336.575 147.964 337.172 147.964ZM333.7 146.158C333.7 145.701 333.859 145.243 334.176 144.786C334.493 144.319 334.899 143.951 335.394 143.68C334.983 143.4 334.647 143.055 334.386 142.644C334.125 142.233 333.994 141.846 333.994 141.482C333.994 140.941 334.129 140.46 334.4 140.04C334.671 139.611 335.044 139.279 335.52 139.046C336.005 138.803 336.556 138.682 337.172 138.682C337.788 138.682 338.334 138.803 338.81 139.046C339.295 139.279 339.673 139.611 339.944 140.04C340.215 140.46 340.35 140.941 340.35 141.482C340.35 141.855 340.219 142.247 339.958 142.658C339.697 143.069 339.361 143.409 338.95 143.68C339.445 143.96 339.846 144.329 340.154 144.786C340.462 145.243 340.616 145.701 340.616 146.158C340.616 146.746 340.471 147.273 340.182 147.74C339.893 148.197 339.487 148.557 338.964 148.818C338.441 149.07 337.844 149.196 337.172 149.196C336.5 149.196 335.898 149.07 335.366 148.818C334.843 148.557 334.433 148.197 334.134 147.74C333.845 147.273 333.7 146.746 333.7 146.158ZM335.45 141.482C335.45 141.949 335.609 142.327 335.926 142.616C336.243 142.905 336.659 143.05 337.172 143.05C337.676 143.05 338.087 142.905 338.404 142.616C338.731 142.317 338.894 141.939 338.894 141.482C338.894 141.025 338.731 140.651 338.404 140.362C338.087 140.063 337.676 139.914 337.172 139.914C336.659 139.914 336.243 140.059 335.926 140.348C335.609 140.637 335.45 141.015 335.45 141.482ZM345.933 147.964C346.558 147.964 347.067 147.735 347.459 147.278C347.851 146.811 348.047 146.205 348.047 145.458C348.047 144.721 347.851 144.123 347.459 143.666C347.067 143.209 346.558 142.98 345.933 142.98C345.541 142.98 345.177 143.092 344.841 143.316C344.505 143.54 344.239 143.843 344.043 144.226C343.847 144.599 343.749 145.01 343.749 145.458C343.749 145.915 343.847 146.335 344.043 146.718C344.239 147.101 344.505 147.404 344.841 147.628C345.177 147.852 345.541 147.964 345.933 147.964ZM342.279 141.776H343.735V143.036C343.987 142.616 344.337 142.303 344.785 142.098C345.233 141.883 345.644 141.776 346.017 141.776C346.698 141.776 347.3 141.935 347.823 142.252C348.355 142.56 348.766 142.994 349.055 143.554C349.354 144.105 349.503 144.739 349.503 145.458C349.503 146.177 349.354 146.821 349.055 147.39C348.766 147.95 348.355 148.389 347.823 148.706C347.3 149.014 346.698 149.168 346.017 149.168C345.644 149.168 345.233 149.061 344.785 148.846C344.337 148.622 343.987 148.3 343.735 147.88V152.234H342.279V141.776ZM354.646 145.444L357.348 149.098H355.542L353.792 146.62L352.056 149.098H350.25L352.91 145.444L350.194 141.776H352.014L353.792 144.324L355.556 141.776H357.376L354.646 145.444Z" fill="#6B6B6B"/>
</svg>
