<svg xmlns="http://www.w3.org/2000/svg" width="908" height="179" fill="none" viewBox="0 0 908 179"><path fill="#fff" d="M.5 0h907v179H.5z"/><rect width="92" height="29" x="230.5" y="47.5" fill="#fff" rx="14.5"/><rect width="92" height="29" x="230.5" y="47.5" stroke="#6B6B6B" rx="14.5"/><path fill="#121212" d="M253.233 62.59q0 1.428-.616 2.464a4.06 4.06 0 0 1-1.694 1.596q-1.092.546-2.52.56-1.485 0-2.66-.672a4.8 4.8 0 0 1-1.82-1.862q-.658-1.204-.658-2.73t.658-2.716a4.8 4.8 0 0 1 1.82-1.862q1.175-.672 2.66-.672 1.581 0 2.688.728 1.12.714 1.666 1.75l-1.246.644q-.393-.77-1.19-1.302-.799-.546-1.918-.546-1.092 0-1.932.504-.826.49-1.288 1.4-.462.896-.462 2.072t.462 2.086a3.46 3.46 0 0 0 1.288 1.4q.84.504 1.932.504 1.512-.042 2.45-.798.951-.77.966-2.226h-3.262v-1.218h4.69zm3.035-1.428q.294-.63.938-1.022.658-.406 1.4-.406v1.33q-.658 0-1.19.35a2.5 2.5 0 0 0-.84.91 2.26 2.26 0 0 0-.308 1.12v3.654h-1.456v-7.322h1.456zm6.48 4.774q.939 0 1.512-.686t.574-1.792q0-1.106-.574-1.792-.573-.686-1.512-.686-.924 0-1.498.686-.573.686-.574 1.792 0 1.106.574 1.792t1.498.686m-3.528-2.478q0-1.078.448-1.918a3.3 3.3 0 0 1 1.246-1.316 3.56 3.56 0 0 1 1.834-.476q1.036 0 1.834.476a3.3 3.3 0 0 1 1.26 1.316q.448.84.448 1.918 0 1.064-.448 1.904a3.3 3.3 0 0 1-1.26 1.316q-.798.476-1.834.476a3.56 3.56 0 0 1-1.834-.476 3.3 3.3 0 0 1-1.246-1.316q-.447-.84-.448-1.904m10.046.504q0 .882.49 1.442.49.546 1.274.546.854-.014 1.386-.546t.518-1.4v-4.228h1.456v7.322h-1.456v-1.064q-.322.517-.91.826-.575.308-1.19.308-.868 0-1.554-.392a2.9 2.9 0 0 1-1.078-1.12q-.392-.714-.392-1.624v-4.256h1.456zm10.631 2.002q.939 0 1.526-.686.588-.7.588-1.82 0-1.106-.588-1.792-.587-.686-1.526-.686a1.93 1.93 0 0 0-1.092.336 2.37 2.37 0 0 0-.798.91 2.6 2.6 0 0 0-.294 1.232q0 .685.294 1.26.294.574.798.91t1.092.336m-3.654-6.188h1.456v1.26q.378-.63 1.05-.938.672-.322 1.232-.322 1.023 0 1.806.476.798.462 1.232 1.302.448.825.448 1.904t-.448 1.932q-.434.84-1.232 1.316-.783.462-1.806.462-.56 0-1.232-.322a2.5 2.5 0 0 1-1.05-.966v4.354h-1.456zm15.384 7.266-1.456-.014v-8.61l-1.778 1.008-.616-1.218 2.408-1.344h1.442z"/><path stroke="#6B6B6B" stroke-linejoin="bevel" stroke-width="1.2" d="m309 61-5 4-5-4"/><rect width="94" height="29" x="331.5" y="47.5" fill="#fff" rx="14.5"/><rect width="94" height="29" x="331.5" y="47.5" stroke="#6B6B6B" rx="14.5"/><path fill="#121212" d="M354.004 62.59q0 1.428-.616 2.464a4.05 4.05 0 0 1-1.694 1.596q-1.092.546-2.52.56-1.484 0-2.66-.672a4.8 4.8 0 0 1-1.82-1.862q-.658-1.204-.658-2.73t.658-2.716a4.8 4.8 0 0 1 1.82-1.862q1.176-.672 2.66-.672 1.582 0 2.688.728 1.12.714 1.666 1.75l-1.246.644q-.392-.77-1.19-1.302-.798-.546-1.918-.546-1.092 0-1.932.504-.826.49-1.288 1.4-.462.896-.462 2.072t.462 2.086a3.46 3.46 0 0 0 1.288 1.4q.84.504 1.932.504 1.512-.042 2.45-.798.952-.77.966-2.226h-3.262v-1.218h4.69zm3.036-1.428q.293-.63.938-1.022.657-.406 1.4-.406v1.33q-.659 0-1.19.35a2.5 2.5 0 0 0-.84.91 2.25 2.25 0 0 0-.308 1.12v3.654h-1.456v-7.322h1.456zm6.48 4.774q.938 0 1.512-.686t.574-1.792-.574-1.792-1.512-.686q-.924 0-1.498.686t-.574 1.792.574 1.792 1.498.686m-3.528-2.478q0-1.078.448-1.918.447-.84 1.246-1.316.811-.476 1.834-.476 1.035 0 1.834.476.811.476 1.26 1.316.447.84.448 1.918 0 1.064-.448 1.904-.449.84-1.26 1.316-.799.476-1.834.476-1.023 0-1.834-.476a3.3 3.3 0 0 1-1.246-1.316q-.448-.84-.448-1.904m10.045.504q0 .882.49 1.442.49.546 1.274.546.854-.014 1.386-.546t.518-1.4v-4.228h1.456v7.322h-1.456v-1.064q-.322.517-.91.826a2.5 2.5 0 0 1-1.19.308q-.869 0-1.554-.392a2.9 2.9 0 0 1-1.078-1.12q-.392-.714-.392-1.624v-4.256h1.456zm10.632 2.002q.938 0 1.526-.686.588-.7.588-1.82 0-1.106-.588-1.792t-1.526-.686a1.93 1.93 0 0 0-1.092.336 2.37 2.37 0 0 0-.798.91 2.6 2.6 0 0 0-.294 1.232q0 .685.294 1.26.294.574.798.91t1.092.336m-3.654-6.188h1.456v1.26q.378-.63 1.05-.938.672-.322 1.232-.322 1.022 0 1.806.476.798.462 1.232 1.302.448.825.448 1.904t-.448 1.932q-.434.84-1.232 1.316-.785.462-1.806.462-.56 0-1.232-.322a2.5 2.5 0 0 1-1.05-.966v4.354h-1.456zm11.842 5.992 1.428-1.316a62 62 0 0 0 1.806-1.68q.686-.672 1.148-1.372.462-.714.462-1.344 0-.868-.504-1.414-.49-.56-1.274-.56-.602 0-1.162.392a2.35 2.35 0 0 0-.826 1.008l-1.274-.56a3.56 3.56 0 0 1 1.33-1.554q.924-.615 1.932-.616.938 0 1.666.42.742.42 1.148 1.176.42.742.42 1.708 0 .953-.574 1.89a8.6 8.6 0 0 1-1.372 1.736 36 36 0 0 1-2.044 1.862l-.252.224h4.396v1.274h-6.314z"/><path stroke="#6B6B6B" stroke-linejoin="bevel" stroke-width="1.2" d="m412 61-5 4-5-4"/><rect width="95" height="29" x="434.5" y="47.5" fill="#fff" rx="14.5"/><rect width="95" height="29" x="434.5" y="47.5" stroke="#6B6B6B" rx="14.5"/><path fill="#121212" d="M457.785 62.59q0 1.428-.616 2.464a4.05 4.05 0 0 1-1.694 1.596q-1.092.546-2.52.56-1.484 0-2.66-.672a4.8 4.8 0 0 1-1.82-1.862q-.658-1.204-.658-2.73t.658-2.716a4.8 4.8 0 0 1 1.82-1.862q1.176-.672 2.66-.672 1.583 0 2.688.728 1.12.714 1.666 1.75l-1.246.644q-.392-.77-1.19-1.302-.798-.546-1.918-.546-1.092 0-1.932.504-.826.49-1.288 1.4-.462.896-.462 2.072t.462 2.086a3.46 3.46 0 0 0 1.288 1.4q.84.504 1.932.504 1.512-.042 2.45-.798.952-.77.966-2.226h-3.262v-1.218h4.69zm3.036-1.428q.294-.63.938-1.022.658-.406 1.4-.406v1.33q-.658 0-1.19.35a2.5 2.5 0 0 0-.84.91 2.26 2.26 0 0 0-.308 1.12v3.654h-1.456v-7.322h1.456zm6.48 4.774q.938 0 1.512-.686t.574-1.792-.574-1.792-1.512-.686q-.924 0-1.498.686t-.574 1.792.574 1.792 1.498.686m-3.528-2.478q0-1.078.448-1.918a3.3 3.3 0 0 1 1.246-1.316q.812-.476 1.834-.476 1.036 0 1.834.476.812.476 1.26 1.316t.448 1.918q0 1.064-.448 1.904t-1.26 1.316q-.798.476-1.834.476-1.022 0-1.834-.476a3.3 3.3 0 0 1-1.246-1.316q-.448-.84-.448-1.904m10.045.504q0 .882.49 1.442.49.546 1.274.546.855-.014 1.386-.546.533-.532.518-1.4v-4.228h1.456v7.322h-1.456v-1.064q-.322.517-.91.826a2.5 2.5 0 0 1-1.19.308 3.1 3.1 0 0 1-1.554-.392 2.9 2.9 0 0 1-1.078-1.12q-.392-.714-.392-1.624v-4.256h1.456zm10.632 2.002q.938 0 1.526-.686.588-.7.588-1.82 0-1.106-.588-1.792t-1.526-.686a1.93 1.93 0 0 0-1.092.336 2.37 2.37 0 0 0-.798.91 2.6 2.6 0 0 0-.294 1.232q0 .685.294 1.26.294.574.798.91t1.092.336m-3.654-6.188h1.456v1.26q.378-.63 1.05-.938.672-.322 1.232-.322 1.022 0 1.806.476.798.462 1.232 1.302.448.825.448 1.904t-.448 1.932q-.434.84-1.232 1.316-.785.462-1.806.462-.56 0-1.232-.322a2.5 2.5 0 0 1-1.05-.966v4.354h-1.456zm17.036 2.002q.672.392 1.064 1.064.406.658.406 1.316 0 .854-.434 1.526a2.9 2.9 0 0 1-1.218 1.05q-.783.378-1.778.378-.993 0-1.778-.378a3.1 3.1 0 0 1-1.232-1.078 2.94 2.94 0 0 1-.434-1.582h1.456q0 .77.56 1.26.561.49 1.428.49.897 0 1.456-.476.56-.49.56-1.26 0-.756-.56-1.232t-1.428-.476h-.728v-1.218h.728q.813 0 1.33-.434.518-.435.518-1.12 0-.686-.504-1.106-.504-.434-1.288-.434-.77 0-1.274.434-.49.435-.49 1.12h-1.456q0-.825.406-1.47a2.74 2.74 0 0 1 1.148-1.008q.729-.364 1.666-.364.924 0 1.652.35.743.35 1.148.98.406.63.406 1.428 0 .602-.364 1.232a3 3 0 0 1-.966 1.008"/><path stroke="#6B6B6B" stroke-linejoin="bevel" stroke-width="1.2" d="m516 61-5 4-5-4"/><path stroke="#E1E1E1" stroke-linecap="round" stroke-linejoin="round" stroke-width="1.2" d="M714 90H230"/><rect width="111" height="29" x="230.5" y="102.5" fill="#fff" rx="14.5"/><rect width="111" height="29" x="230.5" y="102.5" stroke="#368FF7" rx="14.5"/><path fill="#368FF7" d="M244.943 119.186q.449.854 1.134 1.316.687.462 1.414.462.98 0 1.568-.448.602-.462.602-1.204 0-.504-.308-.826a2.2 2.2 0 0 0-.756-.546q-.447-.21-1.246-.49a13 13 0 0 1-1.638-.672 3.15 3.15 0 0 1-1.078-.91q-.448-.588-.448-1.512 0-.812.448-1.414a2.8 2.8 0 0 1 1.218-.938 4.5 4.5 0 0 1 1.736-.322q1.092 0 2.016.602t1.33 1.736l-1.288.476q-.252-.756-.84-1.148a2.07 2.07 0 0 0-1.218-.406q-.84 0-1.4.392-.546.392-.546 1.036 0 .49.308.826.309.336.756.56.449.21 1.26.504 1.008.364 1.638.686t1.064.91q.448.575.448 1.47 0 .853-.462 1.512-.462.658-1.288 1.022-.825.364-1.89.364a3.9 3.9 0 0 1-2.128-.616q-.966-.63-1.624-1.75zm13.051-1.288q-.098-.812-.574-1.358-.476-.56-1.372-.56a2 2 0 0 0-1.414.56q-.588.546-.714 1.372zm-5.474.56q0-1.078.448-1.918a3.25 3.25 0 0 1 1.232-1.302q.798-.476 1.82-.476 1.442 0 2.114.7.685.7.924 1.288.322.784.322 1.736 0 .196-.014.35a3 3 0 0 0-.014.182h-5.432q.126.84.728 1.372t1.386.532q.63 0 1.036-.196.42-.196.574-.364a3 3 0 0 0 .294-.378l1.176.532q-.336.686-1.12 1.162-.784.462-1.974.462-1.022 0-1.82-.462a3.35 3.35 0 0 1-1.232-1.316q-.448-.84-.448-1.904m9.618-6.664v10.304h-1.456v-10.304zm6.732 6.104q-.098-.812-.574-1.358-.476-.56-1.372-.56a2 2 0 0 0-1.414.56q-.588.546-.714 1.372zm-5.474.56q0-1.078.448-1.918a3.25 3.25 0 0 1 1.232-1.302q.798-.476 1.82-.476 1.442 0 2.114.7.685.7.924 1.288.322.784.322 1.736 0 .196-.014.35a3 3 0 0 0-.014.182h-5.432q.126.84.728 1.372.601.532 1.386.532.63 0 1.036-.196.42-.196.574-.364a3 3 0 0 0 .294-.378l1.176.532q-.336.686-1.12 1.162-.784.462-1.974.462-1.022 0-1.82-.462a3.35 3.35 0 0 1-1.232-1.316q-.448-.84-.448-1.904m11.437 2.324q.435 0 .896-.196.477-.21.798-.532l.994.98a3.9 3.9 0 0 1-1.232.812 3.6 3.6 0 0 1-1.4.308q-1.077 0-1.932-.462a3.43 3.43 0 0 1-1.316-1.316q-.476-.84-.476-1.918t.476-1.918 1.316-1.302q.855-.476 1.932-.476.7 0 1.414.308.729.308 1.218.812l-.994.98a2.4 2.4 0 0 0-.798-.518 2.2 2.2 0 0 0-.896-.21q-.993 0-1.61.644-.602.644-.602 1.68t.602 1.68q.617.644 1.61.644m6.788 1.358q-.951 0-1.568-.63-.615-.63-.63-1.624v-3.78h-1.26v-1.274h1.26v-2.002h1.456v2.002h1.568v1.274h-1.568v3.71q0 .378.21.658t.532.294q.238 0 .448-.042.225-.056.294-.07l.308 1.358q-.685.126-1.05.126m4.052-7.322v7.28h-1.456v-7.28zm-1.554-2.38q0-.364.224-.588a.82.82 0 0 1 .602-.238q.364 0 .588.238a.77.77 0 0 1 .238.588.8.8 0 0 1-.238.588.77.77 0 0 1-.588.238.85.85 0 0 1-.602-.224.85.85 0 0 1-.224-.602m6.731 8.498q.939 0 1.512-.686t.574-1.792-.574-1.792q-.573-.686-1.512-.686-.924 0-1.498.686t-.574 1.792.574 1.792 1.498.686m-3.528-2.478q0-1.078.448-1.918t1.246-1.316a3.56 3.56 0 0 1 1.834-.476q1.036 0 1.834.476.813.476 1.26 1.316t.448 1.918q0 1.064-.448 1.904-.447.84-1.26 1.316-.798.476-1.834.476a3.56 3.56 0 0 1-1.834-.476 3.3 3.3 0 0 1-1.246-1.316q-.447-.84-.448-1.904m13.563-.42q0-.924-.476-1.47-.462-.56-1.274-.56-.546 0-.994.28-.434.266-.686.728a2.2 2.2 0 0 0-.238 1.022v4.06h-1.456v-7.322h1.456v1.232q.336-.532.924-.868.588-.35 1.19-.35.756 0 1.442.35.686.336 1.12 1.05.448.714.448 1.792v4.116h-1.456zm9.742 4.004-1.456-.014v-8.61l-1.778 1.008-.616-1.218 2.408-1.344h1.442z"/><path stroke="#6B6B6B" stroke-linejoin="bevel" stroke-width="1.2" d="m327 122-4-5 4-5M319 122l4-5-4-5"/><rect width="113" height="29" x="350.5" y="102.5" fill="#fff" rx="14.5"/><rect width="113" height="29" x="350.5" y="102.5" stroke="#368FF7" rx="14.5"/><path fill="#368FF7" d="M364.715 119.186q.449.854 1.134 1.316.686.462 1.414.462.98 0 1.568-.448.602-.462.602-1.204 0-.504-.308-.826a2.2 2.2 0 0 0-.756-.546q-.448-.21-1.246-.49a13 13 0 0 1-1.638-.672 3.15 3.15 0 0 1-1.078-.91q-.448-.588-.448-1.512 0-.812.448-1.414a2.8 2.8 0 0 1 1.218-.938 4.5 4.5 0 0 1 1.736-.322q1.092 0 2.016.602t1.33 1.736l-1.288.476q-.252-.756-.84-1.148a2.07 2.07 0 0 0-1.218-.406q-.84 0-1.4.392-.546.392-.546 1.036 0 .49.308.826t.756.56q.448.21 1.26.504 1.008.364 1.638.686t1.064.91q.448.575.448 1.47 0 .853-.462 1.512-.462.658-1.288 1.022t-1.89.364a3.9 3.9 0 0 1-2.128-.616q-.966-.63-1.624-1.75zm13.05-1.288q-.097-.812-.574-1.358-.475-.56-1.372-.56-.811 0-1.414.56-.588.546-.714 1.372zm-5.474.56q0-1.078.448-1.918.449-.84 1.232-1.302.798-.476 1.82-.476 1.443 0 2.114.7.687.7.924 1.288.322.784.322 1.736 0 .196-.014.35a3 3 0 0 0-.014.182h-5.432q.126.84.728 1.372.603.532 1.386.532.63 0 1.036-.196.42-.196.574-.364a3 3 0 0 0 .294-.378l1.176.532q-.336.686-1.12 1.162-.783.462-1.974.462-1.022 0-1.82-.462a3.36 3.36 0 0 1-1.232-1.316q-.447-.84-.448-1.904m9.619-6.664v10.304h-1.456v-10.304zm6.732 6.104q-.099-.812-.574-1.358-.477-.56-1.372-.56-.813 0-1.414.56-.588.546-.714 1.372zm-5.474.56q0-1.078.448-1.918.447-.84 1.232-1.302.797-.476 1.82-.476 1.442 0 2.114.7.685.7.924 1.288a4.5 4.5 0 0 1 .322 1.736q0 .196-.014.35-.014.14-.014.182h-5.432q.125.84.728 1.372.601.532 1.386.532.63 0 1.036-.196.42-.196.574-.364t.294-.378l1.176.532q-.337.686-1.12 1.162-.785.462-1.974.462-1.023 0-1.82-.462a3.34 3.34 0 0 1-1.232-1.316q-.448-.84-.448-1.904m11.437 2.324q.434 0 .896-.196.476-.21.798-.532l.994.98a3.9 3.9 0 0 1-1.232.812q-.728.308-1.4.308-1.079 0-1.932-.462a3.4 3.4 0 0 1-1.316-1.316q-.476-.84-.476-1.918t.476-1.918a3.33 3.33 0 0 1 1.316-1.302q.853-.476 1.932-.476.7 0 1.414.308.728.308 1.218.812l-.994.98a2.4 2.4 0 0 0-.798-.518 2.2 2.2 0 0 0-.896-.21q-.995 0-1.61.644-.602.644-.602 1.68t.602 1.68q.615.644 1.61.644m6.788 1.358q-.953 0-1.568-.63t-.63-1.624v-3.78h-1.26v-1.274h1.26v-2.002h1.456v2.002h1.568v1.274h-1.568v3.71q0 .378.21.658t.532.294q.238 0 .448-.042.224-.056.294-.07l.308 1.358q-.687.126-1.05.126m4.052-7.322v7.28h-1.456v-7.28zm-1.554-2.38q0-.364.224-.588a.82.82 0 0 1 .602-.238q.365 0 .588.238a.77.77 0 0 1 .238.588.8.8 0 0 1-.238.588.77.77 0 0 1-.588.238.85.85 0 0 1-.602-.224.85.85 0 0 1-.224-.602m6.731 8.498q.938 0 1.512-.686t.574-1.792-.574-1.792-1.512-.686q-.924 0-1.498.686t-.574 1.792.574 1.792 1.498.686m-3.528-2.478q0-1.078.448-1.918t1.246-1.316q.812-.476 1.834-.476 1.036 0 1.834.476.812.476 1.26 1.316t.448 1.918q0 1.064-.448 1.904t-1.26 1.316q-.798.476-1.834.476-1.022 0-1.834-.476a3.3 3.3 0 0 1-1.246-1.316q-.448-.84-.448-1.904m13.562-.42q0-.924-.476-1.47-.462-.56-1.274-.56-.546 0-.994.28-.434.266-.686.728a2.2 2.2 0 0 0-.238 1.022v4.06h-1.456v-7.322h1.456v1.232q.336-.532.924-.868.588-.35 1.19-.35.756 0 1.442.35.687.336 1.12 1.05.448.714.448 1.792v4.116h-1.456zm6.201 2.73 1.428-1.316a61 61 0 0 0 1.806-1.68 8.5 8.5 0 0 0 1.148-1.372q.462-.714.462-1.344 0-.868-.504-1.414-.49-.56-1.274-.56-.602 0-1.162.392a2.34 2.34 0 0 0-.826 1.008l-1.274-.56a3.56 3.56 0 0 1 1.33-1.554q.924-.616 1.932-.616.938 0 1.666.42.742.42 1.148 1.176.42.742.42 1.708 0 .953-.574 1.89a8.7 8.7 0 0 1-1.372 1.736 36 36 0 0 1-2.044 1.862l-.252.224h4.396v1.274h-6.314z"/><path stroke="#6B6B6B" stroke-linejoin="bevel" stroke-width="1.2" d="m449 122-4-5 4-5M441 122l4-5-4-5"/><rect width="113" height="29" x="472.5" y="102.5" fill="#fff" rx="14.5"/><rect width="113" height="29" x="472.5" y="102.5" stroke="#368FF7" rx="14.5"/><path fill="#368FF7" d="M486.496 119.186q.448.854 1.134 1.316t1.414.462q.98 0 1.568-.448.602-.462.602-1.204 0-.504-.308-.826a2.2 2.2 0 0 0-.756-.546q-.448-.21-1.246-.49a13 13 0 0 1-1.638-.672 3.15 3.15 0 0 1-1.078-.91q-.448-.588-.448-1.512 0-.812.448-1.414a2.8 2.8 0 0 1 1.218-.938 4.5 4.5 0 0 1 1.736-.322q1.092 0 2.016.602t1.33 1.736l-1.288.476q-.252-.756-.84-1.148a2.07 2.07 0 0 0-1.218-.406q-.84 0-1.4.392-.546.392-.546 1.036 0 .49.308.826t.756.56q.448.21 1.26.504 1.008.364 1.638.686t1.064.91q.448.575.448 1.47 0 .853-.462 1.512-.462.658-1.288 1.022t-1.89.364a3.9 3.9 0 0 1-2.128-.616q-.966-.63-1.624-1.75zm13.051-1.288q-.099-.812-.574-1.358-.477-.56-1.372-.56-.813 0-1.414.56-.588.546-.714 1.372zm-5.474.56q0-1.078.448-1.918.447-.84 1.232-1.302.797-.476 1.82-.476 1.442 0 2.114.7.685.7.924 1.288a4.5 4.5 0 0 1 .322 1.736q0 .196-.014.35-.014.14-.014.182h-5.432q.126.84.728 1.372.601.532 1.386.532.63 0 1.036-.196.42-.196.574-.364t.294-.378l1.176.532q-.337.686-1.12 1.162-.784.462-1.974.462-1.023 0-1.82-.462a3.34 3.34 0 0 1-1.232-1.316q-.448-.84-.448-1.904m9.618-6.664v10.304h-1.456v-10.304zm6.732 6.104q-.098-.812-.574-1.358-.476-.56-1.372-.56a2 2 0 0 0-1.414.56q-.588.546-.714 1.372zm-5.474.56q0-1.078.448-1.918a3.25 3.25 0 0 1 1.232-1.302q.798-.476 1.82-.476 1.442 0 2.114.7.685.7.924 1.288.322.784.322 1.736 0 .196-.014.35a3 3 0 0 0-.014.182h-5.432q.126.84.728 1.372.601.532 1.386.532.63 0 1.036-.196.42-.196.574-.364a3 3 0 0 0 .294-.378l1.176.532q-.336.686-1.12 1.162-.785.462-1.974.462-1.022 0-1.82-.462a3.35 3.35 0 0 1-1.232-1.316q-.448-.84-.448-1.904m11.437 2.324q.434 0 .896-.196.475-.21.798-.532l.994.98a3.9 3.9 0 0 1-1.232.812 3.6 3.6 0 0 1-1.4.308q-1.079 0-1.932-.462a3.4 3.4 0 0 1-1.316-1.316q-.476-.84-.476-1.918t.476-1.918a3.33 3.33 0 0 1 1.316-1.302q.853-.476 1.932-.476.7 0 1.414.308.727.308 1.218.812l-.994.98a2.4 2.4 0 0 0-.798-.518 2.2 2.2 0 0 0-.896-.21q-.994 0-1.61.644-.602.644-.602 1.68t.602 1.68q.616.644 1.61.644m6.788 1.358q-.952 0-1.568-.63t-.63-1.624v-3.78h-1.26v-1.274h1.26v-2.002h1.456v2.002H524v1.274h-1.568v3.71q0 .378.21.658t.532.294q.238 0 .448-.042.223-.056.294-.07l.308 1.358q-.685.126-1.05.126m4.052-7.322v7.28h-1.456v-7.28zm-1.554-2.38q0-.364.224-.588a.82.82 0 0 1 .602-.238q.365 0 .588.238a.77.77 0 0 1 .238.588.8.8 0 0 1-.238.588.77.77 0 0 1-.588.238.85.85 0 0 1-.602-.224.85.85 0 0 1-.224-.602m6.731 8.498q.939 0 1.512-.686t.574-1.792q0-1.106-.574-1.792-.573-.686-1.512-.686-.924 0-1.498.686-.573.686-.574 1.792 0 1.106.574 1.792t1.498.686m-3.528-2.478q0-1.078.448-1.918t1.246-1.316a3.56 3.56 0 0 1 1.834-.476q1.036 0 1.834.476.813.476 1.26 1.316t.448 1.918q0 1.064-.448 1.904-.447.84-1.26 1.316-.798.476-1.834.476a3.56 3.56 0 0 1-1.834-.476 3.3 3.3 0 0 1-1.246-1.316q-.447-.84-.448-1.904m13.563-.42q0-.924-.476-1.47-.462-.56-1.274-.56-.547 0-.994.28a1.9 1.9 0 0 0-.686.728 2.2 2.2 0 0 0-.238 1.022v4.06h-1.456v-7.322h1.456v1.232q.336-.532.924-.868.588-.35 1.19-.35.756 0 1.442.35.685.336 1.12 1.05.447.714.448 1.792v4.116h-1.456zm11.394-1.26q.672.392 1.064 1.064.406.658.406 1.316 0 .854-.434 1.526a2.9 2.9 0 0 1-1.218 1.05q-.783.378-1.778.378-.993 0-1.778-.378a3.1 3.1 0 0 1-1.232-1.078 2.94 2.94 0 0 1-.434-1.582h1.456q0 .77.56 1.26.561.49 1.428.49.897 0 1.456-.476.56-.49.56-1.26 0-.756-.56-1.232t-1.428-.476h-.728v-1.218h.728q.813 0 1.33-.434.519-.434.518-1.12 0-.686-.504-1.106-.504-.434-1.288-.434-.77 0-1.274.434-.49.434-.49 1.12h-1.456q0-.827.406-1.47.42-.659 1.148-1.008.729-.364 1.666-.364.924 0 1.652.35.743.35 1.148.98.406.63.406 1.428 0 .602-.364 1.232a3 3 0 0 1-.966 1.008"/><path stroke="#6B6B6B" stroke-linejoin="bevel" stroke-width="1.2" d="m571 122-4-5 4-5M563 122l4-5-4-5"/><path stroke="#6B6B6B" stroke-width="1.2" d="M230 77v12M230 90v12"/><path fill="#6B6B6B" d="m198.562 87.042-1.456-.014v-8.61l-1.778 1.008-.616-1.218 2.408-1.344h1.442zm5.419-1.176q.91 0 1.484-.588.588-.588.588-1.526t-.588-1.526q-.575-.602-1.484-.602-.897 0-1.47.602-.574.588-.574 1.526t.574 1.526 1.47.588m-3.5-2.114q0-.924.56-1.932l2.814-4.984h1.666l-2.044 3.57q.237-.056.56-.056 1.008 0 1.792.448.798.434 1.232 1.204.447.77.448 1.75 0 .98-.448 1.75a3.16 3.16 0 0 1-1.246 1.204q-.798.435-1.82.434-1.022 0-1.82-.434a3.15 3.15 0 0 1-1.246-1.204q-.448-.77-.448-1.75m12.342 2.212q.938 0 1.526-.686.588-.7.588-1.82 0-1.106-.588-1.792t-1.526-.686a1.93 1.93 0 0 0-1.092.336 2.37 2.37 0 0 0-.798.91 2.6 2.6 0 0 0-.294 1.232q0 .685.294 1.26.294.574.798.91t1.092.336m-3.654-6.188h1.456v1.26q.378-.63 1.05-.938.671-.322 1.232-.322 1.021 0 1.806.476.798.462 1.232 1.302.447.825.448 1.904 0 1.078-.448 1.932-.434.84-1.232 1.316-.785.462-1.806.462-.56 0-1.232-.322a2.5 2.5 0 0 1-1.05-.966v4.354h-1.456zm12.367 3.668 2.702 3.654h-1.806l-1.75-2.478-1.736 2.478h-1.806l2.66-3.654-2.716-3.668h1.82l1.778 2.548 1.764-2.548h1.82zM198.562 100.042l-1.456-.014v-8.61l-1.778 1.008-.616-1.218 2.408-1.344h1.442zm5.419-1.176q.91 0 1.484-.588.588-.588.588-1.526t-.588-1.526q-.575-.602-1.484-.602-.897 0-1.47.602-.574.588-.574 1.526t.574 1.526 1.47.588m-3.5-2.114q0-.924.56-1.932l2.814-4.984h1.666l-2.044 3.57q.237-.056.56-.056 1.008 0 1.792.448.798.434 1.232 1.204.447.77.448 1.75 0 .98-.448 1.75a3.16 3.16 0 0 1-1.246 1.204q-.798.435-1.82.434-1.022 0-1.82-.434a3.15 3.15 0 0 1-1.246-1.204q-.448-.77-.448-1.75m12.342 2.212q.938 0 1.526-.686.588-.7.588-1.82 0-1.106-.588-1.792t-1.526-.686a1.93 1.93 0 0 0-1.092.336 2.37 2.37 0 0 0-.798.91 2.6 2.6 0 0 0-.294 1.232q0 .685.294 1.26.294.574.798.91t1.092.336m-3.654-6.188h1.456v1.26q.378-.63 1.05-.938.671-.322 1.232-.322 1.021 0 1.806.476.798.462 1.232 1.302.447.825.448 1.904 0 1.078-.448 1.932-.434.84-1.232 1.316-.785.462-1.806.462-.56 0-1.232-.322a2.5 2.5 0 0 1-1.05-.966v4.354h-1.456zm12.367 3.668 2.702 3.654h-1.806l-1.75-2.478-1.736 2.478h-1.806l2.66-3.654-2.716-3.668h1.82l1.778 2.548 1.764-2.548h1.82z"/><path fill="red" fill-opacity=".1" d="M714 77v12H230V77zM714 90v12H230V90z"/><path stroke="#6B6B6B" stroke-width="1.2" d="M331 47h-8"/><path fill="#6B6B6B" d="M318.172 35.964q.882 0 1.428-.504.56-.518.56-1.33t-.56-1.316q-.546-.518-1.428-.518-.896 0-1.456.518-.56.504-.56 1.316t.56 1.33q.56.504 1.456.504m-3.472-1.806q0-.686.476-1.372a3.46 3.46 0 0 1 1.218-1.106 3.5 3.5 0 0 1-1.008-1.036q-.392-.616-.392-1.162a2.6 2.6 0 0 1 .406-1.442q.406-.644 1.12-.994.728-.364 1.652-.364t1.638.364q.728.35 1.134.994.406.63.406 1.442 0 .56-.392 1.176t-1.008 1.022q.742.42 1.204 1.106t.462 1.372q0 .882-.434 1.582a3 3 0 0 1-1.218 1.078q-.784.378-1.792.378t-1.806-.378a3.1 3.1 0 0 1-1.232-1.078 2.94 2.94 0 0 1-.434-1.582m1.75-4.676q0 .7.476 1.134t1.246.434q.756 0 1.232-.434.49-.448.49-1.134t-.49-1.12q-.476-.448-1.232-.448-.77 0-1.246.434t-.476 1.134m10.483 6.482q.938 0 1.526-.686.588-.7.588-1.82 0-1.106-.588-1.792t-1.526-.686a1.93 1.93 0 0 0-1.092.336 2.37 2.37 0 0 0-.798.91 2.6 2.6 0 0 0-.294 1.232q0 .686.294 1.26t.798.91 1.092.336m-3.654-6.188h1.456v1.26q.378-.63 1.05-.938.672-.322 1.232-.322 1.022 0 1.806.476.798.462 1.232 1.302.448.825.448 1.904t-.448 1.932q-.434.84-1.232 1.316-.784.462-1.806.462-.56 0-1.232-.322a2.5 2.5 0 0 1-1.05-.966v4.354h-1.456zm12.367 3.668 2.702 3.654h-1.806l-1.75-2.478-1.736 2.478h-1.806l2.66-3.654-2.716-3.668h1.82l1.778 2.548 1.764-2.548h1.82z"/><path fill="red" fill-opacity=".1" d="M331 77h-8V47h8z"/><path stroke="#6B6B6B" stroke-width="1.2" d="M434 47h-8"/><path fill="#6B6B6B" d="M421.172 35.964q.882 0 1.428-.504.56-.518.56-1.33t-.56-1.316q-.546-.518-1.428-.518-.896 0-1.456.518-.56.504-.56 1.316t.56 1.33q.56.504 1.456.504m-3.472-1.806q0-.686.476-1.372a3.46 3.46 0 0 1 1.218-1.106 3.5 3.5 0 0 1-1.008-1.036q-.392-.616-.392-1.162a2.6 2.6 0 0 1 .406-1.442q.406-.644 1.12-.994.728-.364 1.652-.364t1.638.364q.728.35 1.134.994.406.63.406 1.442 0 .56-.392 1.176t-1.008 1.022q.742.42 1.204 1.106t.462 1.372q0 .882-.434 1.582a3 3 0 0 1-1.218 1.078q-.784.378-1.792.378t-1.806-.378a3.1 3.1 0 0 1-1.232-1.078 2.94 2.94 0 0 1-.434-1.582m1.75-4.676q0 .7.476 1.134t1.246.434q.756 0 1.232-.434.49-.448.49-1.134t-.49-1.12q-.476-.448-1.232-.448-.77 0-1.246.434t-.476 1.134m10.483 6.482q.938 0 1.526-.686.588-.7.588-1.82 0-1.106-.588-1.792t-1.526-.686a1.93 1.93 0 0 0-1.092.336 2.37 2.37 0 0 0-.798.91 2.6 2.6 0 0 0-.294 1.232q0 .686.294 1.26t.798.91 1.092.336m-3.654-6.188h1.456v1.26q.378-.63 1.05-.938.672-.322 1.232-.322 1.022 0 1.806.476.798.462 1.232 1.302.448.825.448 1.904t-.448 1.932q-.434.84-1.232 1.316-.784.462-1.806.462-.56 0-1.232-.322a2.5 2.5 0 0 1-1.05-.966v4.354h-1.456zm12.367 3.668 2.702 3.654h-1.806l-1.75-2.478-1.736 2.478h-1.806l2.66-3.654-2.716-3.668h1.82l1.778 2.548 1.764-2.548h1.82z"/><path fill="red" fill-opacity=".1" d="M434 77h-8V47h8z"/><path stroke="#6B6B6B" stroke-width="1.2" d="M472 132h-8"/><path fill="red" fill-opacity=".1" d="M472 132h-8v-30h8z"/><path fill="#6B6B6B" d="M459.172 147.964q.882 0 1.428-.504.56-.518.56-1.33t-.56-1.316q-.546-.518-1.428-.518-.896 0-1.456.518-.56.504-.56 1.316t.56 1.33q.56.504 1.456.504m-3.472-1.806q0-.686.476-1.372a3.46 3.46 0 0 1 1.218-1.106 3.5 3.5 0 0 1-1.008-1.036q-.392-.616-.392-1.162 0-.812.406-1.442a2.7 2.7 0 0 1 1.12-.994q.728-.364 1.652-.364t1.638.364q.728.35 1.134.994.406.63.406 1.442 0 .56-.392 1.176a3.4 3.4 0 0 1-1.008 1.022q.742.42 1.204 1.106t.462 1.372q0 .882-.434 1.582a3 3 0 0 1-1.218 1.078q-.784.378-1.792.378t-1.806-.378a3.1 3.1 0 0 1-1.232-1.078 2.94 2.94 0 0 1-.434-1.582m1.75-4.676q0 .7.476 1.134t1.246.434q.756 0 1.232-.434a1.47 1.47 0 0 0 .49-1.134q0-.686-.49-1.12-.476-.448-1.232-.448-.77 0-1.246.434t-.476 1.134m10.483 6.482q.938 0 1.526-.686.588-.7.588-1.82 0-1.106-.588-1.792t-1.526-.686a1.93 1.93 0 0 0-1.092.336 2.36 2.36 0 0 0-.798.91 2.6 2.6 0 0 0-.294 1.232q0 .686.294 1.26t.798.91 1.092.336m-3.654-6.188h1.456v1.26q.378-.63 1.05-.938.672-.322 1.232-.322 1.022 0 1.806.476.798.462 1.232 1.302.448.826.448 1.904t-.448 1.932q-.434.84-1.232 1.316-.784.462-1.806.462-.56 0-1.232-.322a2.5 2.5 0 0 1-1.05-.966v4.354h-1.456zm12.367 3.668 2.702 3.654h-1.806l-1.75-2.478-1.736 2.478h-1.806l2.66-3.654-2.716-3.668h1.82l1.778 2.548 1.764-2.548h1.82z"/><path stroke="#6B6B6B" stroke-width="1.2" d="M350 132h-8"/><path fill="red" fill-opacity=".1" d="M350 132h-8v-30h8z"/><path fill="#6B6B6B" d="M337.172 147.964q.882 0 1.428-.504.56-.518.56-1.33t-.56-1.316q-.546-.518-1.428-.518-.896 0-1.456.518-.56.504-.56 1.316t.56 1.33q.56.504 1.456.504m-3.472-1.806q0-.686.476-1.372a3.46 3.46 0 0 1 1.218-1.106 3.5 3.5 0 0 1-1.008-1.036q-.392-.616-.392-1.162 0-.812.406-1.442a2.7 2.7 0 0 1 1.12-.994q.728-.364 1.652-.364t1.638.364q.728.35 1.134.994.406.63.406 1.442 0 .56-.392 1.176a3.4 3.4 0 0 1-1.008 1.022q.742.42 1.204 1.106t.462 1.372q0 .882-.434 1.582a3 3 0 0 1-1.218 1.078q-.784.378-1.792.378t-1.806-.378a3.1 3.1 0 0 1-1.232-1.078 2.94 2.94 0 0 1-.434-1.582m1.75-4.676q0 .7.476 1.134t1.246.434q.756 0 1.232-.434a1.47 1.47 0 0 0 .49-1.134q0-.686-.49-1.12-.476-.448-1.232-.448-.77 0-1.246.434t-.476 1.134m10.483 6.482q.938 0 1.526-.686.588-.7.588-1.82 0-1.106-.588-1.792t-1.526-.686a1.93 1.93 0 0 0-1.092.336 2.36 2.36 0 0 0-.798.91 2.6 2.6 0 0 0-.294 1.232q0 .686.294 1.26t.798.91 1.092.336m-3.654-6.188h1.456v1.26q.378-.63 1.05-.938.672-.322 1.232-.322 1.022 0 1.806.476.798.462 1.232 1.302.448.826.448 1.904t-.448 1.932q-.434.84-1.232 1.316-.784.462-1.806.462-.56 0-1.232-.322a2.5 2.5 0 0 1-1.05-.966v4.354h-1.456zm12.367 3.668 2.702 3.654h-1.806l-1.75-2.478-1.736 2.478h-1.806l2.66-3.654-2.716-3.668h1.82l1.778 2.548 1.764-2.548h1.82z"/></svg>