<svg xmlns="http://www.w3.org/2000/svg" width="908" height="256" fill="none" viewBox="0 0 908 256"><path fill="#fff" d="M.5 0h907v104H.5z"/><path fill="#6B6B6B" d="M446.172 78.964q.882 0 1.428-.504.56-.518.56-1.33t-.56-1.316q-.546-.518-1.428-.518-.896 0-1.456.518-.56.504-.56 1.316t.56 1.33q.56.504 1.456.504m-3.472-1.806q0-.686.476-1.372a3.46 3.46 0 0 1 1.218-1.106 3.5 3.5 0 0 1-1.008-1.036q-.392-.615-.392-1.162a2.6 2.6 0 0 1 .406-1.442q.406-.644 1.12-.994.728-.364 1.652-.364t1.638.364q.728.35 1.134.994.406.63.406 1.442 0 .56-.392 1.176t-1.008 1.022q.742.42 1.204 1.106t.462 1.372q0 .882-.434 1.582a3 3 0 0 1-1.218 1.078q-.784.378-1.792.378t-1.806-.378a3.1 3.1 0 0 1-1.232-1.078 2.94 2.94 0 0 1-.434-1.582m1.75-4.676q0 .7.476 1.134t1.246.434q.756 0 1.232-.434.49-.449.49-1.134t-.49-1.12q-.476-.448-1.232-.448-.77 0-1.246.434t-.476 1.134m10.483 6.482q.938 0 1.526-.686.588-.7.588-1.82 0-1.106-.588-1.792t-1.526-.686a1.93 1.93 0 0 0-1.092.336 2.37 2.37 0 0 0-.798.91 2.6 2.6 0 0 0-.294 1.232q0 .685.294 1.26.294.574.798.91t1.092.336m-3.654-6.188h1.456v1.26q.378-.63 1.05-.938.672-.322 1.232-.322 1.022 0 1.806.476.798.462 1.232 1.302.448.825.448 1.904t-.448 1.932q-.434.84-1.232 1.316-.784.462-1.806.462-.56 0-1.232-.322a2.5 2.5 0 0 1-1.05-.966v4.354h-1.456zm12.367 3.668 2.702 3.654h-1.806l-1.75-2.478-1.736 2.478h-1.806l2.66-3.654-2.716-3.668h1.82l1.778 2.548 1.764-2.548h1.82z"/><rect width="55" height="29" x="331.5" y="34.5" fill="#fff" rx="14.5"/><rect width="55" height="29" x="331.5" y="34.5" stroke="#6B6B6B" rx="14.5"/><path fill="#121212" d="M349.887 54.21q-1.483 0-2.646-.672a4.8 4.8 0 0 1-1.806-1.862q-.644-1.204-.644-2.73t.644-2.716a4.7 4.7 0 0 1 1.792-1.876q1.162-.672 2.632-.672 1.05 0 1.974.406.938.406 1.638 1.134l-.952.938a3.2 3.2 0 0 0-1.176-.882 3.5 3.5 0 0 0-1.47-.322q-1.064 0-1.89.504a3.4 3.4 0 0 0-1.274 1.4q-.448.896-.448 2.086 0 1.177.448 2.086a3.5 3.5 0 0 0 1.274 1.4q.826.504 1.89.504.798 0 1.456-.308.672-.323 1.134-.854l1.008.896a5.2 5.2 0 0 1-1.624 1.148 4.55 4.55 0 0 1-1.96.392m10.32-4.018q0-.938-.448-1.512a1.41 1.41 0 0 0-1.176-.588q-.532 0-.98.308-.449.307-.714.826a2.56 2.56 0 0 0-.252 1.134v3.738h-1.456V43.794h1.456v4.144q.322-.504.868-.784a2.3 2.3 0 0 1 1.092-.294q.882 0 1.582.406a2.74 2.74 0 0 1 1.092 1.12q.392.714.392 1.638v4.074h-1.456zm4.794-3.374v7.28h-1.456v-7.28zm-1.554-2.38q0-.364.224-.588a.82.82 0 0 1 .602-.238q.365 0 .588.238.238.224.238.588 0 .35-.238.588a.77.77 0 0 1-.588.238.85.85 0 0 1-.602-.224.85.85 0 0 1-.224-.602m7.208 8.526q.938 0 1.526-.686.588-.7.588-1.82 0-1.106-.588-1.792t-1.526-.686a1.93 1.93 0 0 0-1.092.336 2.37 2.37 0 0 0-.798.91 2.6 2.6 0 0 0-.294 1.232q0 .686.294 1.26t.798.91 1.092.336m-3.654-6.188h1.456v1.26q.378-.63 1.05-.938.671-.322 1.232-.322 1.022 0 1.806.476.797.462 1.232 1.302.447.825.448 1.904 0 1.079-.448 1.932-.435.84-1.232 1.316-.785.462-1.806.462-.56 0-1.232-.322a2.5 2.5 0 0 1-1.05-.966v4.354h-1.456z"/><rect width="55" height="29" x="395.5" y="34.5" fill="#fff" rx="14.5"/><rect width="55" height="29" x="395.5" y="34.5" stroke="#6B6B6B" rx="14.5"/><path fill="#121212" d="M413.887 54.21q-1.483 0-2.646-.672a4.8 4.8 0 0 1-1.806-1.862q-.644-1.204-.644-2.73t.644-2.716a4.7 4.7 0 0 1 1.792-1.876q1.162-.672 2.632-.672 1.05 0 1.974.406.938.406 1.638 1.134l-.952.938a3.2 3.2 0 0 0-1.176-.882 3.5 3.5 0 0 0-1.47-.322q-1.064 0-1.89.504a3.4 3.4 0 0 0-1.274 1.4q-.448.896-.448 2.086 0 1.177.448 2.086a3.5 3.5 0 0 0 1.274 1.4q.826.504 1.89.504.798 0 1.456-.308.672-.323 1.134-.854l1.008.896a5.2 5.2 0 0 1-1.624 1.148 4.55 4.55 0 0 1-1.96.392m10.32-4.018q0-.938-.448-1.512a1.41 1.41 0 0 0-1.176-.588q-.532 0-.98.308-.449.307-.714.826a2.56 2.56 0 0 0-.252 1.134v3.738h-1.456V43.794h1.456v4.144q.322-.504.868-.784a2.3 2.3 0 0 1 1.092-.294q.882 0 1.582.406a2.74 2.74 0 0 1 1.092 1.12q.392.714.392 1.638v4.074h-1.456zm4.794-3.374v7.28h-1.456v-7.28zm-1.554-2.38q0-.364.224-.588a.82.82 0 0 1 .602-.238q.365 0 .588.238.238.224.238.588 0 .35-.238.588a.77.77 0 0 1-.588.238.85.85 0 0 1-.602-.224.85.85 0 0 1-.224-.602m7.208 8.526q.938 0 1.526-.686.588-.7.588-1.82 0-1.106-.588-1.792t-1.526-.686a1.93 1.93 0 0 0-1.092.336 2.37 2.37 0 0 0-.798.91 2.6 2.6 0 0 0-.294 1.232q0 .686.294 1.26t.798.91 1.092.336m-3.654-6.188h1.456v1.26q.378-.63 1.05-.938.671-.322 1.232-.322 1.022 0 1.806.476.797.462 1.232 1.302.447.825.448 1.904 0 1.079-.448 1.932-.435.84-1.232 1.316-.785.462-1.806.462-.56 0-1.232-.322a2.5 2.5 0 0 1-1.05-.966v4.354h-1.456z"/><rect width="56" height="30" x="459" y="34" fill="#368FF7" rx="15"/><path fill="#fff" d="M477.887 54.21q-1.483 0-2.646-.672a4.8 4.8 0 0 1-1.806-1.862q-.644-1.204-.644-2.73t.644-2.716a4.7 4.7 0 0 1 1.792-1.876q1.162-.672 2.632-.672 1.05 0 1.974.406.938.406 1.638 1.134l-.952.938a3.2 3.2 0 0 0-1.176-.882 3.5 3.5 0 0 0-1.47-.322q-1.064 0-1.89.504a3.4 3.4 0 0 0-1.274 1.4q-.448.896-.448 2.086 0 1.177.448 2.086a3.5 3.5 0 0 0 1.274 1.4q.826.504 1.89.504.798 0 1.456-.308.672-.323 1.134-.854l1.008.896a5.2 5.2 0 0 1-1.624 1.148 4.55 4.55 0 0 1-1.96.392m10.32-4.018q0-.938-.448-1.512a1.41 1.41 0 0 0-1.176-.588q-.532 0-.98.308-.449.307-.714.826a2.56 2.56 0 0 0-.252 1.134v3.738h-1.456V43.794h1.456v4.144q.322-.504.868-.784a2.3 2.3 0 0 1 1.092-.294q.882 0 1.582.406a2.74 2.74 0 0 1 1.092 1.12q.392.714.392 1.638v4.074h-1.456zm4.794-3.374v7.28h-1.456v-7.28zm-1.554-2.38q0-.364.224-.588a.82.82 0 0 1 .602-.238q.365 0 .588.238.238.224.238.588 0 .35-.238.588a.77.77 0 0 1-.588.238.85.85 0 0 1-.602-.224.85.85 0 0 1-.224-.602m7.208 8.526q.938 0 1.526-.686.588-.7.588-1.82 0-1.106-.588-1.792t-1.526-.686a1.93 1.93 0 0 0-1.092.336 2.37 2.37 0 0 0-.798.91 2.6 2.6 0 0 0-.294 1.232q0 .686.294 1.26t.798.91 1.092.336m-3.654-6.188h1.456v1.26q.378-.63 1.05-.938.671-.322 1.232-.322 1.022 0 1.806.476.797.462 1.232 1.302.447.825.448 1.904 0 1.079-.448 1.932-.435.84-1.232 1.316-.785.462-1.806.462-.56 0-1.232-.322a2.5 2.5 0 0 1-1.05-.966v4.354h-1.456z"/><rect width="55" height="29" x="523.5" y="34.5" fill="#fff" rx="14.5"/><rect width="55" height="29" x="523.5" y="34.5" stroke="#6B6B6B" rx="14.5"/><path fill="#121212" d="M541.887 54.21q-1.484 0-2.646-.672a4.8 4.8 0 0 1-1.806-1.862q-.644-1.204-.644-2.73t.644-2.716a4.7 4.7 0 0 1 1.792-1.876q1.162-.672 2.632-.672 1.05 0 1.974.406.938.406 1.638 1.134l-.952.938a3.2 3.2 0 0 0-1.176-.882 3.5 3.5 0 0 0-1.47-.322q-1.064 0-1.89.504a3.4 3.4 0 0 0-1.274 1.4q-.448.896-.448 2.086 0 1.177.448 2.086a3.5 3.5 0 0 0 1.274 1.4q.827.504 1.89.504.798 0 1.456-.308.672-.323 1.134-.854l1.008.896a5.2 5.2 0 0 1-1.624 1.148 4.55 4.55 0 0 1-1.96.392m10.32-4.018q0-.938-.448-1.512a1.41 1.41 0 0 0-1.176-.588q-.532 0-.98.308-.449.307-.714.826a2.56 2.56 0 0 0-.252 1.134v3.738h-1.456V43.794h1.456v4.144q.322-.504.868-.784a2.3 2.3 0 0 1 1.092-.294q.882 0 1.582.406a2.74 2.74 0 0 1 1.092 1.12q.392.714.392 1.638v4.074h-1.456zm4.794-3.374v7.28h-1.456v-7.28zm-1.554-2.38q0-.364.224-.588a.82.82 0 0 1 .602-.238q.365 0 .588.238.238.224.238.588 0 .35-.238.588a.77.77 0 0 1-.588.238.85.85 0 0 1-.602-.224.85.85 0 0 1-.224-.602m7.208 8.526q.938 0 1.526-.686.588-.7.588-1.82 0-1.106-.588-1.792t-1.526-.686a1.93 1.93 0 0 0-1.092.336 2.37 2.37 0 0 0-.798.91 2.6 2.6 0 0 0-.294 1.232q0 .686.294 1.26t.798.91 1.092.336m-3.654-6.188h1.456v1.26q.378-.63 1.05-.938.671-.322 1.232-.322 1.022 0 1.806.476.798.462 1.232 1.302.447.825.448 1.904 0 1.079-.448 1.932-.435.84-1.232 1.316-.785.462-1.806.462-.56 0-1.232-.322a2.5 2.5 0 0 1-1.05-.966v4.354h-1.456z"/><path fill="red" fill-opacity=".1" d="M387 34h8v30h-8zM451 34h8v30h-8zM515 34h8v30h-8z"/><path stroke="#6B6B6B" stroke-width="1.2" d="M459 64h-8"/><path fill="#fff" d="M.5 124h907v132H.5z"/><rect width="55" height="29" x="330.5" y="158.5" fill="#fff" rx="14.5"/><rect width="55" height="29" x="330.5" y="158.5" stroke="#6B6B6B" rx="14.5"/><path fill="#121212" d="M348.887 178.21q-1.483 0-2.646-.672a4.8 4.8 0 0 1-1.806-1.862q-.644-1.204-.644-2.73t.644-2.716a4.7 4.7 0 0 1 1.792-1.876q1.162-.672 2.632-.672 1.05 0 1.974.406a5 5 0 0 1 1.638 1.134l-.952.938a3.2 3.2 0 0 0-1.176-.882 3.5 3.5 0 0 0-1.47-.322q-1.064 0-1.89.504a3.4 3.4 0 0 0-1.274 1.4q-.448.896-.448 2.086 0 1.176.448 2.086a3.5 3.5 0 0 0 1.274 1.4q.826.504 1.89.504.798 0 1.456-.308a3.5 3.5 0 0 0 1.134-.854l1.008.896a5.2 5.2 0 0 1-1.624 1.148 4.55 4.55 0 0 1-1.96.392m10.32-4.018q0-.937-.448-1.512a1.41 1.41 0 0 0-1.176-.588q-.532 0-.98.308a2.2 2.2 0 0 0-.714.826 2.56 2.56 0 0 0-.252 1.134v3.738h-1.456v-10.304h1.456v4.144q.322-.504.868-.784a2.3 2.3 0 0 1 1.092-.294q.882 0 1.582.406a2.74 2.74 0 0 1 1.092 1.12q.392.714.392 1.638v4.074h-1.456zm4.794-3.374v7.28h-1.456v-7.28zm-1.554-2.38q0-.365.224-.588a.82.82 0 0 1 .602-.238q.365 0 .588.238a.77.77 0 0 1 .238.588.8.8 0 0 1-.238.588.77.77 0 0 1-.588.238.85.85 0 0 1-.602-.224.85.85 0 0 1-.224-.602m7.208 8.526q.938 0 1.526-.686.588-.7.588-1.82 0-1.106-.588-1.792t-1.526-.686a1.93 1.93 0 0 0-1.092.336 2.36 2.36 0 0 0-.798.91 2.6 2.6 0 0 0-.294 1.232q0 .686.294 1.26t.798.91 1.092.336m-3.654-6.188h1.456v1.26q.378-.63 1.05-.938.671-.322 1.232-.322 1.022 0 1.806.476.797.462 1.232 1.302.447.826.448 1.904 0 1.078-.448 1.932-.435.84-1.232 1.316-.785.462-1.806.462-.56 0-1.232-.322a2.5 2.5 0 0 1-1.05-.966v4.354h-1.456z"/><rect width="55" height="29" x="394.5" y="158.5" fill="#fff" rx="14.5"/><rect width="55" height="29" x="394.5" y="158.5" stroke="#6B6B6B" rx="14.5"/><path fill="#121212" d="M412.887 178.21q-1.483 0-2.646-.672a4.8 4.8 0 0 1-1.806-1.862q-.644-1.204-.644-2.73t.644-2.716a4.7 4.7 0 0 1 1.792-1.876q1.162-.672 2.632-.672 1.05 0 1.974.406a5 5 0 0 1 1.638 1.134l-.952.938a3.2 3.2 0 0 0-1.176-.882 3.5 3.5 0 0 0-1.47-.322q-1.064 0-1.89.504a3.4 3.4 0 0 0-1.274 1.4q-.448.896-.448 2.086 0 1.176.448 2.086a3.5 3.5 0 0 0 1.274 1.4q.826.504 1.89.504.798 0 1.456-.308a3.5 3.5 0 0 0 1.134-.854l1.008.896a5.2 5.2 0 0 1-1.624 1.148 4.55 4.55 0 0 1-1.96.392m10.32-4.018q0-.937-.448-1.512a1.41 1.41 0 0 0-1.176-.588q-.532 0-.98.308a2.2 2.2 0 0 0-.714.826 2.56 2.56 0 0 0-.252 1.134v3.738h-1.456v-10.304h1.456v4.144q.322-.504.868-.784a2.3 2.3 0 0 1 1.092-.294q.882 0 1.582.406a2.74 2.74 0 0 1 1.092 1.12q.392.714.392 1.638v4.074h-1.456zm4.794-3.374v7.28h-1.456v-7.28zm-1.554-2.38q0-.365.224-.588a.82.82 0 0 1 .602-.238q.365 0 .588.238a.77.77 0 0 1 .238.588.8.8 0 0 1-.238.588.77.77 0 0 1-.588.238.85.85 0 0 1-.602-.224.85.85 0 0 1-.224-.602m7.208 8.526q.938 0 1.526-.686.588-.7.588-1.82 0-1.106-.588-1.792t-1.526-.686a1.93 1.93 0 0 0-1.092.336 2.36 2.36 0 0 0-.798.91 2.6 2.6 0 0 0-.294 1.232q0 .686.294 1.26t.798.91 1.092.336m-3.654-6.188h1.456v1.26q.378-.63 1.05-.938.671-.322 1.232-.322 1.022 0 1.806.476.797.462 1.232 1.302.447.826.448 1.904 0 1.078-.448 1.932-.435.84-1.232 1.316-.785.462-1.806.462-.56 0-1.232-.322a2.5 2.5 0 0 1-1.05-.966v4.354h-1.456z"/><rect width="55" height="29" x="458.5" y="158.5" fill="#fff" rx="14.5"/><rect width="55" height="29" x="458.5" y="158.5" stroke="#6B6B6B" rx="14.5"/><path fill="#121212" d="M476.887 178.21q-1.483 0-2.646-.672a4.8 4.8 0 0 1-1.806-1.862q-.644-1.204-.644-2.73t.644-2.716a4.7 4.7 0 0 1 1.792-1.876q1.162-.672 2.632-.672 1.05 0 1.974.406a5 5 0 0 1 1.638 1.134l-.952.938a3.2 3.2 0 0 0-1.176-.882 3.5 3.5 0 0 0-1.47-.322q-1.064 0-1.89.504a3.4 3.4 0 0 0-1.274 1.4q-.448.896-.448 2.086 0 1.176.448 2.086a3.5 3.5 0 0 0 1.274 1.4q.826.504 1.89.504.798 0 1.456-.308a3.5 3.5 0 0 0 1.134-.854l1.008.896a5.2 5.2 0 0 1-1.624 1.148 4.55 4.55 0 0 1-1.96.392m10.32-4.018q0-.937-.448-1.512a1.41 1.41 0 0 0-1.176-.588q-.532 0-.98.308a2.2 2.2 0 0 0-.714.826 2.56 2.56 0 0 0-.252 1.134v3.738h-1.456v-10.304h1.456v4.144q.322-.504.868-.784a2.3 2.3 0 0 1 1.092-.294q.882 0 1.582.406a2.74 2.74 0 0 1 1.092 1.12q.392.714.392 1.638v4.074h-1.456zm4.794-3.374v7.28h-1.456v-7.28zm-1.554-2.38q0-.365.224-.588a.82.82 0 0 1 .602-.238q.365 0 .588.238a.77.77 0 0 1 .238.588.8.8 0 0 1-.238.588.77.77 0 0 1-.588.238.85.85 0 0 1-.602-.224.85.85 0 0 1-.224-.602m7.208 8.526q.938 0 1.526-.686.588-.7.588-1.82 0-1.106-.588-1.792t-1.526-.686a1.93 1.93 0 0 0-1.092.336 2.36 2.36 0 0 0-.798.91 2.6 2.6 0 0 0-.294 1.232q0 .686.294 1.26t.798.91 1.092.336m-3.654-6.188h1.456v1.26q.378-.63 1.05-.938.671-.322 1.232-.322 1.022 0 1.806.476.797.462 1.232 1.302.447.826.448 1.904 0 1.078-.448 1.932-.435.84-1.232 1.316-.785.462-1.806.462-.56 0-1.232-.322a2.5 2.5 0 0 1-1.05-.966v4.354h-1.456z"/><rect width="55" height="29" x="522.5" y="158.5" fill="#fff" rx="14.5"/><rect width="55" height="29" x="522.5" y="158.5" stroke="#6B6B6B" rx="14.5"/><path fill="#121212" d="M540.887 178.21q-1.484 0-2.646-.672a4.8 4.8 0 0 1-1.806-1.862q-.644-1.204-.644-2.73t.644-2.716a4.7 4.7 0 0 1 1.792-1.876q1.162-.672 2.632-.672 1.05 0 1.974.406a5 5 0 0 1 1.638 1.134l-.952.938a3.2 3.2 0 0 0-1.176-.882 3.5 3.5 0 0 0-1.47-.322q-1.064 0-1.89.504a3.4 3.4 0 0 0-1.274 1.4q-.448.896-.448 2.086 0 1.176.448 2.086a3.5 3.5 0 0 0 1.274 1.4q.827.504 1.89.504.798 0 1.456-.308a3.5 3.5 0 0 0 1.134-.854l1.008.896a5.2 5.2 0 0 1-1.624 1.148 4.55 4.55 0 0 1-1.96.392m10.32-4.018q0-.937-.448-1.512a1.41 1.41 0 0 0-1.176-.588q-.532 0-.98.308a2.2 2.2 0 0 0-.714.826 2.56 2.56 0 0 0-.252 1.134v3.738h-1.456v-10.304h1.456v4.144q.322-.504.868-.784a2.3 2.3 0 0 1 1.092-.294q.882 0 1.582.406a2.74 2.74 0 0 1 1.092 1.12q.392.714.392 1.638v4.074h-1.456zm4.794-3.374v7.28h-1.456v-7.28zm-1.554-2.38q0-.365.224-.588a.82.82 0 0 1 .602-.238q.365 0 .588.238a.77.77 0 0 1 .238.588.8.8 0 0 1-.238.588.77.77 0 0 1-.588.238.85.85 0 0 1-.602-.224.85.85 0 0 1-.224-.602m7.208 8.526q.938 0 1.526-.686.588-.7.588-1.82 0-1.106-.588-1.792t-1.526-.686a1.93 1.93 0 0 0-1.092.336 2.36 2.36 0 0 0-.798.91 2.6 2.6 0 0 0-.294 1.232q0 .686.294 1.26t.798.91 1.092.336m-3.654-6.188h1.456v1.26q.378-.63 1.05-.938.671-.322 1.232-.322 1.022 0 1.806.476.798.462 1.232 1.302.447.826.448 1.904 0 1.078-.448 1.932-.435.84-1.232 1.316-.785.462-1.806.462-.56 0-1.232-.322a2.5 2.5 0 0 1-1.05-.966v4.354h-1.456z"/><rect width="55" height="29" x="362.5" y="196.5" fill="#fff" rx="14.5"/><rect width="55" height="29" x="362.5" y="196.5" stroke="#6B6B6B" rx="14.5"/><path fill="#121212" d="M380.887 216.21q-1.483 0-2.646-.672a4.8 4.8 0 0 1-1.806-1.862q-.644-1.204-.644-2.73t.644-2.716a4.7 4.7 0 0 1 1.792-1.876q1.162-.672 2.632-.672 1.05 0 1.974.406a5 5 0 0 1 1.638 1.134l-.952.938a3.2 3.2 0 0 0-1.176-.882 3.5 3.5 0 0 0-1.47-.322q-1.064 0-1.89.504a3.4 3.4 0 0 0-1.274 1.4q-.448.896-.448 2.086 0 1.176.448 2.086a3.5 3.5 0 0 0 1.274 1.4q.826.504 1.89.504.798 0 1.456-.308a3.5 3.5 0 0 0 1.134-.854l1.008.896a5.2 5.2 0 0 1-1.624 1.148 4.55 4.55 0 0 1-1.96.392m10.32-4.018q0-.937-.448-1.512a1.41 1.41 0 0 0-1.176-.588q-.532 0-.98.308a2.2 2.2 0 0 0-.714.826 2.56 2.56 0 0 0-.252 1.134v3.738h-1.456v-10.304h1.456v4.144q.322-.504.868-.784a2.3 2.3 0 0 1 1.092-.294q.882 0 1.582.406a2.74 2.74 0 0 1 1.092 1.12q.392.714.392 1.638v4.074h-1.456zm4.794-3.374v7.28h-1.456v-7.28zm-1.554-2.38q0-.364.224-.588a.82.82 0 0 1 .602-.238q.365 0 .588.238a.77.77 0 0 1 .238.588.8.8 0 0 1-.238.588.77.77 0 0 1-.588.238.85.85 0 0 1-.602-.224.85.85 0 0 1-.224-.602m7.208 8.526q.938 0 1.526-.686.588-.7.588-1.82 0-1.106-.588-1.792t-1.526-.686a1.93 1.93 0 0 0-1.092.336 2.36 2.36 0 0 0-.798.91 2.6 2.6 0 0 0-.294 1.232q0 .686.294 1.26t.798.91 1.092.336m-3.654-6.188h1.456v1.26q.378-.63 1.05-.938.671-.322 1.232-.322 1.022 0 1.806.476.797.462 1.232 1.302.447.826.448 1.904 0 1.078-.448 1.932-.435.84-1.232 1.316-.785.462-1.806.462-.56 0-1.232-.322a2.5 2.5 0 0 1-1.05-.966v4.354h-1.456z"/><rect width="55" height="29" x="426.5" y="196.5" fill="#fff" rx="14.5"/><rect width="55" height="29" x="426.5" y="196.5" stroke="#6B6B6B" rx="14.5"/><path fill="#121212" d="M444.887 216.21q-1.483 0-2.646-.672a4.8 4.8 0 0 1-1.806-1.862q-.644-1.204-.644-2.73t.644-2.716a4.7 4.7 0 0 1 1.792-1.876q1.162-.672 2.632-.672 1.05 0 1.974.406a5 5 0 0 1 1.638 1.134l-.952.938a3.2 3.2 0 0 0-1.176-.882 3.5 3.5 0 0 0-1.47-.322q-1.064 0-1.89.504a3.4 3.4 0 0 0-1.274 1.4q-.448.896-.448 2.086 0 1.176.448 2.086a3.5 3.5 0 0 0 1.274 1.4q.826.504 1.89.504.798 0 1.456-.308a3.5 3.5 0 0 0 1.134-.854l1.008.896a5.2 5.2 0 0 1-1.624 1.148 4.55 4.55 0 0 1-1.96.392m10.32-4.018q0-.937-.448-1.512a1.41 1.41 0 0 0-1.176-.588q-.532 0-.98.308a2.2 2.2 0 0 0-.714.826 2.56 2.56 0 0 0-.252 1.134v3.738h-1.456v-10.304h1.456v4.144q.322-.504.868-.784a2.3 2.3 0 0 1 1.092-.294q.882 0 1.582.406a2.74 2.74 0 0 1 1.092 1.12q.392.714.392 1.638v4.074h-1.456zm4.794-3.374v7.28h-1.456v-7.28zm-1.554-2.38q0-.364.224-.588a.82.82 0 0 1 .602-.238q.365 0 .588.238a.77.77 0 0 1 .238.588.8.8 0 0 1-.238.588.77.77 0 0 1-.588.238.85.85 0 0 1-.602-.224.85.85 0 0 1-.224-.602m7.208 8.526q.938 0 1.526-.686.588-.7.588-1.82 0-1.106-.588-1.792t-1.526-.686a1.93 1.93 0 0 0-1.092.336 2.36 2.36 0 0 0-.798.91 2.6 2.6 0 0 0-.294 1.232q0 .686.294 1.26t.798.91 1.092.336m-3.654-6.188h1.456v1.26q.378-.63 1.05-.938.671-.322 1.232-.322 1.022 0 1.806.476.797.462 1.232 1.302.447.826.448 1.904 0 1.078-.448 1.932-.435.84-1.232 1.316-.785.462-1.806.462-.56 0-1.232-.322a2.5 2.5 0 0 1-1.05-.966v4.354h-1.456z"/><rect width="55" height="29" x="490.5" y="196.5" fill="#fff" rx="14.5"/><rect width="55" height="29" x="490.5" y="196.5" stroke="#6B6B6B" rx="14.5"/><path fill="#121212" d="M508.887 216.21q-1.483 0-2.646-.672a4.8 4.8 0 0 1-1.806-1.862q-.644-1.204-.644-2.73t.644-2.716a4.7 4.7 0 0 1 1.792-1.876q1.162-.672 2.632-.672 1.05 0 1.974.406a5 5 0 0 1 1.638 1.134l-.952.938a3.2 3.2 0 0 0-1.176-.882 3.5 3.5 0 0 0-1.47-.322q-1.064 0-1.89.504a3.4 3.4 0 0 0-1.274 1.4q-.448.896-.448 2.086 0 1.176.448 2.086a3.5 3.5 0 0 0 1.274 1.4q.826.504 1.89.504.798 0 1.456-.308a3.5 3.5 0 0 0 1.134-.854l1.008.896a5.2 5.2 0 0 1-1.624 1.148 4.55 4.55 0 0 1-1.96.392m10.32-4.018q0-.937-.448-1.512a1.41 1.41 0 0 0-1.176-.588q-.532 0-.98.308a2.2 2.2 0 0 0-.714.826 2.56 2.56 0 0 0-.252 1.134v3.738h-1.456v-10.304h1.456v4.144q.322-.504.868-.784a2.3 2.3 0 0 1 1.092-.294q.882 0 1.582.406a2.74 2.74 0 0 1 1.092 1.12q.392.714.392 1.638v4.074h-1.456zm4.794-3.374v7.28h-1.456v-7.28zm-1.554-2.38q0-.364.224-.588a.82.82 0 0 1 .602-.238q.365 0 .588.238a.77.77 0 0 1 .238.588.8.8 0 0 1-.238.588.77.77 0 0 1-.588.238.85.85 0 0 1-.602-.224.85.85 0 0 1-.224-.602m7.208 8.526q.938 0 1.526-.686.588-.7.588-1.82 0-1.106-.588-1.792t-1.526-.686a1.93 1.93 0 0 0-1.092.336 2.36 2.36 0 0 0-.798.91 2.6 2.6 0 0 0-.294 1.232q0 .686.294 1.26t.798.91 1.092.336m-3.654-6.188h1.456v1.26q.378-.63 1.05-.938.671-.322 1.232-.322 1.022 0 1.806.476.798.462 1.232 1.302.447.826.448 1.904 0 1.078-.448 1.932-.435.84-1.232 1.316-.785.462-1.806.462-.56 0-1.232-.322a2.5 2.5 0 0 1-1.05-.966v4.354h-1.456z"/><path fill="red" fill-opacity=".1" d="M386 158h8v30h-8zM418 196h8v30h-8zM450 158h8v30h-8zM482 196h8v30h-8zM514 158h8v30h-8zM578 188v8H330v-8z"/><path fill="#6B6B6B" d="M590.672 195.964q.882 0 1.428-.504.56-.518.56-1.33t-.56-1.316q-.546-.518-1.428-.518-.896 0-1.456.518-.56.504-.56 1.316t.56 1.33q.56.504 1.456.504m-3.472-1.806q0-.686.476-1.372a3.46 3.46 0 0 1 1.218-1.106 3.5 3.5 0 0 1-1.008-1.036q-.392-.616-.392-1.162 0-.812.406-1.442a2.7 2.7 0 0 1 1.12-.994q.728-.364 1.652-.364t1.638.364q.727.35 1.134.994.406.63.406 1.442 0 .56-.392 1.176a3.4 3.4 0 0 1-1.008 1.022q.742.42 1.204 1.106t.462 1.372q0 .882-.434 1.582a3 3 0 0 1-1.218 1.078q-.784.378-1.792.378t-1.806-.378a3.1 3.1 0 0 1-1.232-1.078 2.94 2.94 0 0 1-.434-1.582m1.75-4.676q0 .7.476 1.134t1.246.434q.756 0 1.232-.434a1.47 1.47 0 0 0 .49-1.134q0-.686-.49-1.12-.476-.448-1.232-.448-.77 0-1.246.434t-.476 1.134m10.483 6.482q.938 0 1.526-.686.588-.7.588-1.82 0-1.106-.588-1.792t-1.526-.686a1.93 1.93 0 0 0-1.092.336 2.36 2.36 0 0 0-.798.91 2.6 2.6 0 0 0-.294 1.232q0 .686.294 1.26t.798.91 1.092.336m-3.654-6.188h1.456v1.26q.378-.63 1.05-.938.672-.322 1.232-.322 1.022 0 1.806.476.798.462 1.232 1.302.448.826.448 1.904t-.448 1.932q-.434.84-1.232 1.316-.784.462-1.806.462-.56 0-1.232-.322a2.5 2.5 0 0 1-1.05-.966v4.354h-1.456zm12.367 3.668 2.702 3.654h-1.806l-1.75-2.478-1.736 2.478h-1.806l2.66-3.654-2.716-3.668h1.82l1.778 2.548 1.764-2.548h1.82z"/><path stroke="#6B6B6B" stroke-width="1.2" d="M578.5 188v8"/></svg>