<svg width="908" height="256" viewBox="0 0 908 256" fill="none" xmlns="http://www.w3.org/2000/svg">
<rect width="907" height="104" transform="translate(0.5)" fill="white"/>
<path d="M446.172 78.964C446.76 78.964 447.236 78.796 447.6 78.46C447.973 78.1147 448.16 77.6713 448.16 77.13C448.16 76.5887 447.973 76.15 447.6 75.814C447.236 75.4687 446.76 75.296 446.172 75.296C445.575 75.296 445.089 75.4687 444.716 75.814C444.343 76.15 444.156 76.5887 444.156 77.13C444.156 77.6713 444.343 78.1147 444.716 78.46C445.089 78.796 445.575 78.964 446.172 78.964ZM442.7 77.158C442.7 76.7007 442.859 76.2433 443.176 75.786C443.493 75.3193 443.899 74.9507 444.394 74.68C443.983 74.4 443.647 74.0547 443.386 73.644C443.125 73.2333 442.994 72.846 442.994 72.482C442.994 71.9407 443.129 71.46 443.4 71.04C443.671 70.6107 444.044 70.2793 444.52 70.046C445.005 69.8033 445.556 69.682 446.172 69.682C446.788 69.682 447.334 69.8033 447.81 70.046C448.295 70.2793 448.673 70.6107 448.944 71.04C449.215 71.46 449.35 71.9407 449.35 72.482C449.35 72.8553 449.219 73.2473 448.958 73.658C448.697 74.0687 448.361 74.4093 447.95 74.68C448.445 74.96 448.846 75.3287 449.154 75.786C449.462 76.2433 449.616 76.7007 449.616 77.158C449.616 77.746 449.471 78.2733 449.182 78.74C448.893 79.1973 448.487 79.5567 447.964 79.818C447.441 80.07 446.844 80.196 446.172 80.196C445.5 80.196 444.898 80.07 444.366 79.818C443.843 79.5567 443.433 79.1973 443.134 78.74C442.845 78.2733 442.7 77.746 442.7 77.158ZM444.45 72.482C444.45 72.9487 444.609 73.3267 444.926 73.616C445.243 73.9053 445.659 74.05 446.172 74.05C446.676 74.05 447.087 73.9053 447.404 73.616C447.731 73.3173 447.894 72.9393 447.894 72.482C447.894 72.0247 447.731 71.6513 447.404 71.362C447.087 71.0633 446.676 70.914 446.172 70.914C445.659 70.914 445.243 71.0587 444.926 71.348C444.609 71.6373 444.45 72.0153 444.45 72.482ZM454.933 78.964C455.558 78.964 456.067 78.7353 456.459 78.278C456.851 77.8113 457.047 77.2047 457.047 76.458C457.047 75.7207 456.851 75.1233 456.459 74.666C456.067 74.2087 455.558 73.98 454.933 73.98C454.541 73.98 454.177 74.092 453.841 74.316C453.505 74.54 453.239 74.8433 453.043 75.226C452.847 75.5993 452.749 76.01 452.749 76.458C452.749 76.9153 452.847 77.3353 453.043 77.718C453.239 78.1007 453.505 78.404 453.841 78.628C454.177 78.852 454.541 78.964 454.933 78.964ZM451.279 72.776H452.735V74.036C452.987 73.616 453.337 73.3033 453.785 73.098C454.233 72.8833 454.644 72.776 455.017 72.776C455.698 72.776 456.3 72.9347 456.823 73.252C457.355 73.56 457.766 73.994 458.055 74.554C458.354 75.1047 458.503 75.7393 458.503 76.458C458.503 77.1767 458.354 77.8207 458.055 78.39C457.766 78.95 457.355 79.3887 456.823 79.706C456.3 80.014 455.698 80.168 455.017 80.168C454.644 80.168 454.233 80.0607 453.785 79.846C453.337 79.622 452.987 79.3 452.735 78.88V83.234H451.279V72.776ZM463.646 76.444L466.348 80.098H464.542L462.792 77.62L461.056 80.098H459.25L461.91 76.444L459.194 72.776H461.014L462.792 75.324L464.556 72.776H466.376L463.646 76.444Z" fill="#6B6B6B"/>
<rect x="331.5" y="34.5" width="55" height="29" rx="14.5" fill="white"/>
<rect x="331.5" y="34.5" width="55" height="29" rx="14.5" stroke="#6B6B6B"/>
<path d="M349.887 54.21C348.898 54.21 348.016 53.986 347.241 53.538C346.476 53.09 345.874 52.4693 345.435 51.676C345.006 50.8733 344.791 49.9633 344.791 48.946C344.791 47.9287 345.006 47.0233 345.435 46.23C345.864 45.4273 346.462 44.802 347.227 44.354C348.002 43.906 348.879 43.682 349.859 43.682C350.559 43.682 351.217 43.8173 351.833 44.088C352.458 44.3587 353.004 44.7367 353.471 45.222L352.519 46.16C352.211 45.7867 351.819 45.4927 351.343 45.278C350.876 45.0633 350.386 44.956 349.873 44.956C349.164 44.956 348.534 45.124 347.983 45.46C347.442 45.7867 347.017 46.2533 346.709 46.86C346.41 47.4573 346.261 48.1527 346.261 48.946C346.261 49.73 346.41 50.4253 346.709 51.032C347.017 51.6293 347.442 52.096 347.983 52.432C348.534 52.768 349.164 52.936 349.873 52.936C350.405 52.936 350.89 52.8333 351.329 52.628C351.777 52.4133 352.155 52.1287 352.463 51.774L353.471 52.67C352.995 53.1647 352.454 53.5473 351.847 53.818C351.25 54.0887 350.596 54.2193 349.887 54.21ZM360.207 50.192C360.207 49.5667 360.058 49.0627 359.759 48.68C359.46 48.288 359.068 48.092 358.583 48.092C358.228 48.092 357.902 48.1947 357.603 48.4C357.304 48.6053 357.066 48.8807 356.889 49.226C356.721 49.5713 356.637 49.9493 356.637 50.36V54.098H355.181V43.794H356.637V47.938C356.852 47.602 357.141 47.3407 357.505 47.154C357.869 46.958 358.233 46.86 358.597 46.86C359.185 46.86 359.712 46.9953 360.179 47.266C360.646 47.5273 361.01 47.9007 361.271 48.386C361.532 48.862 361.663 49.408 361.663 50.024V54.098H360.207V50.192ZM365.001 46.818V54.098H363.545V46.818H365.001ZM363.447 44.438C363.447 44.1953 363.522 43.9993 363.671 43.85C363.83 43.6913 364.031 43.612 364.273 43.612C364.516 43.612 364.712 43.6913 364.861 43.85C365.02 43.9993 365.099 44.1953 365.099 44.438C365.099 44.6713 365.02 44.8673 364.861 45.026C364.712 45.1847 364.516 45.264 364.273 45.264C364.031 45.264 363.83 45.1893 363.671 45.04C363.522 44.8813 363.447 44.6807 363.447 44.438ZM370.655 52.964C371.28 52.964 371.789 52.7353 372.181 52.278C372.573 51.8113 372.769 51.2047 372.769 50.458C372.769 49.7207 372.573 49.1233 372.181 48.666C371.789 48.2087 371.28 47.98 370.655 47.98C370.263 47.98 369.899 48.092 369.563 48.316C369.227 48.54 368.961 48.8433 368.765 49.226C368.569 49.5993 368.471 50.01 368.471 50.458C368.471 50.9153 368.569 51.3353 368.765 51.718C368.961 52.1007 369.227 52.404 369.563 52.628C369.899 52.852 370.263 52.964 370.655 52.964ZM367.001 46.776H368.457V48.036C368.709 47.616 369.059 47.3033 369.507 47.098C369.955 46.8833 370.365 46.776 370.739 46.776C371.42 46.776 372.022 46.9347 372.545 47.252C373.077 47.56 373.487 47.994 373.777 48.554C374.075 49.1047 374.225 49.7393 374.225 50.458C374.225 51.1767 374.075 51.8207 373.777 52.39C373.487 52.95 373.077 53.3887 372.545 53.706C372.022 54.014 371.42 54.168 370.739 54.168C370.365 54.168 369.955 54.0607 369.507 53.846C369.059 53.622 368.709 53.3 368.457 52.88V57.234H367.001V46.776Z" fill="#121212"/>
<rect x="395.5" y="34.5" width="55" height="29" rx="14.5" fill="white"/>
<rect x="395.5" y="34.5" width="55" height="29" rx="14.5" stroke="#6B6B6B"/>
<path d="M413.887 54.21C412.898 54.21 412.016 53.986 411.241 53.538C410.476 53.09 409.874 52.4693 409.435 51.676C409.006 50.8733 408.791 49.9633 408.791 48.946C408.791 47.9287 409.006 47.0233 409.435 46.23C409.864 45.4273 410.462 44.802 411.227 44.354C412.002 43.906 412.879 43.682 413.859 43.682C414.559 43.682 415.217 43.8173 415.833 44.088C416.458 44.3587 417.004 44.7367 417.471 45.222L416.519 46.16C416.211 45.7867 415.819 45.4927 415.343 45.278C414.876 45.0633 414.386 44.956 413.873 44.956C413.164 44.956 412.534 45.124 411.983 45.46C411.442 45.7867 411.017 46.2533 410.709 46.86C410.41 47.4573 410.261 48.1527 410.261 48.946C410.261 49.73 410.41 50.4253 410.709 51.032C411.017 51.6293 411.442 52.096 411.983 52.432C412.534 52.768 413.164 52.936 413.873 52.936C414.405 52.936 414.89 52.8333 415.329 52.628C415.777 52.4133 416.155 52.1287 416.463 51.774L417.471 52.67C416.995 53.1647 416.454 53.5473 415.847 53.818C415.25 54.0887 414.596 54.2193 413.887 54.21ZM424.207 50.192C424.207 49.5667 424.058 49.0627 423.759 48.68C423.46 48.288 423.068 48.092 422.583 48.092C422.228 48.092 421.902 48.1947 421.603 48.4C421.304 48.6053 421.066 48.8807 420.889 49.226C420.721 49.5713 420.637 49.9493 420.637 50.36V54.098H419.181V43.794H420.637V47.938C420.852 47.602 421.141 47.3407 421.505 47.154C421.869 46.958 422.233 46.86 422.597 46.86C423.185 46.86 423.712 46.9953 424.179 47.266C424.646 47.5273 425.01 47.9007 425.271 48.386C425.532 48.862 425.663 49.408 425.663 50.024V54.098H424.207V50.192ZM429.001 46.818V54.098H427.545V46.818H429.001ZM427.447 44.438C427.447 44.1953 427.522 43.9993 427.671 43.85C427.83 43.6913 428.031 43.612 428.273 43.612C428.516 43.612 428.712 43.6913 428.861 43.85C429.02 43.9993 429.099 44.1953 429.099 44.438C429.099 44.6713 429.02 44.8673 428.861 45.026C428.712 45.1847 428.516 45.264 428.273 45.264C428.031 45.264 427.83 45.1893 427.671 45.04C427.522 44.8813 427.447 44.6807 427.447 44.438ZM434.655 52.964C435.28 52.964 435.789 52.7353 436.181 52.278C436.573 51.8113 436.769 51.2047 436.769 50.458C436.769 49.7207 436.573 49.1233 436.181 48.666C435.789 48.2087 435.28 47.98 434.655 47.98C434.263 47.98 433.899 48.092 433.563 48.316C433.227 48.54 432.961 48.8433 432.765 49.226C432.569 49.5993 432.471 50.01 432.471 50.458C432.471 50.9153 432.569 51.3353 432.765 51.718C432.961 52.1007 433.227 52.404 433.563 52.628C433.899 52.852 434.263 52.964 434.655 52.964ZM431.001 46.776H432.457V48.036C432.709 47.616 433.059 47.3033 433.507 47.098C433.955 46.8833 434.365 46.776 434.739 46.776C435.42 46.776 436.022 46.9347 436.545 47.252C437.077 47.56 437.487 47.994 437.777 48.554C438.075 49.1047 438.225 49.7393 438.225 50.458C438.225 51.1767 438.075 51.8207 437.777 52.39C437.487 52.95 437.077 53.3887 436.545 53.706C436.022 54.014 435.42 54.168 434.739 54.168C434.365 54.168 433.955 54.0607 433.507 53.846C433.059 53.622 432.709 53.3 432.457 52.88V57.234H431.001V46.776Z" fill="#121212"/>
<rect x="459" y="34" width="56" height="30" rx="15" fill="#368FF7"/>
<path d="M477.887 54.21C476.898 54.21 476.016 53.986 475.241 53.538C474.476 53.09 473.874 52.4693 473.435 51.676C473.006 50.8733 472.791 49.9633 472.791 48.946C472.791 47.9287 473.006 47.0233 473.435 46.23C473.864 45.4273 474.462 44.802 475.227 44.354C476.002 43.906 476.879 43.682 477.859 43.682C478.559 43.682 479.217 43.8173 479.833 44.088C480.458 44.3587 481.004 44.7367 481.471 45.222L480.519 46.16C480.211 45.7867 479.819 45.4927 479.343 45.278C478.876 45.0633 478.386 44.956 477.873 44.956C477.164 44.956 476.534 45.124 475.983 45.46C475.442 45.7867 475.017 46.2533 474.709 46.86C474.41 47.4573 474.261 48.1527 474.261 48.946C474.261 49.73 474.41 50.4253 474.709 51.032C475.017 51.6293 475.442 52.096 475.983 52.432C476.534 52.768 477.164 52.936 477.873 52.936C478.405 52.936 478.89 52.8333 479.329 52.628C479.777 52.4133 480.155 52.1287 480.463 51.774L481.471 52.67C480.995 53.1647 480.454 53.5473 479.847 53.818C479.25 54.0887 478.596 54.2193 477.887 54.21ZM488.207 50.192C488.207 49.5667 488.058 49.0627 487.759 48.68C487.46 48.288 487.068 48.092 486.583 48.092C486.228 48.092 485.902 48.1947 485.603 48.4C485.304 48.6053 485.066 48.8807 484.889 49.226C484.721 49.5713 484.637 49.9493 484.637 50.36V54.098H483.181V43.794H484.637V47.938C484.852 47.602 485.141 47.3407 485.505 47.154C485.869 46.958 486.233 46.86 486.597 46.86C487.185 46.86 487.712 46.9953 488.179 47.266C488.646 47.5273 489.01 47.9007 489.271 48.386C489.532 48.862 489.663 49.408 489.663 50.024V54.098H488.207V50.192ZM493.001 46.818V54.098H491.545V46.818H493.001ZM491.447 44.438C491.447 44.1953 491.522 43.9993 491.671 43.85C491.83 43.6913 492.031 43.612 492.273 43.612C492.516 43.612 492.712 43.6913 492.861 43.85C493.02 43.9993 493.099 44.1953 493.099 44.438C493.099 44.6713 493.02 44.8673 492.861 45.026C492.712 45.1847 492.516 45.264 492.273 45.264C492.031 45.264 491.83 45.1893 491.671 45.04C491.522 44.8813 491.447 44.6807 491.447 44.438ZM498.655 52.964C499.28 52.964 499.789 52.7353 500.181 52.278C500.573 51.8113 500.769 51.2047 500.769 50.458C500.769 49.7207 500.573 49.1233 500.181 48.666C499.789 48.2087 499.28 47.98 498.655 47.98C498.263 47.98 497.899 48.092 497.563 48.316C497.227 48.54 496.961 48.8433 496.765 49.226C496.569 49.5993 496.471 50.01 496.471 50.458C496.471 50.9153 496.569 51.3353 496.765 51.718C496.961 52.1007 497.227 52.404 497.563 52.628C497.899 52.852 498.263 52.964 498.655 52.964ZM495.001 46.776H496.457V48.036C496.709 47.616 497.059 47.3033 497.507 47.098C497.955 46.8833 498.365 46.776 498.739 46.776C499.42 46.776 500.022 46.9347 500.545 47.252C501.077 47.56 501.487 47.994 501.777 48.554C502.075 49.1047 502.225 49.7393 502.225 50.458C502.225 51.1767 502.075 51.8207 501.777 52.39C501.487 52.95 501.077 53.3887 500.545 53.706C500.022 54.014 499.42 54.168 498.739 54.168C498.365 54.168 497.955 54.0607 497.507 53.846C497.059 53.622 496.709 53.3 496.457 52.88V57.234H495.001V46.776Z" fill="white"/>
<rect x="523.5" y="34.5" width="55" height="29" rx="14.5" fill="white"/>
<rect x="523.5" y="34.5" width="55" height="29" rx="14.5" stroke="#6B6B6B"/>
<path d="M541.887 54.21C540.898 54.21 540.016 53.986 539.241 53.538C538.476 53.09 537.874 52.4693 537.435 51.676C537.006 50.8733 536.791 49.9633 536.791 48.946C536.791 47.9287 537.006 47.0233 537.435 46.23C537.864 45.4273 538.462 44.802 539.227 44.354C540.002 43.906 540.879 43.682 541.859 43.682C542.559 43.682 543.217 43.8173 543.833 44.088C544.458 44.3587 545.004 44.7367 545.471 45.222L544.519 46.16C544.211 45.7867 543.819 45.4927 543.343 45.278C542.876 45.0633 542.386 44.956 541.873 44.956C541.164 44.956 540.534 45.124 539.983 45.46C539.442 45.7867 539.017 46.2533 538.709 46.86C538.41 47.4573 538.261 48.1527 538.261 48.946C538.261 49.73 538.41 50.4253 538.709 51.032C539.017 51.6293 539.442 52.096 539.983 52.432C540.534 52.768 541.164 52.936 541.873 52.936C542.405 52.936 542.89 52.8333 543.329 52.628C543.777 52.4133 544.155 52.1287 544.463 51.774L545.471 52.67C544.995 53.1647 544.454 53.5473 543.847 53.818C543.25 54.0887 542.596 54.2193 541.887 54.21ZM552.207 50.192C552.207 49.5667 552.058 49.0627 551.759 48.68C551.46 48.288 551.068 48.092 550.583 48.092C550.228 48.092 549.902 48.1947 549.603 48.4C549.304 48.6053 549.066 48.8807 548.889 49.226C548.721 49.5713 548.637 49.9493 548.637 50.36V54.098H547.181V43.794H548.637V47.938C548.852 47.602 549.141 47.3407 549.505 47.154C549.869 46.958 550.233 46.86 550.597 46.86C551.185 46.86 551.712 46.9953 552.179 47.266C552.646 47.5273 553.01 47.9007 553.271 48.386C553.532 48.862 553.663 49.408 553.663 50.024V54.098H552.207V50.192ZM557.001 46.818V54.098H555.545V46.818H557.001ZM555.447 44.438C555.447 44.1953 555.522 43.9993 555.671 43.85C555.83 43.6913 556.031 43.612 556.273 43.612C556.516 43.612 556.712 43.6913 556.861 43.85C557.02 43.9993 557.099 44.1953 557.099 44.438C557.099 44.6713 557.02 44.8673 556.861 45.026C556.712 45.1847 556.516 45.264 556.273 45.264C556.031 45.264 555.83 45.1893 555.671 45.04C555.522 44.8813 555.447 44.6807 555.447 44.438ZM562.655 52.964C563.28 52.964 563.789 52.7353 564.181 52.278C564.573 51.8113 564.769 51.2047 564.769 50.458C564.769 49.7207 564.573 49.1233 564.181 48.666C563.789 48.2087 563.28 47.98 562.655 47.98C562.263 47.98 561.899 48.092 561.563 48.316C561.227 48.54 560.961 48.8433 560.765 49.226C560.569 49.5993 560.471 50.01 560.471 50.458C560.471 50.9153 560.569 51.3353 560.765 51.718C560.961 52.1007 561.227 52.404 561.563 52.628C561.899 52.852 562.263 52.964 562.655 52.964ZM559.001 46.776H560.457V48.036C560.709 47.616 561.059 47.3033 561.507 47.098C561.955 46.8833 562.365 46.776 562.739 46.776C563.42 46.776 564.022 46.9347 564.545 47.252C565.077 47.56 565.487 47.994 565.777 48.554C566.075 49.1047 566.225 49.7393 566.225 50.458C566.225 51.1767 566.075 51.8207 565.777 52.39C565.487 52.95 565.077 53.3887 564.545 53.706C564.022 54.014 563.42 54.168 562.739 54.168C562.365 54.168 561.955 54.0607 561.507 53.846C561.059 53.622 560.709 53.3 560.457 52.88V57.234H559.001V46.776Z" fill="#121212"/>
<rect x="387" y="34" width="8" height="30" fill="#FF0000" fill-opacity="0.1"/>
<rect x="451" y="34" width="8" height="30" fill="#FF0000" fill-opacity="0.1"/>
<rect x="515" y="34" width="8" height="30" fill="#FF0000" fill-opacity="0.1"/>
<path d="M459 64L451 64" stroke="#6B6B6B" stroke-width="1.2"/>
<rect width="907" height="132" transform="translate(0.5 124)" fill="white"/>
<rect x="330.5" y="158.5" width="55" height="29" rx="14.5" fill="white"/>
<rect x="330.5" y="158.5" width="55" height="29" rx="14.5" stroke="#6B6B6B"/>
<path d="M348.887 178.21C347.898 178.21 347.016 177.986 346.241 177.538C345.476 177.09 344.874 176.469 344.435 175.676C344.006 174.873 343.791 173.963 343.791 172.946C343.791 171.929 344.006 171.023 344.435 170.23C344.864 169.427 345.462 168.802 346.227 168.354C347.002 167.906 347.879 167.682 348.859 167.682C349.559 167.682 350.217 167.817 350.833 168.088C351.458 168.359 352.004 168.737 352.471 169.222L351.519 170.16C351.211 169.787 350.819 169.493 350.343 169.278C349.876 169.063 349.386 168.956 348.873 168.956C348.164 168.956 347.534 169.124 346.983 169.46C346.442 169.787 346.017 170.253 345.709 170.86C345.41 171.457 345.261 172.153 345.261 172.946C345.261 173.73 345.41 174.425 345.709 175.032C346.017 175.629 346.442 176.096 346.983 176.432C347.534 176.768 348.164 176.936 348.873 176.936C349.405 176.936 349.89 176.833 350.329 176.628C350.777 176.413 351.155 176.129 351.463 175.774L352.471 176.67C351.995 177.165 351.454 177.547 350.847 177.818C350.25 178.089 349.596 178.219 348.887 178.21ZM359.207 174.192C359.207 173.567 359.058 173.063 358.759 172.68C358.46 172.288 358.068 172.092 357.583 172.092C357.228 172.092 356.902 172.195 356.603 172.4C356.304 172.605 356.066 172.881 355.889 173.226C355.721 173.571 355.637 173.949 355.637 174.36V178.098H354.181V167.794H355.637V171.938C355.852 171.602 356.141 171.341 356.505 171.154C356.869 170.958 357.233 170.86 357.597 170.86C358.185 170.86 358.712 170.995 359.179 171.266C359.646 171.527 360.01 171.901 360.271 172.386C360.532 172.862 360.663 173.408 360.663 174.024V178.098H359.207V174.192ZM364.001 170.818V178.098H362.545V170.818H364.001ZM362.447 168.438C362.447 168.195 362.522 167.999 362.671 167.85C362.83 167.691 363.031 167.612 363.273 167.612C363.516 167.612 363.712 167.691 363.861 167.85C364.02 167.999 364.099 168.195 364.099 168.438C364.099 168.671 364.02 168.867 363.861 169.026C363.712 169.185 363.516 169.264 363.273 169.264C363.031 169.264 362.83 169.189 362.671 169.04C362.522 168.881 362.447 168.681 362.447 168.438ZM369.655 176.964C370.28 176.964 370.789 176.735 371.181 176.278C371.573 175.811 371.769 175.205 371.769 174.458C371.769 173.721 371.573 173.123 371.181 172.666C370.789 172.209 370.28 171.98 369.655 171.98C369.263 171.98 368.899 172.092 368.563 172.316C368.227 172.54 367.961 172.843 367.765 173.226C367.569 173.599 367.471 174.01 367.471 174.458C367.471 174.915 367.569 175.335 367.765 175.718C367.961 176.101 368.227 176.404 368.563 176.628C368.899 176.852 369.263 176.964 369.655 176.964ZM366.001 170.776H367.457V172.036C367.709 171.616 368.059 171.303 368.507 171.098C368.955 170.883 369.365 170.776 369.739 170.776C370.42 170.776 371.022 170.935 371.545 171.252C372.077 171.56 372.487 171.994 372.777 172.554C373.075 173.105 373.225 173.739 373.225 174.458C373.225 175.177 373.075 175.821 372.777 176.39C372.487 176.95 372.077 177.389 371.545 177.706C371.022 178.014 370.42 178.168 369.739 178.168C369.365 178.168 368.955 178.061 368.507 177.846C368.059 177.622 367.709 177.3 367.457 176.88V181.234H366.001V170.776Z" fill="#121212"/>
<rect x="394.5" y="158.5" width="55" height="29" rx="14.5" fill="white"/>
<rect x="394.5" y="158.5" width="55" height="29" rx="14.5" stroke="#6B6B6B"/>
<path d="M412.887 178.21C411.898 178.21 411.016 177.986 410.241 177.538C409.476 177.09 408.874 176.469 408.435 175.676C408.006 174.873 407.791 173.963 407.791 172.946C407.791 171.929 408.006 171.023 408.435 170.23C408.864 169.427 409.462 168.802 410.227 168.354C411.002 167.906 411.879 167.682 412.859 167.682C413.559 167.682 414.217 167.817 414.833 168.088C415.458 168.359 416.004 168.737 416.471 169.222L415.519 170.16C415.211 169.787 414.819 169.493 414.343 169.278C413.876 169.063 413.386 168.956 412.873 168.956C412.164 168.956 411.534 169.124 410.983 169.46C410.442 169.787 410.017 170.253 409.709 170.86C409.41 171.457 409.261 172.153 409.261 172.946C409.261 173.73 409.41 174.425 409.709 175.032C410.017 175.629 410.442 176.096 410.983 176.432C411.534 176.768 412.164 176.936 412.873 176.936C413.405 176.936 413.89 176.833 414.329 176.628C414.777 176.413 415.155 176.129 415.463 175.774L416.471 176.67C415.995 177.165 415.454 177.547 414.847 177.818C414.25 178.089 413.596 178.219 412.887 178.21ZM423.207 174.192C423.207 173.567 423.058 173.063 422.759 172.68C422.46 172.288 422.068 172.092 421.583 172.092C421.228 172.092 420.902 172.195 420.603 172.4C420.304 172.605 420.066 172.881 419.889 173.226C419.721 173.571 419.637 173.949 419.637 174.36V178.098H418.181V167.794H419.637V171.938C419.852 171.602 420.141 171.341 420.505 171.154C420.869 170.958 421.233 170.86 421.597 170.86C422.185 170.86 422.712 170.995 423.179 171.266C423.646 171.527 424.01 171.901 424.271 172.386C424.532 172.862 424.663 173.408 424.663 174.024V178.098H423.207V174.192ZM428.001 170.818V178.098H426.545V170.818H428.001ZM426.447 168.438C426.447 168.195 426.522 167.999 426.671 167.85C426.83 167.691 427.031 167.612 427.273 167.612C427.516 167.612 427.712 167.691 427.861 167.85C428.02 167.999 428.099 168.195 428.099 168.438C428.099 168.671 428.02 168.867 427.861 169.026C427.712 169.185 427.516 169.264 427.273 169.264C427.031 169.264 426.83 169.189 426.671 169.04C426.522 168.881 426.447 168.681 426.447 168.438ZM433.655 176.964C434.28 176.964 434.789 176.735 435.181 176.278C435.573 175.811 435.769 175.205 435.769 174.458C435.769 173.721 435.573 173.123 435.181 172.666C434.789 172.209 434.28 171.98 433.655 171.98C433.263 171.98 432.899 172.092 432.563 172.316C432.227 172.54 431.961 172.843 431.765 173.226C431.569 173.599 431.471 174.01 431.471 174.458C431.471 174.915 431.569 175.335 431.765 175.718C431.961 176.101 432.227 176.404 432.563 176.628C432.899 176.852 433.263 176.964 433.655 176.964ZM430.001 170.776H431.457V172.036C431.709 171.616 432.059 171.303 432.507 171.098C432.955 170.883 433.365 170.776 433.739 170.776C434.42 170.776 435.022 170.935 435.545 171.252C436.077 171.56 436.487 171.994 436.777 172.554C437.075 173.105 437.225 173.739 437.225 174.458C437.225 175.177 437.075 175.821 436.777 176.39C436.487 176.95 436.077 177.389 435.545 177.706C435.022 178.014 434.42 178.168 433.739 178.168C433.365 178.168 432.955 178.061 432.507 177.846C432.059 177.622 431.709 177.3 431.457 176.88V181.234H430.001V170.776Z" fill="#121212"/>
<rect x="458.5" y="158.5" width="55" height="29" rx="14.5" fill="white"/>
<rect x="458.5" y="158.5" width="55" height="29" rx="14.5" stroke="#6B6B6B"/>
<path d="M476.887 178.21C475.898 178.21 475.016 177.986 474.241 177.538C473.476 177.09 472.874 176.469 472.435 175.676C472.006 174.873 471.791 173.963 471.791 172.946C471.791 171.929 472.006 171.023 472.435 170.23C472.864 169.427 473.462 168.802 474.227 168.354C475.002 167.906 475.879 167.682 476.859 167.682C477.559 167.682 478.217 167.817 478.833 168.088C479.458 168.359 480.004 168.737 480.471 169.222L479.519 170.16C479.211 169.787 478.819 169.493 478.343 169.278C477.876 169.063 477.386 168.956 476.873 168.956C476.164 168.956 475.534 169.124 474.983 169.46C474.442 169.787 474.017 170.253 473.709 170.86C473.41 171.457 473.261 172.153 473.261 172.946C473.261 173.73 473.41 174.425 473.709 175.032C474.017 175.629 474.442 176.096 474.983 176.432C475.534 176.768 476.164 176.936 476.873 176.936C477.405 176.936 477.89 176.833 478.329 176.628C478.777 176.413 479.155 176.129 479.463 175.774L480.471 176.67C479.995 177.165 479.454 177.547 478.847 177.818C478.25 178.089 477.596 178.219 476.887 178.21ZM487.207 174.192C487.207 173.567 487.058 173.063 486.759 172.68C486.46 172.288 486.068 172.092 485.583 172.092C485.228 172.092 484.902 172.195 484.603 172.4C484.304 172.605 484.066 172.881 483.889 173.226C483.721 173.571 483.637 173.949 483.637 174.36V178.098H482.181V167.794H483.637V171.938C483.852 171.602 484.141 171.341 484.505 171.154C484.869 170.958 485.233 170.86 485.597 170.86C486.185 170.86 486.712 170.995 487.179 171.266C487.646 171.527 488.01 171.901 488.271 172.386C488.532 172.862 488.663 173.408 488.663 174.024V178.098H487.207V174.192ZM492.001 170.818V178.098H490.545V170.818H492.001ZM490.447 168.438C490.447 168.195 490.522 167.999 490.671 167.85C490.83 167.691 491.031 167.612 491.273 167.612C491.516 167.612 491.712 167.691 491.861 167.85C492.02 167.999 492.099 168.195 492.099 168.438C492.099 168.671 492.02 168.867 491.861 169.026C491.712 169.185 491.516 169.264 491.273 169.264C491.031 169.264 490.83 169.189 490.671 169.04C490.522 168.881 490.447 168.681 490.447 168.438ZM497.655 176.964C498.28 176.964 498.789 176.735 499.181 176.278C499.573 175.811 499.769 175.205 499.769 174.458C499.769 173.721 499.573 173.123 499.181 172.666C498.789 172.209 498.28 171.98 497.655 171.98C497.263 171.98 496.899 172.092 496.563 172.316C496.227 172.54 495.961 172.843 495.765 173.226C495.569 173.599 495.471 174.01 495.471 174.458C495.471 174.915 495.569 175.335 495.765 175.718C495.961 176.101 496.227 176.404 496.563 176.628C496.899 176.852 497.263 176.964 497.655 176.964ZM494.001 170.776H495.457V172.036C495.709 171.616 496.059 171.303 496.507 171.098C496.955 170.883 497.365 170.776 497.739 170.776C498.42 170.776 499.022 170.935 499.545 171.252C500.077 171.56 500.487 171.994 500.777 172.554C501.075 173.105 501.225 173.739 501.225 174.458C501.225 175.177 501.075 175.821 500.777 176.39C500.487 176.95 500.077 177.389 499.545 177.706C499.022 178.014 498.42 178.168 497.739 178.168C497.365 178.168 496.955 178.061 496.507 177.846C496.059 177.622 495.709 177.3 495.457 176.88V181.234H494.001V170.776Z" fill="#121212"/>
<rect x="522.5" y="158.5" width="55" height="29" rx="14.5" fill="white"/>
<rect x="522.5" y="158.5" width="55" height="29" rx="14.5" stroke="#6B6B6B"/>
<path d="M540.887 178.21C539.898 178.21 539.016 177.986 538.241 177.538C537.476 177.09 536.874 176.469 536.435 175.676C536.006 174.873 535.791 173.963 535.791 172.946C535.791 171.929 536.006 171.023 536.435 170.23C536.864 169.427 537.462 168.802 538.227 168.354C539.002 167.906 539.879 167.682 540.859 167.682C541.559 167.682 542.217 167.817 542.833 168.088C543.458 168.359 544.004 168.737 544.471 169.222L543.519 170.16C543.211 169.787 542.819 169.493 542.343 169.278C541.876 169.063 541.386 168.956 540.873 168.956C540.164 168.956 539.534 169.124 538.983 169.46C538.442 169.787 538.017 170.253 537.709 170.86C537.41 171.457 537.261 172.153 537.261 172.946C537.261 173.73 537.41 174.425 537.709 175.032C538.017 175.629 538.442 176.096 538.983 176.432C539.534 176.768 540.164 176.936 540.873 176.936C541.405 176.936 541.89 176.833 542.329 176.628C542.777 176.413 543.155 176.129 543.463 175.774L544.471 176.67C543.995 177.165 543.454 177.547 542.847 177.818C542.25 178.089 541.596 178.219 540.887 178.21ZM551.207 174.192C551.207 173.567 551.058 173.063 550.759 172.68C550.46 172.288 550.068 172.092 549.583 172.092C549.228 172.092 548.902 172.195 548.603 172.4C548.304 172.605 548.066 172.881 547.889 173.226C547.721 173.571 547.637 173.949 547.637 174.36V178.098H546.181V167.794H547.637V171.938C547.852 171.602 548.141 171.341 548.505 171.154C548.869 170.958 549.233 170.86 549.597 170.86C550.185 170.86 550.712 170.995 551.179 171.266C551.646 171.527 552.01 171.901 552.271 172.386C552.532 172.862 552.663 173.408 552.663 174.024V178.098H551.207V174.192ZM556.001 170.818V178.098H554.545V170.818H556.001ZM554.447 168.438C554.447 168.195 554.522 167.999 554.671 167.85C554.83 167.691 555.031 167.612 555.273 167.612C555.516 167.612 555.712 167.691 555.861 167.85C556.02 167.999 556.099 168.195 556.099 168.438C556.099 168.671 556.02 168.867 555.861 169.026C555.712 169.185 555.516 169.264 555.273 169.264C555.031 169.264 554.83 169.189 554.671 169.04C554.522 168.881 554.447 168.681 554.447 168.438ZM561.655 176.964C562.28 176.964 562.789 176.735 563.181 176.278C563.573 175.811 563.769 175.205 563.769 174.458C563.769 173.721 563.573 173.123 563.181 172.666C562.789 172.209 562.28 171.98 561.655 171.98C561.263 171.98 560.899 172.092 560.563 172.316C560.227 172.54 559.961 172.843 559.765 173.226C559.569 173.599 559.471 174.01 559.471 174.458C559.471 174.915 559.569 175.335 559.765 175.718C559.961 176.101 560.227 176.404 560.563 176.628C560.899 176.852 561.263 176.964 561.655 176.964ZM558.001 170.776H559.457V172.036C559.709 171.616 560.059 171.303 560.507 171.098C560.955 170.883 561.365 170.776 561.739 170.776C562.42 170.776 563.022 170.935 563.545 171.252C564.077 171.56 564.487 171.994 564.777 172.554C565.075 173.105 565.225 173.739 565.225 174.458C565.225 175.177 565.075 175.821 564.777 176.39C564.487 176.95 564.077 177.389 563.545 177.706C563.022 178.014 562.42 178.168 561.739 178.168C561.365 178.168 560.955 178.061 560.507 177.846C560.059 177.622 559.709 177.3 559.457 176.88V181.234H558.001V170.776Z" fill="#121212"/>
<rect x="362.5" y="196.5" width="55" height="29" rx="14.5" fill="white"/>
<rect x="362.5" y="196.5" width="55" height="29" rx="14.5" stroke="#6B6B6B"/>
<path d="M380.887 216.21C379.898 216.21 379.016 215.986 378.241 215.538C377.476 215.09 376.874 214.469 376.435 213.676C376.006 212.873 375.791 211.963 375.791 210.946C375.791 209.929 376.006 209.023 376.435 208.23C376.864 207.427 377.462 206.802 378.227 206.354C379.002 205.906 379.879 205.682 380.859 205.682C381.559 205.682 382.217 205.817 382.833 206.088C383.458 206.359 384.004 206.737 384.471 207.222L383.519 208.16C383.211 207.787 382.819 207.493 382.343 207.278C381.876 207.063 381.386 206.956 380.873 206.956C380.164 206.956 379.534 207.124 378.983 207.46C378.442 207.787 378.017 208.253 377.709 208.86C377.41 209.457 377.261 210.153 377.261 210.946C377.261 211.73 377.41 212.425 377.709 213.032C378.017 213.629 378.442 214.096 378.983 214.432C379.534 214.768 380.164 214.936 380.873 214.936C381.405 214.936 381.89 214.833 382.329 214.628C382.777 214.413 383.155 214.129 383.463 213.774L384.471 214.67C383.995 215.165 383.454 215.547 382.847 215.818C382.25 216.089 381.596 216.219 380.887 216.21ZM391.207 212.192C391.207 211.567 391.058 211.063 390.759 210.68C390.46 210.288 390.068 210.092 389.583 210.092C389.228 210.092 388.902 210.195 388.603 210.4C388.304 210.605 388.066 210.881 387.889 211.226C387.721 211.571 387.637 211.949 387.637 212.36V216.098H386.181V205.794H387.637V209.938C387.852 209.602 388.141 209.341 388.505 209.154C388.869 208.958 389.233 208.86 389.597 208.86C390.185 208.86 390.712 208.995 391.179 209.266C391.646 209.527 392.01 209.901 392.271 210.386C392.532 210.862 392.663 211.408 392.663 212.024V216.098H391.207V212.192ZM396.001 208.818V216.098H394.545V208.818H396.001ZM394.447 206.438C394.447 206.195 394.522 205.999 394.671 205.85C394.83 205.691 395.031 205.612 395.273 205.612C395.516 205.612 395.712 205.691 395.861 205.85C396.02 205.999 396.099 206.195 396.099 206.438C396.099 206.671 396.02 206.867 395.861 207.026C395.712 207.185 395.516 207.264 395.273 207.264C395.031 207.264 394.83 207.189 394.671 207.04C394.522 206.881 394.447 206.681 394.447 206.438ZM401.655 214.964C402.28 214.964 402.789 214.735 403.181 214.278C403.573 213.811 403.769 213.205 403.769 212.458C403.769 211.721 403.573 211.123 403.181 210.666C402.789 210.209 402.28 209.98 401.655 209.98C401.263 209.98 400.899 210.092 400.563 210.316C400.227 210.54 399.961 210.843 399.765 211.226C399.569 211.599 399.471 212.01 399.471 212.458C399.471 212.915 399.569 213.335 399.765 213.718C399.961 214.101 400.227 214.404 400.563 214.628C400.899 214.852 401.263 214.964 401.655 214.964ZM398.001 208.776H399.457V210.036C399.709 209.616 400.059 209.303 400.507 209.098C400.955 208.883 401.365 208.776 401.739 208.776C402.42 208.776 403.022 208.935 403.545 209.252C404.077 209.56 404.487 209.994 404.777 210.554C405.075 211.105 405.225 211.739 405.225 212.458C405.225 213.177 405.075 213.821 404.777 214.39C404.487 214.95 404.077 215.389 403.545 215.706C403.022 216.014 402.42 216.168 401.739 216.168C401.365 216.168 400.955 216.061 400.507 215.846C400.059 215.622 399.709 215.3 399.457 214.88V219.234H398.001V208.776Z" fill="#121212"/>
<rect x="426.5" y="196.5" width="55" height="29" rx="14.5" fill="white"/>
<rect x="426.5" y="196.5" width="55" height="29" rx="14.5" stroke="#6B6B6B"/>
<path d="M444.887 216.21C443.898 216.21 443.016 215.986 442.241 215.538C441.476 215.09 440.874 214.469 440.435 213.676C440.006 212.873 439.791 211.963 439.791 210.946C439.791 209.929 440.006 209.023 440.435 208.23C440.864 207.427 441.462 206.802 442.227 206.354C443.002 205.906 443.879 205.682 444.859 205.682C445.559 205.682 446.217 205.817 446.833 206.088C447.458 206.359 448.004 206.737 448.471 207.222L447.519 208.16C447.211 207.787 446.819 207.493 446.343 207.278C445.876 207.063 445.386 206.956 444.873 206.956C444.164 206.956 443.534 207.124 442.983 207.46C442.442 207.787 442.017 208.253 441.709 208.86C441.41 209.457 441.261 210.153 441.261 210.946C441.261 211.73 441.41 212.425 441.709 213.032C442.017 213.629 442.442 214.096 442.983 214.432C443.534 214.768 444.164 214.936 444.873 214.936C445.405 214.936 445.89 214.833 446.329 214.628C446.777 214.413 447.155 214.129 447.463 213.774L448.471 214.67C447.995 215.165 447.454 215.547 446.847 215.818C446.25 216.089 445.596 216.219 444.887 216.21ZM455.207 212.192C455.207 211.567 455.058 211.063 454.759 210.68C454.46 210.288 454.068 210.092 453.583 210.092C453.228 210.092 452.902 210.195 452.603 210.4C452.304 210.605 452.066 210.881 451.889 211.226C451.721 211.571 451.637 211.949 451.637 212.36V216.098H450.181V205.794H451.637V209.938C451.852 209.602 452.141 209.341 452.505 209.154C452.869 208.958 453.233 208.86 453.597 208.86C454.185 208.86 454.712 208.995 455.179 209.266C455.646 209.527 456.01 209.901 456.271 210.386C456.532 210.862 456.663 211.408 456.663 212.024V216.098H455.207V212.192ZM460.001 208.818V216.098H458.545V208.818H460.001ZM458.447 206.438C458.447 206.195 458.522 205.999 458.671 205.85C458.83 205.691 459.031 205.612 459.273 205.612C459.516 205.612 459.712 205.691 459.861 205.85C460.02 205.999 460.099 206.195 460.099 206.438C460.099 206.671 460.02 206.867 459.861 207.026C459.712 207.185 459.516 207.264 459.273 207.264C459.031 207.264 458.83 207.189 458.671 207.04C458.522 206.881 458.447 206.681 458.447 206.438ZM465.655 214.964C466.28 214.964 466.789 214.735 467.181 214.278C467.573 213.811 467.769 213.205 467.769 212.458C467.769 211.721 467.573 211.123 467.181 210.666C466.789 210.209 466.28 209.98 465.655 209.98C465.263 209.98 464.899 210.092 464.563 210.316C464.227 210.54 463.961 210.843 463.765 211.226C463.569 211.599 463.471 212.01 463.471 212.458C463.471 212.915 463.569 213.335 463.765 213.718C463.961 214.101 464.227 214.404 464.563 214.628C464.899 214.852 465.263 214.964 465.655 214.964ZM462.001 208.776H463.457V210.036C463.709 209.616 464.059 209.303 464.507 209.098C464.955 208.883 465.365 208.776 465.739 208.776C466.42 208.776 467.022 208.935 467.545 209.252C468.077 209.56 468.487 209.994 468.777 210.554C469.075 211.105 469.225 211.739 469.225 212.458C469.225 213.177 469.075 213.821 468.777 214.39C468.487 214.95 468.077 215.389 467.545 215.706C467.022 216.014 466.42 216.168 465.739 216.168C465.365 216.168 464.955 216.061 464.507 215.846C464.059 215.622 463.709 215.3 463.457 214.88V219.234H462.001V208.776Z" fill="#121212"/>
<rect x="490.5" y="196.5" width="55" height="29" rx="14.5" fill="white"/>
<rect x="490.5" y="196.5" width="55" height="29" rx="14.5" stroke="#6B6B6B"/>
<path d="M508.887 216.21C507.898 216.21 507.016 215.986 506.241 215.538C505.476 215.09 504.874 214.469 504.435 213.676C504.006 212.873 503.791 211.963 503.791 210.946C503.791 209.929 504.006 209.023 504.435 208.23C504.864 207.427 505.462 206.802 506.227 206.354C507.002 205.906 507.879 205.682 508.859 205.682C509.559 205.682 510.217 205.817 510.833 206.088C511.458 206.359 512.004 206.737 512.471 207.222L511.519 208.16C511.211 207.787 510.819 207.493 510.343 207.278C509.876 207.063 509.386 206.956 508.873 206.956C508.164 206.956 507.534 207.124 506.983 207.46C506.442 207.787 506.017 208.253 505.709 208.86C505.41 209.457 505.261 210.153 505.261 210.946C505.261 211.73 505.41 212.425 505.709 213.032C506.017 213.629 506.442 214.096 506.983 214.432C507.534 214.768 508.164 214.936 508.873 214.936C509.405 214.936 509.89 214.833 510.329 214.628C510.777 214.413 511.155 214.129 511.463 213.774L512.471 214.67C511.995 215.165 511.454 215.547 510.847 215.818C510.25 216.089 509.596 216.219 508.887 216.21ZM519.207 212.192C519.207 211.567 519.058 211.063 518.759 210.68C518.46 210.288 518.068 210.092 517.583 210.092C517.228 210.092 516.902 210.195 516.603 210.4C516.304 210.605 516.066 210.881 515.889 211.226C515.721 211.571 515.637 211.949 515.637 212.36V216.098H514.181V205.794H515.637V209.938C515.852 209.602 516.141 209.341 516.505 209.154C516.869 208.958 517.233 208.86 517.597 208.86C518.185 208.86 518.712 208.995 519.179 209.266C519.646 209.527 520.01 209.901 520.271 210.386C520.532 210.862 520.663 211.408 520.663 212.024V216.098H519.207V212.192ZM524.001 208.818V216.098H522.545V208.818H524.001ZM522.447 206.438C522.447 206.195 522.522 205.999 522.671 205.85C522.83 205.691 523.031 205.612 523.273 205.612C523.516 205.612 523.712 205.691 523.861 205.85C524.02 205.999 524.099 206.195 524.099 206.438C524.099 206.671 524.02 206.867 523.861 207.026C523.712 207.185 523.516 207.264 523.273 207.264C523.031 207.264 522.83 207.189 522.671 207.04C522.522 206.881 522.447 206.681 522.447 206.438ZM529.655 214.964C530.28 214.964 530.789 214.735 531.181 214.278C531.573 213.811 531.769 213.205 531.769 212.458C531.769 211.721 531.573 211.123 531.181 210.666C530.789 210.209 530.28 209.98 529.655 209.98C529.263 209.98 528.899 210.092 528.563 210.316C528.227 210.54 527.961 210.843 527.765 211.226C527.569 211.599 527.471 212.01 527.471 212.458C527.471 212.915 527.569 213.335 527.765 213.718C527.961 214.101 528.227 214.404 528.563 214.628C528.899 214.852 529.263 214.964 529.655 214.964ZM526.001 208.776H527.457V210.036C527.709 209.616 528.059 209.303 528.507 209.098C528.955 208.883 529.365 208.776 529.739 208.776C530.42 208.776 531.022 208.935 531.545 209.252C532.077 209.56 532.487 209.994 532.777 210.554C533.075 211.105 533.225 211.739 533.225 212.458C533.225 213.177 533.075 213.821 532.777 214.39C532.487 214.95 532.077 215.389 531.545 215.706C531.022 216.014 530.42 216.168 529.739 216.168C529.365 216.168 528.955 216.061 528.507 215.846C528.059 215.622 527.709 215.3 527.457 214.88V219.234H526.001V208.776Z" fill="#121212"/>
<rect x="386" y="158" width="8" height="30" fill="#FF0000" fill-opacity="0.1"/>
<rect x="418" y="196" width="8" height="30" fill="#FF0000" fill-opacity="0.1"/>
<rect x="450" y="158" width="8" height="30" fill="#FF0000" fill-opacity="0.1"/>
<rect x="482" y="196" width="8" height="30" fill="#FF0000" fill-opacity="0.1"/>
<rect x="514" y="158" width="8" height="30" fill="#FF0000" fill-opacity="0.1"/>
<rect x="578" y="188" width="8.00001" height="248" transform="rotate(90 578 188)" fill="#FF0000" fill-opacity="0.1"/>
<path d="M590.672 195.964C591.26 195.964 591.736 195.796 592.1 195.46C592.473 195.115 592.66 194.671 592.66 194.13C592.66 193.589 592.473 193.15 592.1 192.814C591.736 192.469 591.26 192.296 590.672 192.296C590.075 192.296 589.589 192.469 589.216 192.814C588.843 193.15 588.656 193.589 588.656 194.13C588.656 194.671 588.843 195.115 589.216 195.46C589.589 195.796 590.075 195.964 590.672 195.964ZM587.2 194.158C587.2 193.701 587.359 193.243 587.676 192.786C587.993 192.319 588.399 191.951 588.894 191.68C588.483 191.4 588.147 191.055 587.886 190.644C587.625 190.233 587.494 189.846 587.494 189.482C587.494 188.941 587.629 188.46 587.9 188.04C588.171 187.611 588.544 187.279 589.02 187.046C589.505 186.803 590.056 186.682 590.672 186.682C591.288 186.682 591.834 186.803 592.31 187.046C592.795 187.279 593.173 187.611 593.444 188.04C593.715 188.46 593.85 188.941 593.85 189.482C593.85 189.855 593.719 190.247 593.458 190.658C593.197 191.069 592.861 191.409 592.45 191.68C592.945 191.96 593.346 192.329 593.654 192.786C593.962 193.243 594.116 193.701 594.116 194.158C594.116 194.746 593.971 195.273 593.682 195.74C593.393 196.197 592.987 196.557 592.464 196.818C591.941 197.07 591.344 197.196 590.672 197.196C590 197.196 589.398 197.07 588.866 196.818C588.343 196.557 587.933 196.197 587.634 195.74C587.345 195.273 587.2 194.746 587.2 194.158ZM588.95 189.482C588.95 189.949 589.109 190.327 589.426 190.616C589.743 190.905 590.159 191.05 590.672 191.05C591.176 191.05 591.587 190.905 591.904 190.616C592.231 190.317 592.394 189.939 592.394 189.482C592.394 189.025 592.231 188.651 591.904 188.362C591.587 188.063 591.176 187.914 590.672 187.914C590.159 187.914 589.743 188.059 589.426 188.348C589.109 188.637 588.95 189.015 588.95 189.482ZM599.433 195.964C600.058 195.964 600.567 195.735 600.959 195.278C601.351 194.811 601.547 194.205 601.547 193.458C601.547 192.721 601.351 192.123 600.959 191.666C600.567 191.209 600.058 190.98 599.433 190.98C599.041 190.98 598.677 191.092 598.341 191.316C598.005 191.54 597.739 191.843 597.543 192.226C597.347 192.599 597.249 193.01 597.249 193.458C597.249 193.915 597.347 194.335 597.543 194.718C597.739 195.101 598.005 195.404 598.341 195.628C598.677 195.852 599.041 195.964 599.433 195.964ZM595.779 189.776H597.235V191.036C597.487 190.616 597.837 190.303 598.285 190.098C598.733 189.883 599.144 189.776 599.517 189.776C600.198 189.776 600.8 189.935 601.323 190.252C601.855 190.56 602.266 190.994 602.555 191.554C602.854 192.105 603.003 192.739 603.003 193.458C603.003 194.177 602.854 194.821 602.555 195.39C602.266 195.95 601.855 196.389 601.323 196.706C600.8 197.014 600.198 197.168 599.517 197.168C599.144 197.168 598.733 197.061 598.285 196.846C597.837 196.622 597.487 196.3 597.235 195.88V200.234H595.779V189.776ZM608.146 193.444L610.848 197.098H609.042L607.292 194.62L605.556 197.098H603.75L606.41 193.444L603.694 189.776H605.514L607.292 192.324L609.056 189.776H610.876L608.146 193.444Z" fill="#6B6B6B"/>
<path d="M578.5 188L578.5 196" stroke="#6B6B6B" stroke-width="1.2"/>
</svg>
