<svg width="220" height="60" viewBox="0 0 220 60" fill="none" xmlns="http://www.w3.org/2000/svg">
<rect width="220" height="60" fill="#F7F7F7"/>
<rect x="20.5" y="20.5" width="19" height="19" rx="3.5" fill="#EBF4FE"/>
<rect x="20.5" y="20.5" width="19" height="19" rx="3.5" stroke="#368FF7"/>
<path d="M36 26L28 33L24 29.5" stroke="#368FF7" stroke-width="1.4" stroke-linejoin="bevel"/>
<rect x="52.5" y="20.5" width="19" height="19" rx="3.5" fill="#EBF4FE"/>
<rect x="52.5" y="20.5" width="19" height="19" rx="3.5" stroke="#5EA5F9"/>
<path d="M68 26L60 33L56 29.5" stroke="#5EA5F9" stroke-width="1.4" stroke-linejoin="bevel"/>
<rect x="84.5" y="20.5" width="19" height="19" rx="3.5" fill="#E1E1E1"/>
<rect x="84.5" y="20.5" width="19" height="19" rx="3.5" stroke="#C2C2C2"/>
<path d="M100 26L92 33L88 29.5" stroke="#C2C2C2" stroke-width="1.4" stroke-linejoin="bevel"/>
<rect x="116.5" y="20.5" width="19" height="19" rx="3.5" fill="white"/>
<rect x="116.5" y="20.5" width="19" height="19" rx="3.5" stroke="#C2C2C2"/>
<rect x="148.5" y="20.5" width="19" height="19" rx="3.5" fill="#EBF4FE"/>
<rect x="148.5" y="20.5" width="19" height="19" rx="3.5" stroke="#5EA5F9"/>
<rect x="180.5" y="20.5" width="19" height="19" rx="3.5" fill="#E1E1E1"/>
<rect x="180.5" y="20.5" width="19" height="19" rx="3.5" stroke="#C2C2C2"/>
</svg>
