<svg width="379" height="90" viewBox="0 0 379 90" fill="none" xmlns="http://www.w3.org/2000/svg">
<rect x="142.5" y="56.5" width="19" height="19" rx="3.5" fill="#EBF4FE"/>
<rect x="142.5" y="56.5" width="19" height="19" rx="3.5" stroke="#368FF7"/>
<path d="M158 62L150 69L146 65.5" stroke="#368FF7" stroke-width="1.4" stroke-linejoin="bevel"/>
<path d="M182.496 66.96C182.496 68.0373 182.261 68.9653 181.792 69.744C181.323 70.5227 180.672 71.12 179.84 71.536C179.019 71.952 178.08 72.1707 177.024 72.192C175.915 72.192 174.917 71.9413 174.032 71.44C173.157 70.928 172.475 70.2187 171.984 69.312C171.493 68.4053 171.248 67.376 171.248 66.224C171.248 65.072 171.493 64.048 171.984 63.152C172.475 62.2453 173.157 61.5413 174.032 61.04C174.917 60.528 175.915 60.272 177.024 60.272C178.208 60.272 179.216 60.544 180.048 61.088C180.891 61.632 181.515 62.2987 181.92 63.088L180.704 63.68C180.405 63.0827 179.941 62.576 179.312 62.16C178.683 61.7333 177.92 61.52 177.024 61.52C176.171 61.52 175.413 61.7173 174.752 62.112C174.091 62.5067 173.573 63.0613 173.2 63.776C172.837 64.4907 172.656 65.3067 172.656 66.224C172.656 67.1413 172.837 67.9627 173.2 68.688C173.573 69.4027 174.091 69.9573 174.752 70.352C175.413 70.7467 176.171 70.944 177.024 70.944C178.261 70.9013 179.253 70.5653 180 69.936C180.757 69.296 181.136 68.3787 181.136 67.184H177.216V65.984H182.512L182.496 66.96ZM188.223 70.816C189.087 70.816 189.855 70.624 190.527 70.24C191.21 69.8453 191.738 69.3013 192.111 68.608C192.485 67.9147 192.671 67.12 192.671 66.224C192.671 65.328 192.485 64.5333 192.111 63.84C191.738 63.1467 191.21 62.608 190.527 62.224C189.855 61.8293 189.087 61.632 188.223 61.632H185.967V70.816H188.223ZM184.559 60.384H188.239C189.359 60.384 190.357 60.6347 191.231 61.136C192.117 61.6267 192.805 62.3147 193.295 63.2C193.797 64.0853 194.047 65.0933 194.047 66.224C194.047 67.3547 193.797 68.3627 193.295 69.248C192.805 70.1333 192.117 70.8267 191.231 71.328C190.357 71.8187 189.359 72.064 188.239 72.064H184.559V60.384ZM196.628 68.88C196.959 69.5093 197.396 70.016 197.94 70.4C198.495 70.7733 199.065 70.96 199.652 70.96C200.42 70.96 201.044 70.7787 201.524 70.416C202.015 70.0427 202.26 69.5573 202.26 68.96C202.26 68.544 202.137 68.1973 201.892 67.92C201.647 67.6427 201.343 67.4187 200.98 67.248C200.628 67.0773 200.137 66.88 199.508 66.656C198.74 66.3893 198.121 66.1387 197.652 65.904C197.193 65.6693 196.799 65.3333 196.468 64.896C196.137 64.4587 195.972 63.8987 195.972 63.216C195.972 62.608 196.137 62.08 196.468 61.632C196.809 61.184 197.268 60.8427 197.844 60.608C198.42 60.3733 199.06 60.256 199.764 60.256C200.607 60.256 201.364 60.48 202.036 60.928C202.708 61.376 203.183 62.016 203.46 62.848L202.196 63.296C202.025 62.7413 201.711 62.304 201.252 61.984C200.804 61.664 200.319 61.4987 199.796 61.488C199.103 61.488 198.521 61.648 198.052 61.968C197.593 62.2773 197.364 62.6933 197.364 63.216C197.364 63.6213 197.487 63.9627 197.732 64.24C197.977 64.5173 198.276 64.7467 198.628 64.928C198.991 65.0987 199.487 65.296 200.116 65.52C200.884 65.7973 201.503 66.0587 201.972 66.304C202.441 66.5387 202.841 66.8747 203.172 67.312C203.503 67.7387 203.668 68.2933 203.668 68.976C203.668 69.6053 203.497 70.1653 203.156 70.656C202.825 71.1467 202.356 71.5253 201.748 71.792C201.14 72.0587 200.447 72.192 199.668 72.192C198.793 72.192 197.993 71.9627 197.268 71.504C196.543 71.0347 195.935 70.3733 195.444 69.52L196.628 68.88ZM210.855 72.192C209.746 72.192 208.754 71.9413 207.879 71.44C207.004 70.928 206.322 70.2187 205.831 69.312C205.34 68.4053 205.095 67.376 205.095 66.224C205.095 65.072 205.34 64.0427 205.831 63.136C206.322 62.2293 207.004 61.5253 207.879 61.024C208.754 60.512 209.746 60.256 210.855 60.256C211.634 60.256 212.375 60.4107 213.079 60.72C213.783 61.0293 214.396 61.456 214.919 62L213.991 62.864C213.607 62.4373 213.138 62.1067 212.583 61.872C212.039 61.6267 211.463 61.504 210.855 61.504C210.012 61.504 209.26 61.7013 208.599 62.096C207.948 62.4907 207.436 63.0507 207.063 63.776C206.7 64.4907 206.519 65.3067 206.519 66.224C206.519 67.1413 206.7 67.9627 207.063 68.688C207.436 69.4027 207.948 69.9573 208.599 70.352C209.26 70.7467 210.012 70.944 210.855 70.944C211.463 70.944 212.034 70.8267 212.567 70.592C213.1 70.3467 213.559 70.016 213.943 69.6L214.919 70.448C214.386 70.992 213.772 71.4187 213.079 71.728C212.386 72.0373 211.644 72.192 210.855 72.192ZM230.548 59.088V64.752H232.724V65.968H230.548V73.216H229.06V59.088H230.548ZM219.668 69.472C223.198 67.68 225.108 65.12 225.396 61.792H220.356V60.608H226.868C226.868 62.7413 226.356 64.6613 225.332 66.368C224.308 68.0747 222.692 69.4827 220.484 70.592L219.668 69.472ZM245.028 59.088V73.248H243.572V59.088H245.028ZM233.94 65.12C233.94 64.128 234.095 63.2587 234.404 62.512C234.713 61.7653 235.14 61.1893 235.684 60.784C236.228 60.3787 236.852 60.176 237.556 60.176C238.249 60.176 238.868 60.3787 239.412 60.784C239.967 61.1893 240.399 61.7653 240.708 62.512C241.017 63.2587 241.172 64.128 241.172 65.12C241.172 66.112 241.017 66.9867 240.708 67.744C240.399 68.4907 239.967 69.0667 239.412 69.472C238.868 69.8773 238.249 70.08 237.556 70.08C236.852 70.08 236.228 69.8773 235.684 69.472C235.14 69.0667 234.713 68.4907 234.404 67.744C234.095 66.9867 233.94 66.112 233.94 65.12ZM235.348 65.12C235.348 65.856 235.439 66.5013 235.62 67.056C235.812 67.6 236.073 68.0213 236.404 68.32C236.745 68.6187 237.129 68.768 237.556 68.768C237.983 68.768 238.361 68.6187 238.692 68.32C239.033 68.0213 239.295 67.6 239.476 67.056C239.668 66.5013 239.764 65.856 239.764 65.12C239.764 64.384 239.668 63.744 239.476 63.2C239.295 62.6453 239.033 62.224 238.692 61.936C238.361 61.6373 237.983 61.488 237.556 61.488C237.129 61.488 236.745 61.6373 236.404 61.936C236.073 62.224 235.812 62.6453 235.62 63.2C235.439 63.744 235.348 64.384 235.348 65.12ZM258.484 60.368V61.568H250.324V65.808H258.628V66.992H248.884V60.368H258.484ZM247.284 70.144H260.068V71.344H247.284V70.144ZM272.021 59.088V64.64H274.261V65.872H272.021V73.248H270.581V59.088H272.021ZM261.669 60.4H268.069V65.552H263.157V68.656C264.458 68.6453 265.584 68.608 266.533 68.544C267.482 68.4693 268.442 68.3467 269.413 68.176L269.541 69.36C268.496 69.552 267.461 69.6853 266.437 69.76C265.413 69.8347 264.213 69.872 262.837 69.872H261.701V64.368H266.629V61.584H261.669V60.4ZM286.533 59.12V69.376H285.061V59.12H286.533ZM275.221 63.584C275.221 62.912 275.381 62.3093 275.701 61.776C276.032 61.2427 276.48 60.8267 277.045 60.528C277.611 60.2293 278.24 60.08 278.933 60.08C279.627 60.08 280.256 60.2293 280.821 60.528C281.387 60.8267 281.829 61.2427 282.149 61.776C282.48 62.3093 282.645 62.912 282.645 63.584C282.645 64.2453 282.48 64.8427 282.149 65.376C281.829 65.9093 281.387 66.3253 280.821 66.624C280.256 66.9227 279.627 67.072 278.933 67.072C278.24 67.072 277.611 66.9227 277.045 66.624C276.48 66.3253 276.032 65.9093 275.701 65.376C275.381 64.8427 275.221 64.2453 275.221 63.584ZM276.645 63.584C276.645 64.2347 276.864 64.768 277.301 65.184C277.739 65.5893 278.283 65.792 278.933 65.792C279.595 65.792 280.144 65.5893 280.581 65.184C281.019 64.768 281.237 64.2347 281.237 63.584C281.237 62.9227 281.019 62.384 280.581 61.968C280.144 61.552 279.595 61.344 278.933 61.344C278.272 61.344 277.723 61.552 277.285 61.968C276.859 62.384 276.645 62.9227 276.645 63.584ZM277.397 68.336H278.853V71.728H286.949V72.928H277.397V68.336ZM300.774 59.104V73.216H299.382V59.104H300.774ZM288.918 65.2C288.918 64.1973 289.04 63.3227 289.286 62.576C289.531 61.8187 289.878 61.2427 290.326 60.848C290.784 60.4427 291.318 60.24 291.926 60.24C292.779 60.24 293.472 60.624 294.006 61.392C294.55 62.16 294.859 63.2053 294.934 64.528H296.55V59.408H297.926V72.528H296.55V65.728H294.934C294.87 67.104 294.566 68.192 294.022 68.992C293.488 69.7813 292.79 70.176 291.926 70.176C291.318 70.176 290.784 69.9733 290.326 69.568C289.878 69.1627 289.531 68.5867 289.286 67.84C289.04 67.0933 288.918 66.2133 288.918 65.2ZM290.246 65.2C290.246 66.3307 290.395 67.216 290.694 67.856C290.992 68.4853 291.403 68.8 291.926 68.8C292.459 68.8 292.875 68.4853 293.174 67.856C293.472 67.216 293.622 66.3307 293.622 65.2C293.622 64.08 293.472 63.2053 293.174 62.576C292.875 61.936 292.459 61.616 291.926 61.616C291.403 61.616 290.992 61.936 290.694 62.576C290.395 63.2053 290.246 64.08 290.246 65.2ZM311.758 66V64.496H307.726V59.76H317.294V60.928H309.166V63.312H317.39V64.496H313.214V66H318.878V67.184H306.126V66H311.758ZM307.63 70.672C307.63 69.8613 308.056 69.232 308.91 68.784C309.763 68.336 310.952 68.112 312.478 68.112C313.992 68.112 315.176 68.336 316.03 68.784C316.894 69.232 317.326 69.8613 317.326 70.672C317.326 71.4827 316.894 72.1067 316.03 72.544C315.176 72.992 313.992 73.216 312.478 73.216C310.952 73.216 309.763 72.992 308.91 72.544C308.056 72.1067 307.63 71.4827 307.63 70.672ZM309.102 70.672C309.102 71.1307 309.395 71.4827 309.982 71.728C310.568 71.9733 311.4 72.096 312.478 72.096C313.544 72.096 314.371 71.9733 314.958 71.728C315.544 71.4827 315.838 71.1307 315.838 70.672C315.838 70.2133 315.544 69.8613 314.958 69.616C314.371 69.3707 313.544 69.248 312.478 69.248C311.411 69.248 310.579 69.3707 309.982 69.616C309.395 69.8613 309.102 70.2133 309.102 70.672ZM324.494 60.112C325.219 60.112 325.87 60.256 326.446 60.544C327.022 60.832 327.47 61.232 327.79 61.744C328.121 62.2453 328.286 62.8213 328.286 63.472C328.286 64.1227 328.121 64.704 327.79 65.216C327.47 65.728 327.022 66.128 326.446 66.416C325.87 66.6933 325.219 66.832 324.494 66.832C323.758 66.832 323.097 66.6933 322.51 66.416C321.934 66.128 321.481 65.728 321.15 65.216C320.83 64.704 320.67 64.1227 320.67 63.472C320.67 62.8213 320.83 62.2453 321.15 61.744C321.481 61.232 321.934 60.832 322.51 60.544C323.097 60.256 323.758 60.112 324.494 60.112ZM319.998 68.992C321.79 68.992 323.422 68.9653 324.894 68.912C326.377 68.848 327.79 68.7147 329.134 68.512L329.246 69.584C327.859 69.8507 326.441 70.0213 324.99 70.096C323.55 70.1707 321.945 70.208 320.174 70.208L319.998 68.992ZM322.094 63.472C322.094 64.0907 322.318 64.5973 322.766 64.992C323.225 65.376 323.801 65.568 324.494 65.568C325.177 65.568 325.742 65.376 326.19 64.992C326.638 64.5973 326.862 64.0907 326.862 63.472C326.862 62.8533 326.638 62.352 326.19 61.968C325.742 61.5733 325.177 61.376 324.494 61.376C323.801 61.376 323.225 61.568 322.766 61.952C322.318 62.336 322.094 62.8427 322.094 63.472ZM330.014 59.088H331.486V73.248H330.014V59.088ZM344.75 59.12V62.656H346.782V63.888H344.75V67.328H343.278V59.12H344.75ZM333.79 60.512H337.23V58.976H338.686V60.512H342.126V61.68H333.79V60.512ZM334.558 64.736C334.558 63.9893 334.868 63.392 335.486 62.944C336.116 62.4853 336.937 62.256 337.95 62.256C338.974 62.256 339.796 62.4853 340.414 62.944C341.044 63.392 341.358 63.9893 341.358 64.736C341.358 65.4827 341.044 66.0853 340.414 66.544C339.785 67.0027 338.964 67.232 337.95 67.232C337.289 67.232 336.697 67.1307 336.174 66.928C335.662 66.7147 335.262 66.4213 334.974 66.048C334.697 65.664 334.558 65.2267 334.558 64.736ZM335.806 67.936H337.246V69.328H343.31V67.936H344.75V73.04H335.806V67.936ZM335.95 64.736C335.95 65.1627 336.132 65.504 336.494 65.76C336.868 66.016 337.353 66.144 337.95 66.144C338.548 66.144 339.028 66.016 339.39 65.76C339.764 65.504 339.95 65.1627 339.95 64.736C339.95 64.32 339.764 63.984 339.39 63.728C339.028 63.472 338.548 63.344 337.95 63.344C337.353 63.344 336.868 63.472 336.494 63.728C336.132 63.984 335.95 64.32 335.95 64.736ZM343.31 71.872V70.448H337.246V71.872H343.31ZM359.183 59.104V73.216H357.743V59.104H359.183ZM348.431 60.48H349.887V68.368C352.212 68.3467 354.367 68.128 356.351 67.712L356.543 68.944C354.399 69.392 352.095 69.616 349.631 69.616H348.431V60.48ZM372.319 59.088V64.592H374.559V65.808H372.319V73.248H370.847V59.088H372.319ZM362.015 60.48H368.575V61.648H363.455V68.528C364.735 68.528 365.839 68.496 366.767 68.432C367.706 68.3573 368.655 68.2293 369.615 68.048L369.775 69.28C368.751 69.472 367.743 69.6 366.751 69.664C365.759 69.728 364.554 69.76 363.135 69.76H362.015V60.48ZM376.463 70.512C376.73 70.512 376.943 70.592 377.103 70.752C377.263 70.912 377.343 71.1253 377.343 71.392C377.343 71.6587 377.263 71.872 377.103 72.032C376.943 72.2027 376.73 72.288 376.463 72.288C376.197 72.288 375.978 72.2027 375.807 72.032C375.647 71.872 375.567 71.6587 375.567 71.392C375.567 71.1253 375.647 70.912 375.807 70.752C375.978 70.592 376.197 70.512 376.463 70.512Z" fill="#121212"/>
<path d="M4.9 49.304V50.634C4.9 51.446 5.152 52.188 5.656 52.86C6.16 53.532 6.86933 54.022 7.784 54.33L7.042 55.506C6.37 55.282 5.78667 54.946 5.292 54.498C4.80667 54.05 4.42867 53.5227 4.158 52.916C3.878 53.5693 3.48133 54.1387 2.968 54.624C2.464 55.1 1.85733 55.4593 1.148 55.702L0.392 54.498C1.35333 54.1807 2.09067 53.658 2.604 52.93C3.12667 52.202 3.388 51.39 3.388 50.494V49.304H4.9ZM2.002 56.766H10.206V61.12H8.708V57.984H2.002V56.766ZM8.708 48.674H10.206V51.81H11.942V53.056H10.206V56.192H8.708V48.674ZM23.1983 48.674V61.12H21.7563V48.674H23.1983ZM12.3623 57.62C13.2117 57.088 13.8463 56.3227 14.2663 55.324C14.6957 54.3253 14.9103 53.2427 14.9103 52.076V51.236H12.7543V50.004H18.3683V51.236H16.3803V52.076C16.3803 53.196 16.5903 54.232 17.0103 55.184C17.4303 56.1267 18.0557 56.8407 18.8863 57.326L17.9903 58.432C17.4397 58.096 16.9683 57.648 16.5763 57.088C16.1843 56.5187 15.881 55.8653 15.6663 55.128C15.4423 55.9213 15.125 56.6307 14.7143 57.256C14.313 57.872 13.8277 58.362 13.2583 58.726L12.3623 57.62ZM17.4723 53.028H19.2643V48.912H20.6643V60.518H19.2643V54.246H17.4723V53.028Z" fill="#121212"/>
<rect x="3" y="70.5" width="19" height="19" rx="3.5" fill="#EBF4FE"/>
<rect x="3" y="70.5" width="19" height="19" rx="3.5" stroke="#368FF7"/>
<path d="M18.5 76L10.5 83L6.5 79.5" stroke="#368FF7" stroke-width="1.4" stroke-linejoin="bevel"/>
<path d="M49.228 51.012C48.612 51.012 48.108 51.2127 47.716 51.614C47.3333 52.006 47.142 52.51 47.142 53.126C47.142 53.7513 47.3333 54.2647 47.716 54.666C48.108 55.058 48.612 55.254 49.228 55.254C49.8253 55.254 50.3107 55.058 50.684 54.666C51.0667 54.2647 51.258 53.7513 51.258 53.126C51.258 52.51 51.0667 52.006 50.684 51.614C50.3107 51.2127 49.8253 51.012 49.228 51.012ZM45.686 53.126C45.686 52.4727 45.8353 51.8893 46.134 51.376C46.4327 50.8627 46.848 50.4613 47.38 50.172C47.9213 49.8827 48.5327 49.738 49.214 49.738C49.8953 49.738 50.4973 49.8827 51.02 50.172C51.552 50.4613 51.9673 50.8627 52.266 51.376C52.5647 51.8893 52.714 52.4727 52.714 53.126C52.714 53.7513 52.532 54.3953 52.168 55.058L49.354 60.056H47.688L49.718 56.472C49.5313 56.5187 49.3493 56.542 49.172 56.542C48.5 56.5327 47.898 56.3833 47.366 56.094C46.834 55.7953 46.4187 55.3893 46.12 54.876C45.8307 54.3627 45.686 53.7793 45.686 53.126ZM55.3682 60.784H53.9122L56.9082 49.192H58.3502L55.3682 60.784ZM60.0262 58.768C60.1568 58.6467 60.6328 58.208 61.4542 57.452C62.2102 56.7707 62.8122 56.2107 63.2602 55.772C63.7175 55.324 64.1002 54.8667 64.4082 54.4C64.7162 53.924 64.8702 53.476 64.8702 53.056C64.8702 52.4773 64.7022 52.006 64.3662 51.642C64.0395 51.2687 63.6148 51.082 63.0922 51.082C62.6908 51.082 62.3035 51.2127 61.9302 51.474C61.5568 51.7353 61.2815 52.0713 61.1042 52.482L59.8302 51.922C60.1102 51.2873 60.5535 50.7693 61.1602 50.368C61.7762 49.9573 62.4202 49.752 63.0922 49.752C63.7175 49.752 64.2728 49.892 64.7582 50.172C65.2528 50.452 65.6355 50.844 65.9062 51.348C66.1862 51.8427 66.3262 52.412 66.3262 53.056C66.3262 53.6907 66.1348 54.3207 65.7522 54.946C65.3788 55.5713 64.9215 56.15 64.3802 56.682C63.8482 57.214 63.1668 57.8347 62.3362 58.544L62.0842 58.768H66.4802V60.042H60.1662L60.0262 58.768ZM67.9252 58.768C68.0559 58.6467 68.5319 58.208 69.3532 57.452C70.1092 56.7707 70.7112 56.2107 71.1592 55.772C71.6166 55.324 71.9992 54.8667 72.3072 54.4C72.6152 53.924 72.7692 53.476 72.7692 53.056C72.7692 52.4773 72.6012 52.006 72.2652 51.642C71.9386 51.2687 71.5139 51.082 70.9912 51.082C70.5899 51.082 70.2026 51.2127 69.8292 51.474C69.4559 51.7353 69.1806 52.0713 69.0032 52.482L67.7292 51.922C68.0092 51.2873 68.4526 50.7693 69.0592 50.368C69.6752 49.9573 70.3192 49.752 70.9912 49.752C71.6166 49.752 72.1719 49.892 72.6572 50.172C73.1519 50.452 73.5346 50.844 73.8052 51.348C74.0852 51.8427 74.2252 52.412 74.2252 53.056C74.2252 53.6907 74.0339 54.3207 73.6512 54.946C73.2779 55.5713 72.8206 56.15 72.2792 56.682C71.7472 57.214 71.0659 57.8347 70.2352 58.544L69.9832 58.768H74.3792V60.042H68.0652L67.9252 58.768Z" fill="#121212"/>
<rect x="51" y="70.5" width="19" height="19" rx="3.5" fill="#EBF4FE"/>
<rect x="51" y="70.5" width="19" height="19" rx="3.5" stroke="#368FF7"/>
<path d="M66.5 76L58.5 83L54.5 79.5" stroke="#368FF7" stroke-width="1.4" stroke-linejoin="bevel"/>
<rect x="0.5" y="0.5" width="75" height="29" rx="14.5" fill="white"/>
<rect x="0.5" y="0.5" width="75" height="29" rx="14.5" stroke="#6B6B6B"/>
<path d="M19.7355 20.098H18.0555L13.7995 9.794H15.3815L18.8815 18.488L22.1995 9.794H23.7535L19.7355 20.098ZM29.3434 15.898C29.2781 15.3567 29.0868 14.904 28.7694 14.54C28.4521 14.1667 27.9948 13.98 27.3974 13.98C26.8561 13.98 26.3848 14.1667 25.9834 14.54C25.5914 14.904 25.3534 15.3613 25.2694 15.912L29.3434 15.898ZM23.8694 16.458C23.8694 15.7393 24.0188 15.1 24.3174 14.54C24.6161 13.98 25.0268 13.546 25.5494 13.238C26.0814 12.9207 26.6881 12.762 27.3694 12.762C28.3308 12.762 29.0354 12.9953 29.4834 13.462C29.9408 13.9287 30.2488 14.358 30.4074 14.75C30.6221 15.2727 30.7294 15.8513 30.7294 16.486C30.7294 16.6167 30.7248 16.7333 30.7154 16.836C30.7061 16.9293 30.7014 16.99 30.7014 17.018H25.2694C25.3534 17.578 25.5961 18.0353 25.9974 18.39C26.3988 18.7447 26.8608 18.922 27.3834 18.922C27.8034 18.922 28.1488 18.8567 28.4194 18.726C28.6994 18.5953 28.8908 18.474 28.9934 18.362C29.0961 18.25 29.1941 18.124 29.2874 17.984L30.4634 18.516C30.2394 18.9733 29.8661 19.3607 29.3434 19.678C28.8208 19.986 28.1628 20.14 27.3694 20.14C26.6881 20.14 26.0814 19.986 25.5494 19.678C25.0268 19.3607 24.6161 18.922 24.3174 18.362C24.0188 17.802 23.8694 17.1673 23.8694 16.458ZM33.5299 14.162C33.7259 13.742 34.0385 13.4013 34.4679 13.14C34.9065 12.8693 35.3732 12.734 35.8679 12.734V14.064C35.4292 14.064 35.0325 14.1807 34.6779 14.414C34.3232 14.6473 34.0432 14.9507 33.8379 15.324C33.6325 15.688 33.5299 16.0613 33.5299 16.444V20.098H32.0739V12.776H33.5299V14.162ZM40.2626 20.14C39.6279 20.14 39.1052 19.93 38.6946 19.51C38.2839 19.09 38.0739 18.5487 38.0646 17.886V14.106H36.8046V12.832H38.0646V10.83H39.5206V12.832H41.0886V14.106H39.5206V17.816C39.5206 18.068 39.5906 18.2873 39.7306 18.474C39.8706 18.6607 40.0479 18.7587 40.2626 18.768C40.4212 18.768 40.5706 18.754 40.7106 18.726C40.8599 18.6887 40.9579 18.6653 41.0046 18.656L41.3126 20.014C40.8552 20.098 40.5052 20.14 40.2626 20.14ZM44.3147 12.818V20.098H42.8587V12.818H44.3147ZM42.7607 10.438C42.7607 10.1953 42.8354 9.99933 42.9847 9.85C43.1434 9.69133 43.344 9.612 43.5867 9.612C43.8294 9.612 44.0254 9.69133 44.1747 9.85C44.3334 9.99933 44.4127 10.1953 44.4127 10.438C44.4127 10.6713 44.3334 10.8673 44.1747 11.026C44.0254 11.1847 43.8294 11.264 43.5867 11.264C43.344 11.264 43.1434 11.1893 42.9847 11.04C42.8354 10.8813 42.7607 10.6807 42.7607 10.438ZM49.3377 18.782C49.6271 18.782 49.9257 18.7167 50.2337 18.586C50.5511 18.446 50.8171 18.2687 51.0317 18.054L52.0257 19.034C51.6991 19.3607 51.2884 19.6313 50.7937 19.846C50.3084 20.0513 49.8417 20.154 49.3937 20.154C48.6751 20.154 48.0311 20 47.4617 19.692C46.9017 19.3747 46.4631 18.936 46.1457 18.376C45.8284 17.816 45.6697 17.1767 45.6697 16.458C45.6697 15.7393 45.8284 15.1 46.1457 14.54C46.4631 13.98 46.9017 13.546 47.4617 13.238C48.0311 12.9207 48.6751 12.762 49.3937 12.762C49.8604 12.762 50.3317 12.8647 50.8077 13.07C51.2931 13.2753 51.6991 13.546 52.0257 13.882L51.0317 14.862C50.8171 14.6473 50.5511 14.4747 50.2337 14.344C49.9257 14.204 49.6271 14.134 49.3377 14.134C48.6751 14.134 48.1384 14.3487 47.7277 14.778C47.3264 15.2073 47.1257 15.7673 47.1257 16.458C47.1257 17.1487 47.3264 17.7087 47.7277 18.138C48.1384 18.5673 48.6751 18.782 49.3377 18.782ZM56.339 18.964C56.7217 18.964 57.081 18.8567 57.417 18.642C57.753 18.418 58.019 18.1193 58.215 17.746C58.4204 17.3633 58.523 16.9433 58.523 16.486C58.523 16.0287 58.4204 15.6133 58.215 15.24C58.019 14.8573 57.753 14.5587 57.417 14.344C57.081 14.12 56.7217 14.008 56.339 14.008C55.7137 14.008 55.205 14.2367 54.813 14.694C54.421 15.1513 54.225 15.7487 54.225 16.486C54.225 17.2233 54.421 17.8207 54.813 18.278C55.205 18.7353 55.7137 18.964 56.339 18.964ZM52.769 16.486C52.769 15.7767 52.9137 15.142 53.203 14.582C53.5017 14.022 53.9124 13.588 54.435 13.28C54.967 12.9627 55.569 12.804 56.241 12.804C56.6704 12.804 57.081 12.9113 57.473 13.126C57.8744 13.3313 58.2197 13.644 58.509 14.064V12.776H59.965V20.098L58.509 20.112V18.894C58.2104 19.3233 57.865 19.6453 57.473 19.86C57.081 20.0653 56.6704 20.168 56.241 20.168C55.569 20.168 54.967 20.014 54.435 19.706C53.9124 19.3887 53.5017 18.95 53.203 18.39C52.9137 17.83 52.769 17.1953 52.769 16.486ZM63.0848 9.794V20.098H61.6288V9.794H63.0848Z" fill="#121212"/>
<rect x="215.5" y="0.5" width="91" height="29" rx="14.5" fill="white"/>
<rect x="215.5" y="0.5" width="91" height="29" rx="14.5" stroke="#6B6B6B"/>
<path d="M237.019 20.098H235.563V15.436H230.313V20.098H228.857V9.794H230.313V14.176H235.563V9.794H237.019V20.098ZM242.217 18.936C242.842 18.936 243.346 18.7073 243.729 18.25C244.111 17.7927 244.303 17.1953 244.303 16.458C244.303 15.7207 244.111 15.1233 243.729 14.666C243.346 14.2087 242.842 13.98 242.217 13.98C241.601 13.98 241.101 14.2087 240.719 14.666C240.336 15.1233 240.145 15.7207 240.145 16.458C240.145 17.1953 240.336 17.7927 240.719 18.25C241.101 18.7073 241.601 18.936 242.217 18.936ZM238.689 16.458C238.689 15.7393 238.838 15.1 239.137 14.54C239.435 13.98 239.851 13.5413 240.383 13.224C240.924 12.9067 241.535 12.748 242.217 12.748C242.907 12.748 243.519 12.9067 244.051 13.224C244.592 13.5413 245.012 13.98 245.311 14.54C245.609 15.1 245.759 15.7393 245.759 16.458C245.759 17.1673 245.609 17.802 245.311 18.362C245.012 18.922 244.592 19.3607 244.051 19.678C243.519 19.9953 242.907 20.154 242.217 20.154C241.535 20.154 240.924 19.9953 240.383 19.678C239.851 19.3607 239.435 18.922 239.137 18.362C238.838 17.802 238.689 17.1673 238.689 16.458ZM248.513 14.162C248.709 13.742 249.022 13.4013 249.451 13.14C249.89 12.8693 250.356 12.734 250.851 12.734V14.064C250.412 14.064 250.016 14.1807 249.661 14.414C249.306 14.6473 249.026 14.9507 248.821 15.324C248.616 15.688 248.513 16.0613 248.513 16.444V20.098H247.057V12.776H248.513V14.162ZM253.86 12.818V20.098H252.404V12.818H253.86ZM252.306 10.438C252.306 10.1953 252.38 9.99933 252.53 9.85C252.688 9.69133 252.889 9.612 253.132 9.612C253.374 9.612 253.57 9.69133 253.72 9.85C253.878 9.99933 253.958 10.1953 253.958 10.438C253.958 10.6713 253.878 10.8673 253.72 11.026C253.57 11.1847 253.374 11.264 253.132 11.264C252.889 11.264 252.688 11.1893 252.53 11.04C252.38 10.8813 252.306 10.6807 252.306 10.438ZM261.151 14.218L257.217 18.894H261.151V20.098H255.481V18.698L259.457 13.98H255.481V12.776H261.151V14.218ZM265.746 18.936C266.372 18.936 266.876 18.7073 267.258 18.25C267.641 17.7927 267.832 17.1953 267.832 16.458C267.832 15.7207 267.641 15.1233 267.258 14.666C266.876 14.2087 266.372 13.98 265.746 13.98C265.13 13.98 264.631 14.2087 264.248 14.666C263.866 15.1233 263.674 15.7207 263.674 16.458C263.674 17.1953 263.866 17.7927 264.248 18.25C264.631 18.7073 265.13 18.936 265.746 18.936ZM262.218 16.458C262.218 15.7393 262.368 15.1 262.666 14.54C262.965 13.98 263.38 13.5413 263.912 13.224C264.454 12.9067 265.065 12.748 265.746 12.748C266.437 12.748 267.048 12.9067 267.58 13.224C268.122 13.5413 268.542 13.98 268.84 14.54C269.139 15.1 269.288 15.7393 269.288 16.458C269.288 17.1673 269.139 17.802 268.84 18.362C268.542 18.922 268.122 19.3607 267.58 19.678C267.048 19.9953 266.437 20.154 265.746 20.154C265.065 20.154 264.454 19.9953 263.912 19.678C263.38 19.3607 262.965 18.922 262.666 18.362C262.368 17.802 262.218 17.1673 262.218 16.458ZM275.781 16.038C275.781 15.422 275.622 14.932 275.305 14.568C274.997 14.1947 274.572 14.008 274.031 14.008C273.667 14.008 273.336 14.1013 273.037 14.288C272.748 14.4653 272.519 14.708 272.351 15.016C272.192 15.324 272.113 15.6647 272.113 16.038V20.098H270.657V12.776H272.113V14.008C272.337 13.6533 272.645 13.364 273.037 13.14C273.429 12.9067 273.826 12.79 274.227 12.79C274.731 12.79 275.212 12.9067 275.669 13.14C276.126 13.364 276.5 13.714 276.789 14.19C277.088 14.666 277.237 15.2633 277.237 15.982V20.098H275.781V16.038ZM281.66 20.14C281.026 20.14 280.503 19.93 280.092 19.51C279.682 19.09 279.472 18.5487 279.462 17.886V14.106H278.202V12.832H279.462V10.83H280.918V12.832H282.486V14.106H280.918V17.816C280.918 18.068 280.988 18.2873 281.128 18.474C281.268 18.6607 281.446 18.7587 281.66 18.768C281.819 18.768 281.968 18.754 282.108 18.726C282.258 18.6887 282.356 18.6653 282.402 18.656L282.71 20.014C282.253 20.098 281.903 20.14 281.66 20.14ZM287.339 18.964C287.722 18.964 288.081 18.8567 288.417 18.642C288.753 18.418 289.019 18.1193 289.215 17.746C289.42 17.3633 289.523 16.9433 289.523 16.486C289.523 16.0287 289.42 15.6133 289.215 15.24C289.019 14.8573 288.753 14.5587 288.417 14.344C288.081 14.12 287.722 14.008 287.339 14.008C286.714 14.008 286.205 14.2367 285.813 14.694C285.421 15.1513 285.225 15.7487 285.225 16.486C285.225 17.2233 285.421 17.8207 285.813 18.278C286.205 18.7353 286.714 18.964 287.339 18.964ZM283.769 16.486C283.769 15.7767 283.914 15.142 284.203 14.582C284.502 14.022 284.912 13.588 285.435 13.28C285.967 12.9627 286.569 12.804 287.241 12.804C287.67 12.804 288.081 12.9113 288.473 13.126C288.874 13.3313 289.22 13.644 289.509 14.064V12.776H290.965V20.098L289.509 20.112V18.894C289.21 19.3233 288.865 19.6453 288.473 19.86C288.081 20.0653 287.67 20.168 287.241 20.168C286.569 20.168 285.967 20.014 285.435 19.706C284.912 19.3887 284.502 18.95 284.203 18.39C283.914 17.83 283.769 17.1953 283.769 16.486ZM294.085 9.794V20.098H292.629V9.794H294.085Z" fill="#121212"/>
</svg>
