<svg width="908" height="140" viewBox="0 0 908 140" fill="none" xmlns="http://www.w3.org/2000/svg">
<rect width="908" height="140" fill="white"/>
<rect x="515.5" y="64.5" width="19" height="19" rx="3.5" fill="#EBF4FE"/>
<rect x="515.5" y="64.5" width="19" height="19" rx="3.5" stroke="#368FF7"/>
<path d="M531 70L523 77L519 73.5" stroke="#368FF7" stroke-width="1.4" stroke-linejoin="bevel"/>
<path d="M552.552 69.632H549V80.064H547.592V69.632H544.024V68.384H552.552V69.632ZM558.743 75.392C558.668 74.7093 558.444 74.1387 558.071 73.68C557.708 73.2107 557.159 72.976 556.423 72.976C555.751 72.976 555.175 73.2053 554.695 73.664C554.225 74.112 553.943 74.6933 553.847 75.408L558.743 75.392ZM552.455 75.936C552.455 75.1253 552.62 74.4053 552.951 73.776C553.281 73.1467 553.745 72.656 554.343 72.304C554.94 71.952 555.617 71.776 556.375 71.776C557.964 71.776 559.1 72.5227 559.783 74.016C560.007 74.6133 560.119 75.248 560.119 75.92C560.119 76.1013 560.113 76.2507 560.103 76.368C560.092 76.4747 560.087 76.5333 560.087 76.544H553.847C553.953 77.2373 554.241 77.8027 554.711 78.24C555.191 78.6773 555.751 78.896 556.391 78.896C556.903 78.896 557.324 78.816 557.655 78.656C557.996 78.496 558.231 78.3413 558.359 78.192C558.497 78.032 558.62 77.872 558.727 77.712L559.847 78.288C559.601 78.7893 559.18 79.216 558.583 79.568C557.996 79.92 557.26 80.096 556.375 80.096C555.617 80.096 554.94 79.92 554.343 79.568C553.745 79.216 553.281 78.7253 552.951 78.096C552.62 77.4667 552.455 76.7467 552.455 75.936ZM565.666 75.936L568.754 80.064H567.01L564.882 77.12L562.786 80.064H561.026L564.082 75.936L560.994 71.792H562.77L564.882 74.784L567.01 71.792H568.77L565.666 75.936ZM573.231 80.096C572.549 80.096 571.989 79.872 571.551 79.424C571.114 78.976 570.885 78.4 570.863 77.696V73.072H569.487V71.84H570.863V69.648H572.271V71.84H574.047V73.072H572.271V77.6C572.271 77.92 572.362 78.1973 572.543 78.432C572.725 78.6667 572.954 78.784 573.231 78.784C573.391 78.784 573.535 78.7733 573.663 78.752C573.791 78.7307 573.919 78.704 574.047 78.672L574.303 79.968C573.898 80.0533 573.541 80.096 573.231 80.096Z" fill="#121212"/>
<rect x="515.5" y="98.5" width="19" height="19" rx="3.5" fill="#EBF4FE"/>
<rect x="515.5" y="98.5" width="19" height="19" rx="3.5" stroke="#368FF7"/>
<path d="M531 104L523 111L519 107.5" stroke="#368FF7" stroke-width="1.4" stroke-linejoin="bevel"/>
<path d="M552.552 103.632H549V114.064H547.592V103.632H544.024V102.384H552.552V103.632ZM558.743 109.392C558.668 108.709 558.444 108.139 558.071 107.68C557.708 107.211 557.159 106.976 556.423 106.976C555.751 106.976 555.175 107.205 554.695 107.664C554.225 108.112 553.943 108.693 553.847 109.408L558.743 109.392ZM552.455 109.936C552.455 109.125 552.62 108.405 552.951 107.776C553.281 107.147 553.745 106.656 554.343 106.304C554.94 105.952 555.617 105.776 556.375 105.776C557.964 105.776 559.1 106.523 559.783 108.016C560.007 108.613 560.119 109.248 560.119 109.92C560.119 110.101 560.113 110.251 560.103 110.368C560.092 110.475 560.087 110.533 560.087 110.544H553.847C553.953 111.237 554.241 111.803 554.711 112.24C555.191 112.677 555.751 112.896 556.391 112.896C556.903 112.896 557.324 112.816 557.655 112.656C557.996 112.496 558.231 112.341 558.359 112.192C558.497 112.032 558.62 111.872 558.727 111.712L559.847 112.288C559.601 112.789 559.18 113.216 558.583 113.568C557.996 113.92 557.26 114.096 556.375 114.096C555.617 114.096 554.94 113.92 554.343 113.568C553.745 113.216 553.281 112.725 552.951 112.096C552.62 111.467 552.455 110.747 552.455 109.936ZM565.666 109.936L568.754 114.064H567.01L564.882 111.12L562.786 114.064H561.026L564.082 109.936L560.994 105.792H562.77L564.882 108.784L567.01 105.792H568.77L565.666 109.936ZM573.231 114.096C572.549 114.096 571.989 113.872 571.551 113.424C571.114 112.976 570.885 112.4 570.863 111.696V107.072H569.487V105.84H570.863V103.648H572.271V105.84H574.047V107.072H572.271V111.6C572.271 111.92 572.362 112.197 572.543 112.432C572.725 112.667 572.954 112.784 573.231 112.784C573.391 112.784 573.535 112.773 573.663 112.752C573.791 112.731 573.919 112.704 574.047 112.672L574.303 113.968C573.898 114.053 573.541 114.096 573.231 114.096Z" fill="#121212"/>
<path d="M306.182 73.88V70.926H307.582V78.332H306.182V75.084H304.782V73.88H306.182ZM299.994 71.514H304.684V72.732H301.45V74.048H304.222V75.196H301.45V76.596C302.253 76.5867 302.934 76.5633 303.494 76.526C304.054 76.4793 304.619 76.4047 305.188 76.302L305.314 77.492C304.642 77.6133 303.979 77.6927 303.326 77.73C302.682 77.7673 301.847 77.786 300.82 77.786H299.994V71.514ZM301.548 78.948H310.032V83.12H308.534V80.152H301.548V78.948ZM308.604 70.674H310.032V78.416H308.604V70.674ZM317.956 71.444V72.368C317.956 73.012 318.148 73.642 318.53 74.258C318.922 74.8647 319.454 75.3873 320.126 75.826C320.808 76.2553 321.564 76.54 322.394 76.68L321.736 77.926C320.7 77.7113 319.776 77.3053 318.964 76.708C318.162 76.1107 317.56 75.392 317.158 74.552C316.748 75.392 316.136 76.1153 315.324 76.722C314.522 77.3193 313.607 77.7207 312.58 77.926L311.936 76.68C312.758 76.5307 313.504 76.2413 314.176 75.812C314.858 75.3733 315.39 74.8507 315.772 74.244C316.164 73.628 316.36 73.0027 316.36 72.368V71.444H317.956ZM311.572 80.292H322.842V81.524H311.572V80.292ZM333.595 71.64V72.858H326.581V74.398H333.329V75.588H326.581V77.198H333.707V78.402H325.055V71.64H333.595ZM323.669 80.376H334.939V81.608H323.669V80.376ZM346.405 70.674V83.12H344.963V70.674H346.405ZM335.891 76.05C335.891 75.1447 335.998 74.3607 336.213 73.698C336.437 73.026 336.75 72.5127 337.151 72.158C337.552 71.794 338.019 71.612 338.551 71.612C339.298 71.612 339.909 71.948 340.385 72.62C340.861 73.2827 341.136 74.1973 341.211 75.364H342.457V70.912H343.871V82.532H342.457V76.582H341.225C341.16 77.7953 340.889 78.752 340.413 79.452C339.937 80.152 339.316 80.502 338.551 80.502C338.019 80.502 337.552 80.3247 337.151 79.97C336.75 79.606 336.437 79.088 336.213 78.416C335.998 77.744 335.891 76.9553 335.891 76.05ZM337.263 76.05C337.263 77.0207 337.375 77.772 337.599 78.304C337.823 78.8267 338.14 79.088 338.551 79.088C338.971 79.088 339.293 78.8267 339.517 78.304C339.75 77.7813 339.867 77.03 339.867 76.05C339.867 75.0793 339.75 74.3373 339.517 73.824C339.293 73.3013 338.971 73.04 338.551 73.04C338.14 73.04 337.823 73.3013 337.599 73.824C337.375 74.3373 337.263 75.0793 337.263 76.05ZM360.86 70.646V75.42H362.456V76.666H360.86V83.134H359.348V70.646H360.86ZM351.256 71.948H354.42V73.138H352.74V78.724C353.347 78.696 353.939 78.6307 354.518 78.528L354.644 79.746C354.168 79.8487 353.72 79.914 353.3 79.942C352.889 79.97 352.409 79.984 351.858 79.984H351.256V71.948ZM355.092 71.948H358.424V73.138H356.576V78.738C357.407 78.71 358.102 78.6307 358.662 78.5L358.816 79.718C358.377 79.83 357.943 79.9047 357.514 79.942C357.085 79.97 356.487 79.984 355.722 79.984H355.092V71.948ZM372.732 70.66V75.476H374.636V76.722H372.732V83.148H371.234V70.66H372.732ZM363.534 71.78H369.218V76.442H365.06V78.962C366.087 78.9527 367.006 78.92 367.818 78.864C368.64 78.7987 369.466 78.696 370.296 78.556L370.436 79.774C369.522 79.9327 368.612 80.0447 367.706 80.11C366.801 80.1753 365.76 80.208 364.584 80.208H363.562V75.224H367.734V72.984H363.534V71.78Z" fill="#121212"/>
<rect x="327.5" y="92.5" width="19" height="19" rx="3.5" fill="#EBF4FE"/>
<rect x="327.5" y="92.5" width="19" height="19" rx="3.5" stroke="#368FF7"/>
<path d="M343 98L335 105L331 101.5" stroke="#368FF7" stroke-width="1.4" stroke-linejoin="bevel"/>
<path d="M398.746 77.674V78.892H396.002V83.12H394.462V78.892H391.718V83.12H390.164V78.892H387.476V77.674H398.746ZM388.638 73.88C388.638 73.3293 388.825 72.8487 389.198 72.438C389.571 72.0273 390.089 71.71 390.752 71.486C391.424 71.262 392.199 71.15 393.076 71.15C393.953 71.15 394.728 71.262 395.4 71.486C396.072 71.71 396.59 72.0273 396.954 72.438C397.327 72.8487 397.514 73.3293 397.514 73.88C397.514 74.44 397.327 74.93 396.954 75.35C396.59 75.7607 396.072 76.078 395.4 76.302C394.728 76.526 393.953 76.638 393.076 76.638C392.199 76.638 391.424 76.526 390.752 76.302C390.089 76.078 389.571 75.7607 389.198 75.35C388.825 74.93 388.638 74.44 388.638 73.88ZM390.192 73.88C390.192 74.3747 390.449 74.7573 390.962 75.028C391.485 75.2987 392.189 75.434 393.076 75.434C393.972 75.434 394.677 75.2987 395.19 75.028C395.713 74.7573 395.974 74.3747 395.974 73.88C395.974 73.404 395.713 73.0307 395.19 72.76C394.667 72.48 393.963 72.34 393.076 72.34C392.189 72.34 391.485 72.48 390.962 72.76C390.449 73.0307 390.192 73.404 390.192 73.88ZM404.458 76.652V75.462H400.972V71.234H409.47V72.424H402.47V74.258H409.54V75.462H405.956V76.652H410.842V77.856H399.586V76.652H404.458ZM400.888 80.866C400.888 80.138 401.266 79.578 402.022 79.186C402.778 78.794 403.833 78.598 405.186 78.598C406.53 78.598 407.58 78.7987 408.336 79.2C409.092 79.592 409.47 80.1473 409.47 80.866C409.47 81.5847 409.092 82.14 408.336 82.532C407.58 82.924 406.53 83.12 405.186 83.12C403.833 83.12 402.778 82.924 402.022 82.532C401.266 82.14 400.888 81.5847 400.888 80.866ZM402.4 80.866C402.4 81.23 402.638 81.5053 403.114 81.692C403.59 81.8787 404.281 81.972 405.186 81.972C406.082 81.972 406.764 81.8787 407.23 81.692C407.706 81.5053 407.944 81.23 407.944 80.866C407.944 80.502 407.706 80.2267 407.23 80.04C406.754 79.844 406.073 79.746 405.186 79.746C404.29 79.746 403.6 79.844 403.114 80.04C402.638 80.2267 402.4 80.502 402.4 80.866ZM420.489 73.768V70.674H421.987V78.094H420.489V75H418.375V73.768H420.489ZM411.641 76.764C412.593 76.4467 413.335 75.924 413.867 75.196C414.399 74.468 414.665 73.6747 414.665 72.816V72.634H412.075V71.43H418.739V72.634H416.177V72.816C416.177 73.6 416.429 74.3373 416.933 75.028C417.446 75.7093 418.165 76.204 419.089 76.512L418.347 77.702C417.675 77.4687 417.091 77.128 416.597 76.68C416.111 76.232 415.729 75.7047 415.449 75.098C415.169 75.77 414.767 76.3533 414.245 76.848C413.731 77.3427 413.115 77.7113 412.397 77.954L411.641 76.764ZM413.587 78.71H421.987V83.12H420.489V79.914H413.587V78.71ZM429.393 71.36C430.261 71.36 431.04 71.5093 431.731 71.808C432.431 72.0973 432.982 72.5127 433.383 73.054C433.784 73.586 433.985 74.1973 433.985 74.888C433.985 75.5787 433.784 76.19 433.383 76.722C432.982 77.254 432.431 77.6693 431.731 77.968C431.04 78.2573 430.261 78.402 429.393 78.402C428.525 78.402 427.741 78.2573 427.041 77.968C426.35 77.6693 425.804 77.254 425.403 76.722C425.002 76.19 424.801 75.5787 424.801 74.888C424.801 74.1973 425.002 73.586 425.403 73.054C425.804 72.5127 426.35 72.0973 427.041 71.808C427.741 71.5093 428.525 71.36 429.393 71.36ZM423.765 80.306H435.035V81.538H423.765V80.306ZM426.257 74.888C426.257 75.3453 426.392 75.7467 426.663 76.092C426.934 76.4373 427.307 76.7033 427.783 76.89C428.259 77.0767 428.796 77.17 429.393 77.17C430 77.17 430.536 77.0767 431.003 76.89C431.479 76.7033 431.848 76.4373 432.109 76.092C432.38 75.7467 432.515 75.3453 432.515 74.888C432.515 74.4213 432.38 74.0153 432.109 73.67C431.848 73.3247 431.479 73.0587 431.003 72.872C430.536 72.676 430 72.578 429.393 72.578C428.796 72.578 428.259 72.676 427.783 72.872C427.307 73.0587 426.934 73.3247 426.663 73.67C426.392 74.0153 426.257 74.4213 426.257 74.888ZM440.733 80.446V78.374H437.205V74.314H444.331V72.718H437.191V71.514H445.815V75.504H438.703V77.17H446.095V78.374H442.231V80.446H447.131V81.664H435.861V80.446H440.733Z" fill="#121212"/>
<rect x="408" y="92.5" width="19" height="19" rx="3.5" fill="#EBF4FE"/>
<rect x="408" y="92.5" width="19" height="19" rx="3.5" stroke="#368FF7"/>
<path d="M423.5 98L415.5 105L411.5 101.5" stroke="#368FF7" stroke-width="1.4" stroke-linejoin="bevel"/>
<path d="M576 87L576 95" stroke="#6B6B6B" stroke-width="1.2"/>
<rect x="576" y="87" width="8.00001" height="61" transform="rotate(90 576 87)" fill="#FF0000" fill-opacity="0.1"/>
<path d="M587.172 94.964C587.76 94.964 588.236 94.796 588.6 94.46C588.973 94.1147 589.16 93.6713 589.16 93.13C589.16 92.5887 588.973 92.15 588.6 91.814C588.236 91.4687 587.76 91.296 587.172 91.296C586.575 91.296 586.089 91.4687 585.716 91.814C585.343 92.15 585.156 92.5887 585.156 93.13C585.156 93.6713 585.343 94.1147 585.716 94.46C586.089 94.796 586.575 94.964 587.172 94.964ZM583.7 93.158C583.7 92.7007 583.859 92.2433 584.176 91.786C584.493 91.3193 584.899 90.9507 585.394 90.68C584.983 90.4 584.647 90.0547 584.386 89.644C584.125 89.2333 583.994 88.846 583.994 88.482C583.994 87.9407 584.129 87.46 584.4 87.04C584.671 86.6107 585.044 86.2793 585.52 86.046C586.005 85.8033 586.556 85.682 587.172 85.682C587.788 85.682 588.334 85.8033 588.81 86.046C589.295 86.2793 589.673 86.6107 589.944 87.04C590.215 87.46 590.35 87.9407 590.35 88.482C590.35 88.8553 590.219 89.2473 589.958 89.658C589.697 90.0687 589.361 90.4093 588.95 90.68C589.445 90.96 589.846 91.3287 590.154 91.786C590.462 92.2433 590.616 92.7007 590.616 93.158C590.616 93.746 590.471 94.2733 590.182 94.74C589.893 95.1973 589.487 95.5567 588.964 95.818C588.441 96.07 587.844 96.196 587.172 96.196C586.5 96.196 585.898 96.07 585.366 95.818C584.843 95.5567 584.433 95.1973 584.134 94.74C583.845 94.2733 583.7 93.746 583.7 93.158ZM585.45 88.482C585.45 88.9487 585.609 89.3267 585.926 89.616C586.243 89.9053 586.659 90.05 587.172 90.05C587.676 90.05 588.087 89.9053 588.404 89.616C588.731 89.3173 588.894 88.9393 588.894 88.482C588.894 88.0247 588.731 87.6513 588.404 87.362C588.087 87.0633 587.676 86.914 587.172 86.914C586.659 86.914 586.243 87.0587 585.926 87.348C585.609 87.6373 585.45 88.0153 585.45 88.482ZM595.933 94.964C596.558 94.964 597.067 94.7353 597.459 94.278C597.851 93.8113 598.047 93.2047 598.047 92.458C598.047 91.7207 597.851 91.1233 597.459 90.666C597.067 90.2087 596.558 89.98 595.933 89.98C595.541 89.98 595.177 90.092 594.841 90.316C594.505 90.54 594.239 90.8433 594.043 91.226C593.847 91.5993 593.749 92.01 593.749 92.458C593.749 92.9153 593.847 93.3353 594.043 93.718C594.239 94.1007 594.505 94.404 594.841 94.628C595.177 94.852 595.541 94.964 595.933 94.964ZM592.279 88.776H593.735V90.036C593.987 89.616 594.337 89.3033 594.785 89.098C595.233 88.8833 595.644 88.776 596.017 88.776C596.698 88.776 597.3 88.9347 597.823 89.252C598.355 89.56 598.766 89.994 599.055 90.554C599.354 91.1047 599.503 91.7393 599.503 92.458C599.503 93.1767 599.354 93.8207 599.055 94.39C598.766 94.95 598.355 95.3887 597.823 95.706C597.3 96.014 596.698 96.168 596.017 96.168C595.644 96.168 595.233 96.0607 594.785 95.846C594.337 95.622 593.987 95.3 593.735 94.88V99.234H592.279V88.776ZM604.646 92.444L607.348 96.098H605.542L603.792 93.62L602.056 96.098H600.25L602.91 92.444L600.194 88.776H602.014L603.792 91.324L605.556 88.776H607.376L604.646 92.444Z" fill="#6B6B6B"/>
<rect x="337.5" y="22.5" width="75" height="29" rx="14.5" fill="white"/>
<rect x="337.5" y="22.5" width="75" height="29" rx="14.5" stroke="#6B6B6B"/>
<path d="M356.735 42.098H355.055L350.799 31.794H352.381L355.881 40.488L359.2 31.794H360.754L356.735 42.098ZM366.343 37.898C366.278 37.3567 366.087 36.904 365.769 36.54C365.452 36.1667 364.995 35.98 364.397 35.98C363.856 35.98 363.385 36.1667 362.983 36.54C362.591 36.904 362.353 37.3613 362.269 37.912L366.343 37.898ZM360.869 38.458C360.869 37.7393 361.019 37.1 361.317 36.54C361.616 35.98 362.027 35.546 362.549 35.238C363.081 34.9207 363.688 34.762 364.369 34.762C365.331 34.762 366.035 34.9953 366.483 35.462C366.941 35.9287 367.249 36.358 367.407 36.75C367.622 37.2727 367.729 37.8513 367.729 38.486C367.729 38.6167 367.725 38.7333 367.715 38.836C367.706 38.9293 367.701 38.99 367.701 39.018H362.269C362.353 39.578 362.596 40.0353 362.997 40.39C363.399 40.7447 363.861 40.922 364.383 40.922C364.803 40.922 365.149 40.8567 365.419 40.726C365.699 40.5953 365.891 40.474 365.993 40.362C366.096 40.25 366.194 40.124 366.287 39.984L367.463 40.516C367.239 40.9733 366.866 41.3607 366.343 41.678C365.821 41.986 365.163 42.14 364.369 42.14C363.688 42.14 363.081 41.986 362.549 41.678C362.027 41.3607 361.616 40.922 361.317 40.362C361.019 39.802 360.869 39.1673 360.869 38.458ZM370.53 36.162C370.726 35.742 371.039 35.4013 371.468 35.14C371.907 34.8693 372.373 34.734 372.868 34.734V36.064C372.429 36.064 372.033 36.1807 371.678 36.414C371.323 36.6473 371.043 36.9507 370.838 37.324C370.633 37.688 370.53 38.0613 370.53 38.444V42.098H369.074V34.776H370.53V36.162ZM377.263 42.14C376.628 42.14 376.105 41.93 375.695 41.51C375.284 41.09 375.074 40.5487 375.065 39.886V36.106H373.805V34.832H375.065V32.83H376.521V34.832H378.089V36.106H376.521V39.816C376.521 40.068 376.591 40.2873 376.731 40.474C376.871 40.6607 377.048 40.7587 377.263 40.768C377.421 40.768 377.571 40.754 377.711 40.726C377.86 40.6887 377.958 40.6653 378.005 40.656L378.313 42.014C377.855 42.098 377.505 42.14 377.263 42.14ZM381.315 34.818V42.098H379.859V34.818H381.315ZM379.761 32.438C379.761 32.1953 379.835 31.9993 379.985 31.85C380.143 31.6913 380.344 31.612 380.587 31.612C380.829 31.612 381.025 31.6913 381.175 31.85C381.333 31.9993 381.413 32.1953 381.413 32.438C381.413 32.6713 381.333 32.8673 381.175 33.026C381.025 33.1847 380.829 33.264 380.587 33.264C380.344 33.264 380.143 33.1893 379.985 33.04C379.835 32.8813 379.761 32.6807 379.761 32.438ZM386.338 40.782C386.627 40.782 386.926 40.7167 387.234 40.586C387.551 40.446 387.817 40.2687 388.032 40.054L389.026 41.034C388.699 41.3607 388.288 41.6313 387.794 41.846C387.308 42.0513 386.842 42.154 386.394 42.154C385.675 42.154 385.031 42 384.462 41.692C383.902 41.3747 383.463 40.936 383.146 40.376C382.828 39.816 382.67 39.1767 382.67 38.458C382.67 37.7393 382.828 37.1 383.146 36.54C383.463 35.98 383.902 35.546 384.462 35.238C385.031 34.9207 385.675 34.762 386.394 34.762C386.86 34.762 387.332 34.8647 387.808 35.07C388.293 35.2753 388.699 35.546 389.026 35.882L388.032 36.862C387.817 36.6473 387.551 36.4747 387.234 36.344C386.926 36.204 386.627 36.134 386.338 36.134C385.675 36.134 385.138 36.3487 384.728 36.778C384.326 37.2073 384.126 37.7673 384.126 38.458C384.126 39.1487 384.326 39.7087 384.728 40.138C385.138 40.5673 385.675 40.782 386.338 40.782ZM393.339 40.964C393.722 40.964 394.081 40.8567 394.417 40.642C394.753 40.418 395.019 40.1193 395.215 39.746C395.42 39.3633 395.523 38.9433 395.523 38.486C395.523 38.0287 395.42 37.6133 395.215 37.24C395.019 36.8573 394.753 36.5587 394.417 36.344C394.081 36.12 393.722 36.008 393.339 36.008C392.714 36.008 392.205 36.2367 391.813 36.694C391.421 37.1513 391.225 37.7487 391.225 38.486C391.225 39.2233 391.421 39.8207 391.813 40.278C392.205 40.7353 392.714 40.964 393.339 40.964ZM389.769 38.486C389.769 37.7767 389.914 37.142 390.203 36.582C390.502 36.022 390.912 35.588 391.435 35.28C391.967 34.9627 392.569 34.804 393.241 34.804C393.67 34.804 394.081 34.9113 394.473 35.126C394.874 35.3313 395.22 35.644 395.509 36.064V34.776H396.965V42.098L395.509 42.112V40.894C395.21 41.3233 394.865 41.6453 394.473 41.86C394.081 42.0653 393.67 42.168 393.241 42.168C392.569 42.168 391.967 42.014 391.435 41.706C390.912 41.3887 390.502 40.95 390.203 40.39C389.914 39.83 389.769 39.1953 389.769 38.486ZM400.085 31.794V42.098H398.629V31.794H400.085Z" fill="#121212"/>
<rect x="497.5" y="22.5" width="91" height="29" rx="14.5" fill="white"/>
<rect x="497.5" y="22.5" width="91" height="29" rx="14.5" stroke="#6B6B6B"/>
<path d="M519.019 42.098H517.563V37.436H512.313V42.098H510.857V31.794H512.313V36.176H517.563V31.794H519.019V42.098ZM524.217 40.936C524.842 40.936 525.346 40.7073 525.729 40.25C526.111 39.7927 526.303 39.1953 526.303 38.458C526.303 37.7207 526.111 37.1233 525.729 36.666C525.346 36.2087 524.842 35.98 524.217 35.98C523.601 35.98 523.101 36.2087 522.719 36.666C522.336 37.1233 522.145 37.7207 522.145 38.458C522.145 39.1953 522.336 39.7927 522.719 40.25C523.101 40.7073 523.601 40.936 524.217 40.936ZM520.689 38.458C520.689 37.7393 520.838 37.1 521.137 36.54C521.435 35.98 521.851 35.5413 522.383 35.224C522.924 34.9067 523.535 34.748 524.217 34.748C524.907 34.748 525.519 34.9067 526.051 35.224C526.592 35.5413 527.012 35.98 527.311 36.54C527.609 37.1 527.759 37.7393 527.759 38.458C527.759 39.1673 527.609 39.802 527.311 40.362C527.012 40.922 526.592 41.3607 526.051 41.678C525.519 41.9953 524.907 42.154 524.217 42.154C523.535 42.154 522.924 41.9953 522.383 41.678C521.851 41.3607 521.435 40.922 521.137 40.362C520.838 39.802 520.689 39.1673 520.689 38.458ZM530.513 36.162C530.709 35.742 531.022 35.4013 531.451 35.14C531.89 34.8693 532.356 34.734 532.851 34.734V36.064C532.412 36.064 532.016 36.1807 531.661 36.414C531.306 36.6473 531.026 36.9507 530.821 37.324C530.616 37.688 530.513 38.0613 530.513 38.444V42.098H529.057V34.776H530.513V36.162ZM535.86 34.818V42.098H534.404V34.818H535.86ZM534.306 32.438C534.306 32.1953 534.38 31.9993 534.53 31.85C534.688 31.6913 534.889 31.612 535.132 31.612C535.374 31.612 535.57 31.6913 535.72 31.85C535.878 31.9993 535.958 32.1953 535.958 32.438C535.958 32.6713 535.878 32.8673 535.72 33.026C535.57 33.1847 535.374 33.264 535.132 33.264C534.889 33.264 534.688 33.1893 534.53 33.04C534.38 32.8813 534.306 32.6807 534.306 32.438ZM543.151 36.218L539.217 40.894H543.151V42.098H537.481V40.698L541.457 35.98H537.481V34.776H543.151V36.218ZM547.746 40.936C548.372 40.936 548.876 40.7073 549.258 40.25C549.641 39.7927 549.832 39.1953 549.832 38.458C549.832 37.7207 549.641 37.1233 549.258 36.666C548.876 36.2087 548.372 35.98 547.746 35.98C547.13 35.98 546.631 36.2087 546.248 36.666C545.866 37.1233 545.674 37.7207 545.674 38.458C545.674 39.1953 545.866 39.7927 546.248 40.25C546.631 40.7073 547.13 40.936 547.746 40.936ZM544.218 38.458C544.218 37.7393 544.368 37.1 544.666 36.54C544.965 35.98 545.38 35.5413 545.912 35.224C546.454 34.9067 547.065 34.748 547.746 34.748C548.437 34.748 549.048 34.9067 549.58 35.224C550.122 35.5413 550.542 35.98 550.84 36.54C551.139 37.1 551.288 37.7393 551.288 38.458C551.288 39.1673 551.139 39.802 550.84 40.362C550.542 40.922 550.122 41.3607 549.58 41.678C549.048 41.9953 548.437 42.154 547.746 42.154C547.065 42.154 546.454 41.9953 545.912 41.678C545.38 41.3607 544.965 40.922 544.666 40.362C544.368 39.802 544.218 39.1673 544.218 38.458ZM557.781 38.038C557.781 37.422 557.622 36.932 557.305 36.568C556.997 36.1947 556.572 36.008 556.031 36.008C555.667 36.008 555.336 36.1013 555.037 36.288C554.748 36.4653 554.519 36.708 554.351 37.016C554.192 37.324 554.113 37.6647 554.113 38.038V42.098H552.657V34.776H554.113V36.008C554.337 35.6533 554.645 35.364 555.037 35.14C555.429 34.9067 555.826 34.79 556.227 34.79C556.731 34.79 557.212 34.9067 557.669 35.14C558.126 35.364 558.5 35.714 558.789 36.19C559.088 36.666 559.237 37.2633 559.237 37.982V42.098H557.781V38.038ZM563.66 42.14C563.026 42.14 562.503 41.93 562.092 41.51C561.682 41.09 561.472 40.5487 561.462 39.886V36.106H560.202V34.832H561.462V32.83H562.918V34.832H564.486V36.106H562.918V39.816C562.918 40.068 562.988 40.2873 563.128 40.474C563.268 40.6607 563.446 40.7587 563.66 40.768C563.819 40.768 563.968 40.754 564.108 40.726C564.258 40.6887 564.356 40.6653 564.402 40.656L564.71 42.014C564.253 42.098 563.903 42.14 563.66 42.14ZM569.339 40.964C569.722 40.964 570.081 40.8567 570.417 40.642C570.753 40.418 571.019 40.1193 571.215 39.746C571.42 39.3633 571.523 38.9433 571.523 38.486C571.523 38.0287 571.42 37.6133 571.215 37.24C571.019 36.8573 570.753 36.5587 570.417 36.344C570.081 36.12 569.722 36.008 569.339 36.008C568.714 36.008 568.205 36.2367 567.813 36.694C567.421 37.1513 567.225 37.7487 567.225 38.486C567.225 39.2233 567.421 39.8207 567.813 40.278C568.205 40.7353 568.714 40.964 569.339 40.964ZM565.769 38.486C565.769 37.7767 565.914 37.142 566.203 36.582C566.502 36.022 566.912 35.588 567.435 35.28C567.967 34.9627 568.569 34.804 569.241 34.804C569.67 34.804 570.081 34.9113 570.473 35.126C570.874 35.3313 571.22 35.644 571.509 36.064V34.776H572.965V42.098L571.509 42.112V40.894C571.21 41.3233 570.865 41.6453 570.473 41.86C570.081 42.0653 569.67 42.168 569.241 42.168C568.569 42.168 567.967 42.014 567.435 41.706C566.912 41.3887 566.502 40.95 566.203 40.39C565.914 39.83 565.769 39.1953 565.769 38.486ZM576.085 31.794V42.098H574.629V31.794H576.085Z" fill="#121212"/>
</svg>
