<svg width="166" height="188" viewBox="0 0 166 188" fill="none" xmlns="http://www.w3.org/2000/svg">
<rect width="166" height="188" rx="5" fill="#F7F7F7"/>
<rect x="21" y="20" width="52" height="28" rx="14" fill="#C2C2C2"/>
<path d="M23 34C23 27.3726 28.3726 22 35 22C41.6274 22 47 27.3726 47 34C47 40.6274 41.6274 46 35 46C28.3726 46 23 40.6274 23 34Z" fill="white"/>
<rect x="93" y="20" width="52" height="28" rx="14" fill="#368FF7"/>
<path d="M119 34C119 27.3726 124.373 22 131 22C137.627 22 143 27.3726 143 34C143 40.6274 137.627 46 131 46C124.373 46 119 40.6274 119 34Z" fill="white"/>
<rect x="21" y="60" width="52" height="28" rx="14" fill="#6B6B6B"/>
<path d="M23 74C23 67.3726 28.3726 62 35 62C41.6274 62 47 67.3726 47 74C47 80.6274 41.6274 86 35 86C28.3726 86 23 80.6274 23 74Z" fill="white"/>
<rect x="93" y="60" width="52" height="28" rx="14" fill="#2B72C5"/>
<path d="M119 74C119 67.3726 124.373 62 131 62C137.627 62 143 67.3726 143 74C143 80.6274 137.627 86 131 86C124.373 86 119 80.6274 119 74Z" fill="white"/>
<rect x="21" y="100" width="52" height="28" rx="14" fill="#E1E1E1"/>
<path d="M23 114C23 107.373 28.3726 102 35 102C41.6274 102 47 107.373 47 114C47 120.627 41.6274 126 35 126C28.3726 126 23 120.627 23 114Z" fill="#F7F7F7"/>
<rect x="93" y="100" width="52" height="28" rx="14" fill="#5EA5F9"/>
<path d="M119 114C119 107.373 124.373 102 131 102C137.627 102 143 107.373 143 114C143 120.627 137.627 126 131 126C124.373 126 119 120.627 119 114Z" fill="#EBF4FE"/>
<rect x="21" y="140" width="52" height="28" rx="14" fill="#E1E1E1"/>
<path d="M23 154C23 147.373 28.3726 142 35 142C41.6274 142 47 147.373 47 154C47 160.627 41.6274 166 35 166C28.3726 166 23 160.627 23 154Z" fill="#C2C2C2"/>
<rect x="93" y="140" width="52" height="28" rx="14" fill="#E1E1E1"/>
<path d="M119 154C119 147.373 124.373 142 131 142C137.627 142 143 147.373 143 154C143 160.627 137.627 166 131 166C124.373 166 119 160.627 119 154Z" fill="#C2C2C2"/>
</svg>
