<svg width="908" height="140" viewBox="0 0 908 140" fill="none" xmlns="http://www.w3.org/2000/svg">
<rect width="908" height="140" fill="white"/>
<rect x="386" y="38" width="52" height="28" rx="14" fill="#368FF7"/>
<path d="M412 52C412 45.3726 417.373 40 424 40C430.627 40 436 45.3726 436 52C436 58.6274 430.627 64 424 64C417.373 64 412 58.6274 412 52Z" fill="white"/>
<path d="M454.358 47.928H451.25V57.056H450.018V47.928H446.896V46.836H454.358V47.928ZM459.775 52.968C459.71 52.3707 459.514 51.8713 459.187 51.47C458.87 51.0593 458.389 50.854 457.745 50.854C457.157 50.854 456.653 51.0547 456.233 51.456C455.822 51.848 455.575 52.3567 455.491 52.982L459.775 52.968ZM454.273 53.444C454.273 52.7347 454.418 52.1047 454.707 51.554C454.996 51.0033 455.402 50.574 455.925 50.266C456.448 49.958 457.04 49.804 457.703 49.804C459.094 49.804 460.088 50.4573 460.685 51.764C460.881 52.2867 460.979 52.842 460.979 53.43C460.979 53.5887 460.974 53.7193 460.965 53.822C460.956 53.9153 460.951 53.9667 460.951 53.976H455.491C455.584 54.5827 455.836 55.0773 456.247 55.46C456.667 55.8427 457.157 56.034 457.717 56.034C458.165 56.034 458.534 55.964 458.823 55.824C459.122 55.684 459.327 55.5487 459.439 55.418C459.56 55.278 459.668 55.138 459.761 54.998L460.741 55.502C460.526 55.9407 460.158 56.314 459.635 56.622C459.122 56.93 458.478 57.084 457.703 57.084C457.04 57.084 456.448 56.93 455.925 56.622C455.402 56.314 454.996 55.8847 454.707 55.334C454.418 54.7833 454.273 54.1533 454.273 53.444ZM465.833 53.444L468.535 57.056H467.009L465.147 54.48L463.313 57.056H461.773L464.447 53.444L461.745 49.818H463.299L465.147 52.436L467.009 49.818H468.549L465.833 53.444ZM472.452 57.084C471.855 57.084 471.365 56.888 470.982 56.496C470.6 56.104 470.399 55.6 470.38 54.984V50.938H469.176V49.86H470.38V47.942H471.612V49.86H473.166V50.938H471.612V54.9C471.612 55.18 471.692 55.4227 471.85 55.628C472.009 55.8333 472.21 55.936 472.452 55.936C472.592 55.936 472.718 55.9267 472.83 55.908C472.942 55.8893 473.054 55.866 473.166 55.838L473.39 56.972C473.036 57.0467 472.723 57.084 472.452 57.084Z" fill="#121212"/>
<rect x="386" y="74" width="52" height="28" rx="14" fill="#368FF7"/>
<path d="M412 88C412 81.3726 417.373 76 424 76C430.627 76 436 81.3726 436 88C436 94.6274 430.627 100 424 100C417.373 100 412 94.6274 412 88Z" fill="white"/>
<path d="M454.358 83.928H451.25V93.056H450.018V83.928H446.896V82.836H454.358V83.928ZM459.775 88.968C459.71 88.3707 459.514 87.8713 459.187 87.47C458.87 87.0593 458.389 86.854 457.745 86.854C457.157 86.854 456.653 87.0547 456.233 87.456C455.822 87.848 455.575 88.3567 455.491 88.982L459.775 88.968ZM454.273 89.444C454.273 88.7347 454.418 88.1047 454.707 87.554C454.996 87.0033 455.402 86.574 455.925 86.266C456.448 85.958 457.04 85.804 457.703 85.804C459.094 85.804 460.088 86.4573 460.685 87.764C460.881 88.2867 460.979 88.842 460.979 89.43C460.979 89.5887 460.974 89.7193 460.965 89.822C460.956 89.9153 460.951 89.9667 460.951 89.976H455.491C455.584 90.5827 455.836 91.0773 456.247 91.46C456.667 91.8427 457.157 92.034 457.717 92.034C458.165 92.034 458.534 91.964 458.823 91.824C459.122 91.684 459.327 91.5487 459.439 91.418C459.56 91.278 459.668 91.138 459.761 90.998L460.741 91.502C460.526 91.9407 460.158 92.314 459.635 92.622C459.122 92.93 458.478 93.084 457.703 93.084C457.04 93.084 456.448 92.93 455.925 92.622C455.402 92.314 454.996 91.8847 454.707 91.334C454.418 90.7833 454.273 90.1533 454.273 89.444ZM465.833 89.444L468.535 93.056H467.009L465.147 90.48L463.313 93.056H461.773L464.447 89.444L461.745 85.818H463.299L465.147 88.436L467.009 85.818H468.549L465.833 89.444ZM472.452 93.084C471.855 93.084 471.365 92.888 470.982 92.496C470.6 92.104 470.399 91.6 470.38 90.984V86.938H469.176V85.86H470.38V83.942H471.612V85.86H473.166V86.938H471.612V90.9C471.612 91.18 471.692 91.4227 471.85 91.628C472.009 91.8333 472.21 91.936 472.452 91.936C472.592 91.936 472.718 91.9267 472.83 91.908C472.942 91.8893 473.054 91.866 473.166 91.838L473.39 92.972C473.036 93.0467 472.723 93.084 472.452 93.084Z" fill="#121212"/>
<path d="M475 66L475 74" stroke="#6B6B6B" stroke-width="1.2"/>
<rect x="475" y="66" width="8.00002" height="89" transform="rotate(90 475 66)" fill="#FF0000" fill-opacity="0.1"/>
<path d="M486.172 73.964C486.76 73.964 487.236 73.796 487.6 73.46C487.973 73.1147 488.16 72.6713 488.16 72.13C488.16 71.5887 487.973 71.15 487.6 70.814C487.236 70.4687 486.76 70.296 486.172 70.296C485.575 70.296 485.089 70.4687 484.716 70.814C484.343 71.15 484.156 71.5887 484.156 72.13C484.156 72.6713 484.343 73.1147 484.716 73.46C485.089 73.796 485.575 73.964 486.172 73.964ZM482.7 72.158C482.7 71.7007 482.859 71.2433 483.176 70.786C483.493 70.3193 483.899 69.9507 484.394 69.68C483.983 69.4 483.647 69.0547 483.386 68.644C483.125 68.2333 482.994 67.846 482.994 67.482C482.994 66.9407 483.129 66.46 483.4 66.04C483.671 65.6107 484.044 65.2793 484.52 65.046C485.005 64.8033 485.556 64.682 486.172 64.682C486.788 64.682 487.334 64.8033 487.81 65.046C488.295 65.2793 488.673 65.6107 488.944 66.04C489.215 66.46 489.35 66.9407 489.35 67.482C489.35 67.8553 489.219 68.2473 488.958 68.658C488.697 69.0687 488.361 69.4093 487.95 69.68C488.445 69.96 488.846 70.3287 489.154 70.786C489.462 71.2433 489.616 71.7007 489.616 72.158C489.616 72.746 489.471 73.2733 489.182 73.74C488.893 74.1973 488.487 74.5567 487.964 74.818C487.441 75.07 486.844 75.196 486.172 75.196C485.5 75.196 484.898 75.07 484.366 74.818C483.843 74.5567 483.433 74.1973 483.134 73.74C482.845 73.2733 482.7 72.746 482.7 72.158ZM484.45 67.482C484.45 67.9487 484.609 68.3267 484.926 68.616C485.243 68.9053 485.659 69.05 486.172 69.05C486.676 69.05 487.087 68.9053 487.404 68.616C487.731 68.3173 487.894 67.9393 487.894 67.482C487.894 67.0247 487.731 66.6513 487.404 66.362C487.087 66.0633 486.676 65.914 486.172 65.914C485.659 65.914 485.243 66.0587 484.926 66.348C484.609 66.6373 484.45 67.0153 484.45 67.482ZM494.933 73.964C495.558 73.964 496.067 73.7353 496.459 73.278C496.851 72.8113 497.047 72.2047 497.047 71.458C497.047 70.7207 496.851 70.1233 496.459 69.666C496.067 69.2087 495.558 68.98 494.933 68.98C494.541 68.98 494.177 69.092 493.841 69.316C493.505 69.54 493.239 69.8433 493.043 70.226C492.847 70.5993 492.749 71.01 492.749 71.458C492.749 71.9153 492.847 72.3353 493.043 72.718C493.239 73.1007 493.505 73.404 493.841 73.628C494.177 73.852 494.541 73.964 494.933 73.964ZM491.279 67.776H492.735V69.036C492.987 68.616 493.337 68.3033 493.785 68.098C494.233 67.8833 494.644 67.776 495.017 67.776C495.698 67.776 496.3 67.9347 496.823 68.252C497.355 68.56 497.766 68.994 498.055 69.554C498.354 70.1047 498.503 70.7393 498.503 71.458C498.503 72.1767 498.354 72.8207 498.055 73.39C497.766 73.95 497.355 74.3887 496.823 74.706C496.3 75.014 495.698 75.168 495.017 75.168C494.644 75.168 494.233 75.0607 493.785 74.846C493.337 74.622 492.987 74.3 492.735 73.88V78.234H491.279V67.776ZM503.646 71.444L506.348 75.098H504.542L502.792 72.62L501.056 75.098H499.25L501.91 71.444L499.194 67.776H501.014L502.792 70.324L504.556 67.776H506.376L503.646 71.444Z" fill="#6B6B6B"/>
</svg>
