<svg xmlns="http://www.w3.org/2000/svg" width="912" height="160" fill="none"><path fill="#fff" d="M0 0h912v160H0z"/><path fill="#6B6B6B" d="M297.576 98.576a.6.6 0 0 0 0 .848l3.818 3.819a.601.601 0 0 0 .849-.849L298.849 99l3.394-3.394a.6.6 0 0 0-.849-.849zm316.848.848a.6.6 0 0 0 0-.848l-3.818-3.819a.6.6 0 0 0-.849.849L613.151 99l-3.394 3.394a.601.601 0 0 0 .849.849zM298 99.6h316v-1.2H298zm123.464 10.454h-5.614v3.248h4.718v1.26h-4.718v4.536h-1.456v-10.304h7.07zm3.024 1.764v7.28h-1.456v-7.28zm-1.554-2.38q0-.364.224-.588a.82.82 0 0 1 .602-.238q.365 0 .588.238a.77.77 0 0 1 .238.588.8.8 0 0 1-.238.588.77.77 0 0 1-.588.238.85.85 0 0 1-.602-.224.85.85 0 0 1-.224-.602m7.242 6.006 2.702 3.654h-1.806l-1.75-2.478-1.736 2.478h-1.806l2.66-3.654-2.716-3.668h1.82l1.778 2.548 1.764-2.548h1.82zm8.733-.546q-.099-.812-.574-1.358-.477-.56-1.372-.56-.813 0-1.414.56-.588.546-.714 1.372zm-5.474.56q0-1.078.448-1.918.447-.84 1.232-1.302.798-.476 1.82-.476 1.442 0 2.114.7.686.7.924 1.288a4.5 4.5 0 0 1 .322 1.736q0 .196-.014.35-.014.14-.014.182h-5.432q.126.84.728 1.372.601.532 1.386.532.63 0 1.036-.196.42-.196.574-.364t.294-.378l1.176.532q-.337.686-1.12 1.162-.784.462-1.974.462-1.022 0-1.82-.462a3.34 3.34 0 0 1-1.232-1.316q-.448-.84-.448-1.904m11.549 3.71q-1.008 0-1.806-.462a3.35 3.35 0 0 1-1.232-1.316q-.448-.84-.448-1.918t.434-1.918a3.2 3.2 0 0 1 1.246-1.316 3.46 3.46 0 0 1 1.806-.476q.588 0 1.232.308.644.294 1.078.98v-4.256h1.456v10.318h-1.456v-1.218a2.76 2.76 0 0 1-1.092.966q-.643.308-1.218.308m-2.03-3.682q0 1.12.588 1.82.601.686 1.554.686a1.93 1.93 0 0 0 1.092-.336q.504-.336.798-.91.308-.574.308-1.26 0-.672-.308-1.246a2.36 2.36 0 0 0-.798-.91 1.93 1.93 0 0 0-1.092-.336q-.952 0-1.554.7-.588.686-.588 1.792m11.871-4.732q.364 0 .588.224t.224.588a.82.82 0 0 1-.238.602.78.78 0 0 1-.574.224.8.8 0 0 1-.588-.238.8.8 0 0 1-.238-.588q0-.35.224-.574a.82.82 0 0 1 .602-.238m-.826 5.516q0-.35.224-.574a.82.82 0 0 1 .602-.238q.364 0 .588.224t.224.588a.82.82 0 0 1-.238.602.78.78 0 0 1-.574.224.8.8 0 0 1-.588-.238.8.8 0 0 1-.238-.588m11.933-2.492q.672.392 1.064 1.064.406.658.406 1.316 0 .854-.434 1.526a2.9 2.9 0 0 1-1.218 1.05q-.784.378-1.778.378t-1.778-.378a3.1 3.1 0 0 1-1.232-1.078 2.94 2.94 0 0 1-.434-1.582h1.456q0 .77.56 1.26t1.428.49q.896 0 1.456-.476.56-.49.56-1.26 0-.756-.56-1.232T464 114.38h-.728v-1.218H464q.812 0 1.33-.434t.518-1.12-.504-1.106q-.504-.434-1.288-.434-.77 0-1.274.434-.49.434-.49 1.12h-1.456q0-.827.406-1.47.42-.659 1.148-1.008.728-.364 1.666-.364.924 0 1.652.35.742.35 1.148.98t.406 1.428q0 .602-.364 1.232a3 3 0 0 1-.966 1.008m6.466 5.264-1.456-.014v-8.61l-1.778 1.008-.616-1.218 2.408-1.344h1.442zm5.418-1.176q.91 0 1.484-.588.588-.588.588-1.526t-.588-1.526q-.573-.602-1.484-.602-.896 0-1.47.602-.573.588-.574 1.526 0 .938.574 1.526t1.47.588m-3.5-2.114q0-.924.56-1.932l2.814-4.984h1.666l-2.044 3.57q.239-.056.56-.056 1.008 0 1.792.448.798.434 1.232 1.204.448.77.448 1.75t-.448 1.75a3.15 3.15 0 0 1-1.246 1.204q-.797.434-1.82.434-1.022 0-1.82-.434a3.16 3.16 0 0 1-1.246-1.204q-.447-.77-.448-1.75m12.343 2.212q.938 0 1.526-.686.588-.7.588-1.82 0-1.106-.588-1.792t-1.526-.686a1.93 1.93 0 0 0-1.092.336 2.36 2.36 0 0 0-.798.91 2.6 2.6 0 0 0-.294 1.232q0 .685.294 1.26.294.574.798.91t1.092.336m-3.654-6.188h1.456v1.26q.378-.63 1.05-.938.671-.322 1.232-.322 1.022 0 1.806.476.798.462 1.232 1.302.447.826.448 1.904 0 1.078-.448 1.932-.435.84-1.232 1.316-.784.462-1.806.462-.56 0-1.232-.322a2.5 2.5 0 0 1-1.05-.966v4.354h-1.456zm12.367 3.668 2.702 3.654h-1.806l-1.75-2.478-1.736 2.478h-1.806l2.66-3.654-2.716-3.668h1.82l1.778 2.548 1.764-2.548h1.82zm-194.81-77.606h5.11v1.26h-6.566V28.794h1.456zm9.321.126q.574 0 1.078-.322.504-.336.798-.896.308-.575.308-1.26 0-.686-.308-1.246a2.26 2.26 0 0 0-.798-.896 1.9 1.9 0 0 0-1.078-.336q-.938 0-1.526.686t-.588 1.792.588 1.792 1.526.686m-3.57-2.478q0-1.065.434-1.904.449-.84 1.232-1.302.798-.476 1.806-.476.644 0 1.232.322.603.308 1.036.938v-1.288h1.456v7.322l-1.456.014v-1.218q-.447.644-1.036.966a2.6 2.6 0 0 1-1.232.308q-1.008 0-1.806-.462a3.36 3.36 0 0 1-1.232-1.316q-.434-.84-.434-1.904m12.724 3.682q-.546 0-1.19-.294-.63-.294-1.092-.98v1.218h-1.456V28.794h1.456v4.256q.462-.714 1.092-.994.644-.294 1.204-.294 1.008 0 1.806.476a3.3 3.3 0 0 1 1.246 1.316q.448.84.448 1.918t-.448 1.918a3.3 3.3 0 0 1-1.246 1.316q-.798.462-1.82.462m-2.282-3.682q0 .685.294 1.26.294.574.798.91.518.336 1.106.336.952 0 1.54-.686.602-.7.602-1.82 0-1.106-.602-1.792-.588-.7-1.54-.7a1.93 1.93 0 0 0-1.092.336 2.5 2.5 0 0 0-.812.91 2.7 2.7 0 0 0-.294 1.246m12.43-.588q-.098-.812-.574-1.358-.476-.56-1.372-.56-.812 0-1.414.56-.588.546-.714 1.372zm-5.474.56q0-1.078.448-1.918a3.25 3.25 0 0 1 1.232-1.302q.798-.476 1.82-.476 1.442 0 2.114.7.685.7.924 1.288.322.784.322 1.736 0 .195-.014.35a3 3 0 0 0-.014.182h-5.432q.126.84.728 1.372a2.03 2.03 0 0 0 1.386.532q.63 0 1.036-.196.42-.196.574-.364a3 3 0 0 0 .294-.378l1.176.532q-.336.686-1.12 1.162-.785.462-1.974.462-1.022 0-1.82-.462a3.35 3.35 0 0 1-1.232-1.316q-.448-.84-.448-1.904m9.618-6.664v10.304h-1.456V28.794z"/><path fill="#fff" d="M298.5 53a3.5 3.5 0 0 1 3.5-3.5h308a3.5 3.5 0 0 1 3.5 3.5v34a3.5 3.5 0 0 1-3.5 3.5H302a3.5 3.5 0 0 1-3.5-3.5z"/><path stroke="#C2C2C2" d="M298.5 53a3.5 3.5 0 0 1 3.5-3.5h308a3.5 3.5 0 0 1 3.5 3.5v34a3.5 3.5 0 0 1-3.5 3.5H302a3.5 3.5 0 0 1-3.5-3.5z"/><path fill="#C2C2C2" d="M320.784 66.352V63.12h1.456v10.528h-1.456v-6.08h-2.96v-1.216zm-10.208 4.192q1.584-.592 2.528-1.936a5.04 5.04 0 0 0 .944-2.96v-1.696h1.456v1.728q0 1.471.912 2.736.912 1.248 2.448 1.808l-.768 1.136a5.9 5.9 0 0 1-1.984-1.28 6 6 0 0 1-1.312-1.968 6 6 0 0 1-1.344 2.176 5.75 5.75 0 0 1-2.112 1.408zm2.528 1.952h1.456v3.232h8.016v1.2h-9.472zm17.344-8.384v1.184H326.4v1.632h3.92v1.12h-3.92v1.744a48 48 0 0 0 2.544-.08 15 15 0 0 0 2.016-.272l.144 1.184q-1.151.224-2.288.304-1.135.064-2.896.064h-.928v-6.88zm-3.632 8.272h9.52v4.848h-1.456v-3.648h-8.064zm5.04-9.008h1.376v3.36h1.712v-3.632h1.392v8.576h-1.392v-3.744h-1.712V71.6h-1.376zm17.297-.256v5.728h2.24v1.216h-2.24v7.168h-1.456V63.12zm-10.992 2.208h3.456v-2.032h1.488v2.032h3.376v1.184h-8.32zm.752 5.536q0-.945.448-1.68.447-.751 1.232-1.168a3.8 3.8 0 0 1 1.776-.416q.991 0 1.776.416.8.416 1.248 1.168.447.735.448 1.68 0 .945-.448 1.696-.448.736-1.248 1.152-.784.416-1.776.416a3.8 3.8 0 0 1-1.776-.416 3.1 3.1 0 0 1-1.232-1.152 3.25 3.25 0 0 1-.448-1.696m1.392 0q0 .912.576 1.488t1.488.576 1.488-.576q.591-.576.592-1.488 0-.912-.592-1.488-.576-.576-1.488-.576-.897 0-1.488.576-.576.576-.576 1.488m19.504-2.768v-4.688h1.36v13.12h-1.36v-7.232h-2.192v-1.2zm-7.936 5.056q1.424-.864 2.224-2.544.8-1.695.8-3.584v-2.592h1.408v2.544q0 1.776.736 3.376t2.096 2.448l-.832 1.136q-.944-.576-1.632-1.584a8.5 8.5 0 0 1-1.056-2.288 8.7 8.7 0 0 1-1.136 2.464q-.72 1.088-1.712 1.712zm10.8-10.048h1.408v14.112h-1.408zm6.289 11.136v-3.728q-.88-.48-1.376-1.216a3.06 3.06 0 0 1-.48-1.68q0-1.087.656-1.92.672-.832 1.84-1.28 1.167-.465 2.656-.464 1.503 0 2.672.464 1.183.448 1.84 1.28.656.832.656 1.92 0 .928-.48 1.664-.464.72-1.328 1.216v3.744h3.056v1.2H365.89v-1.2zm-.432-6.624q0 .752.464 1.328.48.56 1.328.88.847.304 1.936.304 1.087 0 1.936-.304.848-.32 1.328-.88.48-.576.48-1.328t-.48-1.312q-.48-.576-1.328-.88-.849-.32-1.936-.32-1.089 0-1.936.32-.849.304-1.328.88a2 2 0 0 0-.464 1.312m5.616 6.624v-3.184a7.8 7.8 0 0 1-1.888.208q-1.025 0-1.856-.208v3.184z"/><path stroke="#C2C2C2" stroke-linejoin="bevel" stroke-width="1.4" d="m598 69-6 5-6-5"/></svg>