<svg xmlns="http://www.w3.org/2000/svg" width="908" height="161" fill="none"><path fill="#fff" d="M.5 0h907v161H.5z"/><path fill="#6B6B6B" d="M251.562 56.838h5.11v1.26h-6.566V47.794h1.456zm9.321.126q.574 0 1.078-.322.504-.336.798-.896.308-.575.308-1.26 0-.686-.308-1.246a2.26 2.26 0 0 0-.798-.896 1.9 1.9 0 0 0-1.078-.336q-.938 0-1.526.686t-.588 1.792.588 1.792 1.526.686m-3.57-2.478q0-1.065.434-1.904.449-.84 1.232-1.302.798-.476 1.806-.476.644 0 1.232.322.603.308 1.036.938v-1.288h1.456v7.322l-1.456.014v-1.218q-.447.644-1.036.966a2.6 2.6 0 0 1-1.232.308q-1.008 0-1.806-.462a3.36 3.36 0 0 1-1.232-1.316q-.434-.84-.434-1.904m12.724 3.682q-.546 0-1.19-.294-.63-.294-1.092-.98v1.218h-1.456V47.794h1.456v4.256q.462-.714 1.092-.994.644-.294 1.204-.294 1.008 0 1.806.476a3.3 3.3 0 0 1 1.246 1.316q.448.84.448 1.918t-.448 1.918a3.3 3.3 0 0 1-1.246 1.316q-.798.462-1.82.462m-2.282-3.682q0 .686.294 1.26t.798.91q.518.336 1.106.336.952 0 1.54-.686.602-.7.602-1.82 0-1.106-.602-1.792-.588-.7-1.54-.7a1.93 1.93 0 0 0-1.092.336 2.5 2.5 0 0 0-.812.91 2.7 2.7 0 0 0-.294 1.246m12.43-.588q-.098-.812-.574-1.358-.476-.56-1.372-.56-.812 0-1.414.56-.588.546-.714 1.372zm-5.474.56q0-1.078.448-1.918a3.25 3.25 0 0 1 1.232-1.302q.798-.476 1.82-.476 1.442 0 2.114.7.685.7.924 1.288.322.784.322 1.736 0 .195-.014.35a3 3 0 0 0-.014.182h-5.432q.126.84.728 1.372a2.03 2.03 0 0 0 1.386.532q.63 0 1.036-.196.42-.196.574-.364a3 3 0 0 0 .294-.378l1.176.532q-.336.686-1.12 1.162-.785.462-1.974.462-1.022 0-1.82-.462a3.35 3.35 0 0 1-1.232-1.316q-.448-.84-.448-1.904m9.618-6.664v10.304h-1.456V47.794z"/><mask id="a" fill="#fff"><path d="M249 72a4 4 0 0 1 4-4h192a4 4 0 0 1 4 4v34a4 4 0 0 1-4 4H253a4 4 0 0 1-4-4z"/></mask><path fill="#fff" d="M249 72a4 4 0 0 1 4-4h192a4 4 0 0 1 4 4v34a4 4 0 0 1-4 4H253a4 4 0 0 1-4-4z"/><path fill="#C2C2C2" d="M253 69h192v-2H253zm195 3v34h2V72zm-3 37H253v2h192zm-195-3V72h-2v34zm3 3a3 3 0 0 1-3-3h-2a5 5 0 0 0 5 5zm195-3a3 3 0 0 1-3 3v2a5 5 0 0 0 5-5zm-3-37a3 3 0 0 1 3 3h2a5 5 0 0 0-5-5zm-192-2a5 5 0 0 0-5 5h2a3 3 0 0 1 3-3z" mask="url(#a)"/><path fill="#C2C2C2" d="M270.552 84.632H267v10.432h-1.408V84.632h-3.568v-1.248h8.528zm6.191 5.76q-.112-1.024-.672-1.712-.544-.704-1.648-.704-1.008 0-1.728.688-.704.672-.848 1.744zm-6.288.544q0-1.215.496-2.16.495-.945 1.392-1.472.895-.528 2.032-.528 2.384 0 3.408 2.24.336.896.336 1.904a5 5 0 0 1-.032.624h-6.24q.159 1.04.864 1.696.72.656 1.68.656.768 0 1.264-.24.512-.24.704-.464.207-.24.368-.48l1.12.576q-.369.752-1.264 1.28-.88.528-2.208.528-1.137 0-2.032-.528a3.6 3.6 0 0 1-1.392-1.472q-.496-.945-.496-2.16m13.211 0 3.088 4.128h-1.744l-2.128-2.944-2.096 2.944h-1.76l3.056-4.128-3.088-4.144h1.776l2.112 2.992 2.128-2.992h1.76zm7.565 4.16q-1.023 0-1.68-.672-.655-.672-.688-1.728v-4.624h-1.376V86.84h1.376v-2.192h1.408v2.192h1.776v1.232h-1.776V92.6q0 .48.272.832a.84.84 0 0 0 .688.352q.24 0 .432-.032t.384-.08l.256 1.296a5.3 5.3 0 0 1-1.072.128"/><path fill="#fff" d="M461.5 72a3.5 3.5 0 0 1 3.5-3.5h192a3.5 3.5 0 0 1 3.5 3.5v34a3.5 3.5 0 0 1-3.5 3.5H465a3.5 3.5 0 0 1-3.5-3.5z"/><path stroke="#C2C2C2" d="M461.5 72a3.5 3.5 0 0 1 3.5-3.5h192a3.5 3.5 0 0 1 3.5 3.5v34a3.5 3.5 0 0 1-3.5 3.5H465a3.5 3.5 0 0 1-3.5-3.5z"/><path fill="#C2C2C2" d="M484.712 82.712v4.832h-4.032v1.664h5.664v1.168h-12.752v-1.168h5.648v-1.664h-4.032v-4.832zm-9.696 9.024h9.76v4.496h-1.456V92.92h-8.304zm8.256-5.36v-2.512h-6.64v2.512zm9.792 3.456v-1.376h-4v-3.552h8.064v-1.312h-8.096v-1.136h9.536v3.504h-8.08v1.36h8.384v1.136h-4.336v1.376h5.664v1.184h-12.784v-1.184zm-4.224 2.192h9.824v4.08h-1.472v-2.896h-8.352zm18.769-9.664q2.367 0 3.68.624 1.328.624 1.328 1.792 0 1.184-1.328 1.824-1.313.624-3.68.624-2.369 0-3.68-.624-1.312-.64-1.312-1.824 0-1.168 1.312-1.792 1.311-.624 3.68-.624m-6.368 5.744h12.752v1.168h-12.752zm1.52 2.272h9.616v3.28h-8.144v1.296h8.56v1.136h-9.984v-3.472h8.128V91.48h-8.176zm1.36-5.6q0 .656.896 1.008.912.336 2.592.336 1.695 0 2.592-.336.912-.352.912-1.008 0-.64-.912-.992t-2.592-.352q-1.665 0-2.576.352-.912.352-.912.992m17.592-2.464v3.04h8.176v1.184h-9.6v-4.224zm-3.12 5.344h12.784v1.168h-5.696v1.392h4.096v3.376h-8.144v1.344h8.608v1.152h-10.064v-3.552h8.144v-1.184h-8.176v-1.136h4.096v-1.392h-5.648zm25.456-5.568v14.16h-1.44v-7.616h-2.576v-1.184h2.576v-5.36zM532.897 83.4h6.304v5.024h-4.832v3.248a45 45 0 0 0 3.136-.096 30 30 0 0 0 2.816-.336l.128 1.184q-1.488.272-2.944.368a54 54 0 0 1-3.472.096h-1.12v-5.632h4.864v-2.672h-4.88zm27.064 1.952V82.12h1.456v10.528h-1.456v-6.08h-2.96v-1.216zm-10.208 4.192q1.584-.592 2.528-1.936a5.04 5.04 0 0 0 .944-2.96v-1.696h1.456v1.728q0 1.472.912 2.736.912 1.248 2.448 1.808l-.768 1.136a5.9 5.9 0 0 1-1.984-1.28 6 6 0 0 1-1.312-1.968 6 6 0 0 1-1.344 2.176 5.75 5.75 0 0 1-2.112 1.408zm2.528 1.952h1.456v3.232h8.016v1.2h-9.472zm17.344-8.384v1.184h-4.048v1.632h3.92v1.12h-3.92v1.744a48 48 0 0 0 2.544-.08 15 15 0 0 0 2.016-.272l.144 1.184q-1.151.224-2.288.304-1.135.064-2.896.064h-.928v-6.88zm-3.632 8.272h9.52v4.848h-1.456v-3.648h-8.064zm5.04-9.008h1.376v3.36h1.712v-3.632h1.392v8.576h-1.392v-3.744h-1.712V90.6h-1.376zm17.297-.256v5.728h2.24v1.216h-2.24v7.168h-1.456V82.12zm-10.992 2.208h3.456v-2.032h1.488v2.032h3.376v1.184h-8.32zm.752 5.536q0-.945.448-1.68.447-.751 1.232-1.168a3.8 3.8 0 0 1 1.776-.416q.992 0 1.776.416.8.416 1.248 1.168.447.735.448 1.68 0 .945-.448 1.696-.449.736-1.248 1.152-.785.416-1.776.416a3.8 3.8 0 0 1-1.776-.416 3.1 3.1 0 0 1-1.232-1.152 3.25 3.25 0 0 1-.448-1.696m1.392 0q0 .912.576 1.488t1.488.576 1.488-.576q.591-.576.592-1.488 0-.912-.592-1.488-.576-.576-1.488-.576-.897 0-1.488.576-.576.576-.576 1.488m19.504-2.768v-4.688h1.36v13.12h-1.36v-7.232h-2.192v-1.2zm-7.936 5.056q1.424-.864 2.224-2.544.8-1.695.8-3.584v-2.592h1.408v2.544q0 1.776.736 3.376t2.096 2.448l-.832 1.136q-.944-.576-1.632-1.584a8.5 8.5 0 0 1-1.056-2.288 8.7 8.7 0 0 1-1.136 2.464q-.72 1.088-1.712 1.712zm10.8-10.048h1.408v14.112h-1.408zm6.288 11.136v-3.728q-.88-.48-1.376-1.216a3.06 3.06 0 0 1-.48-1.68q0-1.087.656-1.92.673-.832 1.84-1.28 1.168-.465 2.656-.464 1.505 0 2.672.464 1.185.448 1.84 1.28a3 3 0 0 1 .656 1.92q0 .928-.48 1.664-.464.72-1.328 1.216v3.744h3.056v1.2h-12.784v-1.2zm-.432-6.624q0 .752.464 1.328.48.56 1.328.88.849.304 1.936.304 1.089 0 1.936-.304.849-.32 1.328-.88.48-.576.48-1.328t-.48-1.312q-.48-.576-1.328-.88-.847-.32-1.936-.32-1.087 0-1.936.32-.848.304-1.328.88-.464.56-.464 1.312m5.616 6.624v-3.184a7.8 7.8 0 0 1-1.888.208q-1.023 0-1.856-.208v3.184z"/><path stroke="#C2C2C2" stroke-linejoin="bevel" stroke-width="1.4" d="m645 88-6 5-6-5"/><path fill="#fff" d="M449 68h12v42h-12z"/><path fill="red" fill-opacity=".1" d="M449 68h12v42h-12z"/><path fill="#6B6B6B" d="M448.076 78.576a.6.6 0 0 0 0 .848l3.818 3.819a.6.6 0 0 0 .849-.849L449.349 79l3.394-3.394a.6.6 0 0 0-.849-.849zm12.848.848a.6.6 0 0 0 0-.848l-3.818-3.819a.6.6 0 0 0-.849.849L459.651 79l-3.394 3.394a.6.6 0 0 0 .849.849zM448.5 79.6h12v-1.2h-12zm-4.253-18.558-1.456-.014v-8.61l-1.778 1.008-.616-1.218 2.408-1.344h1.442zm2.128-1.274 1.428-1.316a62 62 0 0 0 1.806-1.68q.686-.672 1.148-1.372.462-.714.462-1.344 0-.868-.504-1.414-.49-.56-1.274-.56-.601 0-1.162.392a2.35 2.35 0 0 0-.826 1.008l-1.274-.56a3.57 3.57 0 0 1 1.33-1.554q.924-.615 1.932-.616.939 0 1.666.42.743.42 1.148 1.176.42.742.42 1.708 0 .953-.574 1.89a8.6 8.6 0 0 1-1.372 1.736 36 36 0 0 1-2.044 1.862l-.252.224h4.396v1.274h-6.314zm11.763.196q.939 0 1.526-.686.588-.7.588-1.82 0-1.106-.588-1.792-.587-.686-1.526-.686a1.93 1.93 0 0 0-1.092.336 2.37 2.37 0 0 0-.798.91 2.6 2.6 0 0 0-.294 1.232q0 .686.294 1.26t.798.91 1.092.336m-3.654-6.188h1.456v1.26q.378-.63 1.05-.938.672-.322 1.232-.322 1.023 0 1.806.476.798.462 1.232 1.302.448.825.448 1.904t-.448 1.932q-.434.84-1.232 1.316-.783.462-1.806.462-.56 0-1.232-.322a2.5 2.5 0 0 1-1.05-.966v4.354h-1.456zm12.367 3.668 2.702 3.654h-1.806l-1.75-2.478-1.736 2.478h-1.806l2.66-3.654-2.716-3.668h1.82l1.778 2.548 1.764-2.548h1.82z"/></svg>