<svg width="908" height="266" viewBox="0 0 908 266" fill="none" xmlns="http://www.w3.org/2000/svg">
<rect width="907" height="266" transform="translate(0.5)" fill="white"/>
<g clip-path="url(#clip0_2269_3238)">
<rect width="112" height="42" transform="translate(303 29)" fill="white"/>
<path d="M324.552 45.632H321V56.064H319.592V45.632H316.024V44.384H324.552V45.632ZM330.743 51.392C330.668 50.7093 330.444 50.1387 330.071 49.68C329.708 49.2107 329.159 48.976 328.423 48.976C327.751 48.976 327.175 49.2053 326.695 49.664C326.225 50.112 325.943 50.6933 325.847 51.408L330.743 51.392ZM324.455 51.936C324.455 51.1253 324.62 50.4053 324.951 49.776C325.281 49.1467 325.745 48.656 326.343 48.304C326.94 47.952 327.617 47.776 328.375 47.776C329.964 47.776 331.1 48.5227 331.783 50.016C332.007 50.6133 332.119 51.248 332.119 51.92C332.119 52.1013 332.113 52.2507 332.103 52.368C332.092 52.4747 332.087 52.5333 332.087 52.544H325.847C325.953 53.2373 326.241 53.8027 326.711 54.24C327.191 54.6773 327.751 54.896 328.391 54.896C328.903 54.896 329.324 54.816 329.655 54.656C329.996 54.496 330.231 54.3413 330.359 54.192C330.497 54.032 330.62 53.872 330.727 53.712L331.847 54.288C331.601 54.7893 331.18 55.216 330.583 55.568C329.996 55.92 329.26 56.096 328.375 56.096C327.617 56.096 326.94 55.92 326.343 55.568C325.745 55.216 325.281 54.7253 324.951 54.096C324.62 53.4667 324.455 52.7467 324.455 51.936ZM337.666 51.936L340.754 56.064H339.01L336.882 53.12L334.786 56.064H333.026L336.082 51.936L332.994 47.792H334.77L336.882 50.784L339.01 47.792H340.77L337.666 51.936ZM345.231 56.096C344.549 56.096 343.989 55.872 343.551 55.424C343.114 54.976 342.885 54.4 342.863 53.696V49.072H341.487V47.84H342.863V45.648H344.271V47.84H346.047V49.072H344.271V53.6C344.271 53.92 344.362 54.1973 344.543 54.432C344.725 54.6667 344.954 54.784 345.231 54.784C345.391 54.784 345.535 54.7733 345.663 54.752C345.791 54.7307 345.919 54.704 346.047 54.672L346.303 55.968C345.898 56.0533 345.541 56.096 345.231 56.096Z" fill="#6B6B6B"/>
<rect width="112" height="42" transform="translate(303 71)" fill="white"/>
<path d="M324.552 87.632H321V98.064H319.592V87.632H316.024V86.384H324.552V87.632ZM330.743 93.392C330.668 92.7093 330.444 92.1387 330.071 91.68C329.708 91.2107 329.159 90.976 328.423 90.976C327.751 90.976 327.175 91.2053 326.695 91.664C326.225 92.112 325.943 92.6933 325.847 93.408L330.743 93.392ZM324.455 93.936C324.455 93.1253 324.62 92.4053 324.951 91.776C325.281 91.1467 325.745 90.656 326.343 90.304C326.94 89.952 327.617 89.776 328.375 89.776C329.964 89.776 331.1 90.5227 331.783 92.016C332.007 92.6133 332.119 93.248 332.119 93.92C332.119 94.1013 332.113 94.2507 332.103 94.368C332.092 94.4747 332.087 94.5333 332.087 94.544H325.847C325.953 95.2373 326.241 95.8027 326.711 96.24C327.191 96.6773 327.751 96.896 328.391 96.896C328.903 96.896 329.324 96.816 329.655 96.656C329.996 96.496 330.231 96.3413 330.359 96.192C330.497 96.032 330.62 95.872 330.727 95.712L331.847 96.288C331.601 96.7893 331.18 97.216 330.583 97.568C329.996 97.92 329.26 98.096 328.375 98.096C327.617 98.096 326.94 97.92 326.343 97.568C325.745 97.216 325.281 96.7253 324.951 96.096C324.62 95.4667 324.455 94.7467 324.455 93.936ZM337.666 93.936L340.754 98.064H339.01L336.882 95.12L334.786 98.064H333.026L336.082 93.936L332.994 89.792H334.77L336.882 92.784L339.01 89.792H340.77L337.666 93.936ZM345.231 98.096C344.549 98.096 343.989 97.872 343.551 97.424C343.114 96.976 342.885 96.4 342.863 95.696V91.072H341.487V89.84H342.863V87.648H344.271V89.84H346.047V91.072H344.271V95.6C344.271 95.92 344.362 96.1973 344.543 96.432C344.725 96.6667 344.954 96.784 345.231 96.784C345.391 96.784 345.535 96.7733 345.663 96.752C345.791 96.7307 345.919 96.704 346.047 96.672L346.303 97.968C345.898 98.0533 345.541 98.096 345.231 98.096Z" fill="#6B6B6B"/>
<rect width="112" height="42" transform="translate(303 113)" fill="white"/>
<path d="M324.552 129.632H321V140.064H319.592V129.632H316.024V128.384H324.552V129.632ZM330.743 135.392C330.668 134.709 330.444 134.139 330.071 133.68C329.708 133.211 329.159 132.976 328.423 132.976C327.751 132.976 327.175 133.205 326.695 133.664C326.225 134.112 325.943 134.693 325.847 135.408L330.743 135.392ZM324.455 135.936C324.455 135.125 324.62 134.405 324.951 133.776C325.281 133.147 325.745 132.656 326.343 132.304C326.94 131.952 327.617 131.776 328.375 131.776C329.964 131.776 331.1 132.523 331.783 134.016C332.007 134.613 332.119 135.248 332.119 135.92C332.119 136.101 332.113 136.251 332.103 136.368C332.092 136.475 332.087 136.533 332.087 136.544H325.847C325.953 137.237 326.241 137.803 326.711 138.24C327.191 138.677 327.751 138.896 328.391 138.896C328.903 138.896 329.324 138.816 329.655 138.656C329.996 138.496 330.231 138.341 330.359 138.192C330.497 138.032 330.62 137.872 330.727 137.712L331.847 138.288C331.601 138.789 331.18 139.216 330.583 139.568C329.996 139.92 329.26 140.096 328.375 140.096C327.617 140.096 326.94 139.92 326.343 139.568C325.745 139.216 325.281 138.725 324.951 138.096C324.62 137.467 324.455 136.747 324.455 135.936ZM337.666 135.936L340.754 140.064H339.01L336.882 137.12L334.786 140.064H333.026L336.082 135.936L332.994 131.792H334.77L336.882 134.784L339.01 131.792H340.77L337.666 135.936ZM345.231 140.096C344.549 140.096 343.989 139.872 343.551 139.424C343.114 138.976 342.885 138.4 342.863 137.696V133.072H341.487V131.84H342.863V129.648H344.271V131.84H346.047V133.072H344.271V137.6C344.271 137.92 344.362 138.197 344.543 138.432C344.725 138.667 344.954 138.784 345.231 138.784C345.391 138.784 345.535 138.773 345.663 138.752C345.791 138.731 345.919 138.704 346.047 138.672L346.303 139.968C345.898 140.053 345.541 140.096 345.231 140.096Z" fill="#6B6B6B"/>
<rect width="112" height="42" transform="translate(303 155)" fill="white"/>
<path d="M324.552 171.632H321V182.064H319.592V171.632H316.024V170.384H324.552V171.632ZM330.743 177.392C330.668 176.709 330.444 176.139 330.071 175.68C329.708 175.211 329.159 174.976 328.423 174.976C327.751 174.976 327.175 175.205 326.695 175.664C326.225 176.112 325.943 176.693 325.847 177.408L330.743 177.392ZM324.455 177.936C324.455 177.125 324.62 176.405 324.951 175.776C325.281 175.147 325.745 174.656 326.343 174.304C326.94 173.952 327.617 173.776 328.375 173.776C329.964 173.776 331.1 174.523 331.783 176.016C332.007 176.613 332.119 177.248 332.119 177.92C332.119 178.101 332.113 178.251 332.103 178.368C332.092 178.475 332.087 178.533 332.087 178.544H325.847C325.953 179.237 326.241 179.803 326.711 180.24C327.191 180.677 327.751 180.896 328.391 180.896C328.903 180.896 329.324 180.816 329.655 180.656C329.996 180.496 330.231 180.341 330.359 180.192C330.497 180.032 330.62 179.872 330.727 179.712L331.847 180.288C331.601 180.789 331.18 181.216 330.583 181.568C329.996 181.92 329.26 182.096 328.375 182.096C327.617 182.096 326.94 181.92 326.343 181.568C325.745 181.216 325.281 180.725 324.951 180.096C324.62 179.467 324.455 178.747 324.455 177.936ZM337.666 177.936L340.754 182.064H339.01L336.882 179.12L334.786 182.064H333.026L336.082 177.936L332.994 173.792H334.77L336.882 176.784L339.01 173.792H340.77L337.666 177.936ZM345.231 182.096C344.549 182.096 343.989 181.872 343.551 181.424C343.114 180.976 342.885 180.4 342.863 179.696V175.072H341.487V173.84H342.863V171.648H344.271V173.84H346.047V175.072H344.271V179.6C344.271 179.92 344.362 180.197 344.543 180.432C344.725 180.667 344.954 180.784 345.231 180.784C345.391 180.784 345.535 180.773 345.663 180.752C345.791 180.731 345.919 180.704 346.047 180.672L346.303 181.968C345.898 182.053 345.541 182.096 345.231 182.096Z" fill="#6B6B6B"/>
</g>
<path d="M303.5 33C303.5 31.067 305.067 29.5 307 29.5H411C412.933 29.5 414.5 31.067 414.5 33V193C414.5 194.933 412.933 196.5 411 196.5H307C305.067 196.5 303.5 194.933 303.5 193V33Z" stroke="#C2C2C2"/>
<g clip-path="url(#clip1_2269_3238)">
<rect width="112" height="42" transform="translate(493 29)" fill="white"/>
<path d="M514.552 45.632H511V56.064H509.592V45.632H506.024V44.384H514.552V45.632ZM520.743 51.392C520.668 50.7093 520.444 50.1387 520.071 49.68C519.708 49.2107 519.159 48.976 518.423 48.976C517.751 48.976 517.175 49.2053 516.695 49.664C516.225 50.112 515.943 50.6933 515.847 51.408L520.743 51.392ZM514.455 51.936C514.455 51.1253 514.62 50.4053 514.951 49.776C515.281 49.1467 515.745 48.656 516.343 48.304C516.94 47.952 517.617 47.776 518.375 47.776C519.964 47.776 521.1 48.5227 521.783 50.016C522.007 50.6133 522.119 51.248 522.119 51.92C522.119 52.1013 522.113 52.2507 522.103 52.368C522.092 52.4747 522.087 52.5333 522.087 52.544H515.847C515.953 53.2373 516.241 53.8027 516.711 54.24C517.191 54.6773 517.751 54.896 518.391 54.896C518.903 54.896 519.324 54.816 519.655 54.656C519.996 54.496 520.231 54.3413 520.359 54.192C520.497 54.032 520.62 53.872 520.727 53.712L521.847 54.288C521.601 54.7893 521.18 55.216 520.583 55.568C519.996 55.92 519.26 56.096 518.375 56.096C517.617 56.096 516.94 55.92 516.343 55.568C515.745 55.216 515.281 54.7253 514.951 54.096C514.62 53.4667 514.455 52.7467 514.455 51.936ZM527.666 51.936L530.754 56.064H529.01L526.882 53.12L524.786 56.064H523.026L526.082 51.936L522.994 47.792H524.77L526.882 50.784L529.01 47.792H530.77L527.666 51.936ZM535.231 56.096C534.549 56.096 533.989 55.872 533.551 55.424C533.114 54.976 532.885 54.4 532.863 53.696V49.072H531.487V47.84H532.863V45.648H534.271V47.84H536.047V49.072H534.271V53.6C534.271 53.92 534.362 54.1973 534.543 54.432C534.725 54.6667 534.954 54.784 535.231 54.784C535.391 54.784 535.535 54.7733 535.663 54.752C535.791 54.7307 535.919 54.704 536.047 54.672L536.303 55.968C535.898 56.0533 535.541 56.096 535.231 56.096Z" fill="#6B6B6B"/>
<rect width="112" height="42" transform="translate(493 71)" fill="#EBF4FE"/>
<path d="M514.552 87.632H511V98.064H509.592V87.632H506.024V86.384H514.552V87.632ZM520.743 93.392C520.668 92.7093 520.444 92.1387 520.071 91.68C519.708 91.2107 519.159 90.976 518.423 90.976C517.751 90.976 517.175 91.2053 516.695 91.664C516.225 92.112 515.943 92.6933 515.847 93.408L520.743 93.392ZM514.455 93.936C514.455 93.1253 514.62 92.4053 514.951 91.776C515.281 91.1467 515.745 90.656 516.343 90.304C516.94 89.952 517.617 89.776 518.375 89.776C519.964 89.776 521.1 90.5227 521.783 92.016C522.007 92.6133 522.119 93.248 522.119 93.92C522.119 94.1013 522.113 94.2507 522.103 94.368C522.092 94.4747 522.087 94.5333 522.087 94.544H515.847C515.953 95.2373 516.241 95.8027 516.711 96.24C517.191 96.6773 517.751 96.896 518.391 96.896C518.903 96.896 519.324 96.816 519.655 96.656C519.996 96.496 520.231 96.3413 520.359 96.192C520.497 96.032 520.62 95.872 520.727 95.712L521.847 96.288C521.601 96.7893 521.18 97.216 520.583 97.568C519.996 97.92 519.26 98.096 518.375 98.096C517.617 98.096 516.94 97.92 516.343 97.568C515.745 97.216 515.281 96.7253 514.951 96.096C514.62 95.4667 514.455 94.7467 514.455 93.936ZM527.666 93.936L530.754 98.064H529.01L526.882 95.12L524.786 98.064H523.026L526.082 93.936L522.994 89.792H524.77L526.882 92.784L529.01 89.792H530.77L527.666 93.936ZM535.231 98.096C534.549 98.096 533.989 97.872 533.551 97.424C533.114 96.976 532.885 96.4 532.863 95.696V91.072H531.487V89.84H532.863V87.648H534.271V89.84H536.047V91.072H534.271V95.6C534.271 95.92 534.362 96.1973 534.543 96.432C534.725 96.6667 534.954 96.784 535.231 96.784C535.391 96.784 535.535 96.7733 535.663 96.752C535.791 96.7307 535.919 96.704 536.047 96.672L536.303 97.968C535.898 98.0533 535.541 98.096 535.231 98.096Z" fill="#121212"/>
<rect width="112" height="42" transform="translate(493 113)" fill="white"/>
<path d="M514.552 129.632H511V140.064H509.592V129.632H506.024V128.384H514.552V129.632ZM520.743 135.392C520.668 134.709 520.444 134.139 520.071 133.68C519.708 133.211 519.159 132.976 518.423 132.976C517.751 132.976 517.175 133.205 516.695 133.664C516.225 134.112 515.943 134.693 515.847 135.408L520.743 135.392ZM514.455 135.936C514.455 135.125 514.62 134.405 514.951 133.776C515.281 133.147 515.745 132.656 516.343 132.304C516.94 131.952 517.617 131.776 518.375 131.776C519.964 131.776 521.1 132.523 521.783 134.016C522.007 134.613 522.119 135.248 522.119 135.92C522.119 136.101 522.113 136.251 522.103 136.368C522.092 136.475 522.087 136.533 522.087 136.544H515.847C515.953 137.237 516.241 137.803 516.711 138.24C517.191 138.677 517.751 138.896 518.391 138.896C518.903 138.896 519.324 138.816 519.655 138.656C519.996 138.496 520.231 138.341 520.359 138.192C520.497 138.032 520.62 137.872 520.727 137.712L521.847 138.288C521.601 138.789 521.18 139.216 520.583 139.568C519.996 139.92 519.26 140.096 518.375 140.096C517.617 140.096 516.94 139.92 516.343 139.568C515.745 139.216 515.281 138.725 514.951 138.096C514.62 137.467 514.455 136.747 514.455 135.936ZM527.666 135.936L530.754 140.064H529.01L526.882 137.12L524.786 140.064H523.026L526.082 135.936L522.994 131.792H524.77L526.882 134.784L529.01 131.792H530.77L527.666 135.936ZM535.231 140.096C534.549 140.096 533.989 139.872 533.551 139.424C533.114 138.976 532.885 138.4 532.863 137.696V133.072H531.487V131.84H532.863V129.648H534.271V131.84H536.047V133.072H534.271V137.6C534.271 137.92 534.362 138.197 534.543 138.432C534.725 138.667 534.954 138.784 535.231 138.784C535.391 138.784 535.535 138.773 535.663 138.752C535.791 138.731 535.919 138.704 536.047 138.672L536.303 139.968C535.898 140.053 535.541 140.096 535.231 140.096Z" fill="#6B6B6B"/>
<rect width="112" height="42" transform="translate(493 155)" fill="white"/>
<path d="M514.552 171.632H511V182.064H509.592V171.632H506.024V170.384H514.552V171.632ZM520.743 177.392C520.668 176.709 520.444 176.139 520.071 175.68C519.708 175.211 519.159 174.976 518.423 174.976C517.751 174.976 517.175 175.205 516.695 175.664C516.225 176.112 515.943 176.693 515.847 177.408L520.743 177.392ZM514.455 177.936C514.455 177.125 514.62 176.405 514.951 175.776C515.281 175.147 515.745 174.656 516.343 174.304C516.94 173.952 517.617 173.776 518.375 173.776C519.964 173.776 521.1 174.523 521.783 176.016C522.007 176.613 522.119 177.248 522.119 177.92C522.119 178.101 522.113 178.251 522.103 178.368C522.092 178.475 522.087 178.533 522.087 178.544H515.847C515.953 179.237 516.241 179.803 516.711 180.24C517.191 180.677 517.751 180.896 518.391 180.896C518.903 180.896 519.324 180.816 519.655 180.656C519.996 180.496 520.231 180.341 520.359 180.192C520.497 180.032 520.62 179.872 520.727 179.712L521.847 180.288C521.601 180.789 521.18 181.216 520.583 181.568C519.996 181.92 519.26 182.096 518.375 182.096C517.617 182.096 516.94 181.92 516.343 181.568C515.745 181.216 515.281 180.725 514.951 180.096C514.62 179.467 514.455 178.747 514.455 177.936ZM527.666 177.936L530.754 182.064H529.01L526.882 179.12L524.786 182.064H523.026L526.082 177.936L522.994 173.792H524.77L526.882 176.784L529.01 173.792H530.77L527.666 177.936ZM535.231 182.096C534.549 182.096 533.989 181.872 533.551 181.424C533.114 180.976 532.885 180.4 532.863 179.696V175.072H531.487V173.84H532.863V171.648H534.271V173.84H536.047V175.072H534.271V179.6C534.271 179.92 534.362 180.197 534.543 180.432C534.725 180.667 534.954 180.784 535.231 180.784C535.391 180.784 535.535 180.773 535.663 180.752C535.791 180.731 535.919 180.704 536.047 180.672L536.303 181.968C535.898 182.053 535.541 182.096 535.231 182.096Z" fill="#6B6B6B"/>
</g>
<path d="M493.5 33C493.5 31.067 495.067 29.5 497 29.5H601C602.933 29.5 604.5 31.067 604.5 33V193C604.5 194.933 602.933 196.5 601 196.5H497C495.067 196.5 493.5 194.933 493.5 193V33Z" stroke="#C2C2C2"/>
<path d="M347.204 220.352V217.12H348.66V227.648H347.204V221.568H344.244V220.352H347.204ZM336.996 224.544C338.052 224.149 338.894 223.504 339.524 222.608C340.153 221.712 340.468 220.725 340.468 219.648V217.952H341.924V219.68C341.924 220.661 342.228 221.573 342.836 222.416C343.444 223.248 344.26 223.851 345.284 224.224L344.516 225.36C343.758 225.061 343.097 224.635 342.532 224.08C341.966 223.515 341.529 222.859 341.22 222.112C340.921 222.944 340.473 223.669 339.876 224.288C339.289 224.907 338.585 225.376 337.764 225.696L336.996 224.544ZM339.524 226.496H340.98V229.728H348.996V230.928H339.524V226.496ZM356.868 218.112V219.296H352.82V220.928H356.74V222.048H352.82V223.792C353.865 223.781 354.713 223.755 355.364 223.712C356.025 223.669 356.697 223.579 357.38 223.44L357.524 224.624C356.756 224.773 355.993 224.875 355.236 224.928C354.479 224.971 353.513 224.992 352.34 224.992H351.412V218.112H356.868ZM353.236 226.384H362.756V231.232H361.3V227.584H353.236V226.384ZM358.276 217.376H359.652V220.736H361.364V217.104H362.756V225.68H361.364V221.936H359.652V225.6H358.276V217.376ZM378.38 220.944V217.12H379.836V227.44H378.38V222.144H375.676V220.944H378.38ZM368.188 224.544C368.892 224.299 369.511 223.941 370.044 223.472C370.577 223.003 370.988 222.469 371.276 221.872C371.564 221.264 371.708 220.635 371.708 219.984V219.392H368.636V218.208H376.188V219.392H373.164V219.968C373.164 220.565 373.303 221.147 373.58 221.712C373.857 222.277 374.247 222.784 374.748 223.232C375.26 223.669 375.857 224.005 376.54 224.24L375.82 225.392C375.041 225.115 374.364 224.709 373.788 224.176C373.212 223.632 372.769 223.003 372.46 222.288C372.151 223.077 371.692 223.771 371.084 224.368C370.487 224.965 369.772 225.413 368.94 225.712L368.188 224.544ZM370.748 226.544H372.204V229.728H380.22V230.928H370.748V226.544Z" fill="#6B6B6B"/>
<path d="M537.204 220.352V217.12H538.66V227.648H537.204V221.568H534.244V220.352H537.204ZM526.996 224.544C528.052 224.149 528.894 223.504 529.524 222.608C530.153 221.712 530.468 220.725 530.468 219.648V217.952H531.924V219.68C531.924 220.661 532.228 221.573 532.836 222.416C533.444 223.248 534.26 223.851 535.284 224.224L534.516 225.36C533.758 225.061 533.097 224.635 532.532 224.08C531.966 223.515 531.529 222.859 531.22 222.112C530.921 222.944 530.473 223.669 529.876 224.288C529.289 224.907 528.585 225.376 527.764 225.696L526.996 224.544ZM529.524 226.496H530.98V229.728H538.996V230.928H529.524V226.496ZM546.868 218.112V219.296H542.82V220.928H546.74V222.048H542.82V223.792C543.865 223.781 544.713 223.755 545.364 223.712C546.025 223.669 546.697 223.579 547.38 223.44L547.524 224.624C546.756 224.773 545.993 224.875 545.236 224.928C544.479 224.971 543.513 224.992 542.34 224.992H541.412V218.112H546.868ZM543.236 226.384H552.756V231.232H551.3V227.584H543.236V226.384ZM548.276 217.376H549.652V220.736H551.364V217.104H552.756V225.68H551.364V221.936H549.652V225.6H548.276V217.376ZM563.836 218.688V217.04H565.292V218.688H570.236V219.856H558.844V218.688H563.836ZM558.188 226.272H570.972V227.44H565.292V231.232H563.836V227.44H558.188V226.272ZM559.932 222.992C559.932 222.224 560.337 221.637 561.148 221.232C561.959 220.816 563.095 220.608 564.556 220.608C566.017 220.608 567.153 220.816 567.964 221.232C568.785 221.637 569.196 222.224 569.196 222.992C569.196 223.739 568.785 224.32 567.964 224.736C567.153 225.152 566.017 225.36 564.556 225.36C563.095 225.36 561.959 225.152 561.148 224.736C560.337 224.32 559.932 223.739 559.932 222.992ZM561.436 222.992C561.436 223.397 561.703 223.707 562.236 223.92C562.78 224.133 563.553 224.24 564.556 224.24C565.569 224.24 566.343 224.133 566.876 223.92C567.42 223.707 567.692 223.397 567.692 222.992C567.692 222.576 567.42 222.261 566.876 222.048C566.343 221.824 565.569 221.712 564.556 221.712C563.543 221.712 562.769 221.824 562.236 222.048C561.703 222.261 561.436 222.576 561.436 222.992Z" fill="#6B6B6B"/>
<defs>
<clipPath id="clip0_2269_3238">
<path d="M303 33C303 30.7909 304.791 29 307 29H411C413.209 29 415 30.7909 415 33V193C415 195.209 413.209 197 411 197H307C304.791 197 303 195.209 303 193V33Z" fill="white"/>
</clipPath>
<clipPath id="clip1_2269_3238">
<path d="M493 33C493 30.7909 494.791 29 497 29H601C603.209 29 605 30.7909 605 33V193C605 195.209 603.209 197 601 197H497C494.791 197 493 195.209 493 193V33Z" fill="white"/>
</clipPath>
</defs>
</svg>
