<svg xmlns="http://www.w3.org/2000/svg" width="390" height="276" fill="none"><g clip-path="url(#a)"><path fill="#fff" d="M0 0h390v276H0z"/><path fill="#fff" d="M16.5 2A7.5 7.5 0 0 1 24-5.5h342a7.5 7.5 0 0 1 7.5 7.5v122a7.5 7.5 0 0 1-7.5 7.5H24a7.5 7.5 0 0 1-7.5-7.5z"/><path stroke="#C2C2C2" d="M16.5 2A7.5 7.5 0 0 1 24-5.5h342a7.5 7.5 0 0 1 7.5 7.5v122a7.5 7.5 0 0 1-7.5 7.5H24a7.5 7.5 0 0 1-7.5-7.5z"/><path fill="#6B6B6B" d="M39.562 28.838h5.11v1.26h-6.566V19.794h1.456zm9.321.126q.574 0 1.078-.322.504-.336.798-.896.309-.574.308-1.26 0-.686-.308-1.246a2.26 2.26 0 0 0-.798-.896 1.9 1.9 0 0 0-1.078-.336q-.938 0-1.526.686t-.588 1.792.588 1.792 1.526.686m-3.57-2.478q0-1.064.434-1.904a3.25 3.25 0 0 1 1.232-1.302q.798-.476 1.806-.476.644 0 1.232.322a2.8 2.8 0 0 1 1.036.938v-1.288h1.456v7.322l-1.456.014v-1.218q-.448.644-1.036.966a2.6 2.6 0 0 1-1.232.308q-1.008 0-1.806-.462a3.35 3.35 0 0 1-1.232-1.316q-.434-.84-.434-1.904m12.724 3.682q-.545 0-1.19-.294-.63-.294-1.092-.98v1.218h-1.456V19.794h1.456v4.256q.462-.714 1.092-.994.644-.294 1.204-.294 1.008 0 1.806.476t1.246 1.316.448 1.918-.448 1.918-1.246 1.316q-.798.462-1.82.462m-2.282-3.682q0 .686.294 1.26t.798.91q.518.336 1.106.336.952 0 1.54-.686.602-.7.602-1.82 0-1.106-.602-1.792-.588-.7-1.54-.7a1.93 1.93 0 0 0-1.092.336 2.5 2.5 0 0 0-.812.91 2.7 2.7 0 0 0-.294 1.246m12.43-.588q-.098-.812-.574-1.358-.476-.56-1.372-.56-.812 0-1.414.56-.588.546-.714 1.372zm-5.474.56q0-1.078.448-1.918a3.25 3.25 0 0 1 1.232-1.302q.798-.476 1.82-.476 1.442 0 2.114.7.686.7.924 1.288.322.784.322 1.736 0 .195-.014.35-.014.14-.014.182h-5.432q.126.84.728 1.372.601.532 1.386.532.63 0 1.036-.196.42-.195.574-.364t.294-.378l1.176.532q-.336.686-1.12 1.162-.784.462-1.974.462-1.022 0-1.82-.462a3.35 3.35 0 0 1-1.232-1.316q-.448-.84-.448-1.904m9.618-6.664v10.304h-1.456V19.794z"/><path fill="#fff" d="M37.5 44a3.5 3.5 0 0 1 3.5-3.5h308a3.5 3.5 0 0 1 3.5 3.5v34a3.5 3.5 0 0 1-3.5 3.5H41a3.5 3.5 0 0 1-3.5-3.5z"/><path stroke="#C2C2C2" d="M37.5 44a3.5 3.5 0 0 1 3.5-3.5h308a3.5 3.5 0 0 1 3.5 3.5v34a3.5 3.5 0 0 1-3.5 3.5H41a3.5 3.5 0 0 1-3.5-3.5z"/><path fill="#C2C2C2" d="M59.784 57.352V54.12h1.456v10.528h-1.456v-6.08h-2.96v-1.216zm-10.208 4.192q1.584-.592 2.528-1.936.945-1.344.944-2.96v-1.696h1.456v1.728q0 1.471.912 2.736.912 1.248 2.448 1.808l-.768 1.136a5.9 5.9 0 0 1-1.984-1.28 6 6 0 0 1-1.312-1.968 6 6 0 0 1-1.344 2.176 5.74 5.74 0 0 1-2.112 1.408zm2.528 1.952h1.456v3.232h8.016v1.2h-9.472zm17.344-8.384v1.184H65.4v1.632h3.92v1.12H65.4v1.744a48 48 0 0 0 2.544-.08 15 15 0 0 0 2.016-.272l.144 1.184q-1.151.224-2.288.304-1.135.064-2.896.064h-.928v-6.88zm-3.632 8.272h9.52v4.848H73.88v-3.648h-8.064zm5.04-9.008h1.376v3.36h1.712v-3.632h1.392v8.576h-1.392v-3.744h-1.712V62.6h-1.376zm17.297-.256v5.728h2.24v1.216h-2.24v7.168h-1.456V54.12zM77.16 56.328h3.456v-2.032h1.488v2.032h3.376v1.184h-8.32zm.752 5.536q0-.945.448-1.68.448-.751 1.232-1.168a3.8 3.8 0 0 1 1.776-.416q.992 0 1.776.416.8.416 1.248 1.168.447.735.448 1.68 0 .945-.448 1.696-.448.736-1.248 1.152-.785.416-1.776.416-.976 0-1.776-.416a3.13 3.13 0 0 1-1.232-1.152 3.25 3.25 0 0 1-.448-1.696m1.392 0q0 .912.576 1.488t1.488.576 1.488-.576q.591-.576.592-1.488 0-.912-.592-1.488-.576-.576-1.488-.576-.897 0-1.488.576-.576.576-.576 1.488m19.504-2.768v-4.688h1.36v13.12h-1.36v-7.232h-2.192v-1.2zm-7.936 5.056q1.424-.864 2.224-2.544.8-1.695.8-3.584v-2.592h1.408v2.544q0 1.776.736 3.376t2.096 2.448l-.832 1.136q-.944-.576-1.632-1.584a8.5 8.5 0 0 1-1.056-2.288 8.7 8.7 0 0 1-1.136 2.464q-.72 1.088-1.712 1.712zm10.8-10.048h1.408v14.112h-1.408zm6.289 11.136v-3.728q-.88-.48-1.376-1.216a3.06 3.06 0 0 1-.48-1.68q0-1.088.656-1.92.672-.832 1.84-1.28 1.168-.465 2.656-.464 1.503 0 2.672.464 1.183.448 1.84 1.28.656.832.656 1.92 0 .928-.48 1.664-.464.72-1.328 1.216v3.744h3.056v1.2H104.89v-1.2zm-.432-6.624q0 .752.464 1.328.48.56 1.328.88.847.304 1.936.304 1.087 0 1.936-.304.848-.32 1.328-.88.48-.576.48-1.328t-.48-1.312q-.48-.576-1.328-.88-.849-.32-1.936-.32-1.089 0-1.936.32-.849.304-1.328.88a2 2 0 0 0-.464 1.312m5.616 6.624v-3.184a7.8 7.8 0 0 1-1.888.208q-1.025 0-1.856-.208v3.184z"/><path stroke="#C2C2C2" stroke-linejoin="bevel" stroke-width="1.4" d="m337 60-6 5-6-5"/><path fill="#6B6B6B" d="M39.576 89.576a.6.6 0 0 0 0 .848l3.818 3.819a.6.6 0 1 0 .849-.849L40.848 90l3.395-3.394a.6.6 0 1 0-.849-.849zm310.848.848a.6.6 0 0 0 0-.848l-3.818-3.819a.6.6 0 0 0-.849.849L349.151 90l-3.394 3.394a.6.6 0 0 0 .849.849zM40 90.6h310v-1.2H40zm153.918 10.454h-5.614v3.248h4.718v1.26h-4.718v4.536h-1.456V99.794h7.07zm3.024 1.764v7.28h-1.456v-7.28zm-1.554-2.38q0-.364.224-.588a.82.82 0 0 1 .602-.238q.364 0 .588.238.238.224.238.588a.8.8 0 0 1-.238.588.77.77 0 0 1-.588.238.85.85 0 0 1-.602-.224.85.85 0 0 1-.224-.602m4.813-.644v10.304h-1.456V99.794zm3.142 0v10.304h-1.456V99.794zM15.576 225.576a.6.6 0 0 0 0 .848l3.818 3.819a.6.6 0 0 0 .849-.849L16.849 226l3.394-3.394a.6.6 0 0 0-.849-.849zm358.848.848a.6.6 0 0 0 0-.848l-3.818-3.819a.601.601 0 0 0-.849.849l3.394 3.394-3.394 3.394a.601.601 0 0 0 .849.849zM16 226.6h358v-1.2H16zm178.418 10.454h-5.614v3.248h4.718v1.26h-4.718v4.536h-1.456v-10.304h7.07zm3.024 1.764v7.28h-1.456v-7.28zm-1.554-2.38q0-.364.224-.588a.82.82 0 0 1 .602-.238q.364 0 .588.238a.77.77 0 0 1 .238.588.8.8 0 0 1-.238.588.77.77 0 0 1-.588.238.85.85 0 0 1-.602-.224.85.85 0 0 1-.224-.602m4.813-.644v10.304h-1.456v-10.304zm3.142 0v10.304h-1.456v-10.304zM18.562 157.838h5.11v1.26h-6.566v-10.304h1.456zm9.321.126q.574 0 1.078-.322.504-.336.798-.896.308-.575.308-1.26 0-.686-.308-1.246a2.26 2.26 0 0 0-.798-.896 1.9 1.9 0 0 0-1.078-.336q-.938 0-1.526.686t-.588 1.792.588 1.792 1.526.686m-3.57-2.478q0-1.064.434-1.904a3.25 3.25 0 0 1 1.232-1.302 3.46 3.46 0 0 1 1.806-.476q.645 0 1.232.322.603.308 1.036.938v-1.288h1.456v7.322l-1.456.014v-1.218q-.447.644-1.036.966a2.6 2.6 0 0 1-1.232.308q-1.008 0-1.806-.462a3.35 3.35 0 0 1-1.232-1.316q-.434-.84-.434-1.904m12.724 3.682q-.545 0-1.19-.294-.63-.294-1.092-.98v1.218h-1.456v-10.318h1.456v4.256q.462-.714 1.092-.994.644-.294 1.204-.294a3.46 3.46 0 0 1 1.806.476q.798.476 1.246 1.316t.448 1.918-.448 1.918-1.246 1.316q-.798.462-1.82.462m-2.282-3.682q0 .685.294 1.26.294.574.798.91.518.336 1.106.336.952 0 1.54-.686.602-.7.602-1.82 0-1.106-.602-1.792-.588-.7-1.54-.7a1.93 1.93 0 0 0-1.092.336 2.5 2.5 0 0 0-.812.91 2.7 2.7 0 0 0-.294 1.246m12.43-.588q-.098-.812-.574-1.358-.476-.56-1.372-.56a2 2 0 0 0-1.414.56q-.588.546-.714 1.372zm-5.474.56q0-1.078.448-1.918a3.25 3.25 0 0 1 1.232-1.302q.798-.476 1.82-.476 1.442 0 2.114.7.686.7.924 1.288.322.784.322 1.736 0 .196-.014.35-.014.14-.014.182h-5.432q.126.84.728 1.372a2.03 2.03 0 0 0 1.386.532q.63 0 1.036-.196.42-.196.574-.364t.294-.378l1.176.532q-.336.686-1.12 1.162-.784.462-1.974.462-1.022 0-1.82-.462a3.35 3.35 0 0 1-1.232-1.316q-.448-.84-.448-1.904m9.618-6.664v10.304h-1.456v-10.304z"/><path fill="#fff" d="M16.5 173a3.5 3.5 0 0 1 3.5-3.5h350a3.5 3.5 0 0 1 3.5 3.5v34a3.5 3.5 0 0 1-3.5 3.5H20a3.5 3.5 0 0 1-3.5-3.5z"/><path stroke="#C2C2C2" d="M16.5 173a3.5 3.5 0 0 1 3.5-3.5h350a3.5 3.5 0 0 1 3.5 3.5v34a3.5 3.5 0 0 1-3.5 3.5H20a3.5 3.5 0 0 1-3.5-3.5z"/><path fill="#C2C2C2" d="M38.784 186.352v-3.232h1.456v10.528h-1.456v-6.08h-2.96v-1.216zm-10.208 4.192q1.584-.592 2.528-1.936.945-1.344.944-2.96v-1.696h1.456v1.728q0 1.471.912 2.736.912 1.248 2.448 1.808l-.768 1.136a5.9 5.9 0 0 1-1.984-1.28 6 6 0 0 1-1.312-1.968 6 6 0 0 1-1.344 2.176 5.7 5.7 0 0 1-2.112 1.408zm2.528 1.952h1.456v3.232h8.016v1.2h-9.472zm17.344-8.384v1.184H44.4v1.632h3.92v1.12H44.4v1.744a48 48 0 0 0 2.544-.08 15 15 0 0 0 2.016-.272l.144 1.184q-1.151.224-2.288.304-1.135.064-2.896.064h-.928v-6.88zm-3.632 8.272h9.52v4.848H52.88v-3.648h-8.064zm5.04-9.008h1.376v3.36h1.712v-3.632h1.392v8.576h-1.392v-3.744h-1.712v3.664h-1.376zm17.297-.256v5.728h2.24v1.216h-2.24v7.168h-1.456V183.12zm-10.992 2.208h3.456v-2.032h1.488v2.032h3.376v1.184h-8.32zm.752 5.536q0-.943.448-1.68.448-.752 1.232-1.168a3.8 3.8 0 0 1 1.776-.416q.992 0 1.776.416.8.416 1.248 1.168.448.737.448 1.68a3.25 3.25 0 0 1-.448 1.696 3.1 3.1 0 0 1-1.248 1.152q-.785.416-1.776.416-.976 0-1.776-.416a3.1 3.1 0 0 1-1.232-1.152 3.25 3.25 0 0 1-.448-1.696m1.392 0q0 .912.576 1.488t1.488.576 1.488-.576q.591-.576.592-1.488 0-.912-.592-1.488-.576-.576-1.488-.576-.897 0-1.488.576-.576.576-.576 1.488m19.504-2.768v-4.688h1.36v13.12h-1.36v-7.232h-2.192v-1.2zm-7.936 5.056q1.424-.864 2.224-2.544.8-1.696.8-3.584v-2.592h1.408v2.544q0 1.776.736 3.376t2.096 2.448l-.832 1.136q-.944-.576-1.632-1.584a8.5 8.5 0 0 1-1.056-2.288 8.7 8.7 0 0 1-1.136 2.464q-.72 1.088-1.712 1.712zm10.8-10.048h1.408v14.112h-1.408zm6.288 11.136v-3.728q-.88-.48-1.376-1.216a3.06 3.06 0 0 1-.48-1.68q.001-1.088.656-1.92.673-.832 1.84-1.28 1.17-.464 2.656-.464 1.505 0 2.672.464 1.185.448 1.84 1.28.657.833.656 1.92 0 .928-.48 1.664-.463.72-1.327 1.216v3.744h3.056v1.2H83.889v-1.2zm-.431-6.624q0 .752.463 1.328.48.56 1.329.88.847.304 1.935.304t1.936-.304q.848-.32 1.329-.88.48-.576.48-1.328t-.48-1.312q-.48-.576-1.329-.88-.847-.32-1.936-.32-1.087 0-1.936.32-.847.304-1.328.88-.463.56-.463 1.312m5.615 6.624v-3.184a7.8 7.8 0 0 1-1.888.208 7.6 7.6 0 0 1-1.856-.208v3.184z"/><path stroke="#C2C2C2" stroke-linejoin="bevel" stroke-width="1.4" d="m358 189-6 5-6-5"/></g><defs><clipPath id="a"><path fill="#fff" d="M0 0h390v276H0z"/></clipPath></defs></svg>