<svg width="908" height="364" viewBox="0 0 908 364" fill="none" xmlns="http://www.w3.org/2000/svg">
<rect width="907" height="364" transform="translate(0.5)" fill="white"/>
<g clip-path="url(#clip0_2269_3220)">
<rect width="112" height="42" transform="translate(303.5 37)" fill="white"/>
<path d="M325.052 53.632H321.5V64.064H320.092V53.632H316.524V52.384H325.052V53.632ZM331.243 59.392C331.168 58.7093 330.944 58.1387 330.571 57.68C330.208 57.2107 329.659 56.976 328.923 56.976C328.251 56.976 327.675 57.2053 327.195 57.664C326.725 58.112 326.443 58.6933 326.347 59.408L331.243 59.392ZM324.955 59.936C324.955 59.1253 325.12 58.4053 325.451 57.776C325.781 57.1467 326.245 56.656 326.843 56.304C327.44 55.952 328.117 55.776 328.875 55.776C330.464 55.776 331.6 56.5227 332.283 58.016C332.507 58.6133 332.619 59.248 332.619 59.92C332.619 60.1013 332.613 60.2507 332.603 60.368C332.592 60.4747 332.587 60.5333 332.587 60.544H326.347C326.453 61.2373 326.741 61.8027 327.211 62.24C327.691 62.6773 328.251 62.896 328.891 62.896C329.403 62.896 329.824 62.816 330.155 62.656C330.496 62.496 330.731 62.3413 330.859 62.192C330.997 62.032 331.12 61.872 331.227 61.712L332.347 62.288C332.101 62.7893 331.68 63.216 331.083 63.568C330.496 63.92 329.76 64.096 328.875 64.096C328.117 64.096 327.44 63.92 326.843 63.568C326.245 63.216 325.781 62.7253 325.451 62.096C325.12 61.4667 324.955 60.7467 324.955 59.936ZM338.166 59.936L341.254 64.064H339.51L337.382 61.12L335.286 64.064H333.526L336.582 59.936L333.494 55.792H335.27L337.382 58.784L339.51 55.792H341.27L338.166 59.936ZM345.731 64.096C345.049 64.096 344.489 63.872 344.051 63.424C343.614 62.976 343.385 62.4 343.363 61.696V57.072H341.987V55.84H343.363V53.648H344.771V55.84H346.547V57.072H344.771V61.6C344.771 61.92 344.862 62.1973 345.043 62.432C345.225 62.6667 345.454 62.784 345.731 62.784C345.891 62.784 346.035 62.7733 346.163 62.752C346.291 62.7307 346.419 62.704 346.547 62.672L346.803 63.968C346.398 64.0533 346.041 64.096 345.731 64.096Z" fill="#6B6B6B"/>
<rect width="112" height="42" transform="translate(303.5 79)" fill="white"/>
<path d="M325.052 95.632H321.5V106.064H320.092V95.632H316.524V94.384H325.052V95.632ZM331.243 101.392C331.168 100.709 330.944 100.139 330.571 99.68C330.208 99.2107 329.659 98.976 328.923 98.976C328.251 98.976 327.675 99.2053 327.195 99.664C326.725 100.112 326.443 100.693 326.347 101.408L331.243 101.392ZM324.955 101.936C324.955 101.125 325.12 100.405 325.451 99.776C325.781 99.1467 326.245 98.656 326.843 98.304C327.44 97.952 328.117 97.776 328.875 97.776C330.464 97.776 331.6 98.5227 332.283 100.016C332.507 100.613 332.619 101.248 332.619 101.92C332.619 102.101 332.613 102.251 332.603 102.368C332.592 102.475 332.587 102.533 332.587 102.544H326.347C326.453 103.237 326.741 103.803 327.211 104.24C327.691 104.677 328.251 104.896 328.891 104.896C329.403 104.896 329.824 104.816 330.155 104.656C330.496 104.496 330.731 104.341 330.859 104.192C330.997 104.032 331.12 103.872 331.227 103.712L332.347 104.288C332.101 104.789 331.68 105.216 331.083 105.568C330.496 105.92 329.76 106.096 328.875 106.096C328.117 106.096 327.44 105.92 326.843 105.568C326.245 105.216 325.781 104.725 325.451 104.096C325.12 103.467 324.955 102.747 324.955 101.936ZM338.166 101.936L341.254 106.064H339.51L337.382 103.12L335.286 106.064H333.526L336.582 101.936L333.494 97.792H335.27L337.382 100.784L339.51 97.792H341.27L338.166 101.936ZM345.731 106.096C345.049 106.096 344.489 105.872 344.051 105.424C343.614 104.976 343.385 104.4 343.363 103.696V99.072H341.987V97.84H343.363V95.648H344.771V97.84H346.547V99.072H344.771V103.6C344.771 103.92 344.862 104.197 345.043 104.432C345.225 104.667 345.454 104.784 345.731 104.784C345.891 104.784 346.035 104.773 346.163 104.752C346.291 104.731 346.419 104.704 346.547 104.672L346.803 105.968C346.398 106.053 346.041 106.096 345.731 106.096Z" fill="#2B72C5"/>
<rect width="112" height="42" transform="translate(303.5 121)" fill="#EBF4FE"/>
<path d="M325.052 137.632H321.5V148.064H320.092V137.632H316.524V136.384H325.052V137.632ZM331.243 143.392C331.168 142.709 330.944 142.139 330.571 141.68C330.208 141.211 329.659 140.976 328.923 140.976C328.251 140.976 327.675 141.205 327.195 141.664C326.725 142.112 326.443 142.693 326.347 143.408L331.243 143.392ZM324.955 143.936C324.955 143.125 325.12 142.405 325.451 141.776C325.781 141.147 326.245 140.656 326.843 140.304C327.44 139.952 328.117 139.776 328.875 139.776C330.464 139.776 331.6 140.523 332.283 142.016C332.507 142.613 332.619 143.248 332.619 143.92C332.619 144.101 332.613 144.251 332.603 144.368C332.592 144.475 332.587 144.533 332.587 144.544H326.347C326.453 145.237 326.741 145.803 327.211 146.24C327.691 146.677 328.251 146.896 328.891 146.896C329.403 146.896 329.824 146.816 330.155 146.656C330.496 146.496 330.731 146.341 330.859 146.192C330.997 146.032 331.12 145.872 331.227 145.712L332.347 146.288C332.101 146.789 331.68 147.216 331.083 147.568C330.496 147.92 329.76 148.096 328.875 148.096C328.117 148.096 327.44 147.92 326.843 147.568C326.245 147.216 325.781 146.725 325.451 146.096C325.12 145.467 324.955 144.747 324.955 143.936ZM338.166 143.936L341.254 148.064H339.51L337.382 145.12L335.286 148.064H333.526L336.582 143.936L333.494 139.792H335.27L337.382 142.784L339.51 139.792H341.27L338.166 143.936ZM345.731 148.096C345.049 148.096 344.489 147.872 344.051 147.424C343.614 146.976 343.385 146.4 343.363 145.696V141.072H341.987V139.84H343.363V137.648H344.771V139.84H346.547V141.072H344.771V145.6C344.771 145.92 344.862 146.197 345.043 146.432C345.225 146.667 345.454 146.784 345.731 146.784C345.891 146.784 346.035 146.773 346.163 146.752C346.291 146.731 346.419 146.704 346.547 146.672L346.803 147.968C346.398 148.053 346.041 148.096 345.731 148.096Z" fill="#5EA5F9"/>
<rect width="112" height="42" transform="translate(303.5 163)" fill="#EBF4FE"/>
<path d="M325.052 179.632H321.5V190.064H320.092V179.632H316.524V178.384H325.052V179.632ZM331.243 185.392C331.168 184.709 330.944 184.139 330.571 183.68C330.208 183.211 329.659 182.976 328.923 182.976C328.251 182.976 327.675 183.205 327.195 183.664C326.725 184.112 326.443 184.693 326.347 185.408L331.243 185.392ZM324.955 185.936C324.955 185.125 325.12 184.405 325.451 183.776C325.781 183.147 326.245 182.656 326.843 182.304C327.44 181.952 328.117 181.776 328.875 181.776C330.464 181.776 331.6 182.523 332.283 184.016C332.507 184.613 332.619 185.248 332.619 185.92C332.619 186.101 332.613 186.251 332.603 186.368C332.592 186.475 332.587 186.533 332.587 186.544H326.347C326.453 187.237 326.741 187.803 327.211 188.24C327.691 188.677 328.251 188.896 328.891 188.896C329.403 188.896 329.824 188.816 330.155 188.656C330.496 188.496 330.731 188.341 330.859 188.192C330.997 188.032 331.12 187.872 331.227 187.712L332.347 188.288C332.101 188.789 331.68 189.216 331.083 189.568C330.496 189.92 329.76 190.096 328.875 190.096C328.117 190.096 327.44 189.92 326.843 189.568C326.245 189.216 325.781 188.725 325.451 188.096C325.12 187.467 324.955 186.747 324.955 185.936ZM338.166 185.936L341.254 190.064H339.51L337.382 187.12L335.286 190.064H333.526L336.582 185.936L333.494 181.792H335.27L337.382 184.784L339.51 181.792H341.27L338.166 185.936ZM345.731 190.096C345.049 190.096 344.489 189.872 344.051 189.424C343.614 188.976 343.385 188.4 343.363 187.696V183.072H341.987V181.84H343.363V179.648H344.771V181.84H346.547V183.072H344.771V187.6C344.771 187.92 344.862 188.197 345.043 188.432C345.225 188.667 345.454 188.784 345.731 188.784C345.891 188.784 346.035 188.773 346.163 188.752C346.291 188.731 346.419 188.704 346.547 188.672L346.803 189.968C346.398 190.053 346.041 190.096 345.731 190.096Z" fill="#121212"/>
</g>
<path d="M304 41C304 39.067 305.567 37.5 307.5 37.5H411.5C413.433 37.5 415 39.067 415 41V201C415 202.933 413.433 204.5 411.5 204.5H307.5C305.567 204.5 304 202.933 304 201V41Z" stroke="#C2C2C2"/>
<g clip-path="url(#clip1_2269_3220)">
<rect width="112" height="42" transform="translate(493.5 35)" fill="white"/>
<path d="M515.052 51.632H511.5V62.064H510.092V51.632H506.524V50.384H515.052V51.632ZM521.243 57.392C521.168 56.7093 520.944 56.1387 520.571 55.68C520.208 55.2107 519.659 54.976 518.923 54.976C518.251 54.976 517.675 55.2053 517.195 55.664C516.725 56.112 516.443 56.6933 516.347 57.408L521.243 57.392ZM514.955 57.936C514.955 57.1253 515.12 56.4053 515.451 55.776C515.781 55.1467 516.245 54.656 516.843 54.304C517.44 53.952 518.117 53.776 518.875 53.776C520.464 53.776 521.6 54.5227 522.283 56.016C522.507 56.6133 522.619 57.248 522.619 57.92C522.619 58.1013 522.613 58.2507 522.603 58.368C522.592 58.4747 522.587 58.5333 522.587 58.544H516.347C516.453 59.2373 516.741 59.8027 517.211 60.24C517.691 60.6773 518.251 60.896 518.891 60.896C519.403 60.896 519.824 60.816 520.155 60.656C520.496 60.496 520.731 60.3413 520.859 60.192C520.997 60.032 521.12 59.872 521.227 59.712L522.347 60.288C522.101 60.7893 521.68 61.216 521.083 61.568C520.496 61.92 519.76 62.096 518.875 62.096C518.117 62.096 517.44 61.92 516.843 61.568C516.245 61.216 515.781 60.7253 515.451 60.096C515.12 59.4667 514.955 58.7467 514.955 57.936ZM528.166 57.936L531.254 62.064H529.51L527.382 59.12L525.286 62.064H523.526L526.582 57.936L523.494 53.792H525.27L527.382 56.784L529.51 53.792H531.27L528.166 57.936ZM535.731 62.096C535.049 62.096 534.489 61.872 534.051 61.424C533.614 60.976 533.385 60.4 533.363 59.696V55.072H531.987V53.84H533.363V51.648H534.771V53.84H536.547V55.072H534.771V59.6C534.771 59.92 534.862 60.1973 535.043 60.432C535.225 60.6667 535.454 60.784 535.731 60.784C535.891 60.784 536.035 60.7733 536.163 60.752C536.291 60.7307 536.419 60.704 536.547 60.672L536.803 61.968C536.398 62.0533 536.041 62.096 535.731 62.096Z" fill="#6B6B6B"/>
<rect width="112" height="42" transform="translate(493.5 77)" fill="white"/>
<path d="M515.052 93.632H511.5V104.064H510.092V93.632H506.524V92.384H515.052V93.632ZM521.243 99.392C521.168 98.7093 520.944 98.1387 520.571 97.68C520.208 97.2107 519.659 96.976 518.923 96.976C518.251 96.976 517.675 97.2053 517.195 97.664C516.725 98.112 516.443 98.6933 516.347 99.408L521.243 99.392ZM514.955 99.936C514.955 99.1253 515.12 98.4053 515.451 97.776C515.781 97.1467 516.245 96.656 516.843 96.304C517.44 95.952 518.117 95.776 518.875 95.776C520.464 95.776 521.6 96.5227 522.283 98.016C522.507 98.6133 522.619 99.248 522.619 99.92C522.619 100.101 522.613 100.251 522.603 100.368C522.592 100.475 522.587 100.533 522.587 100.544H516.347C516.453 101.237 516.741 101.803 517.211 102.24C517.691 102.677 518.251 102.896 518.891 102.896C519.403 102.896 519.824 102.816 520.155 102.656C520.496 102.496 520.731 102.341 520.859 102.192C520.997 102.032 521.12 101.872 521.227 101.712L522.347 102.288C522.101 102.789 521.68 103.216 521.083 103.568C520.496 103.92 519.76 104.096 518.875 104.096C518.117 104.096 517.44 103.92 516.843 103.568C516.245 103.216 515.781 102.725 515.451 102.096C515.12 101.467 514.955 100.747 514.955 99.936ZM528.166 99.936L531.254 104.064H529.51L527.382 101.12L525.286 104.064H523.526L526.582 99.936L523.494 95.792H525.27L527.382 98.784L529.51 95.792H531.27L528.166 99.936ZM535.731 104.096C535.049 104.096 534.489 103.872 534.051 103.424C533.614 102.976 533.385 102.4 533.363 101.696V97.072H531.987V95.84H533.363V93.648H534.771V95.84H536.547V97.072H534.771V101.6C534.771 101.92 534.862 102.197 535.043 102.432C535.225 102.667 535.454 102.784 535.731 102.784C535.891 102.784 536.035 102.773 536.163 102.752C536.291 102.731 536.419 102.704 536.547 102.672L536.803 103.968C536.398 104.053 536.041 104.096 535.731 104.096Z" fill="#6B6B6B"/>
<rect width="112" height="42" transform="translate(493.5 119)" fill="white"/>
<path d="M515.052 135.632H511.5V146.064H510.092V135.632H506.524V134.384H515.052V135.632ZM521.243 141.392C521.168 140.709 520.944 140.139 520.571 139.68C520.208 139.211 519.659 138.976 518.923 138.976C518.251 138.976 517.675 139.205 517.195 139.664C516.725 140.112 516.443 140.693 516.347 141.408L521.243 141.392ZM514.955 141.936C514.955 141.125 515.12 140.405 515.451 139.776C515.781 139.147 516.245 138.656 516.843 138.304C517.44 137.952 518.117 137.776 518.875 137.776C520.464 137.776 521.6 138.523 522.283 140.016C522.507 140.613 522.619 141.248 522.619 141.92C522.619 142.101 522.613 142.251 522.603 142.368C522.592 142.475 522.587 142.533 522.587 142.544H516.347C516.453 143.237 516.741 143.803 517.211 144.24C517.691 144.677 518.251 144.896 518.891 144.896C519.403 144.896 519.824 144.816 520.155 144.656C520.496 144.496 520.731 144.341 520.859 144.192C520.997 144.032 521.12 143.872 521.227 143.712L522.347 144.288C522.101 144.789 521.68 145.216 521.083 145.568C520.496 145.92 519.76 146.096 518.875 146.096C518.117 146.096 517.44 145.92 516.843 145.568C516.245 145.216 515.781 144.725 515.451 144.096C515.12 143.467 514.955 142.747 514.955 141.936ZM528.166 141.936L531.254 146.064H529.51L527.382 143.12L525.286 146.064H523.526L526.582 141.936L523.494 137.792H525.27L527.382 140.784L529.51 137.792H531.27L528.166 141.936ZM535.731 146.096C535.049 146.096 534.489 145.872 534.051 145.424C533.614 144.976 533.385 144.4 533.363 143.696V139.072H531.987V137.84H533.363V135.648H534.771V137.84H536.547V139.072H534.771V143.6C534.771 143.92 534.862 144.197 535.043 144.432C535.225 144.667 535.454 144.784 535.731 144.784C535.891 144.784 536.035 144.773 536.163 144.752C536.291 144.731 536.419 144.704 536.547 144.672L536.803 145.968C536.398 146.053 536.041 146.096 535.731 146.096Z" fill="#6B6B6B"/>
<rect width="112" height="42" transform="translate(493.5 161)" fill="white"/>
<path d="M515.052 177.632H511.5V188.064H510.092V177.632H506.524V176.384H515.052V177.632ZM521.243 183.392C521.168 182.709 520.944 182.139 520.571 181.68C520.208 181.211 519.659 180.976 518.923 180.976C518.251 180.976 517.675 181.205 517.195 181.664C516.725 182.112 516.443 182.693 516.347 183.408L521.243 183.392ZM514.955 183.936C514.955 183.125 515.12 182.405 515.451 181.776C515.781 181.147 516.245 180.656 516.843 180.304C517.44 179.952 518.117 179.776 518.875 179.776C520.464 179.776 521.6 180.523 522.283 182.016C522.507 182.613 522.619 183.248 522.619 183.92C522.619 184.101 522.613 184.251 522.603 184.368C522.592 184.475 522.587 184.533 522.587 184.544H516.347C516.453 185.237 516.741 185.803 517.211 186.24C517.691 186.677 518.251 186.896 518.891 186.896C519.403 186.896 519.824 186.816 520.155 186.656C520.496 186.496 520.731 186.341 520.859 186.192C520.997 186.032 521.12 185.872 521.227 185.712L522.347 186.288C522.101 186.789 521.68 187.216 521.083 187.568C520.496 187.92 519.76 188.096 518.875 188.096C518.117 188.096 517.44 187.92 516.843 187.568C516.245 187.216 515.781 186.725 515.451 186.096C515.12 185.467 514.955 184.747 514.955 183.936ZM528.166 183.936L531.254 188.064H529.51L527.382 185.12L525.286 188.064H523.526L526.582 183.936L523.494 179.792H525.27L527.382 182.784L529.51 179.792H531.27L528.166 183.936ZM535.731 188.096C535.049 188.096 534.489 187.872 534.051 187.424C533.614 186.976 533.385 186.4 533.363 185.696V181.072H531.987V179.84H533.363V177.648H534.771V179.84H536.547V181.072H534.771V185.6C534.771 185.92 534.862 186.197 535.043 186.432C535.225 186.667 535.454 186.784 535.731 186.784C535.891 186.784 536.035 186.773 536.163 186.752C536.291 186.731 536.419 186.704 536.547 186.672L536.803 187.968C536.398 188.053 536.041 188.096 535.731 188.096Z" fill="#6B6B6B"/>
<rect width="112" height="42" transform="translate(493.5 203)" fill="white"/>
<path d="M515.052 219.632H511.5V230.064H510.092V219.632H506.524V218.384H515.052V219.632ZM521.243 225.392C521.168 224.709 520.944 224.139 520.571 223.68C520.208 223.211 519.659 222.976 518.923 222.976C518.251 222.976 517.675 223.205 517.195 223.664C516.725 224.112 516.443 224.693 516.347 225.408L521.243 225.392ZM514.955 225.936C514.955 225.125 515.12 224.405 515.451 223.776C515.781 223.147 516.245 222.656 516.843 222.304C517.44 221.952 518.117 221.776 518.875 221.776C520.464 221.776 521.6 222.523 522.283 224.016C522.507 224.613 522.619 225.248 522.619 225.92C522.619 226.101 522.613 226.251 522.603 226.368C522.592 226.475 522.587 226.533 522.587 226.544H516.347C516.453 227.237 516.741 227.803 517.211 228.24C517.691 228.677 518.251 228.896 518.891 228.896C519.403 228.896 519.824 228.816 520.155 228.656C520.496 228.496 520.731 228.341 520.859 228.192C520.997 228.032 521.12 227.872 521.227 227.712L522.347 228.288C522.101 228.789 521.68 229.216 521.083 229.568C520.496 229.92 519.76 230.096 518.875 230.096C518.117 230.096 517.44 229.92 516.843 229.568C516.245 229.216 515.781 228.725 515.451 228.096C515.12 227.467 514.955 226.747 514.955 225.936ZM528.166 225.936L531.254 230.064H529.51L527.382 227.12L525.286 230.064H523.526L526.582 225.936L523.494 221.792H525.27L527.382 224.784L529.51 221.792H531.27L528.166 225.936ZM535.731 230.096C535.049 230.096 534.489 229.872 534.051 229.424C533.614 228.976 533.385 228.4 533.363 227.696V223.072H531.987V221.84H533.363V219.648H534.771V221.84H536.547V223.072H534.771V227.6C534.771 227.92 534.862 228.197 535.043 228.432C535.225 228.667 535.454 228.784 535.731 228.784C535.891 228.784 536.035 228.773 536.163 228.752C536.291 228.731 536.419 228.704 536.547 228.672L536.803 229.968C536.398 230.053 536.041 230.096 535.731 230.096Z" fill="#6B6B6B"/>
<rect width="112" height="42" transform="translate(493.5 245)" fill="white"/>
<path d="M515.052 261.632H511.5V272.064H510.092V261.632H506.524V260.384H515.052V261.632ZM521.243 267.392C521.168 266.709 520.944 266.139 520.571 265.68C520.208 265.211 519.659 264.976 518.923 264.976C518.251 264.976 517.675 265.205 517.195 265.664C516.725 266.112 516.443 266.693 516.347 267.408L521.243 267.392ZM514.955 267.936C514.955 267.125 515.12 266.405 515.451 265.776C515.781 265.147 516.245 264.656 516.843 264.304C517.44 263.952 518.117 263.776 518.875 263.776C520.464 263.776 521.6 264.523 522.283 266.016C522.507 266.613 522.619 267.248 522.619 267.92C522.619 268.101 522.613 268.251 522.603 268.368C522.592 268.475 522.587 268.533 522.587 268.544H516.347C516.453 269.237 516.741 269.803 517.211 270.24C517.691 270.677 518.251 270.896 518.891 270.896C519.403 270.896 519.824 270.816 520.155 270.656C520.496 270.496 520.731 270.341 520.859 270.192C520.997 270.032 521.12 269.872 521.227 269.712L522.347 270.288C522.101 270.789 521.68 271.216 521.083 271.568C520.496 271.92 519.76 272.096 518.875 272.096C518.117 272.096 517.44 271.92 516.843 271.568C516.245 271.216 515.781 270.725 515.451 270.096C515.12 269.467 514.955 268.747 514.955 267.936ZM528.166 267.936L531.254 272.064H529.51L527.382 269.12L525.286 272.064H523.526L526.582 267.936L523.494 263.792H525.27L527.382 266.784L529.51 263.792H531.27L528.166 267.936ZM535.731 272.096C535.049 272.096 534.489 271.872 534.051 271.424C533.614 270.976 533.385 270.4 533.363 269.696V265.072H531.987V263.84H533.363V261.648H534.771V263.84H536.547V265.072H534.771V269.6C534.771 269.92 534.862 270.197 535.043 270.432C535.225 270.667 535.454 270.784 535.731 270.784C535.891 270.784 536.035 270.773 536.163 270.752C536.291 270.731 536.419 270.704 536.547 270.672L536.803 271.968C536.398 272.053 536.041 272.096 535.731 272.096Z" fill="#6B6B6B"/>
<rect width="112" height="42" transform="translate(493.5 287)" fill="white"/>
<path d="M515.052 303.632H511.5V314.064H510.092V303.632H506.524V302.384H515.052V303.632ZM521.243 309.392C521.168 308.709 520.944 308.139 520.571 307.68C520.208 307.211 519.659 306.976 518.923 306.976C518.251 306.976 517.675 307.205 517.195 307.664C516.725 308.112 516.443 308.693 516.347 309.408L521.243 309.392ZM514.955 309.936C514.955 309.125 515.12 308.405 515.451 307.776C515.781 307.147 516.245 306.656 516.843 306.304C517.44 305.952 518.117 305.776 518.875 305.776C520.464 305.776 521.6 306.523 522.283 308.016C522.507 308.613 522.619 309.248 522.619 309.92C522.619 310.101 522.613 310.251 522.603 310.368C522.592 310.475 522.587 310.533 522.587 310.544H516.347C516.453 311.237 516.741 311.803 517.211 312.24C517.691 312.677 518.251 312.896 518.891 312.896C519.403 312.896 519.824 312.816 520.155 312.656C520.496 312.496 520.731 312.341 520.859 312.192C520.997 312.032 521.12 311.872 521.227 311.712L522.347 312.288C522.101 312.789 521.68 313.216 521.083 313.568C520.496 313.92 519.76 314.096 518.875 314.096C518.117 314.096 517.44 313.92 516.843 313.568C516.245 313.216 515.781 312.725 515.451 312.096C515.12 311.467 514.955 310.747 514.955 309.936ZM528.166 309.936L531.254 314.064H529.51L527.382 311.12L525.286 314.064H523.526L526.582 309.936L523.494 305.792H525.27L527.382 308.784L529.51 305.792H531.27L528.166 309.936ZM535.731 314.096C535.049 314.096 534.489 313.872 534.051 313.424C533.614 312.976 533.385 312.4 533.363 311.696V307.072H531.987V305.84H533.363V303.648H534.771V305.84H536.547V307.072H534.771V311.6C534.771 311.92 534.862 312.197 535.043 312.432C535.225 312.667 535.454 312.784 535.731 312.784C535.891 312.784 536.035 312.773 536.163 312.752C536.291 312.731 536.419 312.704 536.547 312.672L536.803 313.968C536.398 314.053 536.041 314.096 535.731 314.096Z" fill="#6B6B6B"/>
<rect width="112" height="42" transform="translate(493.5 329)" fill="white"/>
<path d="M601.5 38C601.5 37.4477 601.948 37 602.5 37C603.052 37 603.5 37.4477 603.5 38V101C603.5 101.552 603.052 102 602.5 102C601.948 102 601.5 101.552 601.5 101V38Z" fill="#C2C2C2"/>
</g>
<path d="M494 39C494 37.067 495.567 35.5 497.5 35.5H601.5C603.433 35.5 605 37.067 605 39V331C605 332.933 603.433 334.5 601.5 334.5H497.5C495.567 334.5 494 332.933 494 331V39Z" stroke="#C2C2C2"/>
<path d="M645.898 57.4844C645.898 57.179 645.828 56.9215 645.687 56.7119C645.55 56.5023 645.372 56.3245 645.153 56.1787C644.935 56.0374 644.693 55.9189 644.429 55.8232C644.169 55.7275 643.918 55.641 643.677 55.5635C643.326 55.4495 642.968 55.3128 642.604 55.1533C642.243 54.9893 641.915 54.7933 641.619 54.5654C641.318 54.333 641.072 54.0596 640.881 53.7451C640.694 53.4261 640.601 53.0524 640.601 52.624C640.601 52.1956 640.694 51.8128 640.881 51.4756C641.072 51.1383 641.321 50.8535 641.626 50.6211C641.931 50.3887 642.278 50.2132 642.665 50.0947C643.052 49.9717 643.442 49.9102 643.834 49.9102C644.267 49.9102 644.684 49.9831 645.085 50.1289C645.486 50.2702 645.841 50.4707 646.151 50.7305C646.461 50.9902 646.71 51.3047 646.896 51.6738C647.083 52.043 647.181 52.4554 647.19 52.9111H645.892C645.855 52.624 645.785 52.3643 645.68 52.1318C645.575 51.8949 645.436 51.6921 645.263 51.5234C645.09 51.3548 644.882 51.2249 644.641 51.1338C644.404 51.0381 644.135 50.9902 643.834 50.9902C643.592 50.9902 643.355 51.0244 643.123 51.0928C642.895 51.1611 642.692 51.2637 642.515 51.4004C642.332 51.5371 642.187 51.7057 642.077 51.9062C641.972 52.1068 641.92 52.3392 641.92 52.6035C641.924 52.8906 641.997 53.1344 642.139 53.335C642.28 53.5309 642.46 53.6973 642.679 53.834C642.893 53.9707 643.125 54.0846 643.376 54.1758C643.631 54.2669 643.87 54.3467 644.094 54.415C644.463 54.529 644.832 54.668 645.201 54.832C645.57 54.9915 645.908 55.1966 646.213 55.4473C646.514 55.6797 646.755 55.9645 646.938 56.3018C647.124 56.639 647.218 57.0286 647.218 57.4707C647.218 57.9173 647.118 58.307 646.917 58.6396C646.721 58.9723 646.466 59.248 646.151 59.4668C645.837 59.6901 645.481 59.8587 645.085 59.9727C644.688 60.082 644.292 60.1367 643.896 60.1367C643.422 60.1367 642.954 60.057 642.494 59.8975C642.038 59.738 641.642 59.5078 641.305 59.207C641.004 58.9473 640.765 58.6442 640.587 58.2979C640.414 57.9469 640.32 57.5573 640.307 57.1289H641.599C641.64 57.4388 641.724 57.7145 641.852 57.9561C641.979 58.193 642.143 58.3936 642.344 58.5576C642.544 58.7262 642.774 58.8538 643.034 58.9404C643.299 59.0225 643.586 59.0635 643.896 59.0635C644.142 59.0635 644.383 59.0339 644.62 58.9746C644.862 58.9108 645.076 58.8128 645.263 58.6807C645.45 58.5531 645.602 58.3913 645.721 58.1953C645.839 57.9948 645.898 57.7578 645.898 57.4844ZM651.829 59.1113C652.057 59.1113 652.278 59.0749 652.492 59.002C652.711 58.929 652.905 58.8265 653.073 58.6943C653.242 58.5667 653.376 58.4163 653.476 58.2432C653.581 58.0654 653.636 57.874 653.641 57.6689H654.837C654.832 57.9971 654.746 58.3115 654.577 58.6123C654.413 58.9085 654.192 59.1683 653.914 59.3916C653.636 59.6195 653.317 59.8018 652.957 59.9385C652.597 60.0706 652.221 60.1367 651.829 60.1367C651.268 60.1367 650.779 60.0365 650.359 59.8359C649.94 59.6354 649.591 59.3643 649.313 59.0225C649.031 58.6852 648.819 58.2956 648.678 57.8535C648.536 57.4069 648.466 56.9375 648.466 56.4453V56.1582C648.466 55.6706 648.536 55.2035 648.678 54.7568C648.819 54.3102 649.031 53.916 649.313 53.5742C649.591 53.237 649.94 52.9681 650.359 52.7676C650.779 52.5671 651.268 52.4668 651.829 52.4668C652.267 52.4668 652.668 52.5374 653.032 52.6787C653.401 52.8154 653.72 53.0023 653.989 53.2393C654.254 53.4808 654.461 53.7656 654.611 54.0938C654.762 54.4219 654.837 54.7728 654.837 55.1465H653.641C653.636 54.9232 653.586 54.7135 653.49 54.5176C653.399 54.3171 653.274 54.1416 653.114 53.9912C652.955 53.8408 652.763 53.7223 652.54 53.6357C652.321 53.5492 652.084 53.5059 651.829 53.5059C651.437 53.5059 651.107 53.5856 650.838 53.7451C650.573 53.9001 650.359 54.1029 650.195 54.3535C650.031 54.6087 649.913 54.8936 649.84 55.208C649.771 55.5225 649.737 55.8392 649.737 56.1582V56.4453C649.737 56.7689 649.771 57.0902 649.84 57.4092C649.913 57.7236 650.031 58.0062 650.195 58.2568C650.355 58.512 650.567 58.7194 650.831 58.8789C651.1 59.0339 651.433 59.1113 651.829 59.1113ZM661.513 52.4668C661.745 52.4668 661.986 52.4827 662.237 52.5146C662.492 52.5465 662.684 52.5898 662.811 52.6445L662.64 53.8818C662.394 53.8271 662.16 53.7884 661.936 53.7656C661.718 53.7383 661.487 53.7246 661.246 53.7246C660.936 53.7246 660.656 53.7633 660.405 53.8408C660.154 53.9137 659.936 54.0231 659.749 54.1689C659.58 54.2965 659.432 54.4538 659.305 54.6406C659.181 54.8229 659.079 55.028 658.997 55.2559V60H657.725V52.6035H658.929L658.983 53.5947L658.99 53.7793C659.291 53.3737 659.651 53.0547 660.07 52.8223C660.494 52.5853 660.975 52.4668 661.513 52.4668ZM664.299 56.2334C664.299 55.7002 664.376 55.2057 664.531 54.75C664.686 54.2897 664.909 53.891 665.201 53.5537C665.488 53.2165 665.839 52.9521 666.254 52.7607C666.668 52.5648 667.136 52.4668 667.655 52.4668C668.179 52.4668 668.649 52.5648 669.063 52.7607C669.483 52.9521 669.838 53.2165 670.13 53.5537C670.417 53.891 670.638 54.2897 670.793 54.75C670.948 55.2057 671.025 55.7002 671.025 56.2334V56.3838C671.025 56.917 670.948 57.4115 670.793 57.8672C670.638 58.3229 670.417 58.7194 670.13 59.0566C669.838 59.3939 669.485 59.6582 669.07 59.8496C668.655 60.041 668.188 60.1367 667.669 60.1367C667.145 60.1367 666.673 60.041 666.254 59.8496C665.839 59.6582 665.488 59.3939 665.201 59.0566C664.909 58.7194 664.686 58.3229 664.531 57.8672C664.376 57.4115 664.299 56.917 664.299 56.3838V56.2334ZM665.563 56.3838C665.563 56.7484 665.607 57.097 665.693 57.4297C665.78 57.7578 665.912 58.0472 666.09 58.2979C666.263 58.5485 666.482 58.7467 666.746 58.8926C667.01 59.0384 667.318 59.1113 667.669 59.1113C668.015 59.1113 668.318 59.0384 668.578 58.8926C668.842 58.7467 669.063 58.5485 669.241 58.2979C669.414 58.0472 669.544 57.7578 669.631 57.4297C669.717 57.097 669.761 56.7484 669.761 56.3838V56.2334C669.761 55.8734 669.715 55.5293 669.624 55.2012C669.537 54.8685 669.407 54.5768 669.234 54.3262C669.056 54.0755 668.835 53.8773 668.571 53.7314C668.311 53.5811 668.006 53.5059 667.655 53.5059C667.304 53.5059 666.999 53.5811 666.739 53.7314C666.479 53.8773 666.263 54.0755 666.09 54.3262C665.912 54.5768 665.78 54.8685 665.693 55.2012C665.607 55.5293 665.563 55.8734 665.563 56.2334V56.3838ZM672.841 49.5H676.621V58.9062H679.034V60H672.841V58.9062H675.356V50.6006H672.841V49.5ZM680.829 49.5H684.609V58.9062H687.022V60H680.829V58.9062H683.344V50.6006H680.829V49.5ZM640.676 74V64.0469H643.636C644.046 64.0514 644.447 64.1061 644.839 64.2109C645.231 64.3112 645.579 64.4684 645.885 64.6826C646.19 64.8968 646.434 65.1702 646.616 65.5029C646.799 65.8356 646.887 66.2344 646.883 66.6992C646.878 66.959 646.835 67.196 646.753 67.4102C646.675 67.6243 646.568 67.8158 646.432 67.9844C646.29 68.1576 646.133 68.3034 645.96 68.4219C645.791 68.5404 645.586 68.652 645.345 68.7568V68.7773C645.595 68.8366 645.837 68.9437 646.069 69.0986C646.302 69.2536 646.493 69.4245 646.644 69.6113C646.803 69.8164 646.926 70.0465 647.013 70.3018C647.104 70.557 647.149 70.8327 647.149 71.1289C647.154 71.5938 647.065 72.0039 646.883 72.3594C646.701 72.7148 646.457 73.0111 646.151 73.248C645.846 73.4896 645.493 73.6742 645.092 73.8018C644.695 73.9294 644.285 73.9954 643.861 74H640.676ZM641.947 69.3447V72.9268H643.896C644.16 72.9222 644.41 72.8789 644.647 72.7969C644.884 72.7103 645.094 72.5918 645.276 72.4414C645.459 72.291 645.602 72.1064 645.707 71.8877C645.816 71.6689 645.871 71.4206 645.871 71.1426C645.876 70.86 645.828 70.6094 645.728 70.3906C645.632 70.1719 645.497 69.985 645.324 69.8301C645.151 69.6797 644.948 69.5635 644.716 69.4814C644.483 69.3994 644.233 69.3538 643.964 69.3447H641.947ZM641.947 68.292H643.711C643.948 68.2874 644.18 68.251 644.408 68.1826C644.636 68.1097 644.839 68.0049 645.017 67.8682C645.194 67.736 645.338 67.5719 645.447 67.376C645.557 67.18 645.611 66.9521 645.611 66.6924C645.611 66.4144 645.557 66.1774 645.447 65.9814C645.342 65.7855 645.201 65.6237 645.023 65.4961C644.841 65.373 644.632 65.2819 644.395 65.2227C644.162 65.1634 643.923 65.1315 643.677 65.127H641.947V68.292ZM653.538 74C653.488 73.9043 653.447 73.7858 653.415 73.6445C653.388 73.4987 653.367 73.3483 653.353 73.1934C653.226 73.321 653.082 73.4417 652.923 73.5557C652.768 73.6696 652.597 73.7699 652.41 73.8564C652.219 73.943 652.016 74.0114 651.802 74.0615C651.587 74.1117 651.36 74.1367 651.118 74.1367C650.726 74.1367 650.371 74.0798 650.052 73.9658C649.737 73.8519 649.471 73.6969 649.252 73.501C649.029 73.3096 648.855 73.0817 648.732 72.8174C648.614 72.5485 648.555 72.2591 648.555 71.9492C648.555 71.5436 648.634 71.1882 648.794 70.8828C648.958 70.5775 649.188 70.3223 649.484 70.1172C649.781 69.9167 650.136 69.7663 650.551 69.666C650.97 69.5658 651.437 69.5156 651.952 69.5156H653.333V68.9346C653.333 68.7113 653.292 68.5107 653.21 68.333C653.128 68.1553 653.012 68.0026 652.861 67.875C652.711 67.752 652.526 67.6562 652.308 67.5879C652.093 67.5195 651.852 67.4854 651.583 67.4854C651.332 67.4854 651.107 67.5173 650.906 67.5811C650.71 67.6449 650.544 67.7292 650.407 67.834C650.27 67.9388 650.163 68.0641 650.086 68.21C650.013 68.3512 649.976 68.4993 649.976 68.6543H648.705C648.71 68.3854 648.778 68.1211 648.91 67.8613C649.047 67.6016 649.243 67.3669 649.498 67.1572C649.749 66.9521 650.054 66.7858 650.414 66.6582C650.779 66.5306 651.191 66.4668 651.651 66.4668C652.071 66.4668 652.46 66.5192 652.82 66.624C653.18 66.7243 653.492 66.877 653.757 67.082C654.017 67.2917 654.222 67.5514 654.372 67.8613C654.522 68.1712 654.598 68.5335 654.598 68.9482V72.3867C654.598 72.6328 654.62 72.8949 654.666 73.1729C654.712 73.4463 654.775 73.6855 654.857 73.8906V74H653.538ZM651.303 73.0361C651.549 73.0361 651.779 73.0042 651.993 72.9404C652.207 72.8766 652.403 72.7923 652.581 72.6875C652.754 72.5827 652.905 72.4642 653.032 72.332C653.16 72.1953 653.26 72.054 653.333 71.9082V70.4111H652.157C651.72 70.4111 651.337 70.4499 651.009 70.5273C650.685 70.6003 650.428 70.7142 650.236 70.8691C650.1 70.9785 649.995 71.1084 649.922 71.2588C649.853 71.4092 649.819 71.5801 649.819 71.7715C649.819 71.9538 649.849 72.1224 649.908 72.2773C649.972 72.4323 650.065 72.5645 650.188 72.6738C650.311 72.7878 650.466 72.8766 650.653 72.9404C650.84 73.0042 651.057 73.0361 651.303 73.0361ZM661.513 66.4668C661.745 66.4668 661.986 66.4827 662.237 66.5146C662.492 66.5465 662.684 66.5898 662.811 66.6445L662.64 67.8818C662.394 67.8271 662.16 67.7884 661.936 67.7656C661.718 67.7383 661.487 67.7246 661.246 67.7246C660.936 67.7246 660.656 67.7633 660.405 67.8408C660.154 67.9137 659.936 68.0231 659.749 68.1689C659.58 68.2965 659.432 68.4538 659.305 68.6406C659.181 68.8229 659.079 69.028 658.997 69.2559V74H657.725V66.6035H658.929L658.983 67.5947L658.99 67.7793C659.291 67.3737 659.651 67.0547 660.07 66.8223C660.494 66.5853 660.975 66.4668 661.513 66.4668Z" fill="#6B6B6B"/>
<path d="M601.5 63L637.5 63" stroke="#6B6B6B" stroke-width="1.2" stroke-dasharray="2 2"/>
<defs>
<clipPath id="clip0_2269_3220">
<path d="M303.5 41C303.5 38.7909 305.291 37 307.5 37H411.5C413.709 37 415.5 38.7909 415.5 41V201C415.5 203.209 413.709 205 411.5 205H307.5C305.291 205 303.5 203.209 303.5 201V41Z" fill="white"/>
</clipPath>
<clipPath id="clip1_2269_3220">
<path d="M493.5 39C493.5 36.7909 495.291 35 497.5 35H601.5C603.709 35 605.5 36.7909 605.5 39V331C605.5 333.209 603.709 335 601.5 335H497.5C495.291 335 493.5 333.209 493.5 331V39Z" fill="white"/>
</clipPath>
</defs>
</svg>
