<svg width="390" height="276" viewBox="0 0 390 276" fill="none" xmlns="http://www.w3.org/2000/svg">
<g clip-path="url(#clip0_2269_3268)">
<rect width="390" height="276" fill="white"/>
<path d="M16.5 2C16.5 -2.14214 19.8579 -5.5 24 -5.5H366C370.142 -5.5 373.5 -2.14214 373.5 2V124C373.5 128.142 370.142 131.5 366 131.5H24C19.8579 131.5 16.5 128.142 16.5 124V2Z" fill="white"/>
<path d="M16.5 2C16.5 -2.14214 19.8579 -5.5 24 -5.5H366C370.142 -5.5 373.5 -2.14214 373.5 2V124C373.5 128.142 370.142 131.5 366 131.5H24C19.8579 131.5 16.5 128.142 16.5 124V2Z" stroke="#C2C2C2"/>
<path d="M39.562 28.838H44.672V30.098H38.106V19.794H39.562V28.838ZM48.8833 28.964C49.2659 28.964 49.6253 28.8567 49.9613 28.642C50.2973 28.418 50.5633 28.1193 50.7593 27.746C50.9646 27.3633 51.0673 26.9433 51.0673 26.486C51.0673 26.0287 50.9646 25.6133 50.7593 25.24C50.5633 24.8573 50.2973 24.5587 49.9613 24.344C49.6253 24.12 49.2659 24.008 48.8833 24.008C48.2579 24.008 47.7493 24.2367 47.3573 24.694C46.9653 25.1513 46.7693 25.7487 46.7693 26.486C46.7693 27.2233 46.9653 27.8207 47.3573 28.278C47.7493 28.7353 48.2579 28.964 48.8833 28.964ZM45.3133 26.486C45.3133 25.7767 45.4579 25.142 45.7473 24.582C46.0459 24.022 46.4566 23.588 46.9793 23.28C47.5113 22.9627 48.1133 22.804 48.7853 22.804C49.2146 22.804 49.6253 22.9113 50.0173 23.126C50.4186 23.3313 50.7639 23.644 51.0533 24.064V22.776H52.5093V30.098L51.0533 30.112V28.894C50.7546 29.3233 50.4093 29.6453 50.0173 29.86C49.6253 30.0653 49.2146 30.168 48.7853 30.168C48.1133 30.168 47.5113 30.014 46.9793 29.706C46.4566 29.3887 46.0459 28.95 45.7473 28.39C45.4579 27.83 45.3133 27.1953 45.3133 26.486ZM58.037 30.168C57.673 30.168 57.2763 30.07 56.847 29.874C56.427 29.678 56.063 29.3513 55.755 28.894V30.112H54.299V19.794H55.755V24.05C56.063 23.574 56.427 23.2427 56.847 23.056C57.2763 22.86 57.6776 22.762 58.051 22.762C58.723 22.762 59.325 22.9207 59.857 23.238C60.389 23.5553 60.8043 23.994 61.103 24.554C61.4016 25.114 61.551 25.7533 61.551 26.472C61.551 27.1907 61.4016 27.83 61.103 28.39C60.8043 28.95 60.389 29.3887 59.857 29.706C59.325 30.014 58.7183 30.168 58.037 30.168ZM55.755 26.486C55.755 26.9433 55.853 27.3633 56.049 27.746C56.245 28.1287 56.511 28.432 56.847 28.656C57.1923 28.88 57.561 28.992 57.953 28.992C58.5876 28.992 59.101 28.7633 59.493 28.306C59.8943 27.8393 60.095 27.2327 60.095 26.486C60.095 25.7487 59.8943 25.1513 59.493 24.694C59.101 24.2273 58.5876 23.994 57.953 23.994C57.561 23.994 57.197 24.106 56.861 24.33C56.525 24.554 56.2543 24.8573 56.049 25.24C55.853 25.6227 55.755 26.038 55.755 26.486ZM68.185 25.898C68.1197 25.3567 67.9283 24.904 67.611 24.54C67.2937 24.1667 66.8363 23.98 66.239 23.98C65.6977 23.98 65.2263 24.1667 64.825 24.54C64.433 24.904 64.195 25.3613 64.111 25.912L68.185 25.898ZM62.711 26.458C62.711 25.7393 62.8603 25.1 63.159 24.54C63.4577 23.98 63.8683 23.546 64.391 23.238C64.923 22.9207 65.5297 22.762 66.211 22.762C67.1723 22.762 67.877 22.9953 68.325 23.462C68.7823 23.9287 69.0903 24.358 69.249 24.75C69.4637 25.2727 69.571 25.8513 69.571 26.486C69.571 26.6167 69.5663 26.7333 69.557 26.836C69.5477 26.9293 69.543 26.99 69.543 27.018H64.111C64.195 27.578 64.4377 28.0353 64.839 28.39C65.2403 28.7447 65.7023 28.922 66.225 28.922C66.645 28.922 66.9903 28.8567 67.261 28.726C67.541 28.5953 67.7323 28.474 67.835 28.362C67.9377 28.25 68.0357 28.124 68.129 27.984L69.305 28.516C69.081 28.9733 68.7077 29.3607 68.185 29.678C67.6623 29.986 67.0043 30.14 66.211 30.14C65.5297 30.14 64.923 29.986 64.391 29.678C63.8683 29.3607 63.4577 28.922 63.159 28.362C62.8603 27.802 62.711 27.1673 62.711 26.458ZM72.3294 19.794V30.098H70.8734V19.794H72.3294Z" fill="#6B6B6B"/>
<path d="M37.5 44C37.5 42.067 39.067 40.5 41 40.5H349C350.933 40.5 352.5 42.067 352.5 44V78C352.5 79.933 350.933 81.5 349 81.5H41C39.067 81.5 37.5 79.933 37.5 78V44Z" fill="white"/>
<path d="M37.5 44C37.5 42.067 39.067 40.5 41 40.5H349C350.933 40.5 352.5 42.067 352.5 44V78C352.5 79.933 350.933 81.5 349 81.5H41C39.067 81.5 37.5 79.933 37.5 78V44Z" stroke="#C2C2C2"/>
<path d="M59.784 57.352V54.12H61.24V64.648H59.784V58.568H56.824V57.352H59.784ZM49.576 61.544C50.632 61.1493 51.4747 60.504 52.104 59.608C52.7333 58.712 53.048 57.7253 53.048 56.648V54.952H54.504V56.68C54.504 57.6613 54.808 58.5733 55.416 59.416C56.024 60.248 56.84 60.8507 57.864 61.224L57.096 62.36C56.3387 62.0613 55.6773 61.6347 55.112 61.08C54.5467 60.5147 54.1093 59.8587 53.8 59.112C53.5013 59.944 53.0533 60.6693 52.456 61.288C51.8693 61.9067 51.1653 62.376 50.344 62.696L49.576 61.544ZM52.104 63.496H53.56V66.728H61.576V67.928H52.104V63.496ZM69.4484 55.112V56.296H65.4004V57.928H69.3204V59.048H65.4004V60.792C66.4457 60.7813 67.2937 60.7547 67.9444 60.712C68.6057 60.6693 69.2777 60.5787 69.9604 60.44L70.1044 61.624C69.3364 61.7733 68.5737 61.8747 67.8164 61.928C67.059 61.9707 66.0937 61.992 64.9204 61.992H63.9924V55.112H69.4484ZM65.8164 63.384H75.3364V68.232H73.8804V64.584H65.8164V63.384ZM70.8564 54.376H72.2324V57.736H73.9444V54.104H75.3364V62.68H73.9444V58.936H72.2324V62.6H70.8564V54.376ZM88.1528 54.12V59.848H90.3928V61.064H88.1528V68.232H86.6968V54.12H88.1528ZM77.1608 56.328H80.6168V54.296H82.1048V56.328H85.4808V57.512H77.1608V56.328ZM77.9128 61.864C77.9128 61.2347 78.0621 60.6747 78.3608 60.184C78.6594 59.6827 79.0701 59.2933 79.5928 59.016C80.1261 58.7387 80.7181 58.6 81.3688 58.6C82.0301 58.6 82.6221 58.7387 83.1448 59.016C83.6781 59.2933 84.0941 59.6827 84.3928 60.184C84.6914 60.6747 84.8408 61.2347 84.8408 61.864C84.8408 62.4933 84.6914 63.0587 84.3928 63.56C84.0941 64.0507 83.6781 64.4347 83.1448 64.712C82.6221 64.9893 82.0301 65.128 81.3688 65.128C80.7181 65.128 80.1261 64.9893 79.5928 64.712C79.0701 64.4347 78.6594 64.0507 78.3608 63.56C78.0621 63.0587 77.9128 62.4933 77.9128 61.864ZM79.3048 61.864C79.3048 62.472 79.4968 62.968 79.8808 63.352C80.2648 63.736 80.7608 63.928 81.3688 63.928C81.9768 63.928 82.4728 63.736 82.8568 63.352C83.2514 62.968 83.4488 62.472 83.4488 61.864C83.4488 61.256 83.2514 60.76 82.8568 60.376C82.4728 59.992 81.9768 59.8 81.3688 59.8C80.7714 59.8 80.2754 59.992 79.8808 60.376C79.4968 60.76 79.3048 61.256 79.3048 61.864ZM98.8091 59.096V54.408H100.169V67.528H98.8091V60.296H96.6171V59.096H98.8091ZM90.8731 64.152C91.8225 63.576 92.5638 62.728 93.0971 61.608C93.6305 60.4773 93.8971 59.2827 93.8971 58.024V55.432H95.3051V57.976C95.3051 59.16 95.5505 60.2853 96.0411 61.352C96.5318 62.4187 97.2305 63.2347 98.1371 63.8L97.3051 64.936C96.6758 64.552 96.1318 64.024 95.6731 63.352C95.2251 62.68 94.8731 61.9173 94.6171 61.064C94.3505 61.9813 93.9718 62.8027 93.4811 63.528C93.0011 64.2533 92.4305 64.824 91.7691 65.24L90.8731 64.152ZM101.673 54.104H103.081V68.216H101.673V54.104ZM107.962 65.24V61.512C107.375 61.192 106.916 60.7867 106.586 60.296C106.266 59.7947 106.106 59.2347 106.106 58.616C106.106 57.8907 106.324 57.2507 106.762 56.696C107.21 56.1413 107.823 55.7147 108.602 55.416C109.38 55.1067 110.266 54.952 111.258 54.952C112.26 54.952 113.151 55.1067 113.93 55.416C114.719 55.7147 115.332 56.1413 115.77 56.696C116.207 57.2507 116.426 57.8907 116.426 58.616C116.426 59.2347 116.266 59.7893 115.946 60.28C115.636 60.76 115.194 61.1653 114.618 61.496V65.24H117.674V66.44H104.89V65.24H107.962ZM107.53 58.616C107.53 59.1173 107.684 59.56 107.994 59.944C108.314 60.3173 108.756 60.6107 109.322 60.824C109.887 61.0267 110.532 61.128 111.258 61.128C111.983 61.128 112.628 61.0267 113.194 60.824C113.759 60.6107 114.202 60.3173 114.522 59.944C114.842 59.56 115.002 59.1173 115.002 58.616C115.002 58.1147 114.842 57.6773 114.522 57.304C114.202 56.92 113.759 56.6267 113.194 56.424C112.628 56.2107 111.983 56.104 111.258 56.104C110.532 56.104 109.887 56.2107 109.322 56.424C108.756 56.6267 108.314 56.92 107.994 57.304C107.684 57.6773 107.53 58.1147 107.53 58.616ZM113.146 65.24V62.056C112.591 62.1947 111.962 62.264 111.258 62.264C110.575 62.264 109.956 62.1947 109.402 62.056V65.24H113.146Z" fill="#C2C2C2"/>
<path d="M337 60L331 65L325 60" stroke="#C2C2C2" stroke-width="1.4" stroke-linejoin="bevel"/>
<path d="M39.5757 89.5757C39.3414 89.8101 39.3414 90.1899 39.5757 90.4243L43.3941 94.2426C43.6284 94.477 44.0083 94.477 44.2426 94.2426C44.477 94.0083 44.477 93.6284 44.2426 93.3941L40.8485 90L44.2426 86.6059C44.477 86.3716 44.477 85.9917 44.2426 85.7574C44.0083 85.523 43.6284 85.523 43.3941 85.7574L39.5757 89.5757ZM350.424 90.4243C350.659 90.1899 350.659 89.8101 350.424 89.5757L346.606 85.7574C346.372 85.523 345.992 85.523 345.757 85.7574C345.523 85.9917 345.523 86.3716 345.757 86.6059L349.151 90L345.757 93.3941C345.523 93.6284 345.523 94.0083 345.757 94.2426C345.992 94.477 346.372 94.477 346.606 94.2426L350.424 90.4243ZM40 90.6H350V89.4H40V90.6Z" fill="#6B6B6B"/>
<path d="M193.918 101.054H188.304V104.302H193.022V105.562H188.304V110.098H186.848V99.794H193.918V101.054ZM196.942 102.818V110.098H195.486V102.818H196.942ZM195.388 100.438C195.388 100.195 195.463 99.9993 195.612 99.85C195.771 99.6913 195.972 99.612 196.214 99.612C196.457 99.612 196.653 99.6913 196.802 99.85C196.961 99.9993 197.04 100.195 197.04 100.438C197.04 100.671 196.961 100.867 196.802 101.026C196.653 101.185 196.457 101.264 196.214 101.264C195.972 101.264 195.771 101.189 195.612 101.04C195.463 100.881 195.388 100.681 195.388 100.438ZM200.201 99.794V110.098H198.745V99.794H200.201ZM203.343 99.794V110.098H201.887V99.794H203.343Z" fill="#6B6B6B"/>
<path d="M15.5757 225.576C15.3414 225.81 15.3414 226.19 15.5757 226.424L19.3941 230.243C19.6284 230.477 20.0083 230.477 20.2426 230.243C20.477 230.008 20.477 229.628 20.2426 229.394L16.8485 226L20.2426 222.606C20.477 222.372 20.477 221.992 20.2426 221.757C20.0083 221.523 19.6284 221.523 19.3941 221.757L15.5757 225.576ZM374.424 226.424C374.659 226.19 374.659 225.81 374.424 225.576L370.606 221.757C370.372 221.523 369.992 221.523 369.757 221.757C369.523 221.992 369.523 222.372 369.757 222.606L373.151 226L369.757 229.394C369.523 229.628 369.523 230.008 369.757 230.243C369.992 230.477 370.372 230.477 370.606 230.243L374.424 226.424ZM16 226.6H374V225.4H16V226.6Z" fill="#6B6B6B"/>
<path d="M194.418 237.054H188.804V240.302H193.522V241.562H188.804V246.098H187.348V235.794H194.418V237.054ZM197.442 238.818V246.098H195.986V238.818H197.442ZM195.888 236.438C195.888 236.195 195.963 235.999 196.112 235.85C196.271 235.691 196.472 235.612 196.714 235.612C196.957 235.612 197.153 235.691 197.302 235.85C197.461 235.999 197.54 236.195 197.54 236.438C197.54 236.671 197.461 236.867 197.302 237.026C197.153 237.185 196.957 237.264 196.714 237.264C196.472 237.264 196.271 237.189 196.112 237.04C195.963 236.881 195.888 236.681 195.888 236.438ZM200.701 235.794V246.098H199.245V235.794H200.701ZM203.843 235.794V246.098H202.387V235.794H203.843Z" fill="#6B6B6B"/>
<path d="M18.562 157.838H23.672V159.098H17.106V148.794H18.562V157.838ZM27.8833 157.964C28.2659 157.964 28.6253 157.857 28.9613 157.642C29.2973 157.418 29.5633 157.119 29.7593 156.746C29.9646 156.363 30.0673 155.943 30.0673 155.486C30.0673 155.029 29.9646 154.613 29.7593 154.24C29.5633 153.857 29.2973 153.559 28.9613 153.344C28.6253 153.12 28.2659 153.008 27.8833 153.008C27.2579 153.008 26.7493 153.237 26.3573 153.694C25.9653 154.151 25.7693 154.749 25.7693 155.486C25.7693 156.223 25.9653 156.821 26.3573 157.278C26.7493 157.735 27.2579 157.964 27.8833 157.964ZM24.3133 155.486C24.3133 154.777 24.4579 154.142 24.7473 153.582C25.0459 153.022 25.4566 152.588 25.9793 152.28C26.5113 151.963 27.1133 151.804 27.7853 151.804C28.2146 151.804 28.6253 151.911 29.0173 152.126C29.4186 152.331 29.7639 152.644 30.0533 153.064V151.776H31.5093V159.098L30.0533 159.112V157.894C29.7546 158.323 29.4093 158.645 29.0173 158.86C28.6253 159.065 28.2146 159.168 27.7853 159.168C27.1133 159.168 26.5113 159.014 25.9793 158.706C25.4566 158.389 25.0459 157.95 24.7473 157.39C24.4579 156.83 24.3133 156.195 24.3133 155.486ZM37.037 159.168C36.673 159.168 36.2763 159.07 35.847 158.874C35.427 158.678 35.063 158.351 34.755 157.894V159.112H33.299V148.794H34.755V153.05C35.063 152.574 35.427 152.243 35.847 152.056C36.2763 151.86 36.6776 151.762 37.051 151.762C37.723 151.762 38.325 151.921 38.857 152.238C39.389 152.555 39.8043 152.994 40.103 153.554C40.4016 154.114 40.551 154.753 40.551 155.472C40.551 156.191 40.4016 156.83 40.103 157.39C39.8043 157.95 39.389 158.389 38.857 158.706C38.325 159.014 37.7183 159.168 37.037 159.168ZM34.755 155.486C34.755 155.943 34.853 156.363 35.049 156.746C35.245 157.129 35.511 157.432 35.847 157.656C36.1923 157.88 36.561 157.992 36.953 157.992C37.5876 157.992 38.101 157.763 38.493 157.306C38.8943 156.839 39.095 156.233 39.095 155.486C39.095 154.749 38.8943 154.151 38.493 153.694C38.101 153.227 37.5876 152.994 36.953 152.994C36.561 152.994 36.197 153.106 35.861 153.33C35.525 153.554 35.2543 153.857 35.049 154.24C34.853 154.623 34.755 155.038 34.755 155.486ZM47.185 154.898C47.1197 154.357 46.9283 153.904 46.611 153.54C46.2937 153.167 45.8363 152.98 45.239 152.98C44.6977 152.98 44.2263 153.167 43.825 153.54C43.433 153.904 43.195 154.361 43.111 154.912L47.185 154.898ZM41.711 155.458C41.711 154.739 41.8603 154.1 42.159 153.54C42.4577 152.98 42.8683 152.546 43.391 152.238C43.923 151.921 44.5297 151.762 45.211 151.762C46.1723 151.762 46.877 151.995 47.325 152.462C47.7823 152.929 48.0903 153.358 48.249 153.75C48.4637 154.273 48.571 154.851 48.571 155.486C48.571 155.617 48.5663 155.733 48.557 155.836C48.5477 155.929 48.543 155.99 48.543 156.018H43.111C43.195 156.578 43.4377 157.035 43.839 157.39C44.2403 157.745 44.7023 157.922 45.225 157.922C45.645 157.922 45.9903 157.857 46.261 157.726C46.541 157.595 46.7323 157.474 46.835 157.362C46.9377 157.25 47.0357 157.124 47.129 156.984L48.305 157.516C48.081 157.973 47.7077 158.361 47.185 158.678C46.6623 158.986 46.0043 159.14 45.211 159.14C44.5297 159.14 43.923 158.986 43.391 158.678C42.8683 158.361 42.4577 157.922 42.159 157.362C41.8603 156.802 41.711 156.167 41.711 155.458ZM51.3294 148.794V159.098H49.8734V148.794H51.3294Z" fill="#6B6B6B"/>
<path d="M16.5 173C16.5 171.067 18.067 169.5 20 169.5H370C371.933 169.5 373.5 171.067 373.5 173V207C373.5 208.933 371.933 210.5 370 210.5H20C18.067 210.5 16.5 208.933 16.5 207V173Z" fill="white"/>
<path d="M16.5 173C16.5 171.067 18.067 169.5 20 169.5H370C371.933 169.5 373.5 171.067 373.5 173V207C373.5 208.933 371.933 210.5 370 210.5H20C18.067 210.5 16.5 208.933 16.5 207V173Z" stroke="#C2C2C2"/>
<path d="M38.784 186.352V183.12H40.24V193.648H38.784V187.568H35.824V186.352H38.784ZM28.576 190.544C29.632 190.149 30.4747 189.504 31.104 188.608C31.7333 187.712 32.048 186.725 32.048 185.648V183.952H33.504V185.68C33.504 186.661 33.808 187.573 34.416 188.416C35.024 189.248 35.84 189.851 36.864 190.224L36.096 191.36C35.3387 191.061 34.6773 190.635 34.112 190.08C33.5467 189.515 33.1093 188.859 32.8 188.112C32.5013 188.944 32.0533 189.669 31.456 190.288C30.8693 190.907 30.1653 191.376 29.344 191.696L28.576 190.544ZM31.104 192.496H32.56V195.728H40.576V196.928H31.104V192.496ZM48.4484 184.112V185.296H44.4004V186.928H48.3204V188.048H44.4004V189.792C45.4457 189.781 46.2937 189.755 46.9444 189.712C47.6057 189.669 48.2777 189.579 48.9604 189.44L49.1044 190.624C48.3364 190.773 47.5737 190.875 46.8164 190.928C46.059 190.971 45.0937 190.992 43.9204 190.992H42.9924V184.112H48.4484ZM44.8164 192.384H54.3364V197.232H52.8804V193.584H44.8164V192.384ZM49.8564 183.376H51.2324V186.736H52.9444V183.104H54.3364V191.68H52.9444V187.936H51.2324V191.6H49.8564V183.376ZM67.1528 183.12V188.848H69.3928V190.064H67.1528V197.232H65.6968V183.12H67.1528ZM56.1608 185.328H59.6168V183.296H61.1048V185.328H64.4808V186.512H56.1608V185.328ZM56.9128 190.864C56.9128 190.235 57.0621 189.675 57.3608 189.184C57.6594 188.683 58.0701 188.293 58.5928 188.016C59.1261 187.739 59.7181 187.6 60.3688 187.6C61.0301 187.6 61.6221 187.739 62.1448 188.016C62.6781 188.293 63.0941 188.683 63.3928 189.184C63.6914 189.675 63.8408 190.235 63.8408 190.864C63.8408 191.493 63.6914 192.059 63.3928 192.56C63.0941 193.051 62.6781 193.435 62.1448 193.712C61.6221 193.989 61.0301 194.128 60.3688 194.128C59.7181 194.128 59.1261 193.989 58.5928 193.712C58.0701 193.435 57.6594 193.051 57.3608 192.56C57.0621 192.059 56.9128 191.493 56.9128 190.864ZM58.3048 190.864C58.3048 191.472 58.4968 191.968 58.8808 192.352C59.2648 192.736 59.7608 192.928 60.3688 192.928C60.9768 192.928 61.4728 192.736 61.8568 192.352C62.2514 191.968 62.4488 191.472 62.4488 190.864C62.4488 190.256 62.2514 189.76 61.8568 189.376C61.4728 188.992 60.9768 188.8 60.3688 188.8C59.7714 188.8 59.2754 188.992 58.8808 189.376C58.4968 189.76 58.3048 190.256 58.3048 190.864ZM77.8091 188.096V183.408H79.1691V196.528H77.8091V189.296H75.6171V188.096H77.8091ZM69.8731 193.152C70.8225 192.576 71.5638 191.728 72.0971 190.608C72.6305 189.477 72.8971 188.283 72.8971 187.024V184.432H74.3051V186.976C74.3051 188.16 74.5505 189.285 75.0411 190.352C75.5318 191.419 76.2305 192.235 77.1371 192.8L76.3051 193.936C75.6758 193.552 75.1318 193.024 74.6731 192.352C74.2251 191.68 73.8731 190.917 73.6171 190.064C73.3505 190.981 72.9718 191.803 72.4811 192.528C72.0011 193.253 71.4305 193.824 70.7691 194.24L69.8731 193.152ZM80.6731 183.104H82.0811V197.216H80.6731V183.104ZM86.9615 194.24V190.512C86.3748 190.192 85.9162 189.787 85.5855 189.296C85.2655 188.795 85.1055 188.235 85.1055 187.616C85.1055 186.891 85.3242 186.251 85.7615 185.696C86.2095 185.141 86.8228 184.715 87.6015 184.416C88.3802 184.107 89.2655 183.952 90.2575 183.952C91.2602 183.952 92.1508 184.107 92.9295 184.416C93.7188 184.715 94.3322 185.141 94.7695 185.696C95.2068 186.251 95.4255 186.891 95.4255 187.616C95.4255 188.235 95.2655 188.789 94.9455 189.28C94.6362 189.76 94.1935 190.165 93.6175 190.496V194.24H96.6735V195.44H83.8895V194.24H86.9615ZM86.5295 187.616C86.5295 188.117 86.6842 188.56 86.9935 188.944C87.3135 189.317 87.7562 189.611 88.3215 189.824C88.8868 190.027 89.5322 190.128 90.2575 190.128C90.9828 190.128 91.6282 190.027 92.1935 189.824C92.7588 189.611 93.2015 189.317 93.5215 188.944C93.8415 188.56 94.0015 188.117 94.0015 187.616C94.0015 187.115 93.8415 186.677 93.5215 186.304C93.2015 185.92 92.7588 185.627 92.1935 185.424C91.6282 185.211 90.9828 185.104 90.2575 185.104C89.5322 185.104 88.8868 185.211 88.3215 185.424C87.7562 185.627 87.3135 185.92 86.9935 186.304C86.6842 186.677 86.5295 187.115 86.5295 187.616ZM92.1455 194.24V191.056C91.5908 191.195 90.9615 191.264 90.2575 191.264C89.5748 191.264 88.9562 191.195 88.4015 191.056V194.24H92.1455Z" fill="#C2C2C2"/>
<path d="M358 189L352 194L346 189" stroke="#C2C2C2" stroke-width="1.4" stroke-linejoin="bevel"/>
</g>
<defs>
<clipPath id="clip0_2269_3268">
<rect width="390" height="276" fill="white"/>
</clipPath>
</defs>
</svg>
