<svg xmlns="http://www.w3.org/2000/svg" width="908" height="282" fill="none"><path fill="#fff" d="M.5 0h907v282H.5z"/><path fill="#6B6B6B" d="M298.562 31.838h5.11v1.26h-6.566V22.794h1.456zm9.321.126q.574 0 1.078-.322.504-.336.798-.896.308-.574.308-1.26t-.308-1.246a2.26 2.26 0 0 0-.798-.896 1.9 1.9 0 0 0-1.078-.336q-.938 0-1.526.686t-.588 1.792.588 1.792 1.526.686m-3.57-2.478q0-1.064.434-1.904.449-.84 1.232-1.302.798-.476 1.806-.476.644 0 1.232.322.603.308 1.036.938v-1.288h1.456v7.322l-1.456.014v-1.218q-.447.644-1.036.966a2.6 2.6 0 0 1-1.232.308q-1.008 0-1.806-.462a3.36 3.36 0 0 1-1.232-1.316q-.434-.84-.434-1.904m12.724 3.682q-.546 0-1.19-.294-.63-.294-1.092-.98v1.218h-1.456V22.794h1.456v4.256q.462-.714 1.092-.994.644-.294 1.204-.294 1.008 0 1.806.476a3.3 3.3 0 0 1 1.246 1.316q.448.84.448 1.918t-.448 1.918a3.3 3.3 0 0 1-1.246 1.316q-.798.462-1.82.462m-2.282-3.682q0 .686.294 1.26t.798.91q.518.336 1.106.336.952 0 1.54-.686.602-.7.602-1.82 0-1.106-.602-1.792-.588-.7-1.54-.7a1.93 1.93 0 0 0-1.092.336 2.5 2.5 0 0 0-.812.91 2.7 2.7 0 0 0-.294 1.246m12.43-.588q-.098-.812-.574-1.358-.476-.56-1.372-.56-.812 0-1.414.56-.588.546-.714 1.372zm-5.474.56q0-1.078.448-1.918a3.25 3.25 0 0 1 1.232-1.302q.798-.476 1.82-.476 1.442 0 2.114.7.685.7.924 1.288.322.784.322 1.736 0 .195-.014.35a3 3 0 0 0-.014.182h-5.432q.126.84.728 1.372a2.03 2.03 0 0 0 1.386.532q.63 0 1.036-.196.42-.195.574-.364a3 3 0 0 0 .294-.378l1.176.532q-.336.686-1.12 1.162-.785.462-1.974.462-1.022 0-1.82-.462a3.35 3.35 0 0 1-1.232-1.316q-.448-.84-.448-1.904m9.618-6.664v10.304h-1.456V22.794z"/><path fill="#fff" d="M296.5 47a3.5 3.5 0 0 1 3.5-3.5h308a3.5 3.5 0 0 1 3.5 3.5v34a3.5 3.5 0 0 1-3.5 3.5H300a3.5 3.5 0 0 1-3.5-3.5z"/><path stroke="#C2C2C2" d="M296.5 47a3.5 3.5 0 0 1 3.5-3.5h308a3.5 3.5 0 0 1 3.5 3.5v34a3.5 3.5 0 0 1-3.5 3.5H300a3.5 3.5 0 0 1-3.5-3.5z"/><path fill="#C2C2C2" d="M318.784 60.352V57.12h1.456v10.528h-1.456v-6.08h-2.96v-1.216zm-10.208 4.192q1.584-.592 2.528-1.936a5.04 5.04 0 0 0 .944-2.96v-1.696h1.456v1.728q0 1.471.912 2.736.912 1.248 2.448 1.808l-.768 1.136a5.9 5.9 0 0 1-1.984-1.28 6 6 0 0 1-1.312-1.968 6 6 0 0 1-1.344 2.176 5.75 5.75 0 0 1-2.112 1.408zm2.528 1.952h1.456v3.232h8.016v1.2h-9.472zm17.344-8.384v1.184H324.4v1.632h3.92v1.12h-3.92v1.744a48 48 0 0 0 2.544-.08 15 15 0 0 0 2.016-.272l.144 1.184q-1.151.224-2.288.304-1.135.064-2.896.064h-.928v-6.88zm-3.632 8.272h9.52v4.848h-1.456v-3.648h-8.064zm5.04-9.008h1.376v3.36h1.712v-3.632h1.392v8.576h-1.392v-3.744h-1.712V65.6h-1.376zm17.297-.256v5.728h2.24v1.216h-2.24v7.168h-1.456V57.12zm-10.992 2.208h3.456v-2.032h1.488v2.032h3.376v1.184h-8.32zm.752 5.536q0-.945.448-1.68.447-.751 1.232-1.168a3.8 3.8 0 0 1 1.776-.416q.991 0 1.776.416.8.416 1.248 1.168.447.735.448 1.68 0 .945-.448 1.696-.448.736-1.248 1.152-.784.416-1.776.416a3.8 3.8 0 0 1-1.776-.416 3.1 3.1 0 0 1-1.232-1.152 3.25 3.25 0 0 1-.448-1.696m1.392 0q0 .912.576 1.488t1.488.576 1.488-.576q.591-.576.592-1.488 0-.912-.592-1.488-.576-.576-1.488-.576-.897 0-1.488.576-.576.576-.576 1.488m19.504-2.768v-4.688h1.36v13.12h-1.36v-7.232h-2.192v-1.2zm-7.936 5.056q1.424-.864 2.224-2.544.8-1.695.8-3.584v-2.592h1.408v2.544q0 1.776.736 3.376t2.096 2.448l-.832 1.136q-.944-.576-1.632-1.584a8.5 8.5 0 0 1-1.056-2.288 8.7 8.7 0 0 1-1.136 2.464q-.72 1.088-1.712 1.712zm10.8-10.048h1.408v14.112h-1.408zm6.289 11.136v-3.728q-.88-.48-1.376-1.216a3.06 3.06 0 0 1-.48-1.68q0-1.088.656-1.92.672-.832 1.84-1.28 1.167-.465 2.656-.464 1.503 0 2.672.464 1.183.448 1.84 1.28.656.832.656 1.92 0 .928-.48 1.664-.464.72-1.328 1.216v3.744h3.056v1.2H363.89v-1.2zm-.432-6.624q0 .752.464 1.328.48.56 1.328.88.847.304 1.936.304 1.087 0 1.936-.304.848-.32 1.328-.88.48-.576.48-1.328t-.48-1.312q-.48-.576-1.328-.88-.849-.32-1.936-.32-1.089 0-1.936.32-.849.304-1.328.88a2 2 0 0 0-.464 1.312m5.616 6.624v-3.184a7.8 7.8 0 0 1-1.888.208q-1.025 0-1.856-.208v3.184z"/><path stroke="#C2C2C2" stroke-linejoin="bevel" stroke-width="1.4" d="m596 63-6 5-6-5"/><g clip-path="url(#a)"><path fill="#fff" d="M296.5 93h316v42h-316z"/><path fill="#6B6B6B" d="M318.052 109.632H314.5v10.432h-1.408v-10.432h-3.568v-1.248h8.528zm6.191 5.76q-.112-1.024-.672-1.712-.544-.704-1.648-.704-1.008 0-1.728.688-.704.672-.848 1.744zm-6.288.544q0-1.216.496-2.16.495-.944 1.392-1.472.895-.528 2.032-.528 2.384 0 3.408 2.24.336.896.336 1.904a5 5 0 0 1-.032.624h-6.24q.159 1.04.864 1.696.72.656 1.68.656.768 0 1.264-.24.512-.24.704-.464.207-.24.368-.48l1.12.576q-.369.752-1.264 1.28-.88.528-2.208.528-1.137 0-2.032-.528a3.63 3.63 0 0 1-1.392-1.472q-.496-.944-.496-2.16m13.211 0 3.088 4.128h-1.744l-2.128-2.944-2.096 2.944h-1.76l3.056-4.128-3.088-4.144h1.776l2.112 2.992 2.128-2.992h1.76zm7.565 4.16q-1.023 0-1.68-.672-.655-.672-.688-1.728v-4.624h-1.376v-1.232h1.376v-2.192h1.408v2.192h1.776v1.232h-1.776v4.528q0 .48.272.832a.84.84 0 0 0 .688.352q.24 0 .432-.032t.384-.08l.256 1.296a5.3 5.3 0 0 1-1.072.128"/><path fill="#fff" d="M296.5 135h316v42h-316z"/><path fill="#2B72C5" d="M318.052 151.632H314.5v10.432h-1.408v-10.432h-3.568v-1.248h8.528zm6.191 5.76q-.112-1.024-.672-1.712-.544-.704-1.648-.704-1.008 0-1.728.688-.704.672-.848 1.744zm-6.288.544q0-1.217.496-2.16.495-.944 1.392-1.472.895-.528 2.032-.528 2.384 0 3.408 2.24.336.896.336 1.904a5 5 0 0 1-.032.624h-6.24q.159 1.04.864 1.696.72.656 1.68.656.768 0 1.264-.24.512-.24.704-.464.207-.24.368-.48l1.12.576q-.369.752-1.264 1.28-.88.528-2.208.528-1.137 0-2.032-.528a3.63 3.63 0 0 1-1.392-1.472q-.496-.943-.496-2.16m13.211 0 3.088 4.128h-1.744l-2.128-2.944-2.096 2.944h-1.76l3.056-4.128-3.088-4.144h1.776l2.112 2.992 2.128-2.992h1.76zm7.565 4.16q-1.023 0-1.68-.672-.655-.672-.688-1.728v-4.624h-1.376v-1.232h1.376v-2.192h1.408v2.192h1.776v1.232h-1.776v4.528q0 .48.272.832a.84.84 0 0 0 .688.352q.24 0 .432-.032t.384-.08l.256 1.296a5.3 5.3 0 0 1-1.072.128"/><path fill="#EBF4FE" d="M296.5 177h316v42h-316z"/><path fill="#5EA5F9" d="M318.052 193.632H314.5v10.432h-1.408v-10.432h-3.568v-1.248h8.528zm6.191 5.76q-.112-1.024-.672-1.712-.544-.704-1.648-.704-1.008 0-1.728.688-.704.672-.848 1.744zm-6.288.544q0-1.217.496-2.16.495-.944 1.392-1.472.895-.528 2.032-.528 2.384 0 3.408 2.24.336.896.336 1.904a5 5 0 0 1-.032.624h-6.24q.159 1.04.864 1.696.72.656 1.68.656.768 0 1.264-.24.512-.24.704-.464.207-.24.368-.48l1.12.576q-.369.752-1.264 1.28-.88.528-2.208.528-1.137 0-2.032-.528a3.63 3.63 0 0 1-1.392-1.472q-.496-.944-.496-2.16m13.211 0 3.088 4.128h-1.744l-2.128-2.944-2.096 2.944h-1.76l3.056-4.128-3.088-4.144h1.776l2.112 2.992 2.128-2.992h1.76zm7.565 4.16q-1.023 0-1.68-.672-.655-.672-.688-1.728v-4.624h-1.376v-1.232h1.376v-2.192h1.408v2.192h1.776v1.232h-1.776v4.528q0 .48.272.832a.84.84 0 0 0 .688.352q.24 0 .432-.032t.384-.08l.256 1.296a5.3 5.3 0 0 1-1.072.128"/><path fill="#EBF4FE" d="M296.5 219h316v42h-316z"/><path fill="#121212" d="M318.052 235.632H314.5v10.432h-1.408v-10.432h-3.568v-1.248h8.528zm6.191 5.76q-.112-1.024-.672-1.712-.544-.704-1.648-.704-1.008 0-1.728.688-.704.672-.848 1.744zm-6.288.544q0-1.217.496-2.16.495-.944 1.392-1.472.895-.528 2.032-.528 2.384 0 3.408 2.24.336.896.336 1.904a5 5 0 0 1-.032.624h-6.24q.159 1.04.864 1.696.72.656 1.68.656.768 0 1.264-.24.512-.24.704-.464.207-.24.368-.48l1.12.576q-.369.752-1.264 1.28-.88.528-2.208.528-1.137 0-2.032-.528a3.63 3.63 0 0 1-1.392-1.472q-.496-.944-.496-2.16m13.211 0 3.088 4.128h-1.744l-2.128-2.944-2.096 2.944h-1.76l3.056-4.128-3.088-4.144h1.776l2.112 2.992 2.128-2.992h1.76zm7.565 4.16q-1.023 0-1.68-.672-.655-.672-.688-1.728v-4.624h-1.376v-1.232h1.376v-2.192h1.408v2.192h1.776v1.232h-1.776v4.528q0 .48.272.832a.84.84 0 0 0 .688.352q.24 0 .432-.032t.384-.08l.256 1.296a5.3 5.3 0 0 1-1.072.128"/></g><path stroke="#C2C2C2" d="M297 97a3.5 3.5 0 0 1 3.5-3.5h308A3.5 3.5 0 0 1 612 97v160a3.5 3.5 0 0 1-3.5 3.5h-308a3.5 3.5 0 0 1-3.5-3.5z"/><path stroke="#6B6B6B" stroke-width="1.2" d="M612.5 93v-8"/><path fill="#6B6B6B" d="M623.672 92.964q.882 0 1.428-.504.56-.518.56-1.33t-.56-1.316q-.546-.518-1.428-.518-.896 0-1.456.518-.56.504-.56 1.316t.56 1.33q.56.504 1.456.504m-3.472-1.806q0-.686.476-1.372a3.46 3.46 0 0 1 1.218-1.106 3.5 3.5 0 0 1-1.008-1.036q-.392-.615-.392-1.162a2.6 2.6 0 0 1 .406-1.442q.406-.644 1.12-.994.728-.364 1.652-.364t1.638.364q.727.35 1.134.994.406.63.406 1.442 0 .56-.392 1.176-.391.615-1.008 1.022.742.42 1.204 1.106t.462 1.372q0 .882-.434 1.582a3 3 0 0 1-1.218 1.078q-.784.378-1.792.378t-1.806-.378a3.1 3.1 0 0 1-1.232-1.078 2.94 2.94 0 0 1-.434-1.582m1.75-4.676q0 .7.476 1.134t1.246.434q.756 0 1.232-.434.49-.449.49-1.134t-.49-1.12q-.476-.448-1.232-.448-.77 0-1.246.434t-.476 1.134m10.483 6.482q.938 0 1.526-.686.588-.7.588-1.82 0-1.106-.588-1.792t-1.526-.686a1.93 1.93 0 0 0-1.092.336 2.37 2.37 0 0 0-.798.91 2.6 2.6 0 0 0-.294 1.232q0 .685.294 1.26.294.574.798.91t1.092.336m-3.654-6.188h1.456v1.26q.378-.63 1.05-.938.672-.322 1.232-.322 1.022 0 1.806.476.798.462 1.232 1.302.448.825.448 1.904t-.448 1.932q-.434.84-1.232 1.316-.784.462-1.806.462-.56 0-1.232-.322a2.5 2.5 0 0 1-1.05-.966v4.354h-1.456zm12.367 3.668 2.702 3.654h-1.806l-1.75-2.478-1.736 2.478h-1.806l2.66-3.654-2.716-3.668h1.82l1.778 2.548 1.764-2.548h1.82z"/><path fill="red" fill-opacity=".1" d="M296 93v-8h316v8z"/><defs><clipPath id="a"><path fill="#fff" d="M296.5 97a4 4 0 0 1 4-4h308a4 4 0 0 1 4 4v160a4 4 0 0 1-4 4h-308a4 4 0 0 1-4-4z"/></clipPath></defs></svg>