<svg width="908" height="282" viewBox="0 0 908 282" fill="none" xmlns="http://www.w3.org/2000/svg">
<rect width="907" height="282" transform="translate(0.5)" fill="white"/>
<path d="M298.562 31.838H303.672V33.098H297.106V22.794H298.562V31.838ZM307.883 31.964C308.266 31.964 308.625 31.8567 308.961 31.642C309.297 31.418 309.563 31.1193 309.759 30.746C309.965 30.3633 310.067 29.9433 310.067 29.486C310.067 29.0287 309.965 28.6133 309.759 28.24C309.563 27.8573 309.297 27.5587 308.961 27.344C308.625 27.12 308.266 27.008 307.883 27.008C307.258 27.008 306.749 27.2367 306.357 27.694C305.965 28.1513 305.769 28.7487 305.769 29.486C305.769 30.2233 305.965 30.8207 306.357 31.278C306.749 31.7353 307.258 31.964 307.883 31.964ZM304.313 29.486C304.313 28.7767 304.458 28.142 304.747 27.582C305.046 27.022 305.457 26.588 305.979 26.28C306.511 25.9627 307.113 25.804 307.785 25.804C308.215 25.804 308.625 25.9113 309.017 26.126C309.419 26.3313 309.764 26.644 310.053 27.064V25.776H311.509V33.098L310.053 33.112V31.894C309.755 32.3233 309.409 32.6453 309.017 32.86C308.625 33.0653 308.215 33.168 307.785 33.168C307.113 33.168 306.511 33.014 305.979 32.706C305.457 32.3887 305.046 31.95 304.747 31.39C304.458 30.83 304.313 30.1953 304.313 29.486ZM317.037 33.168C316.673 33.168 316.276 33.07 315.847 32.874C315.427 32.678 315.063 32.3513 314.755 31.894V33.112H313.299V22.794H314.755V27.05C315.063 26.574 315.427 26.2427 315.847 26.056C316.276 25.86 316.678 25.762 317.051 25.762C317.723 25.762 318.325 25.9207 318.857 26.238C319.389 26.5553 319.804 26.994 320.103 27.554C320.402 28.114 320.551 28.7533 320.551 29.472C320.551 30.1907 320.402 30.83 320.103 31.39C319.804 31.95 319.389 32.3887 318.857 32.706C318.325 33.014 317.718 33.168 317.037 33.168ZM314.755 29.486C314.755 29.9433 314.853 30.3633 315.049 30.746C315.245 31.1287 315.511 31.432 315.847 31.656C316.192 31.88 316.561 31.992 316.953 31.992C317.588 31.992 318.101 31.7633 318.493 31.306C318.894 30.8393 319.095 30.2327 319.095 29.486C319.095 28.7487 318.894 28.1513 318.493 27.694C318.101 27.2273 317.588 26.994 316.953 26.994C316.561 26.994 316.197 27.106 315.861 27.33C315.525 27.554 315.254 27.8573 315.049 28.24C314.853 28.6227 314.755 29.038 314.755 29.486ZM327.185 28.898C327.12 28.3567 326.928 27.904 326.611 27.54C326.294 27.1667 325.836 26.98 325.239 26.98C324.698 26.98 324.226 27.1667 323.825 27.54C323.433 27.904 323.195 28.3613 323.111 28.912L327.185 28.898ZM321.711 29.458C321.711 28.7393 321.86 28.1 322.159 27.54C322.458 26.98 322.868 26.546 323.391 26.238C323.923 25.9207 324.53 25.762 325.211 25.762C326.172 25.762 326.877 25.9953 327.325 26.462C327.782 26.9287 328.09 27.358 328.249 27.75C328.464 28.2727 328.571 28.8513 328.571 29.486C328.571 29.6167 328.566 29.7333 328.557 29.836C328.548 29.9293 328.543 29.99 328.543 30.018H323.111C323.195 30.578 323.438 31.0353 323.839 31.39C324.24 31.7447 324.702 31.922 325.225 31.922C325.645 31.922 325.99 31.8567 326.261 31.726C326.541 31.5953 326.732 31.474 326.835 31.362C326.938 31.25 327.036 31.124 327.129 30.984L328.305 31.516C328.081 31.9733 327.708 32.3607 327.185 32.678C326.662 32.986 326.004 33.14 325.211 33.14C324.53 33.14 323.923 32.986 323.391 32.678C322.868 32.3607 322.458 31.922 322.159 31.362C321.86 30.802 321.711 30.1673 321.711 29.458ZM331.329 22.794V33.098H329.873V22.794H331.329Z" fill="#6B6B6B"/>
<path d="M296.5 47C296.5 45.067 298.067 43.5 300 43.5H608C609.933 43.5 611.5 45.067 611.5 47V81C611.5 82.933 609.933 84.5 608 84.5H300C298.067 84.5 296.5 82.933 296.5 81V47Z" fill="white"/>
<path d="M296.5 47C296.5 45.067 298.067 43.5 300 43.5H608C609.933 43.5 611.5 45.067 611.5 47V81C611.5 82.933 609.933 84.5 608 84.5H300C298.067 84.5 296.5 82.933 296.5 81V47Z" stroke="#C2C2C2"/>
<path d="M318.784 60.352V57.12H320.24V67.648H318.784V61.568H315.824V60.352H318.784ZM308.576 64.544C309.632 64.1493 310.475 63.504 311.104 62.608C311.733 61.712 312.048 60.7253 312.048 59.648V57.952H313.504V59.68C313.504 60.6613 313.808 61.5733 314.416 62.416C315.024 63.248 315.84 63.8507 316.864 64.224L316.096 65.36C315.339 65.0613 314.677 64.6347 314.112 64.08C313.547 63.5147 313.109 62.8587 312.8 62.112C312.501 62.944 312.053 63.6693 311.456 64.288C310.869 64.9067 310.165 65.376 309.344 65.696L308.576 64.544ZM311.104 66.496H312.56V69.728H320.576V70.928H311.104V66.496ZM328.448 58.112V59.296H324.4V60.928H328.32V62.048H324.4V63.792C325.446 63.7813 326.294 63.7547 326.944 63.712C327.606 63.6693 328.278 63.5787 328.96 63.44L329.104 64.624C328.336 64.7733 327.574 64.8747 326.816 64.928C326.059 64.9707 325.094 64.992 323.92 64.992H322.992V58.112H328.448ZM324.816 66.384H334.336V71.232H332.88V67.584H324.816V66.384ZM329.856 57.376H331.232V60.736H332.944V57.104H334.336V65.68H332.944V61.936H331.232V65.6H329.856V57.376ZM347.153 57.12V62.848H349.393V64.064H347.153V71.232H345.697V57.12H347.153ZM336.161 59.328H339.617V57.296H341.105V59.328H344.481V60.512H336.161V59.328ZM336.913 64.864C336.913 64.2347 337.062 63.6747 337.361 63.184C337.659 62.6827 338.07 62.2933 338.593 62.016C339.126 61.7387 339.718 61.6 340.369 61.6C341.03 61.6 341.622 61.7387 342.145 62.016C342.678 62.2933 343.094 62.6827 343.393 63.184C343.691 63.6747 343.841 64.2347 343.841 64.864C343.841 65.4933 343.691 66.0587 343.393 66.56C343.094 67.0507 342.678 67.4347 342.145 67.712C341.622 67.9893 341.03 68.128 340.369 68.128C339.718 68.128 339.126 67.9893 338.593 67.712C338.07 67.4347 337.659 67.0507 337.361 66.56C337.062 66.0587 336.913 65.4933 336.913 64.864ZM338.305 64.864C338.305 65.472 338.497 65.968 338.881 66.352C339.265 66.736 339.761 66.928 340.369 66.928C340.977 66.928 341.473 66.736 341.857 66.352C342.251 65.968 342.449 65.472 342.449 64.864C342.449 64.256 342.251 63.76 341.857 63.376C341.473 62.992 340.977 62.8 340.369 62.8C339.771 62.8 339.275 62.992 338.881 63.376C338.497 63.76 338.305 64.256 338.305 64.864ZM357.809 62.096V57.408H359.169V70.528H357.809V63.296H355.617V62.096H357.809ZM349.873 67.152C350.822 66.576 351.564 65.728 352.097 64.608C352.63 63.4773 352.897 62.2827 352.897 61.024V58.432H354.305V60.976C354.305 62.16 354.55 63.2853 355.041 64.352C355.532 65.4187 356.23 66.2347 357.137 66.8L356.305 67.936C355.676 67.552 355.132 67.024 354.673 66.352C354.225 65.68 353.873 64.9173 353.617 64.064C353.35 64.9813 352.972 65.8027 352.481 66.528C352.001 67.2533 351.43 67.824 350.769 68.24L349.873 67.152ZM360.673 57.104H362.081V71.216H360.673V57.104ZM366.962 68.24V64.512C366.375 64.192 365.916 63.7867 365.586 63.296C365.266 62.7947 365.106 62.2347 365.106 61.616C365.106 60.8907 365.324 60.2507 365.762 59.696C366.21 59.1413 366.823 58.7147 367.602 58.416C368.38 58.1067 369.266 57.952 370.258 57.952C371.26 57.952 372.151 58.1067 372.93 58.416C373.719 58.7147 374.332 59.1413 374.77 59.696C375.207 60.2507 375.426 60.8907 375.426 61.616C375.426 62.2347 375.266 62.7893 374.946 63.28C374.636 63.76 374.194 64.1653 373.618 64.496V68.24H376.674V69.44H363.89V68.24H366.962ZM366.53 61.616C366.53 62.1173 366.684 62.56 366.994 62.944C367.314 63.3173 367.756 63.6107 368.322 63.824C368.887 64.0267 369.532 64.128 370.258 64.128C370.983 64.128 371.628 64.0267 372.194 63.824C372.759 63.6107 373.202 63.3173 373.522 62.944C373.842 62.56 374.002 62.1173 374.002 61.616C374.002 61.1147 373.842 60.6773 373.522 60.304C373.202 59.92 372.759 59.6267 372.194 59.424C371.628 59.2107 370.983 59.104 370.258 59.104C369.532 59.104 368.887 59.2107 368.322 59.424C367.756 59.6267 367.314 59.92 366.994 60.304C366.684 60.6773 366.53 61.1147 366.53 61.616ZM372.146 68.24V65.056C371.591 65.1947 370.962 65.264 370.258 65.264C369.575 65.264 368.956 65.1947 368.402 65.056V68.24H372.146Z" fill="#C2C2C2"/>
<path d="M596 63L590 68L584 63" stroke="#C2C2C2" stroke-width="1.4" stroke-linejoin="bevel"/>
<g clip-path="url(#clip0_2269_3282)">
<rect width="316" height="42" transform="translate(296.5 93)" fill="white"/>
<path d="M318.052 109.632H314.5V120.064H313.092V109.632H309.524V108.384H318.052V109.632ZM324.243 115.392C324.168 114.709 323.944 114.139 323.571 113.68C323.208 113.211 322.659 112.976 321.923 112.976C321.251 112.976 320.675 113.205 320.195 113.664C319.725 114.112 319.443 114.693 319.347 115.408L324.243 115.392ZM317.955 115.936C317.955 115.125 318.12 114.405 318.451 113.776C318.781 113.147 319.245 112.656 319.843 112.304C320.44 111.952 321.117 111.776 321.875 111.776C323.464 111.776 324.6 112.523 325.283 114.016C325.507 114.613 325.619 115.248 325.619 115.92C325.619 116.101 325.613 116.251 325.603 116.368C325.592 116.475 325.587 116.533 325.587 116.544H319.347C319.453 117.237 319.741 117.803 320.211 118.24C320.691 118.677 321.251 118.896 321.891 118.896C322.403 118.896 322.824 118.816 323.155 118.656C323.496 118.496 323.731 118.341 323.859 118.192C323.997 118.032 324.12 117.872 324.227 117.712L325.347 118.288C325.101 118.789 324.68 119.216 324.083 119.568C323.496 119.92 322.76 120.096 321.875 120.096C321.117 120.096 320.44 119.92 319.843 119.568C319.245 119.216 318.781 118.725 318.451 118.096C318.12 117.467 317.955 116.747 317.955 115.936ZM331.166 115.936L334.254 120.064H332.51L330.382 117.12L328.286 120.064H326.526L329.582 115.936L326.494 111.792H328.27L330.382 114.784L332.51 111.792H334.27L331.166 115.936ZM338.731 120.096C338.049 120.096 337.489 119.872 337.051 119.424C336.614 118.976 336.385 118.4 336.363 117.696V113.072H334.987V111.84H336.363V109.648H337.771V111.84H339.547V113.072H337.771V117.6C337.771 117.92 337.862 118.197 338.043 118.432C338.225 118.667 338.454 118.784 338.731 118.784C338.891 118.784 339.035 118.773 339.163 118.752C339.291 118.731 339.419 118.704 339.547 118.672L339.803 119.968C339.398 120.053 339.041 120.096 338.731 120.096Z" fill="#6B6B6B"/>
<rect width="316" height="42" transform="translate(296.5 135)" fill="white"/>
<path d="M318.052 151.632H314.5V162.064H313.092V151.632H309.524V150.384H318.052V151.632ZM324.243 157.392C324.168 156.709 323.944 156.139 323.571 155.68C323.208 155.211 322.659 154.976 321.923 154.976C321.251 154.976 320.675 155.205 320.195 155.664C319.725 156.112 319.443 156.693 319.347 157.408L324.243 157.392ZM317.955 157.936C317.955 157.125 318.12 156.405 318.451 155.776C318.781 155.147 319.245 154.656 319.843 154.304C320.44 153.952 321.117 153.776 321.875 153.776C323.464 153.776 324.6 154.523 325.283 156.016C325.507 156.613 325.619 157.248 325.619 157.92C325.619 158.101 325.613 158.251 325.603 158.368C325.592 158.475 325.587 158.533 325.587 158.544H319.347C319.453 159.237 319.741 159.803 320.211 160.24C320.691 160.677 321.251 160.896 321.891 160.896C322.403 160.896 322.824 160.816 323.155 160.656C323.496 160.496 323.731 160.341 323.859 160.192C323.997 160.032 324.12 159.872 324.227 159.712L325.347 160.288C325.101 160.789 324.68 161.216 324.083 161.568C323.496 161.92 322.76 162.096 321.875 162.096C321.117 162.096 320.44 161.92 319.843 161.568C319.245 161.216 318.781 160.725 318.451 160.096C318.12 159.467 317.955 158.747 317.955 157.936ZM331.166 157.936L334.254 162.064H332.51L330.382 159.12L328.286 162.064H326.526L329.582 157.936L326.494 153.792H328.27L330.382 156.784L332.51 153.792H334.27L331.166 157.936ZM338.731 162.096C338.049 162.096 337.489 161.872 337.051 161.424C336.614 160.976 336.385 160.4 336.363 159.696V155.072H334.987V153.84H336.363V151.648H337.771V153.84H339.547V155.072H337.771V159.6C337.771 159.92 337.862 160.197 338.043 160.432C338.225 160.667 338.454 160.784 338.731 160.784C338.891 160.784 339.035 160.773 339.163 160.752C339.291 160.731 339.419 160.704 339.547 160.672L339.803 161.968C339.398 162.053 339.041 162.096 338.731 162.096Z" fill="#2B72C5"/>
<rect width="316" height="42" transform="translate(296.5 177)" fill="#EBF4FE"/>
<path d="M318.052 193.632H314.5V204.064H313.092V193.632H309.524V192.384H318.052V193.632ZM324.243 199.392C324.168 198.709 323.944 198.139 323.571 197.68C323.208 197.211 322.659 196.976 321.923 196.976C321.251 196.976 320.675 197.205 320.195 197.664C319.725 198.112 319.443 198.693 319.347 199.408L324.243 199.392ZM317.955 199.936C317.955 199.125 318.12 198.405 318.451 197.776C318.781 197.147 319.245 196.656 319.843 196.304C320.44 195.952 321.117 195.776 321.875 195.776C323.464 195.776 324.6 196.523 325.283 198.016C325.507 198.613 325.619 199.248 325.619 199.92C325.619 200.101 325.613 200.251 325.603 200.368C325.592 200.475 325.587 200.533 325.587 200.544H319.347C319.453 201.237 319.741 201.803 320.211 202.24C320.691 202.677 321.251 202.896 321.891 202.896C322.403 202.896 322.824 202.816 323.155 202.656C323.496 202.496 323.731 202.341 323.859 202.192C323.997 202.032 324.12 201.872 324.227 201.712L325.347 202.288C325.101 202.789 324.68 203.216 324.083 203.568C323.496 203.92 322.76 204.096 321.875 204.096C321.117 204.096 320.44 203.92 319.843 203.568C319.245 203.216 318.781 202.725 318.451 202.096C318.12 201.467 317.955 200.747 317.955 199.936ZM331.166 199.936L334.254 204.064H332.51L330.382 201.12L328.286 204.064H326.526L329.582 199.936L326.494 195.792H328.27L330.382 198.784L332.51 195.792H334.27L331.166 199.936ZM338.731 204.096C338.049 204.096 337.489 203.872 337.051 203.424C336.614 202.976 336.385 202.4 336.363 201.696V197.072H334.987V195.84H336.363V193.648H337.771V195.84H339.547V197.072H337.771V201.6C337.771 201.92 337.862 202.197 338.043 202.432C338.225 202.667 338.454 202.784 338.731 202.784C338.891 202.784 339.035 202.773 339.163 202.752C339.291 202.731 339.419 202.704 339.547 202.672L339.803 203.968C339.398 204.053 339.041 204.096 338.731 204.096Z" fill="#5EA5F9"/>
<rect width="316" height="42" transform="translate(296.5 219)" fill="#EBF4FE"/>
<path d="M318.052 235.632H314.5V246.064H313.092V235.632H309.524V234.384H318.052V235.632ZM324.243 241.392C324.168 240.709 323.944 240.139 323.571 239.68C323.208 239.211 322.659 238.976 321.923 238.976C321.251 238.976 320.675 239.205 320.195 239.664C319.725 240.112 319.443 240.693 319.347 241.408L324.243 241.392ZM317.955 241.936C317.955 241.125 318.12 240.405 318.451 239.776C318.781 239.147 319.245 238.656 319.843 238.304C320.44 237.952 321.117 237.776 321.875 237.776C323.464 237.776 324.6 238.523 325.283 240.016C325.507 240.613 325.619 241.248 325.619 241.92C325.619 242.101 325.613 242.251 325.603 242.368C325.592 242.475 325.587 242.533 325.587 242.544H319.347C319.453 243.237 319.741 243.803 320.211 244.24C320.691 244.677 321.251 244.896 321.891 244.896C322.403 244.896 322.824 244.816 323.155 244.656C323.496 244.496 323.731 244.341 323.859 244.192C323.997 244.032 324.12 243.872 324.227 243.712L325.347 244.288C325.101 244.789 324.68 245.216 324.083 245.568C323.496 245.92 322.76 246.096 321.875 246.096C321.117 246.096 320.44 245.92 319.843 245.568C319.245 245.216 318.781 244.725 318.451 244.096C318.12 243.467 317.955 242.747 317.955 241.936ZM331.166 241.936L334.254 246.064H332.51L330.382 243.12L328.286 246.064H326.526L329.582 241.936L326.494 237.792H328.27L330.382 240.784L332.51 237.792H334.27L331.166 241.936ZM338.731 246.096C338.049 246.096 337.489 245.872 337.051 245.424C336.614 244.976 336.385 244.4 336.363 243.696V239.072H334.987V237.84H336.363V235.648H337.771V237.84H339.547V239.072H337.771V243.6C337.771 243.92 337.862 244.197 338.043 244.432C338.225 244.667 338.454 244.784 338.731 244.784C338.891 244.784 339.035 244.773 339.163 244.752C339.291 244.731 339.419 244.704 339.547 244.672L339.803 245.968C339.398 246.053 339.041 246.096 338.731 246.096Z" fill="#121212"/>
</g>
<path d="M297 97C297 95.067 298.567 93.5 300.5 93.5H608.5C610.433 93.5 612 95.067 612 97V257C612 258.933 610.433 260.5 608.5 260.5H300.5C298.567 260.5 297 258.933 297 257V97Z" stroke="#C2C2C2"/>
<path d="M612.5 93L612.5 85" stroke="#6B6B6B" stroke-width="1.2"/>
<path d="M623.672 92.964C624.26 92.964 624.736 92.796 625.1 92.46C625.473 92.1147 625.66 91.6713 625.66 91.13C625.66 90.5887 625.473 90.15 625.1 89.814C624.736 89.4687 624.26 89.296 623.672 89.296C623.075 89.296 622.589 89.4687 622.216 89.814C621.843 90.15 621.656 90.5887 621.656 91.13C621.656 91.6713 621.843 92.1147 622.216 92.46C622.589 92.796 623.075 92.964 623.672 92.964ZM620.2 91.158C620.2 90.7007 620.359 90.2433 620.676 89.786C620.993 89.3193 621.399 88.9507 621.894 88.68C621.483 88.4 621.147 88.0547 620.886 87.644C620.625 87.2333 620.494 86.846 620.494 86.482C620.494 85.9407 620.629 85.46 620.9 85.04C621.171 84.6107 621.544 84.2793 622.02 84.046C622.505 83.8033 623.056 83.682 623.672 83.682C624.288 83.682 624.834 83.8033 625.31 84.046C625.795 84.2793 626.173 84.6107 626.444 85.04C626.715 85.46 626.85 85.9407 626.85 86.482C626.85 86.8553 626.719 87.2473 626.458 87.658C626.197 88.0687 625.861 88.4093 625.45 88.68C625.945 88.96 626.346 89.3287 626.654 89.786C626.962 90.2433 627.116 90.7007 627.116 91.158C627.116 91.746 626.971 92.2733 626.682 92.74C626.393 93.1973 625.987 93.5567 625.464 93.818C624.941 94.07 624.344 94.196 623.672 94.196C623 94.196 622.398 94.07 621.866 93.818C621.343 93.5567 620.933 93.1973 620.634 92.74C620.345 92.2733 620.2 91.746 620.2 91.158ZM621.95 86.482C621.95 86.9487 622.109 87.3267 622.426 87.616C622.743 87.9053 623.159 88.05 623.672 88.05C624.176 88.05 624.587 87.9053 624.904 87.616C625.231 87.3173 625.394 86.9393 625.394 86.482C625.394 86.0247 625.231 85.6513 624.904 85.362C624.587 85.0633 624.176 84.914 623.672 84.914C623.159 84.914 622.743 85.0587 622.426 85.348C622.109 85.6373 621.95 86.0153 621.95 86.482ZM632.433 92.964C633.058 92.964 633.567 92.7353 633.959 92.278C634.351 91.8113 634.547 91.2047 634.547 90.458C634.547 89.7207 634.351 89.1233 633.959 88.666C633.567 88.2087 633.058 87.98 632.433 87.98C632.041 87.98 631.677 88.092 631.341 88.316C631.005 88.54 630.739 88.8433 630.543 89.226C630.347 89.5993 630.249 90.01 630.249 90.458C630.249 90.9153 630.347 91.3353 630.543 91.718C630.739 92.1007 631.005 92.404 631.341 92.628C631.677 92.852 632.041 92.964 632.433 92.964ZM628.779 86.776H630.235V88.036C630.487 87.616 630.837 87.3033 631.285 87.098C631.733 86.8833 632.144 86.776 632.517 86.776C633.198 86.776 633.8 86.9347 634.323 87.252C634.855 87.56 635.266 87.994 635.555 88.554C635.854 89.1047 636.003 89.7393 636.003 90.458C636.003 91.1767 635.854 91.8207 635.555 92.39C635.266 92.95 634.855 93.3887 634.323 93.706C633.8 94.014 633.198 94.168 632.517 94.168C632.144 94.168 631.733 94.0607 631.285 93.846C630.837 93.622 630.487 93.3 630.235 92.88V97.234H628.779V86.776ZM641.146 90.444L643.848 94.098H642.042L640.292 91.62L638.556 94.098H636.75L639.41 90.444L636.694 86.776H638.514L640.292 89.324L642.056 86.776H643.876L641.146 90.444Z" fill="#6B6B6B"/>
<rect x="296" y="93" width="8.00016" height="316" transform="rotate(-90 296 93)" fill="#FF0000" fill-opacity="0.1"/>
<defs>
<clipPath id="clip0_2269_3282">
<path d="M296.5 97C296.5 94.7909 298.291 93 300.5 93H608.5C610.709 93 612.5 94.7909 612.5 97V257C612.5 259.209 610.709 261 608.5 261H300.5C298.291 261 296.5 259.209 296.5 257V97Z" fill="white"/>
</clipPath>
</defs>
</svg>
