<svg xmlns="http://www.w3.org/2000/svg" width="908" height="364" fill="none"><path fill="#fff" d="M.5 0h907v364H.5z"/><g clip-path="url(#a)"><path fill="#fff" d="M303.5 37h112v42h-112z"/><path fill="#6B6B6B" d="M325.052 53.632H321.5v10.432h-1.408V53.632h-3.568v-1.248h8.528zm6.191 5.76q-.112-1.024-.672-1.712-.544-.705-1.648-.704-1.008 0-1.728.688-.704.672-.848 1.744zm-6.288.544q0-1.215.496-2.16.495-.945 1.392-1.472.895-.528 2.032-.528 2.384 0 3.408 2.24.336.896.336 1.904a5 5 0 0 1-.032.624h-6.24q.159 1.04.864 1.696.72.656 1.68.656.768 0 1.264-.24.512-.24.704-.464.207-.24.368-.48l1.12.576q-.369.752-1.264 1.28-.88.528-2.208.528-1.137 0-2.032-.528a3.6 3.6 0 0 1-1.392-1.472q-.496-.945-.496-2.16m13.211 0 3.088 4.128h-1.744l-2.128-2.944-2.096 2.944h-1.76l3.056-4.128-3.088-4.144h1.776l2.112 2.992 2.128-2.992h1.76zm7.565 4.16q-1.023 0-1.68-.672-.655-.672-.688-1.728v-4.624h-1.376V55.84h1.376v-2.192h1.408v2.192h1.776v1.232h-1.776V61.6q0 .48.272.832a.84.84 0 0 0 .688.352q.24 0 .432-.032t.384-.08l.256 1.296a5.3 5.3 0 0 1-1.072.128"/><path fill="#fff" d="M303.5 79h112v42h-112z"/><path fill="#2B72C5" d="M325.052 95.632H321.5v10.432h-1.408V95.632h-3.568v-1.248h8.528zm6.191 5.76q-.112-1.024-.672-1.712-.544-.704-1.648-.704-1.008 0-1.728.688-.704.672-.848 1.744zm-6.288.544q0-1.216.496-2.16.495-.945 1.392-1.472.895-.528 2.032-.528 2.384 0 3.408 2.24.336.896.336 1.904a5 5 0 0 1-.032.624h-6.24q.159 1.04.864 1.696.72.656 1.68.656.768 0 1.264-.24.512-.24.704-.464.207-.24.368-.48l1.12.576q-.369.752-1.264 1.28-.88.528-2.208.528-1.137 0-2.032-.528a3.63 3.63 0 0 1-1.392-1.472q-.496-.944-.496-2.16m13.211 0 3.088 4.128h-1.744l-2.128-2.944-2.096 2.944h-1.76l3.056-4.128-3.088-4.144h1.776l2.112 2.992 2.128-2.992h1.76zm7.565 4.16q-1.023 0-1.68-.672-.655-.672-.688-1.728v-4.624h-1.376V97.84h1.376v-2.192h1.408v2.192h1.776v1.232h-1.776v4.528q0 .48.272.832a.84.84 0 0 0 .688.352q.24 0 .432-.032t.384-.08l.256 1.296a5.3 5.3 0 0 1-1.072.128"/><path fill="#EBF4FE" d="M303.5 121h112v42h-112z"/><path fill="#5EA5F9" d="M325.052 137.632H321.5v10.432h-1.408v-10.432h-3.568v-1.248h8.528zm6.191 5.76q-.112-1.024-.672-1.712-.544-.704-1.648-.704-1.008 0-1.728.688-.704.672-.848 1.744zm-6.288.544q0-1.217.496-2.16.495-.944 1.392-1.472.895-.528 2.032-.528 2.384 0 3.408 2.24.336.896.336 1.904a5 5 0 0 1-.032.624h-6.24q.159 1.04.864 1.696.72.656 1.68.656.768 0 1.264-.24.512-.24.704-.464.207-.24.368-.48l1.12.576q-.369.752-1.264 1.28-.88.528-2.208.528-1.137 0-2.032-.528a3.63 3.63 0 0 1-1.392-1.472q-.496-.943-.496-2.16m13.211 0 3.088 4.128h-1.744l-2.128-2.944-2.096 2.944h-1.76l3.056-4.128-3.088-4.144h1.776l2.112 2.992 2.128-2.992h1.76zm7.565 4.16q-1.023 0-1.68-.672-.655-.672-.688-1.728v-4.624h-1.376v-1.232h1.376v-2.192h1.408v2.192h1.776v1.232h-1.776v4.528q0 .48.272.832a.84.84 0 0 0 .688.352q.24 0 .432-.032t.384-.08l.256 1.296a5.3 5.3 0 0 1-1.072.128"/><path fill="#EBF4FE" d="M303.5 163h112v42h-112z"/><path fill="#121212" d="M325.052 179.632H321.5v10.432h-1.408v-10.432h-3.568v-1.248h8.528zm6.191 5.76q-.112-1.024-.672-1.712-.544-.704-1.648-.704-1.008 0-1.728.688-.704.672-.848 1.744zm-6.288.544q0-1.217.496-2.16.495-.944 1.392-1.472.895-.528 2.032-.528 2.384 0 3.408 2.24.336.896.336 1.904a5 5 0 0 1-.032.624h-6.24q.159 1.04.864 1.696.72.656 1.68.656.768 0 1.264-.24.512-.24.704-.464.207-.24.368-.48l1.12.576q-.369.752-1.264 1.28-.88.528-2.208.528-1.137 0-2.032-.528a3.63 3.63 0 0 1-1.392-1.472q-.496-.944-.496-2.16m13.211 0 3.088 4.128h-1.744l-2.128-2.944-2.096 2.944h-1.76l3.056-4.128-3.088-4.144h1.776l2.112 2.992 2.128-2.992h1.76zm7.565 4.16q-1.023 0-1.68-.672-.655-.672-.688-1.728v-4.624h-1.376v-1.232h1.376v-2.192h1.408v2.192h1.776v1.232h-1.776v4.528q0 .48.272.832a.84.84 0 0 0 .688.352q.24 0 .432-.032t.384-.08l.256 1.296a5.3 5.3 0 0 1-1.072.128"/></g><path stroke="#C2C2C2" d="M304 41a3.5 3.5 0 0 1 3.5-3.5h104A3.5 3.5 0 0 1 415 41v160a3.5 3.5 0 0 1-3.5 3.5h-104a3.5 3.5 0 0 1-3.5-3.5z"/><g clip-path="url(#b)"><path fill="#fff" d="M493.5 35h112v42h-112z"/><path fill="#6B6B6B" d="M515.052 51.632H511.5v10.432h-1.408V51.632h-3.568v-1.248h8.528zm6.191 5.76q-.112-1.024-.672-1.712-.544-.705-1.648-.704-1.008 0-1.728.688-.705.672-.848 1.744zm-6.288.544q0-1.215.496-2.16.495-.945 1.392-1.472.895-.528 2.032-.528 2.384 0 3.408 2.24.336.896.336 1.904a5 5 0 0 1-.032.624h-6.24q.159 1.04.864 1.696.72.656 1.68.656.768 0 1.264-.24.512-.24.704-.464.207-.24.368-.48l1.12.576q-.369.752-1.264 1.28-.88.528-2.208.528-1.137 0-2.032-.528a3.6 3.6 0 0 1-1.392-1.472q-.496-.945-.496-2.16m13.211 0 3.088 4.128h-1.744l-2.128-2.944-2.096 2.944h-1.76l3.056-4.128-3.088-4.144h1.776l2.112 2.992 2.128-2.992h1.76zm7.565 4.16q-1.023 0-1.68-.672-.655-.672-.688-1.728v-4.624h-1.376V53.84h1.376v-2.192h1.408v2.192h1.776v1.232h-1.776V59.6q0 .48.272.832a.84.84 0 0 0 .688.352q.24 0 .432-.032t.384-.08l.256 1.296a5.3 5.3 0 0 1-1.072.128"/><path fill="#fff" d="M493.5 77h112v42h-112z"/><path fill="#6B6B6B" d="M515.052 93.632H511.5v10.432h-1.408V93.632h-3.568v-1.248h8.528zm6.191 5.76q-.112-1.024-.672-1.712-.544-.704-1.648-.704-1.008 0-1.728.688-.705.672-.848 1.744zm-6.288.544q0-1.215.496-2.16.495-.945 1.392-1.472.895-.528 2.032-.528 2.384 0 3.408 2.24.336.896.336 1.904a5 5 0 0 1-.032.624h-6.24q.159 1.04.864 1.696.72.656 1.68.656.768 0 1.264-.24.512-.24.704-.464.207-.24.368-.48l1.12.576q-.369.752-1.264 1.28-.88.528-2.208.528-1.137 0-2.032-.528a3.63 3.63 0 0 1-1.392-1.472q-.496-.944-.496-2.16m13.211 0 3.088 4.128h-1.744l-2.128-2.944-2.096 2.944h-1.76l3.056-4.128-3.088-4.144h1.776l2.112 2.992 2.128-2.992h1.76zm7.565 4.16q-1.023 0-1.68-.672-.655-.672-.688-1.728v-4.624h-1.376V95.84h1.376v-2.192h1.408v2.192h1.776v1.232h-1.776v4.528q0 .48.272.832a.84.84 0 0 0 .688.352q.24 0 .432-.032t.384-.08l.256 1.296a5.3 5.3 0 0 1-1.072.128"/><path fill="#fff" d="M493.5 119h112v42h-112z"/><path fill="#6B6B6B" d="M515.052 135.632H511.5v10.432h-1.408v-10.432h-3.568v-1.248h8.528zm6.191 5.76q-.112-1.024-.672-1.712-.544-.704-1.648-.704-1.008 0-1.728.688-.705.672-.848 1.744zm-6.288.544q0-1.217.496-2.16.495-.944 1.392-1.472.895-.528 2.032-.528 2.384 0 3.408 2.24.336.896.336 1.904a5 5 0 0 1-.032.624h-6.24q.159 1.04.864 1.696.72.656 1.68.656.768 0 1.264-.24.512-.24.704-.464.207-.24.368-.48l1.12.576q-.369.752-1.264 1.28-.88.528-2.208.528-1.137 0-2.032-.528a3.63 3.63 0 0 1-1.392-1.472q-.496-.943-.496-2.16m13.211 0 3.088 4.128h-1.744l-2.128-2.944-2.096 2.944h-1.76l3.056-4.128-3.088-4.144h1.776l2.112 2.992 2.128-2.992h1.76zm7.565 4.16q-1.023 0-1.68-.672-.655-.672-.688-1.728v-4.624h-1.376v-1.232h1.376v-2.192h1.408v2.192h1.776v1.232h-1.776v4.528q0 .48.272.832a.84.84 0 0 0 .688.352q.24 0 .432-.032t.384-.08l.256 1.296a5.3 5.3 0 0 1-1.072.128"/><path fill="#fff" d="M493.5 161h112v42h-112z"/><path fill="#6B6B6B" d="M515.052 177.632H511.5v10.432h-1.408v-10.432h-3.568v-1.248h8.528zm6.191 5.76q-.112-1.024-.672-1.712-.544-.704-1.648-.704-1.008 0-1.728.688-.705.672-.848 1.744zm-6.288.544q0-1.217.496-2.16.495-.944 1.392-1.472.895-.528 2.032-.528 2.384 0 3.408 2.24.336.896.336 1.904a5 5 0 0 1-.032.624h-6.24q.159 1.04.864 1.696.72.656 1.68.656.768 0 1.264-.24.512-.24.704-.464.207-.24.368-.48l1.12.576q-.369.752-1.264 1.28-.88.528-2.208.528-1.137 0-2.032-.528a3.63 3.63 0 0 1-1.392-1.472q-.496-.944-.496-2.16m13.211 0 3.088 4.128h-1.744l-2.128-2.944-2.096 2.944h-1.76l3.056-4.128-3.088-4.144h1.776l2.112 2.992 2.128-2.992h1.76zm7.565 4.16q-1.023 0-1.68-.672-.655-.672-.688-1.728v-4.624h-1.376v-1.232h1.376v-2.192h1.408v2.192h1.776v1.232h-1.776v4.528q0 .48.272.832a.84.84 0 0 0 .688.352q.24 0 .432-.032t.384-.08l.256 1.296a5.3 5.3 0 0 1-1.072.128"/><path fill="#fff" d="M493.5 203h112v42h-112z"/><path fill="#6B6B6B" d="M515.052 219.632H511.5v10.432h-1.408v-10.432h-3.568v-1.248h8.528zm6.191 5.76q-.112-1.024-.672-1.712-.544-.704-1.648-.704-1.008 0-1.728.688-.705.672-.848 1.744zm-6.288.544q0-1.217.496-2.16.495-.944 1.392-1.472.895-.528 2.032-.528 2.384 0 3.408 2.24.336.896.336 1.904a5 5 0 0 1-.032.624h-6.24q.159 1.04.864 1.696.72.656 1.68.656.768 0 1.264-.24.512-.24.704-.464.207-.24.368-.48l1.12.576q-.369.752-1.264 1.28-.88.528-2.208.528-1.137 0-2.032-.528a3.63 3.63 0 0 1-1.392-1.472q-.496-.944-.496-2.16m13.211 0 3.088 4.128h-1.744l-2.128-2.944-2.096 2.944h-1.76l3.056-4.128-3.088-4.144h1.776l2.112 2.992 2.128-2.992h1.76zm7.565 4.16q-1.023 0-1.68-.672-.655-.672-.688-1.728v-4.624h-1.376v-1.232h1.376v-2.192h1.408v2.192h1.776v1.232h-1.776v4.528q0 .48.272.832a.84.84 0 0 0 .688.352q.24 0 .432-.032t.384-.08l.256 1.296a5.3 5.3 0 0 1-1.072.128"/><path fill="#fff" d="M493.5 245h112v42h-112z"/><path fill="#6B6B6B" d="M515.052 261.632H511.5v10.432h-1.408v-10.432h-3.568v-1.248h8.528zm6.191 5.76q-.112-1.024-.672-1.712-.544-.704-1.648-.704-1.008 0-1.728.688-.705.672-.848 1.744zm-6.288.544q0-1.216.496-2.16.495-.944 1.392-1.472.895-.528 2.032-.528 2.384 0 3.408 2.24.336.896.336 1.904a5 5 0 0 1-.032.624h-6.24q.159 1.04.864 1.696.72.656 1.68.656.768 0 1.264-.24.512-.24.704-.464.207-.24.368-.48l1.12.576q-.369.752-1.264 1.28-.88.528-2.208.528-1.137 0-2.032-.528a3.63 3.63 0 0 1-1.392-1.472q-.496-.943-.496-2.16m13.211 0 3.088 4.128h-1.744l-2.128-2.944-2.096 2.944h-1.76l3.056-4.128-3.088-4.144h1.776l2.112 2.992 2.128-2.992h1.76zm7.565 4.16q-1.023 0-1.68-.672-.655-.672-.688-1.728v-4.624h-1.376v-1.232h1.376v-2.192h1.408v2.192h1.776v1.232h-1.776v4.528q0 .48.272.832a.84.84 0 0 0 .688.352q.24 0 .432-.032t.384-.08l.256 1.296a5.3 5.3 0 0 1-1.072.128"/><path fill="#fff" d="M493.5 287h112v42h-112z"/><path fill="#6B6B6B" d="M515.052 303.632H511.5v10.432h-1.408v-10.432h-3.568v-1.248h8.528zm6.191 5.76q-.112-1.024-.672-1.712-.544-.704-1.648-.704-1.008 0-1.728.688-.705.672-.848 1.744zm-6.288.544q0-1.216.496-2.16.495-.944 1.392-1.472.895-.528 2.032-.528 2.384 0 3.408 2.24.336.896.336 1.904a5 5 0 0 1-.032.624h-6.24q.159 1.04.864 1.696.72.656 1.68.656.768 0 1.264-.24.512-.24.704-.464.207-.24.368-.48l1.12.576q-.369.752-1.264 1.28-.88.528-2.208.528-1.137 0-2.032-.528a3.63 3.63 0 0 1-1.392-1.472q-.496-.943-.496-2.16m13.211 0 3.088 4.128h-1.744l-2.128-2.944-2.096 2.944h-1.76l3.056-4.128-3.088-4.144h1.776l2.112 2.992 2.128-2.992h1.76zm7.565 4.16q-1.023 0-1.68-.672-.655-.672-.688-1.728v-4.624h-1.376v-1.232h1.376v-2.192h1.408v2.192h1.776v1.232h-1.776v4.528q0 .48.272.832a.84.84 0 0 0 .688.352q.24 0 .432-.032t.384-.08l.256 1.296a5.3 5.3 0 0 1-1.072.128"/><path fill="#fff" d="M493.5 329h112v42h-112z"/><path fill="#C2C2C2" d="M601.5 38a1 1 0 0 1 2 0v63a1 1 0 0 1-2 0z"/></g><path stroke="#C2C2C2" d="M494 39a3.5 3.5 0 0 1 3.5-3.5h104A3.5 3.5 0 0 1 605 39v292a3.5 3.5 0 0 1-3.5 3.5h-104a3.5 3.5 0 0 1-3.5-3.5z"/><path fill="#6B6B6B" d="M645.898 57.484q0-.457-.211-.772a1.9 1.9 0 0 0-.534-.533 3.6 3.6 0 0 0-.724-.356q-.39-.144-.752-.26-.527-.17-1.073-.41a5 5 0 0 1-.985-.588 3 3 0 0 1-.738-.82q-.28-.479-.28-1.121t.28-1.148q.287-.507.745-.855a3.3 3.3 0 0 1 1.039-.526 3.8 3.8 0 0 1 1.169-.185q.65 0 1.251.219.601.212 1.066.602t.745.943.294 1.237h-1.298a2.7 2.7 0 0 0-.212-.78 1.9 1.9 0 0 0-.417-.608 1.8 1.8 0 0 0-.622-.39 2.1 2.1 0 0 0-.807-.143q-.363 0-.711.103-.342.102-.608.307a1.6 1.6 0 0 0-.438.506q-.157.3-.157.697.006.431.219.732.212.294.54.499.32.205.697.342.382.135.718.239.553.171 1.107.417.554.24 1.012.615.451.349.725.855.28.506.28 1.169 0 .67-.301 1.169a2.6 2.6 0 0 1-.766.827 3.5 3.5 0 0 1-1.066.506 4.5 4.5 0 0 1-1.189.164q-.712 0-1.402-.24a3.5 3.5 0 0 1-1.189-.69 3 3 0 0 1-.718-.91 2.8 2.8 0 0 1-.28-1.168h1.292q.061.465.253.827.19.356.492.602.3.253.69.382.397.124.862.123.369 0 .724-.088.363-.096.643-.294.28-.192.458-.486.177-.3.177-.71m5.931 1.627q.342 0 .663-.109.329-.109.581-.308.253-.191.403-.45.157-.268.165-.575h1.196a1.96 1.96 0 0 1-.26.943 2.6 2.6 0 0 1-.663.78 3.4 3.4 0 0 1-.957.546q-.54.2-1.128.199-.84 0-1.47-.301a3 3 0 0 1-1.046-.813 3.4 3.4 0 0 1-.635-1.17 4.6 4.6 0 0 1-.212-1.408v-.287q0-.731.212-1.401t.635-1.183a3 3 0 0 1 1.046-.806q.63-.3 1.47-.301.657 0 1.203.212.554.204.957.56.397.363.622.855.226.492.226 1.053h-1.196a1.5 1.5 0 0 0-.151-.63 1.7 1.7 0 0 0-.376-.526 1.7 1.7 0 0 0-.574-.355 1.9 1.9 0 0 0-.711-.13q-.588 0-.991.24a1.9 1.9 0 0 0-.643.607q-.246.383-.355.855a4.4 4.4 0 0 0-.103.95v.287q0 .486.103.964.11.472.355.848.24.382.636.622.404.232.998.232m9.684-6.644q.348 0 .724.048.383.048.574.13l-.171 1.237a6 6 0 0 0-.704-.116 6 6 0 0 0-.69-.041q-.465 0-.841.116a1.98 1.98 0 0 0-1.1.8 2.7 2.7 0 0 0-.308.615V60h-1.272v-7.397h1.204l.054.992.007.184a3.4 3.4 0 0 1 1.08-.957 2.9 2.9 0 0 1 1.443-.355m2.786 3.766q0-.8.232-1.483a3.5 3.5 0 0 1 .67-1.196 3 3 0 0 1 1.053-.793 3.24 3.24 0 0 1 1.401-.294q.786 0 1.408.294.63.287 1.067.793.43.506.663 1.196.232.684.232 1.483v.15q0 .8-.232 1.484a3.6 3.6 0 0 1-.663 1.19 3.1 3.1 0 0 1-1.06.793 3.3 3.3 0 0 1-1.401.287q-.786 0-1.415-.287a3 3 0 0 1-1.053-.793 3.5 3.5 0 0 1-.67-1.19 4.6 4.6 0 0 1-.232-1.483zm1.264.15q0 .547.13 1.047.13.492.397.868.26.376.656.595t.923.218q.519 0 .909-.218.396-.22.663-.595.26-.376.39-.868.13-.5.13-1.046v-.15q0-.54-.137-1.033a2.8 2.8 0 0 0-.39-.875 2 2 0 0 0-.663-.595 1.8 1.8 0 0 0-.916-.225q-.526 0-.916.225-.39.219-.649.595-.267.375-.397.875-.13.492-.13 1.032zm7.278-6.883h3.78v9.406h2.413V60h-6.193v-1.094h2.515v-8.305h-2.515zm7.988 0h3.78v9.406h2.413V60h-6.193v-1.094h2.515v-8.305h-2.515zM640.676 74v-9.953h2.96q.615.007 1.203.164.587.15 1.046.472.458.32.731.82.274.499.267 1.196-.007.39-.13.711a2 2 0 0 1-.321.574 2.3 2.3 0 0 1-.472.438q-.254.177-.615.335v.02q.375.09.724.322t.575.512q.239.308.369.69.136.384.136.828a2.6 2.6 0 0 1-.266 1.23 2.6 2.6 0 0 1-.732.889 3.3 3.3 0 0 1-1.059.554 4.1 4.1 0 0 1-1.231.198zm1.271-4.655v3.582h1.949q.396-.007.751-.13.356-.13.629-.356.274-.225.431-.553.164-.329.164-.745a1.7 1.7 0 0 0-.143-.752 1.6 1.6 0 0 0-.404-.56 1.9 1.9 0 0 0-.608-.35 2.5 2.5 0 0 0-.752-.136zm0-1.053h1.764q.355-.007.697-.11a2 2 0 0 0 .609-.314q.266-.198.43-.492.165-.294.164-.684 0-.417-.164-.71a1.4 1.4 0 0 0-.424-.486 2 2 0 0 0-.628-.273 3 3 0 0 0-.718-.096h-1.73zM653.538 74a1.5 1.5 0 0 1-.123-.356 5 5 0 0 1-.062-.45 3.4 3.4 0 0 1-.943.662 3.3 3.3 0 0 1-.608.206q-.322.075-.684.075a3.2 3.2 0 0 1-1.066-.171 2.4 2.4 0 0 1-.8-.465 2 2 0 0 1-.52-.684 2.1 2.1 0 0 1-.177-.868q0-.607.239-1.066.246-.457.69-.766.445-.3 1.067-.451.628-.15 1.401-.15h1.381v-.581a1.4 1.4 0 0 0-.123-.602 1.3 1.3 0 0 0-.349-.458 1.6 1.6 0 0 0-.553-.287 2.4 2.4 0 0 0-.725-.103 2.2 2.2 0 0 0-.677.096 1.7 1.7 0 0 0-.499.253 1.14 1.14 0 0 0-.321.376.96.96 0 0 0-.11.444h-1.271q.007-.403.205-.793.205-.39.588-.704.376-.307.916-.499a3.7 3.7 0 0 1 1.237-.191q.63 0 1.169.157.54.15.937.458.39.315.615.78.226.465.226 1.086v3.439q0 .369.068.786.069.41.191.718V74zm-2.235-.964q.369 0 .69-.096a2.6 2.6 0 0 0 .588-.252q.26-.158.451-.356.192-.205.301-.424v-1.497h-1.176q-.656 0-1.148.116-.485.11-.773.342a1.1 1.1 0 0 0-.314.39q-.103.225-.103.513 0 .273.089.505.096.232.28.397.184.171.465.266.28.096.65.096m10.21-6.57q.348 0 .724.049.383.047.574.13l-.171 1.237a6 6 0 0 0-.704-.116 6 6 0 0 0-.69-.041q-.465 0-.841.116a1.98 1.98 0 0 0-1.1.8 2.7 2.7 0 0 0-.308.615V74h-1.272v-7.397h1.204l.054.992.007.184a3.4 3.4 0 0 1 1.08-.957 2.9 2.9 0 0 1 1.443-.355"/><path stroke="#6B6B6B" stroke-dasharray="2 2" stroke-width="1.2" d="M601.5 63h36"/><defs><clipPath id="a"><path fill="#fff" d="M303.5 41a4 4 0 0 1 4-4h104a4 4 0 0 1 4 4v160a4 4 0 0 1-4 4h-104a4 4 0 0 1-4-4z"/></clipPath><clipPath id="b"><path fill="#fff" d="M493.5 39a4 4 0 0 1 4-4h104a4 4 0 0 1 4 4v292a4 4 0 0 1-4 4h-104a4 4 0 0 1-4-4z"/></clipPath></defs></svg>