<svg width="300" height="360" viewBox="0 0 300 360" fill="none" xmlns="http://www.w3.org/2000/svg">
<path d="M2.562 10.838H7.672V12.098H1.106V1.794H2.562V10.838ZM11.8833 10.964C12.2659 10.964 12.6253 10.8567 12.9613 10.642C13.2973 10.418 13.5633 10.1193 13.7593 9.746C13.9646 9.36333 14.0673 8.94333 14.0673 8.486C14.0673 8.02867 13.9646 7.61333 13.7593 7.24C13.5633 6.85733 13.2973 6.55867 12.9613 6.344C12.6253 6.12 12.2659 6.008 11.8833 6.008C11.2579 6.008 10.7493 6.23667 10.3573 6.694C9.96527 7.15133 9.76927 7.74867 9.76927 8.486C9.76927 9.22333 9.96527 9.82067 10.3573 10.278C10.7493 10.7353 11.2579 10.964 11.8833 10.964ZM8.31327 8.486C8.31327 7.77667 8.45793 7.142 8.74727 6.582C9.04593 6.022 9.4566 5.588 9.97927 5.28C10.5113 4.96267 11.1133 4.804 11.7853 4.804C12.2146 4.804 12.6253 4.91133 13.0173 5.126C13.4186 5.33133 13.7639 5.644 14.0533 6.064V4.776H15.5093V12.098L14.0533 12.112V10.894C13.7546 11.3233 13.4093 11.6453 13.0173 11.86C12.6253 12.0653 12.2146 12.168 11.7853 12.168C11.1133 12.168 10.5113 12.014 9.97927 11.706C9.4566 11.3887 9.04593 10.95 8.74727 10.39C8.45793 9.83 8.31327 9.19533 8.31327 8.486ZM21.037 12.168C20.673 12.168 20.2763 12.07 19.847 11.874C19.427 11.678 19.063 11.3513 18.755 10.894V12.112H17.299V1.794H18.755V6.05C19.063 5.574 19.427 5.24267 19.847 5.056C20.2763 4.86 20.6776 4.762 21.051 4.762C21.723 4.762 22.325 4.92067 22.857 5.238C23.389 5.55533 23.8043 5.994 24.103 6.554C24.4016 7.114 24.551 7.75333 24.551 8.472C24.551 9.19067 24.4016 9.83 24.103 10.39C23.8043 10.95 23.389 11.3887 22.857 11.706C22.325 12.014 21.7183 12.168 21.037 12.168ZM18.755 8.486C18.755 8.94333 18.853 9.36333 19.049 9.746C19.245 10.1287 19.511 10.432 19.847 10.656C20.1923 10.88 20.561 10.992 20.953 10.992C21.5876 10.992 22.101 10.7633 22.493 10.306C22.8943 9.83933 23.095 9.23267 23.095 8.486C23.095 7.74867 22.8943 7.15133 22.493 6.694C22.101 6.22733 21.5876 5.994 20.953 5.994C20.561 5.994 20.197 6.106 19.861 6.33C19.525 6.554 19.2543 6.85733 19.049 7.24C18.853 7.62267 18.755 8.038 18.755 8.486ZM31.185 7.898C31.1197 7.35667 30.9283 6.904 30.611 6.54C30.2937 6.16667 29.8363 5.98 29.239 5.98C28.6977 5.98 28.2263 6.16667 27.825 6.54C27.433 6.904 27.195 7.36133 27.111 7.912L31.185 7.898ZM25.711 8.458C25.711 7.73933 25.8603 7.1 26.159 6.54C26.4577 5.98 26.8683 5.546 27.391 5.238C27.923 4.92067 28.5297 4.762 29.211 4.762C30.1723 4.762 30.877 4.99533 31.325 5.462C31.7823 5.92867 32.0903 6.358 32.249 6.75C32.4637 7.27267 32.571 7.85133 32.571 8.486C32.571 8.61667 32.5663 8.73333 32.557 8.836C32.5477 8.92933 32.543 8.99 32.543 9.018H27.111C27.195 9.578 27.4377 10.0353 27.839 10.39C28.2403 10.7447 28.7023 10.922 29.225 10.922C29.645 10.922 29.9903 10.8567 30.261 10.726C30.541 10.5953 30.7323 10.474 30.835 10.362C30.9377 10.25 31.0357 10.124 31.129 9.984L32.305 10.516C32.081 10.9733 31.7077 11.3607 31.185 11.678C30.6623 11.986 30.0043 12.14 29.211 12.14C28.5297 12.14 27.923 11.986 27.391 11.678C26.8683 11.3607 26.4577 10.922 26.159 10.362C25.8603 9.802 25.711 9.16733 25.711 8.458ZM35.3294 1.794V12.098H33.8734V1.794H35.3294Z" fill="#6B6B6B"/>
<path d="M0.5 26C0.5 24.067 2.067 22.5 4 22.5H296C297.933 22.5 299.5 24.067 299.5 26V60C299.5 61.933 297.933 63.5 296 63.5H4C2.067 63.5 0.5 61.933 0.5 60V26Z" fill="white"/>
<path d="M0.5 26C0.5 24.067 2.067 22.5 4 22.5H296C297.933 22.5 299.5 24.067 299.5 26V60C299.5 61.933 297.933 63.5 296 63.5H4C2.067 63.5 0.5 61.933 0.5 60V26Z" stroke="#C2C2C2"/>
<path d="M22.784 39.352V36.12H24.24V46.648H22.784V40.568H19.824V39.352H22.784ZM12.576 43.544C13.632 43.1493 14.4747 42.504 15.104 41.608C15.7333 40.712 16.048 39.7253 16.048 38.648V36.952H17.504V38.68C17.504 39.6613 17.808 40.5733 18.416 41.416C19.024 42.248 19.84 42.8507 20.864 43.224L20.096 44.36C19.3387 44.0613 18.6773 43.6347 18.112 43.08C17.5467 42.5147 17.1093 41.8587 16.8 41.112C16.5013 41.944 16.0533 42.6693 15.456 43.288C14.8693 43.9067 14.1653 44.376 13.344 44.696L12.576 43.544ZM15.104 45.496H16.56V48.728H24.576V49.928H15.104V45.496ZM32.4484 37.112V38.296H28.4004V39.928H32.3204V41.048H28.4004V42.792C29.4457 42.7813 30.2937 42.7547 30.9444 42.712C31.6057 42.6693 32.2777 42.5787 32.9604 42.44L33.1044 43.624C32.3364 43.7733 31.5737 43.8747 30.8164 43.928C30.059 43.9707 29.0937 43.992 27.9204 43.992H26.9924V37.112H32.4484ZM28.8164 45.384H38.3364V50.232H36.8804V46.584H28.8164V45.384ZM33.8564 36.376H35.2324V39.736H36.9444V36.104H38.3364V44.68H36.9444V40.936H35.2324V44.6H33.8564V36.376ZM51.1528 36.12V41.848H53.3928V43.064H51.1528V50.232H49.6968V36.12H51.1528ZM40.1608 38.328H43.6168V36.296H45.1048V38.328H48.4808V39.512H40.1608V38.328ZM40.9128 43.864C40.9128 43.2347 41.0621 42.6747 41.3608 42.184C41.6594 41.6827 42.0701 41.2933 42.5928 41.016C43.1261 40.7387 43.7181 40.6 44.3688 40.6C45.0301 40.6 45.6221 40.7387 46.1448 41.016C46.6781 41.2933 47.0941 41.6827 47.3928 42.184C47.6914 42.6747 47.8408 43.2347 47.8408 43.864C47.8408 44.4933 47.6914 45.0587 47.3928 45.56C47.0941 46.0507 46.6781 46.4347 46.1448 46.712C45.6221 46.9893 45.0301 47.128 44.3688 47.128C43.7181 47.128 43.1261 46.9893 42.5928 46.712C42.0701 46.4347 41.6594 46.0507 41.3608 45.56C41.0621 45.0587 40.9128 44.4933 40.9128 43.864ZM42.3048 43.864C42.3048 44.472 42.4968 44.968 42.8808 45.352C43.2648 45.736 43.7608 45.928 44.3688 45.928C44.9768 45.928 45.4728 45.736 45.8568 45.352C46.2514 44.968 46.4488 44.472 46.4488 43.864C46.4488 43.256 46.2514 42.76 45.8568 42.376C45.4728 41.992 44.9768 41.8 44.3688 41.8C43.7714 41.8 43.2754 41.992 42.8808 42.376C42.4968 42.76 42.3048 43.256 42.3048 43.864ZM61.8091 41.096V36.408H63.1691V49.528H61.8091V42.296H59.6171V41.096H61.8091ZM53.8731 46.152C54.8225 45.576 55.5638 44.728 56.0971 43.608C56.6305 42.4773 56.8971 41.2827 56.8971 40.024V37.432H58.3051V39.976C58.3051 41.16 58.5505 42.2853 59.0411 43.352C59.5318 44.4187 60.2305 45.2347 61.1371 45.8L60.3051 46.936C59.6758 46.552 59.1318 46.024 58.6731 45.352C58.2251 44.68 57.8731 43.9173 57.6171 43.064C57.3505 43.9813 56.9718 44.8027 56.4811 45.528C56.0011 46.2533 55.4305 46.824 54.7691 47.24L53.8731 46.152ZM64.6731 36.104H66.0811V50.216H64.6731V36.104ZM70.9615 47.24V43.512C70.3748 43.192 69.9162 42.7867 69.5855 42.296C69.2655 41.7947 69.1055 41.2347 69.1055 40.616C69.1055 39.8907 69.3242 39.2507 69.7615 38.696C70.2095 38.1413 70.8228 37.7147 71.6015 37.416C72.3802 37.1067 73.2655 36.952 74.2575 36.952C75.2602 36.952 76.1508 37.1067 76.9295 37.416C77.7188 37.7147 78.3322 38.1413 78.7695 38.696C79.2068 39.2507 79.4255 39.8907 79.4255 40.616C79.4255 41.2347 79.2655 41.7893 78.9455 42.28C78.6362 42.76 78.1935 43.1653 77.6175 43.496V47.24H80.6735V48.44H67.8895V47.24H70.9615ZM70.5295 40.616C70.5295 41.1173 70.6842 41.56 70.9935 41.944C71.3135 42.3173 71.7562 42.6107 72.3215 42.824C72.8868 43.0267 73.5322 43.128 74.2575 43.128C74.9828 43.128 75.6282 43.0267 76.1935 42.824C76.7588 42.6107 77.2015 42.3173 77.5215 41.944C77.8415 41.56 78.0015 41.1173 78.0015 40.616C78.0015 40.1147 77.8415 39.6773 77.5215 39.304C77.2015 38.92 76.7588 38.6267 76.1935 38.424C75.6282 38.2107 74.9828 38.104 74.2575 38.104C73.5322 38.104 72.8868 38.2107 72.3215 38.424C71.7562 38.6267 71.3135 38.92 70.9935 39.304C70.6842 39.6773 70.5295 40.1147 70.5295 40.616ZM76.1455 47.24V44.056C75.5908 44.1947 74.9615 44.264 74.2575 44.264C73.5748 44.264 72.9562 44.1947 72.4015 44.056V47.24H76.1455Z" fill="#C2C2C2"/>
<path d="M284 42L278 47L272 42" stroke="#C2C2C2" stroke-width="1.4" stroke-linejoin="bevel"/>
<path d="M2.562 84.838H7.672V86.098H1.106V75.794H2.562V84.838ZM11.8833 84.964C12.2659 84.964 12.6253 84.8567 12.9613 84.642C13.2973 84.418 13.5633 84.1193 13.7593 83.746C13.9646 83.3633 14.0673 82.9433 14.0673 82.486C14.0673 82.0287 13.9646 81.6133 13.7593 81.24C13.5633 80.8573 13.2973 80.5587 12.9613 80.344C12.6253 80.12 12.2659 80.008 11.8833 80.008C11.2579 80.008 10.7493 80.2367 10.3573 80.694C9.96527 81.1513 9.76927 81.7487 9.76927 82.486C9.76927 83.2233 9.96527 83.8207 10.3573 84.278C10.7493 84.7353 11.2579 84.964 11.8833 84.964ZM8.31327 82.486C8.31327 81.7767 8.45793 81.142 8.74727 80.582C9.04593 80.022 9.4566 79.588 9.97927 79.28C10.5113 78.9627 11.1133 78.804 11.7853 78.804C12.2146 78.804 12.6253 78.9113 13.0173 79.126C13.4186 79.3313 13.7639 79.644 14.0533 80.064V78.776H15.5093V86.098L14.0533 86.112V84.894C13.7546 85.3233 13.4093 85.6453 13.0173 85.86C12.6253 86.0653 12.2146 86.168 11.7853 86.168C11.1133 86.168 10.5113 86.014 9.97927 85.706C9.4566 85.3887 9.04593 84.95 8.74727 84.39C8.45793 83.83 8.31327 83.1953 8.31327 82.486ZM21.037 86.168C20.673 86.168 20.2763 86.07 19.847 85.874C19.427 85.678 19.063 85.3513 18.755 84.894V86.112H17.299V75.794H18.755V80.05C19.063 79.574 19.427 79.2427 19.847 79.056C20.2763 78.86 20.6776 78.762 21.051 78.762C21.723 78.762 22.325 78.9207 22.857 79.238C23.389 79.5553 23.8043 79.994 24.103 80.554C24.4016 81.114 24.551 81.7533 24.551 82.472C24.551 83.1907 24.4016 83.83 24.103 84.39C23.8043 84.95 23.389 85.3887 22.857 85.706C22.325 86.014 21.7183 86.168 21.037 86.168ZM18.755 82.486C18.755 82.9433 18.853 83.3633 19.049 83.746C19.245 84.1287 19.511 84.432 19.847 84.656C20.1923 84.88 20.561 84.992 20.953 84.992C21.5876 84.992 22.101 84.7633 22.493 84.306C22.8943 83.8393 23.095 83.2327 23.095 82.486C23.095 81.7487 22.8943 81.1513 22.493 80.694C22.101 80.2273 21.5876 79.994 20.953 79.994C20.561 79.994 20.197 80.106 19.861 80.33C19.525 80.554 19.2543 80.8573 19.049 81.24C18.853 81.6227 18.755 82.038 18.755 82.486ZM31.185 81.898C31.1197 81.3567 30.9283 80.904 30.611 80.54C30.2937 80.1667 29.8363 79.98 29.239 79.98C28.6977 79.98 28.2263 80.1667 27.825 80.54C27.433 80.904 27.195 81.3613 27.111 81.912L31.185 81.898ZM25.711 82.458C25.711 81.7393 25.8603 81.1 26.159 80.54C26.4577 79.98 26.8683 79.546 27.391 79.238C27.923 78.9207 28.5297 78.762 29.211 78.762C30.1723 78.762 30.877 78.9953 31.325 79.462C31.7823 79.9287 32.0903 80.358 32.249 80.75C32.4637 81.2727 32.571 81.8513 32.571 82.486C32.571 82.6167 32.5663 82.7333 32.557 82.836C32.5477 82.9293 32.543 82.99 32.543 83.018H27.111C27.195 83.578 27.4377 84.0353 27.839 84.39C28.2403 84.7447 28.7023 84.922 29.225 84.922C29.645 84.922 29.9903 84.8567 30.261 84.726C30.541 84.5953 30.7323 84.474 30.835 84.362C30.9377 84.25 31.0357 84.124 31.129 83.984L32.305 84.516C32.081 84.9733 31.7077 85.3607 31.185 85.678C30.6623 85.986 30.0043 86.14 29.211 86.14C28.5297 86.14 27.923 85.986 27.391 85.678C26.8683 85.3607 26.4577 84.922 26.159 84.362C25.8603 83.802 25.711 83.1673 25.711 82.458ZM35.3294 75.794V86.098H33.8734V75.794H35.3294Z" fill="#6B6B6B"/>
<path d="M0.5 100C0.5 98.067 2.067 96.5 4 96.5H296C297.933 96.5 299.5 98.067 299.5 100V134C299.5 135.933 297.933 137.5 296 137.5H4C2.067 137.5 0.5 135.933 0.5 134V100Z" fill="white"/>
<path d="M0.5 100C0.5 98.067 2.067 96.5 4 96.5H296C297.933 96.5 299.5 98.067 299.5 100V134C299.5 135.933 297.933 137.5 296 137.5H4C2.067 137.5 0.5 135.933 0.5 134V100Z" stroke="#6B6B6B"/>
<path d="M22.784 113.352V110.12H24.24V120.648H22.784V114.568H19.824V113.352H22.784ZM12.576 117.544C13.632 117.149 14.4747 116.504 15.104 115.608C15.7333 114.712 16.048 113.725 16.048 112.648V110.952H17.504V112.68C17.504 113.661 17.808 114.573 18.416 115.416C19.024 116.248 19.84 116.851 20.864 117.224L20.096 118.36C19.3387 118.061 18.6773 117.635 18.112 117.08C17.5467 116.515 17.1093 115.859 16.8 115.112C16.5013 115.944 16.0533 116.669 15.456 117.288C14.8693 117.907 14.1653 118.376 13.344 118.696L12.576 117.544ZM15.104 119.496H16.56V122.728H24.576V123.928H15.104V119.496ZM32.4484 111.112V112.296H28.4004V113.928H32.3204V115.048H28.4004V116.792C29.4457 116.781 30.2937 116.755 30.9444 116.712C31.6057 116.669 32.2777 116.579 32.9604 116.44L33.1044 117.624C32.3364 117.773 31.5737 117.875 30.8164 117.928C30.059 117.971 29.0937 117.992 27.9204 117.992H26.9924V111.112H32.4484ZM28.8164 119.384H38.3364V124.232H36.8804V120.584H28.8164V119.384ZM33.8564 110.376H35.2324V113.736H36.9444V110.104H38.3364V118.68H36.9444V114.936H35.2324V118.6H33.8564V110.376ZM51.1528 110.12V115.848H53.3928V117.064H51.1528V124.232H49.6968V110.12H51.1528ZM40.1608 112.328H43.6168V110.296H45.1048V112.328H48.4808V113.512H40.1608V112.328ZM40.9128 117.864C40.9128 117.235 41.0621 116.675 41.3608 116.184C41.6594 115.683 42.0701 115.293 42.5928 115.016C43.1261 114.739 43.7181 114.6 44.3688 114.6C45.0301 114.6 45.6221 114.739 46.1448 115.016C46.6781 115.293 47.0941 115.683 47.3928 116.184C47.6914 116.675 47.8408 117.235 47.8408 117.864C47.8408 118.493 47.6914 119.059 47.3928 119.56C47.0941 120.051 46.6781 120.435 46.1448 120.712C45.6221 120.989 45.0301 121.128 44.3688 121.128C43.7181 121.128 43.1261 120.989 42.5928 120.712C42.0701 120.435 41.6594 120.051 41.3608 119.56C41.0621 119.059 40.9128 118.493 40.9128 117.864ZM42.3048 117.864C42.3048 118.472 42.4968 118.968 42.8808 119.352C43.2648 119.736 43.7608 119.928 44.3688 119.928C44.9768 119.928 45.4728 119.736 45.8568 119.352C46.2514 118.968 46.4488 118.472 46.4488 117.864C46.4488 117.256 46.2514 116.76 45.8568 116.376C45.4728 115.992 44.9768 115.8 44.3688 115.8C43.7714 115.8 43.2754 115.992 42.8808 116.376C42.4968 116.76 42.3048 117.256 42.3048 117.864ZM61.8091 115.096V110.408H63.1691V123.528H61.8091V116.296H59.6171V115.096H61.8091ZM53.8731 120.152C54.8225 119.576 55.5638 118.728 56.0971 117.608C56.6305 116.477 56.8971 115.283 56.8971 114.024V111.432H58.3051V113.976C58.3051 115.16 58.5505 116.285 59.0411 117.352C59.5318 118.419 60.2305 119.235 61.1371 119.8L60.3051 120.936C59.6758 120.552 59.1318 120.024 58.6731 119.352C58.2251 118.68 57.8731 117.917 57.6171 117.064C57.3505 117.981 56.9718 118.803 56.4811 119.528C56.0011 120.253 55.4305 120.824 54.7691 121.24L53.8731 120.152ZM64.6731 110.104H66.0811V124.216H64.6731V110.104ZM70.9615 121.24V117.512C70.3748 117.192 69.9162 116.787 69.5855 116.296C69.2655 115.795 69.1055 115.235 69.1055 114.616C69.1055 113.891 69.3242 113.251 69.7615 112.696C70.2095 112.141 70.8228 111.715 71.6015 111.416C72.3802 111.107 73.2655 110.952 74.2575 110.952C75.2602 110.952 76.1508 111.107 76.9295 111.416C77.7188 111.715 78.3322 112.141 78.7695 112.696C79.2068 113.251 79.4255 113.891 79.4255 114.616C79.4255 115.235 79.2655 115.789 78.9455 116.28C78.6362 116.76 78.1935 117.165 77.6175 117.496V121.24H80.6735V122.44H67.8895V121.24H70.9615ZM70.5295 114.616C70.5295 115.117 70.6842 115.56 70.9935 115.944C71.3135 116.317 71.7562 116.611 72.3215 116.824C72.8868 117.027 73.5322 117.128 74.2575 117.128C74.9828 117.128 75.6282 117.027 76.1935 116.824C76.7588 116.611 77.2015 116.317 77.5215 115.944C77.8415 115.56 78.0015 115.117 78.0015 114.616C78.0015 114.115 77.8415 113.677 77.5215 113.304C77.2015 112.92 76.7588 112.627 76.1935 112.424C75.6282 112.211 74.9828 112.104 74.2575 112.104C73.5322 112.104 72.8868 112.211 72.3215 112.424C71.7562 112.627 71.3135 112.92 70.9935 113.304C70.6842 113.677 70.5295 114.115 70.5295 114.616ZM76.1455 121.24V118.056C75.5908 118.195 74.9615 118.264 74.2575 118.264C73.5748 118.264 72.9562 118.195 72.4015 118.056V121.24H76.1455Z" fill="#6B6B6B"/>
<path d="M284 116L278 121L272 116" stroke="#6B6B6B" stroke-width="1.4" stroke-linejoin="bevel"/>
<path d="M2.562 158.838H7.672V160.098H1.106V149.794H2.562V158.838ZM11.8833 158.964C12.2659 158.964 12.6253 158.857 12.9613 158.642C13.2973 158.418 13.5633 158.119 13.7593 157.746C13.9646 157.363 14.0673 156.943 14.0673 156.486C14.0673 156.029 13.9646 155.613 13.7593 155.24C13.5633 154.857 13.2973 154.559 12.9613 154.344C12.6253 154.12 12.2659 154.008 11.8833 154.008C11.2579 154.008 10.7493 154.237 10.3573 154.694C9.96527 155.151 9.76927 155.749 9.76927 156.486C9.76927 157.223 9.96527 157.821 10.3573 158.278C10.7493 158.735 11.2579 158.964 11.8833 158.964ZM8.31327 156.486C8.31327 155.777 8.45793 155.142 8.74727 154.582C9.04593 154.022 9.4566 153.588 9.97927 153.28C10.5113 152.963 11.1133 152.804 11.7853 152.804C12.2146 152.804 12.6253 152.911 13.0173 153.126C13.4186 153.331 13.7639 153.644 14.0533 154.064V152.776H15.5093V160.098L14.0533 160.112V158.894C13.7546 159.323 13.4093 159.645 13.0173 159.86C12.6253 160.065 12.2146 160.168 11.7853 160.168C11.1133 160.168 10.5113 160.014 9.97927 159.706C9.4566 159.389 9.04593 158.95 8.74727 158.39C8.45793 157.83 8.31327 157.195 8.31327 156.486ZM21.037 160.168C20.673 160.168 20.2763 160.07 19.847 159.874C19.427 159.678 19.063 159.351 18.755 158.894V160.112H17.299V149.794H18.755V154.05C19.063 153.574 19.427 153.243 19.847 153.056C20.2763 152.86 20.6776 152.762 21.051 152.762C21.723 152.762 22.325 152.921 22.857 153.238C23.389 153.555 23.8043 153.994 24.103 154.554C24.4016 155.114 24.551 155.753 24.551 156.472C24.551 157.191 24.4016 157.83 24.103 158.39C23.8043 158.95 23.389 159.389 22.857 159.706C22.325 160.014 21.7183 160.168 21.037 160.168ZM18.755 156.486C18.755 156.943 18.853 157.363 19.049 157.746C19.245 158.129 19.511 158.432 19.847 158.656C20.1923 158.88 20.561 158.992 20.953 158.992C21.5876 158.992 22.101 158.763 22.493 158.306C22.8943 157.839 23.095 157.233 23.095 156.486C23.095 155.749 22.8943 155.151 22.493 154.694C22.101 154.227 21.5876 153.994 20.953 153.994C20.561 153.994 20.197 154.106 19.861 154.33C19.525 154.554 19.2543 154.857 19.049 155.24C18.853 155.623 18.755 156.038 18.755 156.486ZM31.185 155.898C31.1197 155.357 30.9283 154.904 30.611 154.54C30.2937 154.167 29.8363 153.98 29.239 153.98C28.6977 153.98 28.2263 154.167 27.825 154.54C27.433 154.904 27.195 155.361 27.111 155.912L31.185 155.898ZM25.711 156.458C25.711 155.739 25.8603 155.1 26.159 154.54C26.4577 153.98 26.8683 153.546 27.391 153.238C27.923 152.921 28.5297 152.762 29.211 152.762C30.1723 152.762 30.877 152.995 31.325 153.462C31.7823 153.929 32.0903 154.358 32.249 154.75C32.4637 155.273 32.571 155.851 32.571 156.486C32.571 156.617 32.5663 156.733 32.557 156.836C32.5477 156.929 32.543 156.99 32.543 157.018H27.111C27.195 157.578 27.4377 158.035 27.839 158.39C28.2403 158.745 28.7023 158.922 29.225 158.922C29.645 158.922 29.9903 158.857 30.261 158.726C30.541 158.595 30.7323 158.474 30.835 158.362C30.9377 158.25 31.0357 158.124 31.129 157.984L32.305 158.516C32.081 158.973 31.7077 159.361 31.185 159.678C30.6623 159.986 30.0043 160.14 29.211 160.14C28.5297 160.14 27.923 159.986 27.391 159.678C26.8683 159.361 26.4577 158.922 26.159 158.362C25.8603 157.802 25.711 157.167 25.711 156.458ZM35.3294 149.794V160.098H33.8734V149.794H35.3294Z" fill="#6B6B6B"/>
<path d="M0.5 174C0.5 172.067 2.067 170.5 4 170.5H296C297.933 170.5 299.5 172.067 299.5 174V208C299.5 209.933 297.933 211.5 296 211.5H4C2.067 211.5 0.5 209.933 0.5 208V174Z" fill="#F7F7F7"/>
<path d="M0.5 174C0.5 172.067 2.067 170.5 4 170.5H296C297.933 170.5 299.5 172.067 299.5 174V208C299.5 209.933 297.933 211.5 296 211.5H4C2.067 211.5 0.5 209.933 0.5 208V174Z" stroke="#6B6B6B"/>
<path d="M22.784 187.352V184.12H24.24V194.648H22.784V188.568H19.824V187.352H22.784ZM12.576 191.544C13.632 191.149 14.4747 190.504 15.104 189.608C15.7333 188.712 16.048 187.725 16.048 186.648V184.952H17.504V186.68C17.504 187.661 17.808 188.573 18.416 189.416C19.024 190.248 19.84 190.851 20.864 191.224L20.096 192.36C19.3387 192.061 18.6773 191.635 18.112 191.08C17.5467 190.515 17.1093 189.859 16.8 189.112C16.5013 189.944 16.0533 190.669 15.456 191.288C14.8693 191.907 14.1653 192.376 13.344 192.696L12.576 191.544ZM15.104 193.496H16.56V196.728H24.576V197.928H15.104V193.496ZM32.4484 185.112V186.296H28.4004V187.928H32.3204V189.048H28.4004V190.792C29.4457 190.781 30.2937 190.755 30.9444 190.712C31.6057 190.669 32.2777 190.579 32.9604 190.44L33.1044 191.624C32.3364 191.773 31.5737 191.875 30.8164 191.928C30.059 191.971 29.0937 191.992 27.9204 191.992H26.9924V185.112H32.4484ZM28.8164 193.384H38.3364V198.232H36.8804V194.584H28.8164V193.384ZM33.8564 184.376H35.2324V187.736H36.9444V184.104H38.3364V192.68H36.9444V188.936H35.2324V192.6H33.8564V184.376ZM51.1528 184.12V189.848H53.3928V191.064H51.1528V198.232H49.6968V184.12H51.1528ZM40.1608 186.328H43.6168V184.296H45.1048V186.328H48.4808V187.512H40.1608V186.328ZM40.9128 191.864C40.9128 191.235 41.0621 190.675 41.3608 190.184C41.6594 189.683 42.0701 189.293 42.5928 189.016C43.1261 188.739 43.7181 188.6 44.3688 188.6C45.0301 188.6 45.6221 188.739 46.1448 189.016C46.6781 189.293 47.0941 189.683 47.3928 190.184C47.6914 190.675 47.8408 191.235 47.8408 191.864C47.8408 192.493 47.6914 193.059 47.3928 193.56C47.0941 194.051 46.6781 194.435 46.1448 194.712C45.6221 194.989 45.0301 195.128 44.3688 195.128C43.7181 195.128 43.1261 194.989 42.5928 194.712C42.0701 194.435 41.6594 194.051 41.3608 193.56C41.0621 193.059 40.9128 192.493 40.9128 191.864ZM42.3048 191.864C42.3048 192.472 42.4968 192.968 42.8808 193.352C43.2648 193.736 43.7608 193.928 44.3688 193.928C44.9768 193.928 45.4728 193.736 45.8568 193.352C46.2514 192.968 46.4488 192.472 46.4488 191.864C46.4488 191.256 46.2514 190.76 45.8568 190.376C45.4728 189.992 44.9768 189.8 44.3688 189.8C43.7714 189.8 43.2754 189.992 42.8808 190.376C42.4968 190.76 42.3048 191.256 42.3048 191.864ZM61.8091 189.096V184.408H63.1691V197.528H61.8091V190.296H59.6171V189.096H61.8091ZM53.8731 194.152C54.8225 193.576 55.5638 192.728 56.0971 191.608C56.6305 190.477 56.8971 189.283 56.8971 188.024V185.432H58.3051V187.976C58.3051 189.16 58.5505 190.285 59.0411 191.352C59.5318 192.419 60.2305 193.235 61.1371 193.8L60.3051 194.936C59.6758 194.552 59.1318 194.024 58.6731 193.352C58.2251 192.68 57.8731 191.917 57.6171 191.064C57.3505 191.981 56.9718 192.803 56.4811 193.528C56.0011 194.253 55.4305 194.824 54.7691 195.24L53.8731 194.152ZM64.6731 184.104H66.0811V198.216H64.6731V184.104ZM70.9615 195.24V191.512C70.3748 191.192 69.9162 190.787 69.5855 190.296C69.2655 189.795 69.1055 189.235 69.1055 188.616C69.1055 187.891 69.3242 187.251 69.7615 186.696C70.2095 186.141 70.8228 185.715 71.6015 185.416C72.3802 185.107 73.2655 184.952 74.2575 184.952C75.2602 184.952 76.1508 185.107 76.9295 185.416C77.7188 185.715 78.3322 186.141 78.7695 186.696C79.2068 187.251 79.4255 187.891 79.4255 188.616C79.4255 189.235 79.2655 189.789 78.9455 190.28C78.6362 190.76 78.1935 191.165 77.6175 191.496V195.24H80.6735V196.44H67.8895V195.24H70.9615ZM70.5295 188.616C70.5295 189.117 70.6842 189.56 70.9935 189.944C71.3135 190.317 71.7562 190.611 72.3215 190.824C72.8868 191.027 73.5322 191.128 74.2575 191.128C74.9828 191.128 75.6282 191.027 76.1935 190.824C76.7588 190.611 77.2015 190.317 77.5215 189.944C77.8415 189.56 78.0015 189.117 78.0015 188.616C78.0015 188.115 77.8415 187.677 77.5215 187.304C77.2015 186.92 76.7588 186.627 76.1935 186.424C75.6282 186.211 74.9828 186.104 74.2575 186.104C73.5322 186.104 72.8868 186.211 72.3215 186.424C71.7562 186.627 71.3135 186.92 70.9935 187.304C70.6842 187.677 70.5295 188.115 70.5295 188.616ZM76.1455 195.24V192.056C75.5908 192.195 74.9615 192.264 74.2575 192.264C73.5748 192.264 72.9562 192.195 72.4015 192.056V195.24H76.1455Z" fill="#6B6B6B"/>
<path d="M284 190L278 195L272 190" stroke="#6B6B6B" stroke-width="1.4" stroke-linejoin="bevel"/>
<path d="M2.562 232.838H7.672V234.098H1.106V223.794H2.562V232.838ZM11.8833 232.964C12.2659 232.964 12.6253 232.857 12.9613 232.642C13.2973 232.418 13.5633 232.119 13.7593 231.746C13.9646 231.363 14.0673 230.943 14.0673 230.486C14.0673 230.029 13.9646 229.613 13.7593 229.24C13.5633 228.857 13.2973 228.559 12.9613 228.344C12.6253 228.12 12.2659 228.008 11.8833 228.008C11.2579 228.008 10.7493 228.237 10.3573 228.694C9.96527 229.151 9.76927 229.749 9.76927 230.486C9.76927 231.223 9.96527 231.821 10.3573 232.278C10.7493 232.735 11.2579 232.964 11.8833 232.964ZM8.31327 230.486C8.31327 229.777 8.45793 229.142 8.74727 228.582C9.04593 228.022 9.4566 227.588 9.97927 227.28C10.5113 226.963 11.1133 226.804 11.7853 226.804C12.2146 226.804 12.6253 226.911 13.0173 227.126C13.4186 227.331 13.7639 227.644 14.0533 228.064V226.776H15.5093V234.098L14.0533 234.112V232.894C13.7546 233.323 13.4093 233.645 13.0173 233.86C12.6253 234.065 12.2146 234.168 11.7853 234.168C11.1133 234.168 10.5113 234.014 9.97927 233.706C9.4566 233.389 9.04593 232.95 8.74727 232.39C8.45793 231.83 8.31327 231.195 8.31327 230.486ZM21.037 234.168C20.673 234.168 20.2763 234.07 19.847 233.874C19.427 233.678 19.063 233.351 18.755 232.894V234.112H17.299V223.794H18.755V228.05C19.063 227.574 19.427 227.243 19.847 227.056C20.2763 226.86 20.6776 226.762 21.051 226.762C21.723 226.762 22.325 226.921 22.857 227.238C23.389 227.555 23.8043 227.994 24.103 228.554C24.4016 229.114 24.551 229.753 24.551 230.472C24.551 231.191 24.4016 231.83 24.103 232.39C23.8043 232.95 23.389 233.389 22.857 233.706C22.325 234.014 21.7183 234.168 21.037 234.168ZM18.755 230.486C18.755 230.943 18.853 231.363 19.049 231.746C19.245 232.129 19.511 232.432 19.847 232.656C20.1923 232.88 20.561 232.992 20.953 232.992C21.5876 232.992 22.101 232.763 22.493 232.306C22.8943 231.839 23.095 231.233 23.095 230.486C23.095 229.749 22.8943 229.151 22.493 228.694C22.101 228.227 21.5876 227.994 20.953 227.994C20.561 227.994 20.197 228.106 19.861 228.33C19.525 228.554 19.2543 228.857 19.049 229.24C18.853 229.623 18.755 230.038 18.755 230.486ZM31.185 229.898C31.1197 229.357 30.9283 228.904 30.611 228.54C30.2937 228.167 29.8363 227.98 29.239 227.98C28.6977 227.98 28.2263 228.167 27.825 228.54C27.433 228.904 27.195 229.361 27.111 229.912L31.185 229.898ZM25.711 230.458C25.711 229.739 25.8603 229.1 26.159 228.54C26.4577 227.98 26.8683 227.546 27.391 227.238C27.923 226.921 28.5297 226.762 29.211 226.762C30.1723 226.762 30.877 226.995 31.325 227.462C31.7823 227.929 32.0903 228.358 32.249 228.75C32.4637 229.273 32.571 229.851 32.571 230.486C32.571 230.617 32.5663 230.733 32.557 230.836C32.5477 230.929 32.543 230.99 32.543 231.018H27.111C27.195 231.578 27.4377 232.035 27.839 232.39C28.2403 232.745 28.7023 232.922 29.225 232.922C29.645 232.922 29.9903 232.857 30.261 232.726C30.541 232.595 30.7323 232.474 30.835 232.362C30.9377 232.25 31.0357 232.124 31.129 231.984L32.305 232.516C32.081 232.973 31.7077 233.361 31.185 233.678C30.6623 233.986 30.0043 234.14 29.211 234.14C28.5297 234.14 27.923 233.986 27.391 233.678C26.8683 233.361 26.4577 232.922 26.159 232.362C25.8603 231.802 25.711 231.167 25.711 230.458ZM35.3294 223.794V234.098H33.8734V223.794H35.3294Z" fill="#368FF7"/>
<path d="M0.5 248C0.5 246.067 2.067 244.5 4 244.5H296C297.933 244.5 299.5 246.067 299.5 248V282C299.5 283.933 297.933 285.5 296 285.5H4C2.067 285.5 0.5 283.933 0.5 282V248Z" fill="white"/>
<path d="M0.5 248C0.5 246.067 2.067 244.5 4 244.5H296C297.933 244.5 299.5 246.067 299.5 248V282C299.5 283.933 297.933 285.5 296 285.5H4C2.067 285.5 0.5 283.933 0.5 282V248Z" stroke="#C2C2C2"/>
<path d="M22.784 261.352V258.12H24.24V268.648H22.784V262.568H19.824V261.352H22.784ZM12.576 265.544C13.632 265.149 14.4747 264.504 15.104 263.608C15.7333 262.712 16.048 261.725 16.048 260.648V258.952H17.504V260.68C17.504 261.661 17.808 262.573 18.416 263.416C19.024 264.248 19.84 264.851 20.864 265.224L20.096 266.36C19.3387 266.061 18.6773 265.635 18.112 265.08C17.5467 264.515 17.1093 263.859 16.8 263.112C16.5013 263.944 16.0533 264.669 15.456 265.288C14.8693 265.907 14.1653 266.376 13.344 266.696L12.576 265.544ZM15.104 267.496H16.56V270.728H24.576V271.928H15.104V267.496ZM32.4484 259.112V260.296H28.4004V261.928H32.3204V263.048H28.4004V264.792C29.4457 264.781 30.2937 264.755 30.9444 264.712C31.6057 264.669 32.2777 264.579 32.9604 264.44L33.1044 265.624C32.3364 265.773 31.5737 265.875 30.8164 265.928C30.059 265.971 29.0937 265.992 27.9204 265.992H26.9924V259.112H32.4484ZM28.8164 267.384H38.3364V272.232H36.8804V268.584H28.8164V267.384ZM33.8564 258.376H35.2324V261.736H36.9444V258.104H38.3364V266.68H36.9444V262.936H35.2324V266.6H33.8564V258.376ZM51.1528 258.12V263.848H53.3928V265.064H51.1528V272.232H49.6968V258.12H51.1528ZM40.1608 260.328H43.6168V258.296H45.1048V260.328H48.4808V261.512H40.1608V260.328ZM40.9128 265.864C40.9128 265.235 41.0621 264.675 41.3608 264.184C41.6594 263.683 42.0701 263.293 42.5928 263.016C43.1261 262.739 43.7181 262.6 44.3688 262.6C45.0301 262.6 45.6221 262.739 46.1448 263.016C46.6781 263.293 47.0941 263.683 47.3928 264.184C47.6914 264.675 47.8408 265.235 47.8408 265.864C47.8408 266.493 47.6914 267.059 47.3928 267.56C47.0941 268.051 46.6781 268.435 46.1448 268.712C45.6221 268.989 45.0301 269.128 44.3688 269.128C43.7181 269.128 43.1261 268.989 42.5928 268.712C42.0701 268.435 41.6594 268.051 41.3608 267.56C41.0621 267.059 40.9128 266.493 40.9128 265.864ZM42.3048 265.864C42.3048 266.472 42.4968 266.968 42.8808 267.352C43.2648 267.736 43.7608 267.928 44.3688 267.928C44.9768 267.928 45.4728 267.736 45.8568 267.352C46.2514 266.968 46.4488 266.472 46.4488 265.864C46.4488 265.256 46.2514 264.76 45.8568 264.376C45.4728 263.992 44.9768 263.8 44.3688 263.8C43.7714 263.8 43.2754 263.992 42.8808 264.376C42.4968 264.76 42.3048 265.256 42.3048 265.864ZM61.8091 263.096V258.408H63.1691V271.528H61.8091V264.296H59.6171V263.096H61.8091ZM53.8731 268.152C54.8225 267.576 55.5638 266.728 56.0971 265.608C56.6305 264.477 56.8971 263.283 56.8971 262.024V259.432H58.3051V261.976C58.3051 263.16 58.5505 264.285 59.0411 265.352C59.5318 266.419 60.2305 267.235 61.1371 267.8L60.3051 268.936C59.6758 268.552 59.1318 268.024 58.6731 267.352C58.2251 266.68 57.8731 265.917 57.6171 265.064C57.3505 265.981 56.9718 266.803 56.4811 267.528C56.0011 268.253 55.4305 268.824 54.7691 269.24L53.8731 268.152ZM64.6731 258.104H66.0811V272.216H64.6731V258.104ZM70.9615 269.24V265.512C70.3748 265.192 69.9162 264.787 69.5855 264.296C69.2655 263.795 69.1055 263.235 69.1055 262.616C69.1055 261.891 69.3242 261.251 69.7615 260.696C70.2095 260.141 70.8228 259.715 71.6015 259.416C72.3802 259.107 73.2655 258.952 74.2575 258.952C75.2602 258.952 76.1508 259.107 76.9295 259.416C77.7188 259.715 78.3322 260.141 78.7695 260.696C79.2068 261.251 79.4255 261.891 79.4255 262.616C79.4255 263.235 79.2655 263.789 78.9455 264.28C78.6362 264.76 78.1935 265.165 77.6175 265.496V269.24H80.6735V270.44H67.8895V269.24H70.9615ZM70.5295 262.616C70.5295 263.117 70.6842 263.56 70.9935 263.944C71.3135 264.317 71.7562 264.611 72.3215 264.824C72.8868 265.027 73.5322 265.128 74.2575 265.128C74.9828 265.128 75.6282 265.027 76.1935 264.824C76.7588 264.611 77.2015 264.317 77.5215 263.944C77.8415 263.56 78.0015 263.117 78.0015 262.616C78.0015 262.115 77.8415 261.677 77.5215 261.304C77.2015 260.92 76.7588 260.627 76.1935 260.424C75.6282 260.211 74.9828 260.104 74.2575 260.104C73.5322 260.104 72.8868 260.211 72.3215 260.424C71.7562 260.627 71.3135 260.92 70.9935 261.304C70.6842 261.677 70.5295 262.115 70.5295 262.616ZM76.1455 269.24V266.056C75.5908 266.195 74.9615 266.264 74.2575 266.264C73.5748 266.264 72.9562 266.195 72.4015 266.056V269.24H76.1455Z" fill="#368FF7"/>
<path d="M272 266L278 261L284 266" stroke="#368FF7" stroke-width="1.4" stroke-linejoin="bevel"/>
<path d="M2.562 306.838H7.672V308.098H1.106V297.794H2.562V306.838ZM11.8833 306.964C12.2659 306.964 12.6253 306.857 12.9613 306.642C13.2973 306.418 13.5633 306.119 13.7593 305.746C13.9646 305.363 14.0673 304.943 14.0673 304.486C14.0673 304.029 13.9646 303.613 13.7593 303.24C13.5633 302.857 13.2973 302.559 12.9613 302.344C12.6253 302.12 12.2659 302.008 11.8833 302.008C11.2579 302.008 10.7493 302.237 10.3573 302.694C9.96527 303.151 9.76927 303.749 9.76927 304.486C9.76927 305.223 9.96527 305.821 10.3573 306.278C10.7493 306.735 11.2579 306.964 11.8833 306.964ZM8.31327 304.486C8.31327 303.777 8.45793 303.142 8.74727 302.582C9.04593 302.022 9.4566 301.588 9.97927 301.28C10.5113 300.963 11.1133 300.804 11.7853 300.804C12.2146 300.804 12.6253 300.911 13.0173 301.126C13.4186 301.331 13.7639 301.644 14.0533 302.064V300.776H15.5093V308.098L14.0533 308.112V306.894C13.7546 307.323 13.4093 307.645 13.0173 307.86C12.6253 308.065 12.2146 308.168 11.7853 308.168C11.1133 308.168 10.5113 308.014 9.97927 307.706C9.4566 307.389 9.04593 306.95 8.74727 306.39C8.45793 305.83 8.31327 305.195 8.31327 304.486ZM21.037 308.168C20.673 308.168 20.2763 308.07 19.847 307.874C19.427 307.678 19.063 307.351 18.755 306.894V308.112H17.299V297.794H18.755V302.05C19.063 301.574 19.427 301.243 19.847 301.056C20.2763 300.86 20.6776 300.762 21.051 300.762C21.723 300.762 22.325 300.921 22.857 301.238C23.389 301.555 23.8043 301.994 24.103 302.554C24.4016 303.114 24.551 303.753 24.551 304.472C24.551 305.191 24.4016 305.83 24.103 306.39C23.8043 306.95 23.389 307.389 22.857 307.706C22.325 308.014 21.7183 308.168 21.037 308.168ZM18.755 304.486C18.755 304.943 18.853 305.363 19.049 305.746C19.245 306.129 19.511 306.432 19.847 306.656C20.1923 306.88 20.561 306.992 20.953 306.992C21.5876 306.992 22.101 306.763 22.493 306.306C22.8943 305.839 23.095 305.233 23.095 304.486C23.095 303.749 22.8943 303.151 22.493 302.694C22.101 302.227 21.5876 301.994 20.953 301.994C20.561 301.994 20.197 302.106 19.861 302.33C19.525 302.554 19.2543 302.857 19.049 303.24C18.853 303.623 18.755 304.038 18.755 304.486ZM31.185 303.898C31.1197 303.357 30.9283 302.904 30.611 302.54C30.2937 302.167 29.8363 301.98 29.239 301.98C28.6977 301.98 28.2263 302.167 27.825 302.54C27.433 302.904 27.195 303.361 27.111 303.912L31.185 303.898ZM25.711 304.458C25.711 303.739 25.8603 303.1 26.159 302.54C26.4577 301.98 26.8683 301.546 27.391 301.238C27.923 300.921 28.5297 300.762 29.211 300.762C30.1723 300.762 30.877 300.995 31.325 301.462C31.7823 301.929 32.0903 302.358 32.249 302.75C32.4637 303.273 32.571 303.851 32.571 304.486C32.571 304.617 32.5663 304.733 32.557 304.836C32.5477 304.929 32.543 304.99 32.543 305.018H27.111C27.195 305.578 27.4377 306.035 27.839 306.39C28.2403 306.745 28.7023 306.922 29.225 306.922C29.645 306.922 29.9903 306.857 30.261 306.726C30.541 306.595 30.7323 306.474 30.835 306.362C30.9377 306.25 31.0357 306.124 31.129 305.984L32.305 306.516C32.081 306.973 31.7077 307.361 31.185 307.678C30.6623 307.986 30.0043 308.14 29.211 308.14C28.5297 308.14 27.923 307.986 27.391 307.678C26.8683 307.361 26.4577 306.922 26.159 306.362C25.8603 305.802 25.711 305.167 25.711 304.458ZM35.3294 297.794V308.098H33.8734V297.794H35.3294Z" fill="#121212"/>
<path d="M0.5 322C0.5 320.067 2.067 318.5 4 318.5H296C297.933 318.5 299.5 320.067 299.5 322V356C299.5 357.933 297.933 359.5 296 359.5H4C2.067 359.5 0.5 357.933 0.5 356V322Z" fill="white"/>
<path d="M0.5 322C0.5 320.067 2.067 318.5 4 318.5H296C297.933 318.5 299.5 320.067 299.5 322V356C299.5 357.933 297.933 359.5 296 359.5H4C2.067 359.5 0.5 357.933 0.5 356V322Z" stroke="#C2C2C2"/>
<path d="M21.552 334.632H18V345.064H16.592V334.632H13.024V333.384H21.552V334.632ZM27.7428 340.392C27.6681 339.709 27.4441 339.139 27.0708 338.68C26.7081 338.211 26.1588 337.976 25.4228 337.976C24.7508 337.976 24.1748 338.205 23.6948 338.664C23.2254 339.112 22.9428 339.693 22.8468 340.408L27.7428 340.392ZM21.4548 340.936C21.4548 340.125 21.6201 339.405 21.9508 338.776C22.2814 338.147 22.7454 337.656 23.3428 337.304C23.9401 336.952 24.6174 336.776 25.3748 336.776C26.9641 336.776 28.1001 337.523 28.7828 339.016C29.0068 339.613 29.1188 340.248 29.1188 340.92C29.1188 341.101 29.1134 341.251 29.1028 341.368C29.0921 341.475 29.0868 341.533 29.0868 341.544H22.8468C22.9534 342.237 23.2414 342.803 23.7108 343.24C24.1908 343.677 24.7508 343.896 25.3908 343.896C25.9028 343.896 26.3241 343.816 26.6548 343.656C26.9961 343.496 27.2308 343.341 27.3588 343.192C27.4974 343.032 27.6201 342.872 27.7268 342.712L28.8468 343.288C28.6014 343.789 28.1801 344.216 27.5828 344.568C26.9961 344.92 26.2601 345.096 25.3748 345.096C24.6174 345.096 23.9401 344.92 23.3428 344.568C22.7454 344.216 22.2814 343.725 21.9508 343.096C21.6201 342.467 21.4548 341.747 21.4548 340.936ZM34.6661 340.936L37.7541 345.064H36.0101L33.8821 342.12L31.7861 345.064H30.0261L33.0821 340.936L29.9941 336.792H31.7701L33.8821 339.784L36.0101 336.792H37.7701L34.6661 340.936ZM42.2314 345.096C41.5487 345.096 40.9887 344.872 40.5514 344.424C40.114 343.976 39.8847 343.4 39.8634 342.696V338.072H38.4874V336.84H39.8634V334.648H41.2714V336.84H43.0474V338.072H41.2714V342.6C41.2714 342.92 41.362 343.197 41.5434 343.432C41.7247 343.667 41.954 343.784 42.2314 343.784C42.3914 343.784 42.5354 343.773 42.6634 343.752C42.7914 343.731 42.9194 343.704 43.0474 343.672L43.3034 344.968C42.898 345.053 42.5407 345.096 42.2314 345.096Z" fill="#121212"/>
<path d="M284 338L278 343L272 338" stroke="#6B6B6B" stroke-width="1.4" stroke-linejoin="bevel"/>
</svg>
