<svg xmlns="http://www.w3.org/2000/svg" width="755" height="316" fill="none"><path fill="#fff" d="M6 70a4 4 0 0 1 4-4h154a4 4 0 0 1 4 4v154a4 4 0 0 1-4 4H10a4 4 0 0 1-4-4zm290 4a8 8 0 0 1 8-8h146a8 8 0 0 1 8 8v146a8 8 0 0 1-8 8H304a8 8 0 0 1-8-8zm290 73c0-22.091 17.909-40 40-40h82c22.091 0 40 17.909 40 40s-17.909 40-40 40h-82c-22.091 0-40-17.909-40-40"/><path fill="#6B6B6B" d="M80.994 148.122h1.302v1.274h-1.303v2.646h-1.441v-2.646h-4.397l-.14-1.274 4.593-6.272h1.385zm-1.442 0v-3.85l-2.8 3.85zm8.065 2.842q.939 0 1.526-.686.588-.7.588-1.82 0-1.106-.588-1.792-.587-.686-1.526-.686a1.93 1.93 0 0 0-1.092.336 2.36 2.36 0 0 0-.798.91 2.6 2.6 0 0 0-.294 1.232q0 .686.294 1.26t.798.91 1.092.336m-3.654-6.188h1.456v1.26q.378-.63 1.05-.938.673-.322 1.232-.322 1.023 0 1.806.476a3.13 3.13 0 0 1 1.232 1.302q.449.826.448 1.904 0 1.078-.448 1.932-.434.84-1.232 1.316-.783.462-1.806.462-.56 0-1.232-.322a2.5 2.5 0 0 1-1.05-.966v4.354h-1.456zm12.367 3.668 2.702 3.654h-1.806l-1.75-2.478-1.736 2.478h-1.806l2.66-3.654-2.716-3.668h1.82l1.778 2.548 1.764-2.548h1.82zM8.709 273.8v-3.392h1.376v8.352H8.709v-3.792H6.965V273.8zm-7.168-2.704h5.328v1.184h-3.92v1.68h3.36v1.136h-3.36v1.808a38 38 0 0 0 2.464-.096q1.024-.08 2.064-.272l.128 1.168q-1.136.224-2.24.304-1.104.064-2.912.064h-.912zm1.744 8.416h9.552v4.72h-1.456v-3.536H3.285zm8.16-9.408h1.392v8.752h-1.392zm10.4.928v1.072q0 1.136.704 2.192a6.5 6.5 0 0 0 1.888 1.808q1.185.736 2.512.976l-.656 1.2a8.2 8.2 0 0 1-3.12-1.44q-1.424-1.056-2.096-2.512-.687 1.472-2.112 2.528a7.9 7.9 0 0 1-3.104 1.424l-.64-1.2a6.8 6.8 0 0 0 2.48-.992q1.185-.752 1.888-1.808.72-1.056.72-2.176v-1.072zm-7.104 10.112h12.784v1.2H14.741zm25.04-9.872v1.184h-8.127v1.952h7.824v1.168h-7.824v2.048h8.272v1.184h-9.744v-7.536zm-11.215 9.968H41.35v1.2H28.566zm25.456-11.12v7.28h-1.488v-7.28zm-11.392 5.664q1.104 0 1.712-.016V272.2h-1.328v-1.152h7.568v1.152h-1.328v3.376a30 30 0 0 0 1.984-.192l.08 1.056q-3.311.528-8.528.528zm2.096 2.288h9.296v3.488h-7.824v1.36h8.304v1.168h-9.744v-3.6h7.808v-1.28h-7.84zm1.024-2.336a97 97 0 0 0 2.096-.064V272.2H45.75zm21.665-4.368v1.2h-8.16v4.24h8.303v1.184h-9.744v-6.624zm-11.2 9.776h12.784v1.2H56.215zM80.942 271v5.824h-6.624V271zm-5.696 12.064a9 9 0 0 0 2.288-.56q1.056-.432 1.68-1.024.64-.608.672-1.248h-4.08v-1.12h4.096V277.8h1.472v1.312h4.096v1.12h-4.08q.032.624.656 1.232.624.592 1.648 1.024 1.04.432 2.272.576l-.48 1.12q-1.632-.208-2.928-.88-1.296-.656-1.92-1.6-.656.96-1.968 1.616-1.296.656-2.944.864zm4.288-7.408v-3.488h-3.808v3.488zm4.176-5.536h1.456v8.064H83.71zm14.056 8.528h1.6v1.232h-1.6v3.136h-1.408v-3.136h-5.04l-.16-1.232 5.248-7.216h1.36zm-1.408 0v-4.832l-3.504 4.832zm8.739 3.248q.817 0 1.456-.592.64-.592.992-1.648.368-1.072.368-2.432t-.368-2.416q-.351-1.056-.992-1.648-.64-.592-1.456-.592-.831 0-1.472.592-.639.592-1.008 1.648-.352 1.056-.352 2.416t.352 2.432q.369 1.056 1.008 1.648.64.592 1.472.592m-4.24-4.672q0-1.712.544-3.056t1.504-2.096a3.46 3.46 0 0 1 2.192-.752q1.233 0 2.192.752t1.488 2.096q.544 1.344.544 3.056t-.544 3.056q-.528 1.344-1.488 2.096t-2.192.752a3.46 3.46 0 0 1-2.192-.752q-.96-.752-1.504-2.096-.543-1.344-.544-3.056m14.478 4.736q.752 0 1.328-.384.591-.384.912-1.056.336-.688.336-1.552t-.336-1.536a2.4 2.4 0 0 0-.912-1.04 2.34 2.34 0 0 0-1.328-.384q-.705 0-1.312.4a3 3 0 0 0-.96 1.088 3.1 3.1 0 0 0-.352 1.472q0 .816.352 1.504.368.688.96 1.088.607.4 1.312.4m-4.048-7.168h1.408v1.6a2.8 2.8 0 0 1 1.184-1.168q.783-.416 1.504-.416 1.152 0 2.048.528a3.64 3.64 0 0 1 1.392 1.472q.496.943.496 2.16 0 1.216-.496 2.176a3.75 3.75 0 0 1-1.392 1.488q-.896.528-2.048.528-.705 0-1.488-.432a3 3 0 0 1-1.2-1.168v5.12h-1.408zm13.53 4.144 3.088 4.128h-1.744l-2.128-2.944-2.096 2.944h-1.76l3.056-4.128-3.088-4.144h1.776l2.112 2.992 2.128-2.992h1.76zm19.385-8.848v14.16h-1.456v-14.16zm-11.088 6.032q0-1.488.464-2.608t1.28-1.728a3.05 3.05 0 0 1 1.872-.608q1.04 0 1.856.608.833.607 1.296 1.728t.464 2.608q0 1.488-.464 2.624-.464 1.12-1.296 1.728a3.03 3.03 0 0 1-1.856.608 3.05 3.05 0 0 1-1.872-.608q-.816-.607-1.28-1.728-.464-1.136-.464-2.624m1.408 0q0 1.104.272 1.936.288.816.784 1.264.512.448 1.152.448t1.136-.448q.512-.448.784-1.264.288-.832.288-1.936t-.288-1.92q-.272-.832-.784-1.264a1.65 1.65 0 0 0-1.136-.448q-.64 0-1.152.448-.496.432-.784 1.264-.272.816-.272 1.92m22.848-6v5.728h2.24v1.216h-2.24v7.168h-1.456V270.12zm-10.992 2.208h3.456v-2.032h1.488v2.032h3.376v1.184h-8.32zm.752 5.536q0-.944.448-1.68a3.1 3.1 0 0 1 1.232-1.168 3.8 3.8 0 0 1 1.776-.416q.993 0 1.776.416.801.416 1.248 1.168.448.737.448 1.68 0 .944-.448 1.696a3.1 3.1 0 0 1-1.248 1.152q-.783.416-1.776.416-.975 0-1.776-.416a3.13 3.13 0 0 1-1.232-1.152 3.26 3.26 0 0 1-.448-1.696m1.392 0q0 .912.576 1.488t1.488.576 1.488-.576q.592-.576.592-1.488t-.592-1.488q-.576-.576-1.488-.576-.896 0-1.488.576-.576.576-.576 1.488m16.321-6.752q1.088 0 1.952.432a3.27 3.27 0 0 1 1.344 1.2q.496.751.496 1.728 0 .976-.496 1.744-.48.768-1.344 1.2-.864.416-1.952.416-1.104 0-1.984-.416a3.4 3.4 0 0 1-1.36-1.2 3.2 3.2 0 0 1-.48-1.744q0-.976.48-1.728.495-.768 1.36-1.2.88-.432 1.984-.432m-4.496 8.88q2.688 0 4.896-.08a40 40 0 0 0 4.24-.4l.112 1.072a31 31 0 0 1-4.256.512q-2.16.112-4.816.112zm2.096-5.52q0 .928.672 1.52.687.576 1.728.576 1.023 0 1.696-.576.672-.592.672-1.52t-.672-1.504q-.673-.592-1.696-.592-1.041 0-1.728.576-.672.576-.672 1.52m7.92-4.384h1.472v14.16h-1.472zM22.767 297.064v1.184h-3.04v.384q0 1.392.912 2.576.912 1.168 2.48 1.696l-.752 1.152a5.7 5.7 0 0 1-2.016-1.2A5.55 5.55 0 0 1 19.023 301a5.8 5.8 0 0 1-1.36 2.016 6.1 6.1 0 0 1-2.112 1.296l-.784-1.136q1.615-.56 2.56-1.792.944-1.248.944-2.736v-.4h-3.072v-1.184zm-6.128 8.272h9.216v4.896h-1.472v-3.712h-7.744zm7.744-9.216h1.472v3.648h2.032v1.216h-2.032v3.616h-1.472zm17.056 7.36v1.184H28.687v-1.184zm-11.376-4.064q0-.88.608-1.52.624-.64 1.744-.976 1.136-.352 2.64-.352 1.52 0 2.64.352 1.136.336 1.744.976.624.64.624 1.52t-.624 1.52q-.608.64-1.744.976-1.12.336-2.64.336-1.505 0-2.64-.336-1.12-.336-1.744-.976a2.13 2.13 0 0 1-.608-1.52m.256 6.416h1.456v2.912h8.24v1.2h-9.696zm1.248-6.416q0 .768.944 1.216t2.544.448q1.632 0 2.56-.432.945-.448.944-1.232 0-.784-.944-1.216-.928-.432-2.56-.432-1.615 0-2.56.432-.928.432-.928 1.216m24.664.384v-3.696h1.456v8.128H56.23v-3.248h-2.944V299.8zm-4.768-.32q.24-.624.32-1.408h-4.768v-1.184h6.32q0 2.8-1.568 4.704-1.552 1.904-4.816 2.912l-.576-1.168q3.184-.928 4.496-2.768l-4.336.32-.208-1.184zm-2.928 5.472h9.152v5.088h-9.152zm7.712 3.92v-2.752h-6.288v2.752zm9.248-1.568v-3.056H61v-1.168h2.08v-4.48h-2.112v-1.184h10.528v1.184h-2.128v4.48h2.096v1.168h-4.512v3.056h5.696v1.2H59.863v-1.2zm2.416-4.224v-4.48h-3.36v4.48zm17.44-6.976v10.192h-1.455v-5.984h-3.888v-1.2h3.888v-3.008zm-10.863 1.04h1.472v5.696a44 44 0 0 0 3.072-.128 26 26 0 0 0 2.8-.416l.176 1.216a25 25 0 0 1-3.024.448 46 46 0 0 1-3.376.112h-1.12zm1.76 8.32h1.456v3.264h8v1.2h-9.456zm22.48-8.192v1.184H90.6v1.952h7.824v1.168H90.6v2.048h8.272v1.184h-9.744v-7.536zm-11.216 9.968h12.784v1.2H87.512zm26.592-5.328v1.184h-12.752v-1.184zm-11.248 2.304h9.616v3.408h-8.144v1.296h8.56v1.152h-9.984v-3.52h8.128v-1.216h-8.176zm.16-7.68h9.424v1.184h-7.968v1.984h8.112v1.152h-9.568zm24.161-.432v14.112h-1.392v-14.112zm-11.856 6.096q0-1.504.368-2.624.368-1.135 1.04-1.728a2.34 2.34 0 0 1 1.6-.608q1.28 0 2.08 1.152.816 1.152.928 3.136h1.616v-5.12h1.376v13.12h-1.376v-6.8h-1.616q-.096 2.064-.912 3.264-.8 1.184-2.096 1.184a2.34 2.34 0 0 1-1.6-.608q-.672-.607-1.04-1.728t-.368-2.64m1.328 0q0 1.696.448 2.656.447.944 1.232.944.8 0 1.248-.944.448-.96.448-2.656 0-1.68-.448-2.624-.449-.96-1.248-.96-.785 0-1.232.96-.448.944-.448 2.624m26.04-2.48v-3.6h1.456v8.416h-1.456v-3.616h-2.608v-1.2zm-10.176 3.472a5.4 5.4 0 0 0 1.84-1.072 5 5 0 0 0 1.232-1.6 4.36 4.36 0 0 0 .432-1.888v-.416h-3.056v-1.184h7.552v1.184h-3.024v.416q0 1.36.912 2.544.912 1.168 2.464 1.712l-.736 1.152a5.9 5.9 0 0 1-2.016-1.216 5.7 5.7 0 0 1-1.328-1.888 5.9 5.9 0 0 1-1.376 2.08 5.7 5.7 0 0 1-2.144 1.328zm2.176 2.08h9.456v4.96h-1.456v-3.76h-8zm14.736-2.24v-1.92q-.832-.336-1.28-.864a1.93 1.93 0 0 1-.432-1.232q0-1.248 1.344-1.952t3.648-.704q2.32 0 3.664.704t1.344 1.952q0 .688-.448 1.232-.432.528-1.264.864v1.92h3.088v1.152h-12.752v-1.152zm-1.568 4.656q0-1.2 1.28-1.856 1.296-.656 3.568-.656t3.552.656q1.296.656 1.296 1.856t-1.28 1.856q-1.28.672-3.568.672t-3.568-.672q-1.28-.656-1.28-1.856m1.36-8.672q0 .704.928 1.104t2.56.4 2.56-.4q.944-.4.944-1.104 0-.72-.928-1.12-.928-.416-2.576-.416-1.632 0-2.56.416-.928.4-.928 1.12m.112 8.672q0 .688.88 1.056.88.352 2.496.352 1.6 0 2.48-.352.88-.367.88-1.056 0-.672-.88-1.024-.88-.368-2.48-.368-1.616 0-2.496.368-.88.352-.88 1.024m5.232-4.656v-1.536q-.832.144-1.856.144-.992 0-1.84-.144v1.536zm156.719-31.344v3.696h1.904v-4.976h1.376v13.12h-1.376v-6.944h-1.904v3.904h-5.408v-8.8zm-1.36 7.664v-6.496h-2.688v6.496zm6.08-9.248h1.392v14.112H316zm14.8.016v10.256h-1.472V270.12zm-11.312 4.464q0-1.008.48-1.808a3.45 3.45 0 0 1 1.344-1.248 4 4 0 0 1 1.888-.448q1.04 0 1.888.448a3.33 3.33 0 0 1 1.328 1.248q.496.8.496 1.808 0 .992-.496 1.792a3.33 3.33 0 0 1-1.328 1.248 4 4 0 0 1-1.888.448 4 4 0 0 1-1.888-.448 3.45 3.45 0 0 1-1.344-1.248 3.4 3.4 0 0 1-.48-1.792m1.424 0q0 .976.656 1.6.657.608 1.632.608.993 0 1.648-.608.656-.624.656-1.6 0-.992-.656-1.616-.655-.624-1.648-.624-.991 0-1.648.624-.64.624-.64 1.616m.752 4.752h1.456v3.392h8.096v1.2h-9.552zm26.552-9.248v14.16h-1.456v-7.776h-3.104v4.272h-6.56v-9.52h1.456v3.6h3.664v-3.6h1.44v4.064h3.104v-5.2zm-6 9.456v-3.568h-3.664v3.568zm20.897-1.664v1.184h-12.736v-1.184zm-11.12 2.128h1.456v2.736h8.352v1.2h-9.808zm.048-9.392h9.536v1.136h-8.08v1.328h7.728v1.104h-7.728v1.376h8.176v1.12h-9.632zm13.248 14.352h-1.04l.528-3.296h1.488zm17.819-14.848v3.584h2.016v1.232h-2.016v3.68h-1.472v-8.496zm-10.448.88h1.456v2.128h3.696V271h1.44v6.704h-6.592zm1.216 8.336h9.232v4.896h-1.472v-3.712h-7.76zm3.936-2.784v-2.288h-3.696v2.288zm15.216-5.52v1.072q0 1.136.704 2.192a6.5 6.5 0 0 0 1.888 1.808q1.185.736 2.512.976l-.656 1.2a8.25 8.25 0 0 1-3.12-1.44q-1.424-1.056-2.096-2.512-.687 1.472-2.112 2.528a7.9 7.9 0 0 1-3.104 1.424l-.64-1.2a6.8 6.8 0 0 0 2.48-.992q1.185-.752 1.888-1.808.72-1.056.72-2.176v-1.072zm-7.104 10.112h12.784v1.2h-12.784zm14.913 3.824h-1.04l.528-3.296h1.488zm14.762-13.904v1.184h-1.36v3.808q1.056-.08 1.968-.192l.096 1.072a38 38 0 0 1-4 .416 99 99 0 0 1-4.464.096l-.176-1.2h1.712v-4h-1.344v-1.184zm-5.936 7.456h1.456v1.568h6.08v-1.568h1.44v5.52h-8.976zm1.12-2.304a88 88 0 0 0 2.064-.064v-3.904h-2.064zm6.416 6.64v-1.616h-6.08v1.616zm-.032-12.736h1.472v3.2h2.032v1.232h-2.032v3.36h-1.472zm8.161.624q1.392 0 2.384.736a2.97 2.97 0 0 1 1.2 1.936h2.752v-3.296h1.456v7.568h-1.456V274.6h-2.736a3.04 3.04 0 0 1-1.2 1.984q-.993.752-2.4.752-1.057 0-1.888-.416a3.4 3.4 0 0 1-1.312-1.168q-.464-.752-.464-1.712t.464-1.696q.48-.752 1.312-1.168.832-.432 1.888-.432m-2.256 3.296q0 .928.624 1.504.639.56 1.632.56t1.616-.576.624-1.488q0-.929-.624-1.488-.624-.576-1.616-.576-1.008 0-1.632.576-.624.56-.624 1.488m.928 4.336h1.472v1.664h6.192v-1.664h1.456v5.664H424zm7.664 4.496v-1.696h-6.192v1.696zm19.928-6.096v1.2H438.84v-1.2zm-11.248 4.88q0-1.216 1.28-1.888t3.568-.672q2.271 0 3.552.672 1.296.672 1.296 1.888t-1.296 1.888q-1.281.672-3.552.672-2.289 0-3.568-.672-1.28-.672-1.28-1.888m.096-11.024h9.568v1.2h-8.128v2.512h8.224v1.168h-9.664zm1.376 11.024q0 .689.88 1.056.879.368 2.496.368 1.6 0 2.48-.368.88-.367.88-1.056 0-.672-.88-1.04-.88-.384-2.48-.384t-2.496.384q-.88.368-.88 1.04m-148.785 15.152v4.944a44 44 0 0 0 3.04-.128 30 30 0 0 0 2.848-.4l.192 1.2a30 30 0 0 1-3.12.432 45 45 0 0 1-3.296.112h-1.12v-6.16zm-.576 7.44h4.592v3.344h-3.152v1.376a39 39 0 0 0 1.888-.064 16 16 0 0 0 1.536-.208l.128 1.104q-.897.176-1.744.224-.849.048-2.448.048h-.784v-3.536h3.152v-1.168h-3.168zm4.64-5.888h3.872v-2.256h1.456v7.472h-1.456v-4.016h-3.872zm.768 5.76h1.312v1.744h1.92v-1.744h1.328v5.952h-4.56zm3.232 4.816v-1.952h-1.92v1.952zm16.256-5.456v1.184h-12.752v-1.184zm-11.376-4.064q0-.88.608-1.52.624-.64 1.744-.976 1.135-.352 2.64-.352 1.52 0 2.64.352 1.136.336 1.744.976.624.64.624 1.52t-.624 1.52q-.608.64-1.744.976-1.12.336-2.64.336-1.505 0-2.64-.336-1.12-.336-1.744-.976a2.13 2.13 0 0 1-.608-1.52m.256 6.416h1.456v2.912h8.24v1.2h-9.696zm1.248-6.416q0 .768.944 1.216.943.448 2.544.448 1.632 0 2.56-.432.944-.448.944-1.232t-.944-1.216q-.928-.432-2.56-.432-1.616 0-2.56.432-.928.432-.928 1.216m21.592-2.112v1.232h3.072v-2.416h1.456v10.288h-1.456v-3.664h-3.072v1.248h-6.48v-6.688zm-1.424 5.504v-4.336h-3.632v4.336zm-3.168 2.672h1.456v3.248h8v1.2h-9.456zm7.664-3.92v-1.84h-3.072v1.84zm13.808-1.84v-3.6h1.456v8.416h-1.456v-3.616h-2.608v-1.2zm-10.176 3.472a5.4 5.4 0 0 0 1.84-1.072 5 5 0 0 0 1.232-1.6 4.36 4.36 0 0 0 .432-1.888v-.416h-3.056v-1.184h7.552v1.184h-3.024v.416q0 1.36.912 2.544.912 1.168 2.464 1.712l-.736 1.152a5.9 5.9 0 0 1-2.016-1.216 5.7 5.7 0 0 1-1.328-1.888 5.9 5.9 0 0 1-1.376 2.08 5.7 5.7 0 0 1-2.144 1.328zm2.176 2.08h9.456v4.96h-1.456v-3.76h-8zm16.209-8.16q1.088 0 1.952.432a3.27 3.27 0 0 1 1.344 1.2q.495.751.496 1.728 0 .976-.496 1.744-.48.768-1.344 1.2-.864.416-1.952.416-1.104 0-1.984-.416a3.4 3.4 0 0 1-1.36-1.2 3.2 3.2 0 0 1-.48-1.744q0-.976.48-1.728.495-.768 1.36-1.2.88-.432 1.984-.432m-4.496 8.88q2.688 0 4.896-.08a40 40 0 0 0 4.24-.4l.112 1.072a31 31 0 0 1-4.256.512q-2.16.112-4.816.112zm2.096-5.52q0 .928.672 1.52.687.576 1.728.576 1.024 0 1.696-.576.672-.592.672-1.52t-.672-1.504q-.673-.592-1.696-.592-1.041 0-1.728.576-.672.576-.672 1.52m7.92-4.384h1.472v14.16h-1.472zm17.463 3.712v-3.696h1.456v8.128h-1.456v-3.248h-2.944V299.8zm-4.768-.32q.24-.624.32-1.408h-4.768v-1.184h6.32q0 2.8-1.568 4.704-1.552 1.904-4.816 2.912l-.576-1.168q3.185-.928 4.496-2.768l-4.336.32-.208-1.184zm-2.928 5.472h9.152v5.088h-9.152zm7.712 3.92v-2.752h-6.288v2.752zm9.249-1.568v-3.056h-4.496v-1.168h2.08v-4.48h-2.112v-1.184h10.528v1.184h-2.128v4.48h2.096v1.168h-4.512v3.056h5.696v1.2h-12.784v-1.2zm2.416-4.224v-4.48h-3.36v4.48zm17.44-6.976v10.192h-1.456v-5.984h-3.888v-1.2h3.888v-3.008zm-10.864 1.04h1.472v5.696a44 44 0 0 0 3.072-.128 26 26 0 0 0 2.8-.416l.176 1.216a25 25 0 0 1-3.024.448 46 46 0 0 1-3.376.112h-1.12zm1.76 8.32h1.456v3.264h8v1.2h-9.456zm22.481-8.192v1.184h-8.128v1.952h7.824v1.168h-7.824v2.048h8.272v1.184h-9.744v-7.536zm-11.216 9.968h12.784v1.2h-12.784zm25.84-11.136v14.112h-1.392v-14.112zm-11.856 6.096q0-1.504.368-2.624.368-1.135 1.04-1.728a2.34 2.34 0 0 1 1.6-.608q1.28 0 2.08 1.152.816 1.152.928 3.136h1.616v-5.12h1.376v13.12h-1.376v-6.8h-1.616q-.096 2.064-.912 3.264-.8 1.184-2.096 1.184a2.34 2.34 0 0 1-1.6-.608q-.672-.607-1.04-1.728t-.368-2.64m1.328 0q0 1.696.448 2.656.448.944 1.232.944.8 0 1.248-.944.448-.96.448-2.656 0-1.68-.448-2.624-.448-.96-1.248-.96-.784 0-1.232.96-.448.944-.448 2.624m26.04-2.48v-3.6h1.456v8.416h-1.456v-3.616h-2.608v-1.2zm-10.176 3.472a5.4 5.4 0 0 0 1.84-1.072 5 5 0 0 0 1.232-1.6 4.36 4.36 0 0 0 .432-1.888v-.416h-3.056v-1.184h7.552v1.184h-3.024v.416q0 1.36.912 2.544.912 1.168 2.464 1.712l-.736 1.152a5.9 5.9 0 0 1-2.016-1.216 5.7 5.7 0 0 1-1.328-1.888 5.9 5.9 0 0 1-1.376 2.08 5.7 5.7 0 0 1-2.144 1.328zm2.176 2.08h9.456v4.96h-1.456v-3.76h-8zm14.736-2.24v-1.92q-.832-.336-1.28-.864a1.93 1.93 0 0 1-.432-1.232q0-1.248 1.344-1.952t3.648-.704q2.32 0 3.664.704t1.344 1.952q0 .688-.448 1.232-.432.528-1.264.864v1.92h3.088v1.152h-12.752v-1.152zm-1.568 4.656q0-1.2 1.28-1.856 1.296-.656 3.568-.656t3.552.656q1.296.656 1.296 1.856t-1.28 1.856q-1.28.672-3.568.672t-3.568-.672q-1.28-.656-1.28-1.856m1.36-8.672q0 .704.928 1.104t2.56.4 2.56-.4q.944-.4.944-1.104 0-.72-.928-1.12-.928-.416-2.576-.416-1.632 0-2.56.416-.928.4-.928 1.12m.112 8.672q0 .688.88 1.056.88.352 2.496.352 1.6 0 2.48-.352.88-.367.88-1.056 0-.672-.88-1.024-.88-.368-2.48-.368-1.615 0-2.496.368-.88.352-.88 1.024m5.232-4.656v-1.536q-.832.144-1.856.144-.992 0-1.84-.144v1.536zm166.605-28.208v-4.736h1.456v14.16h-1.456v-8.24h-3.136v-1.184zm-10.256 5.28q1.04-.512 1.856-1.52a7.7 7.7 0 0 0 1.296-2.288 7.6 7.6 0 0 0 .464-2.592v-2.416h1.456v2.416q0 1.28.448 2.528a7.6 7.6 0 0 0 1.264 2.192 5.7 5.7 0 0 0 1.856 1.44l-.864 1.168q-1.168-.592-2.064-1.728a8.8 8.8 0 0 1-1.36-2.624 8.8 8.8 0 0 1-1.376 2.752q-.895 1.216-2.064 1.84zm26.672 1.072v1.216h-12.784v-1.216zm-11.312-10.08h1.456v2.512h6.912v-2.512h1.456v7.376h-9.824zm8.368 6.208v-2.528h-6.912v2.528zm19.176-7.216v14.16h-1.456v-7.776h-3.104v4.272h-6.56v-9.52h1.456v3.6h3.664v-3.6h1.44v4.064h3.104v-5.2zm-6 9.456v-3.568h-3.664v3.568zm20.897-1.664v1.184h-12.736v-1.184zm-11.12 2.128h1.456v2.736h8.352v1.2h-9.808zm.048-9.392h9.536v1.136h-8.08v1.328h7.728v1.104h-7.728v1.376h8.176v1.12h-9.632zm13.248 14.352h-1.04l.528-3.296h1.488zm18.395-14.848v7.776h-1.456v-7.776zm-11.376 6.688q1.615-.496 2.56-1.584.943-1.104.96-2.464h-3.12v-1.168h3.12v-1.568h1.456v1.568h3.088v1.168h-3.104q.015 1.248.976 2.288.975 1.04 2.576 1.488l-.672 1.136a6.3 6.3 0 0 1-2.144-1.072 5.15 5.15 0 0 1-1.424-1.712 5.3 5.3 0 0 1-1.408 1.888 5.95 5.95 0 0 1-2.16 1.168zm2.224 1.712h1.456v1.552h6.256v-1.552h1.44v5.52h-9.152zm7.712 4.352v-1.648h-6.256v1.648zm19.976-6.096v1.2h-12.752v-1.2zm-11.248 4.88q0-1.216 1.28-1.888t3.568-.672q2.271 0 3.552.672 1.296.672 1.296 1.888t-1.296 1.888q-1.281.672-3.552.672-2.289 0-3.568-.672-1.28-.672-1.28-1.888m.096-11.024h9.568v1.2h-8.128v2.512h8.224v1.168h-9.664zm1.376 11.024q0 .689.88 1.056.879.368 2.496.368 1.6 0 2.48-.368.88-.367.88-1.056 0-.672-.88-1.04-.88-.384-2.48-.384t-2.496.384q-.88.368-.88 1.04M591.543 302.68v1.168h-5.664v1.28q1.952.112 3.024.784 1.088.656 1.088 1.76 0 1.2-1.296 1.872-1.281.672-3.552.672t-3.568-.672q-1.28-.672-1.28-1.872 0-1.12 1.072-1.776 1.088-.656 3.056-.768v-1.28h-5.632v-1.168zm-11.152-5.92h9.568v1.168h-8.128v2.352h8.224v1.184h-9.664zm1.376 10.912q0 .688.88 1.056.879.352 2.496.352t2.48-.352q.88-.368.88-1.056t-.88-1.056-2.48-.368-2.496.368q-.88.367-.88 1.056m22.016-10.72v1.12q0 1.248-.064 2.24a16 16 0 0 1-.288 2.224h1.952v1.2h-12.784v-1.2h9.376q.24-1.232.304-2.208t.064-2.208h-8.112v-1.168zm-9.52 8.272h1.456v3.52h8.464v1.184h-9.92zm20.52-7.92v2.4q0 1.248.448 2.464a7.3 7.3 0 0 0 1.248 2.176 5.7 5.7 0 0 0 1.824 1.472l-.88 1.152q-1.137-.592-2-1.712a8.3 8.3 0 0 1-1.328-2.56 9.3 9.3 0 0 1-1.392 2.736q-.897 1.2-2.08 1.808l-.88-1.184q1.04-.512 1.856-1.504a7.7 7.7 0 0 0 1.296-2.272 7.5 7.5 0 0 0 .464-2.576v-2.4zm4.592-1.184h1.472v5.632h2.256v1.232h-2.256v7.248h-1.472zm15.392-.016v3.504h2.032v1.216h-2.032v3.552h-1.472v-8.272zm-11.056 7.008q2.512-.672 3.968-1.952 1.456-1.296 1.648-2.992h-4.96V297h6.528q0 2.672-1.728 4.544-1.712 1.872-4.848 2.72zm1.84 1.888h9.216v5.232h-1.472v-4.048h-7.744zm22.225-5.568v-3.328h1.456v9.088h-1.456v-1.824h-2.272V302.2h2.272v-1.6h-2.24v-1.168zm-10.16-1.824h3.264v-1.616h1.472v1.616h3.136v1.152h-7.872zm.768 4.448q0-.768.4-1.36a2.7 2.7 0 0 1 1.136-.912q.735-.336 1.68-.336 1.44 0 2.32.72.896.72.896 1.888 0 .768-.416 1.376-.4.592-1.136.928-.72.32-1.664.32-.929 0-1.664-.32-.737-.336-1.152-.928a2.44 2.44 0 0 1-.4-1.376m1.376 0q0 .689.496 1.104.495.416 1.344.416.831 0 1.344-.416.512-.416.512-1.104t-.512-1.088q-.513-.416-1.344-.416-.849 0-1.344.416-.496.4-.496 1.088m.096 5.728q0-1.152 1.248-1.792 1.263-.64 3.488-.64 2.192 0 3.456.64t1.264 1.792q0 1.135-1.264 1.776-1.264.64-3.456.64-2.208 0-3.472-.64t-1.264-1.776m1.52 0q0 .624.848.96.847.336 2.368.336 1.503 0 2.336-.336.848-.336.848-.96t-.848-.96q-.833-.336-2.336-.336-1.536 0-2.384.336-.832.336-.832.96m16.416-11.424q2.368 0 3.68.624 1.328.624 1.328 1.792 0 1.183-1.328 1.824-1.312.624-3.68.624t-3.68-.624q-1.312-.64-1.312-1.824 0-1.168 1.312-1.792t3.68-.624m-6.368 5.744h12.752v1.168h-12.752zm1.52 2.272h9.616v3.28h-8.144v1.296h8.56v1.136h-9.984v-3.472h8.128v-1.136h-8.176zm1.36-5.6q0 .656.896 1.008.912.336 2.592.336 1.696 0 2.592-.336.912-.353.912-1.008 0-.64-.912-.992t-2.592-.352q-1.664 0-2.576.352t-.912.992m25.464-2.672v3.552h2.016v1.216h-2.016v3.552h-1.456v-8.32zm-11.088 7.008q2.351 0 3.68-.032v-.848q-1.233-.113-1.92-.576-.688-.48-.688-1.248 0-.864.896-1.344.895-.496 2.416-.496 1.535 0 2.432.496.896.48.896 1.344 0 .768-.688 1.248-.672.464-1.888.576v.784a48 48 0 0 0 3.712-.32l.096.912a36 36 0 0 1-4.128.448 105 105 0 0 1-4.656.096zm.352-5.984h3.328v-1.152h1.456v1.152h3.296v1.024h-8.08zm1.536 7.92h9.2v2.912h-7.744v1.104h8.272v1.024h-9.712v-3.056h7.76v-.992h-7.776zm.576-4.64q0 .432.512.672.511.24 1.408.24.911 0 1.424-.24.528-.24.528-.672 0-.416-.528-.656-.513-.256-1.424-.256-.88 0-1.408.256-.512.24-.512.656m14.544 2.624v-1.92q-.832-.336-1.28-.864a1.93 1.93 0 0 1-.432-1.232q0-1.248 1.344-1.952t3.648-.704q2.32 0 3.664.704t1.344 1.952q0 .688-.448 1.232-.432.528-1.264.864v1.92h3.088v1.152H682.6v-1.152zm-1.568 4.656q0-1.2 1.28-1.856 1.296-.656 3.568-.656t3.552.656q1.296.656 1.296 1.856t-1.28 1.856q-1.28.672-3.568.672t-3.568-.672q-1.28-.656-1.28-1.856m1.36-8.672q0 .704.928 1.104t2.56.4 2.56-.4q.944-.4.944-1.104 0-.72-.928-1.12-.928-.416-2.576-.416-1.632 0-2.56.416-.928.4-.928 1.12m.112 8.672q0 .688.88 1.056.88.352 2.496.352 1.6 0 2.48-.352.88-.367.88-1.056 0-.672-.88-1.024-.88-.368-2.48-.368-1.615 0-2.496.368-.88.352-.88 1.024m5.232-4.656v-1.536q-.832.144-1.856.144-.992 0-1.84-.144v1.536zm16.513-6.912v5.728h2.24v1.216h-2.24v7.168h-1.456V296.12zm-10.992 2.208h3.456v-2.032h1.488v2.032h3.376v1.184h-8.32zm.752 5.536q0-.944.448-1.68a3.1 3.1 0 0 1 1.232-1.168 3.8 3.8 0 0 1 1.776-.416q.991 0 1.776.416.8.416 1.248 1.168.447.737.448 1.68 0 .944-.448 1.696a3.1 3.1 0 0 1-1.248 1.152q-.784.416-1.776.416a3.8 3.8 0 0 1-1.776-.416 3.1 3.1 0 0 1-1.232-1.152 3.25 3.25 0 0 1-.448-1.696m1.392 0q0 .912.576 1.488t1.488.576 1.488-.576q.592-.576.592-1.488t-.592-1.488q-.576-.576-1.488-.576-.897 0-1.488.576-.576.576-.576 1.488m14.896-7.248v3.632h8.192v1.184h-9.632v-4.816zm-3.136 6.608h12.784v1.184h-12.784zm1.6 2.528h1.44v2.96h8.368v1.184h-9.808zm25.944-4.192v-1.76h-3.408q-.672 1.68-2.208 2.88t-3.84 1.872l-.576-1.152q2.511-.72 3.936-2.016 1.423-1.312 1.6-3.056h-4.8v-1.184h6.384a7.6 7.6 0 0 1-.144 1.488h3.056v-2.528h1.456v8.384h-1.456v-1.744h-3.552v-1.184zm-7.856 5.856q0-1.296 1.264-2.032 1.263-.736 3.44-.736 2.144 0 3.408.736t1.264 2.032q0 .832-.576 1.456t-1.632.944q-1.04.336-2.464.336-1.425 0-2.496-.336-1.056-.32-1.632-.944a2.08 2.08 0 0 1-.576-1.456m1.456 0q0 .736.864 1.168.88.416 2.384.416 1.503 0 2.368-.416.864-.432.864-1.168 0-.768-.864-1.184-.849-.432-2.368-.432-1.52 0-2.384.432-.864.416-.864 1.184m22.816-3.264v1.2h-5.712v4.88h-1.44v-4.88h-5.632v-1.2zm-11.408-4.384q0-.944.624-1.632.624-.704 1.744-1.072 1.136-.384 2.608-.384 1.488 0 2.608.384 1.12.368 1.744 1.072a2.35 2.35 0 0 1 .624 1.632q0 .944-.624 1.648t-1.76 1.088q-1.12.368-2.592.368t-2.608-.368q-1.12-.384-1.744-1.088a2.4 2.4 0 0 1-.624-1.648m1.504 0q0 .896.944 1.424.96.528 2.528.528 1.584 0 2.528-.528.96-.528.96-1.424 0-.88-.96-1.408-.944-.528-2.528-.528-1.568 0-2.528.528-.944.528-.944 1.408M368.172 150.964q.882 0 1.428-.504.56-.518.56-1.33t-.56-1.316q-.546-.518-1.428-.518-.896 0-1.456.518-.56.504-.56 1.316t.56 1.33q.56.504 1.456.504m-3.472-1.806q0-.686.476-1.372a3.46 3.46 0 0 1 1.218-1.106 3.5 3.5 0 0 1-1.008-1.036q-.392-.616-.392-1.162 0-.812.406-1.442a2.7 2.7 0 0 1 1.12-.994q.728-.364 1.652-.364t1.638.364q.728.35 1.134.994.406.63.406 1.442 0 .56-.392 1.176a3.4 3.4 0 0 1-1.008 1.022q.742.42 1.204 1.106t.462 1.372q0 .882-.434 1.582a3 3 0 0 1-1.218 1.078q-.784.378-1.792.378t-1.806-.378a3.1 3.1 0 0 1-1.232-1.078 2.94 2.94 0 0 1-.434-1.582m1.75-4.676q0 .7.476 1.134t1.246.434q.756 0 1.232-.434a1.47 1.47 0 0 0 .49-1.134q0-.686-.49-1.12-.476-.448-1.232-.448-.77 0-1.246.434t-.476 1.134m10.483 6.482q.938 0 1.526-.686.588-.7.588-1.82 0-1.106-.588-1.792t-1.526-.686a1.93 1.93 0 0 0-1.092.336 2.36 2.36 0 0 0-.798.91 2.6 2.6 0 0 0-.294 1.232q0 .686.294 1.26t.798.91 1.092.336m-3.654-6.188h1.456v1.26q.378-.63 1.05-.938.672-.322 1.232-.322 1.022 0 1.806.476.798.462 1.232 1.302.448.826.448 1.904t-.448 1.932q-.434.84-1.232 1.316-.784.462-1.806.462-.56 0-1.232-.322a2.5 2.5 0 0 1-1.05-.966v4.354h-1.456zm12.367 3.668 2.702 3.654h-1.806l-1.75-2.478-1.736 2.478h-1.806l2.66-3.654-2.716-3.668h1.82l1.778 2.548 1.764-2.548h1.82zm270.426-.322h1.302v1.274h-1.302v2.646h-1.442v-2.646h-4.396l-.14-1.274 4.592-6.272h1.386zm-1.442 0v-3.85l-2.8 3.85zm7.8 2.73q.687 0 1.218-.49.546-.49.84-1.372.294-.896.294-2.044 0-1.162-.294-2.044t-.826-1.372a1.76 1.76 0 0 0-1.232-.49q-.7 0-1.246.49-.532.49-.826 1.372t-.294 2.044q0 1.148.294 2.044.294.882.826 1.372.547.49 1.246.49m-3.822-3.906q0-1.498.49-2.674.49-1.19 1.358-1.848a3.14 3.14 0 0 1 1.974-.672q1.107 0 1.974.672.869.658 1.344 1.848.49 1.176.49 2.674 0 1.499-.49 2.688-.476 1.176-1.344 1.834a3.18 3.18 0 0 1-1.974.658 3.18 3.18 0 0 1-1.974-.658q-.867-.658-1.358-1.834-.49-1.19-.49-2.688m12.931 4.018q.938 0 1.526-.686.588-.7.588-1.82 0-1.106-.588-1.792t-1.526-.686a1.93 1.93 0 0 0-1.092.336 2.36 2.36 0 0 0-.798.91 2.6 2.6 0 0 0-.294 1.232q0 .686.294 1.26t.798.91 1.092.336m-3.654-6.188h1.456v1.26q.378-.63 1.05-.938.671-.322 1.232-.322 1.022 0 1.806.476.798.462 1.232 1.302.447.826.448 1.904 0 1.078-.448 1.932-.435.84-1.232 1.316-.785.462-1.806.462-.56 0-1.232-.322a2.5 2.5 0 0 1-1.05-.966v4.354h-1.456zm12.367 3.668 2.702 3.654h-1.806l-1.75-2.478-1.736 2.478h-1.806l2.66-3.654-2.716-3.668h1.82l1.778 2.548 1.764-2.548h1.82z"/><rect width="33" height="29" x="70.5" y=".5" fill="#fff" rx="14.5"/><rect width="33" height="29" x="70.5" y=".5" stroke="#6B6B6B" rx="14.5"/><path fill="#121212" d="M84.903 17.186q.447.855 1.134 1.316.685.462 1.414.462.98 0 1.568-.448.602-.462.602-1.204 0-.504-.308-.826a2.2 2.2 0 0 0-.756-.546q-.448-.21-1.246-.49a13 13 0 0 1-1.638-.672 3.14 3.14 0 0 1-1.078-.91q-.448-.588-.448-1.512 0-.812.448-1.414.447-.615 1.218-.938a4.5 4.5 0 0 1 1.736-.322q1.092 0 2.016.602.925.602 1.33 1.736l-1.288.476q-.252-.756-.84-1.148a2.07 2.07 0 0 0-1.218-.406q-.84 0-1.4.392-.546.392-.546 1.036 0 .49.308.826t.756.56q.447.21 1.26.504 1.008.364 1.638.686t1.064.91q.447.574.448 1.47 0 .854-.462 1.512-.463.659-1.288 1.022-.825.364-1.89.364a3.9 3.9 0 0 1-2.128-.616q-.967-.63-1.624-1.75z"/><rect width="36" height="29" x="359.5" y=".5" fill="#fff" rx="14.5"/><rect width="36" height="29" x="359.5" y=".5" stroke="#6B6B6B" rx="14.5"/><path fill="#121212" d="M373.656 12.328v7.77H372.2V9.794h1.568l3.752 6.076 3.752-6.076h1.568v10.304h-1.456v-7.784l-3.864 6.048z"/><rect width="46" height="29" x="643.5" y=".5" fill="#fff" rx="14.5"/><rect width="46" height="29" x="643.5" y=".5" stroke="#6B6B6B" rx="14.5"/><path fill="#121212" d="M663.231 11.054h-5.614v3.248h4.718v1.26h-4.718v4.536h-1.456V9.794h7.07zm2.475 5.908q0 .882.49 1.442.49.546 1.274.546.853-.014 1.386-.546.531-.532.518-1.4v-4.228h1.456v7.322h-1.456v-1.064q-.322.517-.91.826-.575.308-1.19.308-.868 0-1.554-.392a2.9 2.9 0 0 1-1.078-1.12q-.392-.714-.392-1.624v-4.256h1.456zm8.237-7.168v10.304h-1.456V9.794zm3.142 0v10.304h-1.456V9.794z"/></svg>