<svg width="542" height="316" viewBox="0 0 542 316" fill="none" xmlns="http://www.w3.org/2000/svg">
<rect x="47" y="0.5" width="67" height="29" rx="14.5" fill="white"/>
<rect x="47" y="0.5" width="67" height="29" rx="14.5" stroke="#6B6B6B"/>
<path d="M59.7223 9.794H63.8523C64.3937 9.794 64.879 9.91533 65.3083 10.158C65.7377 10.3913 66.0737 10.7227 66.3163 11.152C66.559 11.572 66.6803 12.0527 66.6803 12.594C66.6803 12.93 66.5963 13.28 66.4283 13.644C66.2603 13.9987 66.0363 14.3067 65.7563 14.568C65.7843 14.5867 65.817 14.61 65.8543 14.638C65.901 14.6567 65.9477 14.6847 65.9943 14.722C66.3863 14.974 66.7037 15.3287 66.9463 15.786C67.1983 16.2433 67.3243 16.7053 67.3243 17.172C67.3243 17.7413 67.203 18.25 66.9603 18.698C66.727 19.1367 66.3957 19.482 65.9663 19.734C65.537 19.9767 65.047 20.098 64.4963 20.098H59.7223V9.794ZM64.3423 18.838C64.7997 18.838 65.1683 18.6887 65.4483 18.39C65.7377 18.082 65.8823 17.6807 65.8823 17.186C65.8823 16.6633 65.7377 16.2387 65.4483 15.912C65.1683 15.5853 64.7997 15.422 64.3423 15.422H61.1783V18.838H64.3423ZM63.8943 14.148C64.2957 14.1387 64.6223 13.9987 64.8743 13.728C65.1263 13.448 65.2523 13.0933 65.2523 12.664C65.2523 12.188 65.1123 11.8007 64.8323 11.502C64.5523 11.2033 64.1837 11.054 63.7263 11.054H61.1783V14.148H63.8943ZM72.0569 18.936C72.6822 18.936 73.1862 18.7073 73.5689 18.25C73.9516 17.7927 74.1429 17.1953 74.1429 16.458C74.1429 15.7207 73.9516 15.1233 73.5689 14.666C73.1862 14.2087 72.6822 13.98 72.0569 13.98C71.4409 13.98 70.9416 14.2087 70.5589 14.666C70.1762 15.1233 69.9849 15.7207 69.9849 16.458C69.9849 17.1953 70.1762 17.7927 70.5589 18.25C70.9416 18.7073 71.4409 18.936 72.0569 18.936ZM68.5289 16.458C68.5289 15.7393 68.6782 15.1 68.9769 14.54C69.2756 13.98 69.6909 13.5413 70.2229 13.224C70.7642 12.9067 71.3756 12.748 72.0569 12.748C72.7476 12.748 73.3589 12.9067 73.8909 13.224C74.4322 13.5413 74.8522 13.98 75.1509 14.54C75.4496 15.1 75.5989 15.7393 75.5989 16.458C75.5989 17.1673 75.4496 17.802 75.1509 18.362C74.8522 18.922 74.4322 19.3607 73.8909 19.678C73.3589 19.9953 72.7476 20.154 72.0569 20.154C71.3756 20.154 70.7642 19.9953 70.2229 19.678C69.6909 19.3607 69.2756 18.922 68.9769 18.362C68.6782 17.802 68.5289 17.1673 68.5289 16.458ZM78.3534 14.162C78.5494 13.742 78.8621 13.4013 79.2914 13.14C79.7301 12.8693 80.1967 12.734 80.6914 12.734V14.064C80.2527 14.064 79.8561 14.1807 79.5014 14.414C79.1467 14.6473 78.8667 14.9507 78.6614 15.324C78.4561 15.688 78.3534 16.0613 78.3534 16.444V20.098H76.8974V12.776H78.3534V14.162ZM84.7915 20.168C84.1195 20.168 83.5175 20.014 82.9855 19.706C82.4629 19.3887 82.0522 18.95 81.7535 18.39C81.4549 17.83 81.3055 17.1907 81.3055 16.472C81.3055 15.7533 81.4502 15.114 81.7395 14.554C82.0382 13.9847 82.4535 13.546 82.9855 13.238C83.5175 12.9207 84.1195 12.762 84.7915 12.762C85.1835 12.762 85.5942 12.8647 86.0235 13.07C86.4529 13.266 86.8122 13.5927 87.1015 14.05V9.794H88.5575V20.112H87.1015V18.894C86.8029 19.3327 86.4389 19.6547 86.0095 19.86C85.5802 20.0653 85.1742 20.168 84.7915 20.168ZM82.7615 16.486C82.7615 17.2327 82.9575 17.8393 83.3495 18.306C83.7509 18.7633 84.2689 18.992 84.9035 18.992C85.2955 18.992 85.6595 18.88 85.9955 18.656C86.3315 18.432 86.5975 18.1287 86.7935 17.746C86.9989 17.3633 87.1015 16.9433 87.1015 16.486C87.1015 16.038 86.9989 15.6227 86.7935 15.24C86.5975 14.8573 86.3315 14.554 85.9955 14.33C85.6595 14.106 85.2955 13.994 84.9035 13.994C84.2689 13.994 83.7509 14.2273 83.3495 14.694C82.9575 15.1513 82.7615 15.7487 82.7615 16.486ZM95.4169 15.898C95.3515 15.3567 95.1602 14.904 94.8429 14.54C94.5255 14.1667 94.0682 13.98 93.4709 13.98C92.9295 13.98 92.4582 14.1667 92.0569 14.54C91.6649 14.904 91.4269 15.3613 91.3429 15.912L95.4169 15.898ZM89.9429 16.458C89.9429 15.7393 90.0922 15.1 90.3909 14.54C90.6895 13.98 91.1002 13.546 91.6229 13.238C92.1549 12.9207 92.7615 12.762 93.4429 12.762C94.4042 12.762 95.1089 12.9953 95.5569 13.462C96.0142 13.9287 96.3222 14.358 96.4809 14.75C96.6955 15.2727 96.8029 15.8513 96.8029 16.486C96.8029 16.6167 96.7982 16.7333 96.7889 16.836C96.7795 16.9293 96.7749 16.99 96.7749 17.018H91.3429C91.4269 17.578 91.6695 18.0353 92.0709 18.39C92.4722 18.7447 92.9342 18.922 93.4569 18.922C93.8769 18.922 94.2222 18.8567 94.4929 18.726C94.7729 18.5953 94.9642 18.474 95.0669 18.362C95.1695 18.25 95.2675 18.124 95.3609 17.984L96.5369 18.516C96.3129 18.9733 95.9395 19.3607 95.4169 19.678C94.8942 19.986 94.2362 20.14 93.4429 20.14C92.7615 20.14 92.1549 19.986 91.6229 19.678C91.1002 19.3607 90.6895 18.922 90.3909 18.362C90.0922 17.802 89.9429 17.1673 89.9429 16.458ZM99.6033 14.162C99.7993 13.742 100.112 13.4013 100.541 13.14C100.98 12.8693 101.447 12.734 101.941 12.734V14.064C101.503 14.064 101.106 14.1807 100.751 14.414C100.397 14.6473 100.117 14.9507 99.9113 15.324C99.706 15.688 99.6033 16.0613 99.6033 16.444V20.098H98.1473V12.776H99.6033V14.162Z" fill="#121212"/>
<rect x="414.5" y="0.5" width="52" height="29" rx="14.5" fill="white"/>
<rect x="414.5" y="0.5" width="52" height="29" rx="14.5" stroke="#6B6B6B"/>
<path d="M429.039 18.838H434.149V20.098H427.583V9.794H429.039V18.838ZM437.458 12.818V20.098H436.002V12.818H437.458ZM435.904 10.438C435.904 10.1953 435.979 9.99933 436.128 9.85C436.287 9.69133 436.487 9.612 436.73 9.612C436.973 9.612 437.169 9.69133 437.318 9.85C437.477 9.99933 437.556 10.1953 437.556 10.438C437.556 10.6713 437.477 10.8673 437.318 11.026C437.169 11.1847 436.973 11.264 436.73 11.264C436.487 11.264 436.287 11.1893 436.128 11.04C435.979 10.8813 435.904 10.6807 435.904 10.438ZM444.497 16.038C444.497 15.422 444.338 14.932 444.021 14.568C443.713 14.1947 443.288 14.008 442.747 14.008C442.383 14.008 442.052 14.1013 441.753 14.288C441.464 14.4653 441.235 14.708 441.067 15.016C440.908 15.324 440.829 15.6647 440.829 16.038V20.098H439.373V12.776H440.829V14.008C441.053 13.6533 441.361 13.364 441.753 13.14C442.145 12.9067 442.542 12.79 442.943 12.79C443.447 12.79 443.928 12.9067 444.385 13.14C444.842 13.364 445.216 13.714 445.505 14.19C445.804 14.666 445.953 15.2633 445.953 15.982V20.098H444.497V16.038ZM452.808 15.898C452.743 15.3567 452.551 14.904 452.234 14.54C451.917 14.1667 451.459 13.98 450.862 13.98C450.321 13.98 449.849 14.1667 449.448 14.54C449.056 14.904 448.818 15.3613 448.734 15.912L452.808 15.898ZM447.334 16.458C447.334 15.7393 447.483 15.1 447.782 14.54C448.081 13.98 448.491 13.546 449.014 13.238C449.546 12.9207 450.153 12.762 450.834 12.762C451.795 12.762 452.5 12.9953 452.948 13.462C453.405 13.9287 453.713 14.358 453.872 14.75C454.087 15.2727 454.194 15.8513 454.194 16.486C454.194 16.6167 454.189 16.7333 454.18 16.836C454.171 16.9293 454.166 16.99 454.166 17.018H448.734C448.818 17.578 449.061 18.0353 449.462 18.39C449.863 18.7447 450.325 18.922 450.848 18.922C451.268 18.922 451.613 18.8567 451.884 18.726C452.164 18.5953 452.355 18.474 452.458 18.362C452.561 18.25 452.659 18.124 452.752 17.984L453.928 18.516C453.704 18.9733 453.331 19.3607 452.808 19.678C452.285 19.986 451.627 20.14 450.834 20.14C450.153 20.14 449.546 19.986 449.014 19.678C448.491 19.3607 448.081 18.922 447.782 18.362C447.483 17.802 447.334 17.1673 447.334 16.458Z" fill="#121212"/>
<path d="M541.424 147.424C541.659 147.19 541.659 146.81 541.424 146.576L537.606 142.757C537.372 142.523 536.992 142.523 536.757 142.757C536.523 142.992 536.523 143.372 536.757 143.606L540.151 147L536.757 150.394C536.523 150.628 536.523 151.008 536.757 151.243C536.992 151.477 537.372 151.477 537.606 151.243L541.424 147.424ZM341 147.6L541 147.6L541 146.4L341 146.4L341 147.6Z" fill="#6B6B6B"/>
<path d="M0.5 74C0.5 69.8579 3.85786 66.5 8 66.5H154C158.142 66.5 161.5 69.8579 161.5 74V220C161.5 224.142 158.142 227.5 154 227.5H8C3.85786 227.5 0.5 224.142 0.5 220V74Z" fill="white" stroke="#C2C2C2"/>
<path d="M74.6962 151.042L73.2402 151.028V142.418L71.4622 143.426L70.8462 142.208L73.2542 140.864H74.6962V151.042ZM80.6887 149.964C81.314 149.964 81.8227 149.735 82.2147 149.278C82.6067 148.811 82.8027 148.205 82.8027 147.458C82.8027 146.721 82.6067 146.123 82.2147 145.666C81.8227 145.209 81.314 144.98 80.6887 144.98C80.2967 144.98 79.9327 145.092 79.5967 145.316C79.2607 145.54 78.9947 145.843 78.7987 146.226C78.6027 146.599 78.5047 147.01 78.5047 147.458C78.5047 147.915 78.6027 148.335 78.7987 148.718C78.9947 149.101 79.2607 149.404 79.5967 149.628C79.9327 149.852 80.2967 149.964 80.6887 149.964ZM77.0347 143.776H78.4907V145.036C78.7427 144.616 79.0927 144.303 79.5407 144.098C79.9887 143.883 80.3994 143.776 80.7727 143.776C81.454 143.776 82.056 143.935 82.5787 144.252C83.1107 144.56 83.5214 144.994 83.8107 145.554C84.1094 146.105 84.2587 146.739 84.2587 147.458C84.2587 148.177 84.1094 148.821 83.8107 149.39C83.5214 149.95 83.1107 150.389 82.5787 150.706C82.056 151.014 81.454 151.168 80.7727 151.168C80.3994 151.168 79.9887 151.061 79.5407 150.846C79.0927 150.622 78.7427 150.3 78.4907 149.88V154.234H77.0347V143.776ZM89.4016 147.444L92.1036 151.098H90.2976L88.5476 148.62L86.8116 151.098H85.0056L87.6656 147.444L84.9496 143.776H86.7696L88.5476 146.324L90.3116 143.776H92.1316L89.4016 147.444Z" fill="#6B6B6B"/>
<path d="M428.875 180.042L427.419 180.028V171.418L425.641 172.426L425.025 171.208L427.433 169.864H428.875V180.042ZM431.718 178.6C431.97 178.6 432.175 178.679 432.334 178.838C432.492 178.997 432.572 179.202 432.572 179.454C432.572 179.715 432.492 179.925 432.334 180.084C432.175 180.243 431.97 180.322 431.718 180.322C431.466 180.322 431.256 180.243 431.088 180.084C430.929 179.925 430.85 179.715 430.85 179.454C430.85 179.202 430.929 178.997 431.088 178.838C431.256 178.679 431.466 178.6 431.718 178.6ZM434.747 178.768C434.877 178.647 435.353 178.208 436.175 177.452C436.931 176.771 437.533 176.211 437.981 175.772C438.438 175.324 438.821 174.867 439.129 174.4C439.437 173.924 439.591 173.476 439.591 173.056C439.591 172.477 439.423 172.006 439.087 171.642C438.76 171.269 438.335 171.082 437.813 171.082C437.411 171.082 437.024 171.213 436.651 171.474C436.277 171.735 436.002 172.071 435.825 172.482L434.551 171.922C434.831 171.287 435.274 170.769 435.881 170.368C436.497 169.957 437.141 169.752 437.813 169.752C438.438 169.752 438.993 169.892 439.479 170.172C439.973 170.452 440.356 170.844 440.627 171.348C440.907 171.843 441.047 172.412 441.047 173.056C441.047 173.691 440.855 174.321 440.473 174.946C440.099 175.571 439.642 176.15 439.101 176.682C438.569 177.214 437.887 177.835 437.057 178.544L436.805 178.768H441.201V180.042H434.887L434.747 178.768ZM446.51 178.964C447.135 178.964 447.644 178.735 448.036 178.278C448.428 177.811 448.624 177.205 448.624 176.458C448.624 175.721 448.428 175.123 448.036 174.666C447.644 174.209 447.135 173.98 446.51 173.98C446.118 173.98 445.754 174.092 445.418 174.316C445.082 174.54 444.816 174.843 444.62 175.226C444.424 175.599 444.326 176.01 444.326 176.458C444.326 176.915 444.424 177.335 444.62 177.718C444.816 178.101 445.082 178.404 445.418 178.628C445.754 178.852 446.118 178.964 446.51 178.964ZM442.856 172.776H444.312V174.036C444.564 173.616 444.914 173.303 445.362 173.098C445.81 172.883 446.22 172.776 446.594 172.776C447.275 172.776 447.877 172.935 448.4 173.252C448.932 173.56 449.342 173.994 449.632 174.554C449.93 175.105 450.08 175.739 450.08 176.458C450.08 177.177 449.93 177.821 449.632 178.39C449.342 178.95 448.932 179.389 448.4 179.706C447.877 180.014 447.275 180.168 446.594 180.168C446.22 180.168 445.81 180.061 445.362 179.846C444.914 179.622 444.564 179.3 444.312 178.88V183.234H442.856V172.776ZM455.223 176.444L457.925 180.098H456.119L454.369 177.62L452.633 180.098H450.827L453.487 176.444L450.771 172.776H452.591L454.369 175.324L456.133 172.776H457.953L455.223 176.444Z" fill="#6B6B6B"/>
<path d="M28.2306 273.8V270.104H29.6866V278.232H28.2306V274.984H25.2866V273.8H28.2306ZM23.4626 273.48C23.6226 273.064 23.7292 272.595 23.7826 272.072H19.0146V270.888H25.3346C25.3346 272.755 24.8119 274.323 23.7666 275.592C22.7319 276.861 21.1266 277.832 18.9506 278.504L18.3746 277.336C20.4972 276.717 21.9959 275.795 22.8706 274.568L18.5346 274.888L18.3266 273.704L23.4626 273.48ZM20.5346 278.952H29.6866V284.04H20.5346V278.952ZM28.2466 282.872V280.12H21.9586V282.872H28.2466ZM37.4949 281.304V278.248H32.9989V277.08H35.0789V272.6H32.9669V271.416H43.4949V272.6H41.3669V277.08H43.4629V278.248H38.9509V281.304H44.6469V282.504H31.8629V281.304H37.4949ZM39.9109 277.08V272.6H36.5509V277.08H39.9109ZM57.3513 270.104V280.296H55.8953V274.312H52.0073V273.112H55.8953V270.104H57.3513ZM46.4873 271.144H47.9593V276.84C49.0793 276.829 50.1033 276.787 51.0313 276.712C51.9593 276.627 52.8926 276.488 53.8313 276.296L54.0073 277.512C52.994 277.725 51.986 277.875 50.9833 277.96C49.9806 278.035 48.8553 278.072 47.6073 278.072H46.4873V271.144ZM48.2473 279.464H49.7033V282.728H57.7033V283.928H48.2473V279.464ZM70.7277 271.272V272.456H62.5997V274.408H70.4237V275.576H62.5997V277.624H70.8717V278.808H61.1277V271.272H70.7277ZM59.5117 281.24H72.2957V282.44H59.5117V281.24ZM77.8961 271.112C78.6214 271.112 79.2721 271.256 79.8481 271.544C80.4241 271.832 80.8721 272.232 81.1921 272.744C81.5227 273.245 81.6881 273.821 81.6881 274.472C81.6881 275.123 81.5227 275.704 81.1921 276.216C80.8721 276.728 80.4241 277.128 79.8481 277.416C79.2721 277.693 78.6214 277.832 77.8961 277.832C77.1601 277.832 76.4987 277.693 75.9121 277.416C75.3361 277.128 74.8827 276.728 74.5521 276.216C74.2321 275.704 74.0721 275.123 74.0721 274.472C74.0721 273.821 74.2321 273.245 74.5521 272.744C74.8827 272.232 75.3361 271.832 75.9121 271.544C76.4987 271.256 77.1601 271.112 77.8961 271.112ZM73.4001 279.992C75.1921 279.992 76.8241 279.965 78.2961 279.912C79.7787 279.848 81.1921 279.715 82.5361 279.512L82.6481 280.584C81.2614 280.851 79.8427 281.021 78.3921 281.096C76.9521 281.171 75.3467 281.208 73.5761 281.208L73.4001 279.992ZM75.4961 274.472C75.4961 275.091 75.7201 275.597 76.1681 275.992C76.6267 276.376 77.2027 276.568 77.8961 276.568C78.5787 276.568 79.1441 276.376 79.5921 275.992C80.0401 275.597 80.2641 275.091 80.2641 274.472C80.2641 273.853 80.0401 273.352 79.5921 272.968C79.1441 272.573 78.5787 272.376 77.8961 272.376C77.2027 272.376 76.6267 272.568 76.1681 272.952C75.7201 273.336 75.4961 273.843 75.4961 274.472ZM83.4161 270.088H84.8881V284.248H83.4161V270.088ZM98.4479 275.416V270.424H99.8239V283.512H98.4479V276.6H96.5119V275.416H98.4479ZM91.1839 271.768H96.4159V272.952H92.5759V275.608H95.7919V276.744H92.5759V279.72C93.5999 279.709 94.4373 279.683 95.0879 279.64C95.7386 279.597 96.3999 279.507 97.0719 279.368L97.1999 280.536C96.4426 280.685 95.6959 280.787 94.9599 280.84C94.2346 280.883 93.2853 280.904 92.1119 280.904H91.1839V271.768ZM101.312 270.104H102.704V284.216H101.312V270.104ZM115.536 270.92V272.12H107.712V275.32H115.712V276.504H106.24V270.92H115.536ZM104.512 278.216H117.296V279.432H111.584V284.2H110.144V279.432H104.512V278.216ZM129.953 270.088V284.248H128.481V270.088H129.953ZM119.105 271.4H125.665V276.536H120.609V279.656C121.857 279.645 122.998 279.608 124.033 279.544C125.067 279.469 126.134 279.341 127.233 279.16L127.393 280.344C126.23 280.547 125.105 280.685 124.017 280.76C122.929 280.824 121.697 280.856 120.321 280.856H119.137V275.352H124.193V272.584H119.105V271.4ZM144.177 270.104V284.216H142.785V270.104H144.177ZM132.321 276.2C132.321 275.197 132.444 274.323 132.689 273.576C132.934 272.819 133.281 272.243 133.729 271.848C134.188 271.443 134.721 271.24 135.329 271.24C136.182 271.24 136.876 271.624 137.409 272.392C137.953 273.16 138.262 274.205 138.337 275.528H139.953V270.408H141.329V283.528H139.953V276.728H138.337C138.273 278.104 137.969 279.192 137.425 279.992C136.892 280.781 136.193 281.176 135.329 281.176C134.721 281.176 134.188 280.973 133.729 280.568C133.281 280.163 132.934 279.587 132.689 278.84C132.444 278.093 132.321 277.213 132.321 276.2ZM133.649 276.2C133.649 277.331 133.798 278.216 134.097 278.856C134.396 279.485 134.806 279.8 135.329 279.8C135.862 279.8 136.278 279.485 136.577 278.856C136.876 278.216 137.025 277.331 137.025 276.2C137.025 275.08 136.876 274.205 136.577 273.576C136.278 272.936 135.862 272.616 135.329 272.616C134.806 272.616 134.396 272.936 134.097 273.576C133.798 274.205 133.649 275.08 133.649 276.2ZM48.9511 299.72V296.12H50.4071V304.536H48.9511V300.92H46.3431V299.72H48.9511ZM38.7751 303.192C39.4791 302.947 40.0925 302.589 40.6151 302.12C41.1485 301.651 41.5591 301.117 41.8471 300.52C42.1351 299.912 42.2791 299.283 42.2791 298.632V298.216H39.2231V297.032H46.7751V298.216H43.7511V298.632C43.7511 299.539 44.0551 300.387 44.6631 301.176C45.2711 301.955 46.0925 302.525 47.1271 302.888L46.3911 304.04C45.6231 303.763 44.9511 303.357 44.3751 302.824C43.7991 302.28 43.3565 301.651 43.0471 300.936C42.7378 301.725 42.2791 302.419 41.6711 303.016C41.0631 303.613 40.3485 304.056 39.5271 304.344L38.7751 303.192ZM40.9511 305.272H50.4071V310.232H48.9511V306.472H40.9511V305.272ZM55.6875 303.032V301.112C55.1328 300.888 54.7062 300.6 54.4075 300.248C54.1195 299.885 53.9755 299.475 53.9755 299.016C53.9755 298.184 54.4235 297.533 55.3195 297.064C56.2155 296.595 57.4315 296.36 58.9675 296.36C60.5142 296.36 61.7355 296.595 62.6315 297.064C63.5275 297.533 63.9755 298.184 63.9755 299.016C63.9755 299.475 63.8262 299.885 63.5275 300.248C63.2395 300.6 62.8182 300.888 62.2635 301.112V303.032H65.3515V304.184H52.5995V303.032H55.6875ZM54.1195 307.688C54.1195 306.888 54.5462 306.269 55.3995 305.832C56.2635 305.395 57.4528 305.176 58.9675 305.176C60.4822 305.176 61.6662 305.395 62.5195 305.832C63.3835 306.269 63.8155 306.888 63.8155 307.688C63.8155 308.488 63.3888 309.107 62.5355 309.544C61.6822 309.992 60.4928 310.216 58.9675 310.216C57.4422 310.216 56.2528 309.992 55.3995 309.544C54.5462 309.107 54.1195 308.488 54.1195 307.688ZM55.4795 299.016C55.4795 299.485 55.7888 299.853 56.4075 300.12C57.0262 300.387 57.8795 300.52 58.9675 300.52C60.0555 300.52 60.9088 300.387 61.5275 300.12C62.1568 299.853 62.4715 299.485 62.4715 299.016C62.4715 298.536 62.1622 298.163 61.5435 297.896C60.9248 297.619 60.0662 297.48 58.9675 297.48C57.8795 297.48 57.0262 297.619 56.4075 297.896C55.7888 298.163 55.4795 298.536 55.4795 299.016ZM55.5915 307.688C55.5915 308.147 55.8848 308.499 56.4715 308.744C57.0582 308.979 57.8902 309.096 58.9675 309.096C60.0342 309.096 60.8608 308.979 61.4475 308.744C62.0342 308.499 62.3275 308.147 62.3275 307.688C62.3275 307.24 62.0342 306.899 61.4475 306.664C60.8608 306.419 60.0342 306.296 58.9675 306.296C57.8902 306.296 57.0582 306.419 56.4715 306.664C55.8848 306.899 55.5915 307.24 55.5915 307.688ZM60.8235 303.032V301.496C60.2688 301.592 59.6502 301.64 58.9675 301.64C58.3062 301.64 57.6928 301.592 57.1275 301.496V303.032H60.8235ZM74.6799 297.432V298.616H68.9519V302.104H74.7439V303.288H71.7839V305.944C73.1172 305.891 74.3972 305.795 75.6239 305.656L75.7359 306.728C73.5065 307.069 70.7172 307.24 67.3679 307.24H66.6639L66.4879 306.04C67.7039 306.04 68.9839 306.024 70.3279 305.992V303.288H67.4799V297.432H74.6799ZM76.5039 296.088H77.9759V310.248H76.5039V296.088ZM83.3843 296.616V300.248H91.5763V301.432H81.9443V296.616H83.3843ZM80.2483 303.224H93.0323V304.408H80.2483V303.224ZM81.8483 305.752H83.2883V308.712H91.6563V309.896H81.8483V305.752ZM108.624 296.92V298.12H100.8V301.32H108.8V302.504H99.3281V296.92H108.624ZM97.6001 304.216H110.384V305.432H104.672V310.2H103.232V305.432H97.6001V304.216ZM114.865 297.784C114.865 299.608 114.699 301.283 114.369 302.808C114.038 304.323 113.425 305.709 112.529 306.968L111.393 306.312C112.161 305.277 112.71 304.168 113.041 302.984C113.371 301.789 113.563 300.456 113.617 298.984H111.729V297.784H114.865ZM114.513 307.16C115.345 306.04 115.915 304.808 116.225 303.464C116.534 302.109 116.705 300.616 116.737 298.984H115.313V297.784H117.985C117.985 299.256 117.926 300.525 117.809 301.592H119.473V296.456H120.833V309.512H119.473V302.776H117.633C117.291 304.76 116.635 306.445 115.665 307.832L114.513 307.16ZM122.097 296.12H123.489V310.232H122.097V296.12Z" fill="#6B6B6B"/>
<path d="M397.374 270.12V276.04H399.47V277.272H397.374V284.232H395.902V270.12H397.374ZM386.254 280.392C387.843 280.392 389.086 280.376 389.982 280.344V278.904C389.182 278.787 388.542 278.504 388.062 278.056C387.592 277.597 387.358 277.027 387.358 276.344C387.358 275.821 387.496 275.363 387.774 274.968C388.062 274.573 388.456 274.269 388.958 274.056C389.47 273.832 390.056 273.72 390.718 273.72C391.379 273.72 391.96 273.832 392.462 274.056C392.974 274.269 393.368 274.573 393.646 274.968C393.934 275.363 394.078 275.821 394.078 276.344C394.078 277.027 393.838 277.597 393.358 278.056C392.888 278.504 392.254 278.787 391.454 278.904V280.296C392.872 280.221 394.083 280.115 395.086 279.976L395.198 281.032C393.864 281.288 392.515 281.448 391.15 281.512C389.784 281.576 388.222 281.608 386.462 281.608L386.254 280.392ZM386.51 271.784H389.982V270.152H391.454V271.784H394.91V272.952H386.51V271.784ZM388.75 276.344C388.75 276.803 388.926 277.165 389.278 277.432C389.64 277.699 390.12 277.832 390.718 277.832C391.315 277.832 391.79 277.699 392.142 277.432C392.504 277.165 392.686 276.803 392.686 276.344C392.686 275.885 392.504 275.523 392.142 275.256C391.79 274.979 391.315 274.84 390.718 274.84C390.12 274.84 389.64 274.979 389.278 275.256C388.926 275.523 388.75 275.885 388.75 276.344ZM405.07 270.584V271.624C405.07 272.563 405.374 273.411 405.982 274.168C406.59 274.925 407.417 275.464 408.462 275.784L407.71 276.92C406.942 276.653 406.275 276.269 405.71 275.768C405.145 275.267 404.707 274.675 404.398 273.992C404.089 274.771 403.63 275.453 403.022 276.04C402.425 276.616 401.705 277.053 400.862 277.352L400.142 276.152C401.219 275.811 402.067 275.235 402.686 274.424C403.305 273.603 403.614 272.68 403.614 271.656V270.584H405.07ZM402.19 278.072H411.23V281.56H403.662V282.92H411.71V284.088H402.206V280.472H409.79V279.224H402.19V278.072ZM409.758 270.12H411.23V273.112H413.262V274.312H411.23V277.448H409.758V270.12ZM417.518 281.352V278.168H415.198V277H417.278V272.552H415.166V271.368H425.694V272.552H423.566V277H425.662V278.168H423.326V281.352H426.846V282.536H414.062V281.352H417.518ZM422.11 277V272.552H418.75V277H422.11ZM421.886 281.352V278.168H418.974V281.352H421.886ZM428.975 284.968H427.935L428.463 281.672H429.951L428.975 284.968ZM446.921 271.016V272.248C446.921 273.155 446.9 273.96 446.857 274.664C446.815 275.368 446.708 276.168 446.537 277.064H448.553V278.264H442.873V284.248H441.385V278.264H435.785V277.064H445.049C445.241 276.179 445.359 275.384 445.401 274.68C445.455 273.965 445.481 273.155 445.481 272.248V272.184H437.369V271.016H446.921ZM462.378 277.512V278.68H456.842V281.304H455.37V278.68H449.594V277.512H462.378ZM451.194 280.088H452.634V282.728H460.97V283.944H451.194V280.088ZM451.29 270.552H452.73V272.264H459.258V270.552H460.714V276.248H451.29V270.552ZM459.258 275.08V273.4H452.73V275.08H459.258ZM473.626 273.352V270.12H475.082V280.648H473.626V274.568H470.666V273.352H473.626ZM463.418 277.544C464.474 277.149 465.317 276.504 465.946 275.608C466.576 274.712 466.89 273.725 466.89 272.648V270.952H468.346V272.68C468.346 273.661 468.65 274.573 469.258 275.416C469.866 276.248 470.682 276.851 471.706 277.224L470.938 278.36C470.181 278.061 469.52 277.635 468.954 277.08C468.389 276.515 467.952 275.859 467.642 275.112C467.344 275.944 466.896 276.669 466.298 277.288C465.712 277.907 465.008 278.376 464.186 278.696L463.418 277.544ZM465.946 279.496H467.402V282.728H475.418V283.928H465.946V279.496ZM493.554 276.776V277.976H480.802V276.776H493.554ZM482.306 281.656C482.306 280.845 482.733 280.216 483.586 279.768C484.439 279.32 485.629 279.096 487.154 279.096C488.669 279.096 489.853 279.32 490.706 279.768C491.57 280.216 492.002 280.845 492.002 281.656C492.002 282.467 491.57 283.096 490.706 283.544C489.853 283.992 488.669 284.216 487.154 284.216C485.629 284.216 484.439 283.992 483.586 283.544C482.733 283.096 482.306 282.467 482.306 281.656ZM482.402 270.632H491.97V271.832H483.842V274.344H492.066V275.512H482.402V270.632ZM483.778 281.656C483.778 282.115 484.071 282.467 484.658 282.712C485.245 282.957 486.077 283.08 487.154 283.08C488.221 283.08 489.047 282.957 489.634 282.712C490.221 282.467 490.514 282.115 490.514 281.656C490.514 281.208 490.221 280.861 489.634 280.616C489.047 280.36 488.221 280.232 487.154 280.232C486.087 280.232 485.255 280.36 484.658 280.616C484.071 280.861 483.778 281.208 483.778 281.656ZM391.879 299.352V296.12H393.335V306.648H391.879V300.568H388.919V299.352H391.879ZM381.671 303.544C382.727 303.149 383.57 302.504 384.199 301.608C384.828 300.712 385.143 299.725 385.143 298.648V296.952H386.599V298.68C386.599 299.661 386.903 300.573 387.511 301.416C388.119 302.248 388.935 302.851 389.959 303.224L389.191 304.36C388.434 304.061 387.772 303.635 387.207 303.08C386.642 302.515 386.204 301.859 385.895 301.112C385.596 301.944 385.148 302.669 384.551 303.288C383.964 303.907 383.26 304.376 382.439 304.696L381.671 303.544ZM384.199 305.496H385.655V308.728H393.671V309.928H384.199V305.496ZM407.527 296.104V310.216H406.135V296.104H407.527ZM395.671 302.2C395.671 301.197 395.794 300.323 396.039 299.576C396.285 298.819 396.631 298.243 397.079 297.848C397.538 297.443 398.071 297.24 398.679 297.24C399.533 297.24 400.226 297.624 400.759 298.392C401.303 299.16 401.613 300.205 401.687 301.528H403.303V296.408H404.679V309.528H403.303V302.728H401.687C401.623 304.104 401.319 305.192 400.775 305.992C400.242 306.781 399.543 307.176 398.679 307.176C398.071 307.176 397.538 306.973 397.079 306.568C396.631 306.163 396.285 305.587 396.039 304.84C395.794 304.093 395.671 303.213 395.671 302.2ZM396.999 302.2C396.999 303.331 397.149 304.216 397.447 304.856C397.746 305.485 398.157 305.8 398.679 305.8C399.213 305.8 399.629 305.485 399.927 304.856C400.226 304.216 400.375 303.331 400.375 302.2C400.375 301.08 400.226 300.205 399.927 299.576C399.629 298.936 399.213 298.616 398.679 298.616C398.157 298.616 397.746 298.936 397.447 299.576C397.149 300.205 396.999 301.08 396.999 302.2ZM423.039 299.72V296.12H424.495V304.536H423.039V300.92H420.431V299.72H423.039ZM412.863 303.192C413.567 302.947 414.181 302.589 414.703 302.12C415.237 301.651 415.647 301.117 415.935 300.52C416.223 299.912 416.367 299.283 416.367 298.632V298.216H413.311V297.032H420.863V298.216H417.839V298.632C417.839 299.539 418.143 300.387 418.751 301.176C419.359 301.955 420.181 302.525 421.215 302.888L420.479 304.04C419.711 303.763 419.039 303.357 418.463 302.824C417.887 302.28 417.445 301.651 417.135 300.936C416.826 301.725 416.367 302.419 415.759 303.016C415.151 303.613 414.437 304.056 413.615 304.344L412.863 303.192ZM415.039 305.272H424.495V310.232H423.039V306.472H415.039V305.272ZM429.776 303.032V301.112C429.221 300.888 428.794 300.6 428.496 300.248C428.208 299.885 428.064 299.475 428.064 299.016C428.064 298.184 428.512 297.533 429.408 297.064C430.304 296.595 431.52 296.36 433.056 296.36C434.602 296.36 435.824 296.595 436.72 297.064C437.616 297.533 438.064 298.184 438.064 299.016C438.064 299.475 437.914 299.885 437.616 300.248C437.328 300.6 436.906 300.888 436.352 301.112V303.032H439.44V304.184H426.688V303.032H429.776ZM428.208 307.688C428.208 306.888 428.634 306.269 429.488 305.832C430.352 305.395 431.541 305.176 433.056 305.176C434.57 305.176 435.754 305.395 436.608 305.832C437.472 306.269 437.904 306.888 437.904 307.688C437.904 308.488 437.477 309.107 436.624 309.544C435.77 309.992 434.581 310.216 433.056 310.216C431.53 310.216 430.341 309.992 429.488 309.544C428.634 309.107 428.208 308.488 428.208 307.688ZM429.568 299.016C429.568 299.485 429.877 299.853 430.496 300.12C431.114 300.387 431.968 300.52 433.056 300.52C434.144 300.52 434.997 300.387 435.616 300.12C436.245 299.853 436.56 299.485 436.56 299.016C436.56 298.536 436.25 298.163 435.632 297.896C435.013 297.619 434.154 297.48 433.056 297.48C431.968 297.48 431.114 297.619 430.496 297.896C429.877 298.163 429.568 298.536 429.568 299.016ZM429.68 307.688C429.68 308.147 429.973 308.499 430.56 308.744C431.146 308.979 431.978 309.096 433.056 309.096C434.122 309.096 434.949 308.979 435.536 308.744C436.122 308.499 436.416 308.147 436.416 307.688C436.416 307.24 436.122 306.899 435.536 306.664C434.949 306.419 434.122 306.296 433.056 306.296C431.978 306.296 431.146 306.419 430.56 306.664C429.973 306.899 429.68 307.24 429.68 307.688ZM434.912 303.032V301.496C434.357 301.592 433.738 301.64 433.056 301.64C432.394 301.64 431.781 301.592 431.216 301.496V303.032H434.912ZM448.768 297.432V298.616H443.04V302.104H448.832V303.288H445.872V305.944C447.205 305.891 448.485 305.795 449.712 305.656L449.824 306.728C447.595 307.069 444.805 307.24 441.456 307.24H440.752L440.576 306.04C441.792 306.04 443.072 306.024 444.416 305.992V303.288H441.568V297.432H448.768ZM450.592 296.088H452.064V310.248H450.592V296.088ZM457.472 296.616V300.248H465.664V301.432H456.032V296.616H457.472ZM454.336 303.224H467.12V304.408H454.336V303.224ZM455.936 305.752H457.376V308.712H465.744V309.896H455.936V305.752ZM482.712 296.92V298.12H474.888V301.32H482.888V302.504H473.416V296.92H482.712ZM471.688 304.216H484.472V305.432H478.76V310.2H477.32V305.432H471.688V304.216ZM488.953 297.784C488.953 299.608 488.787 301.283 488.457 302.808C488.126 304.323 487.513 305.709 486.617 306.968L485.481 306.312C486.249 305.277 486.798 304.168 487.129 302.984C487.459 301.789 487.651 300.456 487.705 298.984H485.817V297.784H488.953ZM488.601 307.16C489.433 306.04 490.003 304.808 490.313 303.464C490.622 302.109 490.793 300.616 490.825 298.984H489.401V297.784H492.073C492.073 299.256 492.014 300.525 491.897 301.592H493.561V296.456H494.921V309.512H493.561V302.776H491.721C491.379 304.76 490.723 306.445 489.753 307.832L488.601 307.16ZM496.185 296.12H497.577V310.232H496.185V296.12Z" fill="#6B6B6B"/>
</svg>
