<svg xmlns="http://www.w3.org/2000/svg" width="542" height="316" fill="none"><rect width="67" height="29" x="47" y=".5" fill="#fff" rx="14.5"/><rect width="67" height="29" x="47" y=".5" stroke="#6B6B6B" rx="14.5"/><path fill="#121212" d="M59.722 9.794h4.13q.813 0 1.456.364.645.35 1.008.994.364.63.364 1.442 0 .504-.252 1.05a3 3 0 0 1-.672.924q.042.028.098.07a.6.6 0 0 1 .14.084q.588.378.952 1.064.378.686.378 1.386 0 .854-.364 1.526a2.6 2.6 0 0 1-.994 1.036q-.644.364-1.47.364h-4.774zm4.62 9.044q.686 0 1.106-.448.435-.462.434-1.204 0-.784-.434-1.274-.42-.49-1.106-.49h-3.164v3.416zm-.448-4.69q.602-.015.98-.42.378-.42.378-1.064 0-.714-.42-1.162t-1.106-.448h-2.548v3.094zm8.163 4.788q.938 0 1.512-.686t.574-1.792-.574-1.792-1.512-.686q-.924 0-1.498.686t-.574 1.792.574 1.792 1.498.686m-3.528-2.478q0-1.078.448-1.918t1.246-1.316q.812-.476 1.834-.476 1.036 0 1.834.476a3.3 3.3 0 0 1 1.26 1.316q.448.84.448 1.918 0 1.065-.448 1.904a3.3 3.3 0 0 1-1.26 1.316q-.798.476-1.834.476-1.022 0-1.834-.476a3.3 3.3 0 0 1-1.246-1.316q-.448-.84-.448-1.904m9.824-2.296q.295-.63.938-1.022.66-.406 1.4-.406v1.33q-.657 0-1.19.35a2.54 2.54 0 0 0-.84.91 2.25 2.25 0 0 0-.308 1.12v3.654h-1.456v-7.322h1.456zm6.439 6.006q-1.009 0-1.806-.462a3.35 3.35 0 0 1-1.233-1.316q-.447-.84-.448-1.918 0-1.078.434-1.918a3.2 3.2 0 0 1 1.246-1.316q.799-.476 1.806-.476.588 0 1.233.308.643.294 1.078.98V9.794h1.456v10.318H87.1v-1.218q-.447.658-1.091.966-.645.308-1.219.308m-2.03-3.682q0 1.12.588 1.82.601.686 1.553.686a1.93 1.93 0 0 0 1.093-.336q.504-.336.797-.91.309-.574.308-1.26 0-.672-.308-1.246a2.37 2.37 0 0 0-.797-.91 1.93 1.93 0 0 0-1.093-.336q-.951 0-1.553.7-.588.686-.588 1.792m12.655-.588q-.099-.812-.574-1.358-.477-.56-1.372-.56-.812 0-1.414.56-.588.546-.714 1.372zm-5.474.56q0-1.078.448-1.918a3.25 3.25 0 0 1 1.232-1.302q.797-.476 1.82-.476 1.442 0 2.114.7.685.7.924 1.288a4.5 4.5 0 0 1 .322 1.736q0 .195-.014.35a2 2 0 0 0-.014.182h-5.432q.126.84.728 1.372.601.532 1.386.532.63 0 1.036-.196.42-.195.574-.364t.294-.378l1.176.532q-.337.686-1.12 1.162-.784.462-1.974.462-1.022 0-1.82-.462a3.35 3.35 0 0 1-1.232-1.316q-.448-.84-.448-1.904m9.66-2.296q.294-.63.938-1.022.659-.406 1.4-.406v1.33a2.1 2.1 0 0 0-1.19.35 2.54 2.54 0 0 0-.84.91 2.25 2.25 0 0 0-.308 1.12v3.654h-1.456v-7.322h1.456z"/><rect width="52" height="29" x="414.5" y=".5" fill="#fff" rx="14.5"/><rect width="52" height="29" x="414.5" y=".5" stroke="#6B6B6B" rx="14.5"/><path fill="#121212" d="M429.039 18.838h5.11v1.26h-6.566V9.794h1.456zm8.419-6.02v7.28h-1.456v-7.28zm-1.554-2.38q0-.365.224-.588a.82.82 0 0 1 .602-.238q.365 0 .588.238.238.224.238.588 0 .35-.238.588a.77.77 0 0 1-.588.238.84.84 0 0 1-.602-.224.85.85 0 0 1-.224-.602m8.593 5.6q0-.924-.476-1.47-.462-.56-1.274-.56-.546 0-.994.28a1.9 1.9 0 0 0-.686.728 2.2 2.2 0 0 0-.238 1.022v4.06h-1.456v-7.322h1.456v1.232q.336-.532.924-.868.588-.35 1.19-.35.756 0 1.442.35.686.336 1.12 1.05.448.714.448 1.792v4.116h-1.456zm8.311-.14q-.098-.812-.574-1.358-.476-.56-1.372-.56-.812 0-1.414.56-.588.546-.714 1.372zm-5.474.56q0-1.078.448-1.918a3.25 3.25 0 0 1 1.232-1.302q.798-.476 1.82-.476 1.442 0 2.114.7.685.7.924 1.288.322.784.322 1.736 0 .195-.014.35a3 3 0 0 0-.014.182h-5.432q.126.84.728 1.372a2.03 2.03 0 0 0 1.386.532q.63 0 1.036-.196.42-.195.574-.364a3 3 0 0 0 .294-.378l1.176.532q-.336.686-1.12 1.162-.784.462-1.974.462-1.022 0-1.82-.462a3.35 3.35 0 0 1-1.232-1.316q-.448-.84-.448-1.904"/><path fill="#6B6B6B" d="M541.424 147.424a.6.6 0 0 0 0-.848l-3.818-3.819a.601.601 0 0 0-.849.849l3.394 3.394-3.394 3.394a.601.601 0 0 0 .849.849zM341 147.6h200v-1.2H341z"/><path fill="#fff" stroke="#C2C2C2" d="M.5 74A7.5 7.5 0 0 1 8 66.5h146a7.5 7.5 0 0 1 7.5 7.5v146a7.5 7.5 0 0 1-7.5 7.5H8A7.5 7.5 0 0 1 .5 220z"/><path fill="#6B6B6B" d="m74.696 151.042-1.456-.014v-8.61l-1.778 1.008-.616-1.218 2.408-1.344h1.442zm5.993-1.078q.938 0 1.526-.686.588-.7.588-1.82 0-1.106-.588-1.792t-1.526-.686a1.93 1.93 0 0 0-1.092.336 2.36 2.36 0 0 0-.798.91 2.6 2.6 0 0 0-.294 1.232q0 .686.294 1.26t.798.91 1.092.336m-3.654-6.188h1.456v1.26q.378-.63 1.05-.938.671-.322 1.232-.322 1.021 0 1.806.476a3.13 3.13 0 0 1 1.232 1.302q.448.826.448 1.904t-.448 1.932q-.435.84-1.232 1.316-.785.462-1.806.462-.56 0-1.232-.322a2.5 2.5 0 0 1-1.05-.966v4.354h-1.456zm12.367 3.668 2.702 3.654h-1.806l-1.75-2.478-1.736 2.478h-1.806l2.66-3.654-2.716-3.668h1.82l1.778 2.548 1.764-2.548h1.82zm339.473 32.598-1.456-.014v-8.61l-1.778 1.008-.616-1.218 2.408-1.344h1.442zm2.843-1.442q.378 0 .616.238a.84.84 0 0 1 .238.616q0 .392-.238.63a.83.83 0 0 1-.616.238.88.88 0 0 1-.63-.238q-.238-.238-.238-.63 0-.378.238-.616a.88.88 0 0 1 .63-.238m3.029.168q.195-.182 1.428-1.316a61 61 0 0 0 1.806-1.68 8.5 8.5 0 0 0 1.148-1.372q.462-.714.462-1.344 0-.868-.504-1.414-.49-.56-1.274-.56-.603 0-1.162.392a2.33 2.33 0 0 0-.826 1.008l-1.274-.56a3.56 3.56 0 0 1 1.33-1.554q.924-.616 1.932-.616.937 0 1.666.42.741.42 1.148 1.176.42.742.42 1.708 0 .952-.574 1.89a8.7 8.7 0 0 1-1.372 1.736 36 36 0 0 1-2.044 1.862l-.252.224h4.396v1.274h-6.314zm11.763.196q.938 0 1.526-.686.588-.7.588-1.82 0-1.106-.588-1.792t-1.526-.686a1.93 1.93 0 0 0-1.092.336 2.36 2.36 0 0 0-.798.91 2.6 2.6 0 0 0-.294 1.232q0 .686.294 1.26t.798.91 1.092.336m-3.654-6.188h1.456v1.26q.378-.63 1.05-.938.671-.322 1.232-.322 1.022 0 1.806.476.797.462 1.232 1.302.447.826.448 1.904 0 1.078-.448 1.932-.435.84-1.232 1.316-.785.462-1.806.462-.56 0-1.232-.322a2.5 2.5 0 0 1-1.05-.966v4.354h-1.456zm12.367 3.668 2.702 3.654h-1.806l-1.75-2.478-1.736 2.478h-1.806l2.66-3.654-2.716-3.668h1.82l1.778 2.548 1.764-2.548h1.82zM28.23 273.8v-3.696h1.457v8.128H28.23v-3.248h-2.944V273.8zm-4.767-.32q.24-.624.32-1.408h-4.768v-1.184h6.32q0 2.8-1.568 4.704-1.552 1.904-4.816 2.912l-.576-1.168q3.182-.928 4.496-2.768l-4.336.32-.208-1.184zm-2.928 5.472h9.152v5.088h-9.152zm7.712 3.92v-2.752h-6.288v2.752zm9.248-1.568v-3.056h-4.496v-1.168h2.08v-4.48h-2.112v-1.184h10.528v1.184h-2.128v4.48h2.096v1.168H38.95v3.056h5.696v1.2H31.863v-1.2zm2.416-4.224v-4.48h-3.36v4.48zm17.44-6.976v10.192h-1.456v-5.984h-3.888v-1.2h3.888v-3.008zm-10.864 1.04h1.472v5.696a44 44 0 0 0 3.072-.128 26 26 0 0 0 2.8-.416l.176 1.216a25 25 0 0 1-3.024.448 46 46 0 0 1-3.376.112h-1.12zm1.76 8.32h1.456v3.264h8v1.2h-9.456zm22.48-8.192v1.184H62.6v1.952h7.824v1.168H62.6v2.048h8.272v1.184h-9.744v-7.536zm-11.215 9.968h12.784v1.2H59.512zm18.384-10.128q1.088 0 1.952.432a3.27 3.27 0 0 1 1.344 1.2q.495.751.496 1.728 0 .976-.496 1.744-.48.768-1.344 1.2-.864.416-1.952.416-1.104 0-1.984-.416a3.4 3.4 0 0 1-1.36-1.2 3.2 3.2 0 0 1-.48-1.744q0-.976.48-1.728a3.4 3.4 0 0 1 1.36-1.2q.88-.432 1.984-.432m-4.496 8.88q2.688 0 4.896-.08a40 40 0 0 0 4.24-.4l.112 1.072a31 31 0 0 1-4.256.512q-2.16.112-4.816.112zm2.096-5.52q0 .928.672 1.52.689.576 1.728.576 1.024 0 1.696-.576.672-.592.672-1.52t-.672-1.504q-.672-.592-1.696-.592-1.04 0-1.728.576-.672.576-.672 1.52m7.92-4.384h1.472v14.16h-1.472zm15.032 5.328v-4.992h1.376v13.088h-1.376V276.6h-1.936v-1.184zm-7.264-3.648h5.232v1.184h-3.84v2.656h3.216v1.136h-3.216v2.976a47 47 0 0 0 2.512-.08 14.5 14.5 0 0 0 1.984-.272l.128 1.168q-1.136.224-2.24.304-1.088.064-2.848.064h-.928zm10.128-1.664h1.392v14.112h-1.392zm14.224.816v1.2h-7.824v3.2h8v1.184h-9.472v-5.584zm-11.024 7.296h12.784v1.216h-5.712v4.768h-1.44v-4.768h-5.632zm25.441-8.128v14.16h-1.472v-14.16zm-10.848 1.312h6.56v5.136h-5.056v3.12a65 65 0 0 0 3.424-.112 36 36 0 0 0 3.2-.384l.16 1.184a33 33 0 0 1-3.376.416q-1.632.096-3.696.096h-1.184v-5.504h5.056v-2.768h-5.088zm25.072-1.296v14.112h-1.392v-14.112zm-11.856 6.096q0-1.504.368-2.624.368-1.135 1.04-1.728a2.34 2.34 0 0 1 1.6-.608q1.28 0 2.08 1.152.816 1.152.928 3.136h1.616v-5.12h1.376v13.12h-1.376v-6.8h-1.616q-.096 2.064-.912 3.264-.8 1.184-2.096 1.184a2.34 2.34 0 0 1-1.6-.608q-.672-.607-1.04-1.728t-.368-2.64m1.328 0q0 1.696.448 2.656.448.944 1.232.944.8 0 1.248-.944.448-.96.448-2.656 0-1.68-.448-2.624-.449-.96-1.248-.96-.784 0-1.232.96-.448.944-.448 2.624m-84.698 23.52v-3.6h1.456v8.416h-1.456v-3.616h-2.608v-1.2zm-10.176 3.472a5.4 5.4 0 0 0 1.84-1.072 5 5 0 0 0 1.232-1.6 4.36 4.36 0 0 0 .432-1.888v-.416h-3.056v-1.184h7.552v1.184h-3.024v.416q0 1.36.912 2.544.913 1.168 2.464 1.712l-.736 1.152a5.9 5.9 0 0 1-2.016-1.216 5.7 5.7 0 0 1-1.328-1.888 5.9 5.9 0 0 1-1.376 2.08 5.7 5.7 0 0 1-2.144 1.328zm2.176 2.08h9.456v4.96h-1.456v-3.76h-8zm14.737-2.24v-1.92q-.833-.336-1.28-.864a1.93 1.93 0 0 1-.433-1.232q0-1.248 1.344-1.952t3.648-.704q2.32 0 3.665.704 1.344.704 1.343 1.952 0 .688-.447 1.232-.432.528-1.264.864v1.92h3.087v1.152H52.6v-1.152zm-1.569 4.656q0-1.2 1.28-1.856 1.296-.656 3.569-.656 2.271 0 3.551.656 1.297.656 1.297 1.856t-1.28 1.856q-1.28.672-3.568.672t-3.568-.672q-1.28-.656-1.28-1.856m1.36-8.672q0 .704.928 1.104.93.4 2.56.4 1.633 0 2.56-.4.945-.4.944-1.104 0-.72-.927-1.12-.93-.416-2.576-.416-1.633 0-2.56.416-.929.4-.928 1.12m.113 8.672q0 .688.88 1.056.879.352 2.496.352 1.6 0 2.48-.352.88-.367.88-1.056 0-.672-.88-1.024-.88-.368-2.48-.368-1.617 0-2.497.368-.88.352-.88 1.024m5.232-4.656v-1.536q-.833.144-1.856.144-.993 0-1.84-.144v1.536zm13.856-5.6v1.184h-5.728v3.488h5.792v1.184h-2.96v2.656a53 53 0 0 0 3.84-.288l.112 1.072q-3.345.512-8.368.512h-.704l-.176-1.2q1.824 0 3.84-.048v-2.704H67.48v-5.856zm1.824-1.344h1.472v14.16h-1.472zm6.88.528v3.632h8.192v1.184h-9.632v-4.816zm-3.136 6.608h12.784v1.184H80.248zm1.6 2.528h1.44v2.96h8.368v1.184h-9.808zm26.776-8.832v1.2H100.8v3.2h8v1.184h-9.472v-5.584zM97.6 304.216h12.784v1.216h-5.712v4.768h-1.44v-4.768H97.6zm17.265-6.432q0 2.736-.496 5.024a11.2 11.2 0 0 1-1.84 4.16l-1.136-.656a10.1 10.1 0 0 0 1.648-3.328q.495-1.792.576-4h-1.888v-1.2zm-.352 9.376a9.85 9.85 0 0 0 1.712-3.696q.464-2.032.512-4.48h-1.424v-1.2h2.672q0 2.208-.176 3.808h1.664v-5.136h1.36v13.056h-1.36v-6.736h-1.84q-.513 2.976-1.968 5.056zm7.584-11.04h1.392v14.112h-1.392zm275.277-26v5.92h2.096v1.232h-2.096v6.96h-1.472V270.12zm-11.12 10.272q2.384 0 3.728-.048v-1.44q-1.2-.176-1.92-.848-.705-.688-.704-1.712 0-.784.416-1.376.432-.593 1.184-.912.767-.336 1.76-.336.991 0 1.744.336.768.32 1.184.912.432.592.432 1.376 0 1.024-.72 1.712-.704.672-1.904.848v1.392q2.127-.112 3.632-.32l.112 1.056a28.5 28.5 0 0 1-4.048.48q-2.048.096-4.688.096zm.256-8.608h3.472v-1.632h1.472v1.632h3.456v1.168h-8.4zm2.24 4.56q0 .688.528 1.088.543.4 1.44.4t1.424-.4a1.28 1.28 0 0 0 .544-1.088 1.28 1.28 0 0 0-.544-1.088q-.528-.416-1.424-.416-.897 0-1.44.416-.528.4-.528 1.088m16.32-5.76v1.04q0 1.409.912 2.544t2.48 1.616l-.752 1.136a5.9 5.9 0 0 1-2-1.152 5.2 5.2 0 0 1-1.312-1.776 5.8 5.8 0 0 1-1.376 2.048 5.9 5.9 0 0 1-2.16 1.312l-.72-1.2q1.615-.512 2.544-1.728a4.5 4.5 0 0 0 .928-2.768v-1.072zm-2.88 7.488h9.04v3.488h-7.568v1.36h8.048v1.168h-9.504v-3.616h7.584v-1.248h-7.6zm7.568-7.952h1.472v2.992h2.032v1.2h-2.032v3.136h-1.472zm7.76 11.232v-3.184h-2.32V277h2.08v-4.448h-2.112v-1.184h10.528v1.184h-2.128V277h2.096v1.168h-2.336v3.184h3.52v1.184h-12.784v-1.184zM422.11 277v-4.448h-3.36V277zm-.224 4.352v-3.184h-2.912v3.184zm7.089 3.616h-1.04l.528-3.296h1.488zm17.946-13.952v1.232q0 1.36-.064 2.416a19 19 0 0 1-.32 2.4h2.016v1.2h-5.68v5.984h-1.488v-5.984h-5.6v-1.2h9.264q.288-1.328.352-2.384.08-1.072.08-2.432v-.064h-8.112v-1.168zm15.457 6.496v1.168h-5.536v2.624h-1.472v-2.624h-5.776v-1.168zm-11.184 2.576h1.44v2.64h8.336v1.216h-9.776zm.096-9.536h1.44v1.712h6.528v-1.712h1.456v5.696h-9.424zm7.968 4.528v-1.68h-6.528v1.68zm14.368-1.728v-3.232h1.456v10.528h-1.456v-6.08h-2.96v-1.216zm-10.208 4.192q1.584-.592 2.528-1.936t.944-2.96v-1.696h1.456v1.728q0 1.471.912 2.736.912 1.248 2.448 1.808l-.768 1.136a5.9 5.9 0 0 1-1.984-1.28 6 6 0 0 1-1.312-1.968 6 6 0 0 1-1.344 2.176 5.7 5.7 0 0 1-2.112 1.408zm2.528 1.952h1.456v3.232h8.016v1.2h-9.472zm27.608-2.72v1.2h-12.752v-1.2zm-11.248 4.88q0-1.216 1.28-1.888t3.568-.672q2.273 0 3.552.672 1.296.672 1.296 1.888t-1.296 1.888q-1.28.672-3.552.672-2.288 0-3.568-.672t-1.28-1.888m.096-11.024h9.568v1.2h-8.128v2.512h8.224v1.168h-9.664zm1.376 11.024q0 .689.88 1.056t2.496.368q1.6 0 2.48-.368.88-.367.88-1.056 0-.672-.88-1.04-.88-.384-2.48-.384t-2.496.384q-.88.368-.88 1.04m-91.899 17.696v-3.232h1.456v10.528h-1.456v-6.08h-2.96v-1.216zm-10.208 4.192q1.584-.592 2.528-1.936a5.04 5.04 0 0 0 .944-2.96v-1.696h1.456v1.728q0 1.471.912 2.736.912 1.248 2.448 1.808l-.768 1.136a5.9 5.9 0 0 1-1.984-1.28 6 6 0 0 1-1.312-1.968 6 6 0 0 1-1.344 2.176 5.74 5.74 0 0 1-2.112 1.408zm2.528 1.952h1.456v3.232h8.016v1.2h-9.472zm23.328-9.392v14.112h-1.392v-14.112zm-11.856 6.096q0-1.504.368-2.624.369-1.135 1.04-1.728a2.34 2.34 0 0 1 1.6-.608q1.28 0 2.08 1.152.817 1.152.928 3.136h1.616v-5.12h1.376v13.12h-1.376v-6.8h-1.616q-.096 2.064-.912 3.264-.8 1.184-2.096 1.184a2.34 2.34 0 0 1-1.6-.608q-.671-.607-1.04-1.728-.368-1.12-.368-2.64m1.328 0q0 1.696.448 2.656.449.944 1.232.944.801 0 1.248-.944.448-.96.448-2.656 0-1.68-.448-2.624-.447-.96-1.248-.96-.783 0-1.232.96-.447.944-.448 2.624m26.04-2.48v-3.6h1.456v8.416h-1.456v-3.616h-2.608v-1.2zm-10.176 3.472a5.4 5.4 0 0 0 1.84-1.072 5 5 0 0 0 1.232-1.6 4.36 4.36 0 0 0 .432-1.888v-.416h-3.056v-1.184h7.552v1.184h-3.024v.416q0 1.36.912 2.544.913 1.168 2.464 1.712l-.736 1.152a5.9 5.9 0 0 1-2.016-1.216 5.7 5.7 0 0 1-1.328-1.888 5.9 5.9 0 0 1-1.376 2.08 5.7 5.7 0 0 1-2.144 1.328zm2.176 2.08h9.456v4.96h-1.456v-3.76h-8zm14.737-2.24v-1.92q-.833-.336-1.28-.864a1.93 1.93 0 0 1-.432-1.232q0-1.248 1.344-1.952t3.648-.704q2.32 0 3.664.704t1.344 1.952q0 .688-.448 1.232-.433.528-1.264.864v1.92h3.088v1.152h-12.752v-1.152zm-1.568 4.656q0-1.2 1.28-1.856 1.296-.656 3.568-.656 2.271 0 3.552.656 1.296.656 1.296 1.856t-1.28 1.856q-1.28.672-3.568.672t-3.568-.672q-1.28-.656-1.28-1.856m1.36-8.672q0 .704.928 1.104t2.56.4 2.56-.4q.944-.4.944-1.104 0-.72-.928-1.12-.929-.416-2.576-.416-1.632 0-2.56.416-.928.4-.928 1.12m.112 8.672q0 .688.88 1.056.879.352 2.496.352 1.6 0 2.48-.352.88-.367.88-1.056 0-.672-.88-1.024-.88-.368-2.48-.368-1.617 0-2.496.368-.88.352-.88 1.024m5.232-4.656v-1.536a11 11 0 0 1-1.856.144 11 11 0 0 1-1.84-.144v1.536zm13.856-5.6v1.184h-5.728v3.488h5.792v1.184h-2.96v2.656a53 53 0 0 0 3.84-.288l.112 1.072q-3.344.512-8.368.512h-.704l-.176-1.2q1.824 0 3.84-.048v-2.704h-2.848v-5.856zm1.824-1.344h1.472v14.16h-1.472zm6.88.528v3.632h8.192v1.184h-9.632v-4.816zm-3.136 6.608h12.784v1.184h-12.784zm1.6 2.528h1.44v2.96h8.368v1.184h-9.808zm26.776-8.832v1.2h-7.824v3.2h8v1.184h-9.472v-5.584zm-11.024 7.296h12.784v1.216h-5.712v4.768h-1.44v-4.768h-5.632zm17.265-6.432q0 2.736-.496 5.024a11.2 11.2 0 0 1-1.84 4.16l-1.136-.656a10.1 10.1 0 0 0 1.648-3.328q.495-1.792.576-4h-1.888v-1.2zm-.352 9.376a9.85 9.85 0 0 0 1.712-3.696q.464-2.032.512-4.48h-1.424v-1.2h2.672q0 2.208-.176 3.808h1.664v-5.136h1.36v13.056h-1.36v-6.736h-1.84q-.513 2.976-1.968 5.056zm7.584-11.04h1.392v14.112h-1.392z"/></svg>