<svg width="360" height="335" viewBox="0 0 360 335" fill="none" xmlns="http://www.w3.org/2000/svg">
<path d="M26 303L30 303" stroke="#6B6B6B" stroke-width="1.2"/>
<path d="M78 303H86" stroke="#6B6B6B" stroke-width="1.2"/>
<path d="M133.576 302.576C133.341 302.81 133.341 303.19 133.576 303.424L137.394 307.243C137.628 307.477 138.008 307.477 138.243 307.243C138.477 307.008 138.477 306.628 138.243 306.394L134.849 303L138.243 299.606C138.477 299.372 138.477 298.992 138.243 298.757C138.008 298.523 137.628 298.523 137.394 298.757L133.576 302.576ZM146.424 303.424C146.659 303.19 146.659 302.81 146.424 302.576L142.606 298.757C142.372 298.523 141.992 298.523 141.757 298.757C141.523 298.992 141.523 299.372 141.757 299.606L145.151 303L141.757 306.394C141.523 306.628 141.523 307.008 141.757 307.243C141.992 307.477 142.372 307.477 142.606 307.243L146.424 303.424ZM134 303.6H146V302.4H134V303.6Z" fill="#6B6B6B"/>
<path d="M193.576 302.576C193.341 302.81 193.341 303.19 193.576 303.424L197.394 307.243C197.628 307.477 198.008 307.477 198.243 307.243C198.477 307.008 198.477 306.628 198.243 306.394L194.849 303L198.243 299.606C198.477 299.372 198.477 298.992 198.243 298.757C198.008 298.523 197.628 298.523 197.394 298.757L193.576 302.576ZM210.424 303.424C210.659 303.19 210.659 302.81 210.424 302.576L206.606 298.757C206.372 298.523 205.992 298.523 205.757 298.757C205.523 298.992 205.523 299.372 205.757 299.606L209.151 303L205.757 306.394C205.523 306.628 205.523 307.008 205.757 307.243C205.992 307.477 206.372 307.477 206.606 307.243L210.424 303.424ZM194 303.6H210V302.4H194V303.6Z" fill="#6B6B6B"/>
<path d="M257.576 302.576C257.341 302.81 257.341 303.19 257.576 303.424L261.394 307.243C261.628 307.477 262.008 307.477 262.243 307.243C262.477 307.008 262.477 306.628 262.243 306.394L258.849 303L262.243 299.606C262.477 299.372 262.477 298.992 262.243 298.757C262.008 298.523 261.628 298.523 261.394 298.757L257.576 302.576ZM278.424 303.424C278.659 303.19 278.659 302.81 278.424 302.576L274.606 298.757C274.372 298.523 273.992 298.523 273.757 298.757C273.523 298.992 273.523 299.372 273.757 299.606L277.151 303L273.757 306.394C273.523 306.628 273.523 307.008 273.757 307.243C273.992 307.477 274.372 307.477 274.606 307.243L278.424 303.424ZM258 303.6H278V302.4H258V303.6Z" fill="#6B6B6B"/>
<path d="M325.576 302.576C325.341 302.81 325.341 303.19 325.576 303.424L329.394 307.243C329.628 307.477 330.008 307.477 330.243 307.243C330.477 307.008 330.477 306.628 330.243 306.394L326.849 303L330.243 299.606C330.477 299.372 330.477 298.992 330.243 298.757C330.008 298.523 329.628 298.523 329.394 298.757L325.576 302.576ZM350.424 303.424C350.659 303.19 350.659 302.81 350.424 302.576L346.606 298.757C346.372 298.523 345.992 298.523 345.757 298.757C345.523 298.992 345.523 299.372 345.757 299.606L349.151 303L345.757 306.394C345.523 306.628 345.523 307.008 345.757 307.243C345.992 307.477 346.372 307.477 346.606 307.243L350.424 303.424ZM326 303.6H350V302.4H326V303.6Z" fill="#6B6B6B"/>
<rect x="0.5" y="0.5" width="54" height="29" rx="14.5" fill="white"/>
<rect x="0.5" y="0.5" width="54" height="29" rx="14.5" stroke="#6B6B6B"/>
<path d="M18.8672 14.932L22.8152 20.098H20.9812L17.9712 16.122L14.9612 20.098H13.1132L17.0752 14.932L13.1132 9.794H14.9612L17.9712 13.742L20.9812 9.794H22.8152L18.8672 14.932ZM29.4733 14.932L33.4213 20.098H31.5873L28.5773 16.122L25.5673 20.098H23.7193L27.6813 14.932L23.7193 9.794H25.5673L28.5773 13.742L31.5873 9.794H33.4213L29.4733 14.932ZM35.9028 17.186C36.2014 17.7553 36.5794 18.194 37.0368 18.502C37.4941 18.81 37.9654 18.964 38.4508 18.964C39.1041 18.964 39.6268 18.8147 40.0188 18.516C40.4201 18.208 40.6208 17.8067 40.6208 17.312C40.6208 16.976 40.5181 16.7007 40.3128 16.486C40.1168 16.262 39.8648 16.08 39.5568 15.94C39.2581 15.8 38.8428 15.6367 38.3108 15.45C37.6388 15.2167 37.0928 14.9927 36.6728 14.778C36.2528 14.5633 35.8934 14.26 35.5948 13.868C35.2961 13.476 35.1468 12.972 35.1468 12.356C35.1468 11.8147 35.2961 11.3433 35.5948 10.942C35.8934 10.5313 36.2994 10.2187 36.8128 10.004C37.3354 9.78933 37.9141 9.682 38.5488 9.682C39.2768 9.682 39.9488 9.88267 40.5648 10.284C41.1808 10.6853 41.6241 11.264 41.8948 12.02L40.6068 12.496C40.4388 11.992 40.1588 11.6093 39.7668 11.348C39.3841 11.0773 38.9781 10.942 38.5488 10.942C37.9888 10.942 37.5221 11.0727 37.1488 11.334C36.7848 11.5953 36.6028 11.9407 36.6028 12.37C36.6028 12.6967 36.7054 12.972 36.9108 13.196C37.1161 13.42 37.3681 13.6067 37.6668 13.756C37.9654 13.896 38.3854 14.064 38.9268 14.26C39.5988 14.5027 40.1448 14.7313 40.5648 14.946C40.9848 15.1607 41.3394 15.464 41.6288 15.856C41.9274 16.2387 42.0768 16.7287 42.0768 17.326C42.0768 17.8953 41.9228 18.3993 41.6148 18.838C41.3068 19.2767 40.8774 19.6173 40.3268 19.86C39.7761 20.1027 39.1461 20.224 38.4368 20.224C37.6714 20.224 36.9621 20.0187 36.3088 19.608C35.6648 19.188 35.1234 18.6047 34.6848 17.858L35.9028 17.186Z" fill="#121212"/>
<path d="M21.9935 327.122H23.2955V328.396H21.9935V331.042H20.5515V328.396H16.1555L16.0155 327.122L20.6075 320.85H21.9935V327.122ZM20.5515 327.122V323.272L17.7515 327.122H20.5515ZM28.6174 329.964C29.2428 329.964 29.7514 329.735 30.1434 329.278C30.5354 328.811 30.7314 328.205 30.7314 327.458C30.7314 326.721 30.5354 326.123 30.1434 325.666C29.7514 325.209 29.2428 324.98 28.6174 324.98C28.2254 324.98 27.8614 325.092 27.5254 325.316C27.1894 325.54 26.9234 325.843 26.7274 326.226C26.5314 326.599 26.4334 327.01 26.4334 327.458C26.4334 327.915 26.5314 328.335 26.7274 328.718C26.9234 329.101 27.1894 329.404 27.5254 329.628C27.8614 329.852 28.2254 329.964 28.6174 329.964ZM24.9634 323.776H26.4194V325.036C26.6714 324.616 27.0214 324.303 27.4694 324.098C27.9174 323.883 28.3281 323.776 28.7014 323.776C29.3828 323.776 29.9848 323.935 30.5074 324.252C31.0394 324.56 31.4501 324.994 31.7394 325.554C32.0381 326.105 32.1874 326.739 32.1874 327.458C32.1874 328.177 32.0381 328.821 31.7394 329.39C31.4501 329.95 31.0394 330.389 30.5074 330.706C29.9848 331.014 29.3828 331.168 28.7014 331.168C28.3281 331.168 27.9174 331.061 27.4694 330.846C27.0214 330.622 26.6714 330.3 26.4194 329.88V334.234H24.9634V323.776ZM37.3303 327.444L40.0323 331.098H38.2263L36.4763 328.62L34.7403 331.098H32.9343L35.5943 327.444L32.8783 323.776H34.6983L36.4763 326.324L38.2403 323.776H40.0603L37.3303 327.444Z" fill="#6B6B6B"/>
<path d="M191.562 331.042L190.106 331.028V322.418L188.328 323.426L187.712 322.208L190.12 320.864H191.562V331.042ZM196.981 329.866C197.587 329.866 198.082 329.67 198.465 329.278C198.857 328.886 199.053 328.377 199.053 327.752C199.053 327.127 198.857 326.618 198.465 326.226C198.082 325.825 197.587 325.624 196.981 325.624C196.383 325.624 195.893 325.825 195.511 326.226C195.128 326.618 194.937 327.127 194.937 327.752C194.937 328.377 195.128 328.886 195.511 329.278C195.893 329.67 196.383 329.866 196.981 329.866ZM193.481 327.752C193.481 327.136 193.667 326.492 194.041 325.82L196.855 320.836H198.521L196.477 324.406C196.635 324.369 196.822 324.35 197.037 324.35C197.709 324.35 198.306 324.499 198.829 324.798C199.361 325.087 199.771 325.489 200.061 326.002C200.359 326.515 200.509 327.099 200.509 327.752C200.509 328.405 200.359 328.989 200.061 329.502C199.762 330.015 199.347 330.417 198.815 330.706C198.283 330.995 197.676 331.14 196.995 331.14C196.313 331.14 195.707 330.995 195.175 330.706C194.643 330.417 194.227 330.015 193.929 329.502C193.63 328.989 193.481 328.405 193.481 327.752ZM205.823 329.964C206.448 329.964 206.957 329.735 207.349 329.278C207.741 328.811 207.937 328.205 207.937 327.458C207.937 326.721 207.741 326.123 207.349 325.666C206.957 325.209 206.448 324.98 205.823 324.98C205.431 324.98 205.067 325.092 204.731 325.316C204.395 325.54 204.129 325.843 203.933 326.226C203.737 326.599 203.639 327.01 203.639 327.458C203.639 327.915 203.737 328.335 203.933 328.718C204.129 329.101 204.395 329.404 204.731 329.628C205.067 329.852 205.431 329.964 205.823 329.964ZM202.169 323.776H203.625V325.036C203.877 324.616 204.227 324.303 204.675 324.098C205.123 323.883 205.533 323.776 205.907 323.776C206.588 323.776 207.19 323.935 207.713 324.252C208.245 324.56 208.655 324.994 208.945 325.554C209.243 326.105 209.393 326.739 209.393 327.458C209.393 328.177 209.243 328.821 208.945 329.39C208.655 329.95 208.245 330.389 207.713 330.706C207.19 331.014 206.588 331.168 205.907 331.168C205.533 331.168 205.123 331.061 204.675 330.846C204.227 330.622 203.877 330.3 203.625 329.88V334.234H202.169V323.776ZM214.536 327.444L217.238 331.098H215.432L213.682 328.62L211.946 331.098H210.14L212.8 327.444L210.084 323.776H211.904L213.682 326.324L215.446 323.776H217.266L214.536 327.444Z" fill="#6B6B6B"/>
<path d="M74.172 329.964C74.76 329.964 75.236 329.796 75.6 329.46C75.9734 329.115 76.16 328.671 76.16 328.13C76.16 327.589 75.9734 327.15 75.6 326.814C75.236 326.469 74.76 326.296 74.172 326.296C73.5747 326.296 73.0894 326.469 72.716 326.814C72.3427 327.15 72.156 327.589 72.156 328.13C72.156 328.671 72.3427 329.115 72.716 329.46C73.0894 329.796 73.5747 329.964 74.172 329.964ZM70.7 328.158C70.7 327.701 70.8587 327.243 71.176 326.786C71.4934 326.319 71.8994 325.951 72.394 325.68C71.9834 325.4 71.6474 325.055 71.386 324.644C71.1247 324.233 70.994 323.846 70.994 323.482C70.994 322.941 71.1294 322.46 71.4 322.04C71.6707 321.611 72.044 321.279 72.52 321.046C73.0054 320.803 73.556 320.682 74.172 320.682C74.788 320.682 75.334 320.803 75.81 321.046C76.2954 321.279 76.6734 321.611 76.944 322.04C77.2147 322.46 77.35 322.941 77.35 323.482C77.35 323.855 77.2194 324.247 76.958 324.658C76.6967 325.069 76.3607 325.409 75.95 325.68C76.4447 325.96 76.846 326.329 77.154 326.786C77.462 327.243 77.616 327.701 77.616 328.158C77.616 328.746 77.4714 329.273 77.182 329.74C76.8927 330.197 76.4867 330.557 75.964 330.818C75.4414 331.07 74.844 331.196 74.172 331.196C73.5 331.196 72.898 331.07 72.366 330.818C71.8434 330.557 71.4327 330.197 71.134 329.74C70.8447 329.273 70.7 328.746 70.7 328.158ZM72.45 323.482C72.45 323.949 72.6087 324.327 72.926 324.616C73.2434 324.905 73.6587 325.05 74.172 325.05C74.676 325.05 75.0867 324.905 75.404 324.616C75.7307 324.317 75.894 323.939 75.894 323.482C75.894 323.025 75.7307 322.651 75.404 322.362C75.0867 322.063 74.676 321.914 74.172 321.914C73.6587 321.914 73.2434 322.059 72.926 322.348C72.6087 322.637 72.45 323.015 72.45 323.482ZM82.9329 329.964C83.5582 329.964 84.0669 329.735 84.4589 329.278C84.8509 328.811 85.0469 328.205 85.0469 327.458C85.0469 326.721 84.8509 326.123 84.4589 325.666C84.0669 325.209 83.5582 324.98 82.9329 324.98C82.5409 324.98 82.1769 325.092 81.8409 325.316C81.5049 325.54 81.2389 325.843 81.0429 326.226C80.8469 326.599 80.7489 327.01 80.7489 327.458C80.7489 327.915 80.8469 328.335 81.0429 328.718C81.2389 329.101 81.5049 329.404 81.8409 329.628C82.1769 329.852 82.5409 329.964 82.9329 329.964ZM79.2789 323.776H80.7349V325.036C80.9869 324.616 81.3369 324.303 81.7849 324.098C82.2329 323.883 82.6435 323.776 83.0169 323.776C83.6982 323.776 84.3002 323.935 84.8229 324.252C85.3549 324.56 85.7655 324.994 86.0549 325.554C86.3535 326.105 86.5029 326.739 86.5029 327.458C86.5029 328.177 86.3535 328.821 86.0549 329.39C85.7655 329.95 85.3549 330.389 84.8229 330.706C84.3002 331.014 83.6982 331.168 83.0169 331.168C82.6435 331.168 82.2329 331.061 81.7849 330.846C81.3369 330.622 80.9869 330.3 80.7349 329.88V334.234H79.2789V323.776ZM91.6458 327.444L94.3478 331.098H92.5418L90.7918 328.62L89.0558 331.098H87.2498L89.9098 327.444L87.1938 323.776H89.0138L90.7918 326.324L92.5558 323.776H94.3758L91.6458 327.444Z" fill="#6B6B6B"/>
<path d="M250.119 329.768C250.249 329.647 250.725 329.208 251.547 328.452C252.303 327.771 252.905 327.211 253.353 326.772C253.81 326.324 254.193 325.867 254.501 325.4C254.809 324.924 254.963 324.476 254.963 324.056C254.963 323.477 254.795 323.006 254.459 322.642C254.132 322.269 253.707 322.082 253.185 322.082C252.783 322.082 252.396 322.213 252.023 322.474C251.649 322.735 251.374 323.071 251.197 323.482L249.923 322.922C250.203 322.287 250.646 321.769 251.253 321.368C251.869 320.957 252.513 320.752 253.185 320.752C253.81 320.752 254.365 320.892 254.851 321.172C255.345 321.452 255.728 321.844 255.999 322.348C256.279 322.843 256.419 323.412 256.419 324.056C256.419 324.691 256.227 325.321 255.845 325.946C255.471 326.571 255.014 327.15 254.473 327.682C253.941 328.214 253.259 328.835 252.429 329.544L252.177 329.768H256.573V331.042H250.259L250.119 329.768ZM261.616 329.852C262.073 329.852 262.479 329.689 262.834 329.362C263.198 329.035 263.478 328.578 263.674 327.99C263.87 327.393 263.968 326.711 263.968 325.946C263.968 325.171 263.87 324.49 263.674 323.902C263.478 323.314 263.202 322.857 262.848 322.53C262.493 322.203 262.082 322.04 261.616 322.04C261.149 322.04 260.734 322.203 260.37 322.53C260.015 322.857 259.74 323.314 259.544 323.902C259.348 324.49 259.25 325.171 259.25 325.946C259.25 326.711 259.348 327.393 259.544 327.99C259.74 328.578 260.015 329.035 260.37 329.362C260.734 329.689 261.149 329.852 261.616 329.852ZM257.794 325.946C257.794 324.947 257.957 324.056 258.284 323.272C258.61 322.479 259.063 321.863 259.642 321.424C260.22 320.976 260.878 320.752 261.616 320.752C262.353 320.752 263.011 320.976 263.59 321.424C264.168 321.863 264.616 322.479 264.934 323.272C265.26 324.056 265.424 324.947 265.424 325.946C265.424 326.945 265.26 327.841 264.934 328.634C264.616 329.418 264.168 330.029 263.59 330.468C263.011 330.907 262.353 331.126 261.616 331.126C260.878 331.126 260.22 330.907 259.642 330.468C259.063 330.029 258.61 329.418 258.284 328.634C257.957 327.841 257.794 326.945 257.794 325.946ZM270.724 329.964C271.35 329.964 271.858 329.735 272.25 329.278C272.642 328.811 272.838 328.205 272.838 327.458C272.838 326.721 272.642 326.123 272.25 325.666C271.858 325.209 271.35 324.98 270.724 324.98C270.332 324.98 269.968 325.092 269.632 325.316C269.296 325.54 269.03 325.843 268.834 326.226C268.638 326.599 268.54 327.01 268.54 327.458C268.54 327.915 268.638 328.335 268.834 328.718C269.03 329.101 269.296 329.404 269.632 329.628C269.968 329.852 270.332 329.964 270.724 329.964ZM267.07 323.776H268.526V325.036C268.778 324.616 269.128 324.303 269.576 324.098C270.024 323.883 270.435 323.776 270.808 323.776C271.49 323.776 272.092 323.935 272.614 324.252C273.146 324.56 273.557 324.994 273.846 325.554C274.145 326.105 274.294 326.739 274.294 327.458C274.294 328.177 274.145 328.821 273.846 329.39C273.557 329.95 273.146 330.389 272.614 330.706C272.092 331.014 271.49 331.168 270.808 331.168C270.435 331.168 270.024 331.061 269.576 330.846C269.128 330.622 268.778 330.3 268.526 329.88V334.234H267.07V323.776ZM279.437 327.444L282.139 331.098H280.333L278.583 328.62L276.847 331.098H275.041L277.701 327.444L274.985 323.776H276.805L278.583 326.324L280.347 323.776H282.167L279.437 327.444Z" fill="#6B6B6B"/>
<path d="M129.747 331.042L128.291 331.028V322.418L126.513 323.426L125.897 322.208L128.305 320.864H129.747V331.042ZM131.875 329.768C132.006 329.647 132.482 329.208 133.303 328.452C134.059 327.771 134.661 327.211 135.109 326.772C135.567 326.324 135.949 325.867 136.257 325.4C136.565 324.924 136.719 324.476 136.719 324.056C136.719 323.477 136.551 323.006 136.215 322.642C135.889 322.269 135.464 322.082 134.941 322.082C134.54 322.082 134.153 322.213 133.779 322.474C133.406 322.735 133.131 323.071 132.953 323.482L131.679 322.922C131.959 322.287 132.403 321.769 133.009 321.368C133.625 320.957 134.269 320.752 134.941 320.752C135.567 320.752 136.122 320.892 136.607 321.172C137.102 321.452 137.485 321.844 137.755 322.348C138.035 322.843 138.175 323.412 138.175 324.056C138.175 324.691 137.984 325.321 137.601 325.946C137.228 326.571 136.771 327.15 136.229 327.682C135.697 328.214 135.016 328.835 134.185 329.544L133.933 329.768H138.329V331.042H132.015L131.875 329.768ZM143.638 329.964C144.264 329.964 144.772 329.735 145.164 329.278C145.556 328.811 145.752 328.205 145.752 327.458C145.752 326.721 145.556 326.123 145.164 325.666C144.772 325.209 144.264 324.98 143.638 324.98C143.246 324.98 142.882 325.092 142.546 325.316C142.21 325.54 141.944 325.843 141.748 326.226C141.552 326.599 141.454 327.01 141.454 327.458C141.454 327.915 141.552 328.335 141.748 328.718C141.944 329.101 142.21 329.404 142.546 329.628C142.882 329.852 143.246 329.964 143.638 329.964ZM139.984 323.776H141.44V325.036C141.692 324.616 142.042 324.303 142.49 324.098C142.938 323.883 143.349 323.776 143.722 323.776C144.404 323.776 145.006 323.935 145.528 324.252C146.06 324.56 146.471 324.994 146.76 325.554C147.059 326.105 147.208 326.739 147.208 327.458C147.208 328.177 147.059 328.821 146.76 329.39C146.471 329.95 146.06 330.389 145.528 330.706C145.006 331.014 144.404 331.168 143.722 331.168C143.349 331.168 142.938 331.061 142.49 330.846C142.042 330.622 141.692 330.3 141.44 329.88V334.234H139.984V323.776ZM152.351 327.444L155.053 331.098H153.247L151.497 328.62L149.761 331.098H147.955L150.615 327.444L147.899 323.776H149.719L151.497 326.324L153.261 323.776H155.081L152.351 327.444Z" fill="#6B6B6B"/>
<path d="M322.276 329.768C322.407 329.647 322.883 329.208 323.704 328.452C324.46 327.771 325.062 327.211 325.51 326.772C325.967 326.324 326.35 325.867 326.658 325.4C326.966 324.924 327.12 324.476 327.12 324.056C327.12 323.477 326.952 323.006 326.616 322.642C326.289 322.269 325.865 322.082 325.342 322.082C324.941 322.082 324.553 322.213 324.18 322.474C323.807 322.735 323.531 323.071 323.354 323.482L322.08 322.922C322.36 322.287 322.803 321.769 323.41 321.368C324.026 320.957 324.67 320.752 325.342 320.752C325.967 320.752 326.523 320.892 327.008 321.172C327.503 321.452 327.885 321.844 328.156 322.348C328.436 322.843 328.576 323.412 328.576 324.056C328.576 324.691 328.385 325.321 328.002 325.946C327.629 326.571 327.171 327.15 326.63 327.682C326.098 328.214 325.417 328.835 324.586 329.544L324.334 329.768H328.73V331.042H322.416L322.276 329.768ZM335.943 327.122H337.245V328.396H335.943V331.042H334.501V328.396H330.105L329.965 327.122L334.557 320.85H335.943V327.122ZM334.501 327.122V323.272L331.701 327.122H334.501ZM342.567 329.964C343.192 329.964 343.701 329.735 344.093 329.278C344.485 328.811 344.681 328.205 344.681 327.458C344.681 326.721 344.485 326.123 344.093 325.666C343.701 325.209 343.192 324.98 342.567 324.98C342.175 324.98 341.811 325.092 341.475 325.316C341.139 325.54 340.873 325.843 340.677 326.226C340.481 326.599 340.383 327.01 340.383 327.458C340.383 327.915 340.481 328.335 340.677 328.718C340.873 329.101 341.139 329.404 341.475 329.628C341.811 329.852 342.175 329.964 342.567 329.964ZM338.913 323.776H340.369V325.036C340.621 324.616 340.971 324.303 341.419 324.098C341.867 323.883 342.278 323.776 342.651 323.776C343.332 323.776 343.934 323.935 344.457 324.252C344.989 324.56 345.4 324.994 345.689 325.554C345.988 326.105 346.137 326.739 346.137 327.458C346.137 328.177 345.988 328.821 345.689 329.39C345.4 329.95 344.989 330.389 344.457 330.706C343.934 331.014 343.332 331.168 342.651 331.168C342.278 331.168 341.867 331.061 341.419 330.846C340.971 330.622 340.621 330.3 340.369 329.88V334.234H338.913V323.776ZM351.28 327.444L353.982 331.098H352.176L350.426 328.62L348.69 331.098H346.884L349.544 327.444L346.828 323.776H348.648L350.426 326.324L352.19 323.776H354.01L351.28 327.444Z" fill="#6B6B6B"/>
<rect x="59.5" y="0.5" width="44" height="29" rx="14.5" fill="white"/>
<rect x="59.5" y="0.5" width="44" height="29" rx="14.5" stroke="#6B6B6B"/>
<path d="M78.4733 14.932L82.4213 20.098H80.5873L77.5773 16.122L74.5673 20.098H72.7193L76.6813 14.932L72.7193 9.794H74.5673L77.5773 13.742L80.5873 9.794H82.4213L78.4733 14.932ZM84.9028 17.186C85.2014 17.7553 85.5794 18.194 86.0368 18.502C86.4941 18.81 86.9654 18.964 87.4508 18.964C88.1041 18.964 88.6268 18.8147 89.0188 18.516C89.4201 18.208 89.6208 17.8067 89.6208 17.312C89.6208 16.976 89.5181 16.7007 89.3128 16.486C89.1168 16.262 88.8648 16.08 88.5568 15.94C88.2581 15.8 87.8428 15.6367 87.3108 15.45C86.6388 15.2167 86.0928 14.9927 85.6728 14.778C85.2528 14.5633 84.8934 14.26 84.5948 13.868C84.2961 13.476 84.1468 12.972 84.1468 12.356C84.1468 11.8147 84.2961 11.3433 84.5948 10.942C84.8934 10.5313 85.2994 10.2187 85.8128 10.004C86.3354 9.78933 86.9141 9.682 87.5488 9.682C88.2768 9.682 88.9488 9.88267 89.5648 10.284C90.1808 10.6853 90.6241 11.264 90.8948 12.02L89.6068 12.496C89.4388 11.992 89.1588 11.6093 88.7668 11.348C88.3841 11.0773 87.9781 10.942 87.5488 10.942C86.9888 10.942 86.5221 11.0727 86.1488 11.334C85.7848 11.5953 85.6028 11.9407 85.6028 12.37C85.6028 12.6967 85.7054 12.972 85.9108 13.196C86.1161 13.42 86.3681 13.6067 86.6668 13.756C86.9654 13.896 87.3854 14.064 87.9268 14.26C88.5988 14.5027 89.1448 14.7313 89.5648 14.946C89.9848 15.1607 90.3394 15.464 90.6288 15.856C90.9274 16.2387 91.0768 16.7287 91.0768 17.326C91.0768 17.8953 90.9228 18.3993 90.6148 18.838C90.3068 19.2767 89.8774 19.6173 89.3268 19.86C88.7761 20.1027 88.1461 20.224 87.4368 20.224C86.6714 20.224 85.9621 20.0187 85.3088 19.608C84.6648 19.188 84.1234 18.6047 83.6848 17.858L84.9028 17.186Z" fill="#121212"/>
<rect x="123.5" y="0.5" width="33" height="29" rx="14.5" fill="white"/>
<rect x="123.5" y="0.5" width="33" height="29" rx="14.5" stroke="#6B6B6B"/>
<path d="M137.903 17.186C138.201 17.7553 138.579 18.194 139.037 18.502C139.494 18.81 139.965 18.964 140.451 18.964C141.104 18.964 141.627 18.8147 142.019 18.516C142.42 18.208 142.621 17.8067 142.621 17.312C142.621 16.976 142.518 16.7007 142.313 16.486C142.117 16.262 141.865 16.08 141.557 15.94C141.258 15.8 140.843 15.6367 140.311 15.45C139.639 15.2167 139.093 14.9927 138.673 14.778C138.253 14.5633 137.893 14.26 137.595 13.868C137.296 13.476 137.147 12.972 137.147 12.356C137.147 11.8147 137.296 11.3433 137.595 10.942C137.893 10.5313 138.299 10.2187 138.813 10.004C139.335 9.78933 139.914 9.682 140.549 9.682C141.277 9.682 141.949 9.88267 142.565 10.284C143.181 10.6853 143.624 11.264 143.895 12.02L142.607 12.496C142.439 11.992 142.159 11.6093 141.767 11.348C141.384 11.0773 140.978 10.942 140.549 10.942C139.989 10.942 139.522 11.0727 139.149 11.334C138.785 11.5953 138.603 11.9407 138.603 12.37C138.603 12.6967 138.705 12.972 138.911 13.196C139.116 13.42 139.368 13.6067 139.667 13.756C139.965 13.896 140.385 14.064 140.927 14.26C141.599 14.5027 142.145 14.7313 142.565 14.946C142.985 15.1607 143.339 15.464 143.629 15.856C143.927 16.2387 144.077 16.7287 144.077 17.326C144.077 17.8953 143.923 18.3993 143.615 18.838C143.307 19.2767 142.877 19.6173 142.327 19.86C141.776 20.1027 141.146 20.224 140.437 20.224C139.671 20.224 138.962 20.0187 138.309 19.608C137.665 19.188 137.123 18.6047 136.685 17.858L137.903 17.186Z" fill="#121212"/>
<rect x="183.5" y="0.5" width="36" height="29" rx="14.5" fill="white"/>
<rect x="183.5" y="0.5" width="36" height="29" rx="14.5" stroke="#6B6B6B"/>
<path d="M197.656 12.328V20.098H196.2V9.794H197.768L201.52 15.87L205.272 9.794H206.84V20.098H205.384V12.314L201.52 18.362L197.656 12.328Z" fill="#121212"/>
<rect x="251.5" y="0.5" width="32" height="29" rx="14.5" fill="white"/>
<rect x="251.5" y="0.5" width="32" height="29" rx="14.5" stroke="#6B6B6B"/>
<path d="M266.031 18.838H271.141V20.098H264.575V9.794H266.031V18.838Z" fill="#121212"/>
<rect x="316.5" y="0.5" width="43" height="29" rx="14.5" fill="white"/>
<rect x="316.5" y="0.5" width="43" height="29" rx="14.5" stroke="#6B6B6B"/>
<path d="M334.774 14.932L338.722 20.098H336.888L333.878 16.122L330.868 20.098H329.02L332.982 14.932L329.02 9.794H330.868L333.878 13.742L336.888 9.794H338.722L334.774 14.932ZM342.031 18.838H347.141V20.098H340.575V9.794H342.031V18.838Z" fill="#121212"/>
<rect x="26" y="46" width="4" height="242" fill="white"/>
<rect x="26" y="46" width="4" height="242" fill="#FF0000" fill-opacity="0.1"/>
<rect x="78" y="46" width="8" height="242" fill="white"/>
<rect x="78" y="46" width="8" height="242" fill="#FF0000" fill-opacity="0.1"/>
<rect x="134" y="46" width="12" height="242" fill="white"/>
<rect x="134" y="46" width="12" height="242" fill="#FF0000" fill-opacity="0.1"/>
<rect x="194" y="46" width="16" height="242" fill="white"/>
<rect x="194" y="46" width="16" height="242" fill="#FF0000" fill-opacity="0.1"/>
<rect x="258" y="46" width="20" height="242" fill="white"/>
<rect x="258" y="46" width="20" height="242" fill="#FF0000" fill-opacity="0.1"/>
<rect x="326" y="46" width="24" height="242" fill="white"/>
<rect x="326" y="46" width="24" height="242" fill="#FF0000" fill-opacity="0.1"/>
</svg>
