<svg width="755" height="316" viewBox="0 0 755 316" fill="none" xmlns="http://www.w3.org/2000/svg">
<path d="M6 70C6 67.7909 7.79086 66 10 66H164C166.209 66 168 67.7909 168 70V224C168 226.209 166.209 228 164 228H10C7.79086 228 6 226.209 6 224V70Z" fill="white"/>
<path d="M296 74C296 69.5817 299.582 66 304 66H450C454.418 66 458 69.5817 458 74V220C458 224.418 454.418 228 450 228H304C299.582 228 296 224.418 296 220V74Z" fill="white"/>
<path d="M586 147C586 124.909 603.909 107 626 107H708C730.091 107 748 124.909 748 147C748 169.091 730.091 187 708 187H626C603.909 187 586 169.091 586 147Z" fill="white"/>
<path d="M80.9935 148.122H82.2955V149.396H80.9935V152.042H79.5515V149.396H75.1555L75.0155 148.122L79.6075 141.85H80.9935V148.122ZM79.5515 148.122V144.272L76.7515 148.122H79.5515ZM87.6174 150.964C88.2428 150.964 88.7514 150.735 89.1434 150.278C89.5354 149.811 89.7314 149.205 89.7314 148.458C89.7314 147.721 89.5354 147.123 89.1434 146.666C88.7514 146.209 88.2428 145.98 87.6174 145.98C87.2254 145.98 86.8614 146.092 86.5254 146.316C86.1894 146.54 85.9234 146.843 85.7274 147.226C85.5314 147.599 85.4334 148.01 85.4334 148.458C85.4334 148.915 85.5314 149.335 85.7274 149.718C85.9234 150.101 86.1894 150.404 86.5254 150.628C86.8614 150.852 87.2254 150.964 87.6174 150.964ZM83.9634 144.776H85.4194V146.036C85.6714 145.616 86.0214 145.303 86.4694 145.098C86.9174 144.883 87.3281 144.776 87.7014 144.776C88.3828 144.776 88.9848 144.935 89.5074 145.252C90.0394 145.56 90.4501 145.994 90.7394 146.554C91.0381 147.105 91.1874 147.739 91.1874 148.458C91.1874 149.177 91.0381 149.821 90.7394 150.39C90.4501 150.95 90.0394 151.389 89.5074 151.706C88.9848 152.014 88.3828 152.168 87.7014 152.168C87.3281 152.168 86.9174 152.061 86.4694 151.846C86.0214 151.622 85.6714 151.3 85.4194 150.88V155.234H83.9634V144.776ZM96.3303 148.444L99.0323 152.098H97.2263L95.4763 149.62L93.7403 152.098H91.9343L94.5943 148.444L91.8783 144.776H93.6983L95.4763 147.324L97.2403 144.776H99.0603L96.3303 148.444Z" fill="#6B6B6B"/>
<path d="M8.709 273.8V270.408H10.085V278.76H8.709V274.968H6.965V273.8H8.709ZM1.541 271.096H6.869V272.28H2.949V273.96H6.309V275.096H2.949V276.904C3.91966 276.893 4.741 276.861 5.413 276.808C6.09566 276.755 6.78366 276.664 7.477 276.536L7.605 277.704C6.84766 277.853 6.101 277.955 5.365 278.008C4.629 278.051 3.65833 278.072 2.453 278.072H1.541V271.096ZM3.285 279.512H12.837V284.232H11.381V280.696H3.285V279.512ZM11.445 270.104H12.837V278.856H11.445V270.104ZM21.8454 271.032V272.104C21.8454 272.861 22.08 273.592 22.5494 274.296C23.0294 275 23.6587 275.603 24.4374 276.104C25.2267 276.595 26.064 276.92 26.9494 277.08L26.2934 278.28C25.1627 278.024 24.1227 277.544 23.1734 276.84C22.224 276.136 21.5254 275.299 21.0774 274.328C20.6187 275.309 19.9147 276.152 18.9654 276.856C18.0267 277.56 16.992 278.035 15.8614 278.28L15.2214 277.08C16.096 276.92 16.9227 276.589 17.7014 276.088C18.4907 275.587 19.12 274.984 19.5894 274.28C20.0694 273.576 20.3094 272.851 20.3094 272.104V271.032H21.8454ZM14.7414 281.144H27.5254V282.344H14.7414V281.144ZM39.7817 271.272V272.456H31.6537V274.408H39.4777V275.576H31.6537V277.624H39.9257V278.808H30.1817V271.272H39.7817ZM28.5657 281.24H41.3497V282.44H28.5657V281.24ZM54.0221 270.12V277.4H52.5341V270.12H54.0221ZM42.6301 275.784C43.3661 275.784 43.9368 275.779 44.3421 275.768V272.2H43.0141V271.048H50.5821V272.2H49.2541V275.576C49.9261 275.533 50.5875 275.469 51.2381 275.384L51.3181 276.44C49.1101 276.792 46.2675 276.968 42.7901 276.968L42.6301 275.784ZM44.7261 278.072H54.0221V281.56H46.1981V282.92H54.5021V284.088H44.7581V280.488H52.5661V279.208H44.7261V278.072ZM45.7501 275.736C46.6888 275.715 47.3875 275.693 47.8461 275.672V272.2H45.7501V275.736ZM67.4145 271.368V272.568H59.2545V276.808H67.5585V277.992H57.8145V271.368H67.4145ZM56.2145 281.144H68.9985V282.344H56.2145V281.144ZM80.9424 271V276.824H74.3184V271H80.9424ZM75.2464 283.064C76.0784 282.968 76.841 282.781 77.5344 282.504C78.2384 282.216 78.7984 281.875 79.2144 281.48C79.641 281.075 79.865 280.659 79.8864 280.232H75.8064V279.112H79.9024V277.8H81.3744V279.112H85.4704V280.232H81.3904C81.4117 280.648 81.6304 281.059 82.0464 281.464C82.4624 281.859 83.0117 282.2 83.6944 282.488C84.3877 282.776 85.145 282.968 85.9664 283.064L85.4864 284.184C84.3984 284.045 83.4224 283.752 82.5584 283.304C81.6944 282.867 81.0544 282.333 80.6384 281.704C80.201 282.344 79.545 282.883 78.6704 283.32C77.8064 283.757 76.825 284.045 75.7264 284.184L75.2464 283.064ZM79.5344 275.656V272.168H75.7264V275.656H79.5344ZM83.7104 270.12H85.1664V278.184H83.7104V270.12ZM97.7662 278.648H99.3662V279.88H97.7662V283.016H96.3582V279.88H91.3182L91.1582 278.648L96.4062 271.432H97.7662V278.648ZM96.3582 278.648V273.816L92.8542 278.648H96.3582ZM105.097 281.896C105.641 281.896 106.127 281.699 106.553 281.304C106.98 280.909 107.311 280.36 107.545 279.656C107.791 278.941 107.913 278.131 107.913 277.224C107.913 276.317 107.791 275.512 107.545 274.808C107.311 274.104 106.98 273.555 106.553 273.16C106.127 272.765 105.641 272.568 105.097 272.568C104.543 272.568 104.052 272.765 103.625 273.16C103.199 273.555 102.863 274.104 102.617 274.808C102.383 275.512 102.265 276.317 102.265 277.224C102.265 278.131 102.383 278.941 102.617 279.656C102.863 280.36 103.199 280.909 103.625 281.304C104.052 281.699 104.543 281.896 105.097 281.896ZM100.857 277.224C100.857 276.083 101.039 275.064 101.401 274.168C101.764 273.272 102.265 272.573 102.905 272.072C103.545 271.571 104.276 271.32 105.097 271.32C105.919 271.32 106.649 271.571 107.289 272.072C107.929 272.573 108.425 273.272 108.777 274.168C109.14 275.064 109.321 276.083 109.321 277.224C109.321 278.365 109.14 279.384 108.777 280.28C108.425 281.176 107.929 281.875 107.289 282.376C106.649 282.877 105.919 283.128 105.097 283.128C104.276 283.128 103.545 282.877 102.905 282.376C102.265 281.875 101.764 281.176 101.401 280.28C101.039 279.384 100.857 278.365 100.857 277.224ZM115.335 281.96C115.836 281.96 116.279 281.832 116.663 281.576C117.057 281.32 117.361 280.968 117.575 280.52C117.799 280.061 117.911 279.544 117.911 278.968C117.911 278.392 117.799 277.88 117.575 277.432C117.361 276.984 117.057 276.637 116.663 276.392C116.279 276.136 115.836 276.008 115.335 276.008C114.865 276.008 114.428 276.141 114.023 276.408C113.628 276.675 113.308 277.037 113.063 277.496C112.828 277.944 112.711 278.435 112.711 278.968C112.711 279.512 112.828 280.013 113.063 280.472C113.308 280.931 113.628 281.293 114.023 281.56C114.428 281.827 114.865 281.96 115.335 281.96ZM111.287 274.792H112.695V276.392C112.972 275.88 113.367 275.491 113.879 275.224C114.401 274.947 114.903 274.808 115.383 274.808C116.151 274.808 116.833 274.984 117.431 275.336C118.028 275.688 118.492 276.179 118.823 276.808C119.153 277.437 119.319 278.157 119.319 278.968C119.319 279.779 119.153 280.504 118.823 281.144C118.492 281.773 118.028 282.269 117.431 282.632C116.833 282.984 116.151 283.16 115.383 283.16C114.913 283.16 114.417 283.016 113.895 282.728C113.372 282.44 112.972 282.051 112.695 281.56V286.68H111.287V274.792ZM124.817 278.936L127.905 283.064H126.161L124.033 280.12L121.937 283.064H120.177L123.233 278.936L120.145 274.792H121.921L124.033 277.784L126.161 274.792H127.921L124.817 278.936ZM144.202 270.088V284.248H142.746V270.088H144.202ZM133.114 276.12C133.114 275.128 133.269 274.259 133.578 273.512C133.887 272.765 134.314 272.189 134.858 271.784C135.402 271.379 136.026 271.176 136.73 271.176C137.423 271.176 138.042 271.379 138.586 271.784C139.141 272.189 139.573 272.765 139.882 273.512C140.191 274.259 140.346 275.128 140.346 276.12C140.346 277.112 140.191 277.987 139.882 278.744C139.573 279.491 139.141 280.067 138.586 280.472C138.042 280.877 137.423 281.08 136.73 281.08C136.026 281.08 135.402 280.877 134.858 280.472C134.314 280.067 133.887 279.491 133.578 278.744C133.269 277.987 133.114 277.112 133.114 276.12ZM134.522 276.12C134.522 276.856 134.613 277.501 134.794 278.056C134.986 278.6 135.247 279.021 135.578 279.32C135.919 279.619 136.303 279.768 136.73 279.768C137.157 279.768 137.535 279.619 137.866 279.32C138.207 279.021 138.469 278.6 138.65 278.056C138.842 277.501 138.938 276.856 138.938 276.12C138.938 275.384 138.842 274.744 138.65 274.2C138.469 273.645 138.207 273.224 137.866 272.936C137.535 272.637 137.157 272.488 136.73 272.488C136.303 272.488 135.919 272.637 135.578 272.936C135.247 273.224 134.986 273.645 134.794 274.2C134.613 274.744 134.522 275.384 134.522 276.12ZM157.37 270.12V275.848H159.61V277.064H157.37V284.232H155.914V270.12H157.37ZM146.378 272.328H149.834V270.296H151.322V272.328H154.698V273.512H146.378V272.328ZM147.13 277.864C147.13 277.235 147.28 276.675 147.578 276.184C147.877 275.683 148.288 275.293 148.81 275.016C149.344 274.739 149.936 274.6 150.586 274.6C151.248 274.6 151.84 274.739 152.362 275.016C152.896 275.293 153.312 275.683 153.61 276.184C153.909 276.675 154.058 277.235 154.058 277.864C154.058 278.493 153.909 279.059 153.61 279.56C153.312 280.051 152.896 280.435 152.362 280.712C151.84 280.989 151.248 281.128 150.586 281.128C149.936 281.128 149.344 280.989 148.81 280.712C148.288 280.435 147.877 280.051 147.578 279.56C147.28 279.059 147.13 278.493 147.13 277.864ZM148.522 277.864C148.522 278.472 148.714 278.968 149.098 279.352C149.482 279.736 149.978 279.928 150.586 279.928C151.194 279.928 151.69 279.736 152.074 279.352C152.469 278.968 152.666 278.472 152.666 277.864C152.666 277.256 152.469 276.76 152.074 276.376C151.69 275.992 151.194 275.8 150.586 275.8C149.989 275.8 149.493 275.992 149.098 276.376C148.714 276.76 148.522 277.256 148.522 277.864ZM164.843 271.112C165.568 271.112 166.219 271.256 166.795 271.544C167.371 271.832 167.819 272.232 168.139 272.744C168.469 273.245 168.635 273.821 168.635 274.472C168.635 275.123 168.469 275.704 168.139 276.216C167.819 276.728 167.371 277.128 166.795 277.416C166.219 277.693 165.568 277.832 164.843 277.832C164.107 277.832 163.445 277.693 162.859 277.416C162.283 277.128 161.829 276.728 161.499 276.216C161.179 275.704 161.019 275.123 161.019 274.472C161.019 273.821 161.179 273.245 161.499 272.744C161.829 272.232 162.283 271.832 162.859 271.544C163.445 271.256 164.107 271.112 164.843 271.112ZM160.347 279.992C162.139 279.992 163.771 279.965 165.243 279.912C166.725 279.848 168.139 279.715 169.483 279.512L169.595 280.584C168.208 280.851 166.789 281.021 165.339 281.096C163.899 281.171 162.293 281.208 160.523 281.208L160.347 279.992ZM162.443 274.472C162.443 275.091 162.667 275.597 163.115 275.992C163.573 276.376 164.149 276.568 164.843 276.568C165.525 276.568 166.091 276.376 166.539 275.992C166.987 275.597 167.211 275.091 167.211 274.472C167.211 273.853 166.987 273.352 166.539 272.968C166.091 272.573 165.525 272.376 164.843 272.376C164.149 272.376 163.573 272.568 163.115 272.952C162.667 273.336 162.443 273.843 162.443 274.472ZM170.363 270.088H171.835V284.248H170.363V270.088ZM22.7666 297.064V298.248H19.7266V298.632C19.7266 299.56 20.0306 300.419 20.6386 301.208C21.2466 301.987 22.0733 302.552 23.1186 302.904L22.3666 304.056C21.5986 303.789 20.9266 303.389 20.3506 302.856C19.7746 302.323 19.332 301.704 19.0226 301C18.7133 301.768 18.26 302.44 17.6626 303.016C17.0653 303.581 16.3613 304.013 15.5506 304.312L14.7666 303.176C15.844 302.803 16.6973 302.205 17.3266 301.384C17.956 300.552 18.2706 299.64 18.2706 298.648V298.248H15.1986V297.064H22.7666ZM16.6386 305.336H25.8546V310.232H24.3826V306.52H16.6386V305.336ZM24.3826 296.12H25.8546V299.768H27.8866V300.984H25.8546V304.6H24.3826V296.12ZM41.439 303.48V304.664H28.687V303.48H41.439ZM30.063 299.416C30.063 298.829 30.2657 298.323 30.671 297.896C31.087 297.469 31.6683 297.144 32.415 296.92C33.1723 296.685 34.0523 296.568 35.055 296.568C36.0683 296.568 36.9483 296.685 37.695 296.92C38.4523 297.144 39.0337 297.469 39.439 297.896C39.855 298.323 40.063 298.829 40.063 299.416C40.063 300.003 39.855 300.509 39.439 300.936C39.0337 301.363 38.4523 301.688 37.695 301.912C36.9483 302.136 36.0683 302.248 35.055 302.248C34.0523 302.248 33.1723 302.136 32.415 301.912C31.6683 301.688 31.087 301.363 30.671 300.936C30.2657 300.509 30.063 300.003 30.063 299.416ZM30.319 305.832H31.775V308.744H40.015V309.944H30.319V305.832ZM31.567 299.416C31.567 299.928 31.8817 300.333 32.511 300.632C33.1403 300.931 33.9883 301.08 35.055 301.08C36.143 301.08 36.9963 300.936 37.615 300.648C38.2443 300.349 38.559 299.939 38.559 299.416C38.559 298.893 38.2443 298.488 37.615 298.2C36.9963 297.912 36.143 297.768 35.055 297.768C33.9777 297.768 33.1243 297.912 32.495 298.2C31.8763 298.488 31.567 298.893 31.567 299.416ZM56.2309 299.8V296.104H57.6869V304.232H56.2309V300.984H53.2869V299.8H56.2309ZM51.4629 299.48C51.6229 299.064 51.7295 298.595 51.7829 298.072H47.0149V296.888H53.3349C53.3349 298.755 52.8122 300.323 51.7669 301.592C50.7322 302.861 49.1269 303.832 46.9509 304.504L46.3749 303.336C48.4975 302.717 49.9962 301.795 50.8709 300.568L46.5349 300.888L46.3269 299.704L51.4629 299.48ZM48.5349 304.952H57.6869V310.04H48.5349V304.952ZM56.2469 308.872V306.12H49.9589V308.872H56.2469ZM65.4952 307.304V304.248H60.9992V303.08H63.0792V298.6H60.9672V297.416H71.4952V298.6H69.3672V303.08H71.4632V304.248H66.9512V307.304H72.6472V308.504H59.8632V307.304H65.4952ZM67.9112 303.08V298.6H64.5512V303.08H67.9112ZM85.3516 296.104V306.296H83.8956V300.312H80.0076V299.112H83.8956V296.104H85.3516ZM74.4876 297.144H75.9596V302.84C77.0796 302.829 78.1036 302.787 79.0316 302.712C79.9596 302.627 80.893 302.488 81.8316 302.296L82.0076 303.512C80.9943 303.725 79.9863 303.875 78.9836 303.96C77.981 304.035 76.8556 304.072 75.6076 304.072H74.4876V297.144ZM76.2476 305.464H77.7036V308.728H85.7036V309.928H76.2476V305.464ZM98.728 297.272V298.456H90.6V300.408H98.424V301.576H90.6V303.624H98.872V304.808H89.128V297.272H98.728ZM87.512 307.24H100.296V308.44H87.512V307.24ZM114.104 301.912V303.096H101.352V301.912H114.104ZM102.856 304.216H112.472V307.624H104.328V308.92H112.888V310.072H102.904V306.552H111.032V305.336H102.856V304.216ZM103.016 296.536H112.44V297.72H104.472V299.704H112.584V300.856H103.016V296.536ZM127.177 296.104V310.216H125.785V296.104H127.177ZM115.321 302.2C115.321 301.197 115.443 300.323 115.689 299.576C115.934 298.819 116.281 298.243 116.729 297.848C117.187 297.443 117.721 297.24 118.329 297.24C119.182 297.24 119.875 297.624 120.409 298.392C120.953 299.16 121.262 300.205 121.337 301.528H122.953V296.408H124.329V309.528H122.953V302.728H121.337C121.273 304.104 120.969 305.192 120.425 305.992C119.891 306.781 119.193 307.176 118.329 307.176C117.721 307.176 117.187 306.973 116.729 306.568C116.281 306.163 115.934 305.587 115.689 304.84C115.443 304.093 115.321 303.213 115.321 302.2ZM116.649 302.2C116.649 303.331 116.798 304.216 117.097 304.856C117.395 305.485 117.806 305.8 118.329 305.8C118.862 305.8 119.278 305.485 119.577 304.856C119.875 304.216 120.025 303.331 120.025 302.2C120.025 301.08 119.875 300.205 119.577 299.576C119.278 298.936 118.862 298.616 118.329 298.616C117.806 298.616 117.395 298.936 117.097 299.576C116.798 300.205 116.649 301.08 116.649 302.2ZM142.689 299.72V296.12H144.145V304.536H142.689V300.92H140.081V299.72H142.689ZM132.513 303.192C133.217 302.947 133.83 302.589 134.353 302.12C134.886 301.651 135.297 301.117 135.585 300.52C135.873 299.912 136.017 299.283 136.017 298.632V298.216H132.961V297.032H140.513V298.216H137.489V298.632C137.489 299.539 137.793 300.387 138.401 301.176C139.009 301.955 139.83 302.525 140.865 302.888L140.129 304.04C139.361 303.763 138.689 303.357 138.113 302.824C137.537 302.28 137.094 301.651 136.785 300.936C136.475 301.725 136.017 302.419 135.409 303.016C134.801 303.613 134.086 304.056 133.265 304.344L132.513 303.192ZM134.689 305.272H144.145V310.232H142.689V306.472H134.689V305.272ZM149.425 303.032V301.112C148.87 300.888 148.444 300.6 148.145 300.248C147.857 299.885 147.713 299.475 147.713 299.016C147.713 298.184 148.161 297.533 149.057 297.064C149.953 296.595 151.169 296.36 152.705 296.36C154.252 296.36 155.473 296.595 156.369 297.064C157.265 297.533 157.713 298.184 157.713 299.016C157.713 299.475 157.564 299.885 157.265 300.248C156.977 300.6 156.556 300.888 156.001 301.112V303.032H159.089V304.184H146.337V303.032H149.425ZM147.857 307.688C147.857 306.888 148.284 306.269 149.137 305.832C150.001 305.395 151.19 305.176 152.705 305.176C154.22 305.176 155.404 305.395 156.257 305.832C157.121 306.269 157.553 306.888 157.553 307.688C157.553 308.488 157.126 309.107 156.273 309.544C155.42 309.992 154.23 310.216 152.705 310.216C151.18 310.216 149.99 309.992 149.137 309.544C148.284 309.107 147.857 308.488 147.857 307.688ZM149.217 299.016C149.217 299.485 149.526 299.853 150.145 300.12C150.764 300.387 151.617 300.52 152.705 300.52C153.793 300.52 154.646 300.387 155.265 300.12C155.894 299.853 156.209 299.485 156.209 299.016C156.209 298.536 155.9 298.163 155.281 297.896C154.662 297.619 153.804 297.48 152.705 297.48C151.617 297.48 150.764 297.619 150.145 297.896C149.526 298.163 149.217 298.536 149.217 299.016ZM149.329 307.688C149.329 308.147 149.622 308.499 150.209 308.744C150.796 308.979 151.628 309.096 152.705 309.096C153.772 309.096 154.598 308.979 155.185 308.744C155.772 308.499 156.065 308.147 156.065 307.688C156.065 307.24 155.772 306.899 155.185 306.664C154.598 306.419 153.772 306.296 152.705 306.296C151.628 306.296 150.796 306.419 150.209 306.664C149.622 306.899 149.329 307.24 149.329 307.688ZM154.561 303.032V301.496C154.006 301.592 153.388 301.64 152.705 301.64C152.044 301.64 151.43 301.592 150.865 301.496V303.032H154.561Z" fill="#6B6B6B"/>
<path d="M311.28 271.688V275.384H313.184V270.408H314.56V283.528H313.184V276.584H311.28V280.488H305.872V271.688H311.28ZM309.92 279.352V272.856H307.232V279.352H309.92ZM316 270.104H317.392V284.216H316V270.104ZM330.8 270.12V280.376H329.328V270.12H330.8ZM319.488 274.584C319.488 273.912 319.648 273.309 319.968 272.776C320.299 272.243 320.747 271.827 321.312 271.528C321.878 271.229 322.507 271.08 323.2 271.08C323.894 271.08 324.523 271.229 325.088 271.528C325.654 271.827 326.096 272.243 326.416 272.776C326.747 273.309 326.912 273.912 326.912 274.584C326.912 275.245 326.747 275.843 326.416 276.376C326.096 276.909 325.654 277.325 325.088 277.624C324.523 277.923 323.894 278.072 323.2 278.072C322.507 278.072 321.878 277.923 321.312 277.624C320.747 277.325 320.299 276.909 319.968 276.376C319.648 275.843 319.488 275.245 319.488 274.584ZM320.912 274.584C320.912 275.235 321.131 275.768 321.568 276.184C322.006 276.589 322.55 276.792 323.2 276.792C323.862 276.792 324.411 276.589 324.848 276.184C325.286 275.768 325.504 275.235 325.504 274.584C325.504 273.923 325.286 273.384 324.848 272.968C324.411 272.552 323.862 272.344 323.2 272.344C322.539 272.344 321.99 272.552 321.552 272.968C321.126 273.384 320.912 273.923 320.912 274.584ZM321.664 279.336H323.12V282.728H331.216V283.928H321.664V279.336ZM348.216 270.088V284.248H346.76V276.472H343.656V280.744H337.096V271.224H338.552V274.824H342.216V271.224H343.656V275.288H346.76V270.088H348.216ZM342.216 279.544V275.976H338.552V279.544H342.216ZM363.113 277.88V279.064H350.377V277.88H363.113ZM351.993 280.008H353.449V282.744H361.801V283.944H351.993V280.008ZM352.041 270.616H361.577V271.752H353.497V273.08H361.225V274.184H353.497V275.56H361.673V276.68H352.041V270.616ZM365.289 284.968H364.249L364.777 281.672H366.265L365.289 284.968ZM383.108 270.12V273.704H385.124V274.936H383.108V278.616H381.636V270.12H383.108ZM372.66 271H374.116V273.128H377.812V271H379.252V277.704H372.66V271ZM373.876 279.336H383.108V284.232H381.636V280.52H373.876V279.336ZM377.812 276.552V274.264H374.116V276.552H377.812ZM393.028 271.032V272.104C393.028 272.861 393.263 273.592 393.732 274.296C394.212 275 394.842 275.603 395.62 276.104C396.41 276.595 397.247 276.92 398.132 277.08L397.476 278.28C396.346 278.024 395.306 277.544 394.356 276.84C393.407 276.136 392.708 275.299 392.26 274.328C391.802 275.309 391.098 276.152 390.148 276.856C389.21 277.56 388.175 278.035 387.044 278.28L386.404 277.08C387.279 276.92 388.106 276.589 388.884 276.088C389.674 275.587 390.303 274.984 390.772 274.28C391.252 273.576 391.492 272.851 391.492 272.104V271.032H393.028ZM385.924 281.144H398.708V282.344H385.924V281.144ZM400.837 284.968H399.797L400.325 281.672H401.813L400.837 284.968ZM415.599 271.064V272.248H414.239V276.056C414.943 276.003 415.599 275.939 416.207 275.864L416.303 276.936C415.045 277.139 413.711 277.277 412.303 277.352C410.895 277.416 409.407 277.448 407.839 277.448L407.663 276.248H409.375V272.248H408.031V271.064H415.599ZM409.663 278.52H411.119V280.088H417.199V278.52H418.639V284.04H409.663V278.52ZM410.783 276.216C411.722 276.195 412.41 276.173 412.847 276.152V272.248H410.783V276.216ZM417.199 282.856V281.24H411.119V282.856H417.199ZM417.167 270.12H418.639V273.32H420.671V274.552H418.639V277.912H417.167V270.12ZM425.328 270.744C426.256 270.744 427.05 270.989 427.712 271.48C428.373 271.971 428.773 272.616 428.912 273.416H431.664V270.12H433.12V277.688H431.664V274.6H428.928C428.789 275.421 428.389 276.083 427.728 276.584C427.066 277.085 426.266 277.336 425.328 277.336C424.624 277.336 423.994 277.197 423.44 276.92C422.885 276.632 422.448 276.243 422.128 275.752C421.818 275.251 421.664 274.68 421.664 274.04C421.664 273.4 421.818 272.835 422.128 272.344C422.448 271.843 422.885 271.453 423.44 271.176C423.994 270.888 424.624 270.744 425.328 270.744ZM423.072 274.04C423.072 274.659 423.28 275.16 423.696 275.544C424.122 275.917 424.666 276.104 425.328 276.104C425.989 276.104 426.528 275.912 426.944 275.528C427.36 275.144 427.568 274.648 427.568 274.04C427.568 273.421 427.36 272.925 426.944 272.552C426.528 272.168 425.989 271.976 425.328 271.976C424.656 271.976 424.112 272.168 423.696 272.552C423.28 272.925 423.072 273.421 423.072 274.04ZM424 278.376H425.472V280.04H431.664V278.376H433.12V284.04H424V278.376ZM431.664 282.872V281.176H425.472V282.872H431.664ZM451.592 276.776V277.976H438.84V276.776H451.592ZM440.344 281.656C440.344 280.845 440.77 280.216 441.624 279.768C442.477 279.32 443.666 279.096 445.192 279.096C446.706 279.096 447.89 279.32 448.744 279.768C449.608 280.216 450.04 280.845 450.04 281.656C450.04 282.467 449.608 283.096 448.744 283.544C447.89 283.992 446.706 284.216 445.192 284.216C443.666 284.216 442.477 283.992 441.624 283.544C440.77 283.096 440.344 282.467 440.344 281.656ZM440.44 270.632H450.008V271.832H441.88V274.344H450.104V275.512H440.44V270.632ZM441.816 281.656C441.816 282.115 442.109 282.467 442.696 282.712C443.282 282.957 444.114 283.08 445.192 283.08C446.258 283.08 447.085 282.957 447.672 282.712C448.258 282.467 448.552 282.115 448.552 281.656C448.552 281.208 448.258 280.861 447.672 280.616C447.085 280.36 446.258 280.232 445.192 280.232C444.125 280.232 443.293 280.36 442.696 280.616C442.109 280.861 441.816 281.208 441.816 281.656ZM293.031 296.808V301.752C294.119 301.741 295.132 301.699 296.071 301.624C297.009 301.539 297.959 301.405 298.919 301.224L299.111 302.424C298.044 302.627 297.004 302.771 295.991 302.856C294.977 302.931 293.879 302.968 292.695 302.968H291.575V296.808H293.031ZM292.455 304.248H297.047V307.592H293.895V308.968C294.663 308.957 295.292 308.936 295.783 308.904C296.284 308.861 296.796 308.792 297.319 308.696L297.447 309.8C296.849 309.917 296.268 309.992 295.703 310.024C295.137 310.056 294.321 310.072 293.255 310.072H292.471V306.536H295.623V305.368H292.455V304.248ZM297.095 298.36H300.967V296.104H302.423V303.576H300.967V299.56H297.095V298.36ZM297.863 304.12H299.175V305.864H301.095V304.12H302.423V310.072H297.863V304.12ZM301.095 308.936V306.984H299.175V308.936H301.095ZM317.351 303.48V304.664H304.599V303.48H317.351ZM305.975 299.416C305.975 298.829 306.178 298.323 306.583 297.896C306.999 297.469 307.58 297.144 308.327 296.92C309.084 296.685 309.964 296.568 310.967 296.568C311.98 296.568 312.86 296.685 313.607 296.92C314.364 297.144 314.946 297.469 315.351 297.896C315.767 298.323 315.975 298.829 315.975 299.416C315.975 300.003 315.767 300.509 315.351 300.936C314.946 301.363 314.364 301.688 313.607 301.912C312.86 302.136 311.98 302.248 310.967 302.248C309.964 302.248 309.084 302.136 308.327 301.912C307.58 301.688 306.999 301.363 306.583 300.936C306.178 300.509 305.975 300.003 305.975 299.416ZM306.231 305.832H307.687V308.744H315.927V309.944H306.231V305.832ZM307.479 299.416C307.479 299.928 307.794 300.333 308.423 300.632C309.052 300.931 309.9 301.08 310.967 301.08C312.055 301.08 312.908 300.936 313.527 300.648C314.156 300.349 314.471 299.939 314.471 299.416C314.471 298.893 314.156 298.488 313.527 298.2C312.908 297.912 312.055 297.768 310.967 297.768C309.89 297.768 309.036 297.912 308.407 298.2C307.788 298.488 307.479 298.893 307.479 299.416ZM329.071 297.304V298.536H332.143V296.12H333.599V306.408H332.143V302.744H329.071V303.992H322.591V297.304H329.071ZM327.647 302.808V298.472H324.015V302.808H327.647ZM324.479 305.48H325.935V308.728H333.935V309.928H324.479V305.48ZM332.143 301.56V299.72H329.071V301.56H332.143ZM345.951 299.72V296.12H347.407V304.536H345.951V300.92H343.343V299.72H345.951ZM335.775 303.192C336.479 302.947 337.092 302.589 337.615 302.12C338.148 301.651 338.559 301.117 338.847 300.52C339.135 299.912 339.279 299.283 339.279 298.632V298.216H336.223V297.032H343.775V298.216H340.751V298.632C340.751 299.539 341.055 300.387 341.663 301.176C342.271 301.955 343.092 302.525 344.127 302.888L343.391 304.04C342.623 303.763 341.951 303.357 341.375 302.824C340.799 302.28 340.356 301.651 340.047 300.936C339.738 301.725 339.279 302.419 338.671 303.016C338.063 303.613 337.348 304.056 336.527 304.344L335.775 303.192ZM337.951 305.272H347.407V310.232H345.951V306.472H337.951V305.272ZM354.16 297.112C354.885 297.112 355.536 297.256 356.112 297.544C356.688 297.832 357.136 298.232 357.456 298.744C357.786 299.245 357.952 299.821 357.952 300.472C357.952 301.123 357.786 301.704 357.456 302.216C357.136 302.728 356.688 303.128 356.112 303.416C355.536 303.693 354.885 303.832 354.16 303.832C353.424 303.832 352.762 303.693 352.176 303.416C351.6 303.128 351.146 302.728 350.816 302.216C350.496 301.704 350.336 301.123 350.336 300.472C350.336 299.821 350.496 299.245 350.816 298.744C351.146 298.232 351.6 297.832 352.176 297.544C352.762 297.256 353.424 297.112 354.16 297.112ZM349.664 305.992C351.456 305.992 353.088 305.965 354.56 305.912C356.042 305.848 357.456 305.715 358.8 305.512L358.912 306.584C357.525 306.851 356.106 307.021 354.656 307.096C353.216 307.171 351.61 307.208 349.84 307.208L349.664 305.992ZM351.76 300.472C351.76 301.091 351.984 301.597 352.432 301.992C352.89 302.376 353.466 302.568 354.16 302.568C354.842 302.568 355.408 302.376 355.856 301.992C356.304 301.597 356.528 301.091 356.528 300.472C356.528 299.853 356.304 299.352 355.856 298.968C355.408 298.573 354.842 298.376 354.16 298.376C353.466 298.376 352.89 298.568 352.432 298.952C351.984 299.336 351.76 299.843 351.76 300.472ZM359.68 296.088H361.152V310.248H359.68V296.088ZM377.143 299.8V296.104H378.599V304.232H377.143V300.984H374.199V299.8H377.143ZM372.375 299.48C372.535 299.064 372.642 298.595 372.695 298.072H367.927V296.888H374.247C374.247 298.755 373.725 300.323 372.679 301.592C371.645 302.861 370.039 303.832 367.863 304.504L367.287 303.336C369.41 302.717 370.909 301.795 371.783 300.568L367.447 300.888L367.239 299.704L372.375 299.48ZM369.447 304.952H378.599V310.04H369.447V304.952ZM377.159 308.872V306.12H370.871V308.872H377.159ZM386.408 307.304V304.248H381.912V303.08H383.992V298.6H381.88V297.416H392.408V298.6H390.28V303.08H392.376V304.248H387.864V307.304H393.56V308.504H380.776V307.304H386.408ZM388.824 303.08V298.6H385.464V303.08H388.824ZM406.264 296.104V306.296H404.808V300.312H400.92V299.112H404.808V296.104H406.264ZM395.4 297.144H396.872V302.84C397.992 302.829 399.016 302.787 399.944 302.712C400.872 302.627 401.805 302.488 402.744 302.296L402.92 303.512C401.907 303.725 400.899 303.875 399.896 303.96C398.893 304.035 397.768 304.072 396.52 304.072H395.4V297.144ZM397.16 305.464H398.616V308.728H406.616V309.928H397.16V305.464ZM419.641 297.272V298.456H411.513V300.408H419.337V301.576H411.513V303.624H419.785V304.808H410.041V297.272H419.641ZM408.425 307.24H421.209V308.44H408.425V307.24ZM434.265 296.104V310.216H432.873V296.104H434.265ZM422.409 302.2C422.409 301.197 422.532 300.323 422.777 299.576C423.022 298.819 423.369 298.243 423.817 297.848C424.276 297.443 424.809 297.24 425.417 297.24C426.27 297.24 426.964 297.624 427.497 298.392C428.041 299.16 428.35 300.205 428.425 301.528H430.041V296.408H431.417V309.528H430.041V302.728H428.425C428.361 304.104 428.057 305.192 427.513 305.992C426.98 306.781 426.281 307.176 425.417 307.176C424.809 307.176 424.276 306.973 423.817 306.568C423.369 306.163 423.022 305.587 422.777 304.84C422.532 304.093 422.409 303.213 422.409 302.2ZM423.737 302.2C423.737 303.331 423.886 304.216 424.185 304.856C424.484 305.485 424.894 305.8 425.417 305.8C425.95 305.8 426.366 305.485 426.665 304.856C426.964 304.216 427.113 303.331 427.113 302.2C427.113 301.08 426.964 300.205 426.665 299.576C426.366 298.936 425.95 298.616 425.417 298.616C424.894 298.616 424.484 298.936 424.185 299.576C423.886 300.205 423.737 301.08 423.737 302.2ZM449.777 299.72V296.12H451.233V304.536H449.777V300.92H447.169V299.72H449.777ZM439.601 303.192C440.305 302.947 440.918 302.589 441.441 302.12C441.974 301.651 442.385 301.117 442.673 300.52C442.961 299.912 443.105 299.283 443.105 298.632V298.216H440.049V297.032H447.601V298.216H444.577V298.632C444.577 299.539 444.881 300.387 445.489 301.176C446.097 301.955 446.918 302.525 447.953 302.888L447.217 304.04C446.449 303.763 445.777 303.357 445.201 302.824C444.625 302.28 444.182 301.651 443.873 300.936C443.563 301.725 443.105 302.419 442.497 303.016C441.889 303.613 441.174 304.056 440.353 304.344L439.601 303.192ZM441.777 305.272H451.233V310.232H449.777V306.472H441.777V305.272ZM456.513 303.032V301.112C455.958 300.888 455.532 300.6 455.233 300.248C454.945 299.885 454.801 299.475 454.801 299.016C454.801 298.184 455.249 297.533 456.145 297.064C457.041 296.595 458.257 296.36 459.793 296.36C461.34 296.36 462.561 296.595 463.457 297.064C464.353 297.533 464.801 298.184 464.801 299.016C464.801 299.475 464.652 299.885 464.353 300.248C464.065 300.6 463.644 300.888 463.089 301.112V303.032H466.177V304.184H453.425V303.032H456.513ZM454.945 307.688C454.945 306.888 455.372 306.269 456.225 305.832C457.089 305.395 458.278 305.176 459.793 305.176C461.308 305.176 462.492 305.395 463.345 305.832C464.209 306.269 464.641 306.888 464.641 307.688C464.641 308.488 464.214 309.107 463.361 309.544C462.508 309.992 461.318 310.216 459.793 310.216C458.268 310.216 457.078 309.992 456.225 309.544C455.372 309.107 454.945 308.488 454.945 307.688ZM456.305 299.016C456.305 299.485 456.614 299.853 457.233 300.12C457.852 300.387 458.705 300.52 459.793 300.52C460.881 300.52 461.734 300.387 462.353 300.12C462.982 299.853 463.297 299.485 463.297 299.016C463.297 298.536 462.988 298.163 462.369 297.896C461.75 297.619 460.892 297.48 459.793 297.48C458.705 297.48 457.852 297.619 457.233 297.896C456.614 298.163 456.305 298.536 456.305 299.016ZM456.417 307.688C456.417 308.147 456.71 308.499 457.297 308.744C457.884 308.979 458.716 309.096 459.793 309.096C460.86 309.096 461.686 308.979 462.273 308.744C462.86 308.499 463.153 308.147 463.153 307.688C463.153 307.24 462.86 306.899 462.273 306.664C461.686 306.419 460.86 306.296 459.793 306.296C458.716 306.296 457.884 306.419 457.297 306.664C456.71 306.899 456.417 307.24 456.417 307.688ZM461.649 303.032V301.496C461.094 301.592 460.476 301.64 459.793 301.64C459.132 301.64 458.518 301.592 457.953 301.496V303.032H461.649Z" fill="#6B6B6B"/>
<path d="M628.254 274.824V270.088H629.71V284.248H628.254V276.008H625.118V274.824H628.254ZM617.998 280.104C618.691 279.763 619.31 279.256 619.854 278.584C620.409 277.912 620.841 277.149 621.15 276.296C621.459 275.443 621.614 274.579 621.614 273.704V271.288H623.07V273.704C623.07 274.557 623.219 275.4 623.518 276.232C623.827 277.053 624.249 277.784 624.782 278.424C625.326 279.053 625.945 279.533 626.638 279.864L625.774 281.032C624.995 280.637 624.307 280.061 623.71 279.304C623.123 278.536 622.67 277.661 622.35 276.68C622.041 277.704 621.582 278.621 620.974 279.432C620.377 280.243 619.689 280.856 618.91 281.272L617.998 280.104ZM644.67 281.176V282.392H631.886V281.176H644.67ZM633.358 271.096H634.814V273.608H641.726V271.096H643.182V278.472H633.358V271.096ZM641.726 277.304V274.776H634.814V277.304H641.726ZM660.902 270.088V284.248H659.446V276.472H656.342V280.744H649.782V271.224H651.238V274.824H654.902V271.224H656.342V275.288H659.446V270.088H660.902ZM654.902 279.544V275.976H651.238V279.544H654.902ZM675.799 277.88V279.064H663.063V277.88H675.799ZM664.679 280.008H666.135V282.744H674.487V283.944H664.679V280.008ZM664.727 270.616H674.263V271.752H666.183V273.08H673.911V274.184H666.183V275.56H674.359V276.68H664.727V270.616ZM677.975 284.968H676.935L677.463 281.672H678.951L677.975 284.968ZM696.37 270.12V277.896H694.914V270.12H696.37ZM684.994 276.808C686.071 276.477 686.924 275.949 687.554 275.224C688.183 274.488 688.503 273.667 688.514 272.76H685.394V271.592H688.514V270.024H689.97V271.592H693.058V272.76H689.954C689.964 273.592 690.29 274.355 690.93 275.048C691.58 275.741 692.439 276.237 693.506 276.536L692.834 277.672C692.023 277.437 691.308 277.08 690.69 276.6C690.071 276.109 689.596 275.539 689.266 274.888C688.946 275.613 688.476 276.243 687.858 276.776C687.25 277.299 686.53 277.688 685.698 277.944L684.994 276.808ZM687.218 278.52H688.674V280.072H694.93V278.52H696.37V284.04H687.218V278.52ZM694.93 282.872V281.224H688.674V282.872H694.93ZM714.906 276.776V277.976H702.154V276.776H714.906ZM703.658 281.656C703.658 280.845 704.084 280.216 704.938 279.768C705.791 279.32 706.98 279.096 708.506 279.096C710.02 279.096 711.204 279.32 712.058 279.768C712.922 280.216 713.354 280.845 713.354 281.656C713.354 282.467 712.922 283.096 712.058 283.544C711.204 283.992 710.02 284.216 708.506 284.216C706.98 284.216 705.791 283.992 704.938 283.544C704.084 283.096 703.658 282.467 703.658 281.656ZM703.754 270.632H713.322V271.832H705.194V274.344H713.418V275.512H703.754V270.632ZM705.13 281.656C705.13 282.115 705.423 282.467 706.01 282.712C706.596 282.957 707.428 283.08 708.506 283.08C709.572 283.08 710.399 282.957 710.986 282.712C711.572 282.467 711.866 282.115 711.866 281.656C711.866 281.208 711.572 280.861 710.986 280.616C710.399 280.36 709.572 280.232 708.506 280.232C707.439 280.232 706.607 280.36 706.01 280.616C705.423 280.861 705.13 281.208 705.13 281.656ZM591.543 302.68V303.848H585.879V305.128C587.18 305.203 588.188 305.464 588.903 305.912C589.628 306.349 589.991 306.936 589.991 307.672C589.991 308.472 589.559 309.096 588.695 309.544C587.841 309.992 586.657 310.216 585.143 310.216C583.628 310.216 582.439 309.992 581.575 309.544C580.721 309.096 580.295 308.472 580.295 307.672C580.295 306.925 580.652 306.333 581.367 305.896C582.092 305.459 583.111 305.203 584.423 305.128V303.848H578.791V302.68H591.543ZM580.391 296.76H589.959V297.928H581.831V300.28H590.055V301.464H580.391V296.76ZM581.767 307.672C581.767 308.131 582.06 308.483 582.647 308.728C583.233 308.963 584.065 309.08 585.143 309.08C586.22 309.08 587.047 308.963 587.623 308.728C588.209 308.483 588.503 308.131 588.503 307.672C588.503 307.213 588.209 306.861 587.623 306.616C587.036 306.371 586.209 306.248 585.143 306.248C584.076 306.248 583.244 306.371 582.647 306.616C582.06 306.861 581.767 307.213 581.767 307.672ZM603.783 296.952V298.072C603.783 298.904 603.762 299.651 603.719 300.312C603.687 300.973 603.591 301.715 603.431 302.536H605.383V303.736H592.599V302.536H601.975C602.135 301.715 602.236 300.979 602.279 300.328C602.322 299.677 602.343 298.941 602.343 298.12H594.231V296.952H603.783ZM594.263 305.224H595.719V308.744H604.183V309.928H594.263V305.224ZM614.783 297.304V299.704C614.783 300.536 614.932 301.357 615.231 302.168C615.529 302.979 615.945 303.704 616.479 304.344C617.012 304.984 617.62 305.475 618.303 305.816L617.423 306.968C616.665 306.573 615.999 306.003 615.423 305.256C614.847 304.509 614.404 303.656 614.095 302.696C613.764 303.72 613.3 304.632 612.703 305.432C612.105 306.232 611.412 306.835 610.623 307.24L609.743 306.056C610.436 305.715 611.055 305.213 611.599 304.552C612.153 303.88 612.585 303.123 612.895 302.28C613.204 301.427 613.359 300.568 613.359 299.704V297.304H614.783ZM619.375 296.12H620.847V301.752H623.103V302.984H620.847V310.232H619.375V296.12ZM634.767 296.104V299.608H636.799V300.824H634.767V304.376H633.295V296.104H634.767ZM623.711 303.112C625.386 302.664 626.708 302.013 627.679 301.16C628.65 300.296 629.199 299.299 629.327 298.168H624.367V297H630.895C630.895 298.781 630.319 300.296 629.167 301.544C628.026 302.792 626.41 303.699 624.319 304.264L623.711 303.112ZM625.551 305H634.767V310.232H633.295V306.184H625.551V305ZM647.776 299.432V296.104H649.232V305.192H647.776V303.368H645.504V302.2H647.776V300.6H645.536V299.432H647.776ZM637.616 297.608H640.88V295.992H642.352V297.608H645.488V298.76H637.616V297.608ZM638.384 302.056C638.384 301.544 638.517 301.091 638.784 300.696C639.061 300.301 639.44 299.997 639.92 299.784C640.41 299.56 640.97 299.448 641.6 299.448C642.56 299.448 643.333 299.688 643.92 300.168C644.517 300.648 644.816 301.277 644.816 302.056C644.816 302.568 644.677 303.027 644.4 303.432C644.133 303.827 643.754 304.136 643.264 304.36C642.784 304.573 642.229 304.68 641.6 304.68C640.981 304.68 640.426 304.573 639.936 304.36C639.445 304.136 639.061 303.827 638.784 303.432C638.517 303.027 638.384 302.568 638.384 302.056ZM639.76 302.056C639.76 302.515 639.925 302.883 640.256 303.16C640.586 303.437 641.034 303.576 641.6 303.576C642.154 303.576 642.602 303.437 642.944 303.16C643.285 302.883 643.456 302.515 643.456 302.056C643.456 301.597 643.285 301.235 642.944 300.968C642.602 300.691 642.154 300.552 641.6 300.552C641.034 300.552 640.586 300.691 640.256 300.968C639.925 301.235 639.76 301.597 639.76 302.056ZM639.856 307.784C639.856 307.016 640.272 306.419 641.104 305.992C641.946 305.565 643.109 305.352 644.592 305.352C646.053 305.352 647.205 305.565 648.048 305.992C648.89 306.419 649.312 307.016 649.312 307.784C649.312 308.541 648.89 309.133 648.048 309.56C647.205 309.987 646.053 310.2 644.592 310.2C643.12 310.2 641.962 309.987 641.12 309.56C640.277 309.133 639.856 308.541 639.856 307.784ZM641.376 307.784C641.376 308.2 641.658 308.52 642.224 308.744C642.789 308.968 643.578 309.08 644.592 309.08C645.594 309.08 646.373 308.968 646.928 308.744C647.493 308.52 647.776 308.2 647.776 307.784C647.776 307.368 647.493 307.048 646.928 306.824C646.373 306.6 645.594 306.488 644.592 306.488C643.568 306.488 642.773 306.6 642.208 306.824C641.653 307.048 641.376 307.368 641.376 307.784ZM657.792 296.36C659.371 296.36 660.597 296.568 661.472 296.984C662.357 297.4 662.8 297.997 662.8 298.776C662.8 299.565 662.357 300.173 661.472 300.6C660.597 301.016 659.371 301.224 657.792 301.224C656.213 301.224 654.987 301.016 654.112 300.6C653.237 300.173 652.8 299.565 652.8 298.776C652.8 297.997 653.237 297.4 654.112 296.984C654.987 296.568 656.213 296.36 657.792 296.36ZM651.424 302.104H664.176V303.272H651.424V302.104ZM652.944 304.376H662.56V307.656H654.416V308.952H662.976V310.088H652.992V306.616H661.12V305.48H652.944V304.376ZM654.304 298.776C654.304 299.213 654.603 299.549 655.2 299.784C655.808 300.008 656.672 300.12 657.792 300.12C658.923 300.12 659.787 300.008 660.384 299.784C660.992 299.549 661.296 299.213 661.296 298.776C661.296 298.349 660.992 298.019 660.384 297.784C659.776 297.549 658.912 297.432 657.792 297.432C656.683 297.432 655.824 297.549 655.216 297.784C654.608 298.019 654.304 298.349 654.304 298.776ZM679.768 296.104V299.656H681.784V300.872H679.768V304.424H678.312V296.104H679.768ZM668.68 303.112C670.248 303.112 671.474 303.101 672.36 303.08V302.232C671.538 302.157 670.898 301.965 670.44 301.656C669.981 301.336 669.752 300.92 669.752 300.408C669.752 299.832 670.05 299.384 670.648 299.064C671.245 298.733 672.05 298.568 673.064 298.568C674.088 298.568 674.898 298.733 675.496 299.064C676.093 299.384 676.392 299.832 676.392 300.408C676.392 300.92 676.162 301.336 675.704 301.656C675.256 301.965 674.626 302.157 673.816 302.232V303.016C675.245 302.941 676.482 302.835 677.528 302.696L677.624 303.608C676.301 303.832 674.925 303.981 673.496 304.056C672.066 304.12 670.514 304.152 668.84 304.152L668.68 303.112ZM669.032 297.128H672.36V295.976H673.816V297.128H677.112V298.152H669.032V297.128ZM670.568 305.048H679.768V307.96H672.024V309.064H680.296V310.088H670.584V307.032H678.344V306.04H670.568V305.048ZM671.144 300.408C671.144 300.696 671.314 300.92 671.656 301.08C671.997 301.24 672.466 301.32 673.064 301.32C673.672 301.32 674.146 301.24 674.488 301.08C674.84 300.92 675.016 300.696 675.016 300.408C675.016 300.131 674.84 299.912 674.488 299.752C674.146 299.581 673.672 299.496 673.064 299.496C672.477 299.496 672.008 299.581 671.656 299.752C671.314 299.912 671.144 300.131 671.144 300.408ZM685.688 303.032V301.112C685.133 300.888 684.707 300.6 684.408 300.248C684.12 299.885 683.976 299.475 683.976 299.016C683.976 298.184 684.424 297.533 685.32 297.064C686.216 296.595 687.432 296.36 688.968 296.36C690.515 296.36 691.736 296.595 692.632 297.064C693.528 297.533 693.976 298.184 693.976 299.016C693.976 299.475 693.827 299.885 693.528 300.248C693.24 300.6 692.819 300.888 692.264 301.112V303.032H695.352V304.184H682.6V303.032H685.688ZM684.12 307.688C684.12 306.888 684.547 306.269 685.4 305.832C686.264 305.395 687.453 305.176 688.968 305.176C690.483 305.176 691.667 305.395 692.52 305.832C693.384 306.269 693.816 306.888 693.816 307.688C693.816 308.488 693.389 309.107 692.536 309.544C691.683 309.992 690.493 310.216 688.968 310.216C687.443 310.216 686.253 309.992 685.4 309.544C684.547 309.107 684.12 308.488 684.12 307.688ZM685.48 299.016C685.48 299.485 685.789 299.853 686.408 300.12C687.027 300.387 687.88 300.52 688.968 300.52C690.056 300.52 690.909 300.387 691.528 300.12C692.157 299.853 692.472 299.485 692.472 299.016C692.472 298.536 692.163 298.163 691.544 297.896C690.925 297.619 690.067 297.48 688.968 297.48C687.88 297.48 687.027 297.619 686.408 297.896C685.789 298.163 685.48 298.536 685.48 299.016ZM685.592 307.688C685.592 308.147 685.885 308.499 686.472 308.744C687.059 308.979 687.891 309.096 688.968 309.096C690.035 309.096 690.861 308.979 691.448 308.744C692.035 308.499 692.328 308.147 692.328 307.688C692.328 307.24 692.035 306.899 691.448 306.664C690.861 306.419 690.035 306.296 688.968 306.296C687.891 306.296 687.059 306.419 686.472 306.664C685.885 306.899 685.592 307.24 685.592 307.688ZM690.824 303.032V301.496C690.269 301.592 689.651 301.64 688.968 301.64C688.307 301.64 687.693 301.592 687.128 301.496V303.032H690.824ZM707.337 296.12V301.848H709.577V303.064H707.337V310.232H705.881V296.12H707.337ZM696.345 298.328H699.801V296.296H701.289V298.328H704.665V299.512H696.345V298.328ZM697.097 303.864C697.097 303.235 697.246 302.675 697.545 302.184C697.843 301.683 698.254 301.293 698.777 301.016C699.31 300.739 699.902 300.6 700.553 300.6C701.214 300.6 701.806 300.739 702.329 301.016C702.862 301.293 703.278 301.683 703.577 302.184C703.875 302.675 704.025 303.235 704.025 303.864C704.025 304.493 703.875 305.059 703.577 305.56C703.278 306.051 702.862 306.435 702.329 306.712C701.806 306.989 701.214 307.128 700.553 307.128C699.902 307.128 699.31 306.989 698.777 306.712C698.254 306.435 697.843 306.051 697.545 305.56C697.246 305.059 697.097 304.493 697.097 303.864ZM698.489 303.864C698.489 304.472 698.681 304.968 699.065 305.352C699.449 305.736 699.945 305.928 700.553 305.928C701.161 305.928 701.657 305.736 702.041 305.352C702.435 304.968 702.633 304.472 702.633 303.864C702.633 303.256 702.435 302.76 702.041 302.376C701.657 301.992 701.161 301.8 700.553 301.8C699.955 301.8 699.459 301.992 699.065 302.376C698.681 302.76 698.489 303.256 698.489 303.864ZM713.385 296.616V300.248H721.577V301.432H711.945V296.616H713.385ZM710.249 303.224H723.033V304.408H710.249V303.224ZM711.849 305.752H713.289V308.712H721.657V309.896H711.849V305.752ZM737.793 301.56V299.8H734.385C733.937 300.92 733.201 301.88 732.177 302.68C731.153 303.48 729.873 304.104 728.337 304.552L727.761 303.4C729.435 302.92 730.747 302.248 731.697 301.384C732.646 300.509 733.179 299.491 733.297 298.328H728.497V297.144H734.881C734.881 297.656 734.833 298.152 734.737 298.632H737.793V296.104H739.249V304.488H737.793V302.744H734.241V301.56H737.793ZM729.937 307.416C729.937 306.552 730.358 305.875 731.201 305.384C732.043 304.893 733.19 304.648 734.641 304.648C736.07 304.648 737.206 304.893 738.049 305.384C738.891 305.875 739.313 306.552 739.313 307.416C739.313 307.971 739.121 308.456 738.737 308.872C738.353 309.288 737.809 309.603 737.105 309.816C736.411 310.04 735.59 310.152 734.641 310.152C733.691 310.152 732.859 310.04 732.145 309.816C731.441 309.603 730.897 309.288 730.513 308.872C730.129 308.456 729.937 307.971 729.937 307.416ZM731.393 307.416C731.393 307.907 731.681 308.296 732.257 308.584C732.843 308.861 733.638 309 734.641 309C735.643 309 736.433 308.861 737.009 308.584C737.585 308.296 737.873 307.907 737.873 307.416C737.873 306.904 737.585 306.509 737.009 306.232C736.443 305.944 735.654 305.8 734.641 305.8C733.627 305.8 732.833 305.944 732.257 306.232C731.681 306.509 731.393 306.904 731.393 307.416ZM754.209 304.152V305.352H748.497V310.232H747.057V305.352H741.425V304.152H754.209ZM742.801 299.768C742.801 299.139 743.009 298.595 743.425 298.136C743.841 297.667 744.422 297.309 745.169 297.064C745.926 296.808 746.796 296.68 747.777 296.68C748.769 296.68 749.638 296.808 750.385 297.064C751.132 297.309 751.713 297.667 752.129 298.136C752.545 298.595 752.753 299.139 752.753 299.768C752.753 300.397 752.545 300.947 752.129 301.416C751.713 301.885 751.126 302.248 750.369 302.504C749.622 302.749 748.758 302.872 747.777 302.872C746.796 302.872 745.926 302.749 745.169 302.504C744.422 302.248 743.841 301.885 743.425 301.416C743.009 300.947 742.801 300.397 742.801 299.768ZM744.305 299.768C744.305 300.365 744.62 300.84 745.249 301.192C745.889 301.544 746.732 301.72 747.777 301.72C748.833 301.72 749.676 301.544 750.305 301.192C750.945 300.84 751.265 300.365 751.265 299.768C751.265 299.181 750.945 298.712 750.305 298.36C749.676 298.008 748.833 297.832 747.777 297.832C746.732 297.832 745.889 298.008 745.249 298.36C744.62 298.712 744.305 299.181 744.305 299.768Z" fill="#6B6B6B"/>
<path d="M368.172 150.964C368.76 150.964 369.236 150.796 369.6 150.46C369.973 150.115 370.16 149.671 370.16 149.13C370.16 148.589 369.973 148.15 369.6 147.814C369.236 147.469 368.76 147.296 368.172 147.296C367.575 147.296 367.089 147.469 366.716 147.814C366.343 148.15 366.156 148.589 366.156 149.13C366.156 149.671 366.343 150.115 366.716 150.46C367.089 150.796 367.575 150.964 368.172 150.964ZM364.7 149.158C364.7 148.701 364.859 148.243 365.176 147.786C365.493 147.319 365.899 146.951 366.394 146.68C365.983 146.4 365.647 146.055 365.386 145.644C365.125 145.233 364.994 144.846 364.994 144.482C364.994 143.941 365.129 143.46 365.4 143.04C365.671 142.611 366.044 142.279 366.52 142.046C367.005 141.803 367.556 141.682 368.172 141.682C368.788 141.682 369.334 141.803 369.81 142.046C370.295 142.279 370.673 142.611 370.944 143.04C371.215 143.46 371.35 143.941 371.35 144.482C371.35 144.855 371.219 145.247 370.958 145.658C370.697 146.069 370.361 146.409 369.95 146.68C370.445 146.96 370.846 147.329 371.154 147.786C371.462 148.243 371.616 148.701 371.616 149.158C371.616 149.746 371.471 150.273 371.182 150.74C370.893 151.197 370.487 151.557 369.964 151.818C369.441 152.07 368.844 152.196 368.172 152.196C367.5 152.196 366.898 152.07 366.366 151.818C365.843 151.557 365.433 151.197 365.134 150.74C364.845 150.273 364.7 149.746 364.7 149.158ZM366.45 144.482C366.45 144.949 366.609 145.327 366.926 145.616C367.243 145.905 367.659 146.05 368.172 146.05C368.676 146.05 369.087 145.905 369.404 145.616C369.731 145.317 369.894 144.939 369.894 144.482C369.894 144.025 369.731 143.651 369.404 143.362C369.087 143.063 368.676 142.914 368.172 142.914C367.659 142.914 367.243 143.059 366.926 143.348C366.609 143.637 366.45 144.015 366.45 144.482ZM376.933 150.964C377.558 150.964 378.067 150.735 378.459 150.278C378.851 149.811 379.047 149.205 379.047 148.458C379.047 147.721 378.851 147.123 378.459 146.666C378.067 146.209 377.558 145.98 376.933 145.98C376.541 145.98 376.177 146.092 375.841 146.316C375.505 146.54 375.239 146.843 375.043 147.226C374.847 147.599 374.749 148.01 374.749 148.458C374.749 148.915 374.847 149.335 375.043 149.718C375.239 150.101 375.505 150.404 375.841 150.628C376.177 150.852 376.541 150.964 376.933 150.964ZM373.279 144.776H374.735V146.036C374.987 145.616 375.337 145.303 375.785 145.098C376.233 144.883 376.644 144.776 377.017 144.776C377.698 144.776 378.3 144.935 378.823 145.252C379.355 145.56 379.766 145.994 380.055 146.554C380.354 147.105 380.503 147.739 380.503 148.458C380.503 149.177 380.354 149.821 380.055 150.39C379.766 150.95 379.355 151.389 378.823 151.706C378.3 152.014 377.698 152.168 377.017 152.168C376.644 152.168 376.233 152.061 375.785 151.846C375.337 151.622 374.987 151.3 374.735 150.88V155.234H373.279V144.776ZM385.646 148.444L388.348 152.098H386.542L384.792 149.62L383.056 152.098H381.25L383.91 148.444L381.194 144.776H383.014L384.792 147.324L386.556 144.776H388.376L385.646 148.444Z" fill="#6B6B6B"/>
<path d="M656.072 148.122H657.374V149.396H656.072V152.042H654.63V149.396H650.234L650.094 148.122L654.686 141.85H656.072V148.122ZM654.63 148.122V144.272L651.83 148.122H654.63ZM662.43 150.852C662.888 150.852 663.294 150.689 663.648 150.362C664.012 150.035 664.292 149.578 664.488 148.99C664.684 148.393 664.782 147.711 664.782 146.946C664.782 146.171 664.684 145.49 664.488 144.902C664.292 144.314 664.017 143.857 663.662 143.53C663.308 143.203 662.897 143.04 662.43 143.04C661.964 143.04 661.548 143.203 661.184 143.53C660.83 143.857 660.554 144.314 660.358 144.902C660.162 145.49 660.064 146.171 660.064 146.946C660.064 147.711 660.162 148.393 660.358 148.99C660.554 149.578 660.83 150.035 661.184 150.362C661.548 150.689 661.964 150.852 662.43 150.852ZM658.608 146.946C658.608 145.947 658.772 145.056 659.098 144.272C659.425 143.479 659.878 142.863 660.456 142.424C661.035 141.976 661.693 141.752 662.43 141.752C663.168 141.752 663.826 141.976 664.404 142.424C664.983 142.863 665.431 143.479 665.748 144.272C666.075 145.056 666.238 145.947 666.238 146.946C666.238 147.945 666.075 148.841 665.748 149.634C665.431 150.418 664.983 151.029 664.404 151.468C663.826 151.907 663.168 152.126 662.43 152.126C661.693 152.126 661.035 151.907 660.456 151.468C659.878 151.029 659.425 150.418 659.098 149.634C658.772 148.841 658.608 147.945 658.608 146.946ZM671.539 150.964C672.164 150.964 672.673 150.735 673.065 150.278C673.457 149.811 673.653 149.205 673.653 148.458C673.653 147.721 673.457 147.123 673.065 146.666C672.673 146.209 672.164 145.98 671.539 145.98C671.147 145.98 670.783 146.092 670.447 146.316C670.111 146.54 669.845 146.843 669.649 147.226C669.453 147.599 669.355 148.01 669.355 148.458C669.355 148.915 669.453 149.335 669.649 149.718C669.845 150.101 670.111 150.404 670.447 150.628C670.783 150.852 671.147 150.964 671.539 150.964ZM667.885 144.776H669.341V146.036C669.593 145.616 669.943 145.303 670.391 145.098C670.839 144.883 671.249 144.776 671.623 144.776C672.304 144.776 672.906 144.935 673.429 145.252C673.961 145.56 674.371 145.994 674.661 146.554C674.959 147.105 675.109 147.739 675.109 148.458C675.109 149.177 674.959 149.821 674.661 150.39C674.371 150.95 673.961 151.389 673.429 151.706C672.906 152.014 672.304 152.168 671.623 152.168C671.249 152.168 670.839 152.061 670.391 151.846C669.943 151.622 669.593 151.3 669.341 150.88V155.234H667.885V144.776ZM680.252 148.444L682.954 152.098H681.148L679.398 149.62L677.662 152.098H675.856L678.516 148.444L675.8 144.776H677.62L679.398 147.324L681.162 144.776H682.982L680.252 148.444Z" fill="#6B6B6B"/>
<rect x="70.5" y="0.5" width="33" height="29" rx="14.5" fill="white"/>
<rect x="70.5" y="0.5" width="33" height="29" rx="14.5" stroke="#6B6B6B"/>
<path d="M84.9028 17.186C85.2014 17.7553 85.5794 18.194 86.0368 18.502C86.4941 18.81 86.9654 18.964 87.4508 18.964C88.1041 18.964 88.6268 18.8147 89.0188 18.516C89.4201 18.208 89.6208 17.8067 89.6208 17.312C89.6208 16.976 89.5181 16.7007 89.3128 16.486C89.1168 16.262 88.8648 16.08 88.5568 15.94C88.2581 15.8 87.8428 15.6367 87.3108 15.45C86.6388 15.2167 86.0928 14.9927 85.6728 14.778C85.2528 14.5633 84.8934 14.26 84.5948 13.868C84.2961 13.476 84.1468 12.972 84.1468 12.356C84.1468 11.8147 84.2961 11.3433 84.5948 10.942C84.8934 10.5313 85.2994 10.2187 85.8128 10.004C86.3354 9.78933 86.9141 9.682 87.5488 9.682C88.2768 9.682 88.9488 9.88267 89.5648 10.284C90.1808 10.6853 90.6241 11.264 90.8948 12.02L89.6068 12.496C89.4388 11.992 89.1588 11.6093 88.7668 11.348C88.3841 11.0773 87.9781 10.942 87.5488 10.942C86.9888 10.942 86.5221 11.0727 86.1488 11.334C85.7848 11.5953 85.6028 11.9407 85.6028 12.37C85.6028 12.6967 85.7054 12.972 85.9108 13.196C86.1161 13.42 86.3681 13.6067 86.6668 13.756C86.9654 13.896 87.3854 14.064 87.9268 14.26C88.5988 14.5027 89.1448 14.7313 89.5648 14.946C89.9848 15.1607 90.3394 15.464 90.6288 15.856C90.9274 16.2387 91.0768 16.7287 91.0768 17.326C91.0768 17.8953 90.9228 18.3993 90.6148 18.838C90.3068 19.2767 89.8774 19.6173 89.3268 19.86C88.7761 20.1027 88.1461 20.224 87.4368 20.224C86.6714 20.224 85.9621 20.0187 85.3088 19.608C84.6648 19.188 84.1234 18.6047 83.6848 17.858L84.9028 17.186Z" fill="#121212"/>
<rect x="359.5" y="0.5" width="36" height="29" rx="14.5" fill="white"/>
<rect x="359.5" y="0.5" width="36" height="29" rx="14.5" stroke="#6B6B6B"/>
<path d="M373.656 12.328V20.098H372.2V9.794H373.768L377.52 15.87L381.272 9.794H382.84V20.098H381.384V12.314L377.52 18.362L373.656 12.328Z" fill="#121212"/>
<rect x="643.5" y="0.5" width="46" height="29" rx="14.5" fill="white"/>
<rect x="643.5" y="0.5" width="46" height="29" rx="14.5" stroke="#6B6B6B"/>
<path d="M663.231 11.054H657.617V14.302H662.335V15.562H657.617V20.098H656.161V9.794H663.231V11.054ZM665.706 16.962C665.706 17.55 665.869 18.0307 666.196 18.404C666.522 18.768 666.947 18.95 667.47 18.95C668.039 18.9407 668.501 18.7587 668.856 18.404C669.21 18.0493 669.383 17.5827 669.374 17.004V12.776H670.83V20.098H669.374V19.034C669.159 19.3793 668.856 19.6547 668.464 19.86C668.081 20.0653 667.684 20.168 667.274 20.168C666.695 20.168 666.177 20.0373 665.72 19.776C665.262 19.5053 664.903 19.132 664.642 18.656C664.38 18.18 664.25 17.6387 664.25 17.032V12.776H665.706V16.962ZM673.943 9.794V20.098H672.487V9.794H673.943ZM677.085 9.794V20.098H675.629V9.794H677.085Z" fill="#121212"/>
</svg>
