<svg xmlns="http://www.w3.org/2000/svg" width="360" height="335" fill="none"><path stroke="#6B6B6B" stroke-width="1.2" d="M26 303h4m48 0h8"/><path fill="#6B6B6B" d="M133.576 302.576a.6.6 0 0 0 0 .848l3.818 3.819a.601.601 0 0 0 .849-.849L134.849 303l3.394-3.394a.601.601 0 0 0-.849-.849zm12.848.848a.6.6 0 0 0 0-.848l-3.818-3.819a.601.601 0 0 0-.849.849l3.394 3.394-3.394 3.394a.601.601 0 0 0 .849.849zM134 303.6h12v-1.2h-12zm59.576-1.024a.6.6 0 0 0 0 .848l3.818 3.819a.601.601 0 0 0 .849-.849L194.849 303l3.394-3.394a.601.601 0 0 0-.849-.849zm16.848.848a.6.6 0 0 0 0-.848l-3.818-3.819a.601.601 0 0 0-.849.849l3.394 3.394-3.394 3.394a.601.601 0 0 0 .849.849zM194 303.6h16v-1.2h-16zm63.576-1.024a.6.6 0 0 0 0 .848l3.818 3.819a.601.601 0 0 0 .849-.849L258.849 303l3.394-3.394a.601.601 0 0 0-.849-.849zm20.848.848a.6.6 0 0 0 0-.848l-3.818-3.819a.601.601 0 0 0-.849.849l3.394 3.394-3.394 3.394a.601.601 0 0 0 .849.849zM258 303.6h20v-1.2h-20zm67.576-1.024a.6.6 0 0 0 0 .848l3.818 3.819a.601.601 0 0 0 .849-.849L326.849 303l3.394-3.394a.601.601 0 0 0-.849-.849zm24.848.848a.6.6 0 0 0 0-.848l-3.818-3.819a.601.601 0 0 0-.849.849l3.394 3.394-3.394 3.394a.601.601 0 0 0 .849.849zM326 303.6h24v-1.2h-24z"/><rect width="54" height="29" x=".5" y=".5" fill="#fff" rx="14.5"/><rect width="54" height="29" x=".5" y=".5" stroke="#6B6B6B" rx="14.5"/><path fill="#121212" d="m18.867 14.932 3.948 5.166h-1.834l-3.01-3.976-3.01 3.976h-1.848l3.962-5.166-3.962-5.138h1.848l3.01 3.948 3.01-3.948h1.834zm10.606 0 3.948 5.166h-1.834l-3.01-3.976-3.01 3.976H23.72l3.962-5.166-3.962-5.138h1.848l3.01 3.948 3.01-3.948h1.834zm6.43 2.254q.447.855 1.134 1.316.685.462 1.414.462.98 0 1.568-.448.602-.462.602-1.204 0-.504-.308-.826a2.2 2.2 0 0 0-.756-.546q-.448-.21-1.246-.49a13 13 0 0 1-1.638-.672 3.14 3.14 0 0 1-1.078-.91q-.448-.588-.448-1.512 0-.812.448-1.414.447-.615 1.218-.938a4.5 4.5 0 0 1 1.736-.322q1.092 0 2.016.602.925.602 1.33 1.736l-1.288.476q-.252-.756-.84-1.148a2.07 2.07 0 0 0-1.218-.406q-.84 0-1.4.392-.546.392-.546 1.036 0 .49.308.826.307.335.756.56.447.21 1.26.504 1.008.364 1.638.686t1.064.91q.448.574.448 1.47 0 .854-.462 1.512-.463.659-1.288 1.022-.825.364-1.89.364a3.9 3.9 0 0 1-2.128-.616q-.967-.63-1.624-1.75z"/><path fill="#6B6B6B" d="M21.994 327.122h1.302v1.274h-1.302v2.646h-1.442v-2.646h-4.396l-.14-1.274 4.592-6.272h1.386zm-1.442 0v-3.85l-2.8 3.85zm8.065 2.842q.938 0 1.526-.686.588-.7.588-1.82 0-1.106-.588-1.792t-1.526-.686a1.93 1.93 0 0 0-1.092.336 2.36 2.36 0 0 0-.798.91 2.6 2.6 0 0 0-.294 1.232q0 .685.294 1.26.294.574.798.91t1.092.336m-3.654-6.188h1.456v1.26q.378-.63 1.05-.938.673-.322 1.232-.322 1.023 0 1.806.476a3.13 3.13 0 0 1 1.232 1.302q.449.826.448 1.904 0 1.079-.448 1.932-.434.84-1.232 1.316-.783.462-1.806.462-.56 0-1.232-.322a2.5 2.5 0 0 1-1.05-.966v4.354h-1.456zm12.367 3.668 2.702 3.654h-1.806l-1.75-2.478-1.736 2.478h-1.806l2.66-3.654-2.716-3.668h1.82l1.778 2.548 1.764-2.548h1.82zm154.232 3.598-1.456-.014v-8.61l-1.778 1.008-.616-1.218 2.408-1.344h1.442zm5.419-1.176q.91 0 1.484-.588.588-.588.588-1.526t-.588-1.526q-.575-.602-1.484-.602-.897 0-1.47.602-.574.588-.574 1.526t.574 1.526 1.47.588m-3.5-2.114q0-.924.56-1.932l2.814-4.984h1.666l-2.044 3.57a2.5 2.5 0 0 1 .56-.056q1.008 0 1.792.448.798.434 1.232 1.204.447.77.448 1.75 0 .98-.448 1.75a3.16 3.16 0 0 1-1.246 1.204q-.798.434-1.82.434t-1.82-.434a3.15 3.15 0 0 1-1.246-1.204q-.448-.77-.448-1.75m12.342 2.212q.938 0 1.526-.686.588-.7.588-1.82 0-1.106-.588-1.792t-1.526-.686a1.93 1.93 0 0 0-1.092.336 2.36 2.36 0 0 0-.798.91 2.6 2.6 0 0 0-.294 1.232q0 .685.294 1.26.294.574.798.91t1.092.336m-3.654-6.188h1.456v1.26q.378-.63 1.05-.938.671-.322 1.232-.322 1.021 0 1.806.476.798.462 1.232 1.302.447.826.448 1.904 0 1.079-.448 1.932-.434.84-1.232 1.316-.785.462-1.806.462-.56 0-1.232-.322a2.5 2.5 0 0 1-1.05-.966v4.354h-1.456zm12.367 3.668 2.702 3.654h-1.806l-1.75-2.478-1.736 2.478h-1.806l2.66-3.654-2.716-3.668h1.82l1.778 2.548 1.764-2.548h1.82zm-140.364 2.52q.882 0 1.428-.504.56-.518.56-1.33t-.56-1.316q-.546-.518-1.428-.518-.896 0-1.456.518-.56.504-.56 1.316t.56 1.33q.56.504 1.456.504m-3.472-1.806q0-.686.476-1.372a3.46 3.46 0 0 1 1.218-1.106 3.55 3.55 0 0 1-1.008-1.036q-.392-.616-.392-1.162 0-.812.406-1.442.405-.644 1.12-.994.728-.364 1.652-.364t1.638.364q.727.35 1.134.994.405.63.406 1.442 0 .56-.392 1.176a3.4 3.4 0 0 1-1.008 1.022q.742.42 1.204 1.106t.462 1.372a2.94 2.94 0 0 1-.434 1.582 3 3 0 0 1-1.218 1.078q-.784.378-1.792.378t-1.806-.378a3.1 3.1 0 0 1-1.232-1.078 2.94 2.94 0 0 1-.434-1.582m1.75-4.676q0 .7.476 1.134t1.246.434q.756 0 1.232-.434a1.47 1.47 0 0 0 .49-1.134q0-.686-.49-1.12-.476-.448-1.232-.448-.77 0-1.246.434-.476.433-.476 1.134m10.483 6.482q.938 0 1.526-.686.588-.7.588-1.82 0-1.106-.588-1.792t-1.526-.686a1.93 1.93 0 0 0-1.092.336 2.36 2.36 0 0 0-.798.91 2.6 2.6 0 0 0-.294 1.232q0 .685.294 1.26.294.574.798.91t1.092.336m-3.654-6.188h1.456v1.26q.378-.63 1.05-.938.672-.322 1.232-.322 1.021 0 1.806.476a3.13 3.13 0 0 1 1.232 1.302q.447.826.448 1.904 0 1.079-.448 1.932-.435.84-1.232 1.316-.785.462-1.806.462-.56 0-1.232-.322a2.5 2.5 0 0 1-1.05-.966v4.354h-1.456zm12.367 3.668 2.702 3.654h-1.806l-1.75-2.478-1.736 2.478H87.25l2.66-3.654-2.716-3.668h1.82l1.778 2.548 1.764-2.548h1.82zm158.473 2.324q.195-.182 1.428-1.316a61 61 0 0 0 1.806-1.68 8.5 8.5 0 0 0 1.148-1.372q.462-.714.462-1.344 0-.868-.504-1.414-.49-.56-1.274-.56-.603 0-1.162.392a2.33 2.33 0 0 0-.826 1.008l-1.274-.56a3.56 3.56 0 0 1 1.33-1.554q.924-.616 1.932-.616.937 0 1.666.42.741.42 1.148 1.176.42.742.42 1.708 0 .952-.574 1.89a8.7 8.7 0 0 1-1.372 1.736 36 36 0 0 1-2.044 1.862l-.252.224h4.396v1.274h-6.314zm11.497.084q.685 0 1.218-.49.546-.49.84-1.372.294-.896.294-2.044 0-1.162-.294-2.044t-.826-1.372a1.76 1.76 0 0 0-1.232-.49q-.7 0-1.246.49-.532.49-.826 1.372t-.294 2.044q0 1.148.294 2.044.294.882.826 1.372.546.49 1.246.49m-3.822-3.906q0-1.498.49-2.674.49-1.19 1.358-1.848a3.14 3.14 0 0 1 1.974-.672 3.14 3.14 0 0 1 1.974.672q.867.659 1.344 1.848.49 1.176.49 2.674 0 1.499-.49 2.688-.477 1.176-1.344 1.834a3.18 3.18 0 0 1-1.974.658 3.18 3.18 0 0 1-1.974-.658q-.869-.658-1.358-1.834-.49-1.19-.49-2.688m12.93 4.018q.939 0 1.526-.686.588-.7.588-1.82 0-1.106-.588-1.792-.587-.686-1.526-.686a1.93 1.93 0 0 0-1.092.336 2.36 2.36 0 0 0-.798.91 2.6 2.6 0 0 0-.294 1.232q0 .685.294 1.26.294.574.798.91t1.092.336m-3.654-6.188h1.456v1.26q.378-.63 1.05-.938.672-.322 1.232-.322 1.023 0 1.806.476.798.462 1.232 1.302.448.826.448 1.904 0 1.079-.448 1.932-.434.84-1.232 1.316-.783.462-1.806.462-.56 0-1.232-.322a2.5 2.5 0 0 1-1.05-.966v4.354h-1.456zm12.367 3.668 2.702 3.654h-1.806l-1.75-2.478-1.736 2.478h-1.806l2.66-3.654-2.716-3.668h1.82l1.778 2.548 1.764-2.548h1.82zm-149.69 3.598-1.456-.014v-8.61l-1.778 1.008-.616-1.218 2.408-1.344h1.442zm2.128-1.274 1.428-1.316a61 61 0 0 0 1.806-1.68q.686-.672 1.148-1.372.462-.714.462-1.344 0-.868-.504-1.414-.49-.56-1.274-.56-.601 0-1.162.392a2.35 2.35 0 0 0-.826 1.008l-1.274-.56a3.56 3.56 0 0 1 1.33-1.554q.924-.616 1.932-.616.939 0 1.666.42.743.42 1.148 1.176.42.742.42 1.708 0 .952-.574 1.89a8.6 8.6 0 0 1-1.372 1.736 36 36 0 0 1-2.044 1.862l-.252.224h4.396v1.274h-6.314zm11.763.196q.938 0 1.526-.686.588-.7.588-1.82 0-1.106-.588-1.792t-1.526-.686a1.93 1.93 0 0 0-1.092.336 2.36 2.36 0 0 0-.798.91 2.6 2.6 0 0 0-.294 1.232q0 .685.294 1.26.294.574.798.91t1.092.336m-3.654-6.188h1.456v1.26q.378-.63 1.05-.938.672-.322 1.232-.322 1.023 0 1.806.476.798.462 1.232 1.302.448.826.448 1.904 0 1.079-.448 1.932-.434.84-1.232 1.316-.783.462-1.806.462-.56 0-1.232-.322a2.5 2.5 0 0 1-1.05-.966v4.354h-1.456zm12.367 3.668 2.702 3.654h-1.806l-1.75-2.478-1.736 2.478h-1.806l2.66-3.654-2.716-3.668h1.82l1.778 2.548 1.764-2.548h1.82zm169.925 2.324 1.428-1.316a61 61 0 0 0 1.806-1.68 8.5 8.5 0 0 0 1.148-1.372q.462-.714.462-1.344 0-.868-.504-1.414-.49-.56-1.274-.56-.602 0-1.162.392a2.34 2.34 0 0 0-.826 1.008l-1.274-.56a3.56 3.56 0 0 1 1.33-1.554q.924-.616 1.932-.616.938 0 1.666.42.742.42 1.148 1.176.42.742.42 1.708 0 .952-.574 1.89a8.7 8.7 0 0 1-1.372 1.736 36 36 0 0 1-2.044 1.862l-.252.224h4.396v1.274h-6.314zm13.667-2.646h1.302v1.274h-1.302v2.646h-1.442v-2.646h-4.396l-.14-1.274 4.592-6.272h1.386zm-1.442 0v-3.85l-2.8 3.85zm8.066 2.842q.938 0 1.526-.686.588-.7.588-1.82 0-1.106-.588-1.792t-1.526-.686a1.93 1.93 0 0 0-1.092.336 2.36 2.36 0 0 0-.798.91 2.6 2.6 0 0 0-.294 1.232q0 .685.294 1.26.294.574.798.91t1.092.336m-3.654-6.188h1.456v1.26q.378-.63 1.05-.938.672-.322 1.232-.322 1.022 0 1.806.476.798.462 1.232 1.302.448.826.448 1.904 0 1.079-.448 1.932-.434.84-1.232 1.316-.784.462-1.806.462-.56 0-1.232-.322a2.5 2.5 0 0 1-1.05-.966v4.354h-1.456zm12.367 3.668 2.702 3.654h-1.806l-1.75-2.478-1.736 2.478h-1.806l2.66-3.654-2.716-3.668h1.82l1.778 2.548 1.764-2.548h1.82z"/><rect width="44" height="29" x="59.5" y=".5" fill="#fff" rx="14.5"/><rect width="44" height="29" x="59.5" y=".5" stroke="#6B6B6B" rx="14.5"/><path fill="#121212" d="m78.473 14.932 3.948 5.166h-1.834l-3.01-3.976-3.01 3.976H72.72l3.962-5.166-3.962-5.138h1.848l3.01 3.948 3.01-3.948h1.834zm6.43 2.254q.447.855 1.134 1.316.685.462 1.414.462.98 0 1.568-.448.602-.462.602-1.204 0-.504-.308-.826a2.2 2.2 0 0 0-.756-.546q-.448-.21-1.246-.49a13 13 0 0 1-1.638-.672 3.14 3.14 0 0 1-1.078-.91q-.448-.588-.448-1.512 0-.812.448-1.414.447-.615 1.218-.938a4.5 4.5 0 0 1 1.736-.322q1.092 0 2.016.602.925.602 1.33 1.736l-1.288.476q-.252-.756-.84-1.148a2.07 2.07 0 0 0-1.218-.406q-.84 0-1.4.392-.546.392-.546 1.036 0 .49.308.826t.756.56q.447.21 1.26.504 1.008.364 1.638.686t1.064.91q.447.574.448 1.47 0 .854-.462 1.512-.463.659-1.288 1.022-.825.364-1.89.364a3.9 3.9 0 0 1-2.128-.616q-.967-.63-1.624-1.75z"/><rect width="33" height="29" x="123.5" y=".5" fill="#fff" rx="14.5"/><rect width="33" height="29" x="123.5" y=".5" stroke="#6B6B6B" rx="14.5"/><path fill="#121212" d="M137.903 17.186q.447.855 1.134 1.316.685.462 1.414.462.98 0 1.568-.448.602-.462.602-1.204 0-.504-.308-.826a2.2 2.2 0 0 0-.756-.546q-.448-.21-1.246-.49a13 13 0 0 1-1.638-.672 3.1 3.1 0 0 1-1.078-.91q-.448-.588-.448-1.512 0-.812.448-1.414.447-.615 1.218-.938a4.5 4.5 0 0 1 1.736-.322q1.092 0 2.016.602t1.33 1.736l-1.288.476q-.252-.756-.84-1.148a2.08 2.08 0 0 0-1.218-.406q-.84 0-1.4.392-.546.392-.546 1.036 0 .49.308.826t.756.56q.447.21 1.26.504 1.008.364 1.638.686t1.064.91q.447.574.448 1.47 0 .854-.462 1.512-.462.659-1.288 1.022-.827.364-1.89.364a3.9 3.9 0 0 1-2.128-.616q-.966-.63-1.624-1.75z"/><rect width="36" height="29" x="183.5" y=".5" fill="#fff" rx="14.5"/><rect width="36" height="29" x="183.5" y=".5" stroke="#6B6B6B" rx="14.5"/><path fill="#121212" d="M197.656 12.328v7.77H196.2V9.794h1.568l3.752 6.076 3.752-6.076h1.568v10.304h-1.456v-7.784l-3.864 6.048z"/><rect width="32" height="29" x="251.5" y=".5" fill="#fff" rx="14.5"/><rect width="32" height="29" x="251.5" y=".5" stroke="#6B6B6B" rx="14.5"/><path fill="#121212" d="M266.031 18.838h5.11v1.26h-6.566V9.794h1.456z"/><rect width="43" height="29" x="316.5" y=".5" fill="#fff" rx="14.5"/><rect width="43" height="29" x="316.5" y=".5" stroke="#6B6B6B" rx="14.5"/><path fill="#121212" d="m334.774 14.932 3.948 5.166h-1.834l-3.01-3.976-3.01 3.976h-1.848l3.962-5.166-3.962-5.138h1.848l3.01 3.948 3.01-3.948h1.834zm7.257 3.906h5.11v1.26h-6.566V9.794h1.456z"/><path fill="#fff" d="M26 46h4v242h-4z"/><path fill="red" fill-opacity=".1" d="M26 46h4v242h-4z"/><path fill="#fff" d="M78 46h8v242h-8z"/><path fill="red" fill-opacity=".1" d="M78 46h8v242h-8z"/><path fill="#fff" d="M134 46h12v242h-12z"/><path fill="red" fill-opacity=".1" d="M134 46h12v242h-12z"/><path fill="#fff" d="M194 46h16v242h-16z"/><path fill="red" fill-opacity=".1" d="M194 46h16v242h-16z"/><path fill="#fff" d="M258 46h20v242h-20z"/><path fill="red" fill-opacity=".1" d="M258 46h20v242h-20z"/><path fill="#fff" d="M326 46h24v242h-24z"/><path fill="red" fill-opacity=".1" d="M326 46h24v242h-24z"/></svg>