<svg xmlns="http://www.w3.org/2000/svg" width="908" height="110" fill="none" viewBox="0 0 908 110"><path fill="#fff" d="M.5 0h907v110H.5z"/><path fill="red" fill-opacity=".1" d="M454.5 34v22h-8V34z"/><path stroke="#6B6B6B" stroke-width="1.2" d="M446.5 56h8"/><path fill="#6B6B6B" d="M442.672 71.964q.882 0 1.428-.504.56-.518.56-1.33t-.56-1.316q-.546-.518-1.428-.518-.896 0-1.456.518-.56.504-.56 1.316t.56 1.33q.56.504 1.456.504m-3.472-1.806q0-.686.476-1.372a3.46 3.46 0 0 1 1.218-1.106 3.5 3.5 0 0 1-1.008-1.036q-.392-.615-.392-1.162a2.6 2.6 0 0 1 .406-1.442q.406-.644 1.12-.994.728-.364 1.652-.364t1.638.364q.728.35 1.134.994.406.63.406 1.442 0 .56-.392 1.176t-1.008 1.022q.742.42 1.204 1.106t.462 1.372q0 .882-.434 1.582a3 3 0 0 1-1.218 1.078q-.784.378-1.792.378t-1.806-.378a3.1 3.1 0 0 1-1.232-1.078 2.94 2.94 0 0 1-.434-1.582m1.75-4.676q0 .7.476 1.134t1.246.434q.756 0 1.232-.434.49-.449.49-1.134t-.49-1.12q-.476-.448-1.232-.448-.77 0-1.246.434t-.476 1.134m10.483 6.482q.938 0 1.526-.686.588-.7.588-1.82 0-1.106-.588-1.792t-1.526-.686a1.93 1.93 0 0 0-1.092.336 2.37 2.37 0 0 0-.798.91 2.6 2.6 0 0 0-.294 1.232q0 .685.294 1.26.294.574.798.91t1.092.336m-3.654-6.188h1.456v1.26q.378-.63 1.05-.938.672-.322 1.232-.322 1.022 0 1.806.476.798.462 1.232 1.302.448.825.448 1.904t-.448 1.932q-.434.84-1.232 1.316-.784.462-1.806.462-.56 0-1.232-.322a2.5 2.5 0 0 1-1.05-.966v4.354h-1.456zm12.367 3.668 2.702 3.654h-1.806l-1.75-2.478-1.736 2.478h-1.806l2.66-3.654-2.716-3.668h1.82l1.778 2.548 1.764-2.548h1.82z"/><path fill="#232021" d="M422.497 39.776h-3.504v10.336h-1.664V39.776h-3.52v-1.44h8.688zm6.125 5.536q-.112-.928-.656-1.552-.544-.64-1.568-.64-.928 0-1.616.64-.672.624-.816 1.568zm-6.256.64q0-1.232.512-2.192a3.7 3.7 0 0 1 1.408-1.488q.912-.544 2.08-.544 1.648 0 2.416.8.785.8 1.056 1.472.368.896.368 1.984 0 .225-.016.4a3 3 0 0 0-.016.208h-6.208q.144.96.832 1.568t1.584.608q.72 0 1.184-.224.48-.224.656-.416.175-.192.336-.432l1.344.608q-.384.784-1.28 1.328-.896.528-2.256.528-1.168 0-2.08-.528a3.83 3.83 0 0 1-1.408-1.504q-.512-.96-.512-2.176m13.752-.016 3.088 4.176h-2.064l-2-2.832-1.984 2.832h-2.064l3.04-4.176-3.104-4.192h2.08l2.032 2.912 2.016-2.912h2.08zm7.717 4.224q-1.087 0-1.792-.72-.704-.72-.72-1.856v-4.32h-1.44v-1.456h1.44V39.52h1.664v2.288h1.792v1.456h-1.792v4.24q0 .432.24.752t.608.336q.272 0 .512-.048.256-.065.336-.08l.352 1.552q-.783.144-1.2.144"/><rect width="40" height="21" x="455" y="34.5" stroke="#EA4335" rx="3.5"/><path fill="#EA4335" d="M473.709 39.808v1.204q0 1.596-.084 2.884-.07 1.275-.392 2.996l-1.512-.168q.323-1.61.392-2.87.084-1.26.084-2.828h-7.378v-1.218zm-10.066 8.47h4.158v-4.354h1.498v4.354h5.6v1.232h-11.256zm14.981-2.506v1.456h5.502v-1.456h1.484v5.208h-8.47v-5.208zm-2.884-2.156h8.106q.195-.895.252-1.638t.056-1.568h-7v-1.218h8.484v.966q0 .98-.056 1.736a12 12 0 0 1-.238 1.722h1.666v1.232h-11.27zm8.386 6.16V48.39h-5.502v1.386z"/></svg>