<svg width="390" height="483" viewBox="0 0 390 483" fill="none" xmlns="http://www.w3.org/2000/svg">
<rect width="390" height="483" fill="white"/>
<path d="M15.5757 431.576C15.3414 431.81 15.3414 432.19 15.5757 432.424L19.3941 436.243C19.6284 436.477 20.0083 436.477 20.2426 436.243C20.477 436.008 20.477 435.628 20.2426 435.394L16.8485 432L20.2426 428.606C20.477 428.372 20.477 427.992 20.2426 427.757C20.0083 427.523 19.6284 427.523 19.3941 427.757L15.5757 431.576ZM374.424 432.424C374.659 432.19 374.659 431.81 374.424 431.576L370.606 427.757C370.372 427.523 369.992 427.523 369.757 427.757C369.523 427.992 369.523 428.372 369.757 428.606L373.151 432L369.757 435.394C369.523 435.628 369.523 436.008 369.757 436.243C369.992 436.477 370.372 436.477 370.606 436.243L374.424 432.424ZM16 432.6H374V431.4H16V432.6Z" fill="#6B6B6B"/>
<path d="M194.418 443.054H188.804V446.302H193.522V447.562H188.804V452.098H187.348V441.794H194.418V443.054ZM197.442 444.818V452.098H195.986V444.818H197.442ZM195.888 442.438C195.888 442.195 195.963 441.999 196.112 441.85C196.271 441.691 196.472 441.612 196.714 441.612C196.957 441.612 197.153 441.691 197.302 441.85C197.461 441.999 197.54 442.195 197.54 442.438C197.54 442.671 197.461 442.867 197.302 443.026C197.153 443.185 196.957 443.264 196.714 443.264C196.472 443.264 196.271 443.189 196.112 443.04C195.963 442.881 195.888 442.681 195.888 442.438ZM200.701 441.794V452.098H199.245V441.794H200.701ZM203.843 441.794V452.098H202.387V441.794H203.843Z" fill="#6B6B6B"/>
<path d="M18.562 40.838H23.672V42.098H17.106V31.794H18.562V40.838ZM27.8833 40.964C28.2659 40.964 28.6253 40.8567 28.9613 40.642C29.2973 40.418 29.5633 40.1193 29.7593 39.746C29.9646 39.3633 30.0673 38.9433 30.0673 38.486C30.0673 38.0287 29.9646 37.6133 29.7593 37.24C29.5633 36.8573 29.2973 36.5587 28.9613 36.344C28.6253 36.12 28.2659 36.008 27.8833 36.008C27.2579 36.008 26.7493 36.2367 26.3573 36.694C25.9653 37.1513 25.7693 37.7487 25.7693 38.486C25.7693 39.2233 25.9653 39.8207 26.3573 40.278C26.7493 40.7353 27.2579 40.964 27.8833 40.964ZM24.3133 38.486C24.3133 37.7767 24.4579 37.142 24.7473 36.582C25.0459 36.022 25.4566 35.588 25.9793 35.28C26.5113 34.9627 27.1133 34.804 27.7853 34.804C28.2146 34.804 28.6253 34.9113 29.0173 35.126C29.4186 35.3313 29.7639 35.644 30.0533 36.064V34.776H31.5093V42.098L30.0533 42.112V40.894C29.7546 41.3233 29.4093 41.6453 29.0173 41.86C28.6253 42.0653 28.2146 42.168 27.7853 42.168C27.1133 42.168 26.5113 42.014 25.9793 41.706C25.4566 41.3887 25.0459 40.95 24.7473 40.39C24.4579 39.83 24.3133 39.1953 24.3133 38.486ZM37.037 42.168C36.673 42.168 36.2763 42.07 35.847 41.874C35.427 41.678 35.063 41.3513 34.755 40.894V42.112H33.299V31.794H34.755V36.05C35.063 35.574 35.427 35.2427 35.847 35.056C36.2763 34.86 36.6776 34.762 37.051 34.762C37.723 34.762 38.325 34.9207 38.857 35.238C39.389 35.5553 39.8043 35.994 40.103 36.554C40.4016 37.114 40.551 37.7533 40.551 38.472C40.551 39.1907 40.4016 39.83 40.103 40.39C39.8043 40.95 39.389 41.3887 38.857 41.706C38.325 42.014 37.7183 42.168 37.037 42.168ZM34.755 38.486C34.755 38.9433 34.853 39.3633 35.049 39.746C35.245 40.1287 35.511 40.432 35.847 40.656C36.1923 40.88 36.561 40.992 36.953 40.992C37.5876 40.992 38.101 40.7633 38.493 40.306C38.8943 39.8393 39.095 39.2327 39.095 38.486C39.095 37.7487 38.8943 37.1513 38.493 36.694C38.101 36.2273 37.5876 35.994 36.953 35.994C36.561 35.994 36.197 36.106 35.861 36.33C35.525 36.554 35.2543 36.8573 35.049 37.24C34.853 37.6227 34.755 38.038 34.755 38.486ZM47.185 37.898C47.1197 37.3567 46.9283 36.904 46.611 36.54C46.2937 36.1667 45.8363 35.98 45.239 35.98C44.6977 35.98 44.2263 36.1667 43.825 36.54C43.433 36.904 43.195 37.3613 43.111 37.912L47.185 37.898ZM41.711 38.458C41.711 37.7393 41.8603 37.1 42.159 36.54C42.4577 35.98 42.8683 35.546 43.391 35.238C43.923 34.9207 44.5297 34.762 45.211 34.762C46.1723 34.762 46.877 34.9953 47.325 35.462C47.7823 35.9287 48.0903 36.358 48.249 36.75C48.4637 37.2727 48.571 37.8513 48.571 38.486C48.571 38.6167 48.5663 38.7333 48.557 38.836C48.5477 38.9293 48.543 38.99 48.543 39.018H43.111C43.195 39.578 43.4377 40.0353 43.839 40.39C44.2403 40.7447 44.7023 40.922 45.225 40.922C45.645 40.922 45.9903 40.8567 46.261 40.726C46.541 40.5953 46.7323 40.474 46.835 40.362C46.9377 40.25 47.0357 40.124 47.129 39.984L48.305 40.516C48.081 40.9733 47.7077 41.3607 47.185 41.678C46.6623 41.986 46.0043 42.14 45.211 42.14C44.5297 42.14 43.923 41.986 43.391 41.678C42.8683 41.3607 42.4577 40.922 42.159 40.362C41.8603 39.802 41.711 39.1673 41.711 38.458ZM51.3294 31.794V42.098H49.8734V31.794H51.3294Z" fill="#6B6B6B"/>
<path d="M16.5 56C16.5 54.067 18.067 52.5 20 52.5H370C371.933 52.5 373.5 54.067 373.5 56V90C373.5 91.933 371.933 93.5 370 93.5H20C18.067 93.5 16.5 91.933 16.5 90V56Z" fill="white"/>
<path d="M16.5 56C16.5 54.067 18.067 52.5 20 52.5H370C371.933 52.5 373.5 54.067 373.5 56V90C373.5 91.933 371.933 93.5 370 93.5H20C18.067 93.5 16.5 91.933 16.5 90V56Z" stroke="#C2C2C2"/>
<path d="M37.552 68.632H34V79.064H32.592V68.632H29.024V67.384H37.552V68.632ZM43.7428 74.392C43.6681 73.7093 43.4441 73.1387 43.0708 72.68C42.7081 72.2107 42.1588 71.976 41.4228 71.976C40.7508 71.976 40.1748 72.2053 39.6948 72.664C39.2254 73.112 38.9428 73.6933 38.8468 74.408L43.7428 74.392ZM37.4548 74.936C37.4548 74.1253 37.6201 73.4053 37.9508 72.776C38.2814 72.1467 38.7454 71.656 39.3428 71.304C39.9401 70.952 40.6174 70.776 41.3748 70.776C42.9641 70.776 44.1001 71.5227 44.7828 73.016C45.0068 73.6133 45.1188 74.248 45.1188 74.92C45.1188 75.1013 45.1134 75.2507 45.1028 75.368C45.0921 75.4747 45.0868 75.5333 45.0868 75.544H38.8468C38.9534 76.2373 39.2414 76.8027 39.7108 77.24C40.1908 77.6773 40.7508 77.896 41.3908 77.896C41.9028 77.896 42.3241 77.816 42.6548 77.656C42.9961 77.496 43.2308 77.3413 43.3588 77.192C43.4974 77.032 43.6201 76.872 43.7268 76.712L44.8468 77.288C44.6014 77.7893 44.1801 78.216 43.5828 78.568C42.9961 78.92 42.2601 79.096 41.3748 79.096C40.6174 79.096 39.9401 78.92 39.3428 78.568C38.7454 78.216 38.2814 77.7253 37.9508 77.096C37.6201 76.4667 37.4548 75.7467 37.4548 74.936ZM50.6661 74.936L53.7541 79.064H52.0101L49.8821 76.12L47.7861 79.064H46.0261L49.0821 74.936L45.9941 70.792H47.7701L49.8821 73.784L52.0101 70.792H53.7701L50.6661 74.936ZM58.2314 79.096C57.5487 79.096 56.9887 78.872 56.5514 78.424C56.114 77.976 55.8847 77.4 55.8634 76.696V72.072H54.4874V70.84H55.8634V68.648H57.2714V70.84H59.0474V72.072H57.2714V76.6C57.2714 76.92 57.362 77.1973 57.5434 77.432C57.7247 77.6667 57.954 77.784 58.2314 77.784C58.3914 77.784 58.5354 77.7733 58.6634 77.752C58.7914 77.7307 58.9194 77.704 59.0474 77.672L59.3034 78.968C58.898 79.0533 58.5407 79.096 58.2314 79.096Z" fill="#C2C2C2"/>
<path d="M359.3 65.7V81.3H340.7V65.7H359.3Z" stroke="#C2C2C2" stroke-width="1.4"/>
<path d="M355 63V68" stroke="#C2C2C2" stroke-width="1.4"/>
<path d="M350 63V68" stroke="#C2C2C2" stroke-width="1.4"/>
<path d="M345 63V68" stroke="#C2C2C2" stroke-width="1.4"/>
<path d="M341 70.5H359" stroke="#C2C2C2" stroke-width="1.4"/>
<path d="M356.5 76.5C356.5 77.6046 355.605 78.5 354.5 78.5C353.395 78.5 352.5 77.6046 352.5 76.5C352.5 75.3954 353.395 74.5 354.5 74.5C355.605 74.5 356.5 75.3954 356.5 76.5Z" stroke="#C2C2C2" stroke-width="1.4"/>
<g filter="url(#filter0_d_2281_6180)">
<rect x="16" y="106" width="358" height="299" rx="8" fill="white" shape-rendering="crispEdges"/>
<path d="M43 143.5L38 137.5L43 131.5" stroke="#C2C2C2" stroke-width="1.4" stroke-linejoin="bevel"/>
<path d="M161.152 142.416C161.32 142.26 161.932 141.696 162.988 140.724C163.96 139.848 164.734 139.128 165.31 138.564C165.898 137.988 166.39 137.4 166.786 136.8C167.182 136.188 167.38 135.612 167.38 135.072C167.38 134.328 167.164 133.722 166.732 133.254C166.312 132.774 165.766 132.534 165.094 132.534C164.578 132.534 164.08 132.702 163.6 133.038C163.12 133.374 162.766 133.806 162.538 134.334L160.9 133.614C161.26 132.798 161.83 132.132 162.61 131.616C163.402 131.088 164.23 130.824 165.094 130.824C165.898 130.824 166.612 131.004 167.236 131.364C167.872 131.724 168.364 132.228 168.712 132.876C169.072 133.512 169.252 134.244 169.252 135.072C169.252 135.888 169.006 136.698 168.514 137.502C168.034 138.306 167.446 139.05 166.75 139.734C166.066 140.418 165.19 141.216 164.122 142.128L163.798 142.416H169.45V144.054H161.332L161.152 142.416ZM175.934 142.524C176.522 142.524 177.044 142.314 177.5 141.894C177.968 141.474 178.328 140.886 178.58 140.13C178.832 139.362 178.958 138.486 178.958 137.502C178.958 136.506 178.832 135.63 178.58 134.874C178.328 134.118 177.974 133.53 177.518 133.11C177.062 132.69 176.534 132.48 175.934 132.48C175.334 132.48 174.8 132.69 174.332 133.11C173.876 133.53 173.522 134.118 173.27 134.874C173.018 135.63 172.892 136.506 172.892 137.502C172.892 138.486 173.018 139.362 173.27 140.13C173.522 140.886 173.876 141.474 174.332 141.894C174.8 142.314 175.334 142.524 175.934 142.524ZM171.02 137.502C171.02 136.218 171.23 135.072 171.65 134.064C172.07 133.044 172.652 132.252 173.396 131.688C174.14 131.112 174.986 130.824 175.934 130.824C176.882 130.824 177.728 131.112 178.472 131.688C179.216 132.252 179.792 133.044 180.2 134.064C180.62 135.072 180.83 136.218 180.83 137.502C180.83 138.786 180.62 139.938 180.2 140.958C179.792 141.966 179.216 142.752 178.472 143.316C177.728 143.88 176.882 144.162 175.934 144.162C174.986 144.162 174.14 143.88 173.396 143.316C172.652 142.752 172.07 141.966 171.65 140.958C171.23 139.938 171.02 138.786 171.02 137.502ZM182.677 142.416C182.845 142.26 183.457 141.696 184.513 140.724C185.485 139.848 186.259 139.128 186.835 138.564C187.423 137.988 187.915 137.4 188.311 136.8C188.707 136.188 188.905 135.612 188.905 135.072C188.905 134.328 188.689 133.722 188.257 133.254C187.837 132.774 187.291 132.534 186.619 132.534C186.103 132.534 185.605 132.702 185.125 133.038C184.645 133.374 184.291 133.806 184.063 134.334L182.425 133.614C182.785 132.798 183.355 132.132 184.135 131.616C184.927 131.088 185.755 130.824 186.619 130.824C187.423 130.824 188.137 131.004 188.761 131.364C189.397 131.724 189.889 132.228 190.237 132.876C190.597 133.512 190.777 134.244 190.777 135.072C190.777 135.888 190.531 136.698 190.039 137.502C189.559 138.306 188.971 139.05 188.275 139.734C187.591 140.418 186.715 141.216 185.647 142.128L185.323 142.416H190.975V144.054H182.857L182.677 142.416ZM200.249 139.014H201.923V140.652H200.249V144.054H198.395V140.652H192.743L192.563 139.014L198.467 130.95H200.249V139.014ZM198.395 139.014V134.064L194.795 139.014H198.395ZM204.715 142.2C205.039 142.2 205.303 142.302 205.507 142.506C205.711 142.71 205.813 142.974 205.813 143.298C205.813 143.634 205.711 143.904 205.507 144.108C205.303 144.312 205.039 144.414 204.715 144.414C204.391 144.414 204.121 144.312 203.905 144.108C203.701 143.904 203.599 143.634 203.599 143.298C203.599 142.974 203.701 142.71 203.905 142.506C204.121 142.302 204.391 142.2 204.715 142.2ZM213.235 142.524C213.823 142.524 214.345 142.314 214.801 141.894C215.269 141.474 215.629 140.886 215.881 140.13C216.133 139.362 216.259 138.486 216.259 137.502C216.259 136.506 216.133 135.63 215.881 134.874C215.629 134.118 215.275 133.53 214.819 133.11C214.363 132.69 213.835 132.48 213.235 132.48C212.635 132.48 212.101 132.69 211.633 133.11C211.177 133.53 210.823 134.118 210.571 134.874C210.319 135.63 210.193 136.506 210.193 137.502C210.193 138.486 210.319 139.362 210.571 140.13C210.823 140.886 211.177 141.474 211.633 141.894C212.101 142.314 212.635 142.524 213.235 142.524ZM208.321 137.502C208.321 136.218 208.531 135.072 208.951 134.064C209.371 133.044 209.953 132.252 210.697 131.688C211.441 131.112 212.287 130.824 213.235 130.824C214.183 130.824 215.029 131.112 215.773 131.688C216.517 132.252 217.093 133.044 217.501 134.064C217.921 135.072 218.131 136.218 218.131 137.502C218.131 138.786 217.921 139.938 217.501 140.958C217.093 141.966 216.517 142.752 215.773 143.316C215.029 143.88 214.183 144.162 213.235 144.162C212.287 144.162 211.441 143.88 210.697 143.316C209.953 142.752 209.371 141.966 208.951 140.958C208.531 139.938 208.321 138.786 208.321 137.502ZM227.394 139.014H229.068V140.652H227.394V144.054H225.54V140.652H219.888L219.708 139.014L225.612 130.95H227.394V139.014ZM225.54 139.014V134.064L221.94 139.014H225.54Z" fill="#121212"/>
<path d="M347 131.5L352 137.5L347 143.5" stroke="#C2C2C2" stroke-width="1.4" stroke-linejoin="bevel"/>
<path d="M47.448 184.88C47.7787 185.509 48.216 186.016 48.76 186.4C49.3147 186.773 49.8853 186.96 50.472 186.96C51.24 186.96 51.864 186.779 52.344 186.416C52.8347 186.043 53.08 185.557 53.08 184.96C53.08 184.544 52.9573 184.197 52.712 183.92C52.4667 183.643 52.1627 183.419 51.8 183.248C51.448 183.077 50.9573 182.88 50.328 182.656C49.56 182.389 48.9413 182.139 48.472 181.904C48.0133 181.669 47.6187 181.333 47.288 180.896C46.9573 180.459 46.792 179.899 46.792 179.216C46.792 178.608 46.9573 178.08 47.288 177.632C47.6293 177.184 48.088 176.843 48.664 176.608C49.24 176.373 49.88 176.256 50.584 176.256C51.4267 176.256 52.184 176.48 52.856 176.928C53.528 177.376 54.0027 178.016 54.28 178.848L53.016 179.296C52.8453 178.741 52.5307 178.304 52.072 177.984C51.624 177.664 51.1387 177.499 50.616 177.488C49.9227 177.488 49.3413 177.648 48.872 177.968C48.4133 178.277 48.184 178.693 48.184 179.216C48.184 179.621 48.3067 179.963 48.552 180.24C48.7973 180.517 49.096 180.747 49.448 180.928C49.8107 181.099 50.3067 181.296 50.936 181.52C51.704 181.797 52.3227 182.059 52.792 182.304C53.2613 182.539 53.6613 182.875 53.992 183.312C54.3227 183.739 54.488 184.293 54.488 184.976C54.488 185.605 54.3173 186.165 53.976 186.656C53.6453 187.147 53.176 187.525 52.568 187.792C51.96 188.059 51.2667 188.192 50.488 188.192C49.6133 188.192 48.8133 187.963 48.088 187.504C47.3627 187.035 46.7547 186.373 46.264 185.52L47.448 184.88Z" fill="#6B6B6B"/>
<path d="M93.918 178.96V188.064H92.51V176.384H93.982L98.35 183.664L102.718 176.384H104.206V188.064H102.798V178.944L98.35 186.144L93.918 178.96Z" fill="#6B6B6B"/>
<path d="M150.886 177.632H147.334V188.064H145.926V177.632H142.358V176.384H150.886V177.632Z" fill="#6B6B6B"/>
<path d="M198.86 188.064H197.468L194.54 178.736L191.708 188.064H190.316L186.684 176.384H188.156L191.02 185.792L193.804 176.4H195.276L198.108 185.792L200.86 176.384H202.332L198.86 188.064Z" fill="#6B6B6B"/>
<path d="M247.218 177.632H243.666V188.064H242.258V177.632H238.69V176.384H247.218V177.632Z" fill="#6B6B6B"/>
<path d="M295.518 177.632H289.07V181.584H294.462V182.816H289.07V188.064H287.662V176.384H295.518V177.632Z" fill="#6B6B6B"/>
<path d="M336.448 184.88C336.779 185.509 337.216 186.016 337.76 186.4C338.315 186.773 338.885 186.96 339.472 186.96C340.24 186.96 340.864 186.779 341.344 186.416C341.835 186.043 342.08 185.557 342.08 184.96C342.08 184.544 341.957 184.197 341.712 183.92C341.467 183.643 341.163 183.419 340.8 183.248C340.448 183.077 339.957 182.88 339.328 182.656C338.56 182.389 337.941 182.139 337.472 181.904C337.013 181.669 336.619 181.333 336.288 180.896C335.957 180.459 335.792 179.899 335.792 179.216C335.792 178.608 335.957 178.08 336.288 177.632C336.629 177.184 337.088 176.843 337.664 176.608C338.24 176.373 338.88 176.256 339.584 176.256C340.427 176.256 341.184 176.48 341.856 176.928C342.528 177.376 343.003 178.016 343.28 178.848L342.016 179.296C341.845 178.741 341.531 178.304 341.072 177.984C340.624 177.664 340.139 177.499 339.616 177.488C338.923 177.488 338.341 177.648 337.872 177.968C337.413 178.277 337.184 178.693 337.184 179.216C337.184 179.621 337.307 179.963 337.552 180.24C337.797 180.517 338.096 180.747 338.448 180.928C338.811 181.099 339.307 181.296 339.936 181.52C340.704 181.797 341.323 182.059 341.792 182.304C342.261 182.539 342.661 182.875 342.992 183.312C343.323 183.739 343.488 184.293 343.488 184.976C343.488 185.605 343.317 186.165 342.976 186.656C342.645 187.147 342.176 187.525 341.568 187.792C340.96 188.059 340.267 188.192 339.488 188.192C338.613 188.192 337.813 187.963 337.088 187.504C336.363 187.035 335.755 186.373 335.264 185.52L336.448 184.88Z" fill="#6B6B6B"/>
<path d="M45.056 224.896C45.6 224.896 46.0853 224.699 46.512 224.304C46.9387 223.909 47.2693 223.36 47.504 222.656C47.7493 221.941 47.872 221.131 47.872 220.224C47.872 219.317 47.7493 218.512 47.504 217.808C47.2693 217.104 46.9387 216.555 46.512 216.16C46.0853 215.765 45.6 215.568 45.056 215.568C44.5013 215.568 44.0107 215.765 43.584 216.16C43.1573 216.555 42.8213 217.104 42.576 217.808C42.3413 218.512 42.224 219.317 42.224 220.224C42.224 221.131 42.3413 221.941 42.576 222.656C42.8213 223.36 43.1573 223.909 43.584 224.304C44.0107 224.699 44.5013 224.896 45.056 224.896ZM40.816 220.224C40.816 219.083 40.9973 218.064 41.36 217.168C41.7227 216.272 42.224 215.573 42.864 215.072C43.504 214.571 44.2347 214.32 45.056 214.32C45.8773 214.32 46.608 214.571 47.248 215.072C47.888 215.573 48.384 216.272 48.736 217.168C49.0987 218.064 49.28 219.083 49.28 220.224C49.28 221.365 49.0987 222.384 48.736 223.28C48.384 224.176 47.888 224.875 47.248 225.376C46.608 225.877 45.8773 226.128 45.056 226.128C44.2347 226.128 43.504 225.877 42.864 225.376C42.224 224.875 41.7227 224.176 41.36 223.28C40.9973 222.384 40.816 221.365 40.816 220.224ZM55.0054 224.896C55.5494 224.896 56.0347 224.699 56.4614 224.304C56.888 223.909 57.2187 223.36 57.4534 222.656C57.6987 221.941 57.8214 221.131 57.8214 220.224C57.8214 219.317 57.6987 218.512 57.4534 217.808C57.2187 217.104 56.888 216.555 56.4614 216.16C56.0347 215.765 55.5494 215.568 55.0054 215.568C54.4507 215.568 53.96 215.765 53.5334 216.16C53.1067 216.555 52.7707 217.104 52.5254 217.808C52.2907 218.512 52.1734 219.317 52.1734 220.224C52.1734 221.131 52.2907 221.941 52.5254 222.656C52.7707 223.36 53.1067 223.909 53.5334 224.304C53.96 224.699 54.4507 224.896 55.0054 224.896ZM50.7654 220.224C50.7654 219.083 50.9467 218.064 51.3094 217.168C51.672 216.272 52.1734 215.573 52.8134 215.072C53.4534 214.571 54.184 214.32 55.0054 214.32C55.8267 214.32 56.5574 214.571 57.1974 215.072C57.8374 215.573 58.3334 216.272 58.6854 217.168C59.048 218.064 59.2294 219.083 59.2294 220.224C59.2294 221.365 59.048 222.384 58.6854 223.28C58.3334 224.176 57.8374 224.875 57.1974 225.376C56.5574 225.877 55.8267 226.128 55.0054 226.128C54.184 226.128 53.4534 225.877 52.8134 225.376C52.1734 224.875 51.672 224.176 51.3094 223.28C50.9467 222.384 50.7654 221.365 50.7654 220.224Z" fill="#E1E1E1"/>
<path d="M93.222 224.896C93.766 224.896 94.2513 224.699 94.678 224.304C95.1047 223.909 95.4353 223.36 95.67 222.656C95.9153 221.941 96.038 221.131 96.038 220.224C96.038 219.317 95.9153 218.512 95.67 217.808C95.4353 217.104 95.1047 216.555 94.678 216.16C94.2513 215.765 93.766 215.568 93.222 215.568C92.6673 215.568 92.1767 215.765 91.75 216.16C91.3233 216.555 90.9873 217.104 90.742 217.808C90.5073 218.512 90.39 219.317 90.39 220.224C90.39 221.131 90.5073 221.941 90.742 222.656C90.9873 223.36 91.3233 223.909 91.75 224.304C92.1767 224.699 92.6673 224.896 93.222 224.896ZM88.982 220.224C88.982 219.083 89.1633 218.064 89.526 217.168C89.8887 216.272 90.39 215.573 91.03 215.072C91.67 214.571 92.4007 214.32 93.222 214.32C94.0433 214.32 94.774 214.571 95.414 215.072C96.054 215.573 96.55 216.272 96.902 217.168C97.2647 218.064 97.446 219.083 97.446 220.224C97.446 221.365 97.2647 222.384 96.902 223.28C96.55 224.176 96.054 224.875 95.414 225.376C94.774 225.877 94.0433 226.128 93.222 226.128C92.4007 226.128 91.67 225.877 91.03 225.376C90.39 224.875 89.8887 224.176 89.526 223.28C89.1633 222.384 88.982 221.365 88.982 220.224ZM103.171 224.896C103.715 224.896 104.201 224.699 104.627 224.304C105.054 223.909 105.385 223.36 105.619 222.656C105.865 221.941 105.987 221.131 105.987 220.224C105.987 219.317 105.865 218.512 105.619 217.808C105.385 217.104 105.054 216.555 104.627 216.16C104.201 215.765 103.715 215.568 103.171 215.568C102.617 215.568 102.126 215.765 101.699 216.16C101.273 216.555 100.937 217.104 100.691 217.808C100.457 218.512 100.339 219.317 100.339 220.224C100.339 221.131 100.457 221.941 100.691 222.656C100.937 223.36 101.273 223.909 101.699 224.304C102.126 224.699 102.617 224.896 103.171 224.896ZM98.9314 220.224C98.9314 219.083 99.1127 218.064 99.4754 217.168C99.8381 216.272 100.339 215.573 100.979 215.072C101.619 214.571 102.35 214.32 103.171 214.32C103.993 214.32 104.723 214.571 105.363 215.072C106.003 215.573 106.499 216.272 106.851 217.168C107.214 218.064 107.395 219.083 107.395 220.224C107.395 221.365 107.214 222.384 106.851 223.28C106.499 224.176 106.003 224.875 105.363 225.376C104.723 225.877 103.993 226.128 103.171 226.128C102.35 226.128 101.619 225.877 100.979 225.376C100.339 224.875 99.8381 224.176 99.4754 223.28C99.1127 222.384 98.9314 221.365 98.9314 220.224Z" fill="#E1E1E1"/>
<path d="M141.39 224.896C141.934 224.896 142.419 224.699 142.846 224.304C143.273 223.909 143.603 223.36 143.838 222.656C144.083 221.941 144.206 221.131 144.206 220.224C144.206 219.317 144.083 218.512 143.838 217.808C143.603 217.104 143.273 216.555 142.846 216.16C142.419 215.765 141.934 215.568 141.39 215.568C140.835 215.568 140.345 215.765 139.918 216.16C139.491 216.555 139.155 217.104 138.91 217.808C138.675 218.512 138.558 219.317 138.558 220.224C138.558 221.131 138.675 221.941 138.91 222.656C139.155 223.36 139.491 223.909 139.918 224.304C140.345 224.699 140.835 224.896 141.39 224.896ZM137.15 220.224C137.15 219.083 137.331 218.064 137.694 217.168C138.057 216.272 138.558 215.573 139.198 215.072C139.838 214.571 140.569 214.32 141.39 214.32C142.211 214.32 142.942 214.571 143.582 215.072C144.222 215.573 144.718 216.272 145.07 217.168C145.433 218.064 145.614 219.083 145.614 220.224C145.614 221.365 145.433 222.384 145.07 223.28C144.718 224.176 144.222 224.875 143.582 225.376C142.942 225.877 142.211 226.128 141.39 226.128C140.569 226.128 139.838 225.877 139.198 225.376C138.558 224.875 138.057 224.176 137.694 223.28C137.331 222.384 137.15 221.365 137.15 220.224ZM151.339 224.896C151.883 224.896 152.369 224.699 152.795 224.304C153.222 223.909 153.553 223.36 153.787 222.656C154.033 221.941 154.155 221.131 154.155 220.224C154.155 219.317 154.033 218.512 153.787 217.808C153.553 217.104 153.222 216.555 152.795 216.16C152.369 215.765 151.883 215.568 151.339 215.568C150.785 215.568 150.294 215.765 149.867 216.16C149.441 216.555 149.105 217.104 148.859 217.808C148.625 218.512 148.507 219.317 148.507 220.224C148.507 221.131 148.625 221.941 148.859 222.656C149.105 223.36 149.441 223.909 149.867 224.304C150.294 224.699 150.785 224.896 151.339 224.896ZM147.099 220.224C147.099 219.083 147.281 218.064 147.643 217.168C148.006 216.272 148.507 215.573 149.147 215.072C149.787 214.571 150.518 214.32 151.339 214.32C152.161 214.32 152.891 214.571 153.531 215.072C154.171 215.573 154.667 216.272 155.019 217.168C155.382 218.064 155.563 219.083 155.563 220.224C155.563 221.365 155.382 222.384 155.019 223.28C154.667 224.176 154.171 224.875 153.531 225.376C152.891 225.877 152.161 226.128 151.339 226.128C150.518 226.128 149.787 225.877 149.147 225.376C148.507 224.875 148.006 224.176 147.643 223.28C147.281 222.384 147.099 221.365 147.099 220.224Z" fill="#E1E1E1"/>
<path d="M189.556 224.896C190.1 224.896 190.585 224.699 191.012 224.304C191.439 223.909 191.769 223.36 192.004 222.656C192.249 221.941 192.372 221.131 192.372 220.224C192.372 219.317 192.249 218.512 192.004 217.808C191.769 217.104 191.439 216.555 191.012 216.16C190.585 215.765 190.1 215.568 189.556 215.568C189.001 215.568 188.511 215.765 188.084 216.16C187.657 216.555 187.321 217.104 187.076 217.808C186.841 218.512 186.724 219.317 186.724 220.224C186.724 221.131 186.841 221.941 187.076 222.656C187.321 223.36 187.657 223.909 188.084 224.304C188.511 224.699 189.001 224.896 189.556 224.896ZM185.316 220.224C185.316 219.083 185.497 218.064 185.86 217.168C186.223 216.272 186.724 215.573 187.364 215.072C188.004 214.571 188.735 214.32 189.556 214.32C190.377 214.32 191.108 214.571 191.748 215.072C192.388 215.573 192.884 216.272 193.236 217.168C193.599 218.064 193.78 219.083 193.78 220.224C193.78 221.365 193.599 222.384 193.236 223.28C192.884 224.176 192.388 224.875 191.748 225.376C191.108 225.877 190.377 226.128 189.556 226.128C188.735 226.128 188.004 225.877 187.364 225.376C186.724 224.875 186.223 224.176 185.86 223.28C185.497 222.384 185.316 221.365 185.316 220.224ZM199.505 224.896C200.049 224.896 200.535 224.699 200.961 224.304C201.388 223.909 201.719 223.36 201.953 222.656C202.199 221.941 202.321 221.131 202.321 220.224C202.321 219.317 202.199 218.512 201.953 217.808C201.719 217.104 201.388 216.555 200.961 216.16C200.535 215.765 200.049 215.568 199.505 215.568C198.951 215.568 198.46 215.765 198.033 216.16C197.607 216.555 197.271 217.104 197.025 217.808C196.791 218.512 196.673 219.317 196.673 220.224C196.673 221.131 196.791 221.941 197.025 222.656C197.271 223.36 197.607 223.909 198.033 224.304C198.46 224.699 198.951 224.896 199.505 224.896ZM195.265 220.224C195.265 219.083 195.447 218.064 195.809 217.168C196.172 216.272 196.673 215.573 197.313 215.072C197.953 214.571 198.684 214.32 199.505 214.32C200.327 214.32 201.057 214.571 201.697 215.072C202.337 215.573 202.833 216.272 203.185 217.168C203.548 218.064 203.729 219.083 203.729 220.224C203.729 221.365 203.548 222.384 203.185 223.28C202.833 224.176 202.337 224.875 201.697 225.376C201.057 225.877 200.327 226.128 199.505 226.128C198.684 226.128 197.953 225.877 197.313 225.376C196.673 224.875 196.172 224.176 195.809 223.28C195.447 222.384 195.265 221.365 195.265 220.224Z" fill="#6B6B6B"/>
<path d="M237.722 224.896C238.266 224.896 238.751 224.699 239.178 224.304C239.605 223.909 239.935 223.36 240.17 222.656C240.415 221.941 240.538 221.131 240.538 220.224C240.538 219.317 240.415 218.512 240.17 217.808C239.935 217.104 239.605 216.555 239.178 216.16C238.751 215.765 238.266 215.568 237.722 215.568C237.167 215.568 236.677 215.765 236.25 216.16C235.823 216.555 235.487 217.104 235.242 217.808C235.007 218.512 234.89 219.317 234.89 220.224C234.89 221.131 235.007 221.941 235.242 222.656C235.487 223.36 235.823 223.909 236.25 224.304C236.677 224.699 237.167 224.896 237.722 224.896ZM233.482 220.224C233.482 219.083 233.663 218.064 234.026 217.168C234.389 216.272 234.89 215.573 235.53 215.072C236.17 214.571 236.901 214.32 237.722 214.32C238.543 214.32 239.274 214.571 239.914 215.072C240.554 215.573 241.05 216.272 241.402 217.168C241.765 218.064 241.946 219.083 241.946 220.224C241.946 221.365 241.765 222.384 241.402 223.28C241.05 224.176 240.554 224.875 239.914 225.376C239.274 225.877 238.543 226.128 237.722 226.128C236.901 226.128 236.17 225.877 235.53 225.376C234.89 224.875 234.389 224.176 234.026 223.28C233.663 222.384 233.482 221.365 233.482 220.224ZM247.671 224.896C248.215 224.896 248.701 224.699 249.127 224.304C249.554 223.909 249.885 223.36 250.119 222.656C250.365 221.941 250.487 221.131 250.487 220.224C250.487 219.317 250.365 218.512 250.119 217.808C249.885 217.104 249.554 216.555 249.127 216.16C248.701 215.765 248.215 215.568 247.671 215.568C247.117 215.568 246.626 215.765 246.199 216.16C245.773 216.555 245.437 217.104 245.191 217.808C244.957 218.512 244.839 219.317 244.839 220.224C244.839 221.131 244.957 221.941 245.191 222.656C245.437 223.36 245.773 223.909 246.199 224.304C246.626 224.699 247.117 224.896 247.671 224.896ZM243.431 220.224C243.431 219.083 243.613 218.064 243.975 217.168C244.338 216.272 244.839 215.573 245.479 215.072C246.119 214.571 246.85 214.32 247.671 214.32C248.493 214.32 249.223 214.571 249.863 215.072C250.503 215.573 250.999 216.272 251.351 217.168C251.714 218.064 251.895 219.083 251.895 220.224C251.895 221.365 251.714 222.384 251.351 223.28C250.999 224.176 250.503 224.875 249.863 225.376C249.223 225.877 248.493 226.128 247.671 226.128C246.85 226.128 246.119 225.877 245.479 225.376C244.839 224.875 244.338 224.176 243.975 223.28C243.613 222.384 243.431 221.365 243.431 220.224Z" fill="#6B6B6B"/>
<path d="M285.89 224.896C286.434 224.896 286.919 224.699 287.346 224.304C287.773 223.909 288.103 223.36 288.338 222.656C288.583 221.941 288.706 221.131 288.706 220.224C288.706 219.317 288.583 218.512 288.338 217.808C288.103 217.104 287.773 216.555 287.346 216.16C286.919 215.765 286.434 215.568 285.89 215.568C285.335 215.568 284.845 215.765 284.418 216.16C283.991 216.555 283.655 217.104 283.41 217.808C283.175 218.512 283.058 219.317 283.058 220.224C283.058 221.131 283.175 221.941 283.41 222.656C283.655 223.36 283.991 223.909 284.418 224.304C284.845 224.699 285.335 224.896 285.89 224.896ZM281.65 220.224C281.65 219.083 281.831 218.064 282.194 217.168C282.557 216.272 283.058 215.573 283.698 215.072C284.338 214.571 285.069 214.32 285.89 214.32C286.711 214.32 287.442 214.571 288.082 215.072C288.722 215.573 289.218 216.272 289.57 217.168C289.933 218.064 290.114 219.083 290.114 220.224C290.114 221.365 289.933 222.384 289.57 223.28C289.218 224.176 288.722 224.875 288.082 225.376C287.442 225.877 286.711 226.128 285.89 226.128C285.069 226.128 284.338 225.877 283.698 225.376C283.058 224.875 282.557 224.176 282.194 223.28C281.831 222.384 281.65 221.365 281.65 220.224ZM295.839 224.896C296.383 224.896 296.869 224.699 297.295 224.304C297.722 223.909 298.053 223.36 298.287 222.656C298.533 221.941 298.655 221.131 298.655 220.224C298.655 219.317 298.533 218.512 298.287 217.808C298.053 217.104 297.722 216.555 297.295 216.16C296.869 215.765 296.383 215.568 295.839 215.568C295.285 215.568 294.794 215.765 294.367 216.16C293.941 216.555 293.605 217.104 293.359 217.808C293.125 218.512 293.007 219.317 293.007 220.224C293.007 221.131 293.125 221.941 293.359 222.656C293.605 223.36 293.941 223.909 294.367 224.304C294.794 224.699 295.285 224.896 295.839 224.896ZM291.599 220.224C291.599 219.083 291.781 218.064 292.143 217.168C292.506 216.272 293.007 215.573 293.647 215.072C294.287 214.571 295.018 214.32 295.839 214.32C296.661 214.32 297.391 214.571 298.031 215.072C298.671 215.573 299.167 216.272 299.519 217.168C299.882 218.064 300.063 219.083 300.063 220.224C300.063 221.365 299.882 222.384 299.519 223.28C299.167 224.176 298.671 224.875 298.031 225.376C297.391 225.877 296.661 226.128 295.839 226.128C295.018 226.128 294.287 225.877 293.647 225.376C293.007 224.875 292.506 224.176 292.143 223.28C291.781 222.384 291.599 221.365 291.599 220.224Z" fill="#6B6B6B"/>
<path d="M334.056 224.896C334.6 224.896 335.085 224.699 335.512 224.304C335.939 223.909 336.269 223.36 336.504 222.656C336.749 221.941 336.872 221.131 336.872 220.224C336.872 219.317 336.749 218.512 336.504 217.808C336.269 217.104 335.939 216.555 335.512 216.16C335.085 215.765 334.6 215.568 334.056 215.568C333.501 215.568 333.011 215.765 332.584 216.16C332.157 216.555 331.821 217.104 331.576 217.808C331.341 218.512 331.224 219.317 331.224 220.224C331.224 221.131 331.341 221.941 331.576 222.656C331.821 223.36 332.157 223.909 332.584 224.304C333.011 224.699 333.501 224.896 334.056 224.896ZM329.816 220.224C329.816 219.083 329.997 218.064 330.36 217.168C330.723 216.272 331.224 215.573 331.864 215.072C332.504 214.571 333.235 214.32 334.056 214.32C334.877 214.32 335.608 214.571 336.248 215.072C336.888 215.573 337.384 216.272 337.736 217.168C338.099 218.064 338.28 219.083 338.28 220.224C338.28 221.365 338.099 222.384 337.736 223.28C337.384 224.176 336.888 224.875 336.248 225.376C335.608 225.877 334.877 226.128 334.056 226.128C333.235 226.128 332.504 225.877 331.864 225.376C331.224 224.875 330.723 224.176 330.36 223.28C329.997 222.384 329.816 221.365 329.816 220.224ZM344.005 224.896C344.549 224.896 345.035 224.699 345.461 224.304C345.888 223.909 346.219 223.36 346.453 222.656C346.699 221.941 346.821 221.131 346.821 220.224C346.821 219.317 346.699 218.512 346.453 217.808C346.219 217.104 345.888 216.555 345.461 216.16C345.035 215.765 344.549 215.568 344.005 215.568C343.451 215.568 342.96 215.765 342.533 216.16C342.107 216.555 341.771 217.104 341.525 217.808C341.291 218.512 341.173 219.317 341.173 220.224C341.173 221.131 341.291 221.941 341.525 222.656C341.771 223.36 342.107 223.909 342.533 224.304C342.96 224.699 343.451 224.896 344.005 224.896ZM339.765 220.224C339.765 219.083 339.947 218.064 340.309 217.168C340.672 216.272 341.173 215.573 341.813 215.072C342.453 214.571 343.184 214.32 344.005 214.32C344.827 214.32 345.557 214.571 346.197 215.072C346.837 215.573 347.333 216.272 347.685 217.168C348.048 218.064 348.229 219.083 348.229 220.224C348.229 221.365 348.048 222.384 347.685 223.28C347.333 224.176 346.837 224.875 346.197 225.376C345.557 225.877 344.827 226.128 344.005 226.128C343.184 226.128 342.453 225.877 341.813 225.376C341.173 224.875 340.672 224.176 340.309 223.28C339.947 222.384 339.765 221.365 339.765 220.224Z" fill="#6B6B6B"/>
<path d="M45.056 262.896C45.6 262.896 46.0853 262.699 46.512 262.304C46.9387 261.909 47.2693 261.36 47.504 260.656C47.7493 259.941 47.872 259.131 47.872 258.224C47.872 257.317 47.7493 256.512 47.504 255.808C47.2693 255.104 46.9387 254.555 46.512 254.16C46.0853 253.765 45.6 253.568 45.056 253.568C44.5013 253.568 44.0107 253.765 43.584 254.16C43.1573 254.555 42.8213 255.104 42.576 255.808C42.3413 256.512 42.224 257.317 42.224 258.224C42.224 259.131 42.3413 259.941 42.576 260.656C42.8213 261.36 43.1573 261.909 43.584 262.304C44.0107 262.699 44.5013 262.896 45.056 262.896ZM40.816 258.224C40.816 257.083 40.9973 256.064 41.36 255.168C41.7227 254.272 42.224 253.573 42.864 253.072C43.504 252.571 44.2347 252.32 45.056 252.32C45.8773 252.32 46.608 252.571 47.248 253.072C47.888 253.573 48.384 254.272 48.736 255.168C49.0987 256.064 49.28 257.083 49.28 258.224C49.28 259.365 49.0987 260.384 48.736 261.28C48.384 262.176 47.888 262.875 47.248 263.376C46.608 263.877 45.8773 264.128 45.056 264.128C44.2347 264.128 43.504 263.877 42.864 263.376C42.224 262.875 41.7227 262.176 41.36 261.28C40.9973 260.384 40.816 259.365 40.816 258.224ZM55.0054 262.896C55.5494 262.896 56.0347 262.699 56.4614 262.304C56.888 261.909 57.2187 261.36 57.4534 260.656C57.6987 259.941 57.8214 259.131 57.8214 258.224C57.8214 257.317 57.6987 256.512 57.4534 255.808C57.2187 255.104 56.888 254.555 56.4614 254.16C56.0347 253.765 55.5494 253.568 55.0054 253.568C54.4507 253.568 53.96 253.765 53.5334 254.16C53.1067 254.555 52.7707 255.104 52.5254 255.808C52.2907 256.512 52.1734 257.317 52.1734 258.224C52.1734 259.131 52.2907 259.941 52.5254 260.656C52.7707 261.36 53.1067 261.909 53.5334 262.304C53.96 262.699 54.4507 262.896 55.0054 262.896ZM50.7654 258.224C50.7654 257.083 50.9467 256.064 51.3094 255.168C51.672 254.272 52.1734 253.573 52.8134 253.072C53.4534 252.571 54.184 252.32 55.0054 252.32C55.8267 252.32 56.5574 252.571 57.1974 253.072C57.8374 253.573 58.3334 254.272 58.6854 255.168C59.048 256.064 59.2294 257.083 59.2294 258.224C59.2294 259.365 59.048 260.384 58.6854 261.28C58.3334 262.176 57.8374 262.875 57.1974 263.376C56.5574 263.877 55.8267 264.128 55.0054 264.128C54.184 264.128 53.4534 263.877 52.8134 263.376C52.1734 262.875 51.672 262.176 51.3094 261.28C50.9467 260.384 50.7654 259.365 50.7654 258.224Z" fill="#6B6B6B"/>
<path d="M93.222 262.896C93.766 262.896 94.2513 262.699 94.678 262.304C95.1047 261.909 95.4353 261.36 95.67 260.656C95.9153 259.941 96.038 259.131 96.038 258.224C96.038 257.317 95.9153 256.512 95.67 255.808C95.4353 255.104 95.1047 254.555 94.678 254.16C94.2513 253.765 93.766 253.568 93.222 253.568C92.6673 253.568 92.1767 253.765 91.75 254.16C91.3233 254.555 90.9873 255.104 90.742 255.808C90.5073 256.512 90.39 257.317 90.39 258.224C90.39 259.131 90.5073 259.941 90.742 260.656C90.9873 261.36 91.3233 261.909 91.75 262.304C92.1767 262.699 92.6673 262.896 93.222 262.896ZM88.982 258.224C88.982 257.083 89.1633 256.064 89.526 255.168C89.8887 254.272 90.39 253.573 91.03 253.072C91.67 252.571 92.4007 252.32 93.222 252.32C94.0433 252.32 94.774 252.571 95.414 253.072C96.054 253.573 96.55 254.272 96.902 255.168C97.2647 256.064 97.446 257.083 97.446 258.224C97.446 259.365 97.2647 260.384 96.902 261.28C96.55 262.176 96.054 262.875 95.414 263.376C94.774 263.877 94.0433 264.128 93.222 264.128C92.4007 264.128 91.67 263.877 91.03 263.376C90.39 262.875 89.8887 262.176 89.526 261.28C89.1633 260.384 88.982 259.365 88.982 258.224ZM103.171 262.896C103.715 262.896 104.201 262.699 104.627 262.304C105.054 261.909 105.385 261.36 105.619 260.656C105.865 259.941 105.987 259.131 105.987 258.224C105.987 257.317 105.865 256.512 105.619 255.808C105.385 255.104 105.054 254.555 104.627 254.16C104.201 253.765 103.715 253.568 103.171 253.568C102.617 253.568 102.126 253.765 101.699 254.16C101.273 254.555 100.937 255.104 100.691 255.808C100.457 256.512 100.339 257.317 100.339 258.224C100.339 259.131 100.457 259.941 100.691 260.656C100.937 261.36 101.273 261.909 101.699 262.304C102.126 262.699 102.617 262.896 103.171 262.896ZM98.9314 258.224C98.9314 257.083 99.1127 256.064 99.4754 255.168C99.8381 254.272 100.339 253.573 100.979 253.072C101.619 252.571 102.35 252.32 103.171 252.32C103.993 252.32 104.723 252.571 105.363 253.072C106.003 253.573 106.499 254.272 106.851 255.168C107.214 256.064 107.395 257.083 107.395 258.224C107.395 259.365 107.214 260.384 106.851 261.28C106.499 262.176 106.003 262.875 105.363 263.376C104.723 263.877 103.993 264.128 103.171 264.128C102.35 264.128 101.619 263.877 100.979 263.376C100.339 262.875 99.8381 262.176 99.4754 261.28C99.1127 260.384 98.9314 259.365 98.9314 258.224Z" fill="#6B6B6B"/>
<path d="M141.39 262.896C141.934 262.896 142.419 262.699 142.846 262.304C143.273 261.909 143.603 261.36 143.838 260.656C144.083 259.941 144.206 259.131 144.206 258.224C144.206 257.317 144.083 256.512 143.838 255.808C143.603 255.104 143.273 254.555 142.846 254.16C142.419 253.765 141.934 253.568 141.39 253.568C140.835 253.568 140.345 253.765 139.918 254.16C139.491 254.555 139.155 255.104 138.91 255.808C138.675 256.512 138.558 257.317 138.558 258.224C138.558 259.131 138.675 259.941 138.91 260.656C139.155 261.36 139.491 261.909 139.918 262.304C140.345 262.699 140.835 262.896 141.39 262.896ZM137.15 258.224C137.15 257.083 137.331 256.064 137.694 255.168C138.057 254.272 138.558 253.573 139.198 253.072C139.838 252.571 140.569 252.32 141.39 252.32C142.211 252.32 142.942 252.571 143.582 253.072C144.222 253.573 144.718 254.272 145.07 255.168C145.433 256.064 145.614 257.083 145.614 258.224C145.614 259.365 145.433 260.384 145.07 261.28C144.718 262.176 144.222 262.875 143.582 263.376C142.942 263.877 142.211 264.128 141.39 264.128C140.569 264.128 139.838 263.877 139.198 263.376C138.558 262.875 138.057 262.176 137.694 261.28C137.331 260.384 137.15 259.365 137.15 258.224ZM151.339 262.896C151.883 262.896 152.369 262.699 152.795 262.304C153.222 261.909 153.553 261.36 153.787 260.656C154.033 259.941 154.155 259.131 154.155 258.224C154.155 257.317 154.033 256.512 153.787 255.808C153.553 255.104 153.222 254.555 152.795 254.16C152.369 253.765 151.883 253.568 151.339 253.568C150.785 253.568 150.294 253.765 149.867 254.16C149.441 254.555 149.105 255.104 148.859 255.808C148.625 256.512 148.507 257.317 148.507 258.224C148.507 259.131 148.625 259.941 148.859 260.656C149.105 261.36 149.441 261.909 149.867 262.304C150.294 262.699 150.785 262.896 151.339 262.896ZM147.099 258.224C147.099 257.083 147.281 256.064 147.643 255.168C148.006 254.272 148.507 253.573 149.147 253.072C149.787 252.571 150.518 252.32 151.339 252.32C152.161 252.32 152.891 252.571 153.531 253.072C154.171 253.573 154.667 254.272 155.019 255.168C155.382 256.064 155.563 257.083 155.563 258.224C155.563 259.365 155.382 260.384 155.019 261.28C154.667 262.176 154.171 262.875 153.531 263.376C152.891 263.877 152.161 264.128 151.339 264.128C150.518 264.128 149.787 263.877 149.147 263.376C148.507 262.875 148.006 262.176 147.643 261.28C147.281 260.384 147.099 259.365 147.099 258.224Z" fill="#6B6B6B"/>
<path d="M189.556 262.896C190.1 262.896 190.585 262.699 191.012 262.304C191.439 261.909 191.769 261.36 192.004 260.656C192.249 259.941 192.372 259.131 192.372 258.224C192.372 257.317 192.249 256.512 192.004 255.808C191.769 255.104 191.439 254.555 191.012 254.16C190.585 253.765 190.1 253.568 189.556 253.568C189.001 253.568 188.511 253.765 188.084 254.16C187.657 254.555 187.321 255.104 187.076 255.808C186.841 256.512 186.724 257.317 186.724 258.224C186.724 259.131 186.841 259.941 187.076 260.656C187.321 261.36 187.657 261.909 188.084 262.304C188.511 262.699 189.001 262.896 189.556 262.896ZM185.316 258.224C185.316 257.083 185.497 256.064 185.86 255.168C186.223 254.272 186.724 253.573 187.364 253.072C188.004 252.571 188.735 252.32 189.556 252.32C190.377 252.32 191.108 252.571 191.748 253.072C192.388 253.573 192.884 254.272 193.236 255.168C193.599 256.064 193.78 257.083 193.78 258.224C193.78 259.365 193.599 260.384 193.236 261.28C192.884 262.176 192.388 262.875 191.748 263.376C191.108 263.877 190.377 264.128 189.556 264.128C188.735 264.128 188.004 263.877 187.364 263.376C186.724 262.875 186.223 262.176 185.86 261.28C185.497 260.384 185.316 259.365 185.316 258.224ZM199.505 262.896C200.049 262.896 200.535 262.699 200.961 262.304C201.388 261.909 201.719 261.36 201.953 260.656C202.199 259.941 202.321 259.131 202.321 258.224C202.321 257.317 202.199 256.512 201.953 255.808C201.719 255.104 201.388 254.555 200.961 254.16C200.535 253.765 200.049 253.568 199.505 253.568C198.951 253.568 198.46 253.765 198.033 254.16C197.607 254.555 197.271 255.104 197.025 255.808C196.791 256.512 196.673 257.317 196.673 258.224C196.673 259.131 196.791 259.941 197.025 260.656C197.271 261.36 197.607 261.909 198.033 262.304C198.46 262.699 198.951 262.896 199.505 262.896ZM195.265 258.224C195.265 257.083 195.447 256.064 195.809 255.168C196.172 254.272 196.673 253.573 197.313 253.072C197.953 252.571 198.684 252.32 199.505 252.32C200.327 252.32 201.057 252.571 201.697 253.072C202.337 253.573 202.833 254.272 203.185 255.168C203.548 256.064 203.729 257.083 203.729 258.224C203.729 259.365 203.548 260.384 203.185 261.28C202.833 262.176 202.337 262.875 201.697 263.376C201.057 263.877 200.327 264.128 199.505 264.128C198.684 264.128 197.953 263.877 197.313 263.376C196.673 262.875 196.172 262.176 195.809 261.28C195.447 260.384 195.265 259.365 195.265 258.224Z" fill="#6B6B6B"/>
<path d="M237.722 262.896C238.266 262.896 238.751 262.699 239.178 262.304C239.605 261.909 239.935 261.36 240.17 260.656C240.415 259.941 240.538 259.131 240.538 258.224C240.538 257.317 240.415 256.512 240.17 255.808C239.935 255.104 239.605 254.555 239.178 254.16C238.751 253.765 238.266 253.568 237.722 253.568C237.167 253.568 236.677 253.765 236.25 254.16C235.823 254.555 235.487 255.104 235.242 255.808C235.007 256.512 234.89 257.317 234.89 258.224C234.89 259.131 235.007 259.941 235.242 260.656C235.487 261.36 235.823 261.909 236.25 262.304C236.677 262.699 237.167 262.896 237.722 262.896ZM233.482 258.224C233.482 257.083 233.663 256.064 234.026 255.168C234.389 254.272 234.89 253.573 235.53 253.072C236.17 252.571 236.901 252.32 237.722 252.32C238.543 252.32 239.274 252.571 239.914 253.072C240.554 253.573 241.05 254.272 241.402 255.168C241.765 256.064 241.946 257.083 241.946 258.224C241.946 259.365 241.765 260.384 241.402 261.28C241.05 262.176 240.554 262.875 239.914 263.376C239.274 263.877 238.543 264.128 237.722 264.128C236.901 264.128 236.17 263.877 235.53 263.376C234.89 262.875 234.389 262.176 234.026 261.28C233.663 260.384 233.482 259.365 233.482 258.224ZM247.671 262.896C248.215 262.896 248.701 262.699 249.127 262.304C249.554 261.909 249.885 261.36 250.119 260.656C250.365 259.941 250.487 259.131 250.487 258.224C250.487 257.317 250.365 256.512 250.119 255.808C249.885 255.104 249.554 254.555 249.127 254.16C248.701 253.765 248.215 253.568 247.671 253.568C247.117 253.568 246.626 253.765 246.199 254.16C245.773 254.555 245.437 255.104 245.191 255.808C244.957 256.512 244.839 257.317 244.839 258.224C244.839 259.131 244.957 259.941 245.191 260.656C245.437 261.36 245.773 261.909 246.199 262.304C246.626 262.699 247.117 262.896 247.671 262.896ZM243.431 258.224C243.431 257.083 243.613 256.064 243.975 255.168C244.338 254.272 244.839 253.573 245.479 253.072C246.119 252.571 246.85 252.32 247.671 252.32C248.493 252.32 249.223 252.571 249.863 253.072C250.503 253.573 250.999 254.272 251.351 255.168C251.714 256.064 251.895 257.083 251.895 258.224C251.895 259.365 251.714 260.384 251.351 261.28C250.999 262.176 250.503 262.875 249.863 263.376C249.223 263.877 248.493 264.128 247.671 264.128C246.85 264.128 246.119 263.877 245.479 263.376C244.839 262.875 244.338 262.176 243.975 261.28C243.613 260.384 243.431 259.365 243.431 258.224Z" fill="#6B6B6B"/>
<path d="M285.89 262.896C286.434 262.896 286.919 262.699 287.346 262.304C287.773 261.909 288.103 261.36 288.338 260.656C288.583 259.941 288.706 259.131 288.706 258.224C288.706 257.317 288.583 256.512 288.338 255.808C288.103 255.104 287.773 254.555 287.346 254.16C286.919 253.765 286.434 253.568 285.89 253.568C285.335 253.568 284.845 253.765 284.418 254.16C283.991 254.555 283.655 255.104 283.41 255.808C283.175 256.512 283.058 257.317 283.058 258.224C283.058 259.131 283.175 259.941 283.41 260.656C283.655 261.36 283.991 261.909 284.418 262.304C284.845 262.699 285.335 262.896 285.89 262.896ZM281.65 258.224C281.65 257.083 281.831 256.064 282.194 255.168C282.557 254.272 283.058 253.573 283.698 253.072C284.338 252.571 285.069 252.32 285.89 252.32C286.711 252.32 287.442 252.571 288.082 253.072C288.722 253.573 289.218 254.272 289.57 255.168C289.933 256.064 290.114 257.083 290.114 258.224C290.114 259.365 289.933 260.384 289.57 261.28C289.218 262.176 288.722 262.875 288.082 263.376C287.442 263.877 286.711 264.128 285.89 264.128C285.069 264.128 284.338 263.877 283.698 263.376C283.058 262.875 282.557 262.176 282.194 261.28C281.831 260.384 281.65 259.365 281.65 258.224ZM295.839 262.896C296.383 262.896 296.869 262.699 297.295 262.304C297.722 261.909 298.053 261.36 298.287 260.656C298.533 259.941 298.655 259.131 298.655 258.224C298.655 257.317 298.533 256.512 298.287 255.808C298.053 255.104 297.722 254.555 297.295 254.16C296.869 253.765 296.383 253.568 295.839 253.568C295.285 253.568 294.794 253.765 294.367 254.16C293.941 254.555 293.605 255.104 293.359 255.808C293.125 256.512 293.007 257.317 293.007 258.224C293.007 259.131 293.125 259.941 293.359 260.656C293.605 261.36 293.941 261.909 294.367 262.304C294.794 262.699 295.285 262.896 295.839 262.896ZM291.599 258.224C291.599 257.083 291.781 256.064 292.143 255.168C292.506 254.272 293.007 253.573 293.647 253.072C294.287 252.571 295.018 252.32 295.839 252.32C296.661 252.32 297.391 252.571 298.031 253.072C298.671 253.573 299.167 254.272 299.519 255.168C299.882 256.064 300.063 257.083 300.063 258.224C300.063 259.365 299.882 260.384 299.519 261.28C299.167 262.176 298.671 262.875 298.031 263.376C297.391 263.877 296.661 264.128 295.839 264.128C295.018 264.128 294.287 263.877 293.647 263.376C293.007 262.875 292.506 262.176 292.143 261.28C291.781 260.384 291.599 259.365 291.599 258.224Z" fill="#6B6B6B"/>
<path d="M334.056 262.896C334.6 262.896 335.085 262.699 335.512 262.304C335.939 261.909 336.269 261.36 336.504 260.656C336.749 259.941 336.872 259.131 336.872 258.224C336.872 257.317 336.749 256.512 336.504 255.808C336.269 255.104 335.939 254.555 335.512 254.16C335.085 253.765 334.6 253.568 334.056 253.568C333.501 253.568 333.011 253.765 332.584 254.16C332.157 254.555 331.821 255.104 331.576 255.808C331.341 256.512 331.224 257.317 331.224 258.224C331.224 259.131 331.341 259.941 331.576 260.656C331.821 261.36 332.157 261.909 332.584 262.304C333.011 262.699 333.501 262.896 334.056 262.896ZM329.816 258.224C329.816 257.083 329.997 256.064 330.36 255.168C330.723 254.272 331.224 253.573 331.864 253.072C332.504 252.571 333.235 252.32 334.056 252.32C334.877 252.32 335.608 252.571 336.248 253.072C336.888 253.573 337.384 254.272 337.736 255.168C338.099 256.064 338.28 257.083 338.28 258.224C338.28 259.365 338.099 260.384 337.736 261.28C337.384 262.176 336.888 262.875 336.248 263.376C335.608 263.877 334.877 264.128 334.056 264.128C333.235 264.128 332.504 263.877 331.864 263.376C331.224 262.875 330.723 262.176 330.36 261.28C329.997 260.384 329.816 259.365 329.816 258.224ZM344.005 262.896C344.549 262.896 345.035 262.699 345.461 262.304C345.888 261.909 346.219 261.36 346.453 260.656C346.699 259.941 346.821 259.131 346.821 258.224C346.821 257.317 346.699 256.512 346.453 255.808C346.219 255.104 345.888 254.555 345.461 254.16C345.035 253.765 344.549 253.568 344.005 253.568C343.451 253.568 342.96 253.765 342.533 254.16C342.107 254.555 341.771 255.104 341.525 255.808C341.291 256.512 341.173 257.317 341.173 258.224C341.173 259.131 341.291 259.941 341.525 260.656C341.771 261.36 342.107 261.909 342.533 262.304C342.96 262.699 343.451 262.896 344.005 262.896ZM339.765 258.224C339.765 257.083 339.947 256.064 340.309 255.168C340.672 254.272 341.173 253.573 341.813 253.072C342.453 252.571 343.184 252.32 344.005 252.32C344.827 252.32 345.557 252.571 346.197 253.072C346.837 253.573 347.333 254.272 347.685 255.168C348.048 256.064 348.229 257.083 348.229 258.224C348.229 259.365 348.048 260.384 347.685 261.28C347.333 262.176 346.837 262.875 346.197 263.376C345.557 263.877 344.827 264.128 344.005 264.128C343.184 264.128 342.453 263.877 341.813 263.376C341.173 262.875 340.672 262.176 340.309 261.28C339.947 260.384 339.765 259.365 339.765 258.224Z" fill="#6B6B6B"/>
<path d="M45.056 300.896C45.6 300.896 46.0853 300.699 46.512 300.304C46.9387 299.909 47.2693 299.36 47.504 298.656C47.7493 297.941 47.872 297.131 47.872 296.224C47.872 295.317 47.7493 294.512 47.504 293.808C47.2693 293.104 46.9387 292.555 46.512 292.16C46.0853 291.765 45.6 291.568 45.056 291.568C44.5013 291.568 44.0107 291.765 43.584 292.16C43.1573 292.555 42.8213 293.104 42.576 293.808C42.3413 294.512 42.224 295.317 42.224 296.224C42.224 297.131 42.3413 297.941 42.576 298.656C42.8213 299.36 43.1573 299.909 43.584 300.304C44.0107 300.699 44.5013 300.896 45.056 300.896ZM40.816 296.224C40.816 295.083 40.9973 294.064 41.36 293.168C41.7227 292.272 42.224 291.573 42.864 291.072C43.504 290.571 44.2347 290.32 45.056 290.32C45.8773 290.32 46.608 290.571 47.248 291.072C47.888 291.573 48.384 292.272 48.736 293.168C49.0987 294.064 49.28 295.083 49.28 296.224C49.28 297.365 49.0987 298.384 48.736 299.28C48.384 300.176 47.888 300.875 47.248 301.376C46.608 301.877 45.8773 302.128 45.056 302.128C44.2347 302.128 43.504 301.877 42.864 301.376C42.224 300.875 41.7227 300.176 41.36 299.28C40.9973 298.384 40.816 297.365 40.816 296.224ZM55.0054 300.896C55.5494 300.896 56.0347 300.699 56.4614 300.304C56.888 299.909 57.2187 299.36 57.4534 298.656C57.6987 297.941 57.8214 297.131 57.8214 296.224C57.8214 295.317 57.6987 294.512 57.4534 293.808C57.2187 293.104 56.888 292.555 56.4614 292.16C56.0347 291.765 55.5494 291.568 55.0054 291.568C54.4507 291.568 53.96 291.765 53.5334 292.16C53.1067 292.555 52.7707 293.104 52.5254 293.808C52.2907 294.512 52.1734 295.317 52.1734 296.224C52.1734 297.131 52.2907 297.941 52.5254 298.656C52.7707 299.36 53.1067 299.909 53.5334 300.304C53.96 300.699 54.4507 300.896 55.0054 300.896ZM50.7654 296.224C50.7654 295.083 50.9467 294.064 51.3094 293.168C51.672 292.272 52.1734 291.573 52.8134 291.072C53.4534 290.571 54.184 290.32 55.0054 290.32C55.8267 290.32 56.5574 290.571 57.1974 291.072C57.8374 291.573 58.3334 292.272 58.6854 293.168C59.048 294.064 59.2294 295.083 59.2294 296.224C59.2294 297.365 59.048 298.384 58.6854 299.28C58.3334 300.176 57.8374 300.875 57.1974 301.376C56.5574 301.877 55.8267 302.128 55.0054 302.128C54.184 302.128 53.4534 301.877 52.8134 301.376C52.1734 300.875 51.672 300.176 51.3094 299.28C50.9467 298.384 50.7654 297.365 50.7654 296.224Z" fill="#6B6B6B"/>
<path d="M93.222 300.896C93.766 300.896 94.2513 300.699 94.678 300.304C95.1047 299.909 95.4353 299.36 95.67 298.656C95.9153 297.941 96.038 297.131 96.038 296.224C96.038 295.317 95.9153 294.512 95.67 293.808C95.4353 293.104 95.1047 292.555 94.678 292.16C94.2513 291.765 93.766 291.568 93.222 291.568C92.6673 291.568 92.1767 291.765 91.75 292.16C91.3233 292.555 90.9873 293.104 90.742 293.808C90.5073 294.512 90.39 295.317 90.39 296.224C90.39 297.131 90.5073 297.941 90.742 298.656C90.9873 299.36 91.3233 299.909 91.75 300.304C92.1767 300.699 92.6673 300.896 93.222 300.896ZM88.982 296.224C88.982 295.083 89.1633 294.064 89.526 293.168C89.8887 292.272 90.39 291.573 91.03 291.072C91.67 290.571 92.4007 290.32 93.222 290.32C94.0433 290.32 94.774 290.571 95.414 291.072C96.054 291.573 96.55 292.272 96.902 293.168C97.2647 294.064 97.446 295.083 97.446 296.224C97.446 297.365 97.2647 298.384 96.902 299.28C96.55 300.176 96.054 300.875 95.414 301.376C94.774 301.877 94.0433 302.128 93.222 302.128C92.4007 302.128 91.67 301.877 91.03 301.376C90.39 300.875 89.8887 300.176 89.526 299.28C89.1633 298.384 88.982 297.365 88.982 296.224ZM103.171 300.896C103.715 300.896 104.201 300.699 104.627 300.304C105.054 299.909 105.385 299.36 105.619 298.656C105.865 297.941 105.987 297.131 105.987 296.224C105.987 295.317 105.865 294.512 105.619 293.808C105.385 293.104 105.054 292.555 104.627 292.16C104.201 291.765 103.715 291.568 103.171 291.568C102.617 291.568 102.126 291.765 101.699 292.16C101.273 292.555 100.937 293.104 100.691 293.808C100.457 294.512 100.339 295.317 100.339 296.224C100.339 297.131 100.457 297.941 100.691 298.656C100.937 299.36 101.273 299.909 101.699 300.304C102.126 300.699 102.617 300.896 103.171 300.896ZM98.9314 296.224C98.9314 295.083 99.1127 294.064 99.4754 293.168C99.8381 292.272 100.339 291.573 100.979 291.072C101.619 290.571 102.35 290.32 103.171 290.32C103.993 290.32 104.723 290.571 105.363 291.072C106.003 291.573 106.499 292.272 106.851 293.168C107.214 294.064 107.395 295.083 107.395 296.224C107.395 297.365 107.214 298.384 106.851 299.28C106.499 300.176 106.003 300.875 105.363 301.376C104.723 301.877 103.993 302.128 103.171 302.128C102.35 302.128 101.619 301.877 100.979 301.376C100.339 300.875 99.8381 300.176 99.4754 299.28C99.1127 298.384 98.9314 297.365 98.9314 296.224Z" fill="#6B6B6B"/>
<path d="M141.39 300.896C141.934 300.896 142.419 300.699 142.846 300.304C143.273 299.909 143.603 299.36 143.838 298.656C144.083 297.941 144.206 297.131 144.206 296.224C144.206 295.317 144.083 294.512 143.838 293.808C143.603 293.104 143.273 292.555 142.846 292.16C142.419 291.765 141.934 291.568 141.39 291.568C140.835 291.568 140.345 291.765 139.918 292.16C139.491 292.555 139.155 293.104 138.91 293.808C138.675 294.512 138.558 295.317 138.558 296.224C138.558 297.131 138.675 297.941 138.91 298.656C139.155 299.36 139.491 299.909 139.918 300.304C140.345 300.699 140.835 300.896 141.39 300.896ZM137.15 296.224C137.15 295.083 137.331 294.064 137.694 293.168C138.057 292.272 138.558 291.573 139.198 291.072C139.838 290.571 140.569 290.32 141.39 290.32C142.211 290.32 142.942 290.571 143.582 291.072C144.222 291.573 144.718 292.272 145.07 293.168C145.433 294.064 145.614 295.083 145.614 296.224C145.614 297.365 145.433 298.384 145.07 299.28C144.718 300.176 144.222 300.875 143.582 301.376C142.942 301.877 142.211 302.128 141.39 302.128C140.569 302.128 139.838 301.877 139.198 301.376C138.558 300.875 138.057 300.176 137.694 299.28C137.331 298.384 137.15 297.365 137.15 296.224ZM151.339 300.896C151.883 300.896 152.369 300.699 152.795 300.304C153.222 299.909 153.553 299.36 153.787 298.656C154.033 297.941 154.155 297.131 154.155 296.224C154.155 295.317 154.033 294.512 153.787 293.808C153.553 293.104 153.222 292.555 152.795 292.16C152.369 291.765 151.883 291.568 151.339 291.568C150.785 291.568 150.294 291.765 149.867 292.16C149.441 292.555 149.105 293.104 148.859 293.808C148.625 294.512 148.507 295.317 148.507 296.224C148.507 297.131 148.625 297.941 148.859 298.656C149.105 299.36 149.441 299.909 149.867 300.304C150.294 300.699 150.785 300.896 151.339 300.896ZM147.099 296.224C147.099 295.083 147.281 294.064 147.643 293.168C148.006 292.272 148.507 291.573 149.147 291.072C149.787 290.571 150.518 290.32 151.339 290.32C152.161 290.32 152.891 290.571 153.531 291.072C154.171 291.573 154.667 292.272 155.019 293.168C155.382 294.064 155.563 295.083 155.563 296.224C155.563 297.365 155.382 298.384 155.019 299.28C154.667 300.176 154.171 300.875 153.531 301.376C152.891 301.877 152.161 302.128 151.339 302.128C150.518 302.128 149.787 301.877 149.147 301.376C148.507 300.875 148.006 300.176 147.643 299.28C147.281 298.384 147.099 297.365 147.099 296.224Z" fill="#6B6B6B"/>
<path d="M176.5 287C176.5 284.791 178.291 283 180.5 283H209.5C211.709 283 213.5 284.791 213.5 287V305C213.5 307.209 211.709 309 209.5 309H180.5C178.291 309 176.5 307.209 176.5 305V287Z" fill="#368FF7"/>
<path d="M189.556 300.896C190.1 300.896 190.585 300.699 191.012 300.304C191.439 299.909 191.769 299.36 192.004 298.656C192.249 297.941 192.372 297.131 192.372 296.224C192.372 295.317 192.249 294.512 192.004 293.808C191.769 293.104 191.439 292.555 191.012 292.16C190.585 291.765 190.1 291.568 189.556 291.568C189.001 291.568 188.511 291.765 188.084 292.16C187.657 292.555 187.321 293.104 187.076 293.808C186.841 294.512 186.724 295.317 186.724 296.224C186.724 297.131 186.841 297.941 187.076 298.656C187.321 299.36 187.657 299.909 188.084 300.304C188.511 300.699 189.001 300.896 189.556 300.896ZM185.316 296.224C185.316 295.083 185.497 294.064 185.86 293.168C186.223 292.272 186.724 291.573 187.364 291.072C188.004 290.571 188.735 290.32 189.556 290.32C190.377 290.32 191.108 290.571 191.748 291.072C192.388 291.573 192.884 292.272 193.236 293.168C193.599 294.064 193.78 295.083 193.78 296.224C193.78 297.365 193.599 298.384 193.236 299.28C192.884 300.176 192.388 300.875 191.748 301.376C191.108 301.877 190.377 302.128 189.556 302.128C188.735 302.128 188.004 301.877 187.364 301.376C186.724 300.875 186.223 300.176 185.86 299.28C185.497 298.384 185.316 297.365 185.316 296.224ZM199.505 300.896C200.049 300.896 200.535 300.699 200.961 300.304C201.388 299.909 201.719 299.36 201.953 298.656C202.199 297.941 202.321 297.131 202.321 296.224C202.321 295.317 202.199 294.512 201.953 293.808C201.719 293.104 201.388 292.555 200.961 292.16C200.535 291.765 200.049 291.568 199.505 291.568C198.951 291.568 198.46 291.765 198.033 292.16C197.607 292.555 197.271 293.104 197.025 293.808C196.791 294.512 196.673 295.317 196.673 296.224C196.673 297.131 196.791 297.941 197.025 298.656C197.271 299.36 197.607 299.909 198.033 300.304C198.46 300.699 198.951 300.896 199.505 300.896ZM195.265 296.224C195.265 295.083 195.447 294.064 195.809 293.168C196.172 292.272 196.673 291.573 197.313 291.072C197.953 290.571 198.684 290.32 199.505 290.32C200.327 290.32 201.057 290.571 201.697 291.072C202.337 291.573 202.833 292.272 203.185 293.168C203.548 294.064 203.729 295.083 203.729 296.224C203.729 297.365 203.548 298.384 203.185 299.28C202.833 300.176 202.337 300.875 201.697 301.376C201.057 301.877 200.327 302.128 199.505 302.128C198.684 302.128 197.953 301.877 197.313 301.376C196.673 300.875 196.172 300.176 195.809 299.28C195.447 298.384 195.265 297.365 195.265 296.224Z" fill="white"/>
<path d="M237.722 300.896C238.266 300.896 238.751 300.699 239.178 300.304C239.605 299.909 239.935 299.36 240.17 298.656C240.415 297.941 240.538 297.131 240.538 296.224C240.538 295.317 240.415 294.512 240.17 293.808C239.935 293.104 239.605 292.555 239.178 292.16C238.751 291.765 238.266 291.568 237.722 291.568C237.167 291.568 236.677 291.765 236.25 292.16C235.823 292.555 235.487 293.104 235.242 293.808C235.007 294.512 234.89 295.317 234.89 296.224C234.89 297.131 235.007 297.941 235.242 298.656C235.487 299.36 235.823 299.909 236.25 300.304C236.677 300.699 237.167 300.896 237.722 300.896ZM233.482 296.224C233.482 295.083 233.663 294.064 234.026 293.168C234.389 292.272 234.89 291.573 235.53 291.072C236.17 290.571 236.901 290.32 237.722 290.32C238.543 290.32 239.274 290.571 239.914 291.072C240.554 291.573 241.05 292.272 241.402 293.168C241.765 294.064 241.946 295.083 241.946 296.224C241.946 297.365 241.765 298.384 241.402 299.28C241.05 300.176 240.554 300.875 239.914 301.376C239.274 301.877 238.543 302.128 237.722 302.128C236.901 302.128 236.17 301.877 235.53 301.376C234.89 300.875 234.389 300.176 234.026 299.28C233.663 298.384 233.482 297.365 233.482 296.224ZM247.671 300.896C248.215 300.896 248.701 300.699 249.127 300.304C249.554 299.909 249.885 299.36 250.119 298.656C250.365 297.941 250.487 297.131 250.487 296.224C250.487 295.317 250.365 294.512 250.119 293.808C249.885 293.104 249.554 292.555 249.127 292.16C248.701 291.765 248.215 291.568 247.671 291.568C247.117 291.568 246.626 291.765 246.199 292.16C245.773 292.555 245.437 293.104 245.191 293.808C244.957 294.512 244.839 295.317 244.839 296.224C244.839 297.131 244.957 297.941 245.191 298.656C245.437 299.36 245.773 299.909 246.199 300.304C246.626 300.699 247.117 300.896 247.671 300.896ZM243.431 296.224C243.431 295.083 243.613 294.064 243.975 293.168C244.338 292.272 244.839 291.573 245.479 291.072C246.119 290.571 246.85 290.32 247.671 290.32C248.493 290.32 249.223 290.571 249.863 291.072C250.503 291.573 250.999 292.272 251.351 293.168C251.714 294.064 251.895 295.083 251.895 296.224C251.895 297.365 251.714 298.384 251.351 299.28C250.999 300.176 250.503 300.875 249.863 301.376C249.223 301.877 248.493 302.128 247.671 302.128C246.85 302.128 246.119 301.877 245.479 301.376C244.839 300.875 244.338 300.176 243.975 299.28C243.613 298.384 243.431 297.365 243.431 296.224Z" fill="#6B6B6B"/>
<path d="M285.89 300.896C286.434 300.896 286.919 300.699 287.346 300.304C287.773 299.909 288.103 299.36 288.338 298.656C288.583 297.941 288.706 297.131 288.706 296.224C288.706 295.317 288.583 294.512 288.338 293.808C288.103 293.104 287.773 292.555 287.346 292.16C286.919 291.765 286.434 291.568 285.89 291.568C285.335 291.568 284.845 291.765 284.418 292.16C283.991 292.555 283.655 293.104 283.41 293.808C283.175 294.512 283.058 295.317 283.058 296.224C283.058 297.131 283.175 297.941 283.41 298.656C283.655 299.36 283.991 299.909 284.418 300.304C284.845 300.699 285.335 300.896 285.89 300.896ZM281.65 296.224C281.65 295.083 281.831 294.064 282.194 293.168C282.557 292.272 283.058 291.573 283.698 291.072C284.338 290.571 285.069 290.32 285.89 290.32C286.711 290.32 287.442 290.571 288.082 291.072C288.722 291.573 289.218 292.272 289.57 293.168C289.933 294.064 290.114 295.083 290.114 296.224C290.114 297.365 289.933 298.384 289.57 299.28C289.218 300.176 288.722 300.875 288.082 301.376C287.442 301.877 286.711 302.128 285.89 302.128C285.069 302.128 284.338 301.877 283.698 301.376C283.058 300.875 282.557 300.176 282.194 299.28C281.831 298.384 281.65 297.365 281.65 296.224ZM295.839 300.896C296.383 300.896 296.869 300.699 297.295 300.304C297.722 299.909 298.053 299.36 298.287 298.656C298.533 297.941 298.655 297.131 298.655 296.224C298.655 295.317 298.533 294.512 298.287 293.808C298.053 293.104 297.722 292.555 297.295 292.16C296.869 291.765 296.383 291.568 295.839 291.568C295.285 291.568 294.794 291.765 294.367 292.16C293.941 292.555 293.605 293.104 293.359 293.808C293.125 294.512 293.007 295.317 293.007 296.224C293.007 297.131 293.125 297.941 293.359 298.656C293.605 299.36 293.941 299.909 294.367 300.304C294.794 300.699 295.285 300.896 295.839 300.896ZM291.599 296.224C291.599 295.083 291.781 294.064 292.143 293.168C292.506 292.272 293.007 291.573 293.647 291.072C294.287 290.571 295.018 290.32 295.839 290.32C296.661 290.32 297.391 290.571 298.031 291.072C298.671 291.573 299.167 292.272 299.519 293.168C299.882 294.064 300.063 295.083 300.063 296.224C300.063 297.365 299.882 298.384 299.519 299.28C299.167 300.176 298.671 300.875 298.031 301.376C297.391 301.877 296.661 302.128 295.839 302.128C295.018 302.128 294.287 301.877 293.647 301.376C293.007 300.875 292.506 300.176 292.143 299.28C291.781 298.384 291.599 297.365 291.599 296.224Z" fill="#6B6B6B"/>
<path d="M334.056 300.896C334.6 300.896 335.085 300.699 335.512 300.304C335.939 299.909 336.269 299.36 336.504 298.656C336.749 297.941 336.872 297.131 336.872 296.224C336.872 295.317 336.749 294.512 336.504 293.808C336.269 293.104 335.939 292.555 335.512 292.16C335.085 291.765 334.6 291.568 334.056 291.568C333.501 291.568 333.011 291.765 332.584 292.16C332.157 292.555 331.821 293.104 331.576 293.808C331.341 294.512 331.224 295.317 331.224 296.224C331.224 297.131 331.341 297.941 331.576 298.656C331.821 299.36 332.157 299.909 332.584 300.304C333.011 300.699 333.501 300.896 334.056 300.896ZM329.816 296.224C329.816 295.083 329.997 294.064 330.36 293.168C330.723 292.272 331.224 291.573 331.864 291.072C332.504 290.571 333.235 290.32 334.056 290.32C334.877 290.32 335.608 290.571 336.248 291.072C336.888 291.573 337.384 292.272 337.736 293.168C338.099 294.064 338.28 295.083 338.28 296.224C338.28 297.365 338.099 298.384 337.736 299.28C337.384 300.176 336.888 300.875 336.248 301.376C335.608 301.877 334.877 302.128 334.056 302.128C333.235 302.128 332.504 301.877 331.864 301.376C331.224 300.875 330.723 300.176 330.36 299.28C329.997 298.384 329.816 297.365 329.816 296.224ZM344.005 300.896C344.549 300.896 345.035 300.699 345.461 300.304C345.888 299.909 346.219 299.36 346.453 298.656C346.699 297.941 346.821 297.131 346.821 296.224C346.821 295.317 346.699 294.512 346.453 293.808C346.219 293.104 345.888 292.555 345.461 292.16C345.035 291.765 344.549 291.568 344.005 291.568C343.451 291.568 342.96 291.765 342.533 292.16C342.107 292.555 341.771 293.104 341.525 293.808C341.291 294.512 341.173 295.317 341.173 296.224C341.173 297.131 341.291 297.941 341.525 298.656C341.771 299.36 342.107 299.909 342.533 300.304C342.96 300.699 343.451 300.896 344.005 300.896ZM339.765 296.224C339.765 295.083 339.947 294.064 340.309 293.168C340.672 292.272 341.173 291.573 341.813 291.072C342.453 290.571 343.184 290.32 344.005 290.32C344.827 290.32 345.557 290.571 346.197 291.072C346.837 291.573 347.333 292.272 347.685 293.168C348.048 294.064 348.229 295.083 348.229 296.224C348.229 297.365 348.048 298.384 347.685 299.28C347.333 300.176 346.837 300.875 346.197 301.376C345.557 301.877 344.827 302.128 344.005 302.128C343.184 302.128 342.453 301.877 341.813 301.376C341.173 300.875 340.672 300.176 340.309 299.28C339.947 298.384 339.765 297.365 339.765 296.224Z" fill="#6B6B6B"/>
<path d="M45.056 338.896C45.6 338.896 46.0853 338.699 46.512 338.304C46.9387 337.909 47.2693 337.36 47.504 336.656C47.7493 335.941 47.872 335.131 47.872 334.224C47.872 333.317 47.7493 332.512 47.504 331.808C47.2693 331.104 46.9387 330.555 46.512 330.16C46.0853 329.765 45.6 329.568 45.056 329.568C44.5013 329.568 44.0107 329.765 43.584 330.16C43.1573 330.555 42.8213 331.104 42.576 331.808C42.3413 332.512 42.224 333.317 42.224 334.224C42.224 335.131 42.3413 335.941 42.576 336.656C42.8213 337.36 43.1573 337.909 43.584 338.304C44.0107 338.699 44.5013 338.896 45.056 338.896ZM40.816 334.224C40.816 333.083 40.9973 332.064 41.36 331.168C41.7227 330.272 42.224 329.573 42.864 329.072C43.504 328.571 44.2347 328.32 45.056 328.32C45.8773 328.32 46.608 328.571 47.248 329.072C47.888 329.573 48.384 330.272 48.736 331.168C49.0987 332.064 49.28 333.083 49.28 334.224C49.28 335.365 49.0987 336.384 48.736 337.28C48.384 338.176 47.888 338.875 47.248 339.376C46.608 339.877 45.8773 340.128 45.056 340.128C44.2347 340.128 43.504 339.877 42.864 339.376C42.224 338.875 41.7227 338.176 41.36 337.28C40.9973 336.384 40.816 335.365 40.816 334.224ZM55.0054 338.896C55.5494 338.896 56.0347 338.699 56.4614 338.304C56.888 337.909 57.2187 337.36 57.4534 336.656C57.6987 335.941 57.8214 335.131 57.8214 334.224C57.8214 333.317 57.6987 332.512 57.4534 331.808C57.2187 331.104 56.888 330.555 56.4614 330.16C56.0347 329.765 55.5494 329.568 55.0054 329.568C54.4507 329.568 53.96 329.765 53.5334 330.16C53.1067 330.555 52.7707 331.104 52.5254 331.808C52.2907 332.512 52.1734 333.317 52.1734 334.224C52.1734 335.131 52.2907 335.941 52.5254 336.656C52.7707 337.36 53.1067 337.909 53.5334 338.304C53.96 338.699 54.4507 338.896 55.0054 338.896ZM50.7654 334.224C50.7654 333.083 50.9467 332.064 51.3094 331.168C51.672 330.272 52.1734 329.573 52.8134 329.072C53.4534 328.571 54.184 328.32 55.0054 328.32C55.8267 328.32 56.5574 328.571 57.1974 329.072C57.8374 329.573 58.3334 330.272 58.6854 331.168C59.048 332.064 59.2294 333.083 59.2294 334.224C59.2294 335.365 59.048 336.384 58.6854 337.28C58.3334 338.176 57.8374 338.875 57.1974 339.376C56.5574 339.877 55.8267 340.128 55.0054 340.128C54.184 340.128 53.4534 339.877 52.8134 339.376C52.1734 338.875 51.672 338.176 51.3094 337.28C50.9467 336.384 50.7654 335.365 50.7654 334.224Z" fill="#6B6B6B"/>
<path d="M93.222 338.896C93.766 338.896 94.2513 338.699 94.678 338.304C95.1047 337.909 95.4353 337.36 95.67 336.656C95.9153 335.941 96.038 335.131 96.038 334.224C96.038 333.317 95.9153 332.512 95.67 331.808C95.4353 331.104 95.1047 330.555 94.678 330.16C94.2513 329.765 93.766 329.568 93.222 329.568C92.6673 329.568 92.1767 329.765 91.75 330.16C91.3233 330.555 90.9873 331.104 90.742 331.808C90.5073 332.512 90.39 333.317 90.39 334.224C90.39 335.131 90.5073 335.941 90.742 336.656C90.9873 337.36 91.3233 337.909 91.75 338.304C92.1767 338.699 92.6673 338.896 93.222 338.896ZM88.982 334.224C88.982 333.083 89.1633 332.064 89.526 331.168C89.8887 330.272 90.39 329.573 91.03 329.072C91.67 328.571 92.4007 328.32 93.222 328.32C94.0433 328.32 94.774 328.571 95.414 329.072C96.054 329.573 96.55 330.272 96.902 331.168C97.2647 332.064 97.446 333.083 97.446 334.224C97.446 335.365 97.2647 336.384 96.902 337.28C96.55 338.176 96.054 338.875 95.414 339.376C94.774 339.877 94.0433 340.128 93.222 340.128C92.4007 340.128 91.67 339.877 91.03 339.376C90.39 338.875 89.8887 338.176 89.526 337.28C89.1633 336.384 88.982 335.365 88.982 334.224ZM103.171 338.896C103.715 338.896 104.201 338.699 104.627 338.304C105.054 337.909 105.385 337.36 105.619 336.656C105.865 335.941 105.987 335.131 105.987 334.224C105.987 333.317 105.865 332.512 105.619 331.808C105.385 331.104 105.054 330.555 104.627 330.16C104.201 329.765 103.715 329.568 103.171 329.568C102.617 329.568 102.126 329.765 101.699 330.16C101.273 330.555 100.937 331.104 100.691 331.808C100.457 332.512 100.339 333.317 100.339 334.224C100.339 335.131 100.457 335.941 100.691 336.656C100.937 337.36 101.273 337.909 101.699 338.304C102.126 338.699 102.617 338.896 103.171 338.896ZM98.9314 334.224C98.9314 333.083 99.1127 332.064 99.4754 331.168C99.8381 330.272 100.339 329.573 100.979 329.072C101.619 328.571 102.35 328.32 103.171 328.32C103.993 328.32 104.723 328.571 105.363 329.072C106.003 329.573 106.499 330.272 106.851 331.168C107.214 332.064 107.395 333.083 107.395 334.224C107.395 335.365 107.214 336.384 106.851 337.28C106.499 338.176 106.003 338.875 105.363 339.376C104.723 339.877 103.993 340.128 103.171 340.128C102.35 340.128 101.619 339.877 100.979 339.376C100.339 338.875 99.8381 338.176 99.4754 337.28C99.1127 336.384 98.9314 335.365 98.9314 334.224Z" fill="#6B6B6B"/>
<path d="M141.39 338.896C141.934 338.896 142.419 338.699 142.846 338.304C143.273 337.909 143.603 337.36 143.838 336.656C144.083 335.941 144.206 335.131 144.206 334.224C144.206 333.317 144.083 332.512 143.838 331.808C143.603 331.104 143.273 330.555 142.846 330.16C142.419 329.765 141.934 329.568 141.39 329.568C140.835 329.568 140.345 329.765 139.918 330.16C139.491 330.555 139.155 331.104 138.91 331.808C138.675 332.512 138.558 333.317 138.558 334.224C138.558 335.131 138.675 335.941 138.91 336.656C139.155 337.36 139.491 337.909 139.918 338.304C140.345 338.699 140.835 338.896 141.39 338.896ZM137.15 334.224C137.15 333.083 137.331 332.064 137.694 331.168C138.057 330.272 138.558 329.573 139.198 329.072C139.838 328.571 140.569 328.32 141.39 328.32C142.211 328.32 142.942 328.571 143.582 329.072C144.222 329.573 144.718 330.272 145.07 331.168C145.433 332.064 145.614 333.083 145.614 334.224C145.614 335.365 145.433 336.384 145.07 337.28C144.718 338.176 144.222 338.875 143.582 339.376C142.942 339.877 142.211 340.128 141.39 340.128C140.569 340.128 139.838 339.877 139.198 339.376C138.558 338.875 138.057 338.176 137.694 337.28C137.331 336.384 137.15 335.365 137.15 334.224ZM151.339 338.896C151.883 338.896 152.369 338.699 152.795 338.304C153.222 337.909 153.553 337.36 153.787 336.656C154.033 335.941 154.155 335.131 154.155 334.224C154.155 333.317 154.033 332.512 153.787 331.808C153.553 331.104 153.222 330.555 152.795 330.16C152.369 329.765 151.883 329.568 151.339 329.568C150.785 329.568 150.294 329.765 149.867 330.16C149.441 330.555 149.105 331.104 148.859 331.808C148.625 332.512 148.507 333.317 148.507 334.224C148.507 335.131 148.625 335.941 148.859 336.656C149.105 337.36 149.441 337.909 149.867 338.304C150.294 338.699 150.785 338.896 151.339 338.896ZM147.099 334.224C147.099 333.083 147.281 332.064 147.643 331.168C148.006 330.272 148.507 329.573 149.147 329.072C149.787 328.571 150.518 328.32 151.339 328.32C152.161 328.32 152.891 328.571 153.531 329.072C154.171 329.573 154.667 330.272 155.019 331.168C155.382 332.064 155.563 333.083 155.563 334.224C155.563 335.365 155.382 336.384 155.019 337.28C154.667 338.176 154.171 338.875 153.531 339.376C152.891 339.877 152.161 340.128 151.339 340.128C150.518 340.128 149.787 339.877 149.147 339.376C148.507 338.875 148.006 338.176 147.643 337.28C147.281 336.384 147.099 335.365 147.099 334.224Z" fill="#6B6B6B"/>
<path d="M189.556 338.896C190.1 338.896 190.585 338.699 191.012 338.304C191.439 337.909 191.769 337.36 192.004 336.656C192.249 335.941 192.372 335.131 192.372 334.224C192.372 333.317 192.249 332.512 192.004 331.808C191.769 331.104 191.439 330.555 191.012 330.16C190.585 329.765 190.1 329.568 189.556 329.568C189.001 329.568 188.511 329.765 188.084 330.16C187.657 330.555 187.321 331.104 187.076 331.808C186.841 332.512 186.724 333.317 186.724 334.224C186.724 335.131 186.841 335.941 187.076 336.656C187.321 337.36 187.657 337.909 188.084 338.304C188.511 338.699 189.001 338.896 189.556 338.896ZM185.316 334.224C185.316 333.083 185.497 332.064 185.86 331.168C186.223 330.272 186.724 329.573 187.364 329.072C188.004 328.571 188.735 328.32 189.556 328.32C190.377 328.32 191.108 328.571 191.748 329.072C192.388 329.573 192.884 330.272 193.236 331.168C193.599 332.064 193.78 333.083 193.78 334.224C193.78 335.365 193.599 336.384 193.236 337.28C192.884 338.176 192.388 338.875 191.748 339.376C191.108 339.877 190.377 340.128 189.556 340.128C188.735 340.128 188.004 339.877 187.364 339.376C186.724 338.875 186.223 338.176 185.86 337.28C185.497 336.384 185.316 335.365 185.316 334.224ZM199.505 338.896C200.049 338.896 200.535 338.699 200.961 338.304C201.388 337.909 201.719 337.36 201.953 336.656C202.199 335.941 202.321 335.131 202.321 334.224C202.321 333.317 202.199 332.512 201.953 331.808C201.719 331.104 201.388 330.555 200.961 330.16C200.535 329.765 200.049 329.568 199.505 329.568C198.951 329.568 198.46 329.765 198.033 330.16C197.607 330.555 197.271 331.104 197.025 331.808C196.791 332.512 196.673 333.317 196.673 334.224C196.673 335.131 196.791 335.941 197.025 336.656C197.271 337.36 197.607 337.909 198.033 338.304C198.46 338.699 198.951 338.896 199.505 338.896ZM195.265 334.224C195.265 333.083 195.447 332.064 195.809 331.168C196.172 330.272 196.673 329.573 197.313 329.072C197.953 328.571 198.684 328.32 199.505 328.32C200.327 328.32 201.057 328.571 201.697 329.072C202.337 329.573 202.833 330.272 203.185 331.168C203.548 332.064 203.729 333.083 203.729 334.224C203.729 335.365 203.548 336.384 203.185 337.28C202.833 338.176 202.337 338.875 201.697 339.376C201.057 339.877 200.327 340.128 199.505 340.128C198.684 340.128 197.953 339.877 197.313 339.376C196.673 338.875 196.172 338.176 195.809 337.28C195.447 336.384 195.265 335.365 195.265 334.224Z" fill="#6B6B6B"/>
<path d="M237.722 338.896C238.266 338.896 238.751 338.699 239.178 338.304C239.605 337.909 239.935 337.36 240.17 336.656C240.415 335.941 240.538 335.131 240.538 334.224C240.538 333.317 240.415 332.512 240.17 331.808C239.935 331.104 239.605 330.555 239.178 330.16C238.751 329.765 238.266 329.568 237.722 329.568C237.167 329.568 236.677 329.765 236.25 330.16C235.823 330.555 235.487 331.104 235.242 331.808C235.007 332.512 234.89 333.317 234.89 334.224C234.89 335.131 235.007 335.941 235.242 336.656C235.487 337.36 235.823 337.909 236.25 338.304C236.677 338.699 237.167 338.896 237.722 338.896ZM233.482 334.224C233.482 333.083 233.663 332.064 234.026 331.168C234.389 330.272 234.89 329.573 235.53 329.072C236.17 328.571 236.901 328.32 237.722 328.32C238.543 328.32 239.274 328.571 239.914 329.072C240.554 329.573 241.05 330.272 241.402 331.168C241.765 332.064 241.946 333.083 241.946 334.224C241.946 335.365 241.765 336.384 241.402 337.28C241.05 338.176 240.554 338.875 239.914 339.376C239.274 339.877 238.543 340.128 237.722 340.128C236.901 340.128 236.17 339.877 235.53 339.376C234.89 338.875 234.389 338.176 234.026 337.28C233.663 336.384 233.482 335.365 233.482 334.224ZM247.671 338.896C248.215 338.896 248.701 338.699 249.127 338.304C249.554 337.909 249.885 337.36 250.119 336.656C250.365 335.941 250.487 335.131 250.487 334.224C250.487 333.317 250.365 332.512 250.119 331.808C249.885 331.104 249.554 330.555 249.127 330.16C248.701 329.765 248.215 329.568 247.671 329.568C247.117 329.568 246.626 329.765 246.199 330.16C245.773 330.555 245.437 331.104 245.191 331.808C244.957 332.512 244.839 333.317 244.839 334.224C244.839 335.131 244.957 335.941 245.191 336.656C245.437 337.36 245.773 337.909 246.199 338.304C246.626 338.699 247.117 338.896 247.671 338.896ZM243.431 334.224C243.431 333.083 243.613 332.064 243.975 331.168C244.338 330.272 244.839 329.573 245.479 329.072C246.119 328.571 246.85 328.32 247.671 328.32C248.493 328.32 249.223 328.571 249.863 329.072C250.503 329.573 250.999 330.272 251.351 331.168C251.714 332.064 251.895 333.083 251.895 334.224C251.895 335.365 251.714 336.384 251.351 337.28C250.999 338.176 250.503 338.875 249.863 339.376C249.223 339.877 248.493 340.128 247.671 340.128C246.85 340.128 246.119 339.877 245.479 339.376C244.839 338.875 244.338 338.176 243.975 337.28C243.613 336.384 243.431 335.365 243.431 334.224Z" fill="#6B6B6B"/>
<path d="M285.89 338.896C286.434 338.896 286.919 338.699 287.346 338.304C287.773 337.909 288.103 337.36 288.338 336.656C288.583 335.941 288.706 335.131 288.706 334.224C288.706 333.317 288.583 332.512 288.338 331.808C288.103 331.104 287.773 330.555 287.346 330.16C286.919 329.765 286.434 329.568 285.89 329.568C285.335 329.568 284.845 329.765 284.418 330.16C283.991 330.555 283.655 331.104 283.41 331.808C283.175 332.512 283.058 333.317 283.058 334.224C283.058 335.131 283.175 335.941 283.41 336.656C283.655 337.36 283.991 337.909 284.418 338.304C284.845 338.699 285.335 338.896 285.89 338.896ZM281.65 334.224C281.65 333.083 281.831 332.064 282.194 331.168C282.557 330.272 283.058 329.573 283.698 329.072C284.338 328.571 285.069 328.32 285.89 328.32C286.711 328.32 287.442 328.571 288.082 329.072C288.722 329.573 289.218 330.272 289.57 331.168C289.933 332.064 290.114 333.083 290.114 334.224C290.114 335.365 289.933 336.384 289.57 337.28C289.218 338.176 288.722 338.875 288.082 339.376C287.442 339.877 286.711 340.128 285.89 340.128C285.069 340.128 284.338 339.877 283.698 339.376C283.058 338.875 282.557 338.176 282.194 337.28C281.831 336.384 281.65 335.365 281.65 334.224ZM295.839 338.896C296.383 338.896 296.869 338.699 297.295 338.304C297.722 337.909 298.053 337.36 298.287 336.656C298.533 335.941 298.655 335.131 298.655 334.224C298.655 333.317 298.533 332.512 298.287 331.808C298.053 331.104 297.722 330.555 297.295 330.16C296.869 329.765 296.383 329.568 295.839 329.568C295.285 329.568 294.794 329.765 294.367 330.16C293.941 330.555 293.605 331.104 293.359 331.808C293.125 332.512 293.007 333.317 293.007 334.224C293.007 335.131 293.125 335.941 293.359 336.656C293.605 337.36 293.941 337.909 294.367 338.304C294.794 338.699 295.285 338.896 295.839 338.896ZM291.599 334.224C291.599 333.083 291.781 332.064 292.143 331.168C292.506 330.272 293.007 329.573 293.647 329.072C294.287 328.571 295.018 328.32 295.839 328.32C296.661 328.32 297.391 328.571 298.031 329.072C298.671 329.573 299.167 330.272 299.519 331.168C299.882 332.064 300.063 333.083 300.063 334.224C300.063 335.365 299.882 336.384 299.519 337.28C299.167 338.176 298.671 338.875 298.031 339.376C297.391 339.877 296.661 340.128 295.839 340.128C295.018 340.128 294.287 339.877 293.647 339.376C293.007 338.875 292.506 338.176 292.143 337.28C291.781 336.384 291.599 335.365 291.599 334.224Z" fill="#6B6B6B"/>
<path d="M334.056 338.896C334.6 338.896 335.085 338.699 335.512 338.304C335.939 337.909 336.269 337.36 336.504 336.656C336.749 335.941 336.872 335.131 336.872 334.224C336.872 333.317 336.749 332.512 336.504 331.808C336.269 331.104 335.939 330.555 335.512 330.16C335.085 329.765 334.6 329.568 334.056 329.568C333.501 329.568 333.011 329.765 332.584 330.16C332.157 330.555 331.821 331.104 331.576 331.808C331.341 332.512 331.224 333.317 331.224 334.224C331.224 335.131 331.341 335.941 331.576 336.656C331.821 337.36 332.157 337.909 332.584 338.304C333.011 338.699 333.501 338.896 334.056 338.896ZM329.816 334.224C329.816 333.083 329.997 332.064 330.36 331.168C330.723 330.272 331.224 329.573 331.864 329.072C332.504 328.571 333.235 328.32 334.056 328.32C334.877 328.32 335.608 328.571 336.248 329.072C336.888 329.573 337.384 330.272 337.736 331.168C338.099 332.064 338.28 333.083 338.28 334.224C338.28 335.365 338.099 336.384 337.736 337.28C337.384 338.176 336.888 338.875 336.248 339.376C335.608 339.877 334.877 340.128 334.056 340.128C333.235 340.128 332.504 339.877 331.864 339.376C331.224 338.875 330.723 338.176 330.36 337.28C329.997 336.384 329.816 335.365 329.816 334.224ZM344.005 338.896C344.549 338.896 345.035 338.699 345.461 338.304C345.888 337.909 346.219 337.36 346.453 336.656C346.699 335.941 346.821 335.131 346.821 334.224C346.821 333.317 346.699 332.512 346.453 331.808C346.219 331.104 345.888 330.555 345.461 330.16C345.035 329.765 344.549 329.568 344.005 329.568C343.451 329.568 342.96 329.765 342.533 330.16C342.107 330.555 341.771 331.104 341.525 331.808C341.291 332.512 341.173 333.317 341.173 334.224C341.173 335.131 341.291 335.941 341.525 336.656C341.771 337.36 342.107 337.909 342.533 338.304C342.96 338.699 343.451 338.896 344.005 338.896ZM339.765 334.224C339.765 333.083 339.947 332.064 340.309 331.168C340.672 330.272 341.173 329.573 341.813 329.072C342.453 328.571 343.184 328.32 344.005 328.32C344.827 328.32 345.557 328.571 346.197 329.072C346.837 329.573 347.333 330.272 347.685 331.168C348.048 332.064 348.229 333.083 348.229 334.224C348.229 335.365 348.048 336.384 347.685 337.28C347.333 338.176 346.837 338.875 346.197 339.376C345.557 339.877 344.827 340.128 344.005 340.128C343.184 340.128 342.453 339.877 341.813 339.376C341.173 338.875 340.672 338.176 340.309 337.28C339.947 336.384 339.765 335.365 339.765 334.224Z" fill="#6B6B6B"/>
<path d="M45.056 376.896C45.6 376.896 46.0853 376.699 46.512 376.304C46.9387 375.909 47.2693 375.36 47.504 374.656C47.7493 373.941 47.872 373.131 47.872 372.224C47.872 371.317 47.7493 370.512 47.504 369.808C47.2693 369.104 46.9387 368.555 46.512 368.16C46.0853 367.765 45.6 367.568 45.056 367.568C44.5013 367.568 44.0107 367.765 43.584 368.16C43.1573 368.555 42.8213 369.104 42.576 369.808C42.3413 370.512 42.224 371.317 42.224 372.224C42.224 373.131 42.3413 373.941 42.576 374.656C42.8213 375.36 43.1573 375.909 43.584 376.304C44.0107 376.699 44.5013 376.896 45.056 376.896ZM40.816 372.224C40.816 371.083 40.9973 370.064 41.36 369.168C41.7227 368.272 42.224 367.573 42.864 367.072C43.504 366.571 44.2347 366.32 45.056 366.32C45.8773 366.32 46.608 366.571 47.248 367.072C47.888 367.573 48.384 368.272 48.736 369.168C49.0987 370.064 49.28 371.083 49.28 372.224C49.28 373.365 49.0987 374.384 48.736 375.28C48.384 376.176 47.888 376.875 47.248 377.376C46.608 377.877 45.8773 378.128 45.056 378.128C44.2347 378.128 43.504 377.877 42.864 377.376C42.224 376.875 41.7227 376.176 41.36 375.28C40.9973 374.384 40.816 373.365 40.816 372.224ZM55.0054 376.896C55.5494 376.896 56.0347 376.699 56.4614 376.304C56.888 375.909 57.2187 375.36 57.4534 374.656C57.6987 373.941 57.8214 373.131 57.8214 372.224C57.8214 371.317 57.6987 370.512 57.4534 369.808C57.2187 369.104 56.888 368.555 56.4614 368.16C56.0347 367.765 55.5494 367.568 55.0054 367.568C54.4507 367.568 53.96 367.765 53.5334 368.16C53.1067 368.555 52.7707 369.104 52.5254 369.808C52.2907 370.512 52.1734 371.317 52.1734 372.224C52.1734 373.131 52.2907 373.941 52.5254 374.656C52.7707 375.36 53.1067 375.909 53.5334 376.304C53.96 376.699 54.4507 376.896 55.0054 376.896ZM50.7654 372.224C50.7654 371.083 50.9467 370.064 51.3094 369.168C51.672 368.272 52.1734 367.573 52.8134 367.072C53.4534 366.571 54.184 366.32 55.0054 366.32C55.8267 366.32 56.5574 366.571 57.1974 367.072C57.8374 367.573 58.3334 368.272 58.6854 369.168C59.048 370.064 59.2294 371.083 59.2294 372.224C59.2294 373.365 59.048 374.384 58.6854 375.28C58.3334 376.176 57.8374 376.875 57.1974 377.376C56.5574 377.877 55.8267 378.128 55.0054 378.128C54.184 378.128 53.4534 377.877 52.8134 377.376C52.1734 376.875 51.672 376.176 51.3094 375.28C50.9467 374.384 50.7654 373.365 50.7654 372.224Z" fill="#6B6B6B"/>
<path d="M93.222 376.896C93.766 376.896 94.2513 376.699 94.678 376.304C95.1047 375.909 95.4353 375.36 95.67 374.656C95.9153 373.941 96.038 373.131 96.038 372.224C96.038 371.317 95.9153 370.512 95.67 369.808C95.4353 369.104 95.1047 368.555 94.678 368.16C94.2513 367.765 93.766 367.568 93.222 367.568C92.6673 367.568 92.1767 367.765 91.75 368.16C91.3233 368.555 90.9873 369.104 90.742 369.808C90.5073 370.512 90.39 371.317 90.39 372.224C90.39 373.131 90.5073 373.941 90.742 374.656C90.9873 375.36 91.3233 375.909 91.75 376.304C92.1767 376.699 92.6673 376.896 93.222 376.896ZM88.982 372.224C88.982 371.083 89.1633 370.064 89.526 369.168C89.8887 368.272 90.39 367.573 91.03 367.072C91.67 366.571 92.4007 366.32 93.222 366.32C94.0433 366.32 94.774 366.571 95.414 367.072C96.054 367.573 96.55 368.272 96.902 369.168C97.2647 370.064 97.446 371.083 97.446 372.224C97.446 373.365 97.2647 374.384 96.902 375.28C96.55 376.176 96.054 376.875 95.414 377.376C94.774 377.877 94.0433 378.128 93.222 378.128C92.4007 378.128 91.67 377.877 91.03 377.376C90.39 376.875 89.8887 376.176 89.526 375.28C89.1633 374.384 88.982 373.365 88.982 372.224ZM103.171 376.896C103.715 376.896 104.201 376.699 104.627 376.304C105.054 375.909 105.385 375.36 105.619 374.656C105.865 373.941 105.987 373.131 105.987 372.224C105.987 371.317 105.865 370.512 105.619 369.808C105.385 369.104 105.054 368.555 104.627 368.16C104.201 367.765 103.715 367.568 103.171 367.568C102.617 367.568 102.126 367.765 101.699 368.16C101.273 368.555 100.937 369.104 100.691 369.808C100.457 370.512 100.339 371.317 100.339 372.224C100.339 373.131 100.457 373.941 100.691 374.656C100.937 375.36 101.273 375.909 101.699 376.304C102.126 376.699 102.617 376.896 103.171 376.896ZM98.9314 372.224C98.9314 371.083 99.1127 370.064 99.4754 369.168C99.8381 368.272 100.339 367.573 100.979 367.072C101.619 366.571 102.35 366.32 103.171 366.32C103.993 366.32 104.723 366.571 105.363 367.072C106.003 367.573 106.499 368.272 106.851 369.168C107.214 370.064 107.395 371.083 107.395 372.224C107.395 373.365 107.214 374.384 106.851 375.28C106.499 376.176 106.003 376.875 105.363 377.376C104.723 377.877 103.993 378.128 103.171 378.128C102.35 378.128 101.619 377.877 100.979 377.376C100.339 376.875 99.8381 376.176 99.4754 375.28C99.1127 374.384 98.9314 373.365 98.9314 372.224Z" fill="#6B6B6B"/>
<path d="M141.39 376.896C141.934 376.896 142.419 376.699 142.846 376.304C143.273 375.909 143.603 375.36 143.838 374.656C144.083 373.941 144.206 373.131 144.206 372.224C144.206 371.317 144.083 370.512 143.838 369.808C143.603 369.104 143.273 368.555 142.846 368.16C142.419 367.765 141.934 367.568 141.39 367.568C140.835 367.568 140.345 367.765 139.918 368.16C139.491 368.555 139.155 369.104 138.91 369.808C138.675 370.512 138.558 371.317 138.558 372.224C138.558 373.131 138.675 373.941 138.91 374.656C139.155 375.36 139.491 375.909 139.918 376.304C140.345 376.699 140.835 376.896 141.39 376.896ZM137.15 372.224C137.15 371.083 137.331 370.064 137.694 369.168C138.057 368.272 138.558 367.573 139.198 367.072C139.838 366.571 140.569 366.32 141.39 366.32C142.211 366.32 142.942 366.571 143.582 367.072C144.222 367.573 144.718 368.272 145.07 369.168C145.433 370.064 145.614 371.083 145.614 372.224C145.614 373.365 145.433 374.384 145.07 375.28C144.718 376.176 144.222 376.875 143.582 377.376C142.942 377.877 142.211 378.128 141.39 378.128C140.569 378.128 139.838 377.877 139.198 377.376C138.558 376.875 138.057 376.176 137.694 375.28C137.331 374.384 137.15 373.365 137.15 372.224ZM151.339 376.896C151.883 376.896 152.369 376.699 152.795 376.304C153.222 375.909 153.553 375.36 153.787 374.656C154.033 373.941 154.155 373.131 154.155 372.224C154.155 371.317 154.033 370.512 153.787 369.808C153.553 369.104 153.222 368.555 152.795 368.16C152.369 367.765 151.883 367.568 151.339 367.568C150.785 367.568 150.294 367.765 149.867 368.16C149.441 368.555 149.105 369.104 148.859 369.808C148.625 370.512 148.507 371.317 148.507 372.224C148.507 373.131 148.625 373.941 148.859 374.656C149.105 375.36 149.441 375.909 149.867 376.304C150.294 376.699 150.785 376.896 151.339 376.896ZM147.099 372.224C147.099 371.083 147.281 370.064 147.643 369.168C148.006 368.272 148.507 367.573 149.147 367.072C149.787 366.571 150.518 366.32 151.339 366.32C152.161 366.32 152.891 366.571 153.531 367.072C154.171 367.573 154.667 368.272 155.019 369.168C155.382 370.064 155.563 371.083 155.563 372.224C155.563 373.365 155.382 374.384 155.019 375.28C154.667 376.176 154.171 376.875 153.531 377.376C152.891 377.877 152.161 378.128 151.339 378.128C150.518 378.128 149.787 377.877 149.147 377.376C148.507 376.875 148.006 376.176 147.643 375.28C147.281 374.384 147.099 373.365 147.099 372.224Z" fill="#6B6B6B"/>
<path d="M189.556 376.896C190.1 376.896 190.585 376.699 191.012 376.304C191.439 375.909 191.769 375.36 192.004 374.656C192.249 373.941 192.372 373.131 192.372 372.224C192.372 371.317 192.249 370.512 192.004 369.808C191.769 369.104 191.439 368.555 191.012 368.16C190.585 367.765 190.1 367.568 189.556 367.568C189.001 367.568 188.511 367.765 188.084 368.16C187.657 368.555 187.321 369.104 187.076 369.808C186.841 370.512 186.724 371.317 186.724 372.224C186.724 373.131 186.841 373.941 187.076 374.656C187.321 375.36 187.657 375.909 188.084 376.304C188.511 376.699 189.001 376.896 189.556 376.896ZM185.316 372.224C185.316 371.083 185.497 370.064 185.86 369.168C186.223 368.272 186.724 367.573 187.364 367.072C188.004 366.571 188.735 366.32 189.556 366.32C190.377 366.32 191.108 366.571 191.748 367.072C192.388 367.573 192.884 368.272 193.236 369.168C193.599 370.064 193.78 371.083 193.78 372.224C193.78 373.365 193.599 374.384 193.236 375.28C192.884 376.176 192.388 376.875 191.748 377.376C191.108 377.877 190.377 378.128 189.556 378.128C188.735 378.128 188.004 377.877 187.364 377.376C186.724 376.875 186.223 376.176 185.86 375.28C185.497 374.384 185.316 373.365 185.316 372.224ZM199.505 376.896C200.049 376.896 200.535 376.699 200.961 376.304C201.388 375.909 201.719 375.36 201.953 374.656C202.199 373.941 202.321 373.131 202.321 372.224C202.321 371.317 202.199 370.512 201.953 369.808C201.719 369.104 201.388 368.555 200.961 368.16C200.535 367.765 200.049 367.568 199.505 367.568C198.951 367.568 198.46 367.765 198.033 368.16C197.607 368.555 197.271 369.104 197.025 369.808C196.791 370.512 196.673 371.317 196.673 372.224C196.673 373.131 196.791 373.941 197.025 374.656C197.271 375.36 197.607 375.909 198.033 376.304C198.46 376.699 198.951 376.896 199.505 376.896ZM195.265 372.224C195.265 371.083 195.447 370.064 195.809 369.168C196.172 368.272 196.673 367.573 197.313 367.072C197.953 366.571 198.684 366.32 199.505 366.32C200.327 366.32 201.057 366.571 201.697 367.072C202.337 367.573 202.833 368.272 203.185 369.168C203.548 370.064 203.729 371.083 203.729 372.224C203.729 373.365 203.548 374.384 203.185 375.28C202.833 376.176 202.337 376.875 201.697 377.376C201.057 377.877 200.327 378.128 199.505 378.128C198.684 378.128 197.953 377.877 197.313 377.376C196.673 376.875 196.172 376.176 195.809 375.28C195.447 374.384 195.265 373.365 195.265 372.224Z" fill="#6B6B6B"/>
<path d="M237.722 376.896C238.266 376.896 238.751 376.699 239.178 376.304C239.605 375.909 239.935 375.36 240.17 374.656C240.415 373.941 240.538 373.131 240.538 372.224C240.538 371.317 240.415 370.512 240.17 369.808C239.935 369.104 239.605 368.555 239.178 368.16C238.751 367.765 238.266 367.568 237.722 367.568C237.167 367.568 236.677 367.765 236.25 368.16C235.823 368.555 235.487 369.104 235.242 369.808C235.007 370.512 234.89 371.317 234.89 372.224C234.89 373.131 235.007 373.941 235.242 374.656C235.487 375.36 235.823 375.909 236.25 376.304C236.677 376.699 237.167 376.896 237.722 376.896ZM233.482 372.224C233.482 371.083 233.663 370.064 234.026 369.168C234.389 368.272 234.89 367.573 235.53 367.072C236.17 366.571 236.901 366.32 237.722 366.32C238.543 366.32 239.274 366.571 239.914 367.072C240.554 367.573 241.05 368.272 241.402 369.168C241.765 370.064 241.946 371.083 241.946 372.224C241.946 373.365 241.765 374.384 241.402 375.28C241.05 376.176 240.554 376.875 239.914 377.376C239.274 377.877 238.543 378.128 237.722 378.128C236.901 378.128 236.17 377.877 235.53 377.376C234.89 376.875 234.389 376.176 234.026 375.28C233.663 374.384 233.482 373.365 233.482 372.224ZM247.671 376.896C248.215 376.896 248.701 376.699 249.127 376.304C249.554 375.909 249.885 375.36 250.119 374.656C250.365 373.941 250.487 373.131 250.487 372.224C250.487 371.317 250.365 370.512 250.119 369.808C249.885 369.104 249.554 368.555 249.127 368.16C248.701 367.765 248.215 367.568 247.671 367.568C247.117 367.568 246.626 367.765 246.199 368.16C245.773 368.555 245.437 369.104 245.191 369.808C244.957 370.512 244.839 371.317 244.839 372.224C244.839 373.131 244.957 373.941 245.191 374.656C245.437 375.36 245.773 375.909 246.199 376.304C246.626 376.699 247.117 376.896 247.671 376.896ZM243.431 372.224C243.431 371.083 243.613 370.064 243.975 369.168C244.338 368.272 244.839 367.573 245.479 367.072C246.119 366.571 246.85 366.32 247.671 366.32C248.493 366.32 249.223 366.571 249.863 367.072C250.503 367.573 250.999 368.272 251.351 369.168C251.714 370.064 251.895 371.083 251.895 372.224C251.895 373.365 251.714 374.384 251.351 375.28C250.999 376.176 250.503 376.875 249.863 377.376C249.223 377.877 248.493 378.128 247.671 378.128C246.85 378.128 246.119 377.877 245.479 377.376C244.839 376.875 244.338 376.176 243.975 375.28C243.613 374.384 243.431 373.365 243.431 372.224Z" fill="#6B6B6B"/>
<path d="M285.89 376.896C286.434 376.896 286.919 376.699 287.346 376.304C287.773 375.909 288.103 375.36 288.338 374.656C288.583 373.941 288.706 373.131 288.706 372.224C288.706 371.317 288.583 370.512 288.338 369.808C288.103 369.104 287.773 368.555 287.346 368.16C286.919 367.765 286.434 367.568 285.89 367.568C285.335 367.568 284.845 367.765 284.418 368.16C283.991 368.555 283.655 369.104 283.41 369.808C283.175 370.512 283.058 371.317 283.058 372.224C283.058 373.131 283.175 373.941 283.41 374.656C283.655 375.36 283.991 375.909 284.418 376.304C284.845 376.699 285.335 376.896 285.89 376.896ZM281.65 372.224C281.65 371.083 281.831 370.064 282.194 369.168C282.557 368.272 283.058 367.573 283.698 367.072C284.338 366.571 285.069 366.32 285.89 366.32C286.711 366.32 287.442 366.571 288.082 367.072C288.722 367.573 289.218 368.272 289.57 369.168C289.933 370.064 290.114 371.083 290.114 372.224C290.114 373.365 289.933 374.384 289.57 375.28C289.218 376.176 288.722 376.875 288.082 377.376C287.442 377.877 286.711 378.128 285.89 378.128C285.069 378.128 284.338 377.877 283.698 377.376C283.058 376.875 282.557 376.176 282.194 375.28C281.831 374.384 281.65 373.365 281.65 372.224ZM295.839 376.896C296.383 376.896 296.869 376.699 297.295 376.304C297.722 375.909 298.053 375.36 298.287 374.656C298.533 373.941 298.655 373.131 298.655 372.224C298.655 371.317 298.533 370.512 298.287 369.808C298.053 369.104 297.722 368.555 297.295 368.16C296.869 367.765 296.383 367.568 295.839 367.568C295.285 367.568 294.794 367.765 294.367 368.16C293.941 368.555 293.605 369.104 293.359 369.808C293.125 370.512 293.007 371.317 293.007 372.224C293.007 373.131 293.125 373.941 293.359 374.656C293.605 375.36 293.941 375.909 294.367 376.304C294.794 376.699 295.285 376.896 295.839 376.896ZM291.599 372.224C291.599 371.083 291.781 370.064 292.143 369.168C292.506 368.272 293.007 367.573 293.647 367.072C294.287 366.571 295.018 366.32 295.839 366.32C296.661 366.32 297.391 366.571 298.031 367.072C298.671 367.573 299.167 368.272 299.519 369.168C299.882 370.064 300.063 371.083 300.063 372.224C300.063 373.365 299.882 374.384 299.519 375.28C299.167 376.176 298.671 376.875 298.031 377.376C297.391 377.877 296.661 378.128 295.839 378.128C295.018 378.128 294.287 377.877 293.647 377.376C293.007 376.875 292.506 376.176 292.143 375.28C291.781 374.384 291.599 373.365 291.599 372.224Z" fill="#6B6B6B"/>
<path d="M334.056 376.896C334.6 376.896 335.085 376.699 335.512 376.304C335.939 375.909 336.269 375.36 336.504 374.656C336.749 373.941 336.872 373.131 336.872 372.224C336.872 371.317 336.749 370.512 336.504 369.808C336.269 369.104 335.939 368.555 335.512 368.16C335.085 367.765 334.6 367.568 334.056 367.568C333.501 367.568 333.011 367.765 332.584 368.16C332.157 368.555 331.821 369.104 331.576 369.808C331.341 370.512 331.224 371.317 331.224 372.224C331.224 373.131 331.341 373.941 331.576 374.656C331.821 375.36 332.157 375.909 332.584 376.304C333.011 376.699 333.501 376.896 334.056 376.896ZM329.816 372.224C329.816 371.083 329.997 370.064 330.36 369.168C330.723 368.272 331.224 367.573 331.864 367.072C332.504 366.571 333.235 366.32 334.056 366.32C334.877 366.32 335.608 366.571 336.248 367.072C336.888 367.573 337.384 368.272 337.736 369.168C338.099 370.064 338.28 371.083 338.28 372.224C338.28 373.365 338.099 374.384 337.736 375.28C337.384 376.176 336.888 376.875 336.248 377.376C335.608 377.877 334.877 378.128 334.056 378.128C333.235 378.128 332.504 377.877 331.864 377.376C331.224 376.875 330.723 376.176 330.36 375.28C329.997 374.384 329.816 373.365 329.816 372.224ZM344.005 376.896C344.549 376.896 345.035 376.699 345.461 376.304C345.888 375.909 346.219 375.36 346.453 374.656C346.699 373.941 346.821 373.131 346.821 372.224C346.821 371.317 346.699 370.512 346.453 369.808C346.219 369.104 345.888 368.555 345.461 368.16C345.035 367.765 344.549 367.568 344.005 367.568C343.451 367.568 342.96 367.765 342.533 368.16C342.107 368.555 341.771 369.104 341.525 369.808C341.291 370.512 341.173 371.317 341.173 372.224C341.173 373.131 341.291 373.941 341.525 374.656C341.771 375.36 342.107 375.909 342.533 376.304C342.96 376.699 343.451 376.896 344.005 376.896ZM339.765 372.224C339.765 371.083 339.947 370.064 340.309 369.168C340.672 368.272 341.173 367.573 341.813 367.072C342.453 366.571 343.184 366.32 344.005 366.32C344.827 366.32 345.557 366.571 346.197 367.072C346.837 367.573 347.333 368.272 347.685 369.168C348.048 370.064 348.229 371.083 348.229 372.224C348.229 373.365 348.048 374.384 347.685 375.28C347.333 376.176 346.837 376.875 346.197 377.376C345.557 377.877 344.827 378.128 344.005 378.128C343.184 378.128 342.453 377.877 341.813 377.376C341.173 376.875 340.672 376.176 340.309 375.28C339.947 374.384 339.765 373.365 339.765 372.224Z" fill="#6B6B6B"/>
</g>
<defs>
<filter id="filter0_d_2281_6180" x="8" y="102" width="374" height="315" filterUnits="userSpaceOnUse" color-interpolation-filters="sRGB">
<feFlood flood-opacity="0" result="BackgroundImageFix"/>
<feColorMatrix in="SourceAlpha" type="matrix" values="0 0 0 0 0 0 0 0 0 0 0 0 0 0 0 0 0 0 127 0" result="hardAlpha"/>
<feOffset dy="4"/>
<feGaussianBlur stdDeviation="4"/>
<feComposite in2="hardAlpha" operator="out"/>
<feColorMatrix type="matrix" values="0 0 0 0 0 0 0 0 0 0 0 0 0 0 0 0 0 0 0.2 0"/>
<feBlend mode="normal" in2="BackgroundImageFix" result="effect1_dropShadow_2281_6180"/>
<feBlend mode="normal" in="SourceGraphic" in2="effect1_dropShadow_2281_6180" result="shape"/>
</filter>
</defs>
</svg>
