<svg width="908" height="232" viewBox="0 0 908 232" fill="none" xmlns="http://www.w3.org/2000/svg">
<rect width="907" height="232" transform="translate(0.5)" fill="white"/>
<path d="M415 40C415 37.7909 416.791 36 419 36H448C450.209 36 452 37.7909 452 40V58C452 60.2091 450.209 62 448 62H419C416.791 62 415 60.2091 415 58V40Z" fill="#F7F7F7"/>
<path d="M432.21 54.056H430.88L429.718 51.186H424.958L423.768 54.056H422.438L426.652 43.836H428.066L432.21 54.056ZM429.284 50.108L427.352 45.376L425.392 50.108H429.284ZM435.143 46.09V54.056H433.911V43.836H435.199L439.021 50.206L442.843 43.836H444.145V54.056H442.913V46.076L439.021 52.376L435.143 46.09Z" fill="#6B6B6B"/>
<path d="M460.5 40C460.5 38.067 462.067 36.5 464 36.5H493C494.933 36.5 496.5 38.067 496.5 40V58C496.5 59.933 494.933 61.5 493 61.5H464C462.067 61.5 460.5 59.933 460.5 58V40Z" fill="#F7F7F7"/>
<path d="M460.5 40C460.5 38.067 462.067 36.5 464 36.5H493C494.933 36.5 496.5 38.067 496.5 40V58C496.5 59.933 494.933 61.5 493 61.5H464C462.067 61.5 460.5 59.933 460.5 58V40Z" stroke="#121212"/>
<path d="M473.056 53.896C473.6 53.896 474.085 53.6987 474.512 53.304C474.939 52.9093 475.269 52.36 475.504 51.656C475.749 50.9413 475.872 50.1307 475.872 49.224C475.872 48.3173 475.749 47.512 475.504 46.808C475.269 46.104 474.939 45.5547 474.512 45.16C474.085 44.7653 473.6 44.568 473.056 44.568C472.501 44.568 472.011 44.7653 471.584 45.16C471.157 45.5547 470.821 46.104 470.576 46.808C470.341 47.512 470.224 48.3173 470.224 49.224C470.224 50.1307 470.341 50.9413 470.576 51.656C470.821 52.36 471.157 52.9093 471.584 53.304C472.011 53.6987 472.501 53.896 473.056 53.896ZM468.816 49.224C468.816 48.0827 468.997 47.064 469.36 46.168C469.723 45.272 470.224 44.5733 470.864 44.072C471.504 43.5707 472.235 43.32 473.056 43.32C473.877 43.32 474.608 43.5707 475.248 44.072C475.888 44.5733 476.384 45.272 476.736 46.168C477.099 47.064 477.28 48.0827 477.28 49.224C477.28 50.3653 477.099 51.384 476.736 52.28C476.384 53.176 475.888 53.8747 475.248 54.376C474.608 54.8773 473.877 55.128 473.056 55.128C472.235 55.128 471.504 54.8773 470.864 54.376C470.224 53.8747 469.723 53.176 469.36 52.28C468.997 51.384 468.816 50.3653 468.816 49.224ZM483.005 53.896C483.549 53.896 484.035 53.6987 484.461 53.304C484.888 52.9093 485.219 52.36 485.453 51.656C485.699 50.9413 485.821 50.1307 485.821 49.224C485.821 48.3173 485.699 47.512 485.453 46.808C485.219 46.104 484.888 45.5547 484.461 45.16C484.035 44.7653 483.549 44.568 483.005 44.568C482.451 44.568 481.96 44.7653 481.533 45.16C481.107 45.5547 480.771 46.104 480.525 46.808C480.291 47.512 480.173 48.3173 480.173 49.224C480.173 50.1307 480.291 50.9413 480.525 51.656C480.771 52.36 481.107 52.9093 481.533 53.304C481.96 53.6987 482.451 53.896 483.005 53.896ZM478.765 49.224C478.765 48.0827 478.947 47.064 479.309 46.168C479.672 45.272 480.173 44.5733 480.813 44.072C481.453 43.5707 482.184 43.32 483.005 43.32C483.827 43.32 484.557 43.5707 485.197 44.072C485.837 44.5733 486.333 45.272 486.685 46.168C487.048 47.064 487.229 48.0827 487.229 49.224C487.229 50.3653 487.048 51.384 486.685 52.28C486.333 53.176 485.837 53.8747 485.197 54.376C484.557 54.8773 483.827 55.128 483.005 55.128C482.184 55.128 481.453 54.8773 480.813 54.376C480.173 53.8747 479.672 53.176 479.309 52.28C478.947 51.384 478.765 50.3653 478.765 49.224Z" fill="#121212"/>
<path d="M506.01 44.5C506.592 44.5 507 44.9305 507 45.5456C507 46.1606 506.592 46.5911 506.01 46.5911C505.427 46.5911 505 46.1606 505 45.5456C505 44.9305 505.427 44.5 506.01 44.5ZM505 52.4339C505 51.8189 505.427 51.3884 506.01 51.3884C506.592 51.3884 507 51.8189 507 52.4339C507 53.049 506.592 53.5 506.01 53.5C505.427 53.5 505 53.049 505 52.4339Z" fill="#8F8F8F"/>
<path d="M515 40C515 37.7909 516.791 36 519 36H548C550.209 36 552 37.7909 552 40V58C552 60.2091 550.209 62 548 62H519C516.791 62 515 60.2091 515 58V40Z" fill="#F7F7F7"/>
<path d="M528.056 53.896C528.6 53.896 529.085 53.6987 529.512 53.304C529.939 52.9093 530.269 52.36 530.504 51.656C530.749 50.9413 530.872 50.1307 530.872 49.224C530.872 48.3173 530.749 47.512 530.504 46.808C530.269 46.104 529.939 45.5547 529.512 45.16C529.085 44.7653 528.6 44.568 528.056 44.568C527.501 44.568 527.011 44.7653 526.584 45.16C526.157 45.5547 525.821 46.104 525.576 46.808C525.341 47.512 525.224 48.3173 525.224 49.224C525.224 50.1307 525.341 50.9413 525.576 51.656C525.821 52.36 526.157 52.9093 526.584 53.304C527.011 53.6987 527.501 53.896 528.056 53.896ZM523.816 49.224C523.816 48.0827 523.997 47.064 524.36 46.168C524.723 45.272 525.224 44.5733 525.864 44.072C526.504 43.5707 527.235 43.32 528.056 43.32C528.877 43.32 529.608 43.5707 530.248 44.072C530.888 44.5733 531.384 45.272 531.736 46.168C532.099 47.064 532.28 48.0827 532.28 49.224C532.28 50.3653 532.099 51.384 531.736 52.28C531.384 53.176 530.888 53.8747 530.248 54.376C529.608 54.8773 528.877 55.128 528.056 55.128C527.235 55.128 526.504 54.8773 525.864 54.376C525.224 53.8747 524.723 53.176 524.36 52.28C523.997 51.384 523.816 50.3653 523.816 49.224ZM538.005 53.896C538.549 53.896 539.035 53.6987 539.461 53.304C539.888 52.9093 540.219 52.36 540.453 51.656C540.699 50.9413 540.821 50.1307 540.821 49.224C540.821 48.3173 540.699 47.512 540.453 46.808C540.219 46.104 539.888 45.5547 539.461 45.16C539.035 44.7653 538.549 44.568 538.005 44.568C537.451 44.568 536.96 44.7653 536.533 45.16C536.107 45.5547 535.771 46.104 535.525 46.808C535.291 47.512 535.173 48.3173 535.173 49.224C535.173 50.1307 535.291 50.9413 535.525 51.656C535.771 52.36 536.107 52.9093 536.533 53.304C536.96 53.6987 537.451 53.896 538.005 53.896ZM533.765 49.224C533.765 48.0827 533.947 47.064 534.309 46.168C534.672 45.272 535.173 44.5733 535.813 44.072C536.453 43.5707 537.184 43.32 538.005 43.32C538.827 43.32 539.557 43.5707 540.197 44.072C540.837 44.5733 541.333 45.272 541.685 46.168C542.048 47.064 542.229 48.0827 542.229 49.224C542.229 50.3653 542.048 51.384 541.685 52.28C541.333 53.176 540.837 53.8747 540.197 54.376C539.557 54.8773 538.827 55.128 538.005 55.128C537.184 55.128 536.453 54.8773 535.813 54.376C535.173 53.8747 534.672 53.176 534.309 52.28C533.947 51.384 533.765 50.3653 533.765 49.224Z" fill="#6B6B6B"/>
<g clip-path="url(#clip0_2281_5148)">
<rect x="460" y="70" width="37" height="140" rx="4" fill="white"/>
<path d="M473.056 91.896C473.6 91.896 474.085 91.6987 474.512 91.304C474.939 90.9093 475.269 90.36 475.504 89.656C475.749 88.9413 475.872 88.1307 475.872 87.224C475.872 86.3173 475.749 85.512 475.504 84.808C475.269 84.104 474.939 83.5547 474.512 83.16C474.085 82.7653 473.6 82.568 473.056 82.568C472.501 82.568 472.011 82.7653 471.584 83.16C471.157 83.5547 470.821 84.104 470.576 84.808C470.341 85.512 470.224 86.3173 470.224 87.224C470.224 88.1307 470.341 88.9413 470.576 89.656C470.821 90.36 471.157 90.9093 471.584 91.304C472.011 91.6987 472.501 91.896 473.056 91.896ZM468.816 87.224C468.816 86.0827 468.997 85.064 469.36 84.168C469.723 83.272 470.224 82.5733 470.864 82.072C471.504 81.5707 472.235 81.32 473.056 81.32C473.877 81.32 474.608 81.5707 475.248 82.072C475.888 82.5733 476.384 83.272 476.736 84.168C477.099 85.064 477.28 86.0827 477.28 87.224C477.28 88.3653 477.099 89.384 476.736 90.28C476.384 91.176 475.888 91.8747 475.248 92.376C474.608 92.8773 473.877 93.128 473.056 93.128C472.235 93.128 471.504 92.8773 470.864 92.376C470.224 91.8747 469.723 91.176 469.36 90.28C468.997 89.384 468.816 88.3653 468.816 87.224ZM483.005 91.896C483.549 91.896 484.035 91.6987 484.461 91.304C484.888 90.9093 485.219 90.36 485.453 89.656C485.699 88.9413 485.821 88.1307 485.821 87.224C485.821 86.3173 485.699 85.512 485.453 84.808C485.219 84.104 484.888 83.5547 484.461 83.16C484.035 82.7653 483.549 82.568 483.005 82.568C482.451 82.568 481.96 82.7653 481.533 83.16C481.107 83.5547 480.771 84.104 480.525 84.808C480.291 85.512 480.173 86.3173 480.173 87.224C480.173 88.1307 480.291 88.9413 480.525 89.656C480.771 90.36 481.107 90.9093 481.533 91.304C481.96 91.6987 482.451 91.896 483.005 91.896ZM478.765 87.224C478.765 86.0827 478.947 85.064 479.309 84.168C479.672 83.272 480.173 82.5733 480.813 82.072C481.453 81.5707 482.184 81.32 483.005 81.32C483.827 81.32 484.557 81.5707 485.197 82.072C485.837 82.5733 486.333 83.272 486.685 84.168C487.048 85.064 487.229 86.0827 487.229 87.224C487.229 88.3653 487.048 89.384 486.685 90.28C486.333 91.176 485.837 91.8747 485.197 92.376C484.557 92.8773 483.827 93.128 483.005 93.128C482.184 93.128 481.453 92.8773 480.813 92.376C480.173 91.8747 479.672 91.176 479.309 90.28C478.947 89.384 478.765 88.3653 478.765 87.224Z" fill="#121212"/>
<path d="M473.056 121.896C473.6 121.896 474.085 121.699 474.512 121.304C474.939 120.909 475.269 120.36 475.504 119.656C475.749 118.941 475.872 118.131 475.872 117.224C475.872 116.317 475.749 115.512 475.504 114.808C475.269 114.104 474.939 113.555 474.512 113.16C474.085 112.765 473.6 112.568 473.056 112.568C472.501 112.568 472.011 112.765 471.584 113.16C471.157 113.555 470.821 114.104 470.576 114.808C470.341 115.512 470.224 116.317 470.224 117.224C470.224 118.131 470.341 118.941 470.576 119.656C470.821 120.36 471.157 120.909 471.584 121.304C472.011 121.699 472.501 121.896 473.056 121.896ZM468.816 117.224C468.816 116.083 468.997 115.064 469.36 114.168C469.723 113.272 470.224 112.573 470.864 112.072C471.504 111.571 472.235 111.32 473.056 111.32C473.877 111.32 474.608 111.571 475.248 112.072C475.888 112.573 476.384 113.272 476.736 114.168C477.099 115.064 477.28 116.083 477.28 117.224C477.28 118.365 477.099 119.384 476.736 120.28C476.384 121.176 475.888 121.875 475.248 122.376C474.608 122.877 473.877 123.128 473.056 123.128C472.235 123.128 471.504 122.877 470.864 122.376C470.224 121.875 469.723 121.176 469.36 120.28C468.997 119.384 468.816 118.365 468.816 117.224ZM483.005 121.896C483.549 121.896 484.035 121.699 484.461 121.304C484.888 120.909 485.219 120.36 485.453 119.656C485.699 118.941 485.821 118.131 485.821 117.224C485.821 116.317 485.699 115.512 485.453 114.808C485.219 114.104 484.888 113.555 484.461 113.16C484.035 112.765 483.549 112.568 483.005 112.568C482.451 112.568 481.96 112.765 481.533 113.16C481.107 113.555 480.771 114.104 480.525 114.808C480.291 115.512 480.173 116.317 480.173 117.224C480.173 118.131 480.291 118.941 480.525 119.656C480.771 120.36 481.107 120.909 481.533 121.304C481.96 121.699 482.451 121.896 483.005 121.896ZM478.765 117.224C478.765 116.083 478.947 115.064 479.309 114.168C479.672 113.272 480.173 112.573 480.813 112.072C481.453 111.571 482.184 111.32 483.005 111.32C483.827 111.32 484.557 111.571 485.197 112.072C485.837 112.573 486.333 113.272 486.685 114.168C487.048 115.064 487.229 116.083 487.229 117.224C487.229 118.365 487.048 119.384 486.685 120.28C486.333 121.176 485.837 121.875 485.197 122.376C484.557 122.877 483.827 123.128 483.005 123.128C482.184 123.128 481.453 122.877 480.813 122.376C480.173 121.875 479.672 121.176 479.309 120.28C478.947 119.384 478.765 118.365 478.765 117.224Z" fill="#121212"/>
<path d="M473.056 151.896C473.6 151.896 474.085 151.699 474.512 151.304C474.939 150.909 475.269 150.36 475.504 149.656C475.749 148.941 475.872 148.131 475.872 147.224C475.872 146.317 475.749 145.512 475.504 144.808C475.269 144.104 474.939 143.555 474.512 143.16C474.085 142.765 473.6 142.568 473.056 142.568C472.501 142.568 472.011 142.765 471.584 143.16C471.157 143.555 470.821 144.104 470.576 144.808C470.341 145.512 470.224 146.317 470.224 147.224C470.224 148.131 470.341 148.941 470.576 149.656C470.821 150.36 471.157 150.909 471.584 151.304C472.011 151.699 472.501 151.896 473.056 151.896ZM468.816 147.224C468.816 146.083 468.997 145.064 469.36 144.168C469.723 143.272 470.224 142.573 470.864 142.072C471.504 141.571 472.235 141.32 473.056 141.32C473.877 141.32 474.608 141.571 475.248 142.072C475.888 142.573 476.384 143.272 476.736 144.168C477.099 145.064 477.28 146.083 477.28 147.224C477.28 148.365 477.099 149.384 476.736 150.28C476.384 151.176 475.888 151.875 475.248 152.376C474.608 152.877 473.877 153.128 473.056 153.128C472.235 153.128 471.504 152.877 470.864 152.376C470.224 151.875 469.723 151.176 469.36 150.28C468.997 149.384 468.816 148.365 468.816 147.224ZM483.005 151.896C483.549 151.896 484.035 151.699 484.461 151.304C484.888 150.909 485.219 150.36 485.453 149.656C485.699 148.941 485.821 148.131 485.821 147.224C485.821 146.317 485.699 145.512 485.453 144.808C485.219 144.104 484.888 143.555 484.461 143.16C484.035 142.765 483.549 142.568 483.005 142.568C482.451 142.568 481.96 142.765 481.533 143.16C481.107 143.555 480.771 144.104 480.525 144.808C480.291 145.512 480.173 146.317 480.173 147.224C480.173 148.131 480.291 148.941 480.525 149.656C480.771 150.36 481.107 150.909 481.533 151.304C481.96 151.699 482.451 151.896 483.005 151.896ZM478.765 147.224C478.765 146.083 478.947 145.064 479.309 144.168C479.672 143.272 480.173 142.573 480.813 142.072C481.453 141.571 482.184 141.32 483.005 141.32C483.827 141.32 484.557 141.571 485.197 142.072C485.837 142.573 486.333 143.272 486.685 144.168C487.048 145.064 487.229 146.083 487.229 147.224C487.229 148.365 487.048 149.384 486.685 150.28C486.333 151.176 485.837 151.875 485.197 152.376C484.557 152.877 483.827 153.128 483.005 153.128C482.184 153.128 481.453 152.877 480.813 152.376C480.173 151.875 479.672 151.176 479.309 150.28C478.947 149.384 478.765 148.365 478.765 147.224Z" fill="#121212"/>
<path d="M473.056 181.896C473.6 181.896 474.085 181.699 474.512 181.304C474.939 180.909 475.269 180.36 475.504 179.656C475.749 178.941 475.872 178.131 475.872 177.224C475.872 176.317 475.749 175.512 475.504 174.808C475.269 174.104 474.939 173.555 474.512 173.16C474.085 172.765 473.6 172.568 473.056 172.568C472.501 172.568 472.011 172.765 471.584 173.16C471.157 173.555 470.821 174.104 470.576 174.808C470.341 175.512 470.224 176.317 470.224 177.224C470.224 178.131 470.341 178.941 470.576 179.656C470.821 180.36 471.157 180.909 471.584 181.304C472.011 181.699 472.501 181.896 473.056 181.896ZM468.816 177.224C468.816 176.083 468.997 175.064 469.36 174.168C469.723 173.272 470.224 172.573 470.864 172.072C471.504 171.571 472.235 171.32 473.056 171.32C473.877 171.32 474.608 171.571 475.248 172.072C475.888 172.573 476.384 173.272 476.736 174.168C477.099 175.064 477.28 176.083 477.28 177.224C477.28 178.365 477.099 179.384 476.736 180.28C476.384 181.176 475.888 181.875 475.248 182.376C474.608 182.877 473.877 183.128 473.056 183.128C472.235 183.128 471.504 182.877 470.864 182.376C470.224 181.875 469.723 181.176 469.36 180.28C468.997 179.384 468.816 178.365 468.816 177.224ZM483.005 181.896C483.549 181.896 484.035 181.699 484.461 181.304C484.888 180.909 485.219 180.36 485.453 179.656C485.699 178.941 485.821 178.131 485.821 177.224C485.821 176.317 485.699 175.512 485.453 174.808C485.219 174.104 484.888 173.555 484.461 173.16C484.035 172.765 483.549 172.568 483.005 172.568C482.451 172.568 481.96 172.765 481.533 173.16C481.107 173.555 480.771 174.104 480.525 174.808C480.291 175.512 480.173 176.317 480.173 177.224C480.173 178.131 480.291 178.941 480.525 179.656C480.771 180.36 481.107 180.909 481.533 181.304C481.96 181.699 482.451 181.896 483.005 181.896ZM478.765 177.224C478.765 176.083 478.947 175.064 479.309 174.168C479.672 173.272 480.173 172.573 480.813 172.072C481.453 171.571 482.184 171.32 483.005 171.32C483.827 171.32 484.557 171.571 485.197 172.072C485.837 172.573 486.333 173.272 486.685 174.168C487.048 175.064 487.229 176.083 487.229 177.224C487.229 178.365 487.048 179.384 486.685 180.28C486.333 181.176 485.837 181.875 485.197 182.376C484.557 182.877 483.827 183.128 483.005 183.128C482.184 183.128 481.453 182.877 480.813 182.376C480.173 181.875 479.672 181.176 479.309 180.28C478.947 179.384 478.765 178.365 478.765 177.224Z" fill="#121212"/>
<path d="M473.056 211.896C473.6 211.896 474.085 211.699 474.512 211.304C474.939 210.909 475.269 210.36 475.504 209.656C475.749 208.941 475.872 208.131 475.872 207.224C475.872 206.317 475.749 205.512 475.504 204.808C475.269 204.104 474.939 203.555 474.512 203.16C474.085 202.765 473.6 202.568 473.056 202.568C472.501 202.568 472.011 202.765 471.584 203.16C471.157 203.555 470.821 204.104 470.576 204.808C470.341 205.512 470.224 206.317 470.224 207.224C470.224 208.131 470.341 208.941 470.576 209.656C470.821 210.36 471.157 210.909 471.584 211.304C472.011 211.699 472.501 211.896 473.056 211.896ZM468.816 207.224C468.816 206.083 468.997 205.064 469.36 204.168C469.723 203.272 470.224 202.573 470.864 202.072C471.504 201.571 472.235 201.32 473.056 201.32C473.877 201.32 474.608 201.571 475.248 202.072C475.888 202.573 476.384 203.272 476.736 204.168C477.099 205.064 477.28 206.083 477.28 207.224C477.28 208.365 477.099 209.384 476.736 210.28C476.384 211.176 475.888 211.875 475.248 212.376C474.608 212.877 473.877 213.128 473.056 213.128C472.235 213.128 471.504 212.877 470.864 212.376C470.224 211.875 469.723 211.176 469.36 210.28C468.997 209.384 468.816 208.365 468.816 207.224ZM483.005 211.896C483.549 211.896 484.035 211.699 484.461 211.304C484.888 210.909 485.219 210.36 485.453 209.656C485.699 208.941 485.821 208.131 485.821 207.224C485.821 206.317 485.699 205.512 485.453 204.808C485.219 204.104 484.888 203.555 484.461 203.16C484.035 202.765 483.549 202.568 483.005 202.568C482.451 202.568 481.96 202.765 481.533 203.16C481.107 203.555 480.771 204.104 480.525 204.808C480.291 205.512 480.173 206.317 480.173 207.224C480.173 208.131 480.291 208.941 480.525 209.656C480.771 210.36 481.107 210.909 481.533 211.304C481.96 211.699 482.451 211.896 483.005 211.896ZM478.765 207.224C478.765 206.083 478.947 205.064 479.309 204.168C479.672 203.272 480.173 202.573 480.813 202.072C481.453 201.571 482.184 201.32 483.005 201.32C483.827 201.32 484.557 201.571 485.197 202.072C485.837 202.573 486.333 203.272 486.685 204.168C487.048 205.064 487.229 206.083 487.229 207.224C487.229 208.365 487.048 209.384 486.685 210.28C486.333 211.176 485.837 211.875 485.197 212.376C484.557 212.877 483.827 213.128 483.005 213.128C482.184 213.128 481.453 212.877 480.813 212.376C480.173 211.875 479.672 211.176 479.309 210.28C478.947 209.384 478.765 208.365 478.765 207.224Z" fill="#121212"/>
<path d="M493 75C493 74.4477 493.448 74 494 74C494.552 74 495 74.4477 495 75V138C495 138.552 494.552 139 494 139C493.448 139 493 138.552 493 138V75Z" fill="#C2C2C2"/>
</g>
<rect x="460.5" y="70.5" width="36" height="139" rx="3.5" stroke="#368FF7"/>
<path d="M497 32L497 24" stroke="#6B6B6B" stroke-width="1.2"/>
<path d="M460 32L460 24" stroke="#6B6B6B" stroke-width="1.2"/>
<path d="M460 28L497 28" stroke="#6B6B6B" stroke-width="1.2"/>
<path d="M497 70L497 62" stroke="#6B6B6B" stroke-width="1.2"/>
<path d="M508.172 69.964C508.76 69.964 509.236 69.796 509.6 69.46C509.973 69.1147 510.16 68.6713 510.16 68.13C510.16 67.5887 509.973 67.15 509.6 66.814C509.236 66.4687 508.76 66.296 508.172 66.296C507.575 66.296 507.089 66.4687 506.716 66.814C506.343 67.15 506.156 67.5887 506.156 68.13C506.156 68.6713 506.343 69.1147 506.716 69.46C507.089 69.796 507.575 69.964 508.172 69.964ZM504.7 68.158C504.7 67.7007 504.859 67.2433 505.176 66.786C505.493 66.3193 505.899 65.9507 506.394 65.68C505.983 65.4 505.647 65.0547 505.386 64.644C505.125 64.2333 504.994 63.846 504.994 63.482C504.994 62.9407 505.129 62.46 505.4 62.04C505.671 61.6107 506.044 61.2793 506.52 61.046C507.005 60.8033 507.556 60.682 508.172 60.682C508.788 60.682 509.334 60.8033 509.81 61.046C510.295 61.2793 510.673 61.6107 510.944 62.04C511.215 62.46 511.35 62.9407 511.35 63.482C511.35 63.8553 511.219 64.2473 510.958 64.658C510.697 65.0687 510.361 65.4093 509.95 65.68C510.445 65.96 510.846 66.3287 511.154 66.786C511.462 67.2433 511.616 67.7007 511.616 68.158C511.616 68.746 511.471 69.2733 511.182 69.74C510.893 70.1973 510.487 70.5567 509.964 70.818C509.441 71.07 508.844 71.196 508.172 71.196C507.5 71.196 506.898 71.07 506.366 70.818C505.843 70.5567 505.433 70.1973 505.134 69.74C504.845 69.2733 504.7 68.746 504.7 68.158ZM506.45 63.482C506.45 63.9487 506.609 64.3267 506.926 64.616C507.243 64.9053 507.659 65.05 508.172 65.05C508.676 65.05 509.087 64.9053 509.404 64.616C509.731 64.3173 509.894 63.9393 509.894 63.482C509.894 63.0247 509.731 62.6513 509.404 62.362C509.087 62.0633 508.676 61.914 508.172 61.914C507.659 61.914 507.243 62.0587 506.926 62.348C506.609 62.6373 506.45 63.0153 506.45 63.482ZM516.933 69.964C517.558 69.964 518.067 69.7353 518.459 69.278C518.851 68.8113 519.047 68.2047 519.047 67.458C519.047 66.7207 518.851 66.1233 518.459 65.666C518.067 65.2087 517.558 64.98 516.933 64.98C516.541 64.98 516.177 65.092 515.841 65.316C515.505 65.54 515.239 65.8433 515.043 66.226C514.847 66.5993 514.749 67.01 514.749 67.458C514.749 67.9153 514.847 68.3353 515.043 68.718C515.239 69.1007 515.505 69.404 515.841 69.628C516.177 69.852 516.541 69.964 516.933 69.964ZM513.279 63.776H514.735V65.036C514.987 64.616 515.337 64.3033 515.785 64.098C516.233 63.8833 516.644 63.776 517.017 63.776C517.698 63.776 518.3 63.9347 518.823 64.252C519.355 64.56 519.766 64.994 520.055 65.554C520.354 66.1047 520.503 66.7393 520.503 67.458C520.503 68.1767 520.354 68.8207 520.055 69.39C519.766 69.95 519.355 70.3887 518.823 70.706C518.3 71.014 517.698 71.168 517.017 71.168C516.644 71.168 516.233 71.0607 515.785 70.846C515.337 70.622 514.987 70.3 514.735 69.88V74.234H513.279V63.776ZM525.646 67.444L528.348 71.098H526.542L524.792 68.62L523.056 71.098H521.25L523.91 67.444L521.194 63.776H523.014L524.792 66.324L526.556 63.776H528.376L525.646 67.444Z" fill="#6B6B6B"/>
<rect x="460" y="70" width="8.00002" height="37" transform="rotate(-90 460 70)" fill="#FF0000" fill-opacity="0.1"/>
<path d="M356.06 121V111.047H358.363C358.751 111.051 359.115 111.092 359.457 111.17C359.803 111.243 360.122 111.348 360.414 111.484C360.82 111.671 361.177 111.917 361.487 112.223C361.802 112.523 362.052 112.872 362.239 113.269C362.408 113.606 362.535 113.975 362.622 114.376C362.713 114.777 362.761 115.205 362.766 115.661V116.393C362.766 116.83 362.722 117.245 362.636 117.637C362.554 118.029 362.433 118.389 362.273 118.717C362.109 119.059 361.902 119.368 361.651 119.646C361.401 119.924 361.12 120.161 360.811 120.357C360.482 120.562 360.111 120.72 359.696 120.829C359.286 120.938 358.842 120.995 358.363 121H356.06ZM357.345 112.086V119.968H358.363C358.728 119.963 359.058 119.918 359.354 119.831C359.655 119.744 359.922 119.621 360.154 119.462C360.4 119.298 360.612 119.097 360.79 118.86C360.972 118.619 361.116 118.35 361.221 118.054C361.312 117.812 361.38 117.552 361.426 117.274C361.471 116.992 361.496 116.698 361.501 116.393V115.647C361.496 115.338 361.469 115.041 361.419 114.759C361.373 114.472 361.303 114.205 361.207 113.959C361.084 113.64 360.918 113.353 360.708 113.098C360.503 112.838 360.25 112.628 359.949 112.469C359.735 112.35 359.496 112.259 359.231 112.195C358.967 112.127 358.678 112.09 358.363 112.086H357.345ZM369.024 113.467C369.257 113.467 369.498 113.483 369.749 113.515C370.004 113.547 370.196 113.59 370.323 113.645L370.152 114.882C369.906 114.827 369.671 114.788 369.448 114.766C369.229 114.738 368.999 114.725 368.758 114.725C368.448 114.725 368.168 114.763 367.917 114.841C367.666 114.914 367.448 115.023 367.261 115.169C367.092 115.297 366.944 115.454 366.816 115.641C366.693 115.823 366.591 116.028 366.509 116.256V121H365.237V113.604H366.44L366.495 114.595L366.502 114.779C366.803 114.374 367.163 114.055 367.582 113.822C368.006 113.585 368.487 113.467 369.024 113.467ZM371.81 117.233C371.81 116.7 371.888 116.206 372.043 115.75C372.198 115.29 372.421 114.891 372.713 114.554C373 114.216 373.351 113.952 373.765 113.761C374.18 113.565 374.647 113.467 375.167 113.467C375.691 113.467 376.16 113.565 376.575 113.761C376.994 113.952 377.35 114.216 377.641 114.554C377.929 114.891 378.15 115.29 378.305 115.75C378.459 116.206 378.537 116.7 378.537 117.233V117.384C378.537 117.917 378.459 118.411 378.305 118.867C378.15 119.323 377.929 119.719 377.641 120.057C377.35 120.394 376.997 120.658 376.582 120.85C376.167 121.041 375.7 121.137 375.181 121.137C374.656 121.137 374.185 121.041 373.765 120.85C373.351 120.658 373 120.394 372.713 120.057C372.421 119.719 372.198 119.323 372.043 118.867C371.888 118.411 371.81 117.917 371.81 117.384V117.233ZM373.075 117.384C373.075 117.748 373.118 118.097 373.205 118.43C373.292 118.758 373.424 119.047 373.601 119.298C373.775 119.549 373.993 119.747 374.258 119.893C374.522 120.038 374.83 120.111 375.181 120.111C375.527 120.111 375.83 120.038 376.09 119.893C376.354 119.747 376.575 119.549 376.753 119.298C376.926 119.047 377.056 118.758 377.142 118.43C377.229 118.097 377.272 117.748 377.272 117.384V117.233C377.272 116.873 377.227 116.529 377.136 116.201C377.049 115.868 376.919 115.577 376.746 115.326C376.568 115.076 376.347 114.877 376.083 114.731C375.823 114.581 375.518 114.506 375.167 114.506C374.816 114.506 374.511 114.581 374.251 114.731C373.991 114.877 373.775 115.076 373.601 115.326C373.424 115.577 373.292 115.868 373.205 116.201C373.118 116.529 373.075 116.873 373.075 117.233V117.384ZM380.147 123.844V113.604H381.302L381.364 114.41C381.464 114.283 381.574 114.169 381.692 114.068C381.811 113.964 381.938 113.875 382.075 113.802C382.266 113.692 382.478 113.61 382.711 113.556C382.948 113.496 383.201 113.467 383.469 113.467C383.943 113.467 384.363 113.56 384.727 113.747C385.092 113.934 385.397 114.194 385.643 114.526C385.889 114.859 386.076 115.258 386.204 115.723C386.331 116.183 386.395 116.689 386.395 117.24V117.384C386.395 117.912 386.331 118.407 386.204 118.867C386.076 119.323 385.889 119.719 385.643 120.057C385.397 120.394 385.092 120.658 384.727 120.85C384.367 121.041 383.955 121.137 383.49 121.137C383.207 121.137 382.943 121.107 382.697 121.048C382.455 120.989 382.237 120.904 382.041 120.795C381.922 120.727 381.811 120.651 381.706 120.569C381.601 120.483 381.503 120.389 381.412 120.289V123.844H380.147ZM385.131 117.24C385.131 116.88 385.09 116.538 385.008 116.215C384.93 115.887 384.809 115.597 384.645 115.347C384.477 115.101 384.265 114.905 384.01 114.759C383.754 114.613 383.449 114.54 383.094 114.54C382.898 114.54 382.715 114.563 382.547 114.608C382.383 114.654 382.234 114.72 382.102 114.807C381.956 114.893 381.827 115 381.713 115.128C381.599 115.256 381.498 115.397 381.412 115.552V119.113C381.489 119.25 381.578 119.378 381.678 119.496C381.779 119.615 381.893 119.715 382.02 119.797C382.166 119.893 382.328 119.968 382.506 120.022C382.688 120.077 382.888 120.104 383.107 120.104C383.458 120.104 383.761 120.032 384.016 119.886C384.272 119.735 384.481 119.535 384.645 119.284C384.809 119.034 384.93 118.744 385.008 118.416C385.09 118.088 385.131 117.744 385.131 117.384V117.24ZM396.001 121V111.047H398.304C398.692 111.051 399.056 111.092 399.398 111.17C399.744 111.243 400.063 111.348 400.355 111.484C400.761 111.671 401.118 111.917 401.428 112.223C401.743 112.523 401.993 112.872 402.18 113.269C402.349 113.606 402.476 113.975 402.563 114.376C402.654 114.777 402.702 115.205 402.707 115.661V116.393C402.707 116.83 402.663 117.245 402.577 117.637C402.495 118.029 402.374 118.389 402.214 118.717C402.05 119.059 401.843 119.368 401.592 119.646C401.342 119.924 401.061 120.161 400.752 120.357C400.423 120.562 400.052 120.72 399.637 120.829C399.227 120.938 398.783 120.995 398.304 121H396.001ZM397.286 112.086V119.968H398.304C398.669 119.963 398.999 119.918 399.296 119.831C399.596 119.744 399.863 119.621 400.095 119.462C400.341 119.298 400.553 119.097 400.731 118.86C400.913 118.619 401.057 118.35 401.162 118.054C401.253 117.812 401.321 117.552 401.367 117.274C401.412 116.992 401.437 116.698 401.442 116.393V115.647C401.437 115.338 401.41 115.041 401.36 114.759C401.314 114.472 401.244 114.205 401.148 113.959C401.025 113.64 400.859 113.353 400.649 113.098C400.444 112.838 400.191 112.628 399.89 112.469C399.676 112.35 399.437 112.259 399.172 112.195C398.908 112.127 398.619 112.09 398.304 112.086H397.286ZM403.763 117.233C403.763 116.7 403.841 116.206 403.996 115.75C404.151 115.29 404.374 114.891 404.666 114.554C404.953 114.216 405.304 113.952 405.718 113.761C406.133 113.565 406.6 113.467 407.12 113.467C407.644 113.467 408.113 113.565 408.528 113.761C408.947 113.952 409.303 114.216 409.594 114.554C409.881 114.891 410.102 115.29 410.257 115.75C410.412 116.206 410.49 116.7 410.49 117.233V117.384C410.49 117.917 410.412 118.411 410.257 118.867C410.102 119.323 409.881 119.719 409.594 120.057C409.303 120.394 408.949 120.658 408.535 120.85C408.12 121.041 407.653 121.137 407.133 121.137C406.609 121.137 406.138 121.041 405.718 120.85C405.304 120.658 404.953 120.394 404.666 120.057C404.374 119.719 404.151 119.323 403.996 118.867C403.841 118.411 403.763 117.917 403.763 117.384V117.233ZM405.028 117.384C405.028 117.748 405.071 118.097 405.158 118.43C405.244 118.758 405.376 119.047 405.554 119.298C405.727 119.549 405.946 119.747 406.21 119.893C406.475 120.038 406.782 120.111 407.133 120.111C407.48 120.111 407.783 120.038 408.042 119.893C408.307 119.747 408.528 119.549 408.706 119.298C408.879 119.047 409.009 118.758 409.095 118.43C409.182 118.097 409.225 117.748 409.225 117.384V117.233C409.225 116.873 409.18 116.529 409.088 116.201C409.002 115.868 408.872 115.577 408.699 115.326C408.521 115.076 408.3 114.877 408.036 114.731C407.776 114.581 407.471 114.506 407.12 114.506C406.769 114.506 406.463 114.581 406.204 114.731C405.944 114.877 405.727 115.076 405.554 115.326C405.376 115.577 405.244 115.868 405.158 116.201C405.071 116.529 405.028 116.873 405.028 117.233V117.384ZM412.818 121L411.246 113.604H412.367L413.228 118.32L413.378 119.38L413.563 118.32L414.746 113.604H415.559L416.735 118.32L416.933 119.482L417.118 118.32L417.938 113.604H419.059L417.487 121H416.489L415.333 116.468L415.142 115.319L414.957 116.468L413.816 121H412.818ZM420.095 121V113.604H421.23L421.319 114.697C421.428 114.542 421.547 114.401 421.674 114.273C421.806 114.141 421.945 114.027 422.091 113.932C422.31 113.786 422.547 113.674 422.802 113.597C423.062 113.515 423.335 113.471 423.622 113.467C424.01 113.467 424.361 113.521 424.675 113.631C424.994 113.74 425.265 113.911 425.489 114.144C425.712 114.376 425.883 114.672 426.001 115.032C426.124 115.388 426.186 115.812 426.186 116.304V121H424.921V116.331C424.921 116.003 424.885 115.725 424.812 115.497C424.739 115.269 424.632 115.085 424.491 114.943C424.345 114.802 424.167 114.7 423.957 114.636C423.752 114.572 423.515 114.54 423.246 114.54C423.014 114.54 422.798 114.574 422.597 114.643C422.397 114.706 422.212 114.795 422.043 114.909C421.907 115.009 421.779 115.126 421.661 115.258C421.547 115.39 421.446 115.536 421.36 115.695V121H420.095ZM357.857 135.854H356.723L360.879 125.047H362.007L357.857 135.854ZM369.387 132.484C369.387 132.179 369.316 131.922 369.175 131.712C369.038 131.502 368.86 131.325 368.642 131.179C368.423 131.037 368.181 130.919 367.917 130.823C367.657 130.728 367.406 130.641 367.165 130.563C366.814 130.45 366.456 130.313 366.092 130.153C365.732 129.989 365.404 129.793 365.107 129.565C364.807 129.333 364.56 129.06 364.369 128.745C364.182 128.426 364.089 128.052 364.089 127.624C364.089 127.196 364.182 126.813 364.369 126.476C364.56 126.138 364.809 125.854 365.114 125.621C365.42 125.389 365.766 125.213 366.153 125.095C366.541 124.972 366.93 124.91 367.322 124.91C367.755 124.91 368.172 124.983 368.573 125.129C368.974 125.27 369.33 125.471 369.64 125.73C369.949 125.99 370.198 126.305 370.385 126.674C370.572 127.043 370.67 127.455 370.679 127.911H369.38C369.343 127.624 369.273 127.364 369.168 127.132C369.063 126.895 368.924 126.692 368.751 126.523C368.578 126.355 368.37 126.225 368.129 126.134C367.892 126.038 367.623 125.99 367.322 125.99C367.081 125.99 366.844 126.024 366.611 126.093C366.383 126.161 366.181 126.264 366.003 126.4C365.821 126.537 365.675 126.706 365.565 126.906C365.461 127.107 365.408 127.339 365.408 127.604C365.413 127.891 365.486 128.134 365.627 128.335C365.768 128.531 365.948 128.697 366.167 128.834C366.381 128.971 366.614 129.085 366.864 129.176C367.119 129.267 367.359 129.347 367.582 129.415C367.951 129.529 368.32 129.668 368.689 129.832C369.059 129.992 369.396 130.197 369.701 130.447C370.002 130.68 370.243 130.965 370.426 131.302C370.613 131.639 370.706 132.029 370.706 132.471C370.706 132.917 370.606 133.307 370.405 133.64C370.209 133.972 369.954 134.248 369.64 134.467C369.325 134.69 368.97 134.859 368.573 134.973C368.177 135.082 367.78 135.137 367.384 135.137C366.91 135.137 366.443 135.057 365.982 134.897C365.527 134.738 365.13 134.508 364.793 134.207C364.492 133.947 364.253 133.644 364.075 133.298C363.902 132.947 363.809 132.557 363.795 132.129H365.087C365.128 132.439 365.212 132.715 365.34 132.956C365.467 133.193 365.631 133.394 365.832 133.558C366.032 133.726 366.263 133.854 366.522 133.94C366.787 134.022 367.074 134.063 367.384 134.063C367.63 134.063 367.871 134.034 368.108 133.975C368.35 133.911 368.564 133.813 368.751 133.681C368.938 133.553 369.09 133.391 369.209 133.195C369.327 132.995 369.387 132.758 369.387 132.484ZM372.364 127.604H376.144V133.906H378.557V135H372.364V133.906H374.88V128.704H372.364V127.604ZM374.716 125.662C374.716 125.553 374.732 125.45 374.764 125.354C374.8 125.259 374.855 125.177 374.928 125.108C374.987 125.049 375.062 125.004 375.153 124.972C375.249 124.935 375.356 124.917 375.474 124.917C375.593 124.917 375.698 124.935 375.789 124.972C375.88 125.004 375.955 125.049 376.014 125.108C376.087 125.172 376.142 125.252 376.179 125.348C376.215 125.443 376.233 125.548 376.233 125.662C376.233 125.867 376.169 126.038 376.042 126.175C375.914 126.312 375.725 126.38 375.474 126.38C375.219 126.38 375.028 126.312 374.9 126.175C374.777 126.038 374.716 125.867 374.716 125.662ZM381.672 133.968H386.382V135H380.058V134.07L384.474 128.649H380.12V127.604H386.136V128.499L381.672 133.968ZM391.41 135.137C390.89 135.137 390.412 135.048 389.974 134.87C389.541 134.692 389.17 134.444 388.86 134.125C388.55 133.806 388.309 133.428 388.135 132.99C387.962 132.553 387.876 132.076 387.876 131.562V131.274C387.876 130.677 387.971 130.144 388.163 129.675C388.354 129.201 388.609 128.8 388.928 128.472C389.243 128.148 389.601 127.9 390.002 127.727C390.407 127.553 390.822 127.467 391.246 127.467C391.779 127.467 392.244 127.56 392.64 127.747C393.041 127.929 393.374 128.182 393.638 128.506C393.903 128.834 394.099 129.219 394.226 129.661C394.358 130.103 394.424 130.582 394.424 131.097V131.664H389.14V131.712C389.172 132.072 389.243 132.389 389.352 132.662C389.466 132.936 389.621 133.177 389.817 133.387C390.018 133.61 390.259 133.785 390.542 133.913C390.824 134.041 391.136 134.104 391.478 134.104C391.929 134.104 392.33 134.013 392.681 133.831C393.032 133.649 393.324 133.407 393.556 133.106L394.329 133.708C394.083 134.082 393.714 134.414 393.221 134.706C392.734 134.993 392.13 135.137 391.41 135.137ZM391.246 128.506C390.991 128.506 390.749 128.554 390.521 128.649C390.293 128.741 390.088 128.875 389.906 129.053C389.724 129.235 389.569 129.458 389.441 129.723C389.318 129.982 389.231 130.283 389.181 130.625H393.16V130.563C393.16 130.336 393.117 130.092 393.03 129.832C392.943 129.568 392.823 129.34 392.668 129.148C392.513 128.957 392.317 128.802 392.08 128.684C391.847 128.565 391.569 128.506 391.246 128.506ZM409.328 132.484C409.328 132.179 409.257 131.922 409.116 131.712C408.979 131.502 408.801 131.325 408.583 131.179C408.364 131.037 408.122 130.919 407.858 130.823C407.598 130.728 407.348 130.641 407.106 130.563C406.755 130.45 406.397 130.313 406.033 130.153C405.673 129.989 405.345 129.793 405.048 129.565C404.748 129.333 404.501 129.06 404.31 128.745C404.123 128.426 404.03 128.052 404.03 127.624C404.03 127.196 404.123 126.813 404.31 126.476C404.501 126.138 404.75 125.854 405.055 125.621C405.361 125.389 405.707 125.213 406.094 125.095C406.482 124.972 406.871 124.91 407.263 124.91C407.696 124.91 408.113 124.983 408.514 125.129C408.915 125.27 409.271 125.471 409.581 125.73C409.89 125.99 410.139 126.305 410.326 126.674C410.513 127.043 410.611 127.455 410.62 127.911H409.321C409.284 127.624 409.214 127.364 409.109 127.132C409.004 126.895 408.865 126.692 408.692 126.523C408.519 126.355 408.311 126.225 408.07 126.134C407.833 126.038 407.564 125.99 407.263 125.99C407.022 125.99 406.785 126.024 406.552 126.093C406.324 126.161 406.122 126.264 405.944 126.4C405.762 126.537 405.616 126.706 405.506 126.906C405.402 127.107 405.349 127.339 405.349 127.604C405.354 127.891 405.427 128.134 405.568 128.335C405.709 128.531 405.889 128.697 406.108 128.834C406.322 128.971 406.555 129.085 406.805 129.176C407.06 129.267 407.3 129.347 407.523 129.415C407.892 129.529 408.261 129.668 408.63 129.832C409 129.992 409.337 130.197 409.642 130.447C409.943 130.68 410.184 130.965 410.367 131.302C410.554 131.639 410.647 132.029 410.647 132.471C410.647 132.917 410.547 133.307 410.346 133.64C410.15 133.972 409.895 134.248 409.581 134.467C409.266 134.69 408.911 134.859 408.514 134.973C408.118 135.082 407.721 135.137 407.325 135.137C406.851 135.137 406.384 135.057 405.923 134.897C405.468 134.738 405.071 134.508 404.734 134.207C404.433 133.947 404.194 133.644 404.016 133.298C403.843 132.947 403.75 132.557 403.736 132.129H405.028C405.069 132.439 405.153 132.715 405.281 132.956C405.408 133.193 405.572 133.394 405.773 133.558C405.973 133.726 406.204 133.854 406.463 133.94C406.728 134.022 407.015 134.063 407.325 134.063C407.571 134.063 407.812 134.034 408.049 133.975C408.291 133.911 408.505 133.813 408.692 133.681C408.879 133.553 409.031 133.391 409.15 133.195C409.268 132.995 409.328 132.758 409.328 132.484ZM357.857 149.854H356.723L360.879 139.047H362.007L357.857 149.854ZM369.715 144.604H365.572V149H364.294V139.047H370.405V140.127H365.572V143.531H369.715V144.604ZM371.81 145.233C371.81 144.7 371.888 144.206 372.043 143.75C372.198 143.29 372.421 142.891 372.713 142.554C373 142.216 373.351 141.952 373.765 141.761C374.18 141.565 374.647 141.467 375.167 141.467C375.691 141.467 376.16 141.565 376.575 141.761C376.994 141.952 377.35 142.216 377.641 142.554C377.929 142.891 378.15 143.29 378.305 143.75C378.459 144.206 378.537 144.7 378.537 145.233V145.384C378.537 145.917 378.459 146.411 378.305 146.867C378.15 147.323 377.929 147.719 377.641 148.057C377.35 148.394 376.997 148.658 376.582 148.85C376.167 149.041 375.7 149.137 375.181 149.137C374.656 149.137 374.185 149.041 373.765 148.85C373.351 148.658 373 148.394 372.713 148.057C372.421 147.719 372.198 147.323 372.043 146.867C371.888 146.411 371.81 145.917 371.81 145.384V145.233ZM373.075 145.384C373.075 145.748 373.118 146.097 373.205 146.43C373.292 146.758 373.424 147.047 373.601 147.298C373.775 147.549 373.993 147.747 374.258 147.893C374.522 148.038 374.83 148.111 375.181 148.111C375.527 148.111 375.83 148.038 376.09 147.893C376.354 147.747 376.575 147.549 376.753 147.298C376.926 147.047 377.056 146.758 377.142 146.43C377.229 146.097 377.272 145.748 377.272 145.384V145.233C377.272 144.873 377.227 144.529 377.136 144.201C377.049 143.868 376.919 143.577 376.746 143.326C376.568 143.076 376.347 142.877 376.083 142.731C375.823 142.581 375.518 142.506 375.167 142.506C374.816 142.506 374.511 142.581 374.251 142.731C373.991 142.877 373.775 143.076 373.601 143.326C373.424 143.577 373.292 143.868 373.205 144.201C373.118 144.529 373.075 144.873 373.075 145.233V145.384ZM383.305 148.111C383.533 148.111 383.754 148.075 383.969 148.002C384.187 147.929 384.381 147.826 384.55 147.694C384.718 147.567 384.853 147.416 384.953 147.243C385.058 147.065 385.112 146.874 385.117 146.669H386.313C386.309 146.997 386.222 147.312 386.053 147.612C385.889 147.909 385.668 148.168 385.39 148.392C385.112 148.619 384.793 148.802 384.433 148.938C384.073 149.071 383.697 149.137 383.305 149.137C382.745 149.137 382.255 149.036 381.836 148.836C381.416 148.635 381.068 148.364 380.79 148.022C380.507 147.685 380.295 147.296 380.154 146.854C380.013 146.407 379.942 145.938 379.942 145.445V145.158C379.942 144.671 380.013 144.203 380.154 143.757C380.295 143.31 380.507 142.916 380.79 142.574C381.068 142.237 381.416 141.968 381.836 141.768C382.255 141.567 382.745 141.467 383.305 141.467C383.743 141.467 384.144 141.537 384.509 141.679C384.878 141.815 385.197 142.002 385.466 142.239C385.73 142.481 385.937 142.766 386.088 143.094C386.238 143.422 386.313 143.773 386.313 144.146H385.117C385.112 143.923 385.062 143.714 384.967 143.518C384.875 143.317 384.75 143.142 384.591 142.991C384.431 142.841 384.24 142.722 384.016 142.636C383.798 142.549 383.561 142.506 383.305 142.506C382.914 142.506 382.583 142.586 382.314 142.745C382.05 142.9 381.836 143.103 381.672 143.354C381.508 143.609 381.389 143.894 381.316 144.208C381.248 144.522 381.214 144.839 381.214 145.158V145.445C381.214 145.769 381.248 146.09 381.316 146.409C381.389 146.724 381.508 147.006 381.672 147.257C381.831 147.512 382.043 147.719 382.307 147.879C382.576 148.034 382.909 148.111 383.305 148.111ZM393.016 149L392.941 147.981C392.695 148.346 392.387 148.631 392.018 148.836C391.649 149.036 391.223 149.137 390.74 149.137C390.353 149.137 390.002 149.077 389.687 148.959C389.373 148.836 389.104 148.647 388.881 148.392C388.657 148.136 388.484 147.813 388.361 147.421C388.243 147.024 388.183 146.55 388.183 145.999V141.604H389.448V146.013C389.448 146.414 389.48 146.746 389.544 147.011C389.607 147.275 389.703 147.485 389.831 147.64C389.958 147.799 390.113 147.911 390.296 147.975C390.482 148.038 390.697 148.07 390.938 148.07C391.221 148.07 391.474 148.038 391.697 147.975C391.92 147.906 392.114 147.813 392.278 147.694C392.415 147.599 392.533 147.485 392.633 147.353C392.738 147.216 392.825 147.068 392.893 146.908V141.604H394.165V149H393.016ZM401.046 147.038C401.046 146.888 401.016 146.753 400.957 146.635C400.897 146.512 400.797 146.4 400.656 146.3C400.515 146.2 400.328 146.108 400.095 146.026C399.863 145.94 399.574 145.862 399.227 145.794C398.803 145.707 398.416 145.603 398.065 145.479C397.719 145.356 397.422 145.208 397.176 145.035C396.926 144.867 396.732 144.668 396.595 144.44C396.459 144.208 396.39 143.939 396.39 143.634C396.39 143.333 396.461 143.053 396.602 142.793C396.743 142.529 396.942 142.299 397.197 142.103C397.452 141.907 397.755 141.752 398.106 141.638C398.462 141.524 398.851 141.467 399.275 141.467C399.731 141.467 400.141 141.526 400.505 141.645C400.87 141.763 401.18 141.927 401.435 142.137C401.69 142.346 401.886 142.592 402.023 142.875C402.164 143.153 402.235 143.454 402.235 143.777H400.97C400.97 143.618 400.929 143.463 400.847 143.312C400.765 143.158 400.651 143.021 400.505 142.902C400.36 142.784 400.182 142.688 399.972 142.615C399.767 142.542 399.535 142.506 399.275 142.506C399.006 142.506 398.769 142.535 398.564 142.595C398.364 142.654 398.197 142.734 398.065 142.834C397.928 142.934 397.826 143.05 397.757 143.183C397.689 143.315 397.655 143.451 397.655 143.593C397.655 143.739 397.682 143.868 397.737 143.982C397.792 144.096 397.887 144.199 398.024 144.29C398.156 144.381 398.334 144.463 398.557 144.536C398.785 144.609 399.072 144.68 399.419 144.748C399.874 144.844 400.282 144.955 400.642 145.083C401.002 145.206 401.305 145.354 401.551 145.527C401.797 145.705 401.984 145.91 402.112 146.143C402.244 146.375 402.31 146.644 402.31 146.949C402.31 147.277 402.235 147.576 402.085 147.845C401.939 148.114 401.734 148.344 401.469 148.535C401.205 148.727 400.888 148.875 400.519 148.979C400.15 149.084 399.747 149.137 399.309 149.137C398.808 149.137 398.361 149.071 397.969 148.938C397.577 148.802 397.247 148.622 396.978 148.398C396.705 148.18 396.495 147.924 396.349 147.633C396.208 147.341 396.137 147.038 396.137 146.724H397.402C397.42 146.983 397.489 147.202 397.607 147.38C397.73 147.558 397.883 147.701 398.065 147.811C398.243 147.92 398.441 147.997 398.66 148.043C398.879 148.089 399.095 148.111 399.309 148.111C399.646 148.111 399.94 148.073 400.191 147.995C400.442 147.913 400.638 147.801 400.779 147.66C400.865 147.574 400.932 147.478 400.977 147.373C401.023 147.268 401.046 147.157 401.046 147.038Z" fill="#6B6B6B"/>
<path d="M424 133L460 133" stroke="#6B6B6B" stroke-width="1.2" stroke-dasharray="2 2"/>
<defs>
<clipPath id="clip0_2281_5148">
<rect x="460" y="70" width="37" height="140" rx="4" fill="white"/>
</clipPath>
</defs>
</svg>
