<svg width="908" height="156" viewBox="0 0 908 156" fill="none" xmlns="http://www.w3.org/2000/svg">
<rect width="907" height="156" transform="translate(0.5)" fill="white"/>
<rect width="177" height="66" transform="translate(319 38)" fill="#F7F7F7"/>
<path d="M339 62C339 59.7909 340.791 58 343 58H372C374.209 58 376 59.7909 376 62V80C376 82.2091 374.209 84 372 84H343C340.791 84 339 82.2091 339 80V62Z" fill="white"/>
<path d="M356.21 76.056H354.88L353.718 73.186H348.958L347.768 76.056H346.438L350.652 65.836H352.066L356.21 76.056ZM353.284 72.108L351.352 67.376L349.392 72.108H353.284ZM359.143 68.09V76.056H357.911V65.836H359.199L363.021 72.206L366.843 65.836H368.145V76.056H366.913V68.076L363.021 74.376L359.143 68.09Z" fill="#6B6B6B"/>
<path d="M384 62C384 59.7909 385.791 58 388 58H417C419.209 58 421 59.7909 421 62V80C421 82.2091 419.209 84 417 84H388C385.791 84 384 82.2091 384 80V62Z" fill="white"/>
<path d="M397.056 75.896C397.6 75.896 398.085 75.6987 398.512 75.304C398.939 74.9093 399.269 74.36 399.504 73.656C399.749 72.9413 399.872 72.1307 399.872 71.224C399.872 70.3173 399.749 69.512 399.504 68.808C399.269 68.104 398.939 67.5547 398.512 67.16C398.085 66.7653 397.6 66.568 397.056 66.568C396.501 66.568 396.011 66.7653 395.584 67.16C395.157 67.5547 394.821 68.104 394.576 68.808C394.341 69.512 394.224 70.3173 394.224 71.224C394.224 72.1307 394.341 72.9413 394.576 73.656C394.821 74.36 395.157 74.9093 395.584 75.304C396.011 75.6987 396.501 75.896 397.056 75.896ZM392.816 71.224C392.816 70.0827 392.997 69.064 393.36 68.168C393.723 67.272 394.224 66.5733 394.864 66.072C395.504 65.5707 396.235 65.32 397.056 65.32C397.877 65.32 398.608 65.5707 399.248 66.072C399.888 66.5733 400.384 67.272 400.736 68.168C401.099 69.064 401.28 70.0827 401.28 71.224C401.28 72.3653 401.099 73.384 400.736 74.28C400.384 75.176 399.888 75.8747 399.248 76.376C398.608 76.8773 397.877 77.128 397.056 77.128C396.235 77.128 395.504 76.8773 394.864 76.376C394.224 75.8747 393.723 75.176 393.36 74.28C392.997 73.384 392.816 72.3653 392.816 71.224ZM407.005 75.896C407.549 75.896 408.035 75.6987 408.461 75.304C408.888 74.9093 409.219 74.36 409.453 73.656C409.699 72.9413 409.821 72.1307 409.821 71.224C409.821 70.3173 409.699 69.512 409.453 68.808C409.219 68.104 408.888 67.5547 408.461 67.16C408.035 66.7653 407.549 66.568 407.005 66.568C406.451 66.568 405.96 66.7653 405.533 67.16C405.107 67.5547 404.771 68.104 404.525 68.808C404.291 69.512 404.173 70.3173 404.173 71.224C404.173 72.1307 404.291 72.9413 404.525 73.656C404.771 74.36 405.107 74.9093 405.533 75.304C405.96 75.6987 406.451 75.896 407.005 75.896ZM402.765 71.224C402.765 70.0827 402.947 69.064 403.309 68.168C403.672 67.272 404.173 66.5733 404.813 66.072C405.453 65.5707 406.184 65.32 407.005 65.32C407.827 65.32 408.557 65.5707 409.197 66.072C409.837 66.5733 410.333 67.272 410.685 68.168C411.048 69.064 411.229 70.0827 411.229 71.224C411.229 72.3653 411.048 73.384 410.685 74.28C410.333 75.176 409.837 75.8747 409.197 76.376C408.557 76.8773 407.827 77.128 407.005 77.128C406.184 77.128 405.453 76.8773 404.813 76.376C404.173 75.8747 403.672 75.176 403.309 74.28C402.947 73.384 402.765 72.3653 402.765 71.224Z" fill="#6B6B6B"/>
<path d="M430.01 66.5C430.592 66.5 431 66.9305 431 67.5456C431 68.1606 430.592 68.5911 430.01 68.5911C429.427 68.5911 429 68.1606 429 67.5456C429 66.9305 429.427 66.5 430.01 66.5ZM429 74.4339C429 73.8189 429.427 73.3884 430.01 73.3884C430.592 73.3884 431 73.8189 431 74.4339C431 75.049 430.592 75.5 430.01 75.5C429.427 75.5 429 75.049 429 74.4339Z" fill="#8F8F8F"/>
<path d="M439 62C439 59.7909 440.791 58 443 58H472C474.209 58 476 59.7909 476 62V80C476 82.2091 474.209 84 472 84H443C440.791 84 439 82.2091 439 80V62Z" fill="white"/>
<path d="M452.056 75.896C452.6 75.896 453.085 75.6987 453.512 75.304C453.939 74.9093 454.269 74.36 454.504 73.656C454.749 72.9413 454.872 72.1307 454.872 71.224C454.872 70.3173 454.749 69.512 454.504 68.808C454.269 68.104 453.939 67.5547 453.512 67.16C453.085 66.7653 452.6 66.568 452.056 66.568C451.501 66.568 451.011 66.7653 450.584 67.16C450.157 67.5547 449.821 68.104 449.576 68.808C449.341 69.512 449.224 70.3173 449.224 71.224C449.224 72.1307 449.341 72.9413 449.576 73.656C449.821 74.36 450.157 74.9093 450.584 75.304C451.011 75.6987 451.501 75.896 452.056 75.896ZM447.816 71.224C447.816 70.0827 447.997 69.064 448.36 68.168C448.723 67.272 449.224 66.5733 449.864 66.072C450.504 65.5707 451.235 65.32 452.056 65.32C452.877 65.32 453.608 65.5707 454.248 66.072C454.888 66.5733 455.384 67.272 455.736 68.168C456.099 69.064 456.28 70.0827 456.28 71.224C456.28 72.3653 456.099 73.384 455.736 74.28C455.384 75.176 454.888 75.8747 454.248 76.376C453.608 76.8773 452.877 77.128 452.056 77.128C451.235 77.128 450.504 76.8773 449.864 76.376C449.224 75.8747 448.723 75.176 448.36 74.28C447.997 73.384 447.816 72.3653 447.816 71.224ZM462.005 75.896C462.549 75.896 463.035 75.6987 463.461 75.304C463.888 74.9093 464.219 74.36 464.453 73.656C464.699 72.9413 464.821 72.1307 464.821 71.224C464.821 70.3173 464.699 69.512 464.453 68.808C464.219 68.104 463.888 67.5547 463.461 67.16C463.035 66.7653 462.549 66.568 462.005 66.568C461.451 66.568 460.96 66.7653 460.533 67.16C460.107 67.5547 459.771 68.104 459.525 68.808C459.291 69.512 459.173 70.3173 459.173 71.224C459.173 72.1307 459.291 72.9413 459.525 73.656C459.771 74.36 460.107 74.9093 460.533 75.304C460.96 75.6987 461.451 75.896 462.005 75.896ZM457.765 71.224C457.765 70.0827 457.947 69.064 458.309 68.168C458.672 67.272 459.173 66.5733 459.813 66.072C460.453 65.5707 461.184 65.32 462.005 65.32C462.827 65.32 463.557 65.5707 464.197 66.072C464.837 66.5733 465.333 67.272 465.685 68.168C466.048 69.064 466.229 70.0827 466.229 71.224C466.229 72.3653 466.048 73.384 465.685 74.28C465.333 75.176 464.837 75.8747 464.197 76.376C463.557 76.8773 462.827 77.128 462.005 77.128C461.184 77.128 460.453 76.8773 459.813 76.376C459.173 75.8747 458.672 75.176 458.309 74.28C457.947 73.384 457.765 72.3653 457.765 71.224Z" fill="#6B6B6B"/>
<path d="M520 62C520 59.7909 521.791 58 524 58H553C555.209 58 557 59.7909 557 62V80C557 82.2091 555.209 84 553 84H524C521.791 84 520 82.2091 520 80V62Z" fill="#F7F7F7"/>
<path d="M537.21 76.056H535.88L534.718 73.186H529.958L528.768 76.056H527.438L531.652 65.836H533.066L537.21 76.056ZM534.284 72.108L532.352 67.376L530.392 72.108H534.284ZM540.143 68.09V76.056H538.911V65.836H540.199L544.021 72.206L547.843 65.836H549.145V76.056H547.913V68.076L544.021 74.376L540.143 68.09Z" fill="#6B6B6B"/>
<path d="M565 62C565 59.7909 566.791 58 569 58H598C600.209 58 602 59.7909 602 62V80C602 82.2091 600.209 84 598 84H569C566.791 84 565 82.2091 565 80V62Z" fill="#F7F7F7"/>
<path d="M578.056 75.896C578.6 75.896 579.085 75.6987 579.512 75.304C579.939 74.9093 580.269 74.36 580.504 73.656C580.749 72.9413 580.872 72.1307 580.872 71.224C580.872 70.3173 580.749 69.512 580.504 68.808C580.269 68.104 579.939 67.5547 579.512 67.16C579.085 66.7653 578.6 66.568 578.056 66.568C577.501 66.568 577.011 66.7653 576.584 67.16C576.157 67.5547 575.821 68.104 575.576 68.808C575.341 69.512 575.224 70.3173 575.224 71.224C575.224 72.1307 575.341 72.9413 575.576 73.656C575.821 74.36 576.157 74.9093 576.584 75.304C577.011 75.6987 577.501 75.896 578.056 75.896ZM573.816 71.224C573.816 70.0827 573.997 69.064 574.36 68.168C574.723 67.272 575.224 66.5733 575.864 66.072C576.504 65.5707 577.235 65.32 578.056 65.32C578.877 65.32 579.608 65.5707 580.248 66.072C580.888 66.5733 581.384 67.272 581.736 68.168C582.099 69.064 582.28 70.0827 582.28 71.224C582.28 72.3653 582.099 73.384 581.736 74.28C581.384 75.176 580.888 75.8747 580.248 76.376C579.608 76.8773 578.877 77.128 578.056 77.128C577.235 77.128 576.504 76.8773 575.864 76.376C575.224 75.8747 574.723 75.176 574.36 74.28C573.997 73.384 573.816 72.3653 573.816 71.224ZM588.005 75.896C588.549 75.896 589.035 75.6987 589.461 75.304C589.888 74.9093 590.219 74.36 590.453 73.656C590.699 72.9413 590.821 72.1307 590.821 71.224C590.821 70.3173 590.699 69.512 590.453 68.808C590.219 68.104 589.888 67.5547 589.461 67.16C589.035 66.7653 588.549 66.568 588.005 66.568C587.451 66.568 586.96 66.7653 586.533 67.16C586.107 67.5547 585.771 68.104 585.525 68.808C585.291 69.512 585.173 70.3173 585.173 71.224C585.173 72.1307 585.291 72.9413 585.525 73.656C585.771 74.36 586.107 74.9093 586.533 75.304C586.96 75.6987 587.451 75.896 588.005 75.896ZM583.765 71.224C583.765 70.0827 583.947 69.064 584.309 68.168C584.672 67.272 585.173 66.5733 585.813 66.072C586.453 65.5707 587.184 65.32 588.005 65.32C588.827 65.32 589.557 65.5707 590.197 66.072C590.837 66.5733 591.333 67.272 591.685 68.168C592.048 69.064 592.229 70.0827 592.229 71.224C592.229 72.3653 592.048 73.384 591.685 74.28C591.333 75.176 590.837 75.8747 590.197 76.376C589.557 76.8773 588.827 77.128 588.005 77.128C587.184 77.128 586.453 76.8773 585.813 76.376C585.173 75.8747 584.672 75.176 584.309 74.28C583.947 73.384 583.765 72.3653 583.765 71.224Z" fill="#6B6B6B"/>
<path d="M611.01 66.5C611.592 66.5 612 66.9305 612 67.5456C612 68.1606 611.592 68.5911 611.01 68.5911C610.427 68.5911 610 68.1606 610 67.5456C610 66.9305 610.427 66.5 611.01 66.5ZM610 74.4339C610 73.8189 610.427 73.3884 611.01 73.3884C611.592 73.3884 612 73.8189 612 74.4339C612 75.049 611.592 75.5 611.01 75.5C610.427 75.5 610 75.049 610 74.4339Z" fill="#8F8F8F"/>
<path d="M620 62C620 59.7909 621.791 58 624 58H653C655.209 58 657 59.7909 657 62V80C657 82.2091 655.209 84 653 84H624C621.791 84 620 82.2091 620 80V62Z" fill="#F7F7F7"/>
<path d="M633.056 75.896C633.6 75.896 634.085 75.6987 634.512 75.304C634.939 74.9093 635.269 74.36 635.504 73.656C635.749 72.9413 635.872 72.1307 635.872 71.224C635.872 70.3173 635.749 69.512 635.504 68.808C635.269 68.104 634.939 67.5547 634.512 67.16C634.085 66.7653 633.6 66.568 633.056 66.568C632.501 66.568 632.011 66.7653 631.584 67.16C631.157 67.5547 630.821 68.104 630.576 68.808C630.341 69.512 630.224 70.3173 630.224 71.224C630.224 72.1307 630.341 72.9413 630.576 73.656C630.821 74.36 631.157 74.9093 631.584 75.304C632.011 75.6987 632.501 75.896 633.056 75.896ZM628.816 71.224C628.816 70.0827 628.997 69.064 629.36 68.168C629.723 67.272 630.224 66.5733 630.864 66.072C631.504 65.5707 632.235 65.32 633.056 65.32C633.877 65.32 634.608 65.5707 635.248 66.072C635.888 66.5733 636.384 67.272 636.736 68.168C637.099 69.064 637.28 70.0827 637.28 71.224C637.28 72.3653 637.099 73.384 636.736 74.28C636.384 75.176 635.888 75.8747 635.248 76.376C634.608 76.8773 633.877 77.128 633.056 77.128C632.235 77.128 631.504 76.8773 630.864 76.376C630.224 75.8747 629.723 75.176 629.36 74.28C628.997 73.384 628.816 72.3653 628.816 71.224ZM643.005 75.896C643.549 75.896 644.035 75.6987 644.461 75.304C644.888 74.9093 645.219 74.36 645.453 73.656C645.699 72.9413 645.821 72.1307 645.821 71.224C645.821 70.3173 645.699 69.512 645.453 68.808C645.219 68.104 644.888 67.5547 644.461 67.16C644.035 66.7653 643.549 66.568 643.005 66.568C642.451 66.568 641.96 66.7653 641.533 67.16C641.107 67.5547 640.771 68.104 640.525 68.808C640.291 69.512 640.173 70.3173 640.173 71.224C640.173 72.1307 640.291 72.9413 640.525 73.656C640.771 74.36 641.107 74.9093 641.533 75.304C641.96 75.6987 642.451 75.896 643.005 75.896ZM638.765 71.224C638.765 70.0827 638.947 69.064 639.309 68.168C639.672 67.272 640.173 66.5733 640.813 66.072C641.453 65.5707 642.184 65.32 643.005 65.32C643.827 65.32 644.557 65.5707 645.197 66.072C645.837 66.5733 646.333 67.272 646.685 68.168C647.048 69.064 647.229 70.0827 647.229 71.224C647.229 72.3653 647.048 73.384 646.685 74.28C646.333 75.176 645.837 75.8747 645.197 76.376C644.557 76.8773 643.827 77.128 643.005 77.128C642.184 77.128 641.453 76.8773 640.813 76.376C640.173 75.8747 639.672 75.176 639.309 74.28C638.947 73.384 638.765 72.3653 638.765 71.224Z" fill="#6B6B6B"/>
<path d="M620 58L612 58" stroke="#6B6B6B" stroke-width="1.2"/>
<path d="M610 58L602 58" stroke="#6B6B6B" stroke-width="1.2"/>
<path d="M565 58L557 58" stroke="#6B6B6B" stroke-width="1.2"/>
<path d="M602.172 46.964C602.76 46.964 603.236 46.796 603.6 46.46C603.973 46.1147 604.16 45.6713 604.16 45.13C604.16 44.5887 603.973 44.15 603.6 43.814C603.236 43.4687 602.76 43.296 602.172 43.296C601.575 43.296 601.089 43.4687 600.716 43.814C600.343 44.15 600.156 44.5887 600.156 45.13C600.156 45.6713 600.343 46.1147 600.716 46.46C601.089 46.796 601.575 46.964 602.172 46.964ZM598.7 45.158C598.7 44.7007 598.859 44.2433 599.176 43.786C599.493 43.3193 599.899 42.9507 600.394 42.68C599.983 42.4 599.647 42.0547 599.386 41.644C599.125 41.2333 598.994 40.846 598.994 40.482C598.994 39.9407 599.129 39.46 599.4 39.04C599.671 38.6107 600.044 38.2793 600.52 38.046C601.005 37.8033 601.556 37.682 602.172 37.682C602.788 37.682 603.334 37.8033 603.81 38.046C604.295 38.2793 604.673 38.6107 604.944 39.04C605.215 39.46 605.35 39.9407 605.35 40.482C605.35 40.8553 605.219 41.2473 604.958 41.658C604.697 42.0687 604.361 42.4093 603.95 42.68C604.445 42.96 604.846 43.3287 605.154 43.786C605.462 44.2433 605.616 44.7007 605.616 45.158C605.616 45.746 605.471 46.2733 605.182 46.74C604.893 47.1973 604.487 47.5567 603.964 47.818C603.441 48.07 602.844 48.196 602.172 48.196C601.5 48.196 600.898 48.07 600.366 47.818C599.843 47.5567 599.433 47.1973 599.134 46.74C598.845 46.2733 598.7 45.746 598.7 45.158ZM600.45 40.482C600.45 40.9487 600.609 41.3267 600.926 41.616C601.243 41.9053 601.659 42.05 602.172 42.05C602.676 42.05 603.087 41.9053 603.404 41.616C603.731 41.3173 603.894 40.9393 603.894 40.482C603.894 40.0247 603.731 39.6513 603.404 39.362C603.087 39.0633 602.676 38.914 602.172 38.914C601.659 38.914 601.243 39.0587 600.926 39.348C600.609 39.6373 600.45 40.0153 600.45 40.482ZM610.933 46.964C611.558 46.964 612.067 46.7353 612.459 46.278C612.851 45.8113 613.047 45.2047 613.047 44.458C613.047 43.7207 612.851 43.1233 612.459 42.666C612.067 42.2087 611.558 41.98 610.933 41.98C610.541 41.98 610.177 42.092 609.841 42.316C609.505 42.54 609.239 42.8433 609.043 43.226C608.847 43.5993 608.749 44.01 608.749 44.458C608.749 44.9153 608.847 45.3353 609.043 45.718C609.239 46.1007 609.505 46.404 609.841 46.628C610.177 46.852 610.541 46.964 610.933 46.964ZM607.279 40.776H608.735V42.036C608.987 41.616 609.337 41.3033 609.785 41.098C610.233 40.8833 610.644 40.776 611.017 40.776C611.698 40.776 612.3 40.9347 612.823 41.252C613.355 41.56 613.766 41.994 614.055 42.554C614.354 43.1047 614.503 43.7393 614.503 44.458C614.503 45.1767 614.354 45.8207 614.055 46.39C613.766 46.95 613.355 47.3887 612.823 47.706C612.3 48.014 611.698 48.168 611.017 48.168C610.644 48.168 610.233 48.0607 609.785 47.846C609.337 47.622 608.987 47.3 608.735 46.88V51.234H607.279V40.776ZM619.646 44.444L622.348 48.098H620.542L618.792 45.62L617.056 48.098H615.25L617.91 44.444L615.194 40.776H617.014L618.792 43.324L620.556 40.776H622.376L619.646 44.444Z" fill="#6B6B6B"/>
<path d="M553.172 46.964C553.76 46.964 554.236 46.796 554.6 46.46C554.973 46.1147 555.16 45.6713 555.16 45.13C555.16 44.5887 554.973 44.15 554.6 43.814C554.236 43.4687 553.76 43.296 553.172 43.296C552.575 43.296 552.089 43.4687 551.716 43.814C551.343 44.15 551.156 44.5887 551.156 45.13C551.156 45.6713 551.343 46.1147 551.716 46.46C552.089 46.796 552.575 46.964 553.172 46.964ZM549.7 45.158C549.7 44.7007 549.859 44.2433 550.176 43.786C550.493 43.3193 550.899 42.9507 551.394 42.68C550.983 42.4 550.647 42.0547 550.386 41.644C550.125 41.2333 549.994 40.846 549.994 40.482C549.994 39.9407 550.129 39.46 550.4 39.04C550.671 38.6107 551.044 38.2793 551.52 38.046C552.005 37.8033 552.556 37.682 553.172 37.682C553.788 37.682 554.334 37.8033 554.81 38.046C555.295 38.2793 555.673 38.6107 555.944 39.04C556.215 39.46 556.35 39.9407 556.35 40.482C556.35 40.8553 556.219 41.2473 555.958 41.658C555.697 42.0687 555.361 42.4093 554.95 42.68C555.445 42.96 555.846 43.3287 556.154 43.786C556.462 44.2433 556.616 44.7007 556.616 45.158C556.616 45.746 556.471 46.2733 556.182 46.74C555.893 47.1973 555.487 47.5567 554.964 47.818C554.441 48.07 553.844 48.196 553.172 48.196C552.5 48.196 551.898 48.07 551.366 47.818C550.843 47.5567 550.433 47.1973 550.134 46.74C549.845 46.2733 549.7 45.746 549.7 45.158ZM551.45 40.482C551.45 40.9487 551.609 41.3267 551.926 41.616C552.243 41.9053 552.659 42.05 553.172 42.05C553.676 42.05 554.087 41.9053 554.404 41.616C554.731 41.3173 554.894 40.9393 554.894 40.482C554.894 40.0247 554.731 39.6513 554.404 39.362C554.087 39.0633 553.676 38.914 553.172 38.914C552.659 38.914 552.243 39.0587 551.926 39.348C551.609 39.6373 551.45 40.0153 551.45 40.482ZM561.933 46.964C562.558 46.964 563.067 46.7353 563.459 46.278C563.851 45.8113 564.047 45.2047 564.047 44.458C564.047 43.7207 563.851 43.1233 563.459 42.666C563.067 42.2087 562.558 41.98 561.933 41.98C561.541 41.98 561.177 42.092 560.841 42.316C560.505 42.54 560.239 42.8433 560.043 43.226C559.847 43.5993 559.749 44.01 559.749 44.458C559.749 44.9153 559.847 45.3353 560.043 45.718C560.239 46.1007 560.505 46.404 560.841 46.628C561.177 46.852 561.541 46.964 561.933 46.964ZM558.279 40.776H559.735V42.036C559.987 41.616 560.337 41.3033 560.785 41.098C561.233 40.8833 561.644 40.776 562.017 40.776C562.698 40.776 563.3 40.9347 563.823 41.252C564.355 41.56 564.766 41.994 565.055 42.554C565.354 43.1047 565.503 43.7393 565.503 44.458C565.503 45.1767 565.354 45.8207 565.055 46.39C564.766 46.95 564.355 47.3887 563.823 47.706C563.3 48.014 562.698 48.168 562.017 48.168C561.644 48.168 561.233 48.0607 560.785 47.846C560.337 47.622 559.987 47.3 559.735 46.88V51.234H558.279V40.776ZM570.646 44.444L573.348 48.098H571.542L569.792 45.62L568.056 48.098H566.25L568.91 44.444L566.194 40.776H568.014L569.792 43.324L571.556 40.776H573.376L570.646 44.444Z" fill="#6B6B6B"/>
<path d="M251.176 75V65.0469H254.136C254.546 65.0514 254.947 65.1061 255.339 65.2109C255.731 65.3112 256.079 65.4684 256.385 65.6826C256.69 65.8968 256.934 66.1702 257.116 66.5029C257.299 66.8356 257.387 67.2344 257.383 67.6992C257.378 67.959 257.335 68.196 257.253 68.4102C257.175 68.6243 257.068 68.8158 256.932 68.9844C256.79 69.1576 256.633 69.3034 256.46 69.4219C256.291 69.5404 256.086 69.652 255.845 69.7568V69.7773C256.095 69.8366 256.337 69.9437 256.569 70.0986C256.802 70.2536 256.993 70.4245 257.144 70.6113C257.303 70.8164 257.426 71.0465 257.513 71.3018C257.604 71.557 257.649 71.8327 257.649 72.1289C257.654 72.5938 257.565 73.0039 257.383 73.3594C257.201 73.7148 256.957 74.0111 256.651 74.248C256.346 74.4896 255.993 74.6742 255.592 74.8018C255.195 74.9294 254.785 74.9954 254.361 75H251.176ZM252.447 70.3447V73.9268H254.396C254.66 73.9222 254.91 73.8789 255.147 73.7969C255.384 73.7103 255.594 73.5918 255.776 73.4414C255.959 73.291 256.102 73.1064 256.207 72.8877C256.316 72.6689 256.371 72.4206 256.371 72.1426C256.376 71.86 256.328 71.6094 256.228 71.3906C256.132 71.1719 255.997 70.985 255.824 70.8301C255.651 70.6797 255.448 70.5635 255.216 70.4814C254.983 70.3994 254.733 70.3538 254.464 70.3447H252.447ZM252.447 69.292H254.211C254.448 69.2874 254.68 69.251 254.908 69.1826C255.136 69.1097 255.339 69.0049 255.517 68.8682C255.694 68.736 255.838 68.5719 255.947 68.376C256.057 68.18 256.111 67.9521 256.111 67.6924C256.111 67.4144 256.057 67.1774 255.947 66.9814C255.842 66.7855 255.701 66.6237 255.523 66.4961C255.341 66.373 255.132 66.2819 254.895 66.2227C254.662 66.1634 254.423 66.1315 254.177 66.127H252.447V69.292ZM258.822 71.2334C258.822 70.7002 258.9 70.2057 259.055 69.75C259.21 69.2897 259.433 68.891 259.725 68.5537C260.012 68.2165 260.363 67.9521 260.777 67.7607C261.192 67.5648 261.659 67.4668 262.179 67.4668C262.703 67.4668 263.172 67.5648 263.587 67.7607C264.006 67.9521 264.362 68.2165 264.653 68.5537C264.94 68.891 265.161 69.2897 265.316 69.75C265.471 70.2057 265.549 70.7002 265.549 71.2334V71.3838C265.549 71.917 265.471 72.4115 265.316 72.8672C265.161 73.3229 264.94 73.7194 264.653 74.0566C264.362 74.3939 264.008 74.6582 263.594 74.8496C263.179 75.041 262.712 75.1367 262.192 75.1367C261.668 75.1367 261.197 75.041 260.777 74.8496C260.363 74.6582 260.012 74.3939 259.725 74.0566C259.433 73.7194 259.21 73.3229 259.055 72.8672C258.9 72.4115 258.822 71.917 258.822 71.3838V71.2334ZM260.087 71.3838C260.087 71.7484 260.13 72.097 260.217 72.4297C260.303 72.7578 260.435 73.0472 260.613 73.2979C260.786 73.5485 261.005 73.7467 261.269 73.8926C261.534 74.0384 261.841 74.1113 262.192 74.1113C262.539 74.1113 262.842 74.0384 263.101 73.8926C263.366 73.7467 263.587 73.5485 263.765 73.2979C263.938 73.0472 264.068 72.7578 264.154 72.4297C264.241 72.097 264.284 71.7484 264.284 71.3838V71.2334C264.284 70.8734 264.239 70.5293 264.147 70.2012C264.061 69.8685 263.931 69.5768 263.758 69.3262C263.58 69.0755 263.359 68.8773 263.095 68.7314C262.835 68.5811 262.53 68.5059 262.179 68.5059C261.828 68.5059 261.522 68.5811 261.263 68.7314C261.003 68.8773 260.786 69.0755 260.613 69.3262C260.435 69.5768 260.303 69.8685 260.217 70.2012C260.13 70.5293 260.087 70.8734 260.087 71.2334V71.3838ZM266.927 71.2402C266.927 70.6888 266.995 70.1829 267.132 69.7227C267.273 69.2578 267.473 68.859 267.733 68.5264C267.988 68.1937 268.298 67.9339 268.663 67.7471C269.028 67.5602 269.435 67.4668 269.887 67.4668C270.329 67.4668 270.714 67.542 271.042 67.6924C271.375 67.8382 271.662 68.0524 271.903 68.335V64.5H273.168V75H272.006L271.951 74.2207C271.705 74.5215 271.411 74.7493 271.069 74.9043C270.727 75.0592 270.329 75.1367 269.873 75.1367C269.426 75.1367 269.021 75.041 268.656 74.8496C268.296 74.6582 267.988 74.3939 267.733 74.0566C267.478 73.7194 267.28 73.3229 267.139 72.8672C266.997 72.4069 266.927 71.9124 266.927 71.3838V71.2402ZM268.191 71.3838C268.191 71.7438 268.23 72.0856 268.307 72.4092C268.385 72.7327 268.506 73.0176 268.67 73.2637C268.829 73.5098 269.034 73.7057 269.285 73.8516C269.536 73.9928 269.836 74.0635 270.187 74.0635C270.611 74.0635 270.962 73.9678 271.24 73.7764C271.518 73.585 271.739 73.3275 271.903 73.0039V69.5723C271.739 69.2715 271.518 69.0254 271.24 68.834C270.962 68.638 270.616 68.54 270.201 68.54C269.846 68.54 269.54 68.613 269.285 68.7588C269.034 68.9046 268.829 69.1006 268.67 69.3467C268.506 69.5973 268.385 69.8867 268.307 70.2148C268.23 70.5384 268.191 70.8802 268.191 71.2402V71.3838ZM275.749 77.9873C275.63 77.9873 275.491 77.9736 275.332 77.9463C275.172 77.9189 275.052 77.8962 274.969 77.8779L275.175 76.8457C275.289 76.8548 275.4 76.8617 275.51 76.8662C275.623 76.8753 275.712 76.8799 275.776 76.8799C275.949 76.8799 276.107 76.832 276.248 76.7363C276.394 76.6406 276.524 76.5267 276.637 76.3945C276.747 76.2624 276.84 76.1257 276.918 75.9844C277 75.8431 277.064 75.7269 277.109 75.6357L277.615 74.6514L274.429 67.6035H275.844L277.875 72.375L278.203 73.2705L278.552 72.4023L280.459 67.6035H281.874L278.121 76.1416C278.034 76.333 277.923 76.5358 277.786 76.75C277.654 76.9642 277.492 77.1624 277.301 77.3447C277.109 77.527 276.886 77.6797 276.631 77.8027C276.375 77.9258 276.081 77.9873 275.749 77.9873ZM289.247 75H282.725V74.0908L285.986 70.4678C286.278 70.1442 286.521 69.8571 286.717 69.6064C286.913 69.3558 287.071 69.1234 287.189 68.9092C287.308 68.6995 287.392 68.5013 287.442 68.3145C287.492 68.123 287.517 67.9271 287.517 67.7266C287.517 67.4805 287.476 67.2503 287.394 67.0361C287.317 66.8174 287.203 66.6283 287.052 66.4688C286.897 66.3092 286.711 66.1839 286.492 66.0928C286.278 65.9971 286.034 65.9492 285.76 65.9492C285.428 65.9492 285.138 65.9971 284.892 66.0928C284.651 66.1885 284.45 66.3229 284.291 66.4961C284.127 66.6738 284.004 66.888 283.922 67.1387C283.844 67.3893 283.805 67.6696 283.805 67.9795H282.534C282.534 67.5602 282.607 67.166 282.753 66.7969C282.898 66.4232 283.11 66.0973 283.388 65.8193C283.662 65.5413 283.997 65.3203 284.393 65.1562C284.794 64.9922 285.25 64.9102 285.76 64.9102C286.23 64.9102 286.651 64.9808 287.025 65.1221C287.403 65.2588 287.722 65.4502 287.982 65.6963C288.242 65.9424 288.44 66.234 288.577 66.5713C288.718 66.9085 288.789 67.2754 288.789 67.6719C288.789 67.9681 288.739 68.262 288.638 68.5537C288.538 68.8408 288.404 69.1257 288.235 69.4082C288.062 69.6908 287.861 69.971 287.633 70.249C287.41 70.5225 287.173 70.7959 286.923 71.0693L284.25 73.9678H289.247V75Z" fill="#6B6B6B"/>
<rect x="620" y="84" width="8.00001" height="26" transform="rotate(180 620 84)" fill="#FF0000" fill-opacity="0.1"/>
<rect x="610" y="84" width="8.00001" height="26" transform="rotate(180 610 84)" fill="#FF0000" fill-opacity="0.1"/>
<rect x="565" y="84" width="8.00001" height="26" transform="rotate(180 565 84)" fill="#FF0000" fill-opacity="0.1"/>
<path d="M303 70L346 70" stroke="#6B6B6B" stroke-width="1.2" stroke-dasharray="2 2"/>
<path d="M519.576 97.5757C519.341 97.8101 519.341 98.1899 519.576 98.4243L523.394 102.243C523.628 102.477 524.008 102.477 524.243 102.243C524.477 102.008 524.477 101.628 524.243 101.394L520.849 98L524.243 94.6059C524.477 94.3716 524.477 93.9917 524.243 93.7574C524.008 93.523 523.628 93.523 523.394 93.7574L519.576 97.5757ZM657.424 98.4243C657.659 98.1899 657.659 97.81 657.424 97.5757L653.606 93.7573C653.372 93.523 652.992 93.523 652.757 93.7573C652.523 93.9917 652.523 94.3716 652.757 94.6059L656.151 98L652.757 101.394C652.523 101.628 652.523 102.008 652.757 102.243C652.992 102.477 653.372 102.477 653.606 102.243L657.424 98.4243ZM520 98.6L657 98.6L657 97.4L520 97.4L520 98.6Z" fill="#6B6B6B"/>
<path d="M555.217 109.054H549.603V112.302H554.321V113.562H549.603V118.098H548.147V107.794H555.217V109.054ZM558.241 110.818V118.098H556.785V110.818H558.241ZM556.687 108.438C556.687 108.195 556.762 107.999 556.911 107.85C557.07 107.691 557.271 107.612 557.513 107.612C557.756 107.612 557.952 107.691 558.101 107.85C558.26 107.999 558.339 108.195 558.339 108.438C558.339 108.671 558.26 108.867 558.101 109.026C557.952 109.185 557.756 109.264 557.513 109.264C557.271 109.264 557.07 109.189 556.911 109.04C556.762 108.881 556.687 108.681 556.687 108.438ZM563.929 114.444L566.631 118.098H564.825L563.075 115.62L561.339 118.098H559.533L562.193 114.444L559.477 110.776H561.297L563.075 113.324L564.839 110.776H566.659L563.929 114.444ZM572.662 113.898C572.596 113.357 572.405 112.904 572.088 112.54C571.77 112.167 571.313 111.98 570.716 111.98C570.174 111.98 569.703 112.167 569.302 112.54C568.91 112.904 568.672 113.361 568.588 113.912L572.662 113.898ZM567.188 114.458C567.188 113.739 567.337 113.1 567.636 112.54C567.934 111.98 568.345 111.546 568.868 111.238C569.4 110.921 570.006 110.762 570.688 110.762C571.649 110.762 572.354 110.995 572.802 111.462C573.259 111.929 573.567 112.358 573.726 112.75C573.94 113.273 574.048 113.851 574.048 114.486C574.048 114.617 574.043 114.733 574.034 114.836C574.024 114.929 574.02 114.99 574.02 115.018H568.588C568.672 115.578 568.914 116.035 569.316 116.39C569.717 116.745 570.179 116.922 570.702 116.922C571.122 116.922 571.467 116.857 571.738 116.726C572.018 116.595 572.209 116.474 572.312 116.362C572.414 116.25 572.512 116.124 572.606 115.984L573.782 116.516C573.558 116.973 573.184 117.361 572.662 117.678C572.139 117.986 571.481 118.14 570.688 118.14C570.006 118.14 569.4 117.986 568.868 117.678C568.345 117.361 567.934 116.922 567.636 116.362C567.337 115.802 567.188 115.167 567.188 114.458ZM578.737 118.168C578.065 118.168 577.463 118.014 576.931 117.706C576.408 117.389 575.998 116.95 575.699 116.39C575.4 115.83 575.251 115.191 575.251 114.472C575.251 113.753 575.396 113.114 575.685 112.554C575.984 111.985 576.399 111.546 576.931 111.238C577.463 110.921 578.065 110.762 578.737 110.762C579.129 110.762 579.54 110.865 579.969 111.07C580.398 111.266 580.758 111.593 581.047 112.05V107.794H582.503V118.112H581.047V116.894C580.748 117.333 580.384 117.655 579.955 117.86C579.526 118.065 579.12 118.168 578.737 118.168ZM576.707 114.486C576.707 115.233 576.903 115.839 577.295 116.306C577.696 116.763 578.214 116.992 578.849 116.992C579.241 116.992 579.605 116.88 579.941 116.656C580.277 116.432 580.543 116.129 580.739 115.746C580.944 115.363 581.047 114.943 581.047 114.486C581.047 114.038 580.944 113.623 580.739 113.24C580.543 112.857 580.277 112.554 579.941 112.33C579.605 112.106 579.241 111.994 578.849 111.994C578.214 111.994 577.696 112.227 577.295 112.694C576.903 113.151 576.707 113.749 576.707 114.486ZM588.578 109.754C588.821 109.754 589.017 109.829 589.166 109.978C589.316 110.127 589.39 110.323 589.39 110.566C589.39 110.809 589.311 111.009 589.152 111.168C589.003 111.317 588.812 111.392 588.578 111.392C588.345 111.392 588.149 111.313 587.99 111.154C587.832 110.995 587.752 110.799 587.752 110.566C587.752 110.333 587.827 110.141 587.976 109.992C588.135 109.833 588.336 109.754 588.578 109.754ZM587.752 115.27C587.752 115.037 587.827 114.845 587.976 114.696C588.135 114.537 588.336 114.458 588.578 114.458C588.821 114.458 589.017 114.533 589.166 114.682C589.316 114.831 589.39 115.027 589.39 115.27C589.39 115.513 589.311 115.713 589.152 115.872C589.003 116.021 588.812 116.096 588.578 116.096C588.345 116.096 588.149 116.017 587.99 115.858C587.832 115.699 587.752 115.503 587.752 115.27ZM598.033 118.042L596.577 118.028V109.418L594.799 110.426L594.183 109.208L596.591 107.864H598.033V118.042ZM605.356 112.778C605.804 113.039 606.158 113.394 606.42 113.842C606.69 114.281 606.826 114.719 606.826 115.158C606.826 115.727 606.681 116.236 606.392 116.684C606.102 117.132 605.696 117.482 605.174 117.734C604.651 117.986 604.058 118.112 603.396 118.112C602.733 118.112 602.14 117.986 601.618 117.734C601.095 117.473 600.684 117.113 600.386 116.656C600.096 116.189 599.952 115.662 599.952 115.074H601.408C601.408 115.587 601.594 116.007 601.968 116.334C602.341 116.661 602.817 116.824 603.396 116.824C603.993 116.824 604.478 116.665 604.852 116.348C605.225 116.021 605.412 115.601 605.412 115.088C605.412 114.584 605.225 114.173 604.852 113.856C604.478 113.539 604.002 113.38 603.424 113.38H602.696V112.162H603.424C603.965 112.162 604.408 112.017 604.754 111.728C605.099 111.439 605.272 111.065 605.272 110.608C605.272 110.151 605.104 109.782 604.768 109.502C604.432 109.213 604.002 109.068 603.48 109.068C602.966 109.068 602.542 109.213 602.206 109.502C601.879 109.791 601.716 110.165 601.716 110.622H600.26C600.26 110.071 600.395 109.581 600.666 109.152C600.946 108.713 601.328 108.377 601.814 108.144C602.299 107.901 602.854 107.78 603.48 107.78C604.096 107.78 604.646 107.897 605.132 108.13C605.626 108.363 606.009 108.69 606.28 109.11C606.55 109.53 606.686 110.006 606.686 110.538C606.686 110.939 606.564 111.35 606.322 111.77C606.079 112.181 605.757 112.517 605.356 112.778ZM608.993 118.07L612.983 109.096H608.307V107.822H614.439L614.579 109.096L610.589 118.07H608.993ZM619.906 116.964C620.531 116.964 621.04 116.735 621.432 116.278C621.824 115.811 622.02 115.205 622.02 114.458C622.02 113.721 621.824 113.123 621.432 112.666C621.04 112.209 620.531 111.98 619.906 111.98C619.514 111.98 619.15 112.092 618.814 112.316C618.478 112.54 618.212 112.843 618.016 113.226C617.82 113.599 617.722 114.01 617.722 114.458C617.722 114.915 617.82 115.335 618.016 115.718C618.212 116.101 618.478 116.404 618.814 116.628C619.15 116.852 619.514 116.964 619.906 116.964ZM616.252 110.776H617.708V112.036C617.96 111.616 618.31 111.303 618.758 111.098C619.206 110.883 619.616 110.776 619.99 110.776C620.671 110.776 621.273 110.935 621.796 111.252C622.328 111.56 622.738 111.994 623.028 112.554C623.326 113.105 623.476 113.739 623.476 114.458C623.476 115.177 623.326 115.821 623.028 116.39C622.738 116.95 622.328 117.389 621.796 117.706C621.273 118.014 620.671 118.168 619.99 118.168C619.616 118.168 619.206 118.061 618.758 117.846C618.31 117.622 617.96 117.3 617.708 116.88V121.234H616.252V110.776ZM628.619 114.444L631.321 118.098H629.515L627.765 115.62L626.029 118.098H624.223L626.883 114.444L624.167 110.776H625.987L627.765 113.324L629.529 110.776H631.349L628.619 114.444Z" fill="#6B6B6B"/>
</svg>
