<svg width="660" height="24" viewBox="0 0 660 24" fill="none" xmlns="http://www.w3.org/2000/svg">
<rect x="0.6" y="0.6" width="22.8" height="22.8" rx="11.4" fill="white"/>
<rect x="0.6" y="0.6" width="22.8" height="22.8" rx="11.4" stroke="#BB362A" stroke-width="1.2"/>
<path d="M13.5327 17.042L12.0767 17.028V8.418L10.2987 9.426L9.68273 8.208L12.0907 6.864H13.5327V17.042Z" fill="#BB362A"/>
<line x1="24" y1="11.4" x2="318" y2="11.4" stroke="#BB362A" stroke-width="1.2"/>
<path d="M318 12C318 5.37258 323.373 0 330 0C336.627 0 342 5.37258 342 12C342 18.6274 336.627 24 330 24C323.373 24 318 18.6274 318 12Z" fill="#BB362A"/>
<path d="M326.876 15.768C327.007 15.6467 327.483 15.208 328.304 14.452C329.06 13.7707 329.662 13.2107 330.11 12.772C330.568 12.324 330.95 11.8667 331.258 11.4C331.566 10.924 331.72 10.476 331.72 10.056C331.72 9.47733 331.552 9.006 331.216 8.642C330.89 8.26867 330.465 8.082 329.942 8.082C329.541 8.082 329.154 8.21267 328.78 8.474C328.407 8.73533 328.132 9.07133 327.954 9.482L326.68 8.922C326.96 8.28733 327.404 7.76933 328.01 7.368C328.626 6.95733 329.27 6.752 329.942 6.752C330.568 6.752 331.123 6.892 331.608 7.172C332.103 7.452 332.486 7.844 332.756 8.348C333.036 8.84267 333.176 9.412 333.176 10.056C333.176 10.6907 332.985 11.3207 332.602 11.946C332.229 12.5713 331.772 13.15 331.23 13.682C330.698 14.214 330.017 14.8347 329.186 15.544L328.934 15.768H333.33V17.042H327.016L326.876 15.768Z" fill="white"/>
<line x1="342" y1="11.4" x2="636" y2="11.4" stroke="#C2C2C2" stroke-width="1.2"/>
<path d="M636.6 12C636.6 5.70395 641.704 0.6 648 0.6C654.296 0.6 659.4 5.70395 659.4 12C659.4 18.296 654.296 23.4 648 23.4C641.704 23.4 636.6 18.296 636.6 12Z" stroke="#C2C2C2" stroke-width="1.2"/>
<path d="M649.961 11.778C650.409 12.0393 650.764 12.394 651.025 12.842C651.296 13.2807 651.431 13.7193 651.431 14.158C651.431 14.7273 651.286 15.236 650.997 15.684C650.708 16.132 650.302 16.482 649.779 16.734C649.256 16.986 648.664 17.112 648.001 17.112C647.338 17.112 646.746 16.986 646.223 16.734C645.7 16.4727 645.29 16.1133 644.991 15.656C644.702 15.1893 644.557 14.662 644.557 14.074H646.013C646.013 14.5873 646.2 15.0073 646.573 15.334C646.946 15.6607 647.422 15.824 648.001 15.824C648.598 15.824 649.084 15.6653 649.457 15.348C649.83 15.0213 650.017 14.6013 650.017 14.088C650.017 13.584 649.83 13.1733 649.457 12.856C649.084 12.5387 648.608 12.38 648.029 12.38H647.301V11.162H648.029C648.57 11.162 649.014 11.0173 649.359 10.728C649.704 10.4387 649.877 10.0653 649.877 9.608C649.877 9.15067 649.709 8.782 649.373 8.502C649.037 8.21267 648.608 8.068 648.085 8.068C647.572 8.068 647.147 8.21267 646.811 8.502C646.484 8.79133 646.321 9.16467 646.321 9.622H644.865C644.865 9.07133 645 8.58133 645.271 8.152C645.551 7.71333 645.934 7.37733 646.419 7.144C646.904 6.90133 647.46 6.78 648.085 6.78C648.701 6.78 649.252 6.89667 649.737 7.13C650.232 7.36333 650.614 7.69 650.885 8.11C651.156 8.53 651.291 9.006 651.291 9.538C651.291 9.93933 651.17 10.35 650.927 10.77C650.684 11.1807 650.362 11.5167 649.961 11.778Z" fill="#6B6B6B"/>
</svg>
