<svg width="908" height="135" viewBox="0 0 908 135" fill="none" xmlns="http://www.w3.org/2000/svg">
<rect width="907" height="135" transform="translate(0.5)" fill="white"/>
<rect x="124.6" y="55.6" width="22.8" height="22.8" rx="11.4" fill="white"/>
<rect x="124.6" y="55.6" width="22.8" height="22.8" rx="11.4" stroke="#BB362A" stroke-width="1.2"/>
<path d="M137.533 72.042L136.077 72.028V63.418L134.299 64.426L133.683 63.208L136.091 61.864H137.533V72.042Z" fill="#BB362A"/>
<line x1="148" y1="66.4" x2="442" y2="66.4" stroke="#BB362A" stroke-width="1.2"/>
<path d="M442 67C442 60.3726 447.373 55 454 55C460.627 55 466 60.3726 466 67C466 73.6274 460.627 79 454 79C447.373 79 442 73.6274 442 67Z" fill="#BB362A"/>
<path d="M450.876 70.768C451.007 70.6467 451.483 70.208 452.304 69.452C453.06 68.7707 453.662 68.2107 454.11 67.772C454.568 67.324 454.95 66.8667 455.258 66.4C455.566 65.924 455.72 65.476 455.72 65.056C455.72 64.4773 455.552 64.006 455.216 63.642C454.89 63.2687 454.465 63.082 453.942 63.082C453.541 63.082 453.154 63.2127 452.78 63.474C452.407 63.7353 452.132 64.0713 451.954 64.482L450.68 63.922C450.96 63.2873 451.404 62.7693 452.01 62.368C452.626 61.9573 453.27 61.752 453.942 61.752C454.568 61.752 455.123 61.892 455.608 62.172C456.103 62.452 456.486 62.844 456.756 63.348C457.036 63.8427 457.176 64.412 457.176 65.056C457.176 65.6907 456.985 66.3207 456.602 66.946C456.229 67.5713 455.772 68.15 455.23 68.682C454.698 69.214 454.017 69.8347 453.186 70.544L452.934 70.768H457.33V72.042H451.016L450.876 70.768Z" fill="white"/>
<line x1="466" y1="66.4" x2="760" y2="66.4" stroke="#C2C2C2" stroke-width="1.2"/>
<path d="M760.6 67C760.6 60.704 765.704 55.6 772 55.6C778.296 55.6 783.4 60.704 783.4 67C783.4 73.296 778.296 78.4 772 78.4C765.704 78.4 760.6 73.296 760.6 67Z" stroke="#C2C2C2" stroke-width="1.2"/>
<path d="M773.961 66.778C774.409 67.0393 774.764 67.394 775.025 67.842C775.296 68.2807 775.431 68.7193 775.431 69.158C775.431 69.7273 775.286 70.236 774.997 70.684C774.708 71.132 774.302 71.482 773.779 71.734C773.256 71.986 772.664 72.112 772.001 72.112C771.338 72.112 770.746 71.986 770.223 71.734C769.7 71.4727 769.29 71.1133 768.991 70.656C768.702 70.1893 768.557 69.662 768.557 69.074H770.013C770.013 69.5873 770.2 70.0073 770.573 70.334C770.946 70.6607 771.422 70.824 772.001 70.824C772.598 70.824 773.084 70.6653 773.457 70.348C773.83 70.0213 774.017 69.6013 774.017 69.088C774.017 68.584 773.83 68.1733 773.457 67.856C773.084 67.5387 772.608 67.38 772.029 67.38H771.301V66.162H772.029C772.57 66.162 773.014 66.0173 773.359 65.728C773.704 65.4387 773.877 65.0653 773.877 64.608C773.877 64.1507 773.709 63.782 773.373 63.502C773.037 63.2127 772.608 63.068 772.085 63.068C771.572 63.068 771.147 63.2127 770.811 63.502C770.484 63.7913 770.321 64.1647 770.321 64.622H768.865C768.865 64.0713 769 63.5813 769.271 63.152C769.551 62.7133 769.934 62.3773 770.419 62.144C770.904 61.9013 771.46 61.78 772.085 61.78C772.701 61.78 773.252 61.8967 773.737 62.13C774.232 62.3633 774.614 62.69 774.885 63.11C775.156 63.53 775.291 64.006 775.291 64.538C775.291 64.9393 775.17 65.35 774.927 65.77C774.684 66.1807 774.362 66.5167 773.961 66.778Z" fill="#6B6B6B"/>
</svg>
