<svg width="908" height="204" viewBox="0 0 908 204" fill="none" xmlns="http://www.w3.org/2000/svg">
<rect width="907" height="204" transform="translate(0.5)" fill="white"/>
<path d="M564.94 153.838H570.05V155.098H563.484V144.794H564.94V153.838ZM574.261 153.964C574.644 153.964 575.003 153.857 575.339 153.642C575.675 153.418 575.941 153.119 576.137 152.746C576.342 152.363 576.445 151.943 576.445 151.486C576.445 151.029 576.342 150.613 576.137 150.24C575.941 149.857 575.675 149.559 575.339 149.344C575.003 149.12 574.644 149.008 574.261 149.008C573.636 149.008 573.127 149.237 572.735 149.694C572.343 150.151 572.147 150.749 572.147 151.486C572.147 152.223 572.343 152.821 572.735 153.278C573.127 153.735 573.636 153.964 574.261 153.964ZM570.691 151.486C570.691 150.777 570.836 150.142 571.125 149.582C571.424 149.022 571.834 148.588 572.357 148.28C572.889 147.963 573.491 147.804 574.163 147.804C574.592 147.804 575.003 147.911 575.395 148.126C575.796 148.331 576.142 148.644 576.431 149.064V147.776H577.887V155.098L576.431 155.112V153.894C576.132 154.323 575.787 154.645 575.395 154.86C575.003 155.065 574.592 155.168 574.163 155.168C573.491 155.168 572.889 155.014 572.357 154.706C571.834 154.389 571.424 153.95 571.125 153.39C570.836 152.83 570.691 152.195 570.691 151.486ZM583.415 155.168C583.051 155.168 582.654 155.07 582.225 154.874C581.805 154.678 581.441 154.351 581.133 153.894V155.112H579.677V144.794H581.133V149.05C581.441 148.574 581.805 148.243 582.225 148.056C582.654 147.86 583.055 147.762 583.429 147.762C584.101 147.762 584.703 147.921 585.235 148.238C585.767 148.555 586.182 148.994 586.481 149.554C586.779 150.114 586.929 150.753 586.929 151.472C586.929 152.191 586.779 152.83 586.481 153.39C586.182 153.95 585.767 154.389 585.235 154.706C584.703 155.014 584.096 155.168 583.415 155.168ZM581.133 151.486C581.133 151.943 581.231 152.363 581.427 152.746C581.623 153.129 581.889 153.432 582.225 153.656C582.57 153.88 582.939 153.992 583.331 153.992C583.965 153.992 584.479 153.763 584.871 153.306C585.272 152.839 585.473 152.233 585.473 151.486C585.473 150.749 585.272 150.151 584.871 149.694C584.479 149.227 583.965 148.994 583.331 148.994C582.939 148.994 582.575 149.106 582.239 149.33C581.903 149.554 581.632 149.857 581.427 150.24C581.231 150.623 581.133 151.038 581.133 151.486ZM593.563 150.898C593.497 150.357 593.306 149.904 592.989 149.54C592.671 149.167 592.214 148.98 591.617 148.98C591.075 148.98 590.604 149.167 590.203 149.54C589.811 149.904 589.573 150.361 589.489 150.912L593.563 150.898ZM588.089 151.458C588.089 150.739 588.238 150.1 588.537 149.54C588.835 148.98 589.246 148.546 589.769 148.238C590.301 147.921 590.907 147.762 591.589 147.762C592.55 147.762 593.255 147.995 593.703 148.462C594.16 148.929 594.468 149.358 594.627 149.75C594.841 150.273 594.949 150.851 594.949 151.486C594.949 151.617 594.944 151.733 594.935 151.836C594.925 151.929 594.921 151.99 594.921 152.018H589.489C589.573 152.578 589.815 153.035 590.217 153.39C590.618 153.745 591.08 153.922 591.603 153.922C592.023 153.922 592.368 153.857 592.639 153.726C592.919 153.595 593.11 153.474 593.213 153.362C593.315 153.25 593.413 153.124 593.507 152.984L594.683 153.516C594.459 153.973 594.085 154.361 593.563 154.678C593.04 154.986 592.382 155.14 591.589 155.14C590.907 155.14 590.301 154.986 589.769 154.678C589.246 154.361 588.835 153.922 588.537 153.362C588.238 152.802 588.089 152.167 588.089 151.458ZM597.707 144.794V155.098H596.251V144.794H597.707Z" fill="#6B6B6B"/>
<path d="M310.94 153.838H316.05V155.098H309.484V144.794H310.94V153.838ZM320.261 153.964C320.644 153.964 321.003 153.857 321.339 153.642C321.675 153.418 321.941 153.119 322.137 152.746C322.342 152.363 322.445 151.943 322.445 151.486C322.445 151.029 322.342 150.613 322.137 150.24C321.941 149.857 321.675 149.559 321.339 149.344C321.003 149.12 320.644 149.008 320.261 149.008C319.636 149.008 319.127 149.237 318.735 149.694C318.343 150.151 318.147 150.749 318.147 151.486C318.147 152.223 318.343 152.821 318.735 153.278C319.127 153.735 319.636 153.964 320.261 153.964ZM316.691 151.486C316.691 150.777 316.836 150.142 317.125 149.582C317.424 149.022 317.834 148.588 318.357 148.28C318.889 147.963 319.491 147.804 320.163 147.804C320.592 147.804 321.003 147.911 321.395 148.126C321.796 148.331 322.142 148.644 322.431 149.064V147.776H323.887V155.098L322.431 155.112V153.894C322.132 154.323 321.787 154.645 321.395 154.86C321.003 155.065 320.592 155.168 320.163 155.168C319.491 155.168 318.889 155.014 318.357 154.706C317.834 154.389 317.424 153.95 317.125 153.39C316.836 152.83 316.691 152.195 316.691 151.486ZM329.415 155.168C329.051 155.168 328.654 155.07 328.225 154.874C327.805 154.678 327.441 154.351 327.133 153.894V155.112H325.677V144.794H327.133V149.05C327.441 148.574 327.805 148.243 328.225 148.056C328.654 147.86 329.055 147.762 329.429 147.762C330.101 147.762 330.703 147.921 331.235 148.238C331.767 148.555 332.182 148.994 332.481 149.554C332.779 150.114 332.929 150.753 332.929 151.472C332.929 152.191 332.779 152.83 332.481 153.39C332.182 153.95 331.767 154.389 331.235 154.706C330.703 155.014 330.096 155.168 329.415 155.168ZM327.133 151.486C327.133 151.943 327.231 152.363 327.427 152.746C327.623 153.129 327.889 153.432 328.225 153.656C328.57 153.88 328.939 153.992 329.331 153.992C329.965 153.992 330.479 153.763 330.871 153.306C331.272 152.839 331.473 152.233 331.473 151.486C331.473 150.749 331.272 150.151 330.871 149.694C330.479 149.227 329.965 148.994 329.331 148.994C328.939 148.994 328.575 149.106 328.239 149.33C327.903 149.554 327.632 149.857 327.427 150.24C327.231 150.623 327.133 151.038 327.133 151.486ZM339.563 150.898C339.497 150.357 339.306 149.904 338.989 149.54C338.671 149.167 338.214 148.98 337.617 148.98C337.075 148.98 336.604 149.167 336.203 149.54C335.811 149.904 335.573 150.361 335.489 150.912L339.563 150.898ZM334.089 151.458C334.089 150.739 334.238 150.1 334.537 149.54C334.835 148.98 335.246 148.546 335.769 148.238C336.301 147.921 336.907 147.762 337.589 147.762C338.55 147.762 339.255 147.995 339.703 148.462C340.16 148.929 340.468 149.358 340.627 149.75C340.841 150.273 340.949 150.851 340.949 151.486C340.949 151.617 340.944 151.733 340.935 151.836C340.925 151.929 340.921 151.99 340.921 152.018H335.489C335.573 152.578 335.815 153.035 336.217 153.39C336.618 153.745 337.08 153.922 337.603 153.922C338.023 153.922 338.368 153.857 338.639 153.726C338.919 153.595 339.11 153.474 339.213 153.362C339.315 153.25 339.413 153.124 339.507 152.984L340.683 153.516C340.459 153.973 340.085 154.361 339.563 154.678C339.04 154.986 338.382 155.14 337.589 155.14C336.907 155.14 336.301 154.986 335.769 154.678C335.246 154.361 334.835 153.922 334.537 153.362C334.238 152.802 334.089 152.167 334.089 151.458ZM343.707 144.794V155.098H342.251V144.794H343.707Z" fill="#368FF7"/>
<path d="M438.94 153.838H444.05V155.098H437.484V144.794H438.94V153.838ZM448.261 153.964C448.644 153.964 449.003 153.857 449.339 153.642C449.675 153.418 449.941 153.119 450.137 152.746C450.342 152.363 450.445 151.943 450.445 151.486C450.445 151.029 450.342 150.613 450.137 150.24C449.941 149.857 449.675 149.559 449.339 149.344C449.003 149.12 448.644 149.008 448.261 149.008C447.636 149.008 447.127 149.237 446.735 149.694C446.343 150.151 446.147 150.749 446.147 151.486C446.147 152.223 446.343 152.821 446.735 153.278C447.127 153.735 447.636 153.964 448.261 153.964ZM444.691 151.486C444.691 150.777 444.836 150.142 445.125 149.582C445.424 149.022 445.834 148.588 446.357 148.28C446.889 147.963 447.491 147.804 448.163 147.804C448.592 147.804 449.003 147.911 449.395 148.126C449.796 148.331 450.142 148.644 450.431 149.064V147.776H451.887V155.098L450.431 155.112V153.894C450.132 154.323 449.787 154.645 449.395 154.86C449.003 155.065 448.592 155.168 448.163 155.168C447.491 155.168 446.889 155.014 446.357 154.706C445.834 154.389 445.424 153.95 445.125 153.39C444.836 152.83 444.691 152.195 444.691 151.486ZM457.415 155.168C457.051 155.168 456.654 155.07 456.225 154.874C455.805 154.678 455.441 154.351 455.133 153.894V155.112H453.677V144.794H455.133V149.05C455.441 148.574 455.805 148.243 456.225 148.056C456.654 147.86 457.055 147.762 457.429 147.762C458.101 147.762 458.703 147.921 459.235 148.238C459.767 148.555 460.182 148.994 460.481 149.554C460.779 150.114 460.929 150.753 460.929 151.472C460.929 152.191 460.779 152.83 460.481 153.39C460.182 153.95 459.767 154.389 459.235 154.706C458.703 155.014 458.096 155.168 457.415 155.168ZM455.133 151.486C455.133 151.943 455.231 152.363 455.427 152.746C455.623 153.129 455.889 153.432 456.225 153.656C456.57 153.88 456.939 153.992 457.331 153.992C457.965 153.992 458.479 153.763 458.871 153.306C459.272 152.839 459.473 152.233 459.473 151.486C459.473 150.749 459.272 150.151 458.871 149.694C458.479 149.227 457.965 148.994 457.331 148.994C456.939 148.994 456.575 149.106 456.239 149.33C455.903 149.554 455.632 149.857 455.427 150.24C455.231 150.623 455.133 151.038 455.133 151.486ZM467.563 150.898C467.497 150.357 467.306 149.904 466.989 149.54C466.671 149.167 466.214 148.98 465.617 148.98C465.075 148.98 464.604 149.167 464.203 149.54C463.811 149.904 463.573 150.361 463.489 150.912L467.563 150.898ZM462.089 151.458C462.089 150.739 462.238 150.1 462.537 149.54C462.835 148.98 463.246 148.546 463.769 148.238C464.301 147.921 464.907 147.762 465.589 147.762C466.55 147.762 467.255 147.995 467.703 148.462C468.16 148.929 468.468 149.358 468.627 149.75C468.841 150.273 468.949 150.851 468.949 151.486C468.949 151.617 468.944 151.733 468.935 151.836C468.925 151.929 468.921 151.99 468.921 152.018H463.489C463.573 152.578 463.815 153.035 464.217 153.39C464.618 153.745 465.08 153.922 465.603 153.922C466.023 153.922 466.368 153.857 466.639 153.726C466.919 153.595 467.11 153.474 467.213 153.362C467.315 153.25 467.413 153.124 467.507 152.984L468.683 153.516C468.459 153.973 468.085 154.361 467.563 154.678C467.04 154.986 466.382 155.14 465.589 155.14C464.907 155.14 464.301 154.986 463.769 154.678C463.246 154.361 462.835 153.922 462.537 153.362C462.238 152.802 462.089 152.167 462.089 151.458ZM471.707 144.794V155.098H470.251V144.794H471.707Z" fill="#121212"/>
<rect x="314.6" y="111.6" width="22.8" height="22.8" rx="11.4" fill="white"/>
<rect x="314.6" y="111.6" width="22.8" height="22.8" rx="11.4" stroke="#368FF7" stroke-width="1.2"/>
<path d="M327.533 128.042L326.077 128.028V119.418L324.299 120.426L323.683 119.208L326.091 117.864H327.533V128.042Z" fill="#368FF7"/>
<line x1="338" y1="122.4" x2="441" y2="122.4" stroke="#368FF7" stroke-width="1.2"/>
<path d="M441 123C441 116.373 446.373 111 453 111C459.627 111 465 116.373 465 123C465 129.627 459.627 135 453 135C446.373 135 441 129.627 441 123Z" fill="#368FF7"/>
<path d="M449.876 126.768C450.007 126.647 450.483 126.208 451.304 125.452C452.06 124.771 452.662 124.211 453.11 123.772C453.568 123.324 453.95 122.867 454.258 122.4C454.566 121.924 454.72 121.476 454.72 121.056C454.72 120.477 454.552 120.006 454.216 119.642C453.89 119.269 453.465 119.082 452.942 119.082C452.541 119.082 452.154 119.213 451.78 119.474C451.407 119.735 451.132 120.071 450.954 120.482L449.68 119.922C449.96 119.287 450.404 118.769 451.01 118.368C451.626 117.957 452.27 117.752 452.942 117.752C453.568 117.752 454.123 117.892 454.608 118.172C455.103 118.452 455.486 118.844 455.756 119.348C456.036 119.843 456.176 120.412 456.176 121.056C456.176 121.691 455.985 122.321 455.602 122.946C455.229 123.571 454.772 124.15 454.23 124.682C453.698 125.214 453.017 125.835 452.186 126.544L451.934 126.768H456.33V128.042H450.016L449.876 126.768Z" fill="white"/>
<line x1="465" y1="122.4" x2="568" y2="122.4" stroke="#C2C2C2" stroke-width="1.2"/>
<path d="M568.6 123C568.6 116.704 573.704 111.6 580 111.6C586.296 111.6 591.4 116.704 591.4 123C591.4 129.296 586.296 134.4 580 134.4C573.704 134.4 568.6 129.296 568.6 123Z" stroke="#C2C2C2" stroke-width="1.2"/>
<path d="M581.961 122.778C582.409 123.039 582.764 123.394 583.025 123.842C583.296 124.281 583.431 124.719 583.431 125.158C583.431 125.727 583.286 126.236 582.997 126.684C582.708 127.132 582.302 127.482 581.779 127.734C581.256 127.986 580.664 128.112 580.001 128.112C579.338 128.112 578.746 127.986 578.223 127.734C577.7 127.473 577.29 127.113 576.991 126.656C576.702 126.189 576.557 125.662 576.557 125.074H578.013C578.013 125.587 578.2 126.007 578.573 126.334C578.946 126.661 579.422 126.824 580.001 126.824C580.598 126.824 581.084 126.665 581.457 126.348C581.83 126.021 582.017 125.601 582.017 125.088C582.017 124.584 581.83 124.173 581.457 123.856C581.084 123.539 580.608 123.38 580.029 123.38H579.301V122.162H580.029C580.57 122.162 581.014 122.017 581.359 121.728C581.704 121.439 581.877 121.065 581.877 120.608C581.877 120.151 581.709 119.782 581.373 119.502C581.037 119.213 580.608 119.068 580.085 119.068C579.572 119.068 579.147 119.213 578.811 119.502C578.484 119.791 578.321 120.165 578.321 120.622H576.865C576.865 120.071 577 119.581 577.271 119.152C577.551 118.713 577.934 118.377 578.419 118.144C578.904 117.901 579.46 117.78 580.085 117.78C580.701 117.78 581.252 117.897 581.737 118.13C582.232 118.363 582.614 118.69 582.885 119.11C583.156 119.53 583.291 120.006 583.291 120.538C583.291 120.939 583.17 121.35 582.927 121.77C582.684 122.181 582.362 122.517 581.961 122.778Z" fill="#6B6B6B"/>
<rect x="314.6" y="34.6" width="22.8" height="22.8" rx="11.4" fill="white"/>
<rect x="314.6" y="34.6" width="22.8" height="22.8" rx="11.4" stroke="#368FF7" stroke-width="1.2"/>
<path d="M327.533 51.042L326.077 51.028V42.418L324.299 43.426L323.683 42.208L326.091 40.864H327.533V51.042Z" fill="#368FF7"/>
<line x1="338" y1="45.4" x2="441" y2="45.4" stroke="#368FF7" stroke-width="1.2"/>
<path d="M441 46C441 39.3726 446.373 34 453 34C459.627 34 465 39.3726 465 46C465 52.6274 459.627 58 453 58C446.373 58 441 52.6274 441 46Z" fill="#368FF7"/>
<path d="M449.876 49.768C450.007 49.6467 450.483 49.208 451.304 48.452C452.06 47.7707 452.662 47.2107 453.11 46.772C453.568 46.324 453.95 45.8667 454.258 45.4C454.566 44.924 454.72 44.476 454.72 44.056C454.72 43.4773 454.552 43.006 454.216 42.642C453.89 42.2687 453.465 42.082 452.942 42.082C452.541 42.082 452.154 42.2127 451.78 42.474C451.407 42.7353 451.132 43.0713 450.954 43.482L449.68 42.922C449.96 42.2873 450.404 41.7693 451.01 41.368C451.626 40.9573 452.27 40.752 452.942 40.752C453.568 40.752 454.123 40.892 454.608 41.172C455.103 41.452 455.486 41.844 455.756 42.348C456.036 42.8427 456.176 43.412 456.176 44.056C456.176 44.6907 455.985 45.3207 455.602 45.946C455.229 46.5713 454.772 47.15 454.23 47.682C453.698 48.214 453.017 48.8347 452.186 49.544L451.934 49.768H456.33V51.042H450.016L449.876 49.768Z" fill="white"/>
<line x1="465" y1="45.4" x2="568" y2="45.4" stroke="#C2C2C2" stroke-width="1.2"/>
<path d="M568.6 46C568.6 39.704 573.704 34.6 580 34.6C586.296 34.6 591.4 39.704 591.4 46C591.4 52.296 586.296 57.4 580 57.4C573.704 57.4 568.6 52.296 568.6 46Z" stroke="#C2C2C2" stroke-width="1.2"/>
<path d="M581.961 45.778C582.409 46.0393 582.764 46.394 583.025 46.842C583.296 47.2807 583.431 47.7193 583.431 48.158C583.431 48.7273 583.286 49.236 582.997 49.684C582.708 50.132 582.302 50.482 581.779 50.734C581.256 50.986 580.664 51.112 580.001 51.112C579.338 51.112 578.746 50.986 578.223 50.734C577.7 50.4727 577.29 50.1133 576.991 49.656C576.702 49.1893 576.557 48.662 576.557 48.074H578.013C578.013 48.5873 578.2 49.0073 578.573 49.334C578.946 49.6607 579.422 49.824 580.001 49.824C580.598 49.824 581.084 49.6653 581.457 49.348C581.83 49.0213 582.017 48.6013 582.017 48.088C582.017 47.584 581.83 47.1733 581.457 46.856C581.084 46.5387 580.608 46.38 580.029 46.38H579.301V45.162H580.029C580.57 45.162 581.014 45.0173 581.359 44.728C581.704 44.4387 581.877 44.0653 581.877 43.608C581.877 43.1507 581.709 42.782 581.373 42.502C581.037 42.2127 580.608 42.068 580.085 42.068C579.572 42.068 579.147 42.2127 578.811 42.502C578.484 42.7913 578.321 43.1647 578.321 43.622H576.865C576.865 43.0713 577 42.5813 577.271 42.152C577.551 41.7133 577.934 41.3773 578.419 41.144C578.904 40.9013 579.46 40.78 580.085 40.78C580.701 40.78 581.252 40.8967 581.737 41.13C582.232 41.3633 582.614 41.69 582.885 42.11C583.156 42.53 583.291 43.006 583.291 43.538C583.291 43.9393 583.17 44.35 582.927 44.77C582.684 45.1807 582.362 45.5167 581.961 45.778Z" fill="#6B6B6B"/>
<path d="M598.5 143L598.5 135" stroke="#6B6B6B" stroke-width="1.2"/>
<path d="M609.672 142.964C610.26 142.964 610.736 142.796 611.1 142.46C611.473 142.115 611.66 141.671 611.66 141.13C611.66 140.589 611.473 140.15 611.1 139.814C610.736 139.469 610.26 139.296 609.672 139.296C609.075 139.296 608.589 139.469 608.216 139.814C607.843 140.15 607.656 140.589 607.656 141.13C607.656 141.671 607.843 142.115 608.216 142.46C608.589 142.796 609.075 142.964 609.672 142.964ZM606.2 141.158C606.2 140.701 606.359 140.243 606.676 139.786C606.993 139.319 607.399 138.951 607.894 138.68C607.483 138.4 607.147 138.055 606.886 137.644C606.625 137.233 606.494 136.846 606.494 136.482C606.494 135.941 606.629 135.46 606.9 135.04C607.171 134.611 607.544 134.279 608.02 134.046C608.505 133.803 609.056 133.682 609.672 133.682C610.288 133.682 610.834 133.803 611.31 134.046C611.795 134.279 612.173 134.611 612.444 135.04C612.715 135.46 612.85 135.941 612.85 136.482C612.85 136.855 612.719 137.247 612.458 137.658C612.197 138.069 611.861 138.409 611.45 138.68C611.945 138.96 612.346 139.329 612.654 139.786C612.962 140.243 613.116 140.701 613.116 141.158C613.116 141.746 612.971 142.273 612.682 142.74C612.393 143.197 611.987 143.557 611.464 143.818C610.941 144.07 610.344 144.196 609.672 144.196C609 144.196 608.398 144.07 607.866 143.818C607.343 143.557 606.933 143.197 606.634 142.74C606.345 142.273 606.2 141.746 606.2 141.158ZM607.95 136.482C607.95 136.949 608.109 137.327 608.426 137.616C608.743 137.905 609.159 138.05 609.672 138.05C610.176 138.05 610.587 137.905 610.904 137.616C611.231 137.317 611.394 136.939 611.394 136.482C611.394 136.025 611.231 135.651 610.904 135.362C610.587 135.063 610.176 134.914 609.672 134.914C609.159 134.914 608.743 135.059 608.426 135.348C608.109 135.637 607.95 136.015 607.95 136.482ZM618.433 142.964C619.058 142.964 619.567 142.735 619.959 142.278C620.351 141.811 620.547 141.205 620.547 140.458C620.547 139.721 620.351 139.123 619.959 138.666C619.567 138.209 619.058 137.98 618.433 137.98C618.041 137.98 617.677 138.092 617.341 138.316C617.005 138.54 616.739 138.843 616.543 139.226C616.347 139.599 616.249 140.01 616.249 140.458C616.249 140.915 616.347 141.335 616.543 141.718C616.739 142.101 617.005 142.404 617.341 142.628C617.677 142.852 618.041 142.964 618.433 142.964ZM614.779 136.776H616.235V138.036C616.487 137.616 616.837 137.303 617.285 137.098C617.733 136.883 618.144 136.776 618.517 136.776C619.198 136.776 619.8 136.935 620.323 137.252C620.855 137.56 621.266 137.994 621.555 138.554C621.854 139.105 622.003 139.739 622.003 140.458C622.003 141.177 621.854 141.821 621.555 142.39C621.266 142.95 620.855 143.389 620.323 143.706C619.8 144.014 619.198 144.168 618.517 144.168C618.144 144.168 617.733 144.061 617.285 143.846C616.837 143.622 616.487 143.3 616.235 142.88V147.234H614.779V136.776ZM627.146 140.444L629.848 144.098H628.042L626.292 141.62L624.556 144.098H622.75L625.41 140.444L622.694 136.776H624.514L626.292 139.324L628.056 136.776H629.876L627.146 140.444Z" fill="#6B6B6B"/>
<rect x="308" y="143" width="8.00015" height="290" transform="rotate(-90 308 143)" fill="#FF0000" fill-opacity="0.1"/>
</svg>
