<svg width="908" height="135" viewBox="0 0 908 135" fill="none" xmlns="http://www.w3.org/2000/svg">
<rect width="907" height="135" transform="translate(0.5)" fill="white"/>
<rect x="315.6" y="55.6" width="22.8" height="22.8" rx="11.4" fill="white"/>
<rect x="315.6" y="55.6" width="22.8" height="22.8" rx="11.4" stroke="#368FF7" stroke-width="1.2"/>
<path d="M328.533 72.042L327.077 72.028V63.418L325.299 64.426L324.683 63.208L327.091 61.864H328.533V72.042Z" fill="#368FF7"/>
<line x1="339" y1="66.4" x2="378.5" y2="66.4" stroke="#368FF7" stroke-width="1.2"/>
<path d="M378.5 67C378.5 60.3726 383.873 55 390.5 55C397.127 55 402.5 60.3726 402.5 67C402.5 73.6274 397.127 79 390.5 79C383.873 79 378.5 73.6274 378.5 67Z" fill="#368FF7"/>
<path d="M387.376 70.768C387.507 70.6467 387.983 70.208 388.804 69.452C389.56 68.7707 390.162 68.2107 390.61 67.772C391.068 67.324 391.45 66.8667 391.758 66.4C392.066 65.924 392.22 65.476 392.22 65.056C392.22 64.4773 392.052 64.006 391.716 63.642C391.39 63.2687 390.965 63.082 390.442 63.082C390.041 63.082 389.654 63.2127 389.28 63.474C388.907 63.7353 388.632 64.0713 388.454 64.482L387.18 63.922C387.46 63.2873 387.904 62.7693 388.51 62.368C389.126 61.9573 389.77 61.752 390.442 61.752C391.068 61.752 391.623 61.892 392.108 62.172C392.603 62.452 392.986 62.844 393.256 63.348C393.536 63.8427 393.676 64.412 393.676 65.056C393.676 65.6907 393.485 66.3207 393.102 66.946C392.729 67.5713 392.272 68.15 391.73 68.682C391.198 69.214 390.517 69.8347 389.686 70.544L389.434 70.768H393.83V72.042H387.516L387.376 70.768Z" fill="white"/>
<line x1="402.5" y1="66.4" x2="442" y2="66.4" stroke="#C2C2C2" stroke-width="1.2"/>
<path d="M442.6 67C442.6 60.704 447.704 55.6 454 55.6C460.296 55.6 465.4 60.704 465.4 67C465.4 73.296 460.296 78.4 454 78.4C447.704 78.4 442.6 73.296 442.6 67Z" stroke="#C2C2C2" stroke-width="1.2"/>
<path d="M455.961 66.778C456.409 67.0393 456.764 67.394 457.025 67.842C457.296 68.2807 457.431 68.7193 457.431 69.158C457.431 69.7273 457.286 70.236 456.997 70.684C456.708 71.132 456.302 71.482 455.779 71.734C455.256 71.986 454.664 72.112 454.001 72.112C453.338 72.112 452.746 71.986 452.223 71.734C451.7 71.4727 451.29 71.1133 450.991 70.656C450.702 70.1893 450.557 69.662 450.557 69.074H452.013C452.013 69.5873 452.2 70.0073 452.573 70.334C452.946 70.6607 453.422 70.824 454.001 70.824C454.598 70.824 455.084 70.6653 455.457 70.348C455.83 70.0213 456.017 69.6013 456.017 69.088C456.017 68.584 455.83 68.1733 455.457 67.856C455.084 67.5387 454.608 67.38 454.029 67.38H453.301V66.162H454.029C454.57 66.162 455.014 66.0173 455.359 65.728C455.704 65.4387 455.877 65.0653 455.877 64.608C455.877 64.1507 455.709 63.782 455.373 63.502C455.037 63.2127 454.608 63.068 454.085 63.068C453.572 63.068 453.147 63.2127 452.811 63.502C452.484 63.7913 452.321 64.1647 452.321 64.622H450.865C450.865 64.0713 451 63.5813 451.271 63.152C451.551 62.7133 451.934 62.3773 452.419 62.144C452.904 61.9013 453.46 61.78 454.085 61.78C454.701 61.78 455.252 61.8967 455.737 62.13C456.232 62.3633 456.614 62.69 456.885 63.11C457.156 63.53 457.291 64.006 457.291 64.538C457.291 64.9393 457.17 65.35 456.927 65.77C456.684 66.1807 456.362 66.5167 455.961 66.778Z" fill="#6B6B6B"/>
<line x1="466" y1="66.4" x2="505.5" y2="66.4" stroke="#C2C2C2" stroke-width="1.2"/>
<path d="M506.1 67C506.1 60.704 511.204 55.6 517.5 55.6C523.796 55.6 528.9 60.704 528.9 67C528.9 73.296 523.796 78.4 517.5 78.4C511.204 78.4 506.1 73.296 506.1 67Z" stroke="#C2C2C2" stroke-width="1.2"/>
<path d="M519.83 68.122H521.132V69.396H519.83V72.042H518.388V69.396H513.992L513.852 68.122L518.444 61.85H519.83V68.122ZM518.388 68.122V64.272L515.588 68.122H518.388Z" fill="#6B6B6B"/>
<line x1="529.5" y1="66.4" x2="569" y2="66.4" stroke="#C2C2C2" stroke-width="1.2"/>
<path d="M569.6 67C569.6 60.704 574.704 55.6 581 55.6C587.296 55.6 592.4 60.704 592.4 67C592.4 73.296 587.296 78.4 581 78.4C574.704 78.4 569.6 73.296 569.6 67Z" stroke="#C2C2C2" stroke-width="1.2"/>
<path d="M577.902 67.282L578.238 61.85H583.67V63.124H579.638L579.47 65.658C579.965 65.434 580.45 65.322 580.926 65.322C581.617 65.322 582.233 65.4667 582.774 65.756C583.325 66.0453 583.749 66.4467 584.048 66.96C584.356 67.4733 584.51 68.0613 584.51 68.724C584.51 69.396 584.356 69.9933 584.048 70.516C583.749 71.0387 583.325 71.4447 582.774 71.734C582.233 72.0233 581.617 72.168 580.926 72.168C580.385 72.168 579.876 72.056 579.4 71.832C578.924 71.608 578.518 71.2953 578.182 70.894C577.846 70.4927 577.617 70.0353 577.496 69.522L578.91 69.186C579.022 69.662 579.265 70.054 579.638 70.362C580.011 70.6607 580.441 70.81 580.926 70.81C581.551 70.81 582.06 70.6187 582.452 70.236C582.853 69.844 583.054 69.34 583.054 68.724C583.054 68.1267 582.853 67.6413 582.452 67.268C582.06 66.8853 581.551 66.694 580.926 66.694C580.665 66.694 580.389 66.7687 580.1 66.918C579.811 67.058 579.559 67.24 579.344 67.464L577.902 67.282Z" fill="#6B6B6B"/>
</svg>
