<svg width="278" height="24" viewBox="0 0 278 24" fill="none" xmlns="http://www.w3.org/2000/svg">
<rect x="0.6" y="0.6" width="22.8" height="22.8" rx="11.4" fill="white"/>
<rect x="0.6" y="0.6" width="22.8" height="22.8" rx="11.4" stroke="#368FF7" stroke-width="1.2"/>
<path d="M13.5327 17.042L12.0767 17.028V8.418L10.2987 9.426L9.68273 8.208L12.0907 6.864H13.5327V17.042Z" fill="#368FF7"/>
<line x1="24" y1="11.4" x2="63.5" y2="11.4" stroke="#368FF7" stroke-width="1.2"/>
<path d="M63.5 12C63.5 5.37258 68.8726 0 75.5 0C82.1274 0 87.5 5.37258 87.5 12C87.5 18.6274 82.1274 24 75.5 24C68.8726 24 63.5 18.6274 63.5 12Z" fill="#368FF7"/>
<path d="M72.3765 15.768C72.5071 15.6467 72.9831 15.208 73.8045 14.452C74.5605 13.7707 75.1625 13.2107 75.6105 12.772C76.0678 12.324 76.4505 11.8667 76.7585 11.4C77.0665 10.924 77.2205 10.476 77.2205 10.056C77.2205 9.47733 77.0525 9.006 76.7165 8.642C76.3898 8.26867 75.9651 8.082 75.4425 8.082C75.0411 8.082 74.6538 8.21267 74.2805 8.474C73.9071 8.73533 73.6318 9.07133 73.4545 9.482L72.1805 8.922C72.4605 8.28733 72.9038 7.76933 73.5105 7.368C74.1265 6.95733 74.7705 6.752 75.4425 6.752C76.0678 6.752 76.6231 6.892 77.1085 7.172C77.6031 7.452 77.9858 7.844 78.2565 8.348C78.5365 8.84267 78.6765 9.412 78.6765 10.056C78.6765 10.6907 78.4851 11.3207 78.1025 11.946C77.7291 12.5713 77.2718 13.15 76.7305 13.682C76.1985 14.214 75.5171 14.8347 74.6865 15.544L74.4345 15.768H78.8305V17.042H72.5165L72.3765 15.768Z" fill="white"/>
<line x1="87.5" y1="11.4" x2="127" y2="11.4" stroke="#C2C2C2" stroke-width="1.2"/>
<path d="M127.6 12C127.6 5.70395 132.704 0.6 139 0.6C145.296 0.6 150.4 5.70395 150.4 12C150.4 18.296 145.296 23.4 139 23.4C132.704 23.4 127.6 18.296 127.6 12Z" stroke="#C2C2C2" stroke-width="1.2"/>
<path d="M140.961 11.778C141.409 12.0393 141.764 12.394 142.025 12.842C142.296 13.2807 142.431 13.7193 142.431 14.158C142.431 14.7273 142.286 15.236 141.997 15.684C141.708 16.132 141.302 16.482 140.779 16.734C140.256 16.986 139.664 17.112 139.001 17.112C138.338 17.112 137.746 16.986 137.223 16.734C136.7 16.4727 136.29 16.1133 135.991 15.656C135.702 15.1893 135.557 14.662 135.557 14.074H137.013C137.013 14.5873 137.2 15.0073 137.573 15.334C137.946 15.6607 138.422 15.824 139.001 15.824C139.598 15.824 140.084 15.6653 140.457 15.348C140.83 15.0213 141.017 14.6013 141.017 14.088C141.017 13.584 140.83 13.1733 140.457 12.856C140.084 12.5387 139.608 12.38 139.029 12.38H138.301V11.162H139.029C139.57 11.162 140.014 11.0173 140.359 10.728C140.704 10.4387 140.877 10.0653 140.877 9.608C140.877 9.15067 140.709 8.782 140.373 8.502C140.037 8.21267 139.608 8.068 139.085 8.068C138.572 8.068 138.147 8.21267 137.811 8.502C137.484 8.79133 137.321 9.16467 137.321 9.622H135.865C135.865 9.07133 136 8.58133 136.271 8.152C136.551 7.71333 136.934 7.37733 137.419 7.144C137.904 6.90133 138.46 6.78 139.085 6.78C139.701 6.78 140.252 6.89667 140.737 7.13C141.232 7.36333 141.614 7.69 141.885 8.11C142.156 8.53 142.291 9.006 142.291 9.538C142.291 9.93933 142.17 10.35 141.927 10.77C141.684 11.1807 141.362 11.5167 140.961 11.778Z" fill="#6B6B6B"/>
<line x1="151" y1="11.4" x2="190.5" y2="11.4" stroke="#C2C2C2" stroke-width="1.2"/>
<path d="M191.1 12C191.1 5.70395 196.204 0.6 202.5 0.6C208.796 0.6 213.9 5.70395 213.9 12C213.9 18.296 208.796 23.4 202.5 23.4C196.204 23.4 191.1 18.296 191.1 12Z" stroke="#C2C2C2" stroke-width="1.2"/>
<path d="M204.83 13.122H206.132V14.396H204.83V17.042H203.388V14.396H198.992L198.852 13.122L203.444 6.85H204.83V13.122ZM203.388 13.122V9.272L200.588 13.122H203.388Z" fill="#6B6B6B"/>
<line x1="214.5" y1="11.4" x2="254" y2="11.4" stroke="#C2C2C2" stroke-width="1.2"/>
<path d="M254.6 12C254.6 5.70395 259.704 0.6 266 0.6C272.296 0.6 277.4 5.70395 277.4 12C277.4 18.296 272.296 23.4 266 23.4C259.704 23.4 254.6 18.296 254.6 12Z" stroke="#C2C2C2" stroke-width="1.2"/>
<path d="M262.902 12.282L263.238 6.85H268.67V8.124H264.638L264.47 10.658C264.965 10.434 265.45 10.322 265.926 10.322C266.617 10.322 267.233 10.4667 267.774 10.756C268.325 11.0453 268.749 11.4467 269.048 11.96C269.356 12.4733 269.51 13.0613 269.51 13.724C269.51 14.396 269.356 14.9933 269.048 15.516C268.749 16.0387 268.325 16.4447 267.774 16.734C267.233 17.0233 266.617 17.168 265.926 17.168C265.385 17.168 264.876 17.056 264.4 16.832C263.924 16.608 263.518 16.2953 263.182 15.894C262.846 15.4927 262.617 15.0353 262.496 14.522L263.91 14.186C264.022 14.662 264.265 15.054 264.638 15.362C265.011 15.6607 265.441 15.81 265.926 15.81C266.551 15.81 267.06 15.6187 267.452 15.236C267.853 14.844 268.054 14.34 268.054 13.724C268.054 13.1267 267.853 12.6413 267.452 12.268C267.06 11.8853 266.551 11.694 265.926 11.694C265.665 11.694 265.389 11.7687 265.1 11.918C264.811 12.058 264.559 12.24 264.344 12.464L262.902 12.282Z" fill="#6B6B6B"/>
</svg>
