<svg width="842" height="134" viewBox="0 0 842 134" fill="none" xmlns="http://www.w3.org/2000/svg">
<rect x="0.4" y="0.4" width="131.2" height="99.2" rx="11.6" fill="white" stroke="#C2C2C2" stroke-width="0.8"/>
<path d="M21.3438 130V118.625H24.7266C25.1953 118.63 25.6536 118.693 26.1016 118.812C26.5495 118.927 26.9479 119.107 27.2969 119.352C27.6458 119.596 27.9245 119.909 28.1328 120.289C28.3411 120.669 28.4427 121.125 28.4375 121.656C28.4323 121.953 28.3828 122.224 28.2891 122.469C28.2005 122.714 28.0781 122.932 27.9219 123.125C27.7604 123.323 27.5807 123.49 27.3828 123.625C27.1901 123.76 26.9557 123.888 26.6797 124.008V124.031C26.9661 124.099 27.2422 124.221 27.5078 124.398C27.7734 124.576 27.9922 124.771 28.1641 124.984C28.3464 125.219 28.487 125.482 28.5859 125.773C28.6901 126.065 28.7422 126.38 28.7422 126.719C28.7474 127.25 28.6458 127.719 28.4375 128.125C28.2292 128.531 27.9505 128.87 27.6016 129.141C27.2526 129.417 26.849 129.628 26.3906 129.773C25.9375 129.919 25.4688 129.995 24.9844 130H21.3438ZM22.7969 124.68V128.773H25.0234C25.3255 128.768 25.612 128.719 25.8828 128.625C26.1536 128.526 26.3932 128.391 26.6016 128.219C26.8099 128.047 26.974 127.836 27.0938 127.586C27.2188 127.336 27.2812 127.052 27.2812 126.734C27.2865 126.411 27.2318 126.125 27.1172 125.875C27.0078 125.625 26.8542 125.411 26.6562 125.234C26.4583 125.062 26.2266 124.93 25.9609 124.836C25.6953 124.742 25.4089 124.69 25.1016 124.68H22.7969ZM22.7969 123.477H24.8125C25.0833 123.471 25.349 123.43 25.6094 123.352C25.8698 123.268 26.1016 123.148 26.3047 122.992C26.5078 122.841 26.6719 122.654 26.7969 122.43C26.9219 122.206 26.9844 121.945 26.9844 121.648C26.9844 121.331 26.9219 121.06 26.7969 120.836C26.6771 120.612 26.5156 120.427 26.3125 120.281C26.1042 120.141 25.8646 120.036 25.5938 119.969C25.3281 119.901 25.0547 119.865 24.7734 119.859H22.7969V123.477ZM36.0434 130C35.9861 129.891 35.9393 129.755 35.9028 129.594C35.8716 129.427 35.8481 129.255 35.8325 129.078C35.6867 129.224 35.5226 129.362 35.3403 129.492C35.1632 129.622 34.9679 129.737 34.7544 129.836C34.5356 129.935 34.3039 130.013 34.0591 130.07C33.8143 130.128 33.5539 130.156 33.2778 130.156C32.8299 130.156 32.4236 130.091 32.0591 129.961C31.6997 129.831 31.395 129.654 31.145 129.43C30.8898 129.211 30.6919 128.951 30.5513 128.648C30.4158 128.341 30.3481 128.01 30.3481 127.656C30.3481 127.193 30.4393 126.786 30.6216 126.438C30.8091 126.089 31.0721 125.797 31.4106 125.562C31.7492 125.333 32.1554 125.161 32.6294 125.047C33.1085 124.932 33.6424 124.875 34.2309 124.875H35.8091V124.211C35.8091 123.956 35.7622 123.727 35.6684 123.523C35.5747 123.32 35.4419 123.146 35.27 123C35.0981 122.859 34.8872 122.75 34.6372 122.672C34.3924 122.594 34.1164 122.555 33.8091 122.555C33.5226 122.555 33.2648 122.591 33.0356 122.664C32.8117 122.737 32.6216 122.833 32.4653 122.953C32.3091 123.073 32.1867 123.216 32.0981 123.383C32.0148 123.544 31.9731 123.714 31.9731 123.891H30.52C30.5252 123.583 30.6033 123.281 30.7544 122.984C30.9106 122.688 31.1346 122.419 31.4263 122.18C31.7127 121.945 32.0617 121.755 32.4731 121.609C32.8898 121.464 33.3611 121.391 33.8872 121.391C34.3664 121.391 34.8117 121.451 35.2231 121.57C35.6346 121.685 35.9914 121.859 36.2934 122.094C36.5903 122.333 36.8247 122.63 36.9966 122.984C37.1684 123.339 37.2544 123.753 37.2544 124.227V128.156C37.2544 128.438 37.2804 128.737 37.3325 129.055C37.3846 129.367 37.4575 129.641 37.5513 129.875V130H36.0434ZM33.4888 128.898C33.77 128.898 34.033 128.862 34.2778 128.789C34.5226 128.716 34.7466 128.62 34.9497 128.5C35.1476 128.38 35.3195 128.245 35.4653 128.094C35.6111 127.938 35.7257 127.776 35.8091 127.609V125.898H34.4653C33.9653 125.898 33.5278 125.943 33.1528 126.031C32.783 126.115 32.4888 126.245 32.27 126.422C32.1138 126.547 31.994 126.695 31.9106 126.867C31.8325 127.039 31.7934 127.234 31.7934 127.453C31.7934 127.661 31.8273 127.854 31.895 128.031C31.9679 128.208 32.0747 128.359 32.2153 128.484C32.3559 128.615 32.533 128.716 32.7466 128.789C32.9601 128.862 33.2075 128.898 33.4888 128.898ZM43.2197 128.984C43.4801 128.984 43.7327 128.943 43.9775 128.859C44.2275 128.776 44.4489 128.659 44.6416 128.508C44.8343 128.362 44.9879 128.19 45.1025 127.992C45.2223 127.789 45.2848 127.57 45.29 127.336H46.6572C46.652 127.711 46.553 128.07 46.3603 128.414C46.1728 128.753 45.9202 129.049 45.6025 129.305C45.2848 129.565 44.9202 129.773 44.5088 129.93C44.0973 130.081 43.6676 130.156 43.2197 130.156C42.5791 130.156 42.0192 130.042 41.54 129.812C41.0608 129.583 40.6624 129.273 40.3447 128.883C40.0218 128.497 39.7796 128.052 39.6181 127.547C39.4567 127.036 39.3759 126.5 39.3759 125.938V125.609C39.3759 125.052 39.4567 124.518 39.6181 124.008C39.7796 123.497 40.0218 123.047 40.3447 122.656C40.6624 122.271 41.0608 121.964 41.54 121.734C42.0192 121.505 42.5791 121.391 43.2197 121.391C43.7197 121.391 44.178 121.471 44.5947 121.633C45.0166 121.789 45.3811 122.003 45.6884 122.273C45.9905 122.549 46.2275 122.875 46.3994 123.25C46.5713 123.625 46.6572 124.026 46.6572 124.453H45.29C45.2848 124.198 45.2275 123.958 45.1181 123.734C45.014 123.505 44.8707 123.305 44.6884 123.133C44.5061 122.961 44.2874 122.826 44.0322 122.727C43.7822 122.628 43.5114 122.578 43.2197 122.578C42.7718 122.578 42.3942 122.669 42.0869 122.852C41.7848 123.029 41.54 123.26 41.3525 123.547C41.165 123.839 41.0296 124.164 40.9463 124.523C40.8681 124.883 40.8291 125.245 40.8291 125.609V125.938C40.8291 126.307 40.8681 126.674 40.9463 127.039C41.0296 127.398 41.165 127.721 41.3525 128.008C41.5348 128.299 41.777 128.536 42.0791 128.719C42.3864 128.896 42.7666 128.984 43.2197 128.984ZM51.2787 126.055L50.2162 127.078V130H48.7631V118H50.2162V125.344L51.1616 124.328L53.935 121.547H55.6928L52.2709 125.07L56.2162 130H54.3803L51.2787 126.055ZM57.6113 125.703C57.6113 125.073 57.6868 124.495 57.8378 123.969C57.9941 123.438 58.218 122.982 58.5097 122.602C58.8014 122.221 59.1555 121.924 59.5722 121.711C59.9889 121.497 60.4602 121.391 60.9863 121.391C61.3248 121.391 61.6347 121.43 61.9159 121.508C62.2024 121.586 62.4602 121.701 62.6894 121.852C62.8144 121.93 62.9316 122.021 63.0409 122.125C63.1555 122.229 63.2623 122.344 63.3613 122.469L63.4316 121.547H64.7441V129.82C64.7441 130.378 64.6555 130.872 64.4784 131.305C64.3066 131.737 64.0644 132.104 63.7519 132.406C63.4342 132.708 63.0566 132.938 62.6191 133.094C62.1816 133.25 61.6972 133.328 61.1659 133.328C60.9472 133.328 60.6972 133.302 60.4159 133.25C60.1347 133.203 59.8508 133.122 59.5644 133.008C59.2727 132.898 58.9915 132.75 58.7206 132.562C58.455 132.375 58.2258 132.143 58.0331 131.867L58.7831 131C58.9602 131.214 59.1425 131.393 59.33 131.539C59.5175 131.69 59.7076 131.81 59.9003 131.898C60.093 131.987 60.2857 132.049 60.4784 132.086C60.6711 132.128 60.8639 132.148 61.0566 132.148C61.4003 132.148 61.7102 132.099 61.9863 132C62.2623 131.901 62.4993 131.755 62.6972 131.562C62.8899 131.375 63.0383 131.141 63.1425 130.859C63.2467 130.578 63.2988 130.255 63.2988 129.891V129.164C63.1894 129.289 63.0722 129.404 62.9472 129.508C62.8274 129.612 62.6972 129.703 62.5566 129.781C62.3378 129.901 62.0956 129.992 61.83 130.055C61.5644 130.122 61.2779 130.156 60.9706 130.156C60.455 130.156 59.9889 130.047 59.5722 129.828C59.1555 129.609 58.804 129.307 58.5175 128.922C58.2258 128.536 58.0019 128.083 57.8456 127.562C57.6894 127.036 57.6113 126.471 57.6113 125.867V125.703ZM59.0566 125.867C59.0566 126.279 59.0982 126.669 59.1816 127.039C59.2701 127.409 59.4081 127.734 59.5956 128.016C59.7779 128.297 60.0123 128.521 60.2988 128.688C60.5852 128.849 60.929 128.93 61.33 128.93C61.58 128.93 61.804 128.901 62.0019 128.844C62.205 128.781 62.3873 128.695 62.5488 128.586C62.705 128.477 62.8456 128.346 62.9706 128.195C63.0956 128.044 63.205 127.878 63.2988 127.695V123.82C63.205 123.643 63.0956 123.482 62.9706 123.336C62.8456 123.19 62.7024 123.062 62.5409 122.953C62.3795 122.849 62.1998 122.768 62.0019 122.711C61.804 122.648 61.5852 122.617 61.3456 122.617C60.9394 122.617 60.5904 122.701 60.2988 122.867C60.0123 123.034 59.7779 123.258 59.5956 123.539C59.4081 123.826 59.2701 124.156 59.1816 124.531C59.0982 124.901 59.0566 125.292 59.0566 125.703V125.867ZM72.5453 121.391C72.8109 121.391 73.087 121.409 73.3734 121.445C73.6651 121.482 73.8839 121.531 74.0297 121.594L73.8344 123.008C73.5531 122.945 73.2849 122.901 73.0297 122.875C72.7797 122.844 72.5167 122.828 72.2406 122.828C71.8865 122.828 71.5661 122.872 71.2797 122.961C70.9932 123.044 70.7432 123.169 70.5297 123.336C70.337 123.482 70.1677 123.661 70.0219 123.875C69.8812 124.083 69.7641 124.318 69.6703 124.578V130H68.2172V121.547H69.5922L69.6547 122.68L69.6625 122.891C70.0062 122.427 70.4177 122.062 70.8969 121.797C71.3812 121.526 71.9307 121.391 72.5453 121.391ZM75.7294 125.695C75.7294 125.086 75.8179 124.521 75.995 124C76.1721 123.474 76.4273 123.018 76.7606 122.633C77.0887 122.247 77.4898 121.945 77.9637 121.727C78.4377 121.503 78.9716 121.391 79.5653 121.391C80.1643 121.391 80.7007 121.503 81.1747 121.727C81.6539 121.945 82.0601 122.247 82.3934 122.633C82.7216 123.018 82.9742 123.474 83.1512 124C83.3283 124.521 83.4169 125.086 83.4169 125.695V125.867C83.4169 126.477 83.3283 127.042 83.1512 127.562C82.9742 128.083 82.7216 128.536 82.3934 128.922C82.0601 129.307 81.6565 129.609 81.1825 129.828C80.7085 130.047 80.1747 130.156 79.5809 130.156C78.982 130.156 78.4429 130.047 77.9637 129.828C77.4898 129.609 77.0887 129.307 76.7606 128.922C76.4273 128.536 76.1721 128.083 75.995 127.562C75.8179 127.042 75.7294 126.477 75.7294 125.867V125.695ZM77.1747 125.867C77.1747 126.284 77.2242 126.682 77.3231 127.062C77.4221 127.438 77.5731 127.768 77.7762 128.055C77.9742 128.341 78.2242 128.568 78.5262 128.734C78.8283 128.901 79.1799 128.984 79.5809 128.984C79.9768 128.984 80.3231 128.901 80.62 128.734C80.9221 128.568 81.1747 128.341 81.3778 128.055C81.5757 127.768 81.7242 127.438 81.8231 127.062C81.9221 126.682 81.9716 126.284 81.9716 125.867V125.695C81.9716 125.284 81.9195 124.891 81.8153 124.516C81.7164 124.135 81.5679 123.802 81.37 123.516C81.1669 123.229 80.9143 123.003 80.6122 122.836C80.3153 122.664 79.9664 122.578 79.5653 122.578C79.1643 122.578 78.8153 122.664 78.5184 122.836C78.2216 123.003 77.9742 123.229 77.7762 123.516C77.5731 123.802 77.4221 124.135 77.3231 124.516C77.2242 124.891 77.1747 125.284 77.1747 125.695V125.867ZM90.8353 130L90.7494 128.836C90.4681 129.253 90.1166 129.578 89.6947 129.812C89.2728 130.042 88.7858 130.156 88.2337 130.156C87.791 130.156 87.39 130.089 87.0306 129.953C86.6712 129.812 86.364 129.596 86.1087 129.305C85.8535 129.013 85.6556 128.643 85.515 128.195C85.3796 127.742 85.3119 127.201 85.3119 126.57V121.547H86.7572V126.586C86.7572 127.044 86.7936 127.424 86.8666 127.727C86.9395 128.029 87.0489 128.268 87.1947 128.445C87.3405 128.628 87.5176 128.755 87.7259 128.828C87.9395 128.901 88.1843 128.938 88.4603 128.938C88.7832 128.938 89.0723 128.901 89.3275 128.828C89.5827 128.75 89.8041 128.643 89.9916 128.508C90.1478 128.398 90.2832 128.268 90.3978 128.117C90.5176 127.961 90.6166 127.792 90.6947 127.609V121.547H92.1478V130H90.8353ZM94.3944 130V121.547H95.6913L95.7928 122.797C95.9178 122.62 96.0532 122.458 96.1991 122.312C96.3501 122.161 96.509 122.031 96.6756 121.922C96.9256 121.755 97.1965 121.628 97.4881 121.539C97.785 121.445 98.0975 121.396 98.4256 121.391C98.8683 121.391 99.2694 121.453 99.6288 121.578C99.9933 121.703 100.303 121.898 100.558 122.164C100.814 122.43 101.009 122.768 101.144 123.18C101.285 123.586 101.355 124.07 101.355 124.633V130H99.91V124.664C99.91 124.289 99.8683 123.971 99.785 123.711C99.7017 123.451 99.5793 123.24 99.4178 123.078C99.2511 122.917 99.048 122.799 98.8084 122.727C98.5741 122.654 98.3032 122.617 97.9959 122.617C97.7303 122.617 97.4829 122.656 97.2538 122.734C97.0246 122.807 96.8136 122.909 96.6209 123.039C96.4647 123.154 96.3189 123.286 96.1834 123.438C96.0532 123.589 95.9386 123.755 95.8397 123.938V130H94.3944ZM103.25 125.703C103.25 125.073 103.328 124.495 103.485 123.969C103.646 123.438 103.875 122.982 104.172 122.602C104.464 122.221 104.818 121.924 105.235 121.711C105.651 121.497 106.118 121.391 106.633 121.391C107.138 121.391 107.578 121.477 107.953 121.648C108.334 121.815 108.662 122.06 108.938 122.383V118H110.383V130H109.055L108.993 129.109C108.711 129.453 108.375 129.714 107.985 129.891C107.594 130.068 107.138 130.156 106.618 130.156C106.107 130.156 105.644 130.047 105.227 129.828C104.815 129.609 104.464 129.307 104.172 128.922C103.881 128.536 103.654 128.083 103.493 127.562C103.331 127.036 103.25 126.471 103.25 125.867V125.703ZM104.696 125.867C104.696 126.279 104.74 126.669 104.828 127.039C104.917 127.409 105.055 127.734 105.243 128.016C105.425 128.297 105.659 128.521 105.946 128.688C106.232 128.849 106.576 128.93 106.977 128.93C107.461 128.93 107.862 128.82 108.18 128.602C108.498 128.383 108.75 128.089 108.938 127.719V123.797C108.75 123.453 108.498 123.172 108.18 122.953C107.862 122.729 107.466 122.617 106.993 122.617C106.586 122.617 106.237 122.701 105.946 122.867C105.659 123.034 105.425 123.258 105.243 123.539C105.055 123.826 104.917 124.156 104.828 124.531C104.74 124.901 104.696 125.292 104.696 125.703V125.867Z" fill="#6B6B6B"/>
<rect x="142" width="132" height="100" rx="12" fill="#368FF7"/>
<path d="M178.438 125.438V130H176.992V118.625H180.68C181.19 118.635 181.672 118.716 182.125 118.867C182.583 119.018 182.984 119.237 183.328 119.523C183.672 119.81 183.943 120.164 184.141 120.586C184.344 121.008 184.445 121.492 184.445 122.039C184.445 122.586 184.344 123.07 184.141 123.492C183.943 123.909 183.672 124.26 183.328 124.547C182.984 124.833 182.583 125.052 182.125 125.203C181.672 125.354 181.19 125.432 180.68 125.438H178.438ZM178.438 124.25H180.68C181.013 124.245 181.32 124.193 181.602 124.094C181.883 123.99 182.128 123.844 182.336 123.656C182.544 123.469 182.706 123.242 182.82 122.977C182.94 122.706 183 122.398 183 122.055C183 121.711 182.94 121.401 182.82 121.125C182.706 120.849 182.547 120.615 182.344 120.422C182.135 120.229 181.888 120.081 181.602 119.977C181.32 119.872 181.013 119.818 180.68 119.812H178.438V124.25ZM191.528 121.391C191.793 121.391 192.069 121.409 192.356 121.445C192.648 121.482 192.866 121.531 193.012 121.594L192.817 123.008C192.536 122.945 192.267 122.901 192.012 122.875C191.762 122.844 191.499 122.828 191.223 122.828C190.869 122.828 190.549 122.872 190.262 122.961C189.976 123.044 189.726 123.169 189.512 123.336C189.319 123.482 189.15 123.661 189.004 123.875C188.864 124.083 188.747 124.318 188.653 124.578V130H187.2V121.547H188.575L188.637 122.68L188.645 122.891C188.989 122.427 189.4 122.062 189.879 121.797C190.364 121.526 190.913 121.391 191.528 121.391ZM195.345 121.547H199.665V128.75H202.423V130H195.345V128.75H198.22V122.805H195.345V121.547ZM198.032 119.328C198.032 119.203 198.05 119.086 198.087 118.977C198.129 118.867 198.191 118.773 198.274 118.695C198.342 118.628 198.428 118.576 198.532 118.539C198.642 118.497 198.764 118.477 198.899 118.477C199.035 118.477 199.155 118.497 199.259 118.539C199.363 118.576 199.449 118.628 199.517 118.695C199.6 118.768 199.662 118.859 199.704 118.969C199.746 119.078 199.767 119.198 199.767 119.328C199.767 119.562 199.694 119.758 199.548 119.914C199.402 120.07 199.186 120.148 198.899 120.148C198.608 120.148 198.389 120.07 198.243 119.914C198.103 119.758 198.032 119.562 198.032 119.328ZM204.912 121.547L204.951 122.344C205.122 122.047 205.346 121.815 205.622 121.648C205.904 121.482 206.242 121.396 206.638 121.391C206.862 121.391 207.063 121.417 207.24 121.469C207.422 121.516 207.581 121.586 207.716 121.68C207.815 121.753 207.904 121.841 207.982 121.945C208.065 122.049 208.136 122.167 208.193 122.297C208.266 122.177 208.352 122.065 208.451 121.961C208.55 121.857 208.656 121.766 208.771 121.688C208.917 121.599 209.078 121.529 209.255 121.477C209.438 121.424 209.636 121.396 209.849 121.391C210.141 121.391 210.404 121.435 210.638 121.523C210.872 121.607 211.07 121.732 211.232 121.898C211.409 122.086 211.544 122.331 211.638 122.633C211.732 122.93 211.779 123.281 211.779 123.688V130H210.404V123.672C210.404 123.495 210.383 123.339 210.341 123.203C210.3 123.068 210.24 122.956 210.162 122.867C210.078 122.784 209.974 122.721 209.849 122.68C209.729 122.638 209.589 122.617 209.427 122.617C209.255 122.617 209.107 122.641 208.982 122.688C208.857 122.734 208.753 122.797 208.669 122.875C208.586 122.958 208.521 123.055 208.474 123.164C208.427 123.268 208.396 123.385 208.38 123.516C208.38 123.542 208.38 123.568 208.38 123.594C208.38 123.615 208.38 123.641 208.38 123.672V130H207.005V123.664C207.005 123.487 206.984 123.331 206.943 123.195C206.906 123.06 206.846 122.948 206.763 122.859C206.685 122.776 206.586 122.716 206.466 122.68C206.352 122.638 206.216 122.617 206.06 122.617C205.888 122.617 205.737 122.638 205.607 122.68C205.482 122.716 205.375 122.771 205.287 122.844C205.219 122.901 205.159 122.966 205.107 123.039C205.06 123.112 205.021 123.19 204.99 123.273V130H203.615V121.547H204.912ZM218.932 130C218.874 129.891 218.827 129.755 218.791 129.594C218.76 129.427 218.736 129.255 218.721 129.078C218.575 129.224 218.411 129.362 218.228 129.492C218.051 129.622 217.856 129.737 217.643 129.836C217.424 129.935 217.192 130.013 216.947 130.07C216.702 130.128 216.442 130.156 216.166 130.156C215.718 130.156 215.312 130.091 214.947 129.961C214.588 129.831 214.283 129.654 214.033 129.43C213.778 129.211 213.58 128.951 213.439 128.648C213.304 128.341 213.236 128.01 213.236 127.656C213.236 127.193 213.327 126.786 213.51 126.438C213.697 126.089 213.96 125.797 214.299 125.562C214.637 125.333 215.044 125.161 215.518 125.047C215.997 124.932 216.531 124.875 217.119 124.875H218.697V124.211C218.697 123.956 218.65 123.727 218.557 123.523C218.463 123.32 218.33 123.146 218.158 123C217.986 122.859 217.775 122.75 217.525 122.672C217.281 122.594 217.004 122.555 216.697 122.555C216.411 122.555 216.153 122.591 215.924 122.664C215.7 122.737 215.51 122.833 215.353 122.953C215.197 123.073 215.075 123.216 214.986 123.383C214.903 123.544 214.861 123.714 214.861 123.891H213.408C213.413 123.583 213.491 123.281 213.643 122.984C213.799 122.688 214.023 122.419 214.314 122.18C214.601 121.945 214.95 121.755 215.361 121.609C215.778 121.464 216.249 121.391 216.775 121.391C217.254 121.391 217.7 121.451 218.111 121.57C218.523 121.685 218.879 121.859 219.182 122.094C219.478 122.333 219.713 122.63 219.885 122.984C220.057 123.339 220.143 123.753 220.143 124.227V128.156C220.143 128.438 220.169 128.737 220.221 129.055C220.273 129.367 220.346 129.641 220.439 129.875V130H218.932ZM216.377 128.898C216.658 128.898 216.921 128.862 217.166 128.789C217.411 128.716 217.635 128.62 217.838 128.5C218.036 128.38 218.208 128.245 218.353 128.094C218.499 127.938 218.614 127.776 218.697 127.609V125.898H217.353C216.853 125.898 216.416 125.943 216.041 126.031C215.671 126.115 215.377 126.245 215.158 126.422C215.002 126.547 214.882 126.695 214.799 126.867C214.721 127.039 214.682 127.234 214.682 127.453C214.682 127.661 214.715 127.854 214.783 128.031C214.856 128.208 214.963 128.359 215.103 128.484C215.244 128.615 215.421 128.716 215.635 128.789C215.848 128.862 216.096 128.898 216.377 128.898ZM228.045 121.391C228.311 121.391 228.587 121.409 228.873 121.445C229.165 121.482 229.384 121.531 229.53 121.594L229.334 123.008C229.053 122.945 228.785 122.901 228.53 122.875C228.28 122.844 228.017 122.828 227.741 122.828C227.386 122.828 227.066 122.872 226.78 122.961C226.493 123.044 226.243 123.169 226.03 123.336C225.837 123.482 225.668 123.661 225.522 123.875C225.381 124.083 225.264 124.318 225.17 124.578V130H223.717V121.547H225.092L225.155 122.68L225.162 122.891C225.506 122.427 225.918 122.062 226.397 121.797C226.881 121.526 227.431 121.391 228.045 121.391ZM232.315 133.414C232.18 133.414 232.021 133.398 231.839 133.367C231.656 133.336 231.518 133.31 231.425 133.289L231.659 132.109C231.789 132.12 231.917 132.128 232.042 132.133C232.172 132.143 232.274 132.148 232.347 132.148C232.544 132.148 232.724 132.094 232.886 131.984C233.052 131.875 233.201 131.745 233.331 131.594C233.456 131.443 233.563 131.286 233.651 131.125C233.745 130.964 233.818 130.831 233.87 130.727L234.448 129.602L230.807 121.547H232.425L234.745 127L235.12 128.023L235.518 127.031L237.698 121.547H239.315L235.026 131.305C234.927 131.523 234.8 131.755 234.643 132C234.492 132.245 234.307 132.471 234.089 132.68C233.87 132.888 233.615 133.062 233.323 133.203C233.031 133.344 232.696 133.414 232.315 133.414Z" fill="#6B6B6B"/>
<rect x="284" width="132" height="100" rx="12" fill="#6B6B6B"/>
<path d="M343.312 127.125C343.312 126.776 343.232 126.482 343.07 126.242C342.914 126.003 342.711 125.799 342.461 125.633C342.211 125.471 341.935 125.336 341.633 125.227C341.336 125.117 341.049 125.018 340.773 124.93C340.372 124.799 339.964 124.643 339.547 124.461C339.135 124.273 338.76 124.049 338.422 123.789C338.078 123.523 337.797 123.211 337.578 122.852C337.365 122.487 337.258 122.06 337.258 121.57C337.258 121.081 337.365 120.643 337.578 120.258C337.797 119.872 338.081 119.547 338.43 119.281C338.779 119.016 339.174 118.815 339.617 118.68C340.06 118.539 340.505 118.469 340.953 118.469C341.448 118.469 341.924 118.552 342.383 118.719C342.841 118.88 343.247 119.109 343.602 119.406C343.956 119.703 344.24 120.062 344.453 120.484C344.667 120.906 344.779 121.378 344.789 121.898H343.305C343.263 121.57 343.182 121.273 343.062 121.008C342.943 120.737 342.784 120.505 342.586 120.312C342.388 120.12 342.151 119.971 341.875 119.867C341.604 119.758 341.297 119.703 340.953 119.703C340.677 119.703 340.406 119.742 340.141 119.82C339.88 119.898 339.648 120.016 339.445 120.172C339.237 120.328 339.07 120.521 338.945 120.75C338.826 120.979 338.766 121.245 338.766 121.547C338.771 121.875 338.854 122.154 339.016 122.383C339.177 122.607 339.383 122.797 339.633 122.953C339.878 123.109 340.143 123.24 340.43 123.344C340.721 123.448 340.995 123.539 341.25 123.617C341.672 123.747 342.094 123.906 342.516 124.094C342.938 124.276 343.323 124.51 343.672 124.797C344.016 125.062 344.292 125.388 344.5 125.773C344.714 126.159 344.82 126.604 344.82 127.109C344.82 127.62 344.706 128.065 344.477 128.445C344.253 128.826 343.961 129.141 343.602 129.391C343.242 129.646 342.836 129.839 342.383 129.969C341.93 130.094 341.477 130.156 341.023 130.156C340.482 130.156 339.948 130.065 339.422 129.883C338.901 129.701 338.448 129.438 338.062 129.094C337.719 128.797 337.445 128.451 337.242 128.055C337.044 127.654 336.938 127.208 336.922 126.719H338.398C338.445 127.073 338.542 127.388 338.688 127.664C338.833 127.935 339.021 128.164 339.25 128.352C339.479 128.544 339.742 128.69 340.039 128.789C340.341 128.883 340.669 128.93 341.023 128.93C341.305 128.93 341.581 128.896 341.852 128.828C342.128 128.755 342.372 128.643 342.586 128.492C342.799 128.346 342.974 128.161 343.109 127.938C343.245 127.708 343.312 127.438 343.312 127.125ZM352.059 130L351.973 128.836C351.692 129.253 351.34 129.578 350.918 129.812C350.497 130.042 350.01 130.156 349.458 130.156C349.015 130.156 348.614 130.089 348.254 129.953C347.895 129.812 347.588 129.596 347.333 129.305C347.077 129.013 346.879 128.643 346.739 128.195C346.603 127.742 346.536 127.201 346.536 126.57V121.547H347.981V126.586C347.981 127.044 348.017 127.424 348.09 127.727C348.163 128.029 348.273 128.268 348.418 128.445C348.564 128.628 348.741 128.755 348.95 128.828C349.163 128.901 349.408 128.938 349.684 128.938C350.007 128.938 350.296 128.901 350.551 128.828C350.806 128.75 351.028 128.643 351.215 128.508C351.372 128.398 351.507 128.268 351.622 128.117C351.741 127.961 351.84 127.792 351.918 127.609V121.547H353.372V130H352.059ZM362.782 125.867C362.782 126.237 362.754 126.594 362.696 126.938C362.644 127.276 362.566 127.594 362.462 127.891C362.321 128.281 362.136 128.633 361.907 128.945C361.683 129.253 361.412 129.508 361.095 129.711C360.866 129.852 360.613 129.961 360.337 130.039C360.066 130.117 359.772 130.156 359.454 130.156C359.089 130.156 358.756 130.112 358.454 130.023C358.157 129.935 357.889 129.807 357.649 129.641C357.535 129.557 357.425 129.466 357.321 129.367C357.217 129.268 357.118 129.159 357.024 129.039L356.954 130H355.626V118H357.071V122.453C357.191 122.302 357.324 122.167 357.47 122.047C357.616 121.922 357.772 121.815 357.938 121.727C358.147 121.617 358.376 121.534 358.626 121.477C358.876 121.419 359.147 121.391 359.438 121.391C359.803 121.391 360.139 121.44 360.446 121.539C360.754 121.638 361.032 121.776 361.282 121.953C361.506 122.12 361.707 122.323 361.884 122.562C362.061 122.797 362.217 123.06 362.353 123.352C362.493 123.68 362.6 124.044 362.673 124.445C362.746 124.841 362.782 125.26 362.782 125.703V125.867ZM361.337 125.703C361.337 125.438 361.319 125.18 361.282 124.93C361.251 124.674 361.201 124.435 361.134 124.211C361.04 123.935 360.918 123.682 360.767 123.453C360.616 123.224 360.431 123.044 360.212 122.914C360.061 122.82 359.892 122.747 359.704 122.695C359.517 122.643 359.308 122.617 359.079 122.617C358.829 122.617 358.6 122.651 358.392 122.719C358.183 122.781 357.998 122.87 357.837 122.984C357.67 123.104 357.522 123.245 357.392 123.406C357.267 123.562 357.16 123.734 357.071 123.922V127.617C357.165 127.805 357.274 127.979 357.399 128.141C357.53 128.297 357.678 128.435 357.845 128.555C358.011 128.674 358.199 128.768 358.407 128.836C358.616 128.898 358.845 128.93 359.095 128.93C359.334 128.93 359.553 128.901 359.751 128.844C359.949 128.781 360.126 128.693 360.282 128.578C360.491 128.432 360.665 128.247 360.806 128.023C360.946 127.799 361.058 127.549 361.142 127.273C361.209 127.065 361.259 126.841 361.29 126.602C361.321 126.362 361.337 126.117 361.337 125.867V125.703Z" fill="#6B6B6B"/>
<rect x="426" width="132" height="100" rx="12" fill="#C2C2C2"/>
<path d="M468.258 124.969C468.253 125.375 468.216 125.786 468.148 126.203C468.086 126.615 467.987 127.013 467.852 127.398C467.716 127.784 467.542 128.143 467.328 128.477C467.12 128.81 466.87 129.102 466.578 129.352C466.286 129.602 465.951 129.799 465.57 129.945C465.195 130.086 464.773 130.156 464.305 130.156C463.836 130.156 463.411 130.086 463.031 129.945C462.656 129.799 462.323 129.602 462.031 129.352C461.74 129.102 461.487 128.81 461.273 128.477C461.06 128.138 460.885 127.776 460.75 127.391C460.609 127.005 460.505 126.607 460.438 126.195C460.37 125.784 460.333 125.375 460.328 124.969V123.672C460.333 123.266 460.367 122.857 460.43 122.445C460.497 122.029 460.602 121.628 460.742 121.242C460.878 120.857 461.049 120.497 461.258 120.164C461.471 119.826 461.724 119.529 462.016 119.273C462.307 119.023 462.641 118.828 463.016 118.688C463.396 118.542 463.82 118.469 464.289 118.469C464.758 118.469 465.182 118.542 465.562 118.688C465.943 118.828 466.279 119.023 466.57 119.273C466.862 119.523 467.112 119.818 467.32 120.156C467.534 120.49 467.711 120.849 467.852 121.234C467.987 121.62 468.086 122.021 468.148 122.438C468.216 122.854 468.253 123.266 468.258 123.672V124.969ZM466.828 123.656C466.823 123.385 466.805 123.104 466.773 122.812C466.742 122.516 466.69 122.221 466.617 121.93C466.539 121.643 466.438 121.37 466.312 121.109C466.188 120.844 466.031 120.609 465.844 120.406C465.656 120.208 465.435 120.052 465.18 119.938C464.924 119.818 464.628 119.758 464.289 119.758C463.956 119.758 463.661 119.818 463.406 119.938C463.151 120.057 462.93 120.216 462.742 120.414C462.555 120.617 462.398 120.852 462.273 121.117C462.148 121.378 462.049 121.651 461.977 121.938C461.898 122.229 461.841 122.523 461.805 122.82C461.773 123.112 461.755 123.391 461.75 123.656V124.969C461.755 125.234 461.773 125.516 461.805 125.812C461.841 126.109 461.898 126.401 461.977 126.688C462.055 126.979 462.156 127.258 462.281 127.523C462.406 127.789 462.562 128.021 462.75 128.219C462.938 128.422 463.159 128.583 463.414 128.703C463.669 128.823 463.966 128.883 464.305 128.883C464.643 128.883 464.94 128.823 465.195 128.703C465.456 128.583 465.68 128.422 465.867 128.219C466.049 128.021 466.201 127.792 466.32 127.531C466.445 127.266 466.547 126.987 466.625 126.695C466.698 126.409 466.747 126.117 466.773 125.82C466.805 125.523 466.823 125.24 466.828 124.969V123.656ZM475.559 130L475.473 128.836C475.192 129.253 474.84 129.578 474.418 129.812C473.997 130.042 473.51 130.156 472.958 130.156C472.515 130.156 472.114 130.089 471.754 129.953C471.395 129.812 471.088 129.596 470.833 129.305C470.577 129.013 470.379 128.643 470.239 128.195C470.103 127.742 470.036 127.201 470.036 126.57V121.547H471.481V126.586C471.481 127.044 471.517 127.424 471.59 127.727C471.663 128.029 471.773 128.268 471.918 128.445C472.064 128.628 472.241 128.755 472.45 128.828C472.663 128.901 472.908 128.938 473.184 128.938C473.507 128.938 473.796 128.901 474.051 128.828C474.306 128.75 474.528 128.643 474.715 128.508C474.872 128.398 475.007 128.268 475.122 128.117C475.241 127.961 475.34 127.792 475.418 127.609V121.547H476.872V130H475.559ZM482.54 119.5V121.547H485.759V122.664H482.54V127.258C482.54 127.586 482.582 127.857 482.665 128.07C482.748 128.284 482.863 128.453 483.009 128.578C483.155 128.708 483.321 128.799 483.509 128.852C483.701 128.904 483.905 128.93 484.118 128.93C484.274 128.93 484.436 128.922 484.603 128.906C484.769 128.885 484.933 128.862 485.095 128.836C485.251 128.81 485.397 128.784 485.532 128.758C485.673 128.727 485.787 128.701 485.876 128.68L486.079 129.703C485.959 129.776 485.813 129.841 485.642 129.898C485.47 129.951 485.282 129.995 485.079 130.031C484.876 130.073 484.66 130.104 484.431 130.125C484.207 130.146 483.983 130.156 483.759 130.156C483.384 130.156 483.032 130.104 482.704 130C482.381 129.891 482.1 129.719 481.86 129.484C481.621 129.255 481.431 128.958 481.29 128.594C481.155 128.224 481.087 127.779 481.087 127.258V122.664H478.868V121.547H481.087V119.5H482.54ZM488.474 118H492.794V128.75H495.552V130H488.474V128.75H491.349V119.258H488.474V118ZM497.603 121.547H501.924V128.75H504.682V130H497.603V128.75H500.478V122.805H497.603V121.547ZM500.291 119.328C500.291 119.203 500.309 119.086 500.346 118.977C500.387 118.867 500.45 118.773 500.533 118.695C500.601 118.628 500.687 118.576 500.791 118.539C500.9 118.497 501.023 118.477 501.158 118.477C501.294 118.477 501.413 118.497 501.518 118.539C501.622 118.576 501.708 118.628 501.775 118.695C501.859 118.768 501.921 118.859 501.963 118.969C502.004 119.078 502.025 119.198 502.025 119.328C502.025 119.562 501.952 119.758 501.807 119.914C501.661 120.07 501.445 120.148 501.158 120.148C500.866 120.148 500.648 120.07 500.502 119.914C500.361 119.758 500.291 119.562 500.291 119.328ZM506.506 130V121.547H507.803L507.905 122.797C508.03 122.62 508.165 122.458 508.311 122.312C508.462 122.161 508.621 122.031 508.787 121.922C509.037 121.755 509.308 121.628 509.6 121.539C509.897 121.445 510.209 121.396 510.537 121.391C510.98 121.391 511.381 121.453 511.741 121.578C512.105 121.703 512.415 121.898 512.67 122.164C512.926 122.43 513.121 122.768 513.256 123.18C513.397 123.586 513.467 124.07 513.467 124.633V130H512.022V124.664C512.022 124.289 511.98 123.971 511.897 123.711C511.814 123.451 511.691 123.24 511.53 123.078C511.363 122.917 511.16 122.799 510.92 122.727C510.686 122.654 510.415 122.617 510.108 122.617C509.842 122.617 509.595 122.656 509.366 122.734C509.136 122.807 508.926 122.909 508.733 123.039C508.577 123.154 508.431 123.286 508.295 123.438C508.165 123.589 508.051 123.755 507.952 123.938V130H506.506ZM519.37 130.156C518.776 130.156 518.229 130.055 517.729 129.852C517.235 129.648 516.81 129.365 516.456 129C516.102 128.635 515.826 128.203 515.628 127.703C515.43 127.203 515.331 126.659 515.331 126.07V125.742C515.331 125.06 515.44 124.451 515.659 123.914C515.878 123.372 516.169 122.914 516.534 122.539C516.893 122.169 517.302 121.885 517.761 121.688C518.224 121.49 518.698 121.391 519.182 121.391C519.792 121.391 520.323 121.497 520.776 121.711C521.235 121.919 521.615 122.208 521.917 122.578C522.219 122.953 522.443 123.393 522.589 123.898C522.74 124.404 522.815 124.951 522.815 125.539V126.188H516.776V126.242C516.813 126.654 516.893 127.016 517.018 127.328C517.149 127.641 517.326 127.917 517.55 128.156C517.779 128.411 518.055 128.612 518.378 128.758C518.701 128.904 519.057 128.977 519.448 128.977C519.964 128.977 520.422 128.872 520.823 128.664C521.224 128.456 521.557 128.18 521.823 127.836L522.706 128.523C522.425 128.951 522.003 129.331 521.44 129.664C520.883 129.992 520.193 130.156 519.37 130.156ZM519.182 122.578C518.891 122.578 518.615 122.633 518.354 122.742C518.094 122.846 517.86 123 517.651 123.203C517.443 123.411 517.266 123.667 517.12 123.969C516.979 124.266 516.88 124.609 516.823 125H521.37V124.93C521.37 124.669 521.321 124.391 521.222 124.094C521.123 123.792 520.985 123.531 520.807 123.312C520.63 123.094 520.406 122.917 520.136 122.781C519.87 122.646 519.552 122.578 519.182 122.578Z" fill="#6B6B6B"/>
<rect x="568" width="132" height="100" rx="12" fill="#121212"/>
<path d="M597.031 119.859H593.516V130H592.109V119.859H588.594V118.625H597.031V119.859ZM602.223 130.156C601.629 130.156 601.083 130.055 600.583 129.852C600.088 129.648 599.663 129.365 599.309 129C598.955 128.635 598.679 128.203 598.481 127.703C598.283 127.203 598.184 126.659 598.184 126.07V125.742C598.184 125.06 598.293 124.451 598.512 123.914C598.731 123.372 599.023 122.914 599.387 122.539C599.747 122.169 600.155 121.885 600.614 121.688C601.077 121.49 601.551 121.391 602.036 121.391C602.645 121.391 603.176 121.497 603.629 121.711C604.088 121.919 604.468 122.208 604.77 122.578C605.072 122.953 605.296 123.393 605.442 123.898C605.593 124.404 605.668 124.951 605.668 125.539V126.188H599.629V126.242C599.666 126.654 599.747 127.016 599.872 127.328C600.002 127.641 600.179 127.917 600.403 128.156C600.632 128.411 600.908 128.612 601.231 128.758C601.554 128.904 601.911 128.977 602.301 128.977C602.817 128.977 603.275 128.872 603.676 128.664C604.077 128.456 604.411 128.18 604.676 127.836L605.559 128.523C605.278 128.951 604.856 129.331 604.293 129.664C603.736 129.992 603.046 130.156 602.223 130.156ZM602.036 122.578C601.744 122.578 601.468 122.633 601.208 122.742C600.947 122.846 600.713 123 600.504 123.203C600.296 123.411 600.119 123.667 599.973 123.969C599.833 124.266 599.734 124.609 599.676 125H604.223V124.93C604.223 124.669 604.174 124.391 604.075 124.094C603.976 123.792 603.838 123.531 603.661 123.312C603.484 123.094 603.26 122.917 602.989 122.781C602.723 122.646 602.405 122.578 602.036 122.578ZM611.11 124.68L613.368 121.547H615.063L611.915 125.727L615.149 130H613.478L611.142 126.781L608.806 130H607.118L610.353 125.727L607.204 121.547H608.876L611.11 124.68ZM620.169 119.5V121.547H623.388V122.664H620.169V127.258C620.169 127.586 620.211 127.857 620.294 128.07C620.378 128.284 620.492 128.453 620.638 128.578C620.784 128.708 620.951 128.799 621.138 128.852C621.331 128.904 621.534 128.93 621.747 128.93C621.904 128.93 622.065 128.922 622.232 128.906C622.399 128.885 622.563 128.862 622.724 128.836C622.88 128.81 623.026 128.784 623.162 128.758C623.302 128.727 623.417 128.701 623.505 128.68L623.708 129.703C623.589 129.776 623.443 129.841 623.271 129.898C623.099 129.951 622.912 129.995 622.708 130.031C622.505 130.073 622.289 130.104 622.06 130.125C621.836 130.146 621.612 130.156 621.388 130.156C621.013 130.156 620.662 130.104 620.333 130C620.011 129.891 619.729 129.719 619.49 129.484C619.25 129.255 619.06 128.958 618.919 128.594C618.784 128.224 618.716 127.779 618.716 127.258V122.664H616.497V121.547H618.716V119.5H620.169ZM632.197 125.617H626.221V124.43H632.197V125.617ZM634.991 130V118.625H638.373C638.842 118.63 639.301 118.693 639.748 118.812C640.196 118.927 640.595 119.107 640.944 119.352C641.293 119.596 641.571 119.909 641.78 120.289C641.988 120.669 642.09 121.125 642.084 121.656C642.079 121.953 642.03 122.224 641.936 122.469C641.847 122.714 641.725 122.932 641.569 123.125C641.407 123.323 641.228 123.49 641.03 123.625C640.837 123.76 640.603 123.888 640.327 124.008V124.031C640.613 124.099 640.889 124.221 641.155 124.398C641.42 124.576 641.639 124.771 641.811 124.984C641.993 125.219 642.134 125.482 642.233 125.773C642.337 126.065 642.389 126.38 642.389 126.719C642.394 127.25 642.293 127.719 642.084 128.125C641.876 128.531 641.597 128.87 641.248 129.141C640.899 129.417 640.496 129.628 640.037 129.773C639.584 129.919 639.116 129.995 638.631 130H634.991ZM636.444 124.68V128.773H638.67C638.972 128.768 639.259 128.719 639.53 128.625C639.801 128.526 640.04 128.391 640.248 128.219C640.457 128.047 640.621 127.836 640.741 127.586C640.866 127.336 640.928 127.052 640.928 126.734C640.933 126.411 640.879 126.125 640.764 125.875C640.655 125.625 640.501 125.411 640.303 125.234C640.105 125.062 639.873 124.93 639.608 124.836C639.342 124.742 639.056 124.69 638.748 124.68H636.444ZM636.444 123.477H638.459C638.73 123.471 638.996 123.43 639.256 123.352C639.517 123.268 639.748 123.148 639.952 122.992C640.155 122.841 640.319 122.654 640.444 122.43C640.569 122.206 640.631 121.945 640.631 121.648C640.631 121.331 640.569 121.06 640.444 120.836C640.324 120.612 640.162 120.427 639.959 120.281C639.751 120.141 639.511 120.036 639.241 119.969C638.975 119.901 638.702 119.865 638.42 119.859H636.444V123.477ZM644.362 118H648.682V128.75H651.44V130H644.362V128.75H647.237V119.258H644.362V118ZM658.82 130C658.762 129.891 658.716 129.755 658.679 129.594C658.648 129.427 658.624 129.255 658.609 129.078C658.463 129.224 658.299 129.362 658.117 129.492C657.939 129.622 657.744 129.737 657.531 129.836C657.312 129.935 657.08 130.013 656.835 130.07C656.591 130.128 656.33 130.156 656.054 130.156C655.606 130.156 655.2 130.091 654.835 129.961C654.476 129.831 654.171 129.654 653.921 129.43C653.666 129.211 653.468 128.951 653.327 128.648C653.192 128.341 653.124 128.01 653.124 127.656C653.124 127.193 653.216 126.786 653.398 126.438C653.585 126.089 653.848 125.797 654.187 125.562C654.525 125.333 654.932 125.161 655.406 125.047C655.885 124.932 656.419 124.875 657.007 124.875H658.585V124.211C658.585 123.956 658.538 123.727 658.445 123.523C658.351 123.32 658.218 123.146 658.046 123C657.874 122.859 657.663 122.75 657.413 122.672C657.169 122.594 656.893 122.555 656.585 122.555C656.299 122.555 656.041 122.591 655.812 122.664C655.588 122.737 655.398 122.833 655.242 122.953C655.085 123.073 654.963 123.216 654.874 123.383C654.791 123.544 654.749 123.714 654.749 123.891H653.296C653.301 123.583 653.38 123.281 653.531 122.984C653.687 122.688 653.911 122.419 654.202 122.18C654.489 121.945 654.838 121.755 655.249 121.609C655.666 121.464 656.137 121.391 656.663 121.391C657.143 121.391 657.588 121.451 657.999 121.57C658.411 121.685 658.768 121.859 659.07 122.094C659.367 122.333 659.601 122.63 659.773 122.984C659.945 123.339 660.031 123.753 660.031 124.227V128.156C660.031 128.438 660.057 128.737 660.109 129.055C660.161 129.367 660.234 129.641 660.327 129.875V130H658.82ZM656.265 128.898C656.546 128.898 656.809 128.862 657.054 128.789C657.299 128.716 657.523 128.62 657.726 128.5C657.924 128.38 658.096 128.245 658.242 128.094C658.387 127.938 658.502 127.776 658.585 127.609V125.898H657.242C656.742 125.898 656.304 125.943 655.929 126.031C655.559 126.115 655.265 126.245 655.046 126.422C654.89 126.547 654.77 126.695 654.687 126.867C654.609 127.039 654.57 127.234 654.57 127.453C654.57 127.661 654.604 127.854 654.671 128.031C654.744 128.208 654.851 128.359 654.992 128.484C655.132 128.615 655.309 128.716 655.523 128.789C655.736 128.862 655.984 128.898 656.265 128.898ZM665.996 128.984C666.256 128.984 666.509 128.943 666.754 128.859C667.004 128.776 667.225 128.659 667.418 128.508C667.611 128.362 667.764 128.19 667.879 127.992C667.999 127.789 668.061 127.57 668.066 127.336H669.433C669.428 127.711 669.329 128.07 669.137 128.414C668.949 128.753 668.696 129.049 668.379 129.305C668.061 129.565 667.696 129.773 667.285 129.93C666.874 130.081 666.444 130.156 665.996 130.156C665.355 130.156 664.795 130.042 664.316 129.812C663.837 129.583 663.439 129.273 663.121 128.883C662.798 128.497 662.556 128.052 662.394 127.547C662.233 127.036 662.152 126.5 662.152 125.938V125.609C662.152 125.052 662.233 124.518 662.394 124.008C662.556 123.497 662.798 123.047 663.121 122.656C663.439 122.271 663.837 121.964 664.316 121.734C664.795 121.505 665.355 121.391 665.996 121.391C666.496 121.391 666.954 121.471 667.371 121.633C667.793 121.789 668.157 122.003 668.465 122.273C668.767 122.549 669.004 122.875 669.176 123.25C669.348 123.625 669.433 124.026 669.433 124.453H668.066C668.061 124.198 668.004 123.958 667.894 123.734C667.79 123.505 667.647 123.305 667.465 123.133C667.282 122.961 667.064 122.826 666.808 122.727C666.558 122.628 666.288 122.578 665.996 122.578C665.548 122.578 665.17 122.669 664.863 122.852C664.561 123.029 664.316 123.26 664.129 123.547C663.941 123.839 663.806 124.164 663.723 124.523C663.644 124.883 663.605 125.245 663.605 125.609V125.938C663.605 126.307 663.644 126.674 663.723 127.039C663.806 127.398 663.941 127.721 664.129 128.008C664.311 128.299 664.553 128.536 664.855 128.719C665.163 128.896 665.543 128.984 665.996 128.984ZM674.055 126.055L672.993 127.078V130H671.539V118H672.993V125.344L673.938 124.328L676.711 121.547H678.469L675.047 125.07L678.993 130H677.157L674.055 126.055Z" fill="#6B6B6B"/>
<rect x="710.4" y="0.4" width="131.2" height="99.2" rx="11.6" fill="white" stroke="#C2C2C2" stroke-width="0.8"/>
<path d="M739.031 119.859H735.516V130H734.109V119.859H730.594V118.625H739.031V119.859ZM744.223 130.156C743.629 130.156 743.083 130.055 742.583 129.852C742.088 129.648 741.663 129.365 741.309 129C740.955 128.635 740.679 128.203 740.481 127.703C740.283 127.203 740.184 126.659 740.184 126.07V125.742C740.184 125.06 740.293 124.451 740.512 123.914C740.731 123.372 741.023 122.914 741.387 122.539C741.747 122.169 742.155 121.885 742.614 121.688C743.077 121.49 743.551 121.391 744.036 121.391C744.645 121.391 745.176 121.497 745.629 121.711C746.088 121.919 746.468 122.208 746.77 122.578C747.072 122.953 747.296 123.393 747.442 123.898C747.593 124.404 747.668 124.951 747.668 125.539V126.188H741.629V126.242C741.666 126.654 741.747 127.016 741.872 127.328C742.002 127.641 742.179 127.917 742.403 128.156C742.632 128.411 742.908 128.612 743.231 128.758C743.554 128.904 743.911 128.977 744.301 128.977C744.817 128.977 745.275 128.872 745.676 128.664C746.077 128.456 746.411 128.18 746.676 127.836L747.559 128.523C747.278 128.951 746.856 129.331 746.293 129.664C745.736 129.992 745.046 130.156 744.223 130.156ZM744.036 122.578C743.744 122.578 743.468 122.633 743.208 122.742C742.947 122.846 742.713 123 742.504 123.203C742.296 123.411 742.119 123.667 741.973 123.969C741.833 124.266 741.734 124.609 741.676 125H746.223V124.93C746.223 124.669 746.174 124.391 746.075 124.094C745.976 123.792 745.838 123.531 745.661 123.312C745.484 123.094 745.26 122.917 744.989 122.781C744.723 122.646 744.405 122.578 744.036 122.578ZM753.11 124.68L755.368 121.547H757.063L753.915 125.727L757.149 130H755.478L753.142 126.781L750.806 130H749.118L752.353 125.727L749.204 121.547H750.876L753.11 124.68ZM762.169 119.5V121.547H765.388V122.664H762.169V127.258C762.169 127.586 762.211 127.857 762.294 128.07C762.378 128.284 762.492 128.453 762.638 128.578C762.784 128.708 762.951 128.799 763.138 128.852C763.331 128.904 763.534 128.93 763.747 128.93C763.904 128.93 764.065 128.922 764.232 128.906C764.399 128.885 764.563 128.862 764.724 128.836C764.88 128.81 765.026 128.784 765.162 128.758C765.302 128.727 765.417 128.701 765.505 128.68L765.708 129.703C765.589 129.776 765.443 129.841 765.271 129.898C765.099 129.951 764.912 129.995 764.708 130.031C764.505 130.073 764.289 130.104 764.06 130.125C763.836 130.146 763.612 130.156 763.388 130.156C763.013 130.156 762.662 130.104 762.333 130C762.011 129.891 761.729 129.719 761.49 129.484C761.25 129.255 761.06 128.958 760.919 128.594C760.784 128.224 760.716 127.779 760.716 127.258V122.664H758.497V121.547H760.716V119.5H762.169ZM774.197 125.617H768.221V124.43H774.197V125.617ZM777.6 130L776.217 118.625H777.592L778.412 126.469L778.459 126.922L778.545 126.453L779.92 118.625H781.178L782.561 126.461L782.647 126.922L782.694 126.453L783.514 118.625H784.881L783.498 130H782.022L780.639 121.906L780.561 121.43L780.475 121.914L779.084 130H777.6ZM787.581 122.805C787.696 122.633 787.823 122.477 787.964 122.336C788.104 122.19 788.253 122.062 788.409 121.953C788.659 121.771 788.932 121.633 789.229 121.539C789.531 121.445 789.852 121.396 790.19 121.391C790.633 121.391 791.034 121.456 791.393 121.586C791.758 121.711 792.068 121.909 792.323 122.18C792.578 122.451 792.774 122.794 792.909 123.211C793.05 123.622 793.12 124.112 793.12 124.68V130H791.675V124.664C791.675 124.331 791.636 124.039 791.557 123.789C791.479 123.534 791.365 123.323 791.214 123.156C791.052 122.974 790.849 122.839 790.604 122.75C790.36 122.656 790.078 122.612 789.761 122.617C789.5 122.617 789.253 122.654 789.018 122.727C788.784 122.799 788.568 122.904 788.37 123.039C788.214 123.143 788.068 123.266 787.932 123.406C787.802 123.542 787.685 123.693 787.581 123.859V130H786.136V118H787.581V122.805ZM795.492 121.547H799.812V128.75H802.57V130H795.492V128.75H798.367V122.805H795.492V121.547ZM798.179 119.328C798.179 119.203 798.197 119.086 798.234 118.977C798.275 118.867 798.338 118.773 798.421 118.695C798.489 118.628 798.575 118.576 798.679 118.539C798.788 118.497 798.911 118.477 799.046 118.477C799.182 118.477 799.301 118.497 799.406 118.539C799.51 118.576 799.596 118.628 799.663 118.695C799.747 118.768 799.809 118.859 799.851 118.969C799.893 119.078 799.913 119.198 799.913 119.328C799.913 119.562 799.841 119.758 799.695 119.914C799.549 120.07 799.333 120.148 799.046 120.148C798.755 120.148 798.536 120.07 798.39 119.914C798.249 119.758 798.179 119.562 798.179 119.328ZM807.816 119.5V121.547H811.035V122.664H807.816V127.258C807.816 127.586 807.858 127.857 807.941 128.07C808.025 128.284 808.139 128.453 808.285 128.578C808.431 128.708 808.598 128.799 808.785 128.852C808.978 128.904 809.181 128.93 809.394 128.93C809.551 128.93 809.712 128.922 809.879 128.906C810.045 128.885 810.209 128.862 810.371 128.836C810.527 128.81 810.673 128.784 810.808 128.758C810.949 128.727 811.064 128.701 811.152 128.68L811.355 129.703C811.236 129.776 811.09 129.841 810.918 129.898C810.746 129.951 810.558 129.995 810.355 130.031C810.152 130.073 809.936 130.104 809.707 130.125C809.483 130.146 809.259 130.156 809.035 130.156C808.66 130.156 808.308 130.104 807.98 130C807.657 129.891 807.376 129.719 807.137 129.484C806.897 129.255 806.707 128.958 806.566 128.594C806.431 128.224 806.363 127.779 806.363 127.258V122.664H804.144V121.547H806.363V119.5H807.816ZM817.258 130.156C816.664 130.156 816.118 130.055 815.618 129.852C815.123 129.648 814.698 129.365 814.344 129C813.99 128.635 813.714 128.203 813.516 127.703C813.318 127.203 813.219 126.659 813.219 126.07V125.742C813.219 125.06 813.328 124.451 813.547 123.914C813.766 123.372 814.058 122.914 814.422 122.539C814.782 122.169 815.19 121.885 815.649 121.688C816.112 121.49 816.586 121.391 817.071 121.391C817.68 121.391 818.211 121.497 818.664 121.711C819.123 121.919 819.503 122.208 819.805 122.578C820.107 122.953 820.331 123.393 820.477 123.898C820.628 124.404 820.703 124.951 820.703 125.539V126.188H814.664V126.242C814.701 126.654 814.782 127.016 814.907 127.328C815.037 127.641 815.214 127.917 815.438 128.156C815.667 128.411 815.943 128.612 816.266 128.758C816.589 128.904 816.946 128.977 817.336 128.977C817.852 128.977 818.31 128.872 818.711 128.664C819.112 128.456 819.446 128.18 819.711 127.836L820.594 128.523C820.313 128.951 819.891 129.331 819.328 129.664C818.771 129.992 818.081 130.156 817.258 130.156ZM817.071 122.578C816.779 122.578 816.503 122.633 816.243 122.742C815.982 122.846 815.748 123 815.539 123.203C815.331 123.411 815.154 123.667 815.008 123.969C814.868 124.266 814.769 124.609 814.711 125H819.258V124.93C819.258 124.669 819.209 124.391 819.11 124.094C819.011 123.792 818.873 123.531 818.696 123.312C818.519 123.094 818.295 122.917 818.024 122.781C817.758 122.646 817.44 122.578 817.071 122.578Z" fill="#6B6B6B"/>
</svg>
