<svg width="558" height="318" viewBox="0 0 558 318" fill="none" xmlns="http://www.w3.org/2000/svg">
<rect y="0.600098" width="132" height="105.6" rx="12" fill="url(#paint0_linear_1_498)"/>
<path d="M25.8438 136.2V124.825H29.2266C29.6953 124.83 30.1536 124.893 30.6016 125.013C31.0495 125.127 31.4479 125.307 31.7969 125.552C32.1458 125.796 32.4245 126.109 32.6328 126.489C32.8411 126.869 32.9427 127.325 32.9375 127.856C32.9323 128.153 32.8828 128.424 32.7891 128.669C32.7005 128.914 32.5781 129.132 32.4219 129.325C32.2604 129.523 32.0807 129.69 31.8828 129.825C31.6901 129.96 31.4557 130.088 31.1797 130.208V130.231C31.4661 130.299 31.7422 130.421 32.0078 130.599C32.2734 130.776 32.4922 130.971 32.6641 131.184C32.8464 131.419 32.987 131.682 33.0859 131.974C33.1901 132.265 33.2422 132.58 33.2422 132.919C33.2474 133.45 33.1458 133.919 32.9375 134.325C32.7292 134.731 32.4505 135.07 32.1016 135.341C31.7526 135.617 31.349 135.828 30.8906 135.974C30.4375 136.119 29.9688 136.195 29.4844 136.2H25.8438ZM27.2969 130.88V134.974H29.5234C29.8255 134.968 30.112 134.919 30.3828 134.825C30.6536 134.726 30.8932 134.591 31.1016 134.419C31.3099 134.247 31.474 134.036 31.5938 133.786C31.7188 133.536 31.7812 133.252 31.7812 132.934C31.7865 132.612 31.7318 132.325 31.6172 132.075C31.5078 131.825 31.3542 131.612 31.1562 131.434C30.9583 131.263 30.7266 131.13 30.4609 131.036C30.1953 130.942 29.9089 130.89 29.6016 130.88H27.2969ZM27.2969 129.677H29.3125C29.5833 129.671 29.849 129.63 30.1094 129.552C30.3698 129.468 30.6016 129.349 30.8047 129.192C31.0078 129.041 31.1719 128.854 31.2969 128.63C31.4219 128.406 31.4844 128.145 31.4844 127.849C31.4844 127.531 31.4219 127.26 31.2969 127.036C31.1771 126.812 31.0156 126.627 30.8125 126.481C30.6042 126.341 30.3646 126.237 30.0938 126.169C29.8281 126.101 29.5547 126.065 29.2734 126.059H27.2969V129.677ZM35.2153 124.2H39.5356V134.95H42.2934V136.2H35.2153V134.95H38.0903V125.458H35.2153V124.2ZM49.6884 136.2L49.6025 135.036C49.3213 135.453 48.9697 135.778 48.5478 136.013C48.1259 136.242 47.639 136.356 47.0869 136.356C46.6442 136.356 46.2431 136.289 45.8838 136.153C45.5244 136.013 45.2171 135.796 44.9619 135.505C44.7067 135.213 44.5088 134.843 44.3681 134.395C44.2327 133.942 44.165 133.401 44.165 132.77V127.747H45.6103V132.786C45.6103 133.244 45.6468 133.625 45.7197 133.927C45.7926 134.229 45.902 134.468 46.0478 134.645C46.1936 134.828 46.3707 134.955 46.5791 135.028C46.7926 135.101 47.0374 135.138 47.3134 135.138C47.6364 135.138 47.9254 135.101 48.1806 135.028C48.4358 134.95 48.6572 134.843 48.8447 134.708C49.0009 134.599 49.1364 134.468 49.2509 134.317C49.3707 134.161 49.4697 133.992 49.5478 133.809V127.747H51.0009V136.2H49.6884ZM56.9819 136.356C56.3881 136.356 55.8412 136.255 55.3412 136.052C54.8465 135.849 54.422 135.565 54.0678 135.2C53.7136 134.835 53.4376 134.403 53.2397 133.903C53.0418 133.403 52.9428 132.859 52.9428 132.27V131.942C52.9428 131.26 53.0522 130.651 53.2709 130.114C53.4897 129.572 53.7814 129.114 54.1459 128.739C54.5053 128.369 54.9142 128.085 55.3725 127.888C55.836 127.69 56.31 127.591 56.7944 127.591C57.4037 127.591 57.935 127.697 58.3881 127.911C58.8465 128.119 59.2267 128.408 59.5287 128.778C59.8308 129.153 60.0548 129.593 60.2006 130.099C60.3517 130.604 60.4272 131.151 60.4272 131.739V132.388H54.3881V132.442C54.4246 132.854 54.5053 133.216 54.6303 133.528C54.7605 133.841 54.9376 134.117 55.1616 134.356C55.3907 134.612 55.6668 134.812 55.9897 134.958C56.3126 135.104 56.6694 135.177 57.06 135.177C57.5756 135.177 58.034 135.072 58.435 134.864C58.836 134.656 59.1694 134.38 59.435 134.036L60.3178 134.724C60.0366 135.151 59.6147 135.531 59.0522 135.864C58.4949 136.192 57.8048 136.356 56.9819 136.356ZM56.7944 128.778C56.5027 128.778 56.2267 128.833 55.9662 128.942C55.7058 129.046 55.4715 129.2 55.2631 129.403C55.0548 129.612 54.8777 129.867 54.7319 130.169C54.5912 130.466 54.4923 130.809 54.435 131.2H58.9819V131.13C58.9819 130.869 58.9324 130.591 58.8334 130.294C58.7345 129.992 58.5965 129.731 58.4194 129.513C58.2423 129.294 58.0183 129.117 57.7475 128.981C57.4819 128.846 57.1642 128.778 56.7944 128.778ZM69.3925 137.38H62.2284V136.2H69.3925V137.38ZM71.3578 136.2V124.825H73.9906C74.4333 124.83 74.85 124.877 75.2406 124.966C75.6365 125.049 76.001 125.169 76.3344 125.325C76.7979 125.539 77.2068 125.82 77.5609 126.169C77.9203 126.513 78.2068 126.911 78.4203 127.364C78.613 127.75 78.7589 128.171 78.8578 128.63C78.962 129.088 79.0167 129.578 79.0219 130.099V130.934C79.0219 131.434 78.9724 131.908 78.8734 132.356C78.7797 132.804 78.6417 133.216 78.4594 133.591C78.2719 133.981 78.0349 134.335 77.7484 134.653C77.462 134.971 77.1417 135.242 76.7875 135.466C76.4125 135.7 75.988 135.88 75.5141 136.005C75.0453 136.13 74.5375 136.195 73.9906 136.2H71.3578ZM72.8266 126.013V135.02H73.9906C74.4073 135.015 74.7849 134.963 75.1234 134.864C75.4672 134.765 75.7719 134.625 76.0375 134.442C76.3187 134.255 76.5609 134.026 76.7641 133.755C76.9724 133.479 77.1365 133.171 77.2562 132.833C77.3604 132.557 77.4385 132.26 77.4906 131.942C77.5427 131.619 77.5714 131.283 77.5766 130.934V130.083C77.5714 129.729 77.5401 129.39 77.4828 129.067C77.4307 128.739 77.35 128.434 77.2406 128.153C77.1 127.789 76.9099 127.46 76.6703 127.169C76.4359 126.872 76.1469 126.632 75.8031 126.45C75.5583 126.315 75.2849 126.21 74.9828 126.138C74.6807 126.059 74.35 126.018 73.9906 126.013H72.8266ZM86.1903 136.2C86.133 136.091 86.0861 135.955 86.0497 135.794C86.0184 135.627 85.995 135.455 85.9794 135.278C85.8335 135.424 85.6695 135.562 85.4872 135.692C85.3101 135.822 85.1148 135.937 84.9012 136.036C84.6825 136.135 84.4507 136.213 84.2059 136.27C83.9611 136.328 83.7007 136.356 83.4247 136.356C82.9768 136.356 82.5705 136.291 82.2059 136.161C81.8466 136.031 81.5419 135.854 81.2919 135.63C81.0367 135.411 80.8387 135.151 80.6981 134.849C80.5627 134.541 80.495 134.21 80.495 133.856C80.495 133.393 80.5861 132.987 80.7684 132.638C80.9559 132.289 81.219 131.997 81.5575 131.763C81.896 131.533 82.3023 131.362 82.7762 131.247C83.2554 131.132 83.7893 131.075 84.3778 131.075H85.9559V130.411C85.9559 130.156 85.9091 129.927 85.8153 129.724C85.7216 129.52 85.5887 129.346 85.4169 129.2C85.245 129.059 85.0341 128.95 84.7841 128.872C84.5393 128.794 84.2632 128.755 83.9559 128.755C83.6695 128.755 83.4117 128.791 83.1825 128.864C82.9585 128.937 82.7684 129.033 82.6122 129.153C82.4559 129.273 82.3335 129.416 82.245 129.583C82.1617 129.744 82.12 129.914 82.12 130.091H80.6669C80.6721 129.783 80.7502 129.481 80.9012 129.184C81.0575 128.888 81.2815 128.619 81.5731 128.38C81.8596 128.145 82.2085 127.955 82.62 127.809C83.0367 127.664 83.508 127.591 84.0341 127.591C84.5132 127.591 84.9585 127.651 85.37 127.77C85.7815 127.885 86.1382 128.059 86.4403 128.294C86.7372 128.533 86.9716 128.83 87.1434 129.184C87.3153 129.539 87.4012 129.953 87.4012 130.427V134.356C87.4012 134.638 87.4273 134.937 87.4794 135.255C87.5315 135.567 87.6044 135.841 87.6981 136.075V136.2H86.1903ZM83.6356 135.099C83.9169 135.099 84.1799 135.062 84.4247 134.989C84.6695 134.916 84.8934 134.82 85.0966 134.7C85.2945 134.58 85.4664 134.445 85.6122 134.294C85.758 134.138 85.8726 133.976 85.9559 133.809V132.099H84.6122C84.1122 132.099 83.6747 132.143 83.2997 132.231C82.9299 132.315 82.6356 132.445 82.4169 132.622C82.2606 132.747 82.1408 132.895 82.0575 133.067C81.9794 133.239 81.9403 133.434 81.9403 133.653C81.9403 133.862 81.9742 134.054 82.0419 134.231C82.1148 134.408 82.2216 134.559 82.3622 134.684C82.5028 134.815 82.6799 134.916 82.8934 134.989C83.107 135.062 83.3544 135.099 83.6356 135.099ZM95.3041 127.591C95.5697 127.591 95.8457 127.609 96.1322 127.645C96.4239 127.682 96.6426 127.731 96.7884 127.794L96.5931 129.208C96.3119 129.145 96.0436 129.101 95.7884 129.075C95.5384 129.044 95.2754 129.028 94.9994 129.028C94.6452 129.028 94.3249 129.072 94.0384 129.161C93.752 129.244 93.502 129.369 93.2884 129.536C93.0957 129.682 92.9265 129.862 92.7806 130.075C92.64 130.283 92.5228 130.518 92.4291 130.778V136.2H90.9759V127.747H92.3509L92.4134 128.88L92.4212 129.091C92.765 128.627 93.1765 128.263 93.6556 127.997C94.14 127.726 94.6895 127.591 95.3041 127.591ZM101.426 132.255L100.363 133.278V136.2H98.91V124.2H100.363V131.544L101.308 130.528L104.082 127.747H105.84L102.418 131.27L106.363 136.2H104.527L101.426 132.255Z" fill="#6B6B6B"/>
<rect x="142" y="0.600098" width="132" height="105.6" rx="12" fill="url(#paint1_linear_1_498)"/>
<path d="M163.344 136.2V124.825H166.727C167.195 124.83 167.654 124.893 168.102 125.013C168.549 125.127 168.948 125.307 169.297 125.552C169.646 125.796 169.924 126.109 170.133 126.489C170.341 126.869 170.443 127.325 170.438 127.856C170.432 128.153 170.383 128.424 170.289 128.669C170.201 128.914 170.078 129.132 169.922 129.325C169.76 129.523 169.581 129.69 169.383 129.825C169.19 129.96 168.956 130.088 168.68 130.208V130.231C168.966 130.299 169.242 130.421 169.508 130.599C169.773 130.776 169.992 130.971 170.164 131.184C170.346 131.419 170.487 131.682 170.586 131.974C170.69 132.265 170.742 132.58 170.742 132.919C170.747 133.45 170.646 133.919 170.438 134.325C170.229 134.731 169.951 135.07 169.602 135.341C169.253 135.617 168.849 135.828 168.391 135.974C167.938 136.119 167.469 136.195 166.984 136.2H163.344ZM164.797 130.88V134.974H167.023C167.326 134.968 167.612 134.919 167.883 134.825C168.154 134.726 168.393 134.591 168.602 134.419C168.81 134.247 168.974 134.036 169.094 133.786C169.219 133.536 169.281 133.252 169.281 132.934C169.286 132.612 169.232 132.325 169.117 132.075C169.008 131.825 168.854 131.612 168.656 131.434C168.458 131.263 168.227 131.13 167.961 131.036C167.695 130.942 167.409 130.89 167.102 130.88H164.797ZM164.797 129.677H166.812C167.083 129.671 167.349 129.63 167.609 129.552C167.87 129.468 168.102 129.349 168.305 129.192C168.508 129.041 168.672 128.854 168.797 128.63C168.922 128.406 168.984 128.145 168.984 127.849C168.984 127.531 168.922 127.26 168.797 127.036C168.677 126.812 168.516 126.627 168.312 126.481C168.104 126.341 167.865 126.237 167.594 126.169C167.328 126.101 167.055 126.065 166.773 126.059H164.797V129.677ZM172.715 124.2H177.036V134.95H179.793V136.2H172.715V134.95H175.59V125.458H172.715V124.2ZM187.188 136.2L187.103 135.036C186.821 135.453 186.47 135.778 186.048 136.013C185.626 136.242 185.139 136.356 184.587 136.356C184.144 136.356 183.743 136.289 183.384 136.153C183.024 136.013 182.717 135.796 182.462 135.505C182.207 135.213 182.009 134.843 181.868 134.395C181.733 133.942 181.665 133.401 181.665 132.77V127.747H183.11V132.786C183.11 133.244 183.147 133.625 183.22 133.927C183.293 134.229 183.402 134.468 183.548 134.645C183.694 134.828 183.871 134.955 184.079 135.028C184.293 135.101 184.537 135.138 184.813 135.138C185.136 135.138 185.425 135.101 185.681 135.028C185.936 134.95 186.157 134.843 186.345 134.708C186.501 134.599 186.636 134.468 186.751 134.317C186.871 134.161 186.97 133.992 187.048 133.809V127.747H188.501V136.2H187.188ZM194.482 136.356C193.888 136.356 193.341 136.255 192.841 136.052C192.346 135.849 191.922 135.565 191.568 135.2C191.214 134.835 190.938 134.403 190.74 133.903C190.542 133.403 190.443 132.859 190.443 132.27V131.942C190.443 131.26 190.552 130.651 190.771 130.114C190.99 129.572 191.281 129.114 191.646 128.739C192.005 128.369 192.414 128.085 192.872 127.888C193.336 127.69 193.81 127.591 194.294 127.591C194.904 127.591 195.435 127.697 195.888 127.911C196.346 128.119 196.727 128.408 197.029 128.778C197.331 129.153 197.555 129.593 197.701 130.099C197.852 130.604 197.927 131.151 197.927 131.739V132.388H191.888V132.442C191.925 132.854 192.005 133.216 192.13 133.528C192.261 133.841 192.438 134.117 192.662 134.356C192.891 134.612 193.167 134.812 193.49 134.958C193.813 135.104 194.169 135.177 194.56 135.177C195.076 135.177 195.534 135.072 195.935 134.864C196.336 134.656 196.669 134.38 196.935 134.036L197.818 134.724C197.537 135.151 197.115 135.531 196.552 135.864C195.995 136.192 195.305 136.356 194.482 136.356ZM194.294 128.778C194.003 128.778 193.727 128.833 193.466 128.942C193.206 129.046 192.971 129.2 192.763 129.403C192.555 129.612 192.378 129.867 192.232 130.169C192.091 130.466 191.992 130.809 191.935 131.2H196.482V131.13C196.482 130.869 196.432 130.591 196.333 130.294C196.234 129.992 196.096 129.731 195.919 129.513C195.742 129.294 195.518 129.117 195.247 128.981C194.982 128.846 194.664 128.778 194.294 128.778ZM206.893 137.38H199.728V136.2H206.893V137.38ZM210.639 134.974H216.202V136.2H209.194V124.825H210.639V134.974ZM218.362 127.747H222.682V134.95H225.44V136.2H218.362V134.95H221.237V129.005H218.362V127.747ZM221.05 125.528C221.05 125.403 221.068 125.286 221.104 125.177C221.146 125.067 221.209 124.974 221.292 124.895C221.36 124.828 221.446 124.776 221.55 124.739C221.659 124.697 221.781 124.677 221.917 124.677C222.052 124.677 222.172 124.697 222.276 124.739C222.38 124.776 222.466 124.828 222.534 124.895C222.617 124.968 222.68 125.059 222.722 125.169C222.763 125.278 222.784 125.398 222.784 125.528C222.784 125.763 222.711 125.958 222.565 126.114C222.419 126.27 222.203 126.349 221.917 126.349C221.625 126.349 221.406 126.27 221.261 126.114C221.12 125.958 221.05 125.763 221.05 125.528ZM226.999 131.903C226.999 131.273 227.075 130.695 227.226 130.169C227.382 129.638 227.606 129.182 227.898 128.802C228.189 128.421 228.544 128.125 228.96 127.911C229.377 127.697 229.848 127.591 230.374 127.591C230.713 127.591 231.023 127.63 231.304 127.708C231.591 127.786 231.848 127.901 232.077 128.052C232.202 128.13 232.32 128.221 232.429 128.325C232.544 128.429 232.65 128.544 232.749 128.669L232.82 127.747H234.132V136.02C234.132 136.578 234.044 137.072 233.867 137.505C233.695 137.937 233.452 138.304 233.14 138.606C232.822 138.908 232.445 139.138 232.007 139.294C231.57 139.45 231.085 139.528 230.554 139.528C230.335 139.528 230.085 139.502 229.804 139.45C229.523 139.403 229.239 139.322 228.952 139.208C228.661 139.099 228.38 138.95 228.109 138.763C227.843 138.575 227.614 138.343 227.421 138.067L228.171 137.2C228.348 137.414 228.531 137.593 228.718 137.739C228.906 137.89 229.096 138.01 229.288 138.099C229.481 138.187 229.674 138.25 229.867 138.286C230.059 138.328 230.252 138.349 230.445 138.349C230.788 138.349 231.098 138.299 231.374 138.2C231.65 138.101 231.887 137.955 232.085 137.763C232.278 137.575 232.426 137.341 232.531 137.059C232.635 136.778 232.687 136.455 232.687 136.091V135.364C232.577 135.489 232.46 135.604 232.335 135.708C232.216 135.812 232.085 135.903 231.945 135.981C231.726 136.101 231.484 136.192 231.218 136.255C230.952 136.322 230.666 136.356 230.359 136.356C229.843 136.356 229.377 136.247 228.96 136.028C228.544 135.809 228.192 135.507 227.906 135.122C227.614 134.737 227.39 134.283 227.234 133.763C227.077 133.237 226.999 132.671 226.999 132.067V131.903ZM228.445 132.067C228.445 132.479 228.486 132.869 228.57 133.239C228.658 133.609 228.796 133.934 228.984 134.216C229.166 134.497 229.4 134.721 229.687 134.888C229.973 135.049 230.317 135.13 230.718 135.13C230.968 135.13 231.192 135.101 231.39 135.044C231.593 134.981 231.775 134.895 231.937 134.786C232.093 134.677 232.234 134.546 232.359 134.395C232.484 134.244 232.593 134.078 232.687 133.895V130.02C232.593 129.843 232.484 129.682 232.359 129.536C232.234 129.39 232.091 129.263 231.929 129.153C231.768 129.049 231.588 128.968 231.39 128.911C231.192 128.849 230.973 128.817 230.734 128.817C230.327 128.817 229.979 128.901 229.687 129.067C229.4 129.234 229.166 129.458 228.984 129.739C228.796 130.026 228.658 130.356 228.57 130.731C228.486 131.101 228.445 131.492 228.445 131.903V132.067ZM237.84 129.005C237.954 128.833 238.082 128.677 238.223 128.536C238.363 128.39 238.512 128.263 238.668 128.153C238.918 127.971 239.191 127.833 239.488 127.739C239.79 127.645 240.111 127.596 240.449 127.591C240.892 127.591 241.293 127.656 241.652 127.786C242.017 127.911 242.327 128.109 242.582 128.38C242.837 128.651 243.032 128.994 243.168 129.411C243.308 129.822 243.379 130.312 243.379 130.88V136.2H241.933V130.864C241.933 130.531 241.894 130.239 241.816 129.989C241.738 129.734 241.624 129.523 241.473 129.356C241.311 129.174 241.108 129.039 240.863 128.95C240.618 128.856 240.337 128.812 240.019 128.817C239.759 128.817 239.512 128.854 239.277 128.927C239.043 129 238.827 129.104 238.629 129.239C238.473 129.343 238.327 129.466 238.191 129.606C238.061 129.742 237.944 129.893 237.84 130.059V136.2H236.394V124.2H237.84V129.005ZM248.946 125.7V127.747H252.164V128.864H248.946V133.458C248.946 133.786 248.987 134.057 249.071 134.27C249.154 134.484 249.269 134.653 249.414 134.778C249.56 134.908 249.727 135 249.914 135.052C250.107 135.104 250.31 135.13 250.524 135.13C250.68 135.13 250.841 135.122 251.008 135.106C251.175 135.085 251.339 135.062 251.5 135.036C251.657 135.01 251.802 134.984 251.938 134.958C252.078 134.927 252.193 134.901 252.282 134.88L252.485 135.903C252.365 135.976 252.219 136.041 252.047 136.099C251.875 136.151 251.688 136.195 251.485 136.231C251.282 136.273 251.065 136.304 250.836 136.325C250.612 136.346 250.388 136.356 250.164 136.356C249.789 136.356 249.438 136.304 249.11 136.2C248.787 136.091 248.506 135.919 248.266 135.684C248.026 135.455 247.836 135.158 247.696 134.794C247.56 134.424 247.493 133.979 247.493 133.458V128.864H245.274V127.747H247.493V125.7H248.946Z" fill="#6B6B6B"/>
<rect x="284" y="0.600098" width="132" height="105.6" rx="12" fill="url(#paint2_linear_1_498)"/>
<path d="M318.125 131.559H315.852V136.2H314.414V124.825H317.75C318.281 124.835 318.781 124.911 319.25 125.052C319.719 125.192 320.13 125.403 320.484 125.684C320.833 125.966 321.107 126.32 321.305 126.747C321.508 127.169 321.609 127.666 321.609 128.239C321.609 128.609 321.555 128.947 321.445 129.255C321.341 129.562 321.195 129.841 321.008 130.091C320.82 130.341 320.596 130.562 320.336 130.755C320.076 130.947 319.789 131.112 319.477 131.247L321.891 136.106L321.883 136.2H320.359L318.125 131.559ZM315.852 130.372H317.789C318.112 130.367 318.417 130.317 318.703 130.224C318.99 130.125 319.242 129.984 319.461 129.802C319.674 129.619 319.844 129.398 319.969 129.138C320.094 128.872 320.156 128.567 320.156 128.224C320.156 127.859 320.096 127.541 319.977 127.27C319.857 126.994 319.69 126.763 319.477 126.575C319.263 126.393 319.008 126.255 318.711 126.161C318.419 126.067 318.099 126.018 317.75 126.013H315.852V130.372ZM327.223 136.356C326.629 136.356 326.083 136.255 325.583 136.052C325.088 135.849 324.663 135.565 324.309 135.2C323.955 134.835 323.679 134.403 323.481 133.903C323.283 133.403 323.184 132.859 323.184 132.27V131.942C323.184 131.26 323.293 130.651 323.512 130.114C323.731 129.572 324.023 129.114 324.387 128.739C324.747 128.369 325.155 128.085 325.614 127.888C326.077 127.69 326.551 127.591 327.036 127.591C327.645 127.591 328.176 127.697 328.629 127.911C329.088 128.119 329.468 128.408 329.77 128.778C330.072 129.153 330.296 129.593 330.442 130.099C330.593 130.604 330.668 131.151 330.668 131.739V132.388H324.629V132.442C324.666 132.854 324.747 133.216 324.872 133.528C325.002 133.841 325.179 134.117 325.403 134.356C325.632 134.612 325.908 134.812 326.231 134.958C326.554 135.104 326.911 135.177 327.301 135.177C327.817 135.177 328.275 135.072 328.676 134.864C329.077 134.656 329.411 134.38 329.676 134.036L330.559 134.724C330.278 135.151 329.856 135.531 329.293 135.864C328.736 136.192 328.046 136.356 327.223 136.356ZM327.036 128.778C326.744 128.778 326.468 128.833 326.208 128.942C325.947 129.046 325.713 129.2 325.504 129.403C325.296 129.612 325.119 129.867 324.973 130.169C324.833 130.466 324.734 130.809 324.676 131.2H329.223V131.13C329.223 130.869 329.174 130.591 329.075 130.294C328.976 129.992 328.838 129.731 328.661 129.513C328.484 129.294 328.26 129.117 327.989 128.981C327.723 128.846 327.405 128.778 327.036 128.778ZM332.345 131.903C332.345 131.273 332.423 130.695 332.579 130.169C332.741 129.638 332.97 129.182 333.267 128.802C333.558 128.421 333.912 128.125 334.329 127.911C334.746 127.697 335.212 127.591 335.728 127.591C336.233 127.591 336.673 127.677 337.048 127.849C337.428 128.015 337.756 128.26 338.032 128.583V124.2H339.478V136.2H338.149L338.087 135.309C337.806 135.653 337.47 135.914 337.079 136.091C336.688 136.268 336.233 136.356 335.712 136.356C335.201 136.356 334.738 136.247 334.321 136.028C333.91 135.809 333.558 135.507 333.267 135.122C332.975 134.737 332.748 134.283 332.587 133.763C332.425 133.237 332.345 132.671 332.345 132.067V131.903ZM333.79 132.067C333.79 132.479 333.834 132.869 333.923 133.239C334.011 133.609 334.149 133.934 334.337 134.216C334.519 134.497 334.754 134.721 335.04 134.888C335.326 135.049 335.67 135.13 336.071 135.13C336.556 135.13 336.957 135.02 337.274 134.802C337.592 134.583 337.845 134.289 338.032 133.919V129.997C337.845 129.653 337.592 129.372 337.274 129.153C336.957 128.929 336.561 128.817 336.087 128.817C335.681 128.817 335.332 128.901 335.04 129.067C334.754 129.234 334.519 129.458 334.337 129.739C334.149 130.026 334.011 130.356 333.923 130.731C333.834 131.101 333.79 131.492 333.79 131.903V132.067ZM348.763 137.38H341.599V136.2H348.763V137.38ZM350.728 136.2V124.825H353.361C353.804 124.83 354.221 124.877 354.611 124.966C355.007 125.049 355.372 125.169 355.705 125.325C356.169 125.539 356.577 125.82 356.932 126.169C357.291 126.513 357.577 126.911 357.791 127.364C357.984 127.75 358.129 128.171 358.228 128.63C358.333 129.088 358.387 129.578 358.393 130.099V130.934C358.393 131.434 358.343 131.908 358.244 132.356C358.15 132.804 358.012 133.216 357.83 133.591C357.643 133.981 357.406 134.335 357.119 134.653C356.833 134.971 356.512 135.242 356.158 135.466C355.783 135.7 355.359 135.88 354.885 136.005C354.416 136.13 353.908 136.195 353.361 136.2H350.728ZM352.197 126.013V135.02H353.361C353.778 135.015 354.156 134.963 354.494 134.864C354.838 134.765 355.143 134.625 355.408 134.442C355.689 134.255 355.932 134.026 356.135 133.755C356.343 133.479 356.507 133.171 356.627 132.833C356.731 132.557 356.809 132.26 356.861 131.942C356.913 131.619 356.942 131.283 356.947 130.934V130.083C356.942 129.729 356.911 129.39 356.853 129.067C356.801 128.739 356.721 128.434 356.611 128.153C356.471 127.789 356.281 127.46 356.041 127.169C355.807 126.872 355.518 126.632 355.174 126.45C354.929 126.315 354.656 126.21 354.353 126.138C354.051 126.059 353.721 126.018 353.361 126.013H352.197ZM365.561 136.2C365.504 136.091 365.457 135.955 365.42 135.794C365.389 135.627 365.366 135.455 365.35 135.278C365.204 135.424 365.04 135.562 364.858 135.692C364.681 135.822 364.485 135.937 364.272 136.036C364.053 136.135 363.821 136.213 363.577 136.27C363.332 136.328 363.071 136.356 362.795 136.356C362.347 136.356 361.941 136.291 361.577 136.161C361.217 136.031 360.912 135.854 360.662 135.63C360.407 135.411 360.209 135.151 360.069 134.849C359.933 134.541 359.866 134.21 359.866 133.856C359.866 133.393 359.957 132.987 360.139 132.638C360.327 132.289 360.59 131.997 360.928 131.763C361.267 131.533 361.673 131.362 362.147 131.247C362.626 131.132 363.16 131.075 363.748 131.075H365.327V130.411C365.327 130.156 365.28 129.927 365.186 129.724C365.092 129.52 364.959 129.346 364.787 129.2C364.616 129.059 364.405 128.95 364.155 128.872C363.91 128.794 363.634 128.755 363.327 128.755C363.04 128.755 362.782 128.791 362.553 128.864C362.329 128.937 362.139 129.033 361.983 129.153C361.827 129.273 361.704 129.416 361.616 129.583C361.532 129.744 361.491 129.914 361.491 130.091H360.037C360.043 129.783 360.121 129.481 360.272 129.184C360.428 128.888 360.652 128.619 360.944 128.38C361.23 128.145 361.579 127.955 361.991 127.809C362.407 127.664 362.879 127.591 363.405 127.591C363.884 127.591 364.329 127.651 364.741 127.77C365.152 127.885 365.509 128.059 365.811 128.294C366.108 128.533 366.342 128.83 366.514 129.184C366.686 129.539 366.772 129.953 366.772 130.427V134.356C366.772 134.638 366.798 134.937 366.85 135.255C366.902 135.567 366.975 135.841 367.069 136.075V136.2H365.561ZM363.006 135.099C363.287 135.099 363.551 135.062 363.795 134.989C364.04 134.916 364.264 134.82 364.467 134.7C364.665 134.58 364.837 134.445 364.983 134.294C365.129 134.138 365.243 133.976 365.327 133.809V132.099H363.983C363.483 132.099 363.045 132.143 362.67 132.231C362.301 132.315 362.006 132.445 361.787 132.622C361.631 132.747 361.511 132.895 361.428 133.067C361.35 133.239 361.311 133.434 361.311 133.653C361.311 133.862 361.345 134.054 361.412 134.231C361.485 134.408 361.592 134.559 361.733 134.684C361.873 134.815 362.051 134.916 362.264 134.989C362.478 135.062 362.725 135.099 363.006 135.099ZM374.675 127.591C374.94 127.591 375.216 127.609 375.503 127.645C375.794 127.682 376.013 127.731 376.159 127.794L375.964 129.208C375.682 129.145 375.414 129.101 375.159 129.075C374.909 129.044 374.646 129.028 374.37 129.028C374.016 129.028 373.696 129.072 373.409 129.161C373.123 129.244 372.873 129.369 372.659 129.536C372.466 129.682 372.297 129.862 372.151 130.075C372.011 130.283 371.893 130.518 371.8 130.778V136.2H370.347V127.747H371.722L371.784 128.88L371.792 129.091C372.136 128.627 372.547 128.263 373.026 127.997C373.511 127.726 374.06 127.591 374.675 127.591ZM380.796 132.255L379.734 133.278V136.2H378.281V124.2H379.734V131.544L380.679 130.528L383.452 127.747H385.21L381.788 131.27L385.734 136.2H383.898L380.796 132.255Z" fill="#6B6B6B"/>
<rect x="426" y="0.600098" width="132" height="105.6" rx="12" fill="url(#paint3_linear_1_498)"/>
<path d="M455.625 131.559H453.352V136.2H451.914V124.825H455.25C455.781 124.835 456.281 124.911 456.75 125.052C457.219 125.192 457.63 125.403 457.984 125.684C458.333 125.966 458.607 126.32 458.805 126.747C459.008 127.169 459.109 127.666 459.109 128.239C459.109 128.609 459.055 128.947 458.945 129.255C458.841 129.562 458.695 129.841 458.508 130.091C458.32 130.341 458.096 130.562 457.836 130.755C457.576 130.947 457.289 131.112 456.977 131.247L459.391 136.106L459.383 136.2H457.859L455.625 131.559ZM453.352 130.372H455.289C455.612 130.367 455.917 130.317 456.203 130.224C456.49 130.125 456.742 129.984 456.961 129.802C457.174 129.619 457.344 129.398 457.469 129.138C457.594 128.872 457.656 128.567 457.656 128.224C457.656 127.859 457.596 127.541 457.477 127.27C457.357 126.994 457.19 126.763 456.977 126.575C456.763 126.393 456.508 126.255 456.211 126.161C455.919 126.067 455.599 126.018 455.25 126.013H453.352V130.372ZM464.723 136.356C464.129 136.356 463.583 136.255 463.083 136.052C462.588 135.849 462.163 135.565 461.809 135.2C461.455 134.835 461.179 134.403 460.981 133.903C460.783 133.403 460.684 132.859 460.684 132.27V131.942C460.684 131.26 460.793 130.651 461.012 130.114C461.231 129.572 461.523 129.114 461.887 128.739C462.247 128.369 462.655 128.085 463.114 127.888C463.577 127.69 464.051 127.591 464.536 127.591C465.145 127.591 465.676 127.697 466.129 127.911C466.588 128.119 466.968 128.408 467.27 128.778C467.572 129.153 467.796 129.593 467.942 130.099C468.093 130.604 468.168 131.151 468.168 131.739V132.388H462.129V132.442C462.166 132.854 462.247 133.216 462.372 133.528C462.502 133.841 462.679 134.117 462.903 134.356C463.132 134.612 463.408 134.812 463.731 134.958C464.054 135.104 464.411 135.177 464.801 135.177C465.317 135.177 465.775 135.072 466.176 134.864C466.577 134.656 466.911 134.38 467.176 134.036L468.059 134.724C467.778 135.151 467.356 135.531 466.793 135.864C466.236 136.192 465.546 136.356 464.723 136.356ZM464.536 128.778C464.244 128.778 463.968 128.833 463.708 128.942C463.447 129.046 463.213 129.2 463.004 129.403C462.796 129.612 462.619 129.867 462.473 130.169C462.333 130.466 462.234 130.809 462.176 131.2H466.723V131.13C466.723 130.869 466.674 130.591 466.575 130.294C466.476 129.992 466.338 129.731 466.161 129.513C465.984 129.294 465.76 129.117 465.489 128.981C465.223 128.846 464.905 128.778 464.536 128.778ZM469.845 131.903C469.845 131.273 469.923 130.695 470.079 130.169C470.241 129.638 470.47 129.182 470.767 128.802C471.058 128.421 471.412 128.125 471.829 127.911C472.246 127.697 472.712 127.591 473.228 127.591C473.733 127.591 474.173 127.677 474.548 127.849C474.928 128.015 475.256 128.26 475.532 128.583V124.2H476.978V136.2H475.649L475.587 135.309C475.306 135.653 474.97 135.914 474.579 136.091C474.188 136.268 473.733 136.356 473.212 136.356C472.701 136.356 472.238 136.247 471.821 136.028C471.41 135.809 471.058 135.507 470.767 135.122C470.475 134.737 470.248 134.283 470.087 133.763C469.925 133.237 469.845 132.671 469.845 132.067V131.903ZM471.29 132.067C471.29 132.479 471.334 132.869 471.423 133.239C471.511 133.609 471.649 133.934 471.837 134.216C472.019 134.497 472.254 134.721 472.54 134.888C472.826 135.049 473.17 135.13 473.571 135.13C474.056 135.13 474.457 135.02 474.774 134.802C475.092 134.583 475.345 134.289 475.532 133.919V129.997C475.345 129.653 475.092 129.372 474.774 129.153C474.457 128.929 474.061 128.817 473.587 128.817C473.181 128.817 472.832 128.901 472.54 129.067C472.254 129.234 472.019 129.458 471.837 129.739C471.649 130.026 471.511 130.356 471.423 130.731C471.334 131.101 471.29 131.492 471.29 131.903V132.067ZM486.263 137.38H479.099V136.2H486.263V137.38ZM490.01 134.974H495.572V136.2H488.564V124.825H490.01V134.974ZM497.733 127.747H502.053V134.95H504.811V136.2H497.733V134.95H500.608V129.005H497.733V127.747ZM500.42 125.528C500.42 125.403 500.439 125.286 500.475 125.177C500.517 125.067 500.579 124.974 500.662 124.895C500.73 124.828 500.816 124.776 500.92 124.739C501.03 124.697 501.152 124.677 501.287 124.677C501.423 124.677 501.543 124.697 501.647 124.739C501.751 124.776 501.837 124.828 501.905 124.895C501.988 124.968 502.051 125.059 502.092 125.169C502.134 125.278 502.155 125.398 502.155 125.528C502.155 125.763 502.082 125.958 501.936 126.114C501.79 126.27 501.574 126.349 501.287 126.349C500.996 126.349 500.777 126.27 500.631 126.114C500.491 125.958 500.42 125.763 500.42 125.528ZM506.37 131.903C506.37 131.273 506.446 130.695 506.597 130.169C506.753 129.638 506.977 129.182 507.268 128.802C507.56 128.421 507.914 128.125 508.331 127.911C508.748 127.697 509.219 127.591 509.745 127.591C510.084 127.591 510.393 127.63 510.675 127.708C510.961 127.786 511.219 127.901 511.448 128.052C511.573 128.13 511.69 128.221 511.8 128.325C511.914 128.429 512.021 128.544 512.12 128.669L512.19 127.747H513.503V136.02C513.503 136.578 513.414 137.072 513.237 137.505C513.065 137.937 512.823 138.304 512.511 138.606C512.193 138.908 511.815 139.138 511.378 139.294C510.94 139.45 510.456 139.528 509.925 139.528C509.706 139.528 509.456 139.502 509.175 139.45C508.893 139.403 508.61 139.322 508.323 139.208C508.031 139.099 507.75 138.95 507.479 138.763C507.214 138.575 506.985 138.343 506.792 138.067L507.542 137.2C507.719 137.414 507.901 137.593 508.089 137.739C508.276 137.89 508.466 138.01 508.659 138.099C508.852 138.187 509.044 138.25 509.237 138.286C509.43 138.328 509.623 138.349 509.815 138.349C510.159 138.349 510.469 138.299 510.745 138.2C511.021 138.101 511.258 137.955 511.456 137.763C511.649 137.575 511.797 137.341 511.901 137.059C512.005 136.778 512.057 136.455 512.057 136.091V135.364C511.948 135.489 511.831 135.604 511.706 135.708C511.586 135.812 511.456 135.903 511.315 135.981C511.097 136.101 510.854 136.192 510.589 136.255C510.323 136.322 510.037 136.356 509.729 136.356C509.214 136.356 508.748 136.247 508.331 136.028C507.914 135.809 507.563 135.507 507.276 135.122C506.985 134.737 506.761 134.283 506.604 133.763C506.448 133.237 506.37 132.671 506.37 132.067V131.903ZM507.815 132.067C507.815 132.479 507.857 132.869 507.94 133.239C508.029 133.609 508.167 133.934 508.354 134.216C508.537 134.497 508.771 134.721 509.057 134.888C509.344 135.049 509.688 135.13 510.089 135.13C510.339 135.13 510.563 135.101 510.761 135.044C510.964 134.981 511.146 134.895 511.307 134.786C511.464 134.677 511.604 134.546 511.729 134.395C511.854 134.244 511.964 134.078 512.057 133.895V130.02C511.964 129.843 511.854 129.682 511.729 129.536C511.604 129.39 511.461 129.263 511.3 129.153C511.138 129.049 510.959 128.968 510.761 128.911C510.563 128.849 510.344 128.817 510.104 128.817C509.698 128.817 509.349 128.901 509.057 129.067C508.771 129.234 508.537 129.458 508.354 129.739C508.167 130.026 508.029 130.356 507.94 130.731C507.857 131.101 507.815 131.492 507.815 131.903V132.067ZM517.21 129.005C517.325 128.833 517.452 128.677 517.593 128.536C517.734 128.39 517.882 128.263 518.038 128.153C518.288 127.971 518.562 127.833 518.859 127.739C519.161 127.645 519.481 127.596 519.82 127.591C520.262 127.591 520.663 127.656 521.023 127.786C521.387 127.911 521.697 128.109 521.952 128.38C522.208 128.651 522.403 128.994 522.538 129.411C522.679 129.822 522.749 130.312 522.749 130.88V136.2H521.304V130.864C521.304 130.531 521.265 130.239 521.187 129.989C521.109 129.734 520.994 129.523 520.843 129.356C520.682 129.174 520.479 129.039 520.234 128.95C519.989 128.856 519.708 128.812 519.39 128.817C519.13 128.817 518.882 128.854 518.648 128.927C518.413 129 518.197 129.104 517.999 129.239C517.843 129.343 517.697 129.466 517.562 129.606C517.432 129.742 517.314 129.893 517.21 130.059V136.2H515.765V124.2H517.21V129.005ZM528.316 125.7V127.747H531.535V128.864H528.316V133.458C528.316 133.786 528.358 134.057 528.441 134.27C528.525 134.484 528.639 134.653 528.785 134.778C528.931 134.908 529.098 135 529.285 135.052C529.478 135.104 529.681 135.13 529.894 135.13C530.051 135.13 530.212 135.122 530.379 135.106C530.545 135.085 530.709 135.062 530.871 135.036C531.027 135.01 531.173 134.984 531.308 134.958C531.449 134.927 531.564 134.901 531.652 134.88L531.855 135.903C531.736 135.976 531.59 136.041 531.418 136.099C531.246 136.151 531.058 136.195 530.855 136.231C530.652 136.273 530.436 136.304 530.207 136.325C529.983 136.346 529.759 136.356 529.535 136.356C529.16 136.356 528.808 136.304 528.48 136.2C528.157 136.091 527.876 135.919 527.637 135.684C527.397 135.455 527.207 135.158 527.066 134.794C526.931 134.424 526.863 133.979 526.863 133.458V128.864H524.644V127.747H526.863V125.7H528.316Z" fill="#6B6B6B"/>
<rect y="178.2" width="132" height="105.6" rx="12" fill="url(#paint4_linear_1_498)"/>
<path d="M8.71875 312.308C8.54167 312.516 8.35417 312.706 8.15625 312.878C7.95833 313.045 7.7526 313.191 7.53906 313.316C7.17448 313.534 6.78125 313.696 6.35938 313.8C5.9375 313.909 5.49479 313.962 5.03125 313.956C4.5625 313.951 4.13021 313.881 3.73438 313.745C3.34375 313.605 2.99219 313.412 2.67969 313.167C2.36719 312.928 2.09375 312.644 1.85938 312.316C1.625 311.988 1.42969 311.631 1.27344 311.245C1.11198 310.865 0.989583 310.467 0.90625 310.05C0.828125 309.628 0.786458 309.204 0.78125 308.777V307.456C0.786458 307.034 0.822917 306.615 0.890625 306.198C0.963542 305.777 1.07292 305.373 1.21875 304.988C1.36458 304.602 1.54688 304.245 1.76562 303.917C1.98438 303.584 2.2474 303.295 2.55469 303.05C2.85677 302.81 3.20052 302.62 3.58594 302.48C3.97135 302.339 4.40365 302.269 4.88281 302.269C5.41406 302.269 5.90365 302.352 6.35156 302.519C6.79948 302.68 7.1901 302.912 7.52344 303.214C7.85677 303.521 8.125 303.891 8.32812 304.323C8.53125 304.751 8.65625 305.23 8.70312 305.761H7.27344C7.21615 305.433 7.1276 305.131 7.00781 304.855C6.88802 304.573 6.73177 304.334 6.53906 304.136C6.34115 303.938 6.10677 303.784 5.83594 303.675C5.5651 303.56 5.25 303.503 4.89062 303.503C4.54688 303.503 4.24219 303.563 3.97656 303.683C3.71094 303.797 3.47917 303.954 3.28125 304.152C3.08333 304.35 2.91927 304.581 2.78906 304.847C2.65885 305.107 2.55208 305.383 2.46875 305.675C2.38542 305.967 2.32552 306.264 2.28906 306.566C2.2526 306.868 2.23438 307.159 2.23438 307.441V308.777C2.23958 309.063 2.26302 309.36 2.30469 309.667C2.35156 309.969 2.42188 310.266 2.51562 310.558C2.60938 310.85 2.72917 311.126 2.875 311.386C3.02083 311.646 3.19792 311.876 3.40625 312.073C3.60938 312.271 3.84635 312.43 4.11719 312.55C4.38802 312.665 4.69531 312.725 5.03906 312.73C5.23698 312.735 5.44271 312.727 5.65625 312.706C5.875 312.685 6.08594 312.644 6.28906 312.581C6.49219 312.519 6.68229 312.435 6.85938 312.331C7.03646 312.222 7.1849 312.081 7.30469 311.909L7.32031 309.355H5.00781V308.136H8.69531L8.71875 312.308ZM16.0278 305.191C16.2934 305.191 16.5695 305.209 16.8559 305.245C17.1476 305.282 17.3664 305.331 17.5122 305.394L17.3169 306.808C17.0356 306.745 16.7674 306.701 16.5122 306.675C16.2622 306.644 15.9992 306.628 15.7231 306.628C15.369 306.628 15.0486 306.672 14.7622 306.761C14.4757 306.844 14.2257 306.969 14.0122 307.136C13.8195 307.282 13.6502 307.462 13.5044 307.675C13.3638 307.883 13.2466 308.118 13.1528 308.378V313.8H11.6997V305.347H13.0747L13.1372 306.48L13.145 306.691C13.4888 306.227 13.9002 305.863 14.3794 305.597C14.8638 305.326 15.4132 305.191 16.0278 305.191ZM23.3525 313.956C22.7588 313.956 22.2119 313.855 21.7119 313.652C21.2171 313.448 20.7926 313.165 20.4384 312.8C20.0843 312.435 19.8082 312.003 19.6103 311.503C19.4124 311.003 19.3134 310.459 19.3134 309.87V309.542C19.3134 308.86 19.4228 308.251 19.6416 307.714C19.8603 307.172 20.152 306.714 20.5166 306.339C20.8759 305.969 21.2848 305.685 21.7431 305.488C22.2067 305.29 22.6806 305.191 23.165 305.191C23.7744 305.191 24.3056 305.297 24.7588 305.511C25.2171 305.719 25.5973 306.008 25.8994 306.378C26.2015 306.753 26.4254 307.193 26.5713 307.698C26.7223 308.204 26.7978 308.751 26.7978 309.339V309.988H20.7588V310.042C20.7952 310.454 20.8759 310.816 21.0009 311.128C21.1311 311.441 21.3082 311.717 21.5322 311.956C21.7614 312.212 22.0374 312.412 22.3603 312.558C22.6832 312.704 23.04 312.777 23.4306 312.777C23.9463 312.777 24.4046 312.672 24.8056 312.464C25.2067 312.256 25.54 311.98 25.8056 311.636L26.6884 312.323C26.4072 312.751 25.9853 313.131 25.4228 313.464C24.8655 313.792 24.1754 313.956 23.3525 313.956ZM23.165 306.378C22.8733 306.378 22.5973 306.433 22.3369 306.542C22.0765 306.646 21.8421 306.8 21.6338 307.003C21.4254 307.212 21.2483 307.467 21.1025 307.769C20.9619 308.066 20.8629 308.409 20.8056 308.8H25.3525V308.73C25.3525 308.469 25.303 308.191 25.2041 307.894C25.1051 307.592 24.9671 307.331 24.79 307.113C24.6129 306.894 24.389 306.717 24.1181 306.581C23.8525 306.446 23.5348 306.378 23.165 306.378ZM32.4819 313.956C31.8881 313.956 31.3412 313.855 30.8412 313.652C30.3465 313.448 29.922 313.165 29.5678 312.8C29.2136 312.435 28.9376 312.003 28.7397 311.503C28.5418 311.003 28.4428 310.459 28.4428 309.87V309.542C28.4428 308.86 28.5522 308.251 28.7709 307.714C28.9897 307.172 29.2814 306.714 29.6459 306.339C30.0053 305.969 30.4142 305.685 30.8725 305.488C31.336 305.29 31.81 305.191 32.2944 305.191C32.9037 305.191 33.435 305.297 33.8881 305.511C34.3465 305.719 34.7267 306.008 35.0287 306.378C35.3308 306.753 35.5548 307.193 35.7006 307.698C35.8517 308.204 35.9272 308.751 35.9272 309.339V309.988H29.8881V310.042C29.9246 310.454 30.0053 310.816 30.1303 311.128C30.2605 311.441 30.4376 311.717 30.6616 311.956C30.8907 312.212 31.1668 312.412 31.4897 312.558C31.8126 312.704 32.1694 312.777 32.56 312.777C33.0756 312.777 33.534 312.672 33.935 312.464C34.336 312.256 34.6694 311.98 34.935 311.636L35.8178 312.323C35.5366 312.751 35.1147 313.131 34.5522 313.464C33.9949 313.792 33.3048 313.956 32.4819 313.956ZM32.2944 306.378C32.0027 306.378 31.7267 306.433 31.4662 306.542C31.2058 306.646 30.9715 306.8 30.7631 307.003C30.5548 307.212 30.3777 307.467 30.2319 307.769C30.0912 308.066 29.9923 308.409 29.935 308.8H34.4819V308.73C34.4819 308.469 34.4324 308.191 34.3334 307.894C34.2345 307.592 34.0965 307.331 33.9194 307.113C33.7423 306.894 33.5183 306.717 33.2475 306.581C32.9819 306.446 32.6642 306.378 32.2944 306.378ZM37.8769 313.8V305.347H39.1738L39.2753 306.597C39.4003 306.42 39.5357 306.258 39.6816 306.113C39.8326 305.962 39.9915 305.831 40.1581 305.722C40.4081 305.555 40.679 305.428 40.9706 305.339C41.2675 305.245 41.58 305.196 41.9081 305.191C42.3508 305.191 42.7519 305.253 43.1113 305.378C43.4758 305.503 43.7857 305.698 44.0409 305.964C44.2961 306.23 44.4915 306.568 44.6269 306.98C44.7675 307.386 44.8378 307.87 44.8378 308.433V313.8H43.3925V308.464C43.3925 308.089 43.3508 307.771 43.2675 307.511C43.1842 307.251 43.0618 307.04 42.9003 306.878C42.7336 306.717 42.5305 306.6 42.2909 306.527C42.0566 306.454 41.7857 306.417 41.4784 306.417C41.2128 306.417 40.9654 306.456 40.7363 306.534C40.5071 306.607 40.2961 306.709 40.1034 306.839C39.9472 306.954 39.8014 307.087 39.6659 307.238C39.5357 307.389 39.4211 307.555 39.3222 307.738V313.8H37.8769ZM54.0219 314.98H46.8578V313.8H54.0219V314.98ZM55.9872 313.8V302.425H58.62C59.0627 302.43 59.4794 302.477 59.87 302.566C60.2658 302.649 60.6304 302.769 60.9637 302.925C61.4273 303.139 61.8361 303.42 62.1903 303.769C62.5497 304.113 62.8361 304.511 63.0497 304.964C63.2424 305.35 63.3882 305.771 63.4872 306.23C63.5914 306.688 63.646 307.178 63.6512 307.698V308.534C63.6512 309.034 63.6018 309.508 63.5028 309.956C63.4091 310.404 63.271 310.816 63.0887 311.191C62.9012 311.581 62.6643 311.935 62.3778 312.253C62.0914 312.571 61.771 312.842 61.4169 313.066C61.0419 313.3 60.6174 313.48 60.1434 313.605C59.6747 313.73 59.1669 313.795 58.62 313.8H55.9872ZM57.4559 303.613V312.62H58.62C59.0367 312.615 59.4143 312.563 59.7528 312.464C60.0966 312.365 60.4012 312.225 60.6669 312.042C60.9481 311.855 61.1903 311.626 61.3934 311.355C61.6018 311.079 61.7658 310.771 61.8856 310.433C61.9898 310.157 62.0679 309.86 62.12 309.542C62.1721 309.219 62.2007 308.883 62.2059 308.534V307.683C62.2007 307.329 62.1695 306.99 62.1122 306.667C62.0601 306.339 61.9794 306.034 61.87 305.753C61.7294 305.389 61.5393 305.06 61.2997 304.769C61.0653 304.472 60.7762 304.232 60.4325 304.05C60.1877 303.915 59.9143 303.81 59.6122 303.738C59.3101 303.659 58.9794 303.618 58.62 303.613H57.4559ZM70.8197 313.8C70.7624 313.691 70.7155 313.555 70.6791 313.394C70.6478 313.227 70.6244 313.055 70.6087 312.878C70.4629 313.024 70.2989 313.162 70.1166 313.292C69.9395 313.422 69.7442 313.537 69.5306 313.636C69.3119 313.735 69.0801 313.813 68.8353 313.87C68.5905 313.928 68.3301 313.956 68.0541 313.956C67.6061 313.956 67.1999 313.891 66.8353 313.761C66.4759 313.631 66.1712 313.454 65.9212 313.23C65.666 313.011 65.4681 312.751 65.3275 312.448C65.1921 312.141 65.1244 311.81 65.1244 311.456C65.1244 310.993 65.2155 310.587 65.3978 310.238C65.5853 309.889 65.8483 309.597 66.1869 309.363C66.5254 309.133 66.9317 308.962 67.4056 308.847C67.8848 308.732 68.4186 308.675 69.0072 308.675H70.5853V308.011C70.5853 307.756 70.5384 307.527 70.4447 307.323C70.3509 307.12 70.2181 306.946 70.0462 306.8C69.8744 306.659 69.6634 306.55 69.4134 306.472C69.1686 306.394 68.8926 306.355 68.5853 306.355C68.2989 306.355 68.041 306.391 67.8119 306.464C67.5879 306.537 67.3978 306.633 67.2416 306.753C67.0853 306.873 66.9629 307.016 66.8744 307.183C66.791 307.344 66.7494 307.514 66.7494 307.691H65.2962C65.3015 307.383 65.3796 307.081 65.5306 306.784C65.6869 306.488 65.9108 306.219 66.2025 305.98C66.489 305.745 66.8379 305.555 67.2494 305.409C67.666 305.264 68.1374 305.191 68.6634 305.191C69.1426 305.191 69.5879 305.251 69.9994 305.37C70.4108 305.485 70.7676 305.659 71.0697 305.894C71.3666 306.133 71.6009 306.43 71.7728 306.784C71.9447 307.139 72.0306 307.553 72.0306 308.027V311.956C72.0306 312.238 72.0567 312.537 72.1087 312.855C72.1608 313.167 72.2337 313.441 72.3275 313.675V313.8H70.8197ZM68.265 312.698C68.5462 312.698 68.8093 312.662 69.0541 312.589C69.2989 312.516 69.5228 312.42 69.7259 312.3C69.9239 312.18 70.0957 312.045 70.2416 311.894C70.3874 311.738 70.502 311.576 70.5853 311.409V309.698H69.2416C68.7416 309.698 68.3041 309.743 67.9291 309.831C67.5593 309.915 67.265 310.045 67.0462 310.222C66.89 310.347 66.7702 310.495 66.6869 310.667C66.6087 310.839 66.5697 311.034 66.5697 311.253C66.5697 311.462 66.6035 311.654 66.6712 311.831C66.7442 312.008 66.8509 312.159 66.9916 312.284C67.1322 312.415 67.3093 312.516 67.5228 312.589C67.7364 312.662 67.9837 312.698 68.265 312.698ZM79.9334 305.191C80.1991 305.191 80.4751 305.209 80.7616 305.245C81.0532 305.282 81.272 305.331 81.4178 305.394L81.2225 306.808C80.9413 306.745 80.673 306.701 80.4178 306.675C80.1678 306.644 79.9048 306.628 79.6288 306.628C79.2746 306.628 78.9543 306.672 78.6678 306.761C78.3814 306.844 78.1314 306.969 77.9178 307.136C77.7251 307.282 77.5558 307.462 77.41 307.675C77.2694 307.883 77.1522 308.118 77.0584 308.378V313.8H75.6053V305.347H76.9803L77.0428 306.48L77.0506 306.691C77.3944 306.227 77.8058 305.863 78.285 305.597C78.7694 305.326 79.3189 305.191 79.9334 305.191ZM86.055 309.855L84.9925 310.878V313.8H83.5394V301.8H84.9925V309.144L85.9378 308.128L88.7113 305.347H90.4691L87.0472 308.87L90.9925 313.8H89.1566L86.055 309.855Z" fill="#6B6B6B"/>
<rect x="142" y="178.2" width="132" height="105.6" rx="12" fill="url(#paint5_linear_1_498)"/>
<path d="M166.219 312.308C166.042 312.516 165.854 312.706 165.656 312.878C165.458 313.045 165.253 313.191 165.039 313.316C164.674 313.534 164.281 313.696 163.859 313.8C163.438 313.909 162.995 313.962 162.531 313.956C162.062 313.951 161.63 313.881 161.234 313.745C160.844 313.605 160.492 313.412 160.18 313.167C159.867 312.928 159.594 312.644 159.359 312.316C159.125 311.988 158.93 311.631 158.773 311.245C158.612 310.865 158.49 310.467 158.406 310.05C158.328 309.628 158.286 309.204 158.281 308.777V307.456C158.286 307.034 158.323 306.615 158.391 306.198C158.464 305.777 158.573 305.373 158.719 304.988C158.865 304.602 159.047 304.245 159.266 303.917C159.484 303.584 159.747 303.295 160.055 303.05C160.357 302.81 160.701 302.62 161.086 302.48C161.471 302.339 161.904 302.269 162.383 302.269C162.914 302.269 163.404 302.352 163.852 302.519C164.299 302.68 164.69 302.912 165.023 303.214C165.357 303.521 165.625 303.891 165.828 304.323C166.031 304.751 166.156 305.23 166.203 305.761H164.773C164.716 305.433 164.628 305.131 164.508 304.855C164.388 304.573 164.232 304.334 164.039 304.136C163.841 303.938 163.607 303.784 163.336 303.675C163.065 303.56 162.75 303.503 162.391 303.503C162.047 303.503 161.742 303.563 161.477 303.683C161.211 303.797 160.979 303.954 160.781 304.152C160.583 304.35 160.419 304.581 160.289 304.847C160.159 305.107 160.052 305.383 159.969 305.675C159.885 305.967 159.826 306.264 159.789 306.566C159.753 306.868 159.734 307.159 159.734 307.441V308.777C159.74 309.063 159.763 309.36 159.805 309.667C159.852 309.969 159.922 310.266 160.016 310.558C160.109 310.85 160.229 311.126 160.375 311.386C160.521 311.646 160.698 311.876 160.906 312.073C161.109 312.271 161.346 312.43 161.617 312.55C161.888 312.665 162.195 312.725 162.539 312.73C162.737 312.735 162.943 312.727 163.156 312.706C163.375 312.685 163.586 312.644 163.789 312.581C163.992 312.519 164.182 312.435 164.359 312.331C164.536 312.222 164.685 312.081 164.805 311.909L164.82 309.355H162.508V308.136H166.195L166.219 312.308ZM173.528 305.191C173.793 305.191 174.069 305.209 174.356 305.245C174.648 305.282 174.866 305.331 175.012 305.394L174.817 306.808C174.536 306.745 174.267 306.701 174.012 306.675C173.762 306.644 173.499 306.628 173.223 306.628C172.869 306.628 172.549 306.672 172.262 306.761C171.976 306.844 171.726 306.969 171.512 307.136C171.319 307.282 171.15 307.462 171.004 307.675C170.864 307.883 170.747 308.118 170.653 308.378V313.8H169.2V305.347H170.575L170.637 306.48L170.645 306.691C170.989 306.227 171.4 305.863 171.879 305.597C172.364 305.326 172.913 305.191 173.528 305.191ZM180.853 313.956C180.259 313.956 179.712 313.855 179.212 313.652C178.717 313.448 178.293 313.165 177.938 312.8C177.584 312.435 177.308 312.003 177.11 311.503C176.912 311.003 176.813 310.459 176.813 309.87V309.542C176.813 308.86 176.923 308.251 177.142 307.714C177.36 307.172 177.652 306.714 178.017 306.339C178.376 305.969 178.785 305.685 179.243 305.488C179.707 305.29 180.181 305.191 180.665 305.191C181.274 305.191 181.806 305.297 182.259 305.511C182.717 305.719 183.097 306.008 183.399 306.378C183.701 306.753 183.925 307.193 184.071 307.698C184.222 308.204 184.298 308.751 184.298 309.339V309.988H178.259V310.042C178.295 310.454 178.376 310.816 178.501 311.128C178.631 311.441 178.808 311.717 179.032 311.956C179.261 312.212 179.537 312.412 179.86 312.558C180.183 312.704 180.54 312.777 180.931 312.777C181.446 312.777 181.905 312.672 182.306 312.464C182.707 312.256 183.04 311.98 183.306 311.636L184.188 312.323C183.907 312.751 183.485 313.131 182.923 313.464C182.366 313.792 181.675 313.956 180.853 313.956ZM180.665 306.378C180.373 306.378 180.097 306.433 179.837 306.542C179.576 306.646 179.342 306.8 179.134 307.003C178.925 307.212 178.748 307.467 178.603 307.769C178.462 308.066 178.363 308.409 178.306 308.8H182.853V308.73C182.853 308.469 182.803 308.191 182.704 307.894C182.605 307.592 182.467 307.331 182.29 307.113C182.113 306.894 181.889 306.717 181.618 306.581C181.353 306.446 181.035 306.378 180.665 306.378ZM189.982 313.956C189.388 313.956 188.841 313.855 188.341 313.652C187.846 313.448 187.422 313.165 187.068 312.8C186.714 312.435 186.438 312.003 186.24 311.503C186.042 311.003 185.943 310.459 185.943 309.87V309.542C185.943 308.86 186.052 308.251 186.271 307.714C186.49 307.172 186.781 306.714 187.146 306.339C187.505 305.969 187.914 305.685 188.372 305.488C188.836 305.29 189.31 305.191 189.794 305.191C190.404 305.191 190.935 305.297 191.388 305.511C191.846 305.719 192.227 306.008 192.529 306.378C192.831 306.753 193.055 307.193 193.201 307.698C193.352 308.204 193.427 308.751 193.427 309.339V309.988H187.388V310.042C187.425 310.454 187.505 310.816 187.63 311.128C187.761 311.441 187.938 311.717 188.162 311.956C188.391 312.212 188.667 312.412 188.99 312.558C189.313 312.704 189.669 312.777 190.06 312.777C190.576 312.777 191.034 312.672 191.435 312.464C191.836 312.256 192.169 311.98 192.435 311.636L193.318 312.323C193.037 312.751 192.615 313.131 192.052 313.464C191.495 313.792 190.805 313.956 189.982 313.956ZM189.794 306.378C189.503 306.378 189.227 306.433 188.966 306.542C188.706 306.646 188.471 306.8 188.263 307.003C188.055 307.212 187.878 307.467 187.732 307.769C187.591 308.066 187.492 308.409 187.435 308.8H191.982V308.73C191.982 308.469 191.932 308.191 191.833 307.894C191.734 307.592 191.596 307.331 191.419 307.113C191.242 306.894 191.018 306.717 190.747 306.581C190.482 306.446 190.164 306.378 189.794 306.378ZM195.377 313.8V305.347H196.674L196.775 306.597C196.9 306.42 197.036 306.258 197.182 306.113C197.333 305.962 197.491 305.831 197.658 305.722C197.908 305.555 198.179 305.428 198.471 305.339C198.768 305.245 199.08 305.196 199.408 305.191C199.851 305.191 200.252 305.253 200.611 305.378C200.976 305.503 201.286 305.698 201.541 305.964C201.796 306.23 201.991 306.568 202.127 306.98C202.268 307.386 202.338 307.87 202.338 308.433V313.8H200.893V308.464C200.893 308.089 200.851 307.771 200.768 307.511C200.684 307.251 200.562 307.04 200.4 306.878C200.234 306.717 200.031 306.6 199.791 306.527C199.557 306.454 199.286 306.417 198.978 306.417C198.713 306.417 198.465 306.456 198.236 306.534C198.007 306.607 197.796 306.709 197.603 306.839C197.447 306.954 197.301 307.087 197.166 307.238C197.036 307.389 196.921 307.555 196.822 307.738V313.8H195.377ZM211.522 314.98H204.358V313.8H211.522V314.98ZM215.268 312.573H220.831V313.8H213.823V302.425H215.268V312.573ZM222.992 305.347H227.312V312.55H230.07V313.8H222.992V312.55H225.867V306.605H222.992V305.347ZM225.679 303.128C225.679 303.003 225.697 302.886 225.734 302.777C225.775 302.667 225.838 302.573 225.921 302.495C225.989 302.428 226.075 302.376 226.179 302.339C226.288 302.297 226.411 302.277 226.546 302.277C226.682 302.277 226.801 302.297 226.906 302.339C227.01 302.376 227.096 302.428 227.163 302.495C227.247 302.568 227.309 302.659 227.351 302.769C227.393 302.878 227.413 302.998 227.413 303.128C227.413 303.363 227.341 303.558 227.195 303.714C227.049 303.87 226.833 303.948 226.546 303.948C226.255 303.948 226.036 303.87 225.89 303.714C225.749 303.558 225.679 303.363 225.679 303.128ZM231.629 309.503C231.629 308.873 231.704 308.295 231.855 307.769C232.012 307.238 232.236 306.782 232.527 306.402C232.819 306.021 233.173 305.725 233.59 305.511C234.006 305.297 234.478 305.191 235.004 305.191C235.342 305.191 235.652 305.23 235.933 305.308C236.22 305.386 236.478 305.501 236.707 305.652C236.832 305.73 236.949 305.821 237.058 305.925C237.173 306.029 237.28 306.144 237.379 306.269L237.449 305.347H238.762V313.62C238.762 314.178 238.673 314.672 238.496 315.105C238.324 315.537 238.082 315.904 237.769 316.206C237.452 316.508 237.074 316.738 236.637 316.894C236.199 317.05 235.715 317.128 235.183 317.128C234.965 317.128 234.715 317.102 234.433 317.05C234.152 317.003 233.868 316.922 233.582 316.808C233.29 316.698 233.009 316.55 232.738 316.363C232.473 316.175 232.243 315.943 232.051 315.667L232.801 314.8C232.978 315.014 233.16 315.193 233.348 315.339C233.535 315.49 233.725 315.61 233.918 315.698C234.111 315.787 234.303 315.85 234.496 315.886C234.689 315.928 234.881 315.948 235.074 315.948C235.418 315.948 235.728 315.899 236.004 315.8C236.28 315.701 236.517 315.555 236.715 315.363C236.907 315.175 237.056 314.941 237.16 314.659C237.264 314.378 237.316 314.055 237.316 313.691V312.964C237.207 313.089 237.09 313.204 236.965 313.308C236.845 313.412 236.715 313.503 236.574 313.581C236.355 313.701 236.113 313.792 235.848 313.855C235.582 313.922 235.295 313.956 234.988 313.956C234.473 313.956 234.006 313.847 233.59 313.628C233.173 313.409 232.821 313.107 232.535 312.722C232.243 312.337 232.019 311.883 231.863 311.363C231.707 310.837 231.629 310.271 231.629 309.667V309.503ZM233.074 309.667C233.074 310.079 233.116 310.469 233.199 310.839C233.288 311.209 233.426 311.534 233.613 311.816C233.795 312.097 234.03 312.321 234.316 312.488C234.603 312.649 234.946 312.73 235.348 312.73C235.598 312.73 235.821 312.701 236.019 312.644C236.223 312.581 236.405 312.495 236.566 312.386C236.723 312.277 236.863 312.146 236.988 311.995C237.113 311.844 237.223 311.678 237.316 311.495V307.62C237.223 307.443 237.113 307.282 236.988 307.136C236.863 306.99 236.72 306.863 236.558 306.753C236.397 306.649 236.217 306.568 236.019 306.511C235.821 306.448 235.603 306.417 235.363 306.417C234.957 306.417 234.608 306.501 234.316 306.667C234.03 306.834 233.795 307.058 233.613 307.339C233.426 307.626 233.288 307.956 233.199 308.331C233.116 308.701 233.074 309.092 233.074 309.503V309.667ZM242.469 306.605C242.584 306.433 242.711 306.277 242.852 306.136C242.993 305.99 243.141 305.863 243.297 305.753C243.547 305.571 243.821 305.433 244.118 305.339C244.42 305.245 244.74 305.196 245.078 305.191C245.521 305.191 245.922 305.256 246.282 305.386C246.646 305.511 246.956 305.709 247.211 305.98C247.466 306.251 247.662 306.594 247.797 307.011C247.938 307.422 248.008 307.912 248.008 308.48V313.8H246.563V308.464C246.563 308.131 246.524 307.839 246.446 307.589C246.368 307.334 246.253 307.123 246.102 306.956C245.94 306.774 245.737 306.639 245.493 306.55C245.248 306.456 244.966 306.412 244.649 306.417C244.388 306.417 244.141 306.454 243.907 306.527C243.672 306.6 243.456 306.704 243.258 306.839C243.102 306.943 242.956 307.066 242.821 307.206C242.69 307.342 242.573 307.493 242.469 307.659V313.8H241.024V301.8H242.469V306.605ZM253.575 303.3V305.347H256.794V306.464H253.575V311.058C253.575 311.386 253.617 311.657 253.7 311.87C253.783 312.084 253.898 312.253 254.044 312.378C254.19 312.508 254.356 312.6 254.544 312.652C254.736 312.704 254.94 312.73 255.153 312.73C255.309 312.73 255.471 312.722 255.637 312.706C255.804 312.685 255.968 312.662 256.13 312.636C256.286 312.61 256.432 312.584 256.567 312.558C256.708 312.527 256.822 312.501 256.911 312.48L257.114 313.503C256.994 313.576 256.848 313.641 256.677 313.698C256.505 313.751 256.317 313.795 256.114 313.831C255.911 313.873 255.695 313.904 255.466 313.925C255.242 313.946 255.018 313.956 254.794 313.956C254.419 313.956 254.067 313.904 253.739 313.8C253.416 313.691 253.135 313.519 252.895 313.284C252.656 313.055 252.466 312.758 252.325 312.394C252.19 312.024 252.122 311.579 252.122 311.058V306.464H249.903V305.347H252.122V303.3H253.575Z" fill="#6B6B6B"/>
<rect x="284" y="178.2" width="132" height="105.6" rx="12" fill="url(#paint6_linear_1_498)"/>
<path d="M304.211 308.136L306.805 302.425H308.445L304.906 309.558L304.883 313.8H303.539L303.516 309.558L299.977 302.425H301.625L304.211 308.136ZM313.723 313.956C313.129 313.956 312.583 313.855 312.083 313.652C311.588 313.448 311.163 313.165 310.809 312.8C310.455 312.435 310.179 312.003 309.981 311.503C309.783 311.003 309.684 310.459 309.684 309.87V309.542C309.684 308.86 309.793 308.251 310.012 307.714C310.231 307.172 310.523 306.714 310.887 306.339C311.247 305.969 311.655 305.685 312.114 305.488C312.577 305.29 313.051 305.191 313.536 305.191C314.145 305.191 314.676 305.297 315.129 305.511C315.588 305.719 315.968 306.008 316.27 306.378C316.572 306.753 316.796 307.193 316.942 307.698C317.093 308.204 317.168 308.751 317.168 309.339V309.988H311.129V310.042C311.166 310.454 311.247 310.816 311.372 311.128C311.502 311.441 311.679 311.717 311.903 311.956C312.132 312.212 312.408 312.412 312.731 312.558C313.054 312.704 313.411 312.777 313.801 312.777C314.317 312.777 314.775 312.672 315.176 312.464C315.577 312.256 315.911 311.98 316.176 311.636L317.059 312.323C316.778 312.751 316.356 313.131 315.793 313.464C315.236 313.792 314.546 313.956 313.723 313.956ZM313.536 306.378C313.244 306.378 312.968 306.433 312.708 306.542C312.447 306.646 312.213 306.8 312.004 307.003C311.796 307.212 311.619 307.467 311.473 307.769C311.333 308.066 311.234 308.409 311.176 308.8H315.723V308.73C315.723 308.469 315.674 308.191 315.575 307.894C315.476 307.592 315.338 307.331 315.161 307.113C314.984 306.894 314.76 306.717 314.489 306.581C314.223 306.446 313.905 306.378 313.536 306.378ZM319.345 301.8H323.665V312.55H326.423V313.8H319.345V312.55H322.22V303.058H319.345V301.8ZM328.474 301.8H332.794V312.55H335.552V313.8H328.474V312.55H331.349V303.058H328.474V301.8ZM336.971 309.495C336.971 308.886 337.059 308.321 337.236 307.8C337.413 307.274 337.669 306.818 338.002 306.433C338.33 306.047 338.731 305.745 339.205 305.527C339.679 305.303 340.213 305.191 340.807 305.191C341.406 305.191 341.942 305.303 342.416 305.527C342.895 305.745 343.301 306.047 343.635 306.433C343.963 306.818 344.215 307.274 344.393 307.8C344.57 308.321 344.658 308.886 344.658 309.495V309.667C344.658 310.277 344.57 310.842 344.393 311.363C344.215 311.883 343.963 312.337 343.635 312.722C343.301 313.107 342.898 313.409 342.424 313.628C341.95 313.847 341.416 313.956 340.822 313.956C340.223 313.956 339.684 313.847 339.205 313.628C338.731 313.409 338.33 313.107 338.002 312.722C337.669 312.337 337.413 311.883 337.236 311.363C337.059 310.842 336.971 310.277 336.971 309.667V309.495ZM338.416 309.667C338.416 310.084 338.465 310.482 338.564 310.863C338.663 311.238 338.814 311.568 339.018 311.855C339.215 312.141 339.465 312.368 339.768 312.534C340.07 312.701 340.421 312.784 340.822 312.784C341.218 312.784 341.564 312.701 341.861 312.534C342.163 312.368 342.416 312.141 342.619 311.855C342.817 311.568 342.965 311.238 343.064 310.863C343.163 310.482 343.213 310.084 343.213 309.667V309.495C343.213 309.084 343.161 308.691 343.057 308.316C342.958 307.935 342.809 307.602 342.611 307.316C342.408 307.029 342.156 306.803 341.853 306.636C341.557 306.464 341.208 306.378 340.807 306.378C340.406 306.378 340.057 306.464 339.76 306.636C339.463 306.803 339.215 307.029 339.018 307.316C338.814 307.602 338.663 307.935 338.564 308.316C338.465 308.691 338.416 309.084 338.416 309.495V309.667ZM347.319 313.8L345.522 305.347H346.803L347.787 310.738L347.959 311.948L348.17 310.738L349.522 305.347H350.452L351.795 310.738L352.022 312.066L352.233 310.738L353.17 305.347H354.452L352.655 313.8H351.514L350.194 308.62L349.975 307.308L349.764 308.62L348.459 313.8H347.319ZM362.651 314.98H355.487V313.8H362.651V314.98ZM364.617 313.8V302.425H367.249C367.692 302.43 368.109 302.477 368.499 302.566C368.895 302.649 369.26 302.769 369.593 302.925C370.057 303.139 370.466 303.42 370.82 303.769C371.179 304.113 371.466 304.511 371.679 304.964C371.872 305.35 372.018 305.771 372.117 306.23C372.221 306.688 372.275 307.178 372.281 307.698V308.534C372.281 309.034 372.231 309.508 372.132 309.956C372.038 310.404 371.9 310.816 371.718 311.191C371.531 311.581 371.294 311.935 371.007 312.253C370.721 312.571 370.4 312.842 370.046 313.066C369.671 313.3 369.247 313.48 368.773 313.605C368.304 313.73 367.796 313.795 367.249 313.8H364.617ZM366.085 303.613V312.62H367.249C367.666 312.615 368.044 312.563 368.382 312.464C368.726 312.365 369.031 312.225 369.296 312.042C369.577 311.855 369.82 311.626 370.023 311.355C370.231 311.079 370.395 310.771 370.515 310.433C370.619 310.157 370.697 309.86 370.749 309.542C370.801 309.219 370.83 308.883 370.835 308.534V307.683C370.83 307.329 370.799 306.99 370.742 306.667C370.689 306.339 370.609 306.034 370.499 305.753C370.359 305.389 370.169 305.06 369.929 304.769C369.695 304.472 369.406 304.232 369.062 304.05C368.817 303.915 368.544 303.81 368.242 303.738C367.939 303.659 367.609 303.618 367.249 303.613H366.085ZM379.449 313.8C379.392 313.691 379.345 313.555 379.308 313.394C379.277 313.227 379.254 313.055 379.238 312.878C379.092 313.024 378.928 313.162 378.746 313.292C378.569 313.422 378.374 313.537 378.16 313.636C377.941 313.735 377.709 313.813 377.465 313.87C377.22 313.928 376.959 313.956 376.683 313.956C376.236 313.956 375.829 313.891 375.465 313.761C375.105 313.631 374.801 313.454 374.551 313.23C374.295 313.011 374.098 312.751 373.957 312.448C373.821 312.141 373.754 311.81 373.754 311.456C373.754 310.993 373.845 310.587 374.027 310.238C374.215 309.889 374.478 309.597 374.816 309.363C375.155 309.133 375.561 308.962 376.035 308.847C376.514 308.732 377.048 308.675 377.637 308.675H379.215V308.011C379.215 307.756 379.168 307.527 379.074 307.323C378.98 307.12 378.848 306.946 378.676 306.8C378.504 306.659 378.293 306.55 378.043 306.472C377.798 306.394 377.522 306.355 377.215 306.355C376.928 306.355 376.67 306.391 376.441 306.464C376.217 306.537 376.027 306.633 375.871 306.753C375.715 306.873 375.592 307.016 375.504 307.183C375.42 307.344 375.379 307.514 375.379 307.691H373.926C373.931 307.383 374.009 307.081 374.16 306.784C374.316 306.488 374.54 306.219 374.832 305.98C375.118 305.745 375.467 305.555 375.879 305.409C376.295 305.264 376.767 305.191 377.293 305.191C377.772 305.191 378.217 305.251 378.629 305.37C379.04 305.485 379.397 305.659 379.699 305.894C379.996 306.133 380.23 306.43 380.402 306.784C380.574 307.139 380.66 307.553 380.66 308.027V311.956C380.66 312.238 380.686 312.537 380.738 312.855C380.79 313.167 380.863 313.441 380.957 313.675V313.8H379.449ZM376.894 312.698C377.176 312.698 377.439 312.662 377.683 312.589C377.928 312.516 378.152 312.42 378.355 312.3C378.553 312.18 378.725 312.045 378.871 311.894C379.017 311.738 379.131 311.576 379.215 311.409V309.698H377.871C377.371 309.698 376.933 309.743 376.558 309.831C376.189 309.915 375.894 310.045 375.676 310.222C375.519 310.347 375.4 310.495 375.316 310.667C375.238 310.839 375.199 311.034 375.199 311.253C375.199 311.462 375.233 311.654 375.301 311.831C375.374 312.008 375.48 312.159 375.621 312.284C375.762 312.415 375.939 312.516 376.152 312.589C376.366 312.662 376.613 312.698 376.894 312.698ZM388.563 305.191C388.828 305.191 389.104 305.209 389.391 305.245C389.683 305.282 389.901 305.331 390.047 305.394L389.852 306.808C389.571 306.745 389.302 306.701 389.047 306.675C388.797 306.644 388.534 306.628 388.258 306.628C387.904 306.628 387.584 306.672 387.297 306.761C387.011 306.844 386.761 306.969 386.547 307.136C386.354 307.282 386.185 307.462 386.039 307.675C385.899 307.883 385.782 308.118 385.688 308.378V313.8H384.235V305.347H385.61L385.672 306.48L385.68 306.691C386.024 306.227 386.435 305.863 386.914 305.597C387.399 305.326 387.948 305.191 388.563 305.191ZM394.684 309.855L393.622 310.878V313.8H392.169V301.8H393.622V309.144L394.567 308.128L397.341 305.347H399.098L395.677 308.87L399.622 313.8H397.786L394.684 309.855Z" fill="#6B6B6B"/>
<rect x="426" y="178.2" width="132" height="105.6" rx="12" fill="url(#paint7_linear_1_498)"/>
<path d="M441.211 308.136L443.805 302.425H445.445L441.906 309.558L441.883 313.8H440.539L440.516 309.558L436.977 302.425H438.625L441.211 308.136ZM450.723 313.956C450.129 313.956 449.583 313.855 449.083 313.652C448.588 313.448 448.163 313.165 447.809 312.8C447.455 312.435 447.179 312.003 446.981 311.503C446.783 311.003 446.684 310.459 446.684 309.87V309.542C446.684 308.86 446.793 308.251 447.012 307.714C447.231 307.172 447.523 306.714 447.887 306.339C448.247 305.969 448.655 305.685 449.114 305.488C449.577 305.29 450.051 305.191 450.536 305.191C451.145 305.191 451.676 305.297 452.129 305.511C452.588 305.719 452.968 306.008 453.27 306.378C453.572 306.753 453.796 307.193 453.942 307.698C454.093 308.204 454.168 308.751 454.168 309.339V309.988H448.129V310.042C448.166 310.454 448.247 310.816 448.372 311.128C448.502 311.441 448.679 311.717 448.903 311.956C449.132 312.212 449.408 312.412 449.731 312.558C450.054 312.704 450.411 312.777 450.801 312.777C451.317 312.777 451.775 312.672 452.176 312.464C452.577 312.256 452.911 311.98 453.176 311.636L454.059 312.323C453.778 312.751 453.356 313.131 452.793 313.464C452.236 313.792 451.546 313.956 450.723 313.956ZM450.536 306.378C450.244 306.378 449.968 306.433 449.708 306.542C449.447 306.646 449.213 306.8 449.004 307.003C448.796 307.212 448.619 307.467 448.473 307.769C448.333 308.066 448.234 308.409 448.176 308.8H452.723V308.73C452.723 308.469 452.674 308.191 452.575 307.894C452.476 307.592 452.338 307.331 452.161 307.113C451.984 306.894 451.76 306.717 451.489 306.581C451.223 306.446 450.905 306.378 450.536 306.378ZM456.345 301.8H460.665V312.55H463.423V313.8H456.345V312.55H459.22V303.058H456.345V301.8ZM465.474 301.8H469.794V312.55H472.552V313.8H465.474V312.55H468.349V303.058H465.474V301.8ZM473.971 309.495C473.971 308.886 474.059 308.321 474.236 307.8C474.413 307.274 474.669 306.818 475.002 306.433C475.33 306.047 475.731 305.745 476.205 305.527C476.679 305.303 477.213 305.191 477.807 305.191C478.406 305.191 478.942 305.303 479.416 305.527C479.895 305.745 480.301 306.047 480.635 306.433C480.963 306.818 481.215 307.274 481.393 307.8C481.57 308.321 481.658 308.886 481.658 309.495V309.667C481.658 310.277 481.57 310.842 481.393 311.363C481.215 311.883 480.963 312.337 480.635 312.722C480.301 313.107 479.898 313.409 479.424 313.628C478.95 313.847 478.416 313.956 477.822 313.956C477.223 313.956 476.684 313.847 476.205 313.628C475.731 313.409 475.33 313.107 475.002 312.722C474.669 312.337 474.413 311.883 474.236 311.363C474.059 310.842 473.971 310.277 473.971 309.667V309.495ZM475.416 309.667C475.416 310.084 475.465 310.482 475.564 310.863C475.663 311.238 475.814 311.568 476.018 311.855C476.215 312.141 476.465 312.368 476.768 312.534C477.07 312.701 477.421 312.784 477.822 312.784C478.218 312.784 478.564 312.701 478.861 312.534C479.163 312.368 479.416 312.141 479.619 311.855C479.817 311.568 479.965 311.238 480.064 310.863C480.163 310.482 480.213 310.084 480.213 309.667V309.495C480.213 309.084 480.161 308.691 480.057 308.316C479.958 307.935 479.809 307.602 479.611 307.316C479.408 307.029 479.156 306.803 478.853 306.636C478.557 306.464 478.208 306.378 477.807 306.378C477.406 306.378 477.057 306.464 476.76 306.636C476.463 306.803 476.215 307.029 476.018 307.316C475.814 307.602 475.663 307.935 475.564 308.316C475.465 308.691 475.416 309.084 475.416 309.495V309.667ZM484.319 313.8L482.522 305.347H483.803L484.787 310.738L484.959 311.948L485.17 310.738L486.522 305.347H487.452L488.795 310.738L489.022 312.066L489.233 310.738L490.17 305.347H491.452L489.655 313.8H488.514L487.194 308.62L486.975 307.308L486.764 308.62L485.459 313.8H484.319ZM499.651 314.98H492.487V313.8H499.651V314.98ZM503.398 312.573H508.96V313.8H501.952V302.425H503.398V312.573ZM511.121 305.347H515.441V312.55H518.199V313.8H511.121V312.55H513.996V306.605H511.121V305.347ZM513.808 303.128C513.808 303.003 513.827 302.886 513.863 302.777C513.905 302.667 513.967 302.573 514.051 302.495C514.118 302.428 514.204 302.376 514.308 302.339C514.418 302.297 514.54 302.277 514.676 302.277C514.811 302.277 514.931 302.297 515.035 302.339C515.139 302.376 515.225 302.428 515.293 302.495C515.376 302.568 515.439 302.659 515.48 302.769C515.522 302.878 515.543 302.998 515.543 303.128C515.543 303.363 515.47 303.558 515.324 303.714C515.178 303.87 514.962 303.948 514.676 303.948C514.384 303.948 514.165 303.87 514.019 303.714C513.879 303.558 513.808 303.363 513.808 303.128ZM519.758 309.503C519.758 308.873 519.834 308.295 519.985 307.769C520.141 307.238 520.365 306.782 520.657 306.402C520.948 306.021 521.302 305.725 521.719 305.511C522.136 305.297 522.607 305.191 523.133 305.191C523.472 305.191 523.782 305.23 524.063 305.308C524.349 305.386 524.607 305.501 524.836 305.652C524.961 305.73 525.078 305.821 525.188 305.925C525.302 306.029 525.409 306.144 525.508 306.269L525.578 305.347H526.891V313.62C526.891 314.178 526.802 314.672 526.625 315.105C526.453 315.537 526.211 315.904 525.899 316.206C525.581 316.508 525.203 316.738 524.766 316.894C524.328 317.05 523.844 317.128 523.313 317.128C523.094 317.128 522.844 317.102 522.563 317.05C522.282 317.003 521.998 316.922 521.711 316.808C521.42 316.698 521.138 316.55 520.868 316.363C520.602 316.175 520.373 315.943 520.18 315.667L520.93 314.8C521.107 315.014 521.289 315.193 521.477 315.339C521.664 315.49 521.854 315.61 522.047 315.698C522.24 315.787 522.433 315.85 522.625 315.886C522.818 315.928 523.011 315.948 523.203 315.948C523.547 315.948 523.857 315.899 524.133 315.8C524.409 315.701 524.646 315.555 524.844 315.363C525.037 315.175 525.185 314.941 525.289 314.659C525.394 314.378 525.446 314.055 525.446 313.691V312.964C525.336 313.089 525.219 313.204 525.094 313.308C524.974 313.412 524.844 313.503 524.703 313.581C524.485 313.701 524.243 313.792 523.977 313.855C523.711 313.922 523.425 313.956 523.118 313.956C522.602 313.956 522.136 313.847 521.719 313.628C521.302 313.409 520.951 313.107 520.664 312.722C520.373 312.337 520.149 311.883 519.993 311.363C519.836 310.837 519.758 310.271 519.758 309.667V309.503ZM521.203 309.667C521.203 310.079 521.245 310.469 521.328 310.839C521.417 311.209 521.555 311.534 521.743 311.816C521.925 312.097 522.159 312.321 522.446 312.488C522.732 312.649 523.076 312.73 523.477 312.73C523.727 312.73 523.951 312.701 524.149 312.644C524.352 312.581 524.534 312.495 524.696 312.386C524.852 312.277 524.993 312.146 525.118 311.995C525.243 311.844 525.352 311.678 525.446 311.495V307.62C525.352 307.443 525.243 307.282 525.118 307.136C524.993 306.99 524.849 306.863 524.688 306.753C524.526 306.649 524.347 306.568 524.149 306.511C523.951 306.448 523.732 306.417 523.493 306.417C523.086 306.417 522.737 306.501 522.446 306.667C522.159 306.834 521.925 307.058 521.743 307.339C521.555 307.626 521.417 307.956 521.328 308.331C521.245 308.701 521.203 309.092 521.203 309.503V309.667ZM530.598 306.605C530.713 306.433 530.841 306.277 530.981 306.136C531.122 305.99 531.27 305.863 531.427 305.753C531.677 305.571 531.95 305.433 532.247 305.339C532.549 305.245 532.869 305.196 533.208 305.191C533.651 305.191 534.052 305.256 534.411 305.386C534.776 305.511 535.085 305.709 535.341 305.98C535.596 306.251 535.791 306.594 535.927 307.011C536.067 307.422 536.137 307.912 536.137 308.48V313.8H534.692V308.464C534.692 308.131 534.653 307.839 534.575 307.589C534.497 307.334 534.382 307.123 534.231 306.956C534.07 306.774 533.867 306.639 533.622 306.55C533.377 306.456 533.096 306.412 532.778 306.417C532.518 306.417 532.27 306.454 532.036 306.527C531.802 306.6 531.585 306.704 531.387 306.839C531.231 306.943 531.085 307.066 530.95 307.206C530.82 307.342 530.703 307.493 530.598 307.659V313.8H529.153V301.8H530.598V306.605ZM541.704 303.3V305.347H544.923V306.464H541.704V311.058C541.704 311.386 541.746 311.657 541.829 311.87C541.913 312.084 542.027 312.253 542.173 312.378C542.319 312.508 542.486 312.6 542.673 312.652C542.866 312.704 543.069 312.73 543.283 312.73C543.439 312.73 543.6 312.722 543.767 312.706C543.934 312.685 544.098 312.662 544.259 312.636C544.415 312.61 544.561 312.584 544.697 312.558C544.837 312.527 544.952 312.501 545.04 312.48L545.243 313.503C545.124 313.576 544.978 313.641 544.806 313.698C544.634 313.751 544.447 313.795 544.243 313.831C544.04 313.873 543.824 313.904 543.595 313.925C543.371 313.946 543.147 313.956 542.923 313.956C542.548 313.956 542.197 313.904 541.868 313.8C541.546 313.691 541.264 313.519 541.025 313.284C540.785 313.055 540.595 312.758 540.454 312.394C540.319 312.024 540.251 311.579 540.251 311.058V306.464H538.033V305.347H540.251V303.3H541.704Z" fill="#6B6B6B"/>
<defs>
<linearGradient id="paint0_linear_1_498" x1="66" y1="0.600098" x2="66" y2="106.2" gradientUnits="userSpaceOnUse">
<stop stop-color="#368FF7"/>
<stop offset="1" stop-color="#205694"/>
</linearGradient>
<linearGradient id="paint1_linear_1_498" x1="208" y1="0.600098" x2="208" y2="106.2" gradientUnits="userSpaceOnUse">
<stop stop-color="#AFD2FC"/>
<stop offset="1" stop-color="#4792EE"/>
</linearGradient>
<linearGradient id="paint2_linear_1_498" x1="350" y1="0.600098" x2="350" y2="106.2" gradientUnits="userSpaceOnUse">
<stop stop-color="#EE695D"/>
<stop offset="1" stop-color="#EA4335"/>
</linearGradient>
<linearGradient id="paint3_linear_1_498" x1="492" y1="0.600098" x2="492" y2="106.2" gradientUnits="userSpaceOnUse">
<stop stop-color="#F9C7C2"/>
<stop offset="1" stop-color="#F28E86"/>
</linearGradient>
<linearGradient id="paint4_linear_1_498" x1="66" y1="178.2" x2="66" y2="283.8" gradientUnits="userSpaceOnUse">
<stop stop-color="#34A853"/>
<stop offset="1" stop-color="#1F6532"/>
</linearGradient>
<linearGradient id="paint5_linear_1_498" x1="208" y1="178.2" x2="208" y2="283.8" gradientUnits="userSpaceOnUse">
<stop stop-color="#C2E5CB"/>
<stop offset="1" stop-color="#5DB975"/>
</linearGradient>
<linearGradient id="paint6_linear_1_498" x1="350" y1="178.2" x2="350" y2="283.8" gradientUnits="userSpaceOnUse">
<stop stop-color="#FBBC04"/>
<stop offset="1" stop-color="#F9AB00"/>
</linearGradient>
<linearGradient id="paint7_linear_1_498" x1="492" y1="178.2" x2="492" y2="283.8" gradientUnits="userSpaceOnUse">
<stop stop-color="#FDE6B2"/>
<stop offset="1" stop-color="#FDDD99"/>
</linearGradient>
</defs>
</svg>
