<svg width="426" height="134" viewBox="0 0 426 134" fill="none" xmlns="http://www.w3.org/2000/svg">
<rect width="132" height="100" rx="12" fill="#2B72C5"/>
<path d="M48.8438 130V118.625H52.2266C52.6953 118.63 53.1536 118.693 53.6016 118.812C54.0495 118.927 54.4479 119.107 54.7969 119.352C55.1458 119.596 55.4245 119.909 55.6328 120.289C55.8411 120.669 55.9427 121.125 55.9375 121.656C55.9323 121.953 55.8828 122.224 55.7891 122.469C55.7005 122.714 55.5781 122.932 55.4219 123.125C55.2604 123.323 55.0807 123.49 54.8828 123.625C54.6901 123.76 54.4557 123.888 54.1797 124.008V124.031C54.4661 124.099 54.7422 124.221 55.0078 124.398C55.2734 124.576 55.4922 124.771 55.6641 124.984C55.8464 125.219 55.987 125.482 56.0859 125.773C56.1901 126.065 56.2422 126.38 56.2422 126.719C56.2474 127.25 56.1458 127.719 55.9375 128.125C55.7292 128.531 55.4505 128.87 55.1016 129.141C54.7526 129.417 54.349 129.628 53.8906 129.773C53.4375 129.919 52.9688 129.995 52.4844 130H48.8438ZM50.2969 124.68V128.773H52.5234C52.8255 128.768 53.112 128.719 53.3828 128.625C53.6536 128.526 53.8932 128.391 54.1016 128.219C54.3099 128.047 54.474 127.836 54.5938 127.586C54.7188 127.336 54.7812 127.052 54.7812 126.734C54.7865 126.411 54.7318 126.125 54.6172 125.875C54.5078 125.625 54.3542 125.411 54.1562 125.234C53.9583 125.062 53.7266 124.93 53.4609 124.836C53.1953 124.742 52.9089 124.69 52.6016 124.68H50.2969ZM50.2969 123.477H52.3125C52.5833 123.471 52.849 123.43 53.1094 123.352C53.3698 123.268 53.6016 123.148 53.8047 122.992C54.0078 122.841 54.1719 122.654 54.2969 122.43C54.4219 122.206 54.4844 121.945 54.4844 121.648C54.4844 121.331 54.4219 121.06 54.2969 120.836C54.1771 120.612 54.0156 120.427 53.8125 120.281C53.6042 120.141 53.3646 120.036 53.0938 119.969C52.8281 119.901 52.5547 119.865 52.2734 119.859H50.2969V123.477ZM58.2153 118H62.5356V128.75H65.2934V130H58.2153V128.75H61.0903V119.258H58.2153V118ZM72.6884 130L72.6025 128.836C72.3213 129.253 71.9697 129.578 71.5478 129.812C71.1259 130.042 70.639 130.156 70.0869 130.156C69.6442 130.156 69.2431 130.089 68.8838 129.953C68.5244 129.812 68.2171 129.596 67.9619 129.305C67.7067 129.013 67.5088 128.643 67.3681 128.195C67.2327 127.742 67.165 127.201 67.165 126.57V121.547H68.6103V126.586C68.6103 127.044 68.6468 127.424 68.7197 127.727C68.7926 128.029 68.902 128.268 69.0478 128.445C69.1936 128.628 69.3707 128.755 69.5791 128.828C69.7926 128.901 70.0374 128.938 70.3134 128.938C70.6364 128.938 70.9254 128.901 71.1806 128.828C71.4358 128.75 71.6572 128.643 71.8447 128.508C72.0009 128.398 72.1364 128.268 72.2509 128.117C72.3707 127.961 72.4697 127.792 72.5478 127.609V121.547H74.0009V130H72.6884ZM79.9819 130.156C79.3881 130.156 78.8412 130.055 78.3412 129.852C77.8465 129.648 77.422 129.365 77.0678 129C76.7136 128.635 76.4376 128.203 76.2397 127.703C76.0418 127.203 75.9428 126.659 75.9428 126.07V125.742C75.9428 125.06 76.0522 124.451 76.2709 123.914C76.4897 123.372 76.7814 122.914 77.1459 122.539C77.5053 122.169 77.9142 121.885 78.3725 121.688C78.836 121.49 79.31 121.391 79.7944 121.391C80.4037 121.391 80.935 121.497 81.3881 121.711C81.8465 121.919 82.2267 122.208 82.5287 122.578C82.8308 122.953 83.0548 123.393 83.2006 123.898C83.3517 124.404 83.4272 124.951 83.4272 125.539V126.188H77.3881V126.242C77.4246 126.654 77.5053 127.016 77.6303 127.328C77.7605 127.641 77.9376 127.917 78.1616 128.156C78.3907 128.411 78.6668 128.612 78.9897 128.758C79.3126 128.904 79.6694 128.977 80.06 128.977C80.5756 128.977 81.034 128.872 81.435 128.664C81.836 128.456 82.1694 128.18 82.435 127.836L83.3178 128.523C83.0366 128.951 82.6147 129.331 82.0522 129.664C81.4949 129.992 80.8048 130.156 79.9819 130.156ZM79.7944 122.578C79.5027 122.578 79.2267 122.633 78.9662 122.742C78.7058 122.846 78.4715 123 78.2631 123.203C78.0548 123.411 77.8777 123.667 77.7319 123.969C77.5912 124.266 77.4923 124.609 77.435 125H81.9819V124.93C81.9819 124.669 81.9324 124.391 81.8334 124.094C81.7345 123.792 81.5965 123.531 81.4194 123.312C81.2423 123.094 81.0183 122.917 80.7475 122.781C80.4819 122.646 80.1642 122.578 79.7944 122.578Z" fill="#6B6B6B"/>
<rect x="144" width="132" height="100" rx="12" fill="#121212"/>
<path d="M194.445 118.625L196.297 124.312L198.297 118.625H200.094V130H198.688V125.461L198.805 120.711L196.703 126.836H195.875L193.945 120.875L194.062 125.461V130H192.656V118.625H194.445ZM201.583 125.695C201.583 125.086 201.671 124.521 201.848 124C202.025 123.474 202.28 123.018 202.614 122.633C202.942 122.247 203.343 121.945 203.817 121.727C204.291 121.503 204.825 121.391 205.418 121.391C206.017 121.391 206.554 121.503 207.028 121.727C207.507 121.945 207.913 122.247 208.247 122.633C208.575 123.018 208.827 123.474 209.004 124C209.181 124.521 209.27 125.086 209.27 125.695V125.867C209.27 126.477 209.181 127.042 209.004 127.562C208.827 128.083 208.575 128.536 208.247 128.922C207.913 129.307 207.51 129.609 207.036 129.828C206.562 130.047 206.028 130.156 205.434 130.156C204.835 130.156 204.296 130.047 203.817 129.828C203.343 129.609 202.942 129.307 202.614 128.922C202.28 128.536 202.025 128.083 201.848 127.562C201.671 127.042 201.583 126.477 201.583 125.867V125.695ZM203.028 125.867C203.028 126.284 203.077 126.682 203.176 127.062C203.275 127.438 203.426 127.768 203.629 128.055C203.827 128.341 204.077 128.568 204.379 128.734C204.681 128.901 205.033 128.984 205.434 128.984C205.83 128.984 206.176 128.901 206.473 128.734C206.775 128.568 207.028 128.341 207.231 128.055C207.429 127.768 207.577 127.438 207.676 127.062C207.775 126.682 207.825 126.284 207.825 125.867V125.695C207.825 125.284 207.773 124.891 207.668 124.516C207.569 124.135 207.421 123.802 207.223 123.516C207.02 123.229 206.767 123.003 206.465 122.836C206.168 122.664 205.819 122.578 205.418 122.578C205.017 122.578 204.668 122.664 204.372 122.836C204.075 123.003 203.827 123.229 203.629 123.516C203.426 123.802 203.275 124.135 203.176 124.516C203.077 124.891 203.028 125.284 203.028 125.695V125.867ZM211.118 130V121.547H212.415L212.517 122.797C212.642 122.62 212.777 122.458 212.923 122.312C213.074 122.161 213.233 122.031 213.399 121.922C213.649 121.755 213.92 121.628 214.212 121.539C214.509 121.445 214.821 121.396 215.149 121.391C215.592 121.391 215.993 121.453 216.353 121.578C216.717 121.703 217.027 121.898 217.282 122.164C217.537 122.43 217.733 122.768 217.868 123.18C218.009 123.586 218.079 124.07 218.079 124.633V130H216.634V124.664C216.634 124.289 216.592 123.971 216.509 123.711C216.425 123.451 216.303 123.24 216.142 123.078C215.975 122.917 215.772 122.799 215.532 122.727C215.298 122.654 215.027 122.617 214.72 122.617C214.454 122.617 214.207 122.656 213.978 122.734C213.748 122.807 213.537 122.909 213.345 123.039C213.188 123.154 213.043 123.286 212.907 123.438C212.777 123.589 212.662 123.755 212.563 123.938V130H211.118ZM219.841 125.695C219.841 125.086 219.93 124.521 220.107 124C220.284 123.474 220.539 123.018 220.872 122.633C221.201 122.247 221.602 121.945 222.076 121.727C222.55 121.503 223.083 121.391 223.677 121.391C224.276 121.391 224.813 121.503 225.287 121.727C225.766 121.945 226.172 122.247 226.505 122.633C226.833 123.018 227.086 123.474 227.263 124C227.44 124.521 227.529 125.086 227.529 125.695V125.867C227.529 126.477 227.44 127.042 227.263 127.562C227.086 128.083 226.833 128.536 226.505 128.922C226.172 129.307 225.768 129.609 225.294 129.828C224.82 130.047 224.287 130.156 223.693 130.156C223.094 130.156 222.555 130.047 222.076 129.828C221.602 129.609 221.201 129.307 220.872 128.922C220.539 128.536 220.284 128.083 220.107 127.562C219.93 127.042 219.841 126.477 219.841 125.867V125.695ZM221.287 125.867C221.287 126.284 221.336 126.682 221.435 127.062C221.534 127.438 221.685 127.768 221.888 128.055C222.086 128.341 222.336 128.568 222.638 128.734C222.94 128.901 223.292 128.984 223.693 128.984C224.089 128.984 224.435 128.901 224.732 128.734C225.034 128.568 225.287 128.341 225.49 128.055C225.688 127.768 225.836 127.438 225.935 127.062C226.034 126.682 226.083 126.284 226.083 125.867V125.695C226.083 125.284 226.031 124.891 225.927 124.516C225.828 124.135 225.68 123.802 225.482 123.516C225.279 123.229 225.026 123.003 224.724 122.836C224.427 122.664 224.078 122.578 223.677 122.578C223.276 122.578 222.927 122.664 222.63 122.836C222.333 123.003 222.086 123.229 221.888 123.516C221.685 123.802 221.534 124.135 221.435 124.516C221.336 124.891 221.287 125.284 221.287 125.695V125.867Z" fill="#6B6B6B"/>
<rect x="291" width="132" height="100" rx="12" fill="#102B4A" fill-opacity="0.2"/>
<path d="M295.617 124.742H290.867V128.773H296.406V130H289.422V118.625H296.336V119.859H290.867V123.516H295.617V124.742ZM298.715 118H303.036V128.75H305.793V130H298.715V128.75H301.59V119.258H298.715V118ZM310.501 130L307.024 121.547H308.509L310.931 127.922L311.063 128.445L311.204 127.922L313.571 121.547H315.048L311.603 130H310.501ZM322.302 130C322.245 129.891 322.198 129.755 322.162 129.594C322.13 129.427 322.107 129.255 322.091 129.078C321.945 129.224 321.781 129.362 321.599 129.492C321.422 129.622 321.227 129.737 321.013 129.836C320.794 129.935 320.563 130.013 320.318 130.07C320.073 130.128 319.813 130.156 319.537 130.156C319.089 130.156 318.682 130.091 318.318 129.961C317.958 129.831 317.654 129.654 317.404 129.43C317.149 129.211 316.951 128.951 316.81 128.648C316.675 128.341 316.607 128.01 316.607 127.656C316.607 127.193 316.698 126.786 316.88 126.438C317.068 126.089 317.331 125.797 317.669 125.562C318.008 125.333 318.414 125.161 318.888 125.047C319.367 124.932 319.901 124.875 320.49 124.875H322.068V124.211C322.068 123.956 322.021 123.727 321.927 123.523C321.833 123.32 321.701 123.146 321.529 123C321.357 122.859 321.146 122.75 320.896 122.672C320.651 122.594 320.375 122.555 320.068 122.555C319.781 122.555 319.524 122.591 319.294 122.664C319.07 122.737 318.88 122.833 318.724 122.953C318.568 123.073 318.445 123.216 318.357 123.383C318.274 123.544 318.232 123.714 318.232 123.891H316.779C316.784 123.583 316.862 123.281 317.013 122.984C317.169 122.688 317.393 122.419 317.685 122.18C317.971 121.945 318.32 121.755 318.732 121.609C319.149 121.464 319.62 121.391 320.146 121.391C320.625 121.391 321.07 121.451 321.482 121.57C321.893 121.685 322.25 121.859 322.552 122.094C322.849 122.333 323.083 122.63 323.255 122.984C323.427 123.339 323.513 123.753 323.513 124.227V128.156C323.513 128.438 323.539 128.737 323.591 129.055C323.643 129.367 323.716 129.641 323.81 129.875V130H322.302ZM319.747 128.898C320.029 128.898 320.292 128.862 320.537 128.789C320.781 128.716 321.005 128.62 321.208 128.5C321.406 128.38 321.578 128.245 321.724 128.094C321.87 127.938 321.984 127.776 322.068 127.609V125.898H320.724C320.224 125.898 319.787 125.943 319.412 126.031C319.042 126.115 318.747 126.245 318.529 126.422C318.372 126.547 318.253 126.695 318.169 126.867C318.091 127.039 318.052 127.234 318.052 127.453C318.052 127.661 318.086 127.854 318.154 128.031C318.227 128.208 318.333 128.359 318.474 128.484C318.615 128.615 318.792 128.716 319.005 128.789C319.219 128.862 319.466 128.898 319.747 128.898ZM329.299 119.5V121.547H332.518V122.664H329.299V127.258C329.299 127.586 329.34 127.857 329.424 128.07C329.507 128.284 329.622 128.453 329.768 128.578C329.913 128.708 330.08 128.799 330.268 128.852C330.46 128.904 330.663 128.93 330.877 128.93C331.033 128.93 331.195 128.922 331.361 128.906C331.528 128.885 331.692 128.862 331.853 128.836C332.01 128.81 332.156 128.784 332.291 128.758C332.432 128.727 332.546 128.701 332.635 128.68L332.838 129.703C332.718 129.776 332.572 129.841 332.4 129.898C332.228 129.951 332.041 129.995 331.838 130.031C331.635 130.073 331.419 130.104 331.189 130.125C330.965 130.146 330.741 130.156 330.518 130.156C330.143 130.156 329.791 130.104 329.463 130C329.14 129.891 328.859 129.719 328.619 129.484C328.379 129.255 328.189 128.958 328.049 128.594C327.913 128.224 327.846 127.779 327.846 127.258V122.664H325.627V121.547H327.846V119.5H329.299ZM338.741 130.156C338.147 130.156 337.6 130.055 337.1 129.852C336.605 129.648 336.181 129.365 335.827 129C335.472 128.635 335.196 128.203 334.998 127.703C334.801 127.203 334.702 126.659 334.702 126.07V125.742C334.702 125.06 334.811 124.451 335.03 123.914C335.248 123.372 335.54 122.914 335.905 122.539C336.264 122.169 336.673 121.885 337.131 121.688C337.595 121.49 338.069 121.391 338.553 121.391C339.162 121.391 339.694 121.497 340.147 121.711C340.605 121.919 340.985 122.208 341.287 122.578C341.59 122.953 341.814 123.393 341.959 123.898C342.11 124.404 342.186 124.951 342.186 125.539V126.188H336.147V126.242C336.183 126.654 336.264 127.016 336.389 127.328C336.519 127.641 336.696 127.917 336.92 128.156C337.149 128.411 337.426 128.612 337.748 128.758C338.071 128.904 338.428 128.977 338.819 128.977C339.334 128.977 339.793 128.872 340.194 128.664C340.595 128.456 340.928 128.18 341.194 127.836L342.077 128.523C341.795 128.951 341.373 129.331 340.811 129.664C340.254 129.992 339.564 130.156 338.741 130.156ZM338.553 122.578C338.261 122.578 337.985 122.633 337.725 122.742C337.465 122.846 337.23 123 337.022 123.203C336.814 123.411 336.636 123.667 336.491 123.969C336.35 124.266 336.251 124.609 336.194 125H340.741V124.93C340.741 124.669 340.691 124.391 340.592 124.094C340.493 123.792 340.355 123.531 340.178 123.312C340.001 123.094 339.777 122.917 339.506 122.781C339.241 122.646 338.923 122.578 338.553 122.578ZM343.862 125.703C343.862 125.073 343.94 124.495 344.097 123.969C344.258 123.438 344.487 122.982 344.784 122.602C345.076 122.221 345.43 121.924 345.847 121.711C346.263 121.497 346.729 121.391 347.245 121.391C347.75 121.391 348.19 121.477 348.565 121.648C348.946 121.815 349.274 122.06 349.55 122.383V118H350.995V130H349.667L349.604 129.109C349.323 129.453 348.987 129.714 348.597 129.891C348.206 130.068 347.75 130.156 347.229 130.156C346.719 130.156 346.255 130.047 345.839 129.828C345.427 129.609 345.076 129.307 344.784 128.922C344.492 128.536 344.266 128.083 344.104 127.562C343.943 127.036 343.862 126.471 343.862 125.867V125.703ZM345.307 125.867C345.307 126.279 345.352 126.669 345.44 127.039C345.529 127.409 345.667 127.734 345.854 128.016C346.037 128.297 346.271 128.521 346.557 128.688C346.844 128.849 347.188 128.93 347.589 128.93C348.073 128.93 348.474 128.82 348.792 128.602C349.11 128.383 349.362 128.089 349.55 127.719V123.797C349.362 123.453 349.11 123.172 348.792 122.953C348.474 122.729 348.078 122.617 347.604 122.617C347.198 122.617 346.849 122.701 346.557 122.867C346.271 123.034 346.037 123.258 345.854 123.539C345.667 123.826 345.529 124.156 345.44 124.531C345.352 124.901 345.307 125.292 345.307 125.703V125.867ZM354.695 125.383C354.695 124.638 354.752 123.938 354.867 123.281C354.986 122.625 355.145 122.016 355.343 121.453C355.541 120.896 355.768 120.385 356.023 119.922C356.283 119.458 356.557 119.047 356.843 118.688C357.124 118.328 357.408 118.021 357.695 117.766C357.981 117.51 358.255 117.31 358.515 117.164L358.82 118.117C358.653 118.242 358.484 118.393 358.312 118.57C358.145 118.747 357.981 118.945 357.82 119.164C357.58 119.503 357.351 119.901 357.132 120.359C356.913 120.812 356.731 121.31 356.585 121.852C356.445 122.341 356.335 122.88 356.257 123.469C356.179 124.057 356.14 124.69 356.14 125.367V125.477C356.14 126.128 356.176 126.737 356.249 127.305C356.322 127.872 356.421 128.396 356.546 128.875C356.682 129.359 356.838 129.807 357.015 130.219C357.192 130.635 357.377 131.008 357.57 131.336C357.768 131.648 357.971 131.924 358.179 132.164C358.393 132.409 358.606 132.617 358.82 132.789L358.515 133.672C358.255 133.526 357.979 133.326 357.687 133.07C357.4 132.82 357.117 132.513 356.835 132.148C356.549 131.789 356.275 131.378 356.015 130.914C355.76 130.456 355.536 129.945 355.343 129.383C355.145 128.826 354.986 128.219 354.867 127.562C354.752 126.906 354.695 126.206 354.695 125.461V125.383ZM368.348 127.125C368.348 126.776 368.267 126.482 368.105 126.242C367.949 126.003 367.746 125.799 367.496 125.633C367.246 125.471 366.97 125.336 366.668 125.227C366.371 125.117 366.084 125.018 365.808 124.93C365.407 124.799 364.999 124.643 364.582 124.461C364.17 124.273 363.795 124.049 363.457 123.789C363.113 123.523 362.832 123.211 362.613 122.852C362.4 122.487 362.293 122.06 362.293 121.57C362.293 121.081 362.4 120.643 362.613 120.258C362.832 119.872 363.116 119.547 363.465 119.281C363.814 119.016 364.209 118.815 364.652 118.68C365.095 118.539 365.54 118.469 365.988 118.469C366.483 118.469 366.959 118.552 367.418 118.719C367.876 118.88 368.282 119.109 368.637 119.406C368.991 119.703 369.275 120.062 369.488 120.484C369.702 120.906 369.814 121.378 369.824 121.898H368.34C368.298 121.57 368.217 121.273 368.098 121.008C367.978 120.737 367.819 120.505 367.621 120.312C367.423 120.12 367.186 119.971 366.91 119.867C366.639 119.758 366.332 119.703 365.988 119.703C365.712 119.703 365.441 119.742 365.176 119.82C364.915 119.898 364.683 120.016 364.48 120.172C364.272 120.328 364.105 120.521 363.98 120.75C363.861 120.979 363.801 121.245 363.801 121.547C363.806 121.875 363.889 122.154 364.051 122.383C364.212 122.607 364.418 122.797 364.668 122.953C364.913 123.109 365.178 123.24 365.465 123.344C365.756 123.448 366.03 123.539 366.285 123.617C366.707 123.747 367.129 123.906 367.551 124.094C367.973 124.276 368.358 124.51 368.707 124.797C369.051 125.062 369.327 125.388 369.535 125.773C369.749 126.159 369.855 126.604 369.855 127.109C369.855 127.62 369.741 128.065 369.512 128.445C369.288 128.826 368.996 129.141 368.637 129.391C368.277 129.646 367.871 129.839 367.418 129.969C366.965 130.094 366.512 130.156 366.058 130.156C365.517 130.156 364.983 130.065 364.457 129.883C363.936 129.701 363.483 129.438 363.098 129.094C362.754 128.797 362.48 128.451 362.277 128.055C362.079 127.654 361.973 127.208 361.957 126.719H363.433C363.48 127.073 363.577 127.388 363.723 127.664C363.868 127.935 364.056 128.164 364.285 128.352C364.514 128.544 364.777 128.69 365.074 128.789C365.376 128.883 365.704 128.93 366.058 128.93C366.34 128.93 366.616 128.896 366.887 128.828C367.163 128.755 367.407 128.643 367.621 128.492C367.834 128.346 368.009 128.161 368.144 127.938C368.28 127.708 368.348 127.438 368.348 127.125ZM372.969 122.805C373.084 122.633 373.211 122.477 373.352 122.336C373.493 122.19 373.641 122.062 373.797 121.953C374.047 121.771 374.321 121.633 374.618 121.539C374.92 121.445 375.24 121.396 375.578 121.391C376.021 121.391 376.422 121.456 376.782 121.586C377.146 121.711 377.456 121.909 377.711 122.18C377.966 122.451 378.162 122.794 378.297 123.211C378.438 123.622 378.508 124.112 378.508 124.68V130H377.063V124.664C377.063 124.331 377.024 124.039 376.946 123.789C376.868 123.534 376.753 123.323 376.602 123.156C376.44 122.974 376.237 122.839 375.993 122.75C375.748 122.656 375.466 122.612 375.149 122.617C374.888 122.617 374.641 122.654 374.407 122.727C374.172 122.799 373.956 122.904 373.758 123.039C373.602 123.143 373.456 123.266 373.321 123.406C373.19 123.542 373.073 123.693 372.969 123.859V130H371.524V118H372.969V122.805ZM386.208 130C386.151 129.891 386.104 129.755 386.067 129.594C386.036 129.427 386.012 129.255 385.997 129.078C385.851 129.224 385.687 129.362 385.505 129.492C385.328 129.622 385.132 129.737 384.919 129.836C384.7 129.935 384.468 130.013 384.223 130.07C383.979 130.128 383.718 130.156 383.442 130.156C382.994 130.156 382.588 130.091 382.223 129.961C381.864 129.831 381.559 129.654 381.309 129.43C381.054 129.211 380.856 128.951 380.716 128.648C380.58 128.341 380.512 128.01 380.512 127.656C380.512 127.193 380.604 126.786 380.786 126.438C380.973 126.089 381.236 125.797 381.575 125.562C381.914 125.333 382.32 125.161 382.794 125.047C383.273 124.932 383.807 124.875 384.395 124.875H385.973V124.211C385.973 123.956 385.927 123.727 385.833 123.523C385.739 123.32 385.606 123.146 385.434 123C385.262 122.859 385.052 122.75 384.802 122.672C384.557 122.594 384.281 122.555 383.973 122.555C383.687 122.555 383.429 122.591 383.2 122.664C382.976 122.737 382.786 122.833 382.63 122.953C382.473 123.073 382.351 123.216 382.262 123.383C382.179 123.544 382.137 123.714 382.137 123.891H380.684C380.69 123.583 380.768 123.281 380.919 122.984C381.075 122.688 381.299 122.419 381.591 122.18C381.877 121.945 382.226 121.755 382.637 121.609C383.054 121.464 383.526 121.391 384.052 121.391C384.531 121.391 384.976 121.451 385.387 121.57C385.799 121.685 386.156 121.859 386.458 122.094C386.755 122.333 386.989 122.63 387.161 122.984C387.333 123.339 387.419 123.753 387.419 124.227V128.156C387.419 128.438 387.445 128.737 387.497 129.055C387.549 129.367 387.622 129.641 387.716 129.875V130H386.208ZM383.653 128.898C383.934 128.898 384.197 128.862 384.442 128.789C384.687 128.716 384.911 128.62 385.114 128.5C385.312 128.38 385.484 128.245 385.63 128.094C385.776 127.938 385.89 127.776 385.973 127.609V125.898H384.63C384.13 125.898 383.692 125.943 383.317 126.031C382.947 126.115 382.653 126.245 382.434 126.422C382.278 126.547 382.158 126.695 382.075 126.867C381.997 127.039 381.958 127.234 381.958 127.453C381.958 127.661 381.992 127.854 382.059 128.031C382.132 128.208 382.239 128.359 382.38 128.484C382.52 128.615 382.697 128.716 382.911 128.789C383.124 128.862 383.372 128.898 383.653 128.898ZM389.509 125.703C389.509 125.073 389.587 124.495 389.743 123.969C389.905 123.438 390.134 122.982 390.431 122.602C390.723 122.221 391.077 121.924 391.493 121.711C391.91 121.497 392.376 121.391 392.892 121.391C393.397 121.391 393.837 121.477 394.212 121.648C394.592 121.815 394.921 122.06 395.197 122.383V118H396.642V130H395.314L395.251 129.109C394.97 129.453 394.634 129.714 394.243 129.891C393.853 130.068 393.397 130.156 392.876 130.156C392.366 130.156 391.902 130.047 391.486 129.828C391.074 129.609 390.723 129.307 390.431 128.922C390.139 128.536 389.913 128.083 389.751 127.562C389.59 127.036 389.509 126.471 389.509 125.867V125.703ZM390.954 125.867C390.954 126.279 390.999 126.669 391.087 127.039C391.176 127.409 391.314 127.734 391.501 128.016C391.684 128.297 391.918 128.521 392.204 128.688C392.491 128.849 392.835 128.93 393.236 128.93C393.72 128.93 394.121 128.82 394.439 128.602C394.756 128.383 395.009 128.089 395.197 127.719V123.797C395.009 123.453 394.756 123.172 394.439 122.953C394.121 122.729 393.725 122.617 393.251 122.617C392.845 122.617 392.496 122.701 392.204 122.867C391.918 123.034 391.684 123.258 391.501 123.539C391.314 123.826 391.176 124.156 391.087 124.531C390.999 124.901 390.954 125.292 390.954 125.703V125.867ZM398.506 125.695C398.506 125.086 398.594 124.521 398.771 124C398.948 123.474 399.204 123.018 399.537 122.633C399.865 122.247 400.266 121.945 400.74 121.727C401.214 121.503 401.748 121.391 402.342 121.391C402.941 121.391 403.477 121.503 403.951 121.727C404.43 121.945 404.836 122.247 405.17 122.633C405.498 123.018 405.75 123.474 405.927 124C406.105 124.521 406.193 125.086 406.193 125.695V125.867C406.193 126.477 406.105 127.042 405.927 127.562C405.75 128.083 405.498 128.536 405.17 128.922C404.836 129.307 404.433 129.609 403.959 129.828C403.485 130.047 402.951 130.156 402.357 130.156C401.758 130.156 401.219 130.047 400.74 129.828C400.266 129.609 399.865 129.307 399.537 128.922C399.204 128.536 398.948 128.083 398.771 127.562C398.594 127.042 398.506 126.477 398.506 125.867V125.695ZM399.951 125.867C399.951 126.284 400 126.682 400.099 127.062C400.198 127.438 400.349 127.768 400.552 128.055C400.75 128.341 401 128.568 401.302 128.734C401.605 128.901 401.956 128.984 402.357 128.984C402.753 128.984 403.099 128.901 403.396 128.734C403.698 128.568 403.951 128.341 404.154 128.055C404.352 127.768 404.5 127.438 404.599 127.062C404.698 126.682 404.748 126.284 404.748 125.867V125.695C404.748 125.284 404.696 124.891 404.592 124.516C404.493 124.135 404.344 123.802 404.146 123.516C403.943 123.229 403.691 123.003 403.388 122.836C403.092 122.664 402.743 122.578 402.342 122.578C401.941 122.578 401.592 122.664 401.295 122.836C400.998 123.003 400.75 123.229 400.552 123.516C400.349 123.802 400.198 124.135 400.099 124.516C400 124.891 399.951 125.284 399.951 125.695V125.867ZM408.854 130L407.057 121.547H408.338L409.323 126.938L409.494 128.148L409.705 126.938L411.057 121.547H411.987L413.33 126.938L413.557 128.266L413.768 126.938L414.705 121.547H415.987L414.19 130H413.049L411.729 124.82L411.51 123.508L411.299 124.82L409.994 130H408.854ZM422.444 125.461C422.444 126.206 422.384 126.906 422.264 127.562C422.15 128.219 421.994 128.826 421.796 129.383C421.598 129.945 421.369 130.456 421.108 130.914C420.853 131.378 420.585 131.789 420.303 132.148C420.017 132.513 419.728 132.82 419.436 133.07C419.15 133.326 418.876 133.526 418.616 133.672L418.311 132.789C418.53 132.628 418.751 132.419 418.975 132.164C419.199 131.909 419.413 131.615 419.616 131.281C419.809 130.943 419.994 130.56 420.171 130.133C420.353 129.711 420.501 129.247 420.616 128.742C420.736 128.273 420.827 127.768 420.889 127.227C420.957 126.68 420.991 126.096 420.991 125.477V125.367C420.991 124.664 420.947 124.026 420.858 123.453C420.775 122.88 420.681 122.393 420.577 121.992C420.426 121.419 420.244 120.906 420.03 120.453C419.816 119.995 419.598 119.596 419.374 119.258C419.202 118.992 419.025 118.76 418.842 118.562C418.66 118.359 418.483 118.188 418.311 118.047L418.616 117.164C418.876 117.31 419.152 117.51 419.444 117.766C419.736 118.021 420.022 118.328 420.303 118.688C420.595 119.057 420.869 119.469 421.124 119.922C421.379 120.375 421.603 120.885 421.796 121.453C421.983 122 422.137 122.594 422.257 123.234C422.382 123.87 422.444 124.586 422.444 125.383V125.461Z" fill="#6B6B6B"/>
</svg>
