<svg xmlns="http://www.w3.org/2000/svg" width="558" height="134" fill="none"><rect width="132" height="100" fill="#C2C2C2" rx="12"/><path fill="#6B6B6B" d="M48.71 130v-11.375h2.634q.664.007 1.25.141.594.125 1.093.359a4.3 4.3 0 0 1 1.227.844q.54.515.86 1.195.288.578.437 1.266.156.687.164 1.468v.836q0 .75-.148 1.422-.141.672-.414 1.235-.282.585-.711 1.062a4.6 4.6 0 0 1-.961.813 4.6 4.6 0 0 1-1.274.539q-.703.188-1.523.195zm1.47-10.188v9.008h1.164a4.2 4.2 0 0 0 1.133-.156q.515-.149.914-.422.42-.28.726-.687.314-.415.492-.922a4.7 4.7 0 0 0 .235-.891q.078-.484.086-1.008v-.851a6.4 6.4 0 0 0-.094-1.016 4.4 4.4 0 0 0-.242-.914 3.6 3.6 0 0 0-.57-.984 2.7 2.7 0 0 0-.868-.719 3.3 3.3 0 0 0-.82-.312 4.2 4.2 0 0 0-.992-.126zM63.543 130a1.7 1.7 0 0 1-.14-.406 5 5 0 0 1-.07-.516q-.219.219-.493.414a3.4 3.4 0 0 1-1.28.578 3.4 3.4 0 0 1-.782.086q-.672 0-1.219-.195a2.8 2.8 0 0 1-.914-.531 2.3 2.3 0 0 1-.594-.782 2.4 2.4 0 0 1-.203-.992q0-.695.274-1.218.28-.524.789-.876a3.7 3.7 0 0 1 1.218-.515 7 7 0 0 1 1.602-.172h1.578v-.664q0-.382-.14-.688a1.5 1.5 0 0 0-.399-.523 1.9 1.9 0 0 0-.633-.328 2.7 2.7 0 0 0-.828-.117q-.43 0-.773.109a1.9 1.9 0 0 0-.57.289q-.236.18-.368.43a1.1 1.1 0 0 0-.125.508H58.02q.008-.462.234-.907.235-.445.672-.804a3.5 3.5 0 0 1 1.047-.571 4.3 4.3 0 0 1 1.414-.218q.72 0 1.336.179.617.172 1.07.524.446.359.704.89.257.532.257 1.243v3.929q0 .423.078.899.08.469.22.82V130zm-2.554-1.102q.421 0 .789-.109a3 3 0 0 0 .672-.289q.297-.18.515-.406.218-.234.344-.485v-1.711h-1.344q-.75 0-1.312.133-.555.126-.883.391a1.3 1.3 0 0 0-.36.445 1.4 1.4 0 0 0-.117.586q0 .312.102.578.11.265.32.453.21.196.532.305.32.11.742.109m11.668-7.507q.399 0 .828.054.437.055.657.149l-.196 1.414a7 7 0 0 0-.804-.133 6 6 0 0 0-.79-.047q-.531 0-.96.133a2.2 2.2 0 0 0-.75.375 2.3 2.3 0 0 0-.508.539q-.21.313-.352.703V130H68.33v-8.453h1.375l.063 1.133.007.211a3.8 3.8 0 0 1 1.235-1.094q.727-.406 1.648-.406m6.122 4.664-1.063 1.023V130h-1.453v-12h1.453v7.344l.946-1.016 2.773-2.781h1.758l-3.422 3.523 3.945 4.93H81.88z"/><rect width="132" height="100" x="142" fill="#E1E1E1" rx="12"/><path fill="#6B6B6B" d="M187.492 128.773h5.563V130h-7.008v-11.375h1.445zm7.723-7.226h4.321v7.203h2.757V130h-7.078v-1.25h2.875v-5.945h-2.875zm2.688-2.219q0-.187.055-.351a.73.73 0 0 1 .445-.438q.164-.062.367-.062t.359.062q.157.056.258.156a.7.7 0 0 1 .188.274q.062.164.062.359 0 .351-.219.586-.218.234-.648.234-.437 0-.656-.234a.84.84 0 0 1-.211-.586m5.95 6.375q0-.945.226-1.734a4.1 4.1 0 0 1 .672-1.367 3.1 3.1 0 0 1 1.062-.891q.625-.32 1.415-.32.507 0 .929.117a2.7 2.7 0 0 1 1.125.617q.172.156.321.344l.07-.922h1.312v8.273q0 .836-.265 1.485a3.1 3.1 0 0 1-.727 1.101 3.2 3.2 0 0 1-1.133.688 4.3 4.3 0 0 1-1.453.234q-.328 0-.75-.078a4 4 0 0 1-.851-.242 4 4 0 0 1-.844-.446 2.8 2.8 0 0 1-.688-.695l.75-.867q.266.32.547.539.282.227.571.359.288.133.578.188.288.063.578.062.515 0 .93-.148.414-.149.71-.438.29-.28.446-.703a2.8 2.8 0 0 0 .156-.968v-.727q-.164.188-.352.344-.18.156-.39.273a3 3 0 0 1-.727.274 3.5 3.5 0 0 1-.859.101q-.774 0-1.399-.328a3.1 3.1 0 0 1-1.054-.906 4.3 4.3 0 0 1-.672-1.36 6 6 0 0 1-.234-1.695zm1.445.164q0 .618.125 1.172.132.555.414.977.273.422.703.672.43.242 1.031.242.375 0 .672-.086.305-.094.547-.258.234-.164.422-.391a2.8 2.8 0 0 0 .328-.5v-3.875a2.7 2.7 0 0 0-.328-.484 2.1 2.1 0 0 0-.43-.383 2 2 0 0 0-.539-.242 2.2 2.2 0 0 0-.656-.094q-.609 0-1.047.25a2.1 2.1 0 0 0-.703.672 3.1 3.1 0 0 0-.414.992q-.125.555-.125 1.172zm9.395-3.062q.171-.258.383-.469.21-.22.445-.383.375-.273.82-.414a3.5 3.5 0 0 1 2.164.047q.548.187.93.594.383.406.586 1.031.211.617.211 1.469V130h-1.445v-5.336q0-.5-.118-.875a1.65 1.65 0 0 0-.343-.633 1.5 1.5 0 0 0-.61-.406 2.2 2.2 0 0 0-.844-.133q-.39 0-.742.11-.351.109-.648.312a2.7 2.7 0 0 0-.789.82V130h-1.446v-12h1.446zm11.106-3.305v2.047h3.219v1.117h-3.219v4.594q0 .492.125.812t.344.508q.218.195.5.274.288.078.609.078.235 0 .484-.024a14 14 0 0 0 .93-.148l.344-.078.203 1.023a2 2 0 0 1-.438.195 5 5 0 0 1-.562.133 6 6 0 0 1-.649.094 7 7 0 0 1-.671.031q-.563 0-1.055-.156a2.2 2.2 0 0 1-.844-.516 2.4 2.4 0 0 1-.57-.89q-.203-.555-.203-1.336v-4.594h-2.219v-1.117h2.219V119.5z"/><rect width="132" height="100" x="284" fill="#AFD2FC" rx="12"/><path fill="#6B6B6B" d="M317.531 119.859h-3.515V130h-1.407v-10.141h-3.515v-1.234h8.437zm5.192 10.297q-.89 0-1.64-.304a3.73 3.73 0 0 1-2.102-2.149 4.4 4.4 0 0 1-.297-1.633v-.328q0-1.023.328-1.828.329-.813.875-1.375a3.8 3.8 0 0 1 1.227-.851 3.6 3.6 0 0 1 1.422-.297q.913 0 1.593.32.688.312 1.141.867.453.563.672 1.32.226.759.226 1.641v.649h-6.039v.054q.055.618.243 1.086.195.47.531.828.343.383.828.602t1.07.219q.774 0 1.375-.313a3 3 0 0 0 1-.828l.883.687q-.421.642-1.266 1.141-.836.492-2.07.492m-.187-7.578a2.1 2.1 0 0 0-.828.164 2.1 2.1 0 0 0-.704.461 2.8 2.8 0 0 0-.531.766q-.21.445-.297 1.031h4.547v-.07q0-.391-.148-.836a2.4 2.4 0 0 0-.414-.782 2 2 0 0 0-.672-.531q-.4-.203-.953-.203m9.074 2.102 2.258-3.133h1.695l-3.148 4.18 3.234 4.273h-1.671l-2.336-3.219-2.336 3.219h-1.688l3.235-4.273-3.149-4.18h1.672zm9.059-5.18v2.047h3.219v1.117h-3.219v4.594q0 .492.125.812a1.26 1.26 0 0 0 .844.782q.29.078.609.078.235 0 .485-.024a14 14 0 0 0 .93-.148l.343-.078.203 1.023a2 2 0 0 1-.437.195 5 5 0 0 1-.563.133 6 6 0 0 1-.648.094 7 7 0 0 1-.672.031q-.562 0-1.055-.156a2.2 2.2 0 0 1-.843-.516 2.4 2.4 0 0 1-.571-.89q-.203-.555-.203-1.336v-4.594h-2.219v-1.117h2.219V119.5zm12.028 6.117h-5.976v-1.187h5.976zm2.794 4.383v-11.375h3.382q.704.008 1.375.187.672.172 1.196.54.523.367.836.937t.304 1.367a2.4 2.4 0 0 1-.148.813 2.3 2.3 0 0 1-.367.656 2.6 2.6 0 0 1-.539.5 4 4 0 0 1-.703.383v.023q.429.102.828.367.398.267.656.586.273.353.422.789.156.438.156.946.008.797-.305 1.406a3 3 0 0 1-.836 1.016 3.8 3.8 0 0 1-1.211.632 4.7 4.7 0 0 1-1.406.227zm1.453-5.32v4.093h2.226q.453-.007.86-.148.406-.148.718-.406.313-.258.493-.633a1.9 1.9 0 0 0 .187-.852 1.96 1.96 0 0 0-.164-.859 1.8 1.8 0 0 0-.461-.641 2.1 2.1 0 0 0-.695-.398 2.8 2.8 0 0 0-.86-.156zm0-1.203h2.015q.407-.008.797-.125.39-.126.696-.36.305-.226.492-.562a1.6 1.6 0 0 0 .187-.782q0-.476-.187-.812a1.6 1.6 0 0 0-.485-.555 2.2 2.2 0 0 0-.718-.312 3.6 3.6 0 0 0-.821-.11h-1.976zm7.918-5.477h4.32v10.75h2.758V130h-7.078v-1.25h2.875v-9.492h-2.875zm14.473 12-.086-1.164a3 3 0 0 1-1.054.976q-.633.344-1.461.344-.664 0-1.203-.203a2.35 2.35 0 0 1-.922-.648q-.382-.438-.594-1.11-.203-.679-.203-1.625v-5.023h1.445v5.039q0 .687.11 1.141.109.453.328.718.219.274.531.383.32.11.734.11.484 0 .867-.11.383-.117.665-.32.234-.165.406-.391.18-.234.297-.508v-6.062h1.453V130zm7.294.156a4.3 4.3 0 0 1-1.641-.304 3.7 3.7 0 0 1-1.273-.852 3.9 3.9 0 0 1-.828-1.297 4.4 4.4 0 0 1-.297-1.633v-.328q0-1.023.328-1.828.328-.813.875-1.375.539-.555 1.226-.851a3.6 3.6 0 0 1 1.422-.297q.915 0 1.594.32.688.312 1.141.867.453.563.672 1.32.226.759.226 1.641v.649h-6.039v.054q.054.618.242 1.086.195.47.531.828.345.383.829.602.483.219 1.07.219.774 0 1.375-.313a3 3 0 0 0 1-.828l.883.687q-.422.642-1.266 1.141-.836.492-2.07.492m-.188-7.578q-.437 0-.828.164-.39.156-.703.461a2.8 2.8 0 0 0-.531.766q-.212.445-.297 1.031h4.547v-.07q0-.391-.149-.836a2.4 2.4 0 0 0-.414-.782 2 2 0 0 0-.672-.531q-.398-.203-.953-.203"/><rect width="132" height="100" x="426" fill="#D7E9FD" rx="12"/><path fill="#6B6B6B" d="M474.844 130v-11.375h3.383q.703.008 1.375.187.671.172 1.195.54.523.367.836.937t.305 1.367a2.4 2.4 0 0 1-.149.813 2.2 2.2 0 0 1-.367.656 2.6 2.6 0 0 1-.539.5 4 4 0 0 1-.703.383v.023q.429.102.828.367.398.267.656.586.273.353.422.789.156.438.156.946.008.797-.304 1.406a3 3 0 0 1-.836 1.016 3.8 3.8 0 0 1-1.211.632 4.7 4.7 0 0 1-1.407.227zm1.453-5.32v4.093h2.226q.454-.007.86-.148.406-.148.719-.406t.492-.633a1.9 1.9 0 0 0 .187-.852 1.96 1.96 0 0 0-.164-.859 1.8 1.8 0 0 0-.461-.641 2.1 2.1 0 0 0-.695-.398 2.8 2.8 0 0 0-.859-.156zm0-1.203h2.015q.407-.008.797-.125.392-.126.696-.36.304-.226.492-.562a1.6 1.6 0 0 0 .187-.782q0-.476-.187-.812a1.6 1.6 0 0 0-.485-.555 2.2 2.2 0 0 0-.718-.312 3.6 3.6 0 0 0-.821-.11h-1.976zm7.918-5.477h4.321v10.75h2.757V130h-7.078v-1.25h2.875v-9.492h-2.875zm14.473 12-.085-1.164a3.04 3.04 0 0 1-1.055.976q-.633.344-1.461.344-.664 0-1.203-.203a2.35 2.35 0 0 1-.922-.648q-.382-.438-.594-1.11-.203-.679-.203-1.625v-5.023h1.445v5.039q0 .687.11 1.141t.328.718q.219.274.531.383.32.11.734.11.484 0 .868-.11.382-.117.664-.32.234-.165.406-.391.18-.234.297-.508v-6.062h1.453V130zm7.294.156a4.3 4.3 0 0 1-1.641-.304 3.7 3.7 0 0 1-1.273-.852 3.9 3.9 0 0 1-.828-1.297 4.4 4.4 0 0 1-.297-1.633v-.328q0-1.023.328-1.828.328-.813.875-1.375.539-.555 1.226-.851a3.6 3.6 0 0 1 1.422-.297q.915 0 1.594.32.688.312 1.141.867.453.563.672 1.32.226.759.226 1.641v.649h-6.039v.054q.055.618.242 1.086.196.47.532.828.343.383.828.602t1.07.219q.774 0 1.375-.313a3 3 0 0 0 1-.828l.883.687q-.421.642-1.266 1.141-.836.492-2.07.492m-.188-7.578q-.436 0-.828.164-.39.156-.703.461a2.8 2.8 0 0 0-.531.766q-.211.445-.297 1.031h4.547v-.07q0-.391-.149-.836a2.4 2.4 0 0 0-.414-.782 2 2 0 0 0-.672-.531q-.398-.203-.953-.203"/></svg>