<svg xmlns="http://www.w3.org/2000/svg" width="416" height="132" fill="none"><rect width="131.2" height="99.2" x=".4" y=".4" fill="#fff" stroke="#C2C2C2" stroke-width=".8" rx="11.6"/><path fill="#6B6B6B" d="M46.484 130h-1.468l-4.414-8.5-.024 8.5h-1.46v-11.375h1.468L45 127.109l.023-8.484h1.461zm1.599-4.305q0-.913.265-1.695.265-.79.766-1.367.492-.579 1.203-.906a3.7 3.7 0 0 1 1.601-.336q.9 0 1.61.336.718.327 1.219.906.492.578.757 1.367.266.781.266 1.695v.172q0 .915-.266 1.695-.266.781-.757 1.36a3.55 3.55 0 0 1-1.211.906q-.711.328-1.602.328a3.85 3.85 0 0 1-1.617-.328 3.5 3.5 0 0 1-1.203-.906 4 4 0 0 1-.766-1.36 5.2 5.2 0 0 1-.265-1.695zm1.445.172q0 .625.148 1.195.15.563.453.993.297.43.75.679.454.25 1.055.25.593 0 1.04-.25a2.25 2.25 0 0 0 .757-.679q.297-.43.445-.993.15-.57.149-1.195v-.172q0-.617-.157-1.179a3.1 3.1 0 0 0-.445-1 2.25 2.25 0 0 0-.758-.68 2.05 2.05 0 0 0-1.047-.258q-.601 0-1.046.258a2.2 2.2 0 0 0-.743.68 3 3 0 0 0-.453 1 4.6 4.6 0 0 0-.148 1.179zm13.63-4.476q.397 0 .827.054.437.055.657.149l-.196 1.414a7 7 0 0 0-.804-.133 6 6 0 0 0-.79-.047q-.531 0-.96.133a2.2 2.2 0 0 0-.75.375 2.3 2.3 0 0 0-.508.539q-.21.313-.352.703V130H58.83v-8.453h1.375l.063 1.133.007.211a3.8 3.8 0 0 1 1.235-1.094q.727-.406 1.648-.406m4.254.156.039.797q.258-.446.672-.696.421-.25 1.015-.257.336 0 .602.078.273.07.476.211.15.11.266.265.125.156.21.352a2 2 0 0 1 .579-.609q.219-.133.484-.211.274-.079.594-.086.438 0 .79.132.35.126.593.375.265.282.406.735.14.445.14 1.055V130h-1.374v-6.328a1.6 1.6 0 0 0-.063-.469.9.9 0 0 0-.18-.336.8.8 0 0 0-.312-.187 1.3 1.3 0 0 0-.422-.063q-.258 0-.445.071a.9.9 0 0 0-.313.187.9.9 0 0 0-.195.289 1.2 1.2 0 0 0-.094.352V130h-1.375v-6.336a1.6 1.6 0 0 0-.062-.469.8.8 0 0 0-.18-.336.66.66 0 0 0-.297-.179 1.2 1.2 0 0 0-.406-.063q-.258 0-.453.063a.88.88 0 0 0-.5.359 1.2 1.2 0 0 0-.117.234V130h-1.375v-8.453zM81.432 130a1.7 1.7 0 0 1-.141-.406 5 5 0 0 1-.07-.516q-.219.219-.493.414a3.4 3.4 0 0 1-1.28.578 3.4 3.4 0 0 1-.782.086 3.6 3.6 0 0 1-1.219-.195 2.8 2.8 0 0 1-.914-.531 2.3 2.3 0 0 1-.594-.782 2.4 2.4 0 0 1-.203-.992q0-.695.274-1.218.28-.524.789-.876a3.7 3.7 0 0 1 1.218-.515 7 7 0 0 1 1.602-.172h1.578v-.664q0-.382-.14-.688a1.5 1.5 0 0 0-.399-.523 1.9 1.9 0 0 0-.633-.328 2.7 2.7 0 0 0-.828-.117q-.43 0-.773.109a1.9 1.9 0 0 0-.57.289q-.236.18-.368.43a1.1 1.1 0 0 0-.125.508h-1.453q.008-.462.234-.907a2.6 2.6 0 0 1 .672-.804 3.5 3.5 0 0 1 1.047-.571 4.3 4.3 0 0 1 1.414-.218q.72 0 1.336.179.618.172 1.07.524.446.359.704.89.257.532.257 1.243v3.929q0 .423.079.899.078.469.218.82V130zm-2.555-1.102q.421 0 .789-.109a3 3 0 0 0 .672-.289q.297-.18.515-.406a2 2 0 0 0 .344-.485v-1.711h-1.344q-.75 0-1.312.133-.555.126-.883.391a1.3 1.3 0 0 0-.36.445 1.4 1.4 0 0 0-.116.586q0 .312.101.578.11.265.32.453.211.196.532.305.32.11.742.109M85.233 118h4.32v10.75h2.758V130h-7.078v-1.25h2.875v-9.492h-2.875z"/><rect width="131" height="99" x="142.5" y=".5" fill="#F7F7F7" stroke="#C2C2C2" rx="11.5"/><path fill="#6B6B6B" d="M164.289 127.055h-3.797l-.914 2.945h-1.445l3.672-11.375h1.211L166.625 130h-1.437zm-3.406-1.258h3.023l-1.5-4.938zm7.332-7.797h4.321v10.75h2.757V130h-7.078v-1.25h2.875v-9.492h-2.875zm12.325 1.5v2.047h3.219v1.117h-3.219v4.594q0 .492.125.812t.344.508q.218.195.5.274.289.078.609.078.234 0 .485-.024a15 15 0 0 0 .929-.148l.344-.078.203 1.023q-.18.11-.437.195-.258.08-.563.133a6 6 0 0 1-.648.094 7 7 0 0 1-.672.031q-.563 0-1.055-.156a2.2 2.2 0 0 1-.844-.516 2.4 2.4 0 0 1-.57-.89q-.203-.555-.203-1.336v-4.594h-2.219v-1.117h2.219V119.5zm9.442 10.656a4.3 4.3 0 0 1-1.641-.304 3.7 3.7 0 0 1-1.273-.852 3.9 3.9 0 0 1-.828-1.297 4.4 4.4 0 0 1-.297-1.633v-.328q0-1.023.328-1.828.328-.813.875-1.375.539-.555 1.226-.851a3.6 3.6 0 0 1 1.422-.297q.915 0 1.594.32.688.312 1.141.867.453.563.672 1.32.226.759.226 1.641v.649h-6.039v.054q.055.618.242 1.086.196.47.532.828.343.383.828.602t1.07.219q.774 0 1.375-.313a3 3 0 0 0 1-.828l.883.687q-.422.642-1.266 1.141-.835.492-2.07.492m-.188-7.578q-.436 0-.828.164-.39.156-.703.461a2.8 2.8 0 0 0-.531.766q-.211.445-.297 1.031h4.547v-.07q0-.391-.149-.836a2.4 2.4 0 0 0-.414-.782 2 2 0 0 0-.672-.531q-.398-.203-.953-.203m11.122-1.187q.399 0 .828.054.437.055.656.149l-.195 1.414a7 7 0 0 0-.805-.133 6 6 0 0 0-.789-.047q-.53 0-.961.133a2.2 2.2 0 0 0-.75.375 2.3 2.3 0 0 0-.507.539 3.2 3.2 0 0 0-.352.703V130h-1.453v-8.453h1.375l.062 1.133.008.211a3.8 3.8 0 0 1 1.235-1.094q.726-.406 1.648-.406m3.59 8.609v-8.453h1.297l.102 1.25a4 4 0 0 1 .406-.485q.227-.227.476-.39a3 3 0 0 1 .813-.383q.445-.14.937-.148.664 0 1.204.187a2.3 2.3 0 0 1 .929.586q.384.398.586 1.016.211.609.211 1.453V130h-1.445v-5.336q0-.563-.125-.953a1.55 1.55 0 0 0-.367-.633 1.5 1.5 0 0 0-.61-.351 2.7 2.7 0 0 0-.812-.11q-.399 0-.742.117-.344.11-.633.305a3 3 0 0 0-.438.399q-.195.226-.343.5V130zm14.684 0a1.7 1.7 0 0 1-.14-.406 5 5 0 0 1-.071-.516q-.218.219-.492.414a3.4 3.4 0 0 1-1.281.578 3.4 3.4 0 0 1-.781.086q-.672 0-1.219-.195a2.8 2.8 0 0 1-.914-.531 2.3 2.3 0 0 1-.594-.782 2.4 2.4 0 0 1-.203-.992q0-.695.273-1.218.282-.524.789-.876a3.7 3.7 0 0 1 1.219-.515 7 7 0 0 1 1.602-.172h1.578v-.664q0-.382-.141-.688a1.5 1.5 0 0 0-.398-.523 1.9 1.9 0 0 0-.633-.328 2.7 2.7 0 0 0-.828-.117q-.43 0-.774.109a1.9 1.9 0 0 0-.57.289q-.234.18-.367.43a1.1 1.1 0 0 0-.125.508h-1.453q.007-.462.234-.907.234-.445.672-.804a3.5 3.5 0 0 1 1.047-.571 4.3 4.3 0 0 1 1.414-.218q.719 0 1.336.179.617.172 1.07.524.446.359.703.89.258.532.258 1.243v3.929q0 .423.078.899.078.469.219.82V130zm-2.554-1.102q.422 0 .789-.109.366-.11.672-.289.296-.18.515-.406a2 2 0 0 0 .344-.485v-1.711h-1.344q-.75 0-1.312.133-.555.126-.883.391a1.3 1.3 0 0 0-.36.445 1.4 1.4 0 0 0-.117.586q0 .312.102.578.11.265.32.453.212.196.531.305.32.11.743.109m9.551-9.398v2.047h3.219v1.117h-3.219v4.594q0 .492.125.812t.344.508q.218.195.5.274.288.078.609.078.234 0 .484-.024a15 15 0 0 0 .93-.148l.344-.078.203 1.023a2 2 0 0 1-.438.195 5 5 0 0 1-.562.133 6 6 0 0 1-.649.094 7 7 0 0 1-.671.031q-.563 0-1.055-.156a2.2 2.2 0 0 1-.844-.516 2.4 2.4 0 0 1-.57-.89q-.204-.555-.203-1.336v-4.594h-2.219v-1.117h2.219V119.5zm5.934 2.047h4.32v7.203h2.758V130h-7.078v-1.25h2.875v-5.945h-2.875zm2.687-2.219q0-.187.055-.351a.74.74 0 0 1 .445-.438q.165-.062.368-.062t.359.062q.156.056.258.156a.7.7 0 0 1 .187.274 1 1 0 0 1 .063.359q0 .351-.219.586t-.648.234q-.438 0-.657-.234a.85.85 0 0 1-.211-.586M243.907 130l-3.477-8.453h1.484l2.422 6.375.133.523.141-.523 2.367-6.375h1.476L245.008 130zm9.98.156a4.3 4.3 0 0 1-1.64-.304 3.7 3.7 0 0 1-1.274-.852 3.9 3.9 0 0 1-.828-1.297 4.4 4.4 0 0 1-.297-1.633v-.328q0-1.023.329-1.828.327-.813.875-1.375.539-.555 1.226-.851a3.6 3.6 0 0 1 1.422-.297q.914 0 1.594.32.687.312 1.14.867.453.563.672 1.32.227.759.227 1.641v.649h-6.039v.054q.054.618.242 1.086.195.47.531.828.344.383.828.602t1.071.219q.773 0 1.375-.313a3 3 0 0 0 1-.828l.882.687q-.422.642-1.265 1.141-.836.492-2.071.492m-.187-7.578a2.1 2.1 0 0 0-.828.164 2.1 2.1 0 0 0-.703.461 2.8 2.8 0 0 0-.532.766 3.6 3.6 0 0 0-.296 1.031h4.546v-.07q0-.391-.148-.836a2.4 2.4 0 0 0-.414-.782 2 2 0 0 0-.672-.531q-.398-.203-.953-.203"/><rect width="132" height="100" x="284" fill="#000" fill-opacity=".6" rx="12"/><path fill="#6B6B6B" d="M323.211 130v-11.375h2.633q.663.007 1.25.141.594.125 1.094.359a4.3 4.3 0 0 1 1.226.844q.539.515.859 1.195.29.578.438 1.266.156.687.164 1.468v.836q0 .75-.148 1.422-.14.672-.415 1.235a4.5 4.5 0 0 1-.71 1.062 4.6 4.6 0 0 1-.961.813q-.563.351-1.274.539-.703.188-1.523.195zm1.469-10.188v9.008h1.164a4.2 4.2 0 0 0 1.133-.156q.515-.149.914-.422.422-.28.726-.687.314-.415.492-.922.157-.414.235-.891.077-.484.086-1.008v-.851a6.5 6.5 0 0 0-.094-1.016 4.5 4.5 0 0 0-.242-.914 3.6 3.6 0 0 0-.571-.984 2.7 2.7 0 0 0-.867-.719 3.3 3.3 0 0 0-.82-.312 4.2 4.2 0 0 0-.992-.126zm8.035 1.735h4.321v7.203h2.757V130h-7.078v-1.25h2.875v-5.945h-2.875zm2.688-2.219q0-.187.055-.351a.73.73 0 0 1 .445-.438q.164-.062.367-.062t.359.062q.157.056.258.156a.7.7 0 0 1 .188.274q.062.164.062.359 0 .351-.219.586-.218.234-.648.234-.437 0-.656-.234a.84.84 0 0 1-.211-.586m6.879 2.219.039.797a1.9 1.9 0 0 1 .672-.696q.422-.25 1.016-.257.336 0 .601.078.274.07.477.211.148.11.266.265.124.156.21.352a2 2 0 0 1 .579-.609q.218-.133.484-.211.273-.079.594-.086.437 0 .789.132.351.126.594.375.265.282.406.735.14.445.14 1.055V130h-1.375v-6.328q0-.265-.062-.469a.9.9 0 0 0-.18-.336.8.8 0 0 0-.312-.187 1.3 1.3 0 0 0-.422-.063q-.258 0-.445.071a.9.9 0 0 0-.313.187.9.9 0 0 0-.195.289 1.2 1.2 0 0 0-.094.352V130h-1.375v-6.336a1.6 1.6 0 0 0-.063-.469.8.8 0 0 0-.179-.336.66.66 0 0 0-.297-.179 1.2 1.2 0 0 0-.406-.063q-.258 0-.453.063a.9.9 0 0 0-.5.359 1.3 1.3 0 0 0-.118.234V130h-1.375v-8.453zm9.13 0 .039.797a1.9 1.9 0 0 1 .671-.696q.422-.25 1.016-.257.336 0 .602.078.273.07.476.211.149.11.266.265.125.156.211.352a2 2 0 0 1 .578-.609q.219-.133.484-.211.274-.079.594-.086.438 0 .789.132.351.126.594.375.265.282.406.735.141.445.141 1.055V130h-1.375v-6.328a1.6 1.6 0 0 0-.063-.469.9.9 0 0 0-.179-.336.8.8 0 0 0-.313-.187 1.3 1.3 0 0 0-.422-.063q-.258 0-.445.071a.9.9 0 0 0-.313.187.9.9 0 0 0-.195.289 1.2 1.2 0 0 0-.094.352V130h-1.375v-6.336q0-.265-.062-.469a.8.8 0 0 0-.18-.336.66.66 0 0 0-.297-.179 1.2 1.2 0 0 0-.406-.063q-.258 0-.453.063a.87.87 0 0 0-.5.359 1.2 1.2 0 0 0-.117.234V130h-1.375v-8.453zm12.199 8.609a4.3 4.3 0 0 1-1.64-.304 3.73 3.73 0 0 1-2.102-2.149 4.4 4.4 0 0 1-.297-1.633v-.328q0-1.023.328-1.828.329-.813.875-1.375a3.8 3.8 0 0 1 1.227-.851 3.6 3.6 0 0 1 1.422-.297q.913 0 1.594.32.687.312 1.14.867.453.563.672 1.32.227.759.227 1.641v.649h-6.039v.054q.054.618.242 1.086.195.47.531.828.344.383.828.602.485.219 1.07.219.774 0 1.375-.313a3 3 0 0 0 1-.828l.883.687q-.422.642-1.265 1.141-.837.492-2.071.492m-.187-7.578a2.1 2.1 0 0 0-.828.164 2.1 2.1 0 0 0-.703.461 2.8 2.8 0 0 0-.532.766q-.21.445-.297 1.031h4.547v-.07q0-.391-.148-.836a2.4 2.4 0 0 0-.414-.782 2 2 0 0 0-.672-.531q-.398-.203-.953-.203m11.121-1.187q.399 0 .828.054.438.055.657.149l-.196 1.414a7 7 0 0 0-.804-.133 6 6 0 0 0-.789-.047q-.532 0-.961.133a2.28 2.28 0 0 0-1.258.914 3.2 3.2 0 0 0-.352.703V130h-1.453v-8.453h1.375l.063 1.133.007.211a3.85 3.85 0 0 1 1.235-1.094q.726-.406 1.648-.406"/></svg>