<svg xmlns="http://www.w3.org/2000/svg" width="274" height="133" fill="none"><rect width="132" height="100" y=".8" fill="#5566FB" rx="12"/><path fill="#6B6B6B" d="M34.71 130.8v-11.375h2.634q.664.008 1.25.141.594.125 1.093.359a4.3 4.3 0 0 1 1.227.844q.54.516.86 1.195.288.578.437 1.266.156.687.164 1.468v.836q0 .75-.148 1.422-.141.672-.414 1.235-.282.585-.711 1.062a4.6 4.6 0 0 1-.961.813 4.6 4.6 0 0 1-1.274.539q-.703.188-1.523.195zm1.47-10.187v9.007h1.164a4.2 4.2 0 0 0 1.133-.156 3.1 3.1 0 0 0 1.64-1.109q.314-.415.492-.922a4.7 4.7 0 0 0 .235-.891q.078-.484.086-1.008v-.851a6.4 6.4 0 0 0-.094-1.016 4.4 4.4 0 0 0-.242-.914 3.6 3.6 0 0 0-.57-.984 2.7 2.7 0 0 0-.868-.719 3.3 3.3 0 0 0-.82-.312 4.2 4.2 0 0 0-.992-.125zm8.035 1.734h4.32v7.203h2.758v1.25h-7.078v-1.25h2.875v-5.945h-2.875zm2.688-2.219q0-.187.055-.351a.74.74 0 0 1 .445-.438q.165-.062.367-.062.203 0 .36.062.155.056.257.156a.7.7 0 0 1 .188.274 1 1 0 0 1 .062.359q0 .352-.219.586-.217.234-.648.234-.437 0-.656-.234a.84.84 0 0 1-.211-.586m11.832 8.43q0-.258-.101-.461a1 1 0 0 0-.344-.383 2.6 2.6 0 0 0-.64-.312 6.5 6.5 0 0 0-.993-.266 10 10 0 0 1-1.328-.359 4.2 4.2 0 0 1-1.016-.508 2.2 2.2 0 0 1-.664-.68 1.8 1.8 0 0 1-.234-.922q0-.516.242-.961.243-.453.68-.789a3.4 3.4 0 0 1 1.039-.531q.61-.195 1.336-.195.781 0 1.406.203t1.063.562q.436.36.672.844.242.477.242 1.031h-1.446q0-.273-.14-.531a1.5 1.5 0 0 0-.39-.469 2 2 0 0 0-.61-.328 2.4 2.4 0 0 0-.797-.125q-.46 0-.813.102-.343.101-.57.273a1.16 1.16 0 0 0-.352.399 1 1 0 0 0-.117.468q0 .25.094.446.094.195.328.351.226.156.61.281.39.126.984.243.78.164 1.398.382.618.211 1.04.508.42.305.64.703.227.399.227.922 0 .562-.258 1.024-.25.46-.703.789a3.4 3.4 0 0 1-1.086.508 5 5 0 0 1-1.383.179 4.8 4.8 0 0 1-1.531-.226 3.6 3.6 0 0 1-1.133-.617 2.6 2.6 0 0 1-.719-.875 2.36 2.36 0 0 1-.242-1.04h1.445q.032.446.235.75.21.306.523.493.305.187.68.265t.742.078q.577 0 1.008-.132.429-.141.672-.383a1.1 1.1 0 0 0 .226-.328 1 1 0 0 0 .078-.383m7.114 1.226q.39 0 .758-.125.375-.125.664-.351.29-.219.46-.516a1.33 1.33 0 0 0 .188-.656h1.368a2.24 2.24 0 0 1-.297 1.078q-.281.508-.758.891-.477.39-1.094.625a3.7 3.7 0 0 1-1.289.226q-.96 0-1.68-.343-.718-.345-1.195-.93a3.9 3.9 0 0 1-.726-1.336 5.3 5.3 0 0 1-.243-1.609v-.329q0-.836.242-1.601.243-.766.727-1.352a3.5 3.5 0 0 1 1.195-.922q.72-.343 1.68-.343.75 0 1.375.242.632.235 1.094.64.453.415.71.977.26.562.259 1.203h-1.368a1.7 1.7 0 0 0-.171-.719 1.9 1.9 0 0 0-.43-.601 2 2 0 0 0-.656-.406 2.2 2.2 0 0 0-.813-.149q-.672 0-1.133.274a2.2 2.2 0 0 0-.734.695 3.1 3.1 0 0 0-.406.976q-.118.54-.118 1.086v.329q0 .554.118 1.101.124.538.406.969.273.438.726.711.462.265 1.141.265m5.122-3.289q0-.914.265-1.695.265-.79.766-1.367.492-.579 1.203-.906a3.7 3.7 0 0 1 1.602-.336q.898 0 1.609.336.719.327 1.219.906.492.578.757 1.367.267.781.266 1.695v.172q0 .915-.266 1.696t-.757 1.359a3.55 3.55 0 0 1-1.211.906 3.8 3.8 0 0 1-1.602.328 3.85 3.85 0 0 1-1.617-.328 3.5 3.5 0 0 1-1.203-.906 4 4 0 0 1-.766-1.359 5.2 5.2 0 0 1-.265-1.696zm1.445.172q0 .625.148 1.196.149.562.454.992.296.43.75.679.453.25 1.054.25.594 0 1.04-.25.452-.25.757-.679.297-.43.445-.992.15-.571.149-1.196v-.172q0-.617-.156-1.179a3.1 3.1 0 0 0-.446-1 2.25 2.25 0 0 0-.758-.68 2.05 2.05 0 0 0-1.046-.258q-.601 0-1.047.258a2.2 2.2 0 0 0-.743.68 3 3 0 0 0-.453 1 4.6 4.6 0 0 0-.148 1.179zm13.63-4.476q.398 0 .827.054.437.055.657.149l-.196 1.414a7 7 0 0 0-.804-.133 6 6 0 0 0-.79-.047q-.53 0-.96.133a2.2 2.2 0 0 0-.75.375 2.3 2.3 0 0 0-.508.539q-.21.313-.352.703v5.422h-1.453v-8.453h1.375l.063 1.133.007.211a3.85 3.85 0 0 1 1.235-1.094q.727-.406 1.648-.406m3.316 4.312q0-.945.235-1.734.242-.797.687-1.367a3.1 3.1 0 0 1 1.063-.891q.624-.32 1.398-.32.757 0 1.32.257.57.25.985.735V118.8h1.445v12h-1.328l-.063-.891a2.76 2.76 0 0 1-1.007.782q-.587.265-1.368.265-.766 0-1.39-.328a3.2 3.2 0 0 1-1.055-.906 4.4 4.4 0 0 1-.68-1.359 5.8 5.8 0 0 1-.242-1.696zm1.446.164q0 .618.132 1.172.134.554.414.977.274.422.704.672.43.242 1.03.242.727 0 1.204-.328t.758-.883v-3.922a2.4 2.4 0 0 0-.758-.844q-.477-.336-1.188-.336-.61 0-1.046.25-.43.25-.704.672a3.1 3.1 0 0 0-.414.992q-.132.555-.132 1.172z"/><rect width="132" height="100" x="142" y=".8" fill="#000" rx="12"/><path fill="#6B6B6B" d="M188.719 129.308a5 5 0 0 1-.563.57 4.4 4.4 0 0 1-.617.438 4.3 4.3 0 0 1-1.18.484 5 5 0 0 1-1.328.156 4.1 4.1 0 0 1-1.297-.211 3.7 3.7 0 0 1-1.054-.578 4 4 0 0 1-.821-.851 5.2 5.2 0 0 1-.586-1.071 6 6 0 0 1-.367-1.195 7.5 7.5 0 0 1-.125-1.273v-1.321q.008-.633.11-1.258.11-.632.328-1.21.219-.579.547-1.071.327-.5.789-.867.453-.36 1.031-.57a3.8 3.8 0 0 1 1.297-.211q.797 0 1.469.25.671.242 1.171.695.5.46.805 1.109.305.642.375 1.438h-1.43a4 4 0 0 0-.265-.906 2.3 2.3 0 0 0-.469-.719 2.1 2.1 0 0 0-.703-.461 2.4 2.4 0 0 0-.945-.172q-.516 0-.914.18a2.2 2.2 0 0 0-.696.469 2.6 2.6 0 0 0-.492.695q-.195.39-.32.828a6 6 0 0 0-.18.891 7 7 0 0 0-.055.875v1.336q.008.43.071.89.07.453.211.891t.359.828.531.687a2.4 2.4 0 0 0 .711.477q.406.173.922.18.297.007.617-.024a3 3 0 0 0 .633-.125 2.7 2.7 0 0 0 .57-.25q.266-.164.446-.422l.015-2.554h-2.312v-1.219h3.687zm1.996-6.961h4.321v7.203h2.757v1.25h-7.078v-1.25h2.875v-5.945h-2.875zm2.688-2.219q0-.187.055-.351a.73.73 0 0 1 .445-.438q.164-.062.367-.062t.359.062q.157.056.258.156a.7.7 0 0 1 .188.274q.062.164.062.359 0 .352-.219.586-.218.234-.648.234-.437 0-.656-.234a.84.84 0 0 1-.211-.586m9.637.172v2.047h3.219v1.117h-3.219v4.594q0 .492.125.812t.344.508q.218.195.5.274.289.078.609.078.234 0 .485-.024a15 15 0 0 0 .929-.148l.344-.078.203 1.023q-.18.11-.437.195-.258.08-.563.133a6 6 0 0 1-.648.094 7 7 0 0 1-.672.031q-.563 0-1.055-.156a2.2 2.2 0 0 1-.844-.516 2.4 2.4 0 0 1-.57-.89q-.203-.555-.203-1.336v-4.594h-2.219v-1.117h2.219V120.3zm7.153 3.305q.171-.258.383-.469.21-.219.445-.383.375-.273.82-.414a3.5 3.5 0 0 1 2.164.047q.548.188.93.594.383.406.586 1.031.211.617.211 1.469v5.32h-1.445v-5.336q0-.5-.118-.875a1.65 1.65 0 0 0-.343-.633 1.5 1.5 0 0 0-.61-.406 2.2 2.2 0 0 0-.844-.133q-.39 0-.742.11-.351.11-.648.312a2.7 2.7 0 0 0-.789.82v6.141h-1.446v-12h1.446zm13.254 7.195-.086-1.164a3.05 3.05 0 0 1-1.054.977q-.633.343-1.461.343-.665 0-1.203-.203a2.34 2.34 0 0 1-.922-.648q-.383-.438-.594-1.11-.203-.679-.203-1.625v-5.023h1.445v5.039q0 .687.109 1.141.11.453.329.718.218.274.531.383.32.11.734.11.485 0 .867-.11a2.2 2.2 0 0 0 .664-.32q.235-.165.407-.391.178-.234.297-.508v-6.062h1.453v8.453zm10.723-4.133q0 .555-.086 1.071-.078.507-.234.953-.212.585-.555 1.054a3 3 0 0 1-.812.766q-.344.211-.758.328a3.2 3.2 0 0 1-.883.117q-.547 0-1-.133a2.8 2.8 0 0 1-.805-.382 3 3 0 0 1-.625-.602l-.07.961h-1.328v-12h1.445v4.453a2.7 2.7 0 0 1 .399-.406q.219-.188.469-.32.312-.165.687-.25.375-.087.813-.086.546 0 1.007.148t.836.414q.336.25.602.61.265.351.469.789.21.492.32 1.093.11.594.109 1.258zm-1.445-.164q0-.398-.055-.773a4 4 0 0 0-.148-.719 3.3 3.3 0 0 0-.367-.758 1.7 1.7 0 0 0-.555-.539 2 2 0 0 0-.508-.219 2.3 2.3 0 0 0-.625-.078 2.2 2.2 0 0 0-.687.102 1.9 1.9 0 0 0-.555.265q-.25.18-.445.422a2.6 2.6 0 0 0-.321.516v3.695q.14.281.328.524.196.234.446.414t.562.281q.313.094.688.094.359 0 .656-.086.297-.094.531-.266.313-.219.524-.555.21-.335.336-.75.101-.312.148-.671t.047-.735z"/></svg>