<svg xmlns="http://www.w3.org/2000/svg" width="416" height="138" fill="none"><rect width="132" height="105.6" fill="#000" fill-opacity=".1" rx="12"/><path fill="#6B6B6B" d="M68.313 132.725q0-.523-.243-.883a2.1 2.1 0 0 0-.61-.609 4 4 0 0 0-.827-.406 20 20 0 0 0-.86-.297q-.601-.196-1.226-.469a5.8 5.8 0 0 1-1.125-.672 3.5 3.5 0 0 1-.844-.937q-.32-.547-.32-1.282 0-.734.32-1.312.328-.578.852-.977a3.8 3.8 0 0 1 1.187-.601 4.4 4.4 0 0 1 1.336-.211q.742 0 1.43.25.687.241 1.219.687.531.445.851 1.078.321.634.336 1.414h-1.484a3.1 3.1 0 0 0-.243-.89 2.2 2.2 0 0 0-.476-.696 2 2 0 0 0-.711-.445 2.5 2.5 0 0 0-.922-.164 3 3 0 0 0-.812.117q-.39.118-.696.352a1.8 1.8 0 0 0-.5.578q-.18.344-.18.797.01.492.25.836.243.336.618.57.367.235.797.391.437.156.82.273.633.195 1.266.477.632.273 1.156.703.516.398.828.976.32.579.32 1.336 0 .766-.343 1.336-.336.57-.875.946a4 4 0 0 1-1.22.578 5 5 0 0 1-1.359.187 4.9 4.9 0 0 1-1.601-.273 4 4 0 0 1-1.36-.789 3.5 3.5 0 0 1-.82-1.039 3.2 3.2 0 0 1-.32-1.336h1.476q.07.531.29.945.218.406.562.688.344.288.79.437.452.141.983.141.423 0 .829-.102a2.3 2.3 0 0 0 .734-.336q.32-.219.523-.555.204-.344.204-.812"/><rect width="132" height="105.6" x="142" fill="#000" fill-opacity=".2" rx="12"/><path fill="#6B6B6B" d="m205.945 124.225 1.852 5.687 2-5.687h1.797V135.6h-1.406v-4.539l.117-4.75-2.102 6.125h-.828l-1.93-5.961.117 4.586v4.539h-1.406v-11.375z"/><rect width="132" height="105.6" x="284" fill="#102B4A" fill-opacity=".2" rx="12"/><path fill="#6B6B6B" d="M332.844 135.6v-11.375h3.383q.703.008 1.375.187.671.173 1.195.54.523.366.836.937.312.57.305 1.367a2.4 2.4 0 0 1-.149.813 2.2 2.2 0 0 1-.367.656 2.6 2.6 0 0 1-.539.5 4 4 0 0 1-.703.383v.023q.429.102.828.367.398.266.656.586.273.353.422.789.156.438.156.946.008.797-.304 1.406a3 3 0 0 1-.836 1.016 3.8 3.8 0 0 1-1.211.632 4.7 4.7 0 0 1-1.407.227zm1.453-5.32v4.093h2.226q.454-.007.86-.148.406-.148.719-.406t.492-.633a1.9 1.9 0 0 0 .187-.852 1.96 1.96 0 0 0-.164-.859 1.8 1.8 0 0 0-.461-.641 2.1 2.1 0 0 0-.695-.398 2.8 2.8 0 0 0-.859-.156zm0-1.203h2.015q.407-.008.797-.125.392-.126.696-.36.304-.226.492-.562a1.6 1.6 0 0 0 .187-.782q0-.476-.187-.812a1.6 1.6 0 0 0-.485-.555 2.2 2.2 0 0 0-.718-.312 3.6 3.6 0 0 0-.821-.11h-1.976zm7.918-5.477h4.321v10.75h2.757v1.25h-7.078v-1.25h2.875v-9.492h-2.875zm14.473 12-.085-1.164a3.04 3.04 0 0 1-1.055.976q-.633.345-1.461.344-.664 0-1.203-.203a2.35 2.35 0 0 1-.922-.648q-.382-.438-.594-1.11-.203-.68-.203-1.625v-5.023h1.445v5.039q0 .687.11 1.141t.328.718q.219.274.531.383.32.11.734.109.484 0 .868-.109.382-.117.664-.32.234-.165.406-.391.18-.234.297-.508v-6.062h1.453v8.453zm7.294.156a4.3 4.3 0 0 1-1.641-.304 3.7 3.7 0 0 1-1.273-.852 3.9 3.9 0 0 1-.828-1.297 4.4 4.4 0 0 1-.297-1.633v-.328q0-1.023.328-1.828.328-.813.875-1.375.539-.555 1.226-.852a3.6 3.6 0 0 1 1.422-.296q.915 0 1.594.32.688.312 1.141.867.453.563.672 1.32a5.7 5.7 0 0 1 .226 1.641v.648h-6.039v.055q.055.618.242 1.086.196.47.532.828.343.383.828.602t1.07.219q.774 0 1.375-.313a3 3 0 0 0 1-.828l.883.687q-.421.641-1.266 1.141-.836.492-2.07.492m-.188-7.578q-.436 0-.828.164-.39.156-.703.461a2.8 2.8 0 0 0-.531.766q-.211.445-.297 1.031h4.547v-.07q0-.391-.149-.836a2.4 2.4 0 0 0-.414-.782 2 2 0 0 0-.672-.531q-.398-.203-.953-.203"/></svg>