<svg xmlns="http://www.w3.org/2000/svg" width="558" height="318" fill="none"><rect width="132" height="105.6" y=".6" fill="url(#a)" rx="12"/><path fill="#6B6B6B" d="M25.844 136.2v-11.375h3.383q.702.008 1.375.188.671.171 1.195.539.524.366.836.937.313.57.304 1.367a2.4 2.4 0 0 1-.148.813 2.3 2.3 0 0 1-.367.656 2.6 2.6 0 0 1-.54.5 4 4 0 0 1-.702.383v.023q.429.102.828.368a2.9 2.9 0 0 1 .656.585q.273.352.422.79.156.436.156.945.008.797-.304 1.406a3 3 0 0 1-.836 1.016 3.8 3.8 0 0 1-1.211.633 4.8 4.8 0 0 1-1.407.226zm1.453-5.32v4.094h2.226q.454-.008.86-.149.405-.148.719-.406.312-.258.492-.633a1.9 1.9 0 0 0 .187-.852 2 2 0 0 0-.164-.859 1.85 1.85 0 0 0-.46-.641 2.2 2.2 0 0 0-.696-.398 2.8 2.8 0 0 0-.86-.156zm0-1.203h2.015q.407-.008.797-.125.39-.125.696-.36.305-.226.492-.562t.187-.781q0-.477-.187-.813a1.6 1.6 0 0 0-.485-.555 2.3 2.3 0 0 0-.718-.312 3.6 3.6 0 0 0-.82-.11h-1.977zm7.918-5.477h4.32v10.75h2.758v1.25h-7.078v-1.25h2.875v-9.492h-2.875zm14.473 12-.086-1.164a3.05 3.05 0 0 1-1.054.977q-.633.343-1.461.343-.664 0-1.203-.203a2.34 2.34 0 0 1-.922-.648q-.382-.438-.594-1.11-.203-.679-.203-1.625v-5.023h1.445v5.039q0 .688.11 1.141t.328.718q.219.274.531.383.32.11.734.11.484 0 .868-.11.382-.117.664-.32.234-.164.406-.391.18-.234.297-.508v-6.062H51v8.453zm7.294.156q-.89 0-1.64-.304a3.7 3.7 0 0 1-1.274-.852 3.9 3.9 0 0 1-.828-1.297 4.4 4.4 0 0 1-.297-1.633v-.328q0-1.023.328-1.828.328-.813.875-1.375a3.8 3.8 0 0 1 1.227-.851 3.6 3.6 0 0 1 1.421-.297q.915 0 1.594.32.688.312 1.14.867.454.562.673 1.321a5.7 5.7 0 0 1 .226 1.64v.649h-6.039v.054q.055.618.242 1.086.196.47.532.828.343.383.828.602t1.07.219q.774 0 1.375-.313a3 3 0 0 0 1-.828l.883.688q-.422.64-1.266 1.14-.836.492-2.07.492m-.188-7.578q-.436 0-.828.164-.39.156-.703.461a2.8 2.8 0 0 0-.531.766q-.21.445-.297 1.031h4.547v-.07q0-.391-.149-.836a2.4 2.4 0 0 0-.414-.781 2 2 0 0 0-.671-.532q-.399-.203-.954-.203m12.599 8.602h-7.165v-1.18h7.164zm1.965-1.18v-11.375h2.633q.663.008 1.25.141.593.125 1.093.359.696.32 1.227.844a4 4 0 0 1 .86 1.195q.288.578.437 1.266.156.687.164 1.469v.835q0 .75-.149 1.422-.14.672-.414 1.235-.28.585-.71 1.062a4.6 4.6 0 0 1-.962.813 4.6 4.6 0 0 1-1.273.539q-.704.188-1.523.195zm1.469-10.187v9.007h1.164a4.2 4.2 0 0 0 1.132-.156 3.1 3.1 0 0 0 1.641-1.109q.313-.415.492-.922.156-.414.235-.891.078-.484.086-1.008v-.851a6.4 6.4 0 0 0-.094-1.016 4.4 4.4 0 0 0-.242-.914 3.6 3.6 0 0 0-.57-.984 2.7 2.7 0 0 0-.868-.719 3.3 3.3 0 0 0-.82-.312 4.2 4.2 0 0 0-.992-.125zM86.19 136.2a1.7 1.7 0 0 1-.14-.406 5 5 0 0 1-.07-.516 4 4 0 0 1-.493.414 3.4 3.4 0 0 1-1.281.578 3.4 3.4 0 0 1-.781.086 3.6 3.6 0 0 1-1.22-.195 2.8 2.8 0 0 1-.913-.531 2.3 2.3 0 0 1-.594-.781 2.4 2.4 0 0 1-.203-.993q0-.695.273-1.218.282-.524.79-.875.507-.344 1.218-.516a7 7 0 0 1 1.602-.172h1.578v-.664a1.6 1.6 0 0 0-.14-.687 1.5 1.5 0 0 0-.4-.524 1.9 1.9 0 0 0-.632-.328 2.7 2.7 0 0 0-.828-.117q-.43 0-.773.109a1.9 1.9 0 0 0-.57.289q-.236.18-.368.43a1.1 1.1 0 0 0-.125.508h-1.453q.007-.462.234-.907.235-.445.672-.804a3.5 3.5 0 0 1 1.047-.571 4.3 4.3 0 0 1 1.414-.218q.719 0 1.336.179.617.172 1.07.524.446.359.703.89.258.532.258 1.243v3.929q0 .422.078.899.078.469.22.82v.125zm-2.554-1.101q.42 0 .789-.11.367-.11.672-.289.297-.18.515-.406.219-.234.344-.485v-1.71h-1.344q-.75 0-1.312.132-.555.126-.883.391a1.3 1.3 0 0 0-.36.445 1.4 1.4 0 0 0-.117.586q0 .313.102.578.11.266.32.453.21.196.531.305.32.11.743.11m11.668-7.508q.399 0 .828.054.438.055.656.149l-.195 1.414a7 7 0 0 0-.805-.133 6 6 0 0 0-.789-.047q-.531 0-.96.133a2.2 2.2 0 0 0-.75.375 2.3 2.3 0 0 0-.508.539q-.211.313-.352.703v5.422h-1.453v-8.453h1.375l.062 1.133.008.211a3.9 3.9 0 0 1 1.235-1.094q.726-.406 1.648-.406m6.122 4.664-1.063 1.023v2.922H98.91v-12h1.453v7.344l.945-1.016 2.774-2.781h1.758l-3.422 3.523 3.945 4.93h-1.836z"/><rect width="132" height="105.6" x="142" y=".6" fill="url(#b)" rx="12"/><path fill="#6B6B6B" d="M163.344 136.2v-11.375h3.383q.702.008 1.375.188.671.171 1.195.539.523.366.836.937.312.57.305 1.367a2.4 2.4 0 0 1-.149.813 2.2 2.2 0 0 1-.367.656 2.6 2.6 0 0 1-.539.5 4 4 0 0 1-.703.383v.023q.429.102.828.368t.656.585q.273.352.422.79.156.436.156.945.008.797-.304 1.406a3 3 0 0 1-.836 1.016 3.8 3.8 0 0 1-1.211.633 4.8 4.8 0 0 1-1.407.226zm1.453-5.32v4.094h2.226q.454-.008.86-.149.406-.148.719-.406t.492-.633a1.9 1.9 0 0 0 .187-.852 2 2 0 0 0-.164-.859 1.8 1.8 0 0 0-.461-.641 2.1 2.1 0 0 0-.695-.398 2.8 2.8 0 0 0-.859-.156zm0-1.203h2.015q.407-.008.797-.125.391-.125.696-.36.304-.226.492-.562.187-.337.187-.781 0-.477-.187-.813a1.6 1.6 0 0 0-.485-.555 2.3 2.3 0 0 0-.718-.312 3.6 3.6 0 0 0-.821-.11h-1.976zm7.918-5.477h4.321v10.75h2.757v1.25h-7.078v-1.25h2.875v-9.492h-2.875zm14.473 12-.085-1.164a3.06 3.06 0 0 1-1.055.977q-.633.343-1.461.343-.665 0-1.203-.203a2.34 2.34 0 0 1-.922-.648q-.382-.438-.594-1.11-.203-.679-.203-1.625v-5.023h1.445v5.039q0 .688.11 1.141t.328.718q.219.274.531.383.32.11.734.11.484 0 .868-.11.382-.117.664-.32.234-.164.406-.391.18-.234.297-.508v-6.062h1.453v8.453zm7.294.156a4.3 4.3 0 0 1-1.641-.304 3.7 3.7 0 0 1-1.273-.852 3.9 3.9 0 0 1-.828-1.297 4.4 4.4 0 0 1-.297-1.633v-.328q0-1.023.328-1.828.328-.813.875-1.375.539-.555 1.226-.851a3.6 3.6 0 0 1 1.422-.297q.915 0 1.594.32.688.312 1.141.867.453.562.672 1.321.226.758.226 1.64v.649h-6.039v.054q.055.618.242 1.086.196.47.532.828.343.383.828.602t1.07.219q.774 0 1.375-.313a3 3 0 0 0 1-.828l.883.688q-.422.64-1.266 1.14-.835.492-2.07.492m-.188-7.578q-.436 0-.828.164-.39.156-.703.461a2.8 2.8 0 0 0-.531.766q-.211.445-.297 1.031h4.547v-.07q0-.391-.149-.836a2.4 2.4 0 0 0-.414-.781 2 2 0 0 0-.672-.532q-.398-.203-.953-.203m12.599 8.602h-7.165v-1.18h7.165zm3.746-2.406h5.563v1.226h-7.008v-11.375h1.445zm7.723-7.227h4.32v7.203h2.758v1.25h-7.078v-1.25h2.875v-5.945h-2.875zm2.688-2.219q0-.188.054-.351a.8.8 0 0 1 .188-.282.7.7 0 0 1 .258-.156q.163-.062.367-.062t.359.062q.156.056.258.156a.7.7 0 0 1 .188.274q.062.164.062.359 0 .352-.219.586-.219.235-.648.235-.438 0-.656-.235a.84.84 0 0 1-.211-.586m5.949 6.375q0-.945.227-1.734a4.1 4.1 0 0 1 .672-1.367 3.1 3.1 0 0 1 1.062-.891 3.05 3.05 0 0 1 1.414-.32q.508 0 .93.117.43.117.773.344.188.117.352.273.172.156.32.344l.071-.922h1.312v8.273q0 .836-.265 1.485a3.1 3.1 0 0 1-.727 1.101 3.2 3.2 0 0 1-1.133.688 4.3 4.3 0 0 1-1.453.234q-.328 0-.75-.078a4.2 4.2 0 0 1-.852-.242 4 4 0 0 1-.843-.445 2.8 2.8 0 0 1-.688-.696l.75-.867q.266.32.547.539.282.226.57.36.29.132.579.187a2.7 2.7 0 0 0 .578.063q.515 0 .929-.149t.711-.437a1.9 1.9 0 0 0 .446-.704 2.8 2.8 0 0 0 .156-.968v-.727a3 3 0 0 1-.352.344q-.18.156-.39.273a3 3 0 0 1-.727.274 3.5 3.5 0 0 1-.859.101q-.774 0-1.399-.328a3.1 3.1 0 0 1-1.054-.906 4.3 4.3 0 0 1-.672-1.359 6 6 0 0 1-.235-1.696zm1.446.164q0 .617.125 1.172.132.554.414.977.273.421.703.672.43.242 1.031.242.375 0 .672-.086.304-.094.547-.258.234-.164.422-.391a2.8 2.8 0 0 0 .328-.5v-3.875a2.7 2.7 0 0 0-.328-.484 2.2 2.2 0 0 0-.43-.383 2 2 0 0 0-.539-.242 2.2 2.2 0 0 0-.656-.094q-.61 0-1.047.25a2.06 2.06 0 0 0-.703.672 3.1 3.1 0 0 0-.414.992q-.125.555-.125 1.172zm9.395-3.062q.171-.258.383-.469.21-.219.445-.383.375-.273.82-.414a3.5 3.5 0 0 1 2.164.047q.548.188.93.594t.586 1.031q.21.617.211 1.469v5.32h-1.446v-5.336q0-.5-.117-.875a1.65 1.65 0 0 0-.343-.633 1.5 1.5 0 0 0-.61-.406 2.2 2.2 0 0 0-.844-.133q-.39 0-.742.11-.351.11-.648.312a2.7 2.7 0 0 0-.789.82v6.141h-1.446v-12h1.446zm11.106-3.305v2.047h3.218v1.117h-3.218v4.594q0 .492.125.812a1.25 1.25 0 0 0 .843.782q.29.078.61.078.234 0 .484-.024a14 14 0 0 0 .93-.148l.344-.078.203 1.023q-.18.11-.438.196a5 5 0 0 1-.562.132 6 6 0 0 1-.649.094 7 7 0 0 1-.672.031q-.562 0-1.054-.156a2.2 2.2 0 0 1-.844-.516 2.4 2.4 0 0 1-.57-.89q-.203-.555-.203-1.336v-4.594h-2.219v-1.117h2.219V125.7z"/><rect width="132" height="105.6" x="284" y=".6" fill="url(#c)" rx="12"/><path fill="#6B6B6B" d="M318.125 131.559h-2.273v4.641h-1.438v-11.375h3.336a5.6 5.6 0 0 1 1.5.227q.703.21 1.234.632.524.423.821 1.063.304.633.304 1.492a3 3 0 0 1-.164 1.016q-.156.46-.437.836a3.3 3.3 0 0 1-.672.664q-.39.289-.859.492l2.414 4.859-.008.094h-1.524zm-2.273-1.187h1.937q.485-.008.914-.148.43-.149.758-.422.32-.274.508-.664.187-.4.187-.914 0-.547-.179-.954a1.95 1.95 0 0 0-.5-.695 2.2 2.2 0 0 0-.766-.414 3.3 3.3 0 0 0-.961-.148h-1.898zm11.371 5.984q-.89 0-1.64-.304a3.7 3.7 0 0 1-1.274-.852 3.9 3.9 0 0 1-.828-1.297 4.4 4.4 0 0 1-.297-1.633v-.328q0-1.023.328-1.828.329-.813.875-1.375a3.8 3.8 0 0 1 1.227-.851 3.6 3.6 0 0 1 1.422-.297q.913 0 1.593.32.688.312 1.141.867.453.562.672 1.321.226.758.226 1.64v.649h-6.039v.054q.055.618.243 1.086.195.47.531.828.343.383.828.602t1.07.219q.774 0 1.375-.313a3 3 0 0 0 1-.828l.883.688q-.421.64-1.266 1.14-.836.492-2.07.492m-.187-7.578a2.1 2.1 0 0 0-.828.164 2.1 2.1 0 0 0-.704.461 2.8 2.8 0 0 0-.531.766q-.21.445-.297 1.031h4.547v-.07q0-.391-.148-.836a2.4 2.4 0 0 0-.414-.781 2 2 0 0 0-.672-.532q-.4-.203-.953-.203m5.309 3.125q0-.945.234-1.734.243-.797.688-1.367a3.1 3.1 0 0 1 1.062-.891q.625-.32 1.399-.32.757 0 1.32.258.57.25.984.734V124.2h1.446v12h-1.329l-.062-.891a2.76 2.76 0 0 1-1.008.782q-.586.265-1.367.265-.766 0-1.391-.328a3.2 3.2 0 0 1-1.054-.906 4.4 4.4 0 0 1-.68-1.359 5.7 5.7 0 0 1-.242-1.696zm1.445.164q0 .617.133 1.172.132.554.414.977.274.421.703.672.43.242 1.031.242.728 0 1.203-.328.477-.328.758-.883v-3.922a2.4 2.4 0 0 0-.758-.844q-.476-.336-1.187-.336-.609 0-1.047.25a2.1 2.1 0 0 0-.703.672 3.1 3.1 0 0 0-.414.992 5 5 0 0 0-.133 1.172zm14.973 5.313h-7.164v-1.18h7.164zm1.965-1.18v-11.375h2.633q.665.008 1.25.141.594.125 1.094.359.695.32 1.227.844.538.516.859 1.195.289.578.437 1.266.157.687.165 1.469v.835q0 .75-.149 1.422a5.3 5.3 0 0 1-.414 1.235q-.28.585-.711 1.062a4.6 4.6 0 0 1-.961.813 4.6 4.6 0 0 1-1.273.539q-.703.188-1.524.195zm1.469-10.187v9.007h1.164a4.2 4.2 0 0 0 1.133-.156 3.1 3.1 0 0 0 1.641-1.109q.312-.415.492-.922a4.7 4.7 0 0 0 .234-.891q.078-.484.086-1.008v-.851a6 6 0 0 0-.094-1.016 4.4 4.4 0 0 0-.242-.914 3.5 3.5 0 0 0-.57-.984 2.7 2.7 0 0 0-.867-.719 3.3 3.3 0 0 0-.821-.312 4 4 0 0 0-.992-.125zm13.364 10.187a1.7 1.7 0 0 1-.141-.406 6 6 0 0 1-.07-.516 3.9 3.9 0 0 1-1.078.758 4 4 0 0 1-.695.234 3.4 3.4 0 0 1-.782.086q-.672 0-1.218-.195a2.8 2.8 0 0 1-.915-.531 2.3 2.3 0 0 1-.593-.781 2.4 2.4 0 0 1-.203-.993q0-.695.273-1.218.282-.524.789-.875.508-.344 1.219-.516a7 7 0 0 1 1.601-.172h1.579v-.664q0-.382-.141-.687a1.5 1.5 0 0 0-.399-.524 1.9 1.9 0 0 0-.632-.328 2.7 2.7 0 0 0-.828-.117q-.43 0-.774.109a1.9 1.9 0 0 0-.57.289 1.3 1.3 0 0 0-.367.43 1.1 1.1 0 0 0-.125.508h-1.454a2.1 2.1 0 0 1 .235-.907q.234-.445.672-.804a3.4 3.4 0 0 1 1.047-.571 4.3 4.3 0 0 1 1.414-.218q.718 0 1.336.179.617.172 1.07.524.445.359.703.89.258.532.258 1.243v3.929q0 .422.078.899.078.469.219.82v.125zm-2.555-1.101q.422 0 .789-.11t.672-.289q.297-.18.516-.406.219-.234.344-.485v-1.71h-1.344q-.75 0-1.313.132-.554.126-.883.391a1.3 1.3 0 0 0-.359.445 1.4 1.4 0 0 0-.117.586q0 .313.101.578.11.266.321.453.21.196.531.305.32.11.742.11m11.669-7.508q.398 0 .828.054.437.055.656.149l-.195 1.414a7 7 0 0 0-.805-.133 6 6 0 0 0-.789-.047q-.53 0-.961.133a2.2 2.2 0 0 0-.75.375 2.3 2.3 0 0 0-.508.539q-.21.313-.351.703v5.422h-1.453v-8.453h1.375l.062 1.133.008.211a3.9 3.9 0 0 1 1.234-1.094q.727-.406 1.649-.406m6.121 4.664-1.062 1.023v2.922h-1.453v-12h1.453v7.344l.945-1.016 2.773-2.781h1.758l-3.422 3.523 3.946 4.93h-1.836z"/><rect width="132" height="105.6" x="426" y=".6" fill="url(#d)" rx="12"/><path fill="#6B6B6B" d="M455.625 131.559h-2.273v4.641h-1.438v-11.375h3.336a5.6 5.6 0 0 1 1.5.227q.703.21 1.234.632.524.423.821 1.063.304.633.304 1.492a3 3 0 0 1-.164 1.016q-.156.46-.437.836a3.3 3.3 0 0 1-.672.664q-.39.289-.859.492l2.414 4.859-.008.094h-1.524zm-2.273-1.187h1.937q.485-.008.914-.148.43-.149.758-.422.32-.274.508-.664.187-.4.187-.914 0-.547-.179-.954a1.95 1.95 0 0 0-.5-.695 2.2 2.2 0 0 0-.766-.414 3.3 3.3 0 0 0-.961-.148h-1.898zm11.371 5.984q-.89 0-1.64-.304a3.7 3.7 0 0 1-1.274-.852 3.9 3.9 0 0 1-.828-1.297 4.4 4.4 0 0 1-.297-1.633v-.328q0-1.023.328-1.828.329-.813.875-1.375a3.8 3.8 0 0 1 1.227-.851 3.6 3.6 0 0 1 1.422-.297q.913 0 1.593.32.688.312 1.141.867.453.562.672 1.321.226.758.226 1.64v.649h-6.039v.054q.055.618.243 1.086.195.47.531.828.344.383.828.602.485.219 1.07.219.774 0 1.375-.313a3 3 0 0 0 1-.828l.883.688q-.421.64-1.266 1.14-.836.492-2.07.492m-.187-7.578a2.1 2.1 0 0 0-.828.164 2.1 2.1 0 0 0-.704.461 2.8 2.8 0 0 0-.531.766q-.21.445-.297 1.031h4.547v-.07q0-.391-.148-.836a2.4 2.4 0 0 0-.414-.781 2 2 0 0 0-.672-.532q-.4-.203-.953-.203m5.309 3.125q0-.945.234-1.734.243-.797.688-1.367a3.1 3.1 0 0 1 1.062-.891q.625-.32 1.399-.32.757 0 1.32.258.57.25.984.734V124.2h1.446v12h-1.329l-.062-.891a2.76 2.76 0 0 1-1.008.782q-.586.265-1.367.265-.766 0-1.391-.328a3.2 3.2 0 0 1-1.054-.906 4.4 4.4 0 0 1-.68-1.359 5.7 5.7 0 0 1-.242-1.696zm1.445.164q0 .617.133 1.172.132.554.414.977.274.421.703.672.43.242 1.031.242.728 0 1.203-.328.477-.328.758-.883v-3.922a2.4 2.4 0 0 0-.758-.844q-.476-.336-1.187-.336-.609 0-1.047.25a2.1 2.1 0 0 0-.703.672 3.1 3.1 0 0 0-.414.992 5 5 0 0 0-.133 1.172zm14.973 5.313h-7.164v-1.18h7.164zm3.747-2.406h5.562v1.226h-7.008v-11.375h1.446zm7.723-7.227h4.32v7.203h2.758v1.25h-7.078v-1.25h2.875v-5.945h-2.875zm2.687-2.219q0-.188.055-.351a.75.75 0 0 1 .187-.282.7.7 0 0 1 .258-.156 1 1 0 0 1 .367-.062q.204 0 .36.062.156.056.258.156a.7.7 0 0 1 .187.274 1 1 0 0 1 .063.359q0 .352-.219.586-.219.235-.649.235-.437 0-.656-.235a.85.85 0 0 1-.211-.586m5.95 6.375q0-.945.227-1.734.234-.797.671-1.367a3.1 3.1 0 0 1 1.063-.891 3.05 3.05 0 0 1 1.414-.32q.508 0 .93.117a2.7 2.7 0 0 1 1.125.617q.171.156.32.344l.07-.922h1.313v8.273q0 .836-.266 1.485a3.1 3.1 0 0 1-.726 1.101 3.2 3.2 0 0 1-1.133.688 4.3 4.3 0 0 1-1.453.234q-.329 0-.75-.078a4 4 0 0 1-.852-.242 4 4 0 0 1-.844-.445 2.8 2.8 0 0 1-.687-.696l.75-.867q.265.32.547.539.28.226.57.36.289.132.578.187.29.063.578.063.516 0 .93-.149t.711-.437q.29-.281.445-.704a2.8 2.8 0 0 0 .156-.968v-.727q-.163.188-.351.344a2.3 2.3 0 0 1-.391.273q-.328.18-.726.274a3.5 3.5 0 0 1-.86.101 2.96 2.96 0 0 1-1.398-.328 3.1 3.1 0 0 1-1.055-.906 4.3 4.3 0 0 1-.672-1.359 6 6 0 0 1-.234-1.696zm1.445.164q0 .617.125 1.172.133.554.414.977.274.421.703.672.43.242 1.032.242.375 0 .672-.086.305-.094.546-.258.235-.164.422-.391.188-.226.328-.5v-3.875a2.6 2.6 0 0 0-.328-.484 2.2 2.2 0 0 0-.429-.383 2 2 0 0 0-.539-.242 2.2 2.2 0 0 0-.657-.094q-.609 0-1.047.25-.429.25-.703.672a3.1 3.1 0 0 0-.414.992q-.125.555-.125 1.172zm9.395-3.062q.172-.258.383-.469.211-.219.445-.383.375-.273.821-.414.453-.14.961-.148.663 0 1.203.195.546.188.929.594.384.406.586 1.031.211.617.211 1.469v5.32h-1.445v-5.336q0-.5-.117-.875a1.65 1.65 0 0 0-.344-.633 1.46 1.46 0 0 0-.609-.406 2.2 2.2 0 0 0-.844-.133q-.39 0-.742.11a2.4 2.4 0 0 0-.649.312 2.7 2.7 0 0 0-.437.367q-.196.204-.352.453v6.141h-1.445v-12h1.445zm11.106-3.305v2.047h3.219v1.117h-3.219v4.594q0 .492.125.812a1.26 1.26 0 0 0 .844.782q.29.078.609.078.235 0 .485-.024a15 15 0 0 0 .929-.148q.212-.047.344-.078l.203 1.023a2.2 2.2 0 0 1-.437.196q-.258.078-.563.132a6 6 0 0 1-.648.094 7 7 0 0 1-.672.031q-.563 0-1.055-.156a2.2 2.2 0 0 1-.843-.516 2.4 2.4 0 0 1-.571-.89q-.203-.555-.203-1.336v-4.594h-2.219v-1.117h2.219V125.7z"/><rect width="132" height="105.6" y="178.2" fill="url(#e)" rx="12"/><path fill="#6B6B6B" d="M8.719 312.308a4.4 4.4 0 0 1-1.18 1.008q-.547.328-1.18.484a5 5 0 0 1-1.328.156 4.1 4.1 0 0 1-1.297-.211 3.97 3.97 0 0 1-1.875-1.429 5.2 5.2 0 0 1-.586-1.071 6 6 0 0 1-.367-1.195 7.5 7.5 0 0 1-.125-1.273v-1.321q.008-.633.11-1.258a6.6 6.6 0 0 1 .328-1.21q.219-.579.547-1.071.327-.5.789-.867.454-.36 1.03-.57a3.8 3.8 0 0 1 1.298-.211q.796 0 1.469.25.671.242 1.171.695.5.46.805 1.109.304.642.375 1.438h-1.43a4 4 0 0 0-.265-.906 2.3 2.3 0 0 0-.469-.719 2.1 2.1 0 0 0-.703-.461 2.4 2.4 0 0 0-.945-.172q-.516 0-.914.18a2.2 2.2 0 0 0-.696.469 2.6 2.6 0 0 0-.492.695q-.195.39-.32.828a6 6 0 0 0-.18.891 7 7 0 0 0-.055.875v1.336q.009.43.07.89.071.453.212.891a4.5 4.5 0 0 0 .359.828q.219.39.531.687.305.297.711.477.406.173.922.18.297.007.617-.024.329-.031.633-.125.305-.094.57-.25a1.5 1.5 0 0 0 .446-.422l.015-2.554H5.008v-1.219h3.687zm7.309-7.117q.398 0 .828.054.438.055.656.149l-.195 1.414a7 7 0 0 0-.805-.133 6 6 0 0 0-.789-.047q-.531 0-.96.133a2.2 2.2 0 0 0-.75.375 2.3 2.3 0 0 0-.509.539q-.21.313-.351.703v5.422H11.7v-8.453h1.375l.062 1.133.008.211a3.85 3.85 0 0 1 1.234-1.094q.727-.406 1.649-.406m7.325 8.765q-.891 0-1.641-.304a3.73 3.73 0 0 1-2.102-2.149 4.4 4.4 0 0 1-.297-1.633v-.328q0-1.023.329-1.828.327-.813.875-1.375.539-.555 1.226-.851a3.6 3.6 0 0 1 1.422-.297q.914 0 1.594.32.687.312 1.14.867.453.563.672 1.32.227.759.227 1.641v.649h-6.04v.054q.055.618.243 1.086.195.47.531.828.344.384.828.602.485.219 1.07.219.774 0 1.376-.313a3 3 0 0 0 1-.828l.882.687q-.421.642-1.265 1.141-.836.492-2.07.492m-.188-7.578q-.438 0-.828.164-.39.156-.703.461a2.8 2.8 0 0 0-.532.766q-.211.445-.296 1.031h4.546v-.07q0-.391-.148-.836a2.4 2.4 0 0 0-.414-.781 2 2 0 0 0-.672-.532q-.398-.203-.953-.203m9.317 7.578q-.89 0-1.64-.304a3.73 3.73 0 0 1-2.102-2.149 4.4 4.4 0 0 1-.297-1.633v-.328q0-1.023.328-1.828.328-.813.875-1.375a3.8 3.8 0 0 1 1.226-.851 3.6 3.6 0 0 1 1.422-.297q.915 0 1.594.32.688.312 1.14.867.454.563.673 1.32.225.759.226 1.641v.649h-6.039v.054q.055.618.242 1.086.195.47.532.828.343.384.828.602.485.219 1.07.219.774 0 1.375-.313a3 3 0 0 0 1-.828l.883.687q-.422.642-1.266 1.141-.835.492-2.07.492m-.188-7.578q-.436 0-.828.164-.39.156-.703.461a2.8 2.8 0 0 0-.531.766q-.21.445-.297 1.031h4.547v-.07q0-.391-.149-.836a2.4 2.4 0 0 0-.414-.781 2 2 0 0 0-.671-.532q-.399-.203-.954-.203m5.583 7.422v-8.453h1.297l.101 1.25q.187-.266.407-.484.226-.227.476-.391.375-.25.813-.383.445-.14.937-.148.665 0 1.203.187a2.3 2.3 0 0 1 .93.586q.382.399.586 1.016.21.609.21 1.453v5.367h-1.445v-5.336q0-.563-.125-.953a1.55 1.55 0 0 0-.367-.633 1.5 1.5 0 0 0-.61-.351 2.7 2.7 0 0 0-.812-.11q-.398 0-.742.117-.343.11-.633.305a3 3 0 0 0-.437.399q-.195.226-.344.5v6.062zm16.145 1.18h-7.164v-1.18h7.164zm1.965-1.18v-11.375h2.633q.665.007 1.25.141.593.125 1.094.359.695.32 1.226.844.54.516.86 1.195.288.578.437 1.266.156.688.164 1.468v.836q0 .75-.148 1.422-.141.672-.414 1.235-.282.585-.711 1.062a4.6 4.6 0 0 1-.961.813 4.6 4.6 0 0 1-1.274.539q-.702.188-1.523.195zm1.469-10.187v9.007h1.164a4.2 4.2 0 0 0 1.133-.156 3.1 3.1 0 0 0 1.64-1.109q.313-.414.493-.922.156-.414.234-.891.078-.484.086-1.008v-.851a6.4 6.4 0 0 0-.094-1.016 4.4 4.4 0 0 0-.242-.914 3.6 3.6 0 0 0-.57-.984 2.7 2.7 0 0 0-.867-.719 3.3 3.3 0 0 0-.82-.312 4.2 4.2 0 0 0-.993-.125zM70.82 313.8a1.7 1.7 0 0 1-.14-.406 5 5 0 0 1-.071-.516q-.219.219-.492.414a3.4 3.4 0 0 1-1.282.578 3.4 3.4 0 0 1-.78.086 3.6 3.6 0 0 1-1.22-.195 2.8 2.8 0 0 1-.914-.531 2.3 2.3 0 0 1-.594-.782 2.4 2.4 0 0 1-.203-.992q0-.695.274-1.218a2.5 2.5 0 0 1 .789-.875q.508-.344 1.219-.516a7 7 0 0 1 1.601-.172h1.578v-.664q0-.382-.14-.688a1.5 1.5 0 0 0-.399-.523 1.9 1.9 0 0 0-.633-.328 2.7 2.7 0 0 0-.828-.117q-.43 0-.773.109a1.9 1.9 0 0 0-.57.289q-.236.18-.368.43a1.1 1.1 0 0 0-.125.508h-1.453a2.06 2.06 0 0 1 .235-.907 2.6 2.6 0 0 1 .671-.804 3.5 3.5 0 0 1 1.047-.571 4.3 4.3 0 0 1 1.414-.218q.72 0 1.336.179.618.172 1.07.524.447.359.704.89.258.532.258 1.243v3.929q0 .423.078.899.078.469.219.82v.125zm-2.555-1.102q.421 0 .79-.109.367-.11.67-.289.298-.18.517-.406.218-.234.343-.485v-1.711h-1.343q-.75 0-1.313.133-.555.126-.883.391a1.3 1.3 0 0 0-.36.445 1.4 1.4 0 0 0-.116.586q0 .313.101.578.11.265.32.453.211.196.532.305.32.11.742.109m11.668-7.507q.399 0 .829.054.437.055.656.149l-.196 1.414a7 7 0 0 0-.804-.133 6 6 0 0 0-.79-.047q-.53 0-.96.133a2.2 2.2 0 0 0-.75.375 2.3 2.3 0 0 0-.508.539q-.21.313-.352.703v5.422h-1.453v-8.453h1.375l.063 1.133.008.211a3.85 3.85 0 0 1 1.234-1.094q.726-.406 1.648-.406m6.122 4.664-1.062 1.023v2.922h-1.454v-12h1.454v7.344l.945-1.016 2.773-2.781h1.758l-3.422 3.523 3.946 4.93h-1.836z"/><rect width="132" height="105.6" x="142" y="178.2" fill="url(#f)" rx="12"/><path fill="#6B6B6B" d="M166.219 312.308a5 5 0 0 1-.563.57 4.4 4.4 0 0 1-.617.438 4.3 4.3 0 0 1-1.18.484 5 5 0 0 1-1.328.156 4.1 4.1 0 0 1-1.297-.211 3.7 3.7 0 0 1-1.054-.578 4 4 0 0 1-.821-.851 5.2 5.2 0 0 1-.586-1.071 6 6 0 0 1-.367-1.195 7.5 7.5 0 0 1-.125-1.273v-1.321q.008-.633.11-1.258.11-.632.328-1.21.219-.579.547-1.071.327-.5.789-.867.453-.36 1.031-.57a3.8 3.8 0 0 1 1.297-.211q.797 0 1.469.25.671.242 1.171.695.5.46.805 1.109.304.642.375 1.438h-1.43a4 4 0 0 0-.265-.906 2.3 2.3 0 0 0-.469-.719 2.1 2.1 0 0 0-.703-.461 2.4 2.4 0 0 0-.945-.172q-.516 0-.914.18a2.2 2.2 0 0 0-.696.469 2.6 2.6 0 0 0-.492.695q-.195.39-.32.828a6 6 0 0 0-.18.891 7 7 0 0 0-.055.875v1.336q.008.43.071.89.07.453.211.891t.359.828.531.687a2.4 2.4 0 0 0 .711.477q.406.173.922.18.297.007.617-.024a3 3 0 0 0 .633-.125 2.7 2.7 0 0 0 .57-.25q.266-.164.446-.422l.015-2.554h-2.312v-1.219h3.687zm7.309-7.117q.397 0 .828.054.438.055.656.149l-.195 1.414a7 7 0 0 0-.805-.133 6 6 0 0 0-.789-.047q-.53 0-.961.133a2.2 2.2 0 0 0-.75.375 2.3 2.3 0 0 0-.508.539q-.21.313-.351.703v5.422H169.2v-8.453h1.375l.062 1.133.008.211a3.9 3.9 0 0 1 1.234-1.094q.727-.406 1.649-.406m7.325 8.765a4.3 4.3 0 0 1-1.641-.304 3.7 3.7 0 0 1-1.274-.852 3.9 3.9 0 0 1-.828-1.297 4.4 4.4 0 0 1-.297-1.633v-.328q0-1.023.329-1.828.327-.813.875-1.375.539-.555 1.226-.851a3.6 3.6 0 0 1 1.422-.297q.914 0 1.594.32.687.312 1.14.867.453.563.672 1.32.227.759.227 1.641v.649h-6.039v.054q.054.618.242 1.086.195.47.531.828.344.384.828.602.485.219 1.071.219.773 0 1.375-.313a3 3 0 0 0 1-.828l.882.687q-.422.642-1.265 1.141-.836.492-2.07.492m-.188-7.578a2.1 2.1 0 0 0-.828.164 2.1 2.1 0 0 0-.703.461 2.8 2.8 0 0 0-.531.766q-.212.445-.297 1.031h4.547v-.07q0-.391-.149-.836a2.4 2.4 0 0 0-.414-.781 2 2 0 0 0-.672-.532q-.398-.203-.953-.203m9.317 7.578a4.3 4.3 0 0 1-1.641-.304 3.7 3.7 0 0 1-1.273-.852 3.9 3.9 0 0 1-.828-1.297 4.4 4.4 0 0 1-.297-1.633v-.328q0-1.023.328-1.828.328-.813.875-1.375.539-.555 1.226-.851a3.6 3.6 0 0 1 1.422-.297q.915 0 1.594.32.688.312 1.141.867.453.563.672 1.32.226.759.226 1.641v.649h-6.039v.054q.055.618.242 1.086.196.47.532.828.343.384.828.602.484.219 1.07.219.774 0 1.375-.313a3 3 0 0 0 1-.828l.883.687q-.422.642-1.266 1.141-.835.492-2.07.492m-.188-7.578q-.436 0-.828.164-.39.156-.703.461a2.8 2.8 0 0 0-.531.766q-.211.445-.297 1.031h4.547v-.07q0-.391-.149-.836a2.4 2.4 0 0 0-.414-.781 2 2 0 0 0-.672-.532q-.398-.203-.953-.203m5.583 7.422v-8.453h1.297l.101 1.25q.188-.266.407-.484.226-.227.476-.391a3 3 0 0 1 .813-.383q.445-.14.937-.148.665 0 1.203.187.548.187.93.586t.586 1.016q.211.609.211 1.453v5.367h-1.445v-5.336q0-.563-.125-.953a1.55 1.55 0 0 0-.368-.633 1.5 1.5 0 0 0-.609-.351 2.7 2.7 0 0 0-.813-.11 2.3 2.3 0 0 0-.742.117 2.5 2.5 0 0 0-.633.305 3 3 0 0 0-.437.399q-.195.226-.344.5v6.062zm16.145 1.18h-7.164v-1.18h7.164zm3.746-2.407h5.563v1.227h-7.008v-11.375h1.445zm7.724-7.226h4.32v7.203h2.758v1.25h-7.078v-1.25h2.875v-5.945h-2.875zm2.687-2.219q0-.187.055-.351a.73.73 0 0 1 .445-.438q.164-.062.367-.062a1 1 0 0 1 .36.062.7.7 0 0 1 .257.156.7.7 0 0 1 .188.274 1 1 0 0 1 .062.359q0 .352-.218.586-.219.234-.649.234-.437 0-.656-.234a.84.84 0 0 1-.211-.586m5.95 6.375q0-.945.226-1.734.236-.797.672-1.367a3.1 3.1 0 0 1 1.063-.891q.624-.32 1.414-.32.507 0 .929.117a2.7 2.7 0 0 1 1.125.617q.173.156.321.344l.07-.922h1.313v8.273q0 .836-.266 1.485a3.1 3.1 0 0 1-.727 1.101 3.2 3.2 0 0 1-1.132.688 4.3 4.3 0 0 1-1.454.234q-.327 0-.75-.078a4 4 0 0 1-.851-.242 4 4 0 0 1-.844-.445 2.8 2.8 0 0 1-.687-.696l.75-.867q.265.32.547.539.28.227.57.359.289.134.578.188.289.062.578.062.516 0 .93-.148.414-.149.711-.437.288-.281.445-.704a2.8 2.8 0 0 0 .156-.968v-.727q-.164.188-.351.344a2.3 2.3 0 0 1-.391.273q-.329.18-.726.274a3.5 3.5 0 0 1-.86.101q-.773 0-1.398-.328a3.1 3.1 0 0 1-1.055-.906 4.3 4.3 0 0 1-.672-1.359 6 6 0 0 1-.234-1.696zm1.445.164q0 .618.125 1.172.133.555.414.977.274.421.703.672.43.242 1.032.242.375 0 .671-.086.306-.095.547-.258.235-.164.422-.391.188-.226.328-.5v-3.875a2.6 2.6 0 0 0-.328-.484 2.2 2.2 0 0 0-.43-.383 2 2 0 0 0-.539-.242 2.2 2.2 0 0 0-.656-.094q-.609 0-1.047.25a2.1 2.1 0 0 0-.703.672 3.1 3.1 0 0 0-.414.992q-.125.555-.125 1.172zm9.395-3.062q.172-.258.383-.469.211-.219.445-.383.375-.273.821-.414.453-.14.96-.148.664 0 1.204.195.546.188.929.594t.586 1.031q.211.617.211 1.469v5.32h-1.445v-5.336q0-.5-.117-.875a1.65 1.65 0 0 0-.344-.633 1.5 1.5 0 0 0-.609-.406 2.3 2.3 0 0 0-.844-.133 2.5 2.5 0 0 0-1.391.422 2.7 2.7 0 0 0-.437.367 3 3 0 0 0-.352.453v6.141h-1.445v-12h1.445zm11.106-3.305v2.047h3.219v1.117h-3.219v4.594q0 .492.125.812t.344.508q.219.195.5.274.289.078.609.078.234 0 .484-.024a15 15 0 0 0 .93-.148l.344-.078.203 1.023q-.18.11-.437.195-.258.08-.563.133a6 6 0 0 1-.648.094 7 7 0 0 1-.672.031q-.563 0-1.055-.156a2.2 2.2 0 0 1-.844-.516 2.4 2.4 0 0 1-.57-.89q-.203-.555-.203-1.336v-4.594h-2.219v-1.117h2.219V303.3z"/><rect width="132" height="105.6" x="284" y="178.2" fill="url(#g)" rx="12"/><path fill="#6B6B6B" d="m304.211 308.136 2.594-5.711h1.64l-3.539 7.133-.023 4.242h-1.344l-.023-4.242-3.539-7.133h1.648zm9.512 5.82q-.89 0-1.64-.304a3.73 3.73 0 0 1-2.102-2.149 4.4 4.4 0 0 1-.297-1.633v-.328q0-1.023.328-1.828.329-.813.875-1.375a3.8 3.8 0 0 1 1.227-.851 3.6 3.6 0 0 1 1.422-.297q.913 0 1.593.32.688.312 1.141.867.453.563.672 1.32.226.759.226 1.641v.649h-6.039v.054q.055.618.243 1.086.195.47.531.828.343.384.828.602.485.219 1.07.219.774 0 1.375-.313a3 3 0 0 0 1-.828l.883.687q-.421.642-1.266 1.141-.836.492-2.07.492m-.187-7.578a2.1 2.1 0 0 0-.828.164 2.1 2.1 0 0 0-.704.461 2.8 2.8 0 0 0-.531.766q-.21.445-.297 1.031h4.547v-.07q0-.391-.148-.836a2.4 2.4 0 0 0-.414-.781 2 2 0 0 0-.672-.532q-.4-.203-.953-.203m5.809-4.578h4.32v10.75h2.758v1.25h-7.078v-1.25h2.875v-9.492h-2.875zm9.129 0h4.32v10.75h2.758v1.25h-7.078v-1.25h2.875v-9.492h-2.875zm8.497 7.695q0-.913.265-1.695.266-.79.766-1.367a3.45 3.45 0 0 1 1.203-.906 3.7 3.7 0 0 1 1.602-.336q.898 0 1.609.336.718.327 1.219.906.491.578.758 1.367.265.781.265 1.695v.172a5.2 5.2 0 0 1-.265 1.696q-.267.78-.758 1.359a3.6 3.6 0 0 1-1.211.906q-.711.328-1.602.328a3.85 3.85 0 0 1-1.617-.328 3.5 3.5 0 0 1-1.203-.906 4 4 0 0 1-.766-1.359 5.2 5.2 0 0 1-.265-1.696zm1.445.172q0 .625.148 1.196.148.562.454.992.296.43.75.679.453.25 1.054.25.594 0 1.039-.25a2.25 2.25 0 0 0 .758-.679 3.1 3.1 0 0 0 .445-.992q.149-.571.149-1.196v-.172q0-.616-.156-1.179a3.1 3.1 0 0 0-.446-1 2.24 2.24 0 0 0-.758-.68q-.444-.258-1.046-.258-.601 0-1.047.258a2.2 2.2 0 0 0-.742.68 3 3 0 0 0-.454 1 4.6 4.6 0 0 0-.148 1.179zm8.903 4.133-1.797-8.453h1.281l.984 5.391.172 1.21.211-1.21 1.352-5.391h.93l1.343 5.391.227 1.328.211-1.328.937-5.391h1.282l-1.797 8.453h-1.141l-1.32-5.18-.219-1.312-.211 1.312-1.305 5.18zm15.332 1.18h-7.164v-1.18h7.164zm1.966-1.18v-11.375h2.632q.665.007 1.25.141.594.125 1.094.359.696.32 1.227.844.539.516.859 1.195.29.578.438 1.266.156.688.164 1.468v.836q0 .75-.149 1.422a5.3 5.3 0 0 1-.414 1.235q-.28.585-.711 1.062a4.6 4.6 0 0 1-.961.813 4.6 4.6 0 0 1-1.273.539q-.703.188-1.524.195zm1.468-10.187v9.007h1.164a4.2 4.2 0 0 0 1.133-.156 3.1 3.1 0 0 0 1.641-1.109q.312-.414.492-.922a4.7 4.7 0 0 0 .234-.891q.078-.484.086-1.008v-.851a6.4 6.4 0 0 0-.093-1.016 4.5 4.5 0 0 0-.243-.914 3.5 3.5 0 0 0-.57-.984 2.7 2.7 0 0 0-.867-.719 3.3 3.3 0 0 0-.82-.312 4.2 4.2 0 0 0-.993-.125zm13.364 10.187a1.7 1.7 0 0 1-.141-.406 6 6 0 0 1-.07-.516q-.219.219-.492.414a3.4 3.4 0 0 1-1.281.578 3.4 3.4 0 0 1-.782.086q-.671 0-1.218-.195a2.8 2.8 0 0 1-.914-.531 2.3 2.3 0 0 1-.594-.782 2.4 2.4 0 0 1-.203-.992q0-.695.273-1.218.282-.524.789-.875.508-.344 1.219-.516a7 7 0 0 1 1.602-.172h1.578v-.664q0-.382-.141-.688a1.5 1.5 0 0 0-.398-.523 1.9 1.9 0 0 0-.633-.328 2.7 2.7 0 0 0-.828-.117q-.43 0-.774.109a1.9 1.9 0 0 0-.57.289 1.3 1.3 0 0 0-.367.43 1.1 1.1 0 0 0-.125.508h-1.453q.007-.462.234-.907.234-.445.672-.804a3.4 3.4 0 0 1 1.047-.571 4.3 4.3 0 0 1 1.414-.218q.718 0 1.336.179.617.172 1.07.524.445.359.703.89.258.532.258 1.243v3.929q0 .423.078.899.078.469.219.82v.125zm-2.555-1.102q.423 0 .789-.109.368-.11.672-.289.297-.18.516-.406.219-.234.344-.485v-1.711h-1.344q-.75 0-1.313.133-.554.126-.882.391a1.3 1.3 0 0 0-.36.445 1.4 1.4 0 0 0-.117.586q0 .313.102.578.109.265.32.453.212.196.531.305.32.11.742.109m11.669-7.507q.397 0 .828.054.437.055.656.149l-.195 1.414a7 7 0 0 0-.805-.133 6 6 0 0 0-.789-.047q-.53 0-.961.133a2.2 2.2 0 0 0-.75.375 2.3 2.3 0 0 0-.508.539q-.21.313-.351.703v5.422h-1.453v-8.453h1.375l.062 1.133.008.211a3.9 3.9 0 0 1 1.234-1.094q.727-.406 1.649-.406m6.121 4.664-1.062 1.023v2.922h-1.453v-12h1.453v7.344l.945-1.016 2.774-2.781h1.757l-3.421 3.523 3.945 4.93h-1.836z"/><rect width="132" height="105.6" x="426" y="178.2" fill="url(#h)" rx="12"/><path fill="#6B6B6B" d="m441.211 308.136 2.594-5.711h1.64l-3.539 7.133-.023 4.242h-1.344l-.023-4.242-3.539-7.133h1.648zm9.512 5.82q-.89 0-1.64-.304a3.73 3.73 0 0 1-2.102-2.149 4.4 4.4 0 0 1-.297-1.633v-.328q0-1.023.328-1.828.329-.813.875-1.375a3.8 3.8 0 0 1 1.227-.851 3.6 3.6 0 0 1 1.422-.297q.913 0 1.593.32.688.312 1.141.867.453.563.672 1.32.226.759.226 1.641v.649h-6.039v.054q.055.618.243 1.086.195.47.531.828.344.384.828.602.485.219 1.07.219.774 0 1.375-.313a3 3 0 0 0 1-.828l.883.687q-.421.642-1.266 1.141-.836.492-2.07.492m-.187-7.578a2.1 2.1 0 0 0-.828.164 2.1 2.1 0 0 0-.704.461 2.8 2.8 0 0 0-.531.766q-.21.445-.297 1.031h4.547v-.07q0-.391-.148-.836a2.4 2.4 0 0 0-.414-.781 2 2 0 0 0-.672-.532q-.4-.203-.953-.203m5.809-4.578h4.32v10.75h2.758v1.25h-7.078v-1.25h2.875v-9.492h-2.875zm9.129 0h4.32v10.75h2.758v1.25h-7.078v-1.25h2.875v-9.492h-2.875zm8.497 7.695q0-.913.265-1.695.266-.79.766-1.367a3.45 3.45 0 0 1 1.203-.906 3.7 3.7 0 0 1 1.602-.336q.898 0 1.609.336.718.327 1.219.906.491.578.758 1.367.265.781.265 1.695v.172a5.2 5.2 0 0 1-.265 1.696q-.267.78-.758 1.359a3.6 3.6 0 0 1-1.211.906q-.711.328-1.602.328a3.85 3.85 0 0 1-1.617-.328 3.5 3.5 0 0 1-1.203-.906 4 4 0 0 1-.766-1.359 5.2 5.2 0 0 1-.265-1.696zm1.445.172q0 .625.148 1.196.148.562.454.992.296.43.75.679.453.25 1.054.25.594 0 1.039-.25a2.25 2.25 0 0 0 .758-.679 3.1 3.1 0 0 0 .445-.992q.149-.571.149-1.196v-.172q0-.616-.156-1.179a3.1 3.1 0 0 0-.446-1 2.24 2.24 0 0 0-.758-.68q-.444-.258-1.046-.258-.601 0-1.047.258a2.2 2.2 0 0 0-.742.68 3 3 0 0 0-.454 1 4.6 4.6 0 0 0-.148 1.179zm8.903 4.133-1.797-8.453h1.281l.984 5.391.172 1.21.211-1.21 1.352-5.391h.93l1.343 5.391.227 1.328.211-1.328.937-5.391h1.282l-1.797 8.453h-1.141l-1.32-5.18-.219-1.312-.211 1.312-1.305 5.18zm15.332 1.18h-7.164v-1.18h7.164zm3.747-2.407h5.562v1.227h-7.008v-11.375h1.446zm7.723-7.226h4.32v7.203h2.758v1.25h-7.078v-1.25h2.875v-5.945h-2.875zm2.687-2.219q0-.187.055-.351a.74.74 0 0 1 .445-.438q.164-.062.368-.062t.359.062q.156.055.258.156a.7.7 0 0 1 .187.274 1 1 0 0 1 .063.359q0 .352-.219.586t-.648.234q-.438 0-.657-.234a.85.85 0 0 1-.211-.586m5.95 6.375q0-.945.227-1.734a4.1 4.1 0 0 1 .672-1.367 3.1 3.1 0 0 1 1.062-.891 3.05 3.05 0 0 1 1.414-.32q.508 0 .93.117a2.7 2.7 0 0 1 1.125.617q.171.156.32.344l.07-.922h1.313v8.273q0 .836-.266 1.485a3.1 3.1 0 0 1-.726 1.101 3.2 3.2 0 0 1-1.133.688 4.3 4.3 0 0 1-1.453.234q-.329 0-.75-.078a4.2 4.2 0 0 1-.852-.242 4 4 0 0 1-.843-.445 2.8 2.8 0 0 1-.688-.696l.75-.867q.265.32.547.539.28.227.57.359.29.134.578.188.29.062.578.062.516 0 .93-.148.414-.149.711-.437.29-.281.445-.704.157-.422.157-.968v-.727a3 3 0 0 1-.352.344 2.3 2.3 0 0 1-.391.273q-.327.18-.726.274a3.5 3.5 0 0 1-.859.101q-.774 0-1.399-.328a3.1 3.1 0 0 1-1.055-.906 4.3 4.3 0 0 1-.671-1.359 6 6 0 0 1-.235-1.696zm1.445.164q0 .618.125 1.172.133.555.415.977.273.421.703.672.43.242 1.031.242.375 0 .672-.086.304-.095.547-.258.234-.164.422-.391a2.8 2.8 0 0 0 .328-.5v-3.875a2.7 2.7 0 0 0-.328-.484 2.2 2.2 0 0 0-.43-.383 2 2 0 0 0-.539-.242 2.2 2.2 0 0 0-.656-.094q-.61 0-1.047.25a2.06 2.06 0 0 0-.703.672 3.1 3.1 0 0 0-.415.992q-.125.555-.125 1.172zm9.395-3.062q.173-.258.383-.469a3 3 0 0 1 .446-.383q.375-.273.82-.414.453-.14.961-.148.664 0 1.203.195.547.188.93.594.382.406.586 1.031.21.617.21 1.469v5.32h-1.445v-5.336q0-.5-.117-.875a1.65 1.65 0 0 0-.344-.633 1.46 1.46 0 0 0-.609-.406 2.2 2.2 0 0 0-.844-.133q-.39 0-.742.11a2.4 2.4 0 0 0-.649.312 2.7 2.7 0 0 0-.437.367q-.195.204-.352.453v6.141h-1.445v-12h1.445zm11.106-3.305v2.047h3.219v1.117h-3.219v4.594q0 .492.125.812a1.26 1.26 0 0 0 .844.782q.29.078.61.078.234 0 .484-.024a14 14 0 0 0 .93-.148l.343-.078.203 1.023a2 2 0 0 1-.437.195 5 5 0 0 1-.563.133 6 6 0 0 1-.648.094 7 7 0 0 1-.672.031q-.562 0-1.055-.156a2.2 2.2 0 0 1-.843-.516 2.4 2.4 0 0 1-.571-.89q-.203-.555-.203-1.336v-4.594h-2.218v-1.117h2.218V303.3z"/><defs><linearGradient id="a" x1="66" x2="66" y1=".6" y2="106.2" gradientUnits="userSpaceOnUse"><stop stop-color="#368FF7"/><stop offset="1" stop-color="#205694"/></linearGradient><linearGradient id="b" x1="208" x2="208" y1=".6" y2="106.2" gradientUnits="userSpaceOnUse"><stop stop-color="#AFD2FC"/><stop offset="1" stop-color="#4792EE"/></linearGradient><linearGradient id="c" x1="350" x2="350" y1=".6" y2="106.2" gradientUnits="userSpaceOnUse"><stop stop-color="#EE695D"/><stop offset="1" stop-color="#EA4335"/></linearGradient><linearGradient id="d" x1="492" x2="492" y1=".6" y2="106.2" gradientUnits="userSpaceOnUse"><stop stop-color="#F9C7C2"/><stop offset="1" stop-color="#F28E86"/></linearGradient><linearGradient id="e" x1="66" x2="66" y1="178.2" y2="283.8" gradientUnits="userSpaceOnUse"><stop stop-color="#34A853"/><stop offset="1" stop-color="#1F6532"/></linearGradient><linearGradient id="f" x1="208" x2="208" y1="178.2" y2="283.8" gradientUnits="userSpaceOnUse"><stop stop-color="#C2E5CB"/><stop offset="1" stop-color="#5DB975"/></linearGradient><linearGradient id="g" x1="350" x2="350" y1="178.2" y2="283.8" gradientUnits="userSpaceOnUse"><stop stop-color="#FBBC04"/><stop offset="1" stop-color="#F9AB00"/></linearGradient><linearGradient id="h" x1="492" x2="492" y1="178.2" y2="283.8" gradientUnits="userSpaceOnUse"><stop stop-color="#FDE6B2"/><stop offset="1" stop-color="#FDDD99"/></linearGradient></defs></svg>