<svg xmlns="http://www.w3.org/2000/svg" width="426" height="134" fill="none"><rect width="132" height="100" fill="#2B72C5" rx="12"/><path fill="#6B6B6B" d="M48.844 130v-11.375h3.383q.703.008 1.375.187a3.6 3.6 0 0 1 1.195.54q.524.367.836.937.313.57.304 1.367a2.4 2.4 0 0 1-.148.813 2.3 2.3 0 0 1-.367.656 2.6 2.6 0 0 1-.54.5 4 4 0 0 1-.702.383v.023q.429.102.828.367.398.267.656.586.273.353.422.789.156.438.156.946.008.797-.304 1.406a3 3 0 0 1-.836 1.016 3.8 3.8 0 0 1-1.211.632 4.7 4.7 0 0 1-1.407.227zm1.453-5.32v4.093h2.226q.453-.007.86-.148.405-.148.719-.406.312-.258.492-.633a1.9 1.9 0 0 0 .187-.852 1.96 1.96 0 0 0-.164-.859 1.8 1.8 0 0 0-.46-.641 2.1 2.1 0 0 0-.696-.398 2.8 2.8 0 0 0-.86-.156zm0-1.203h2.016q.406-.008.796-.125a2.3 2.3 0 0 0 .696-.36q.305-.226.492-.562a1.6 1.6 0 0 0 .187-.782q0-.476-.187-.812a1.6 1.6 0 0 0-.484-.555 2.2 2.2 0 0 0-.72-.312 3.6 3.6 0 0 0-.82-.11h-1.976zM58.215 118h4.32v10.75h2.758V130h-7.078v-1.25h2.875v-9.492h-2.875zm14.473 12-.085-1.164a3.04 3.04 0 0 1-1.055.976q-.633.344-1.461.344-.664 0-1.203-.203a2.35 2.35 0 0 1-.922-.648q-.383-.438-.594-1.11-.203-.679-.203-1.625v-5.023h1.445v5.039q0 .687.11 1.141t.328.718q.219.274.531.383.32.11.734.11.484 0 .868-.11.382-.117.664-.32.234-.165.406-.391.18-.234.297-.508v-6.062H74V130zm7.294.156q-.89 0-1.64-.304a3.73 3.73 0 0 1-2.102-2.149 4.4 4.4 0 0 1-.297-1.633v-.328q0-1.023.328-1.828.328-.813.875-1.375a3.8 3.8 0 0 1 1.227-.851 3.6 3.6 0 0 1 1.421-.297q.915 0 1.594.32.688.312 1.14.867.454.563.673 1.32.225.759.226 1.641v.649h-6.039v.054q.055.618.242 1.086.195.47.532.828.343.383.828.602t1.07.219q.774 0 1.375-.313a3 3 0 0 0 1-.828l.883.687q-.422.642-1.266 1.141-.836.492-2.07.492m-.188-7.578q-.436 0-.828.164-.39.156-.703.461a2.8 2.8 0 0 0-.531.766q-.21.445-.297 1.031h4.547v-.07q0-.391-.149-.836a2.4 2.4 0 0 0-.414-.782 2 2 0 0 0-.671-.531q-.399-.203-.954-.203"/><rect width="132" height="100" x="144" fill="#121212" rx="12"/><path fill="#6B6B6B" d="m194.445 118.625 1.852 5.687 2-5.687h1.797V130h-1.406v-4.539l.117-4.75-2.102 6.125h-.828l-1.93-5.961.117 4.586V130h-1.406v-11.375zm7.138 7.07q0-.913.265-1.695.265-.79.766-1.367a3.45 3.45 0 0 1 1.203-.906 3.7 3.7 0 0 1 1.601-.336q.899 0 1.61.336.718.327 1.219.906.492.578.757 1.367.266.781.266 1.695v.172q0 .915-.266 1.695a4.1 4.1 0 0 1-.757 1.36 3.6 3.6 0 0 1-1.211.906q-.711.328-1.602.328a3.85 3.85 0 0 1-1.617-.328 3.5 3.5 0 0 1-1.203-.906 4 4 0 0 1-.766-1.36 5.2 5.2 0 0 1-.265-1.695zm1.445.172q0 .625.148 1.195.149.563.453.993.297.43.75.679t1.055.25q.594 0 1.039-.25a2.25 2.25 0 0 0 .758-.679q.297-.43.445-.993a4.7 4.7 0 0 0 .149-1.195v-.172q0-.617-.157-1.179a3.1 3.1 0 0 0-.445-1 2.25 2.25 0 0 0-.758-.68 2.05 2.05 0 0 0-1.047-.258q-.602 0-1.046.258a2.2 2.2 0 0 0-.743.68 3 3 0 0 0-.453 1 4.6 4.6 0 0 0-.148 1.179zm8.09 4.133v-8.453h1.297l.102 1.25a4 4 0 0 1 .406-.485q.227-.227.476-.39a3 3 0 0 1 .813-.383q.445-.14.937-.148.664 0 1.204.187a2.3 2.3 0 0 1 .929.586q.383.398.586 1.016.211.609.211 1.453V130h-1.445v-5.336q0-.563-.125-.953a1.56 1.56 0 0 0-.367-.633 1.5 1.5 0 0 0-.61-.351 2.7 2.7 0 0 0-.812-.11q-.399 0-.742.117-.345.11-.633.305a3 3 0 0 0-.438.399q-.195.226-.344.5V130zm8.723-4.305q0-.913.266-1.695.266-.79.765-1.367a3.5 3.5 0 0 1 1.204-.906 3.7 3.7 0 0 1 1.601-.336q.899 0 1.61.336.718.327 1.218.906.492.578.758 1.367.266.781.266 1.695v.172q0 .915-.266 1.695-.266.781-.758 1.36a3.55 3.55 0 0 1-1.211.906 3.8 3.8 0 0 1-1.601.328 3.85 3.85 0 0 1-1.617-.328 3.5 3.5 0 0 1-1.204-.906 4 4 0 0 1-.765-1.36 5.2 5.2 0 0 1-.266-1.695zm1.446.172q0 .625.148 1.195.149.563.453.993.297.43.75.679t1.055.25q.594 0 1.039-.25a2.25 2.25 0 0 0 .758-.679q.297-.43.445-.993a4.7 4.7 0 0 0 .148-1.195v-.172q0-.617-.156-1.179a3.1 3.1 0 0 0-.445-1 2.25 2.25 0 0 0-.758-.68 2.05 2.05 0 0 0-1.047-.258q-.602 0-1.047.258a2.2 2.2 0 0 0-.742.68 3 3 0 0 0-.453 1 4.6 4.6 0 0 0-.148 1.179z"/><rect width="132" height="100" x="291" fill="#102B4A" fill-opacity=".2" rx="12"/><path fill="#6B6B6B" d="M295.617 124.742h-4.75v4.031h5.539V130h-6.984v-11.375h6.914v1.234h-5.469v3.657h4.75zm3.098-6.742h4.321v10.75h2.757V130h-7.078v-1.25h2.875v-9.492h-2.875zm11.786 12-3.477-8.453h1.485l2.422 6.375.132.523.141-.523 2.367-6.375h1.477L311.603 130zm11.801 0a1.7 1.7 0 0 1-.14-.406 5 5 0 0 1-.071-.516q-.219.219-.492.414a3.4 3.4 0 0 1-1.281.578 3.4 3.4 0 0 1-.781.086q-.673 0-1.219-.195a2.8 2.8 0 0 1-.914-.531 2.3 2.3 0 0 1-.594-.782 2.4 2.4 0 0 1-.203-.992q0-.695.273-1.218.282-.524.789-.876a3.7 3.7 0 0 1 1.219-.515 7 7 0 0 1 1.602-.172h1.578v-.664q0-.382-.141-.688a1.5 1.5 0 0 0-.398-.523 1.9 1.9 0 0 0-.633-.328 2.7 2.7 0 0 0-.828-.117q-.43 0-.774.109a1.9 1.9 0 0 0-.57.289 1.3 1.3 0 0 0-.367.43 1.1 1.1 0 0 0-.125.508h-1.453q.008-.462.234-.907.234-.445.672-.804a3.4 3.4 0 0 1 1.047-.571 4.3 4.3 0 0 1 1.414-.218q.718 0 1.336.179.617.172 1.07.524.445.359.703.89.258.532.258 1.243v3.929q0 .423.078.899.078.469.219.82V130zm-2.555-1.102q.423 0 .79-.109.366-.11.671-.289.297-.18.516-.406.219-.234.344-.485v-1.711h-1.344q-.75 0-1.312.133-.555.126-.883.391a1.3 1.3 0 0 0-.36.445 1.4 1.4 0 0 0-.117.586q0 .312.102.578.109.265.32.453.212.196.531.305.32.11.742.109m9.552-9.398v2.047h3.219v1.117h-3.219v4.594q0 .492.125.812t.344.508q.218.195.5.274.288.078.609.078.234 0 .484-.024a14 14 0 0 0 .93-.148l.344-.078.203 1.023a2 2 0 0 1-.438.195 5 5 0 0 1-.562.133 6 6 0 0 1-.649.094 7 7 0 0 1-.671.031q-.563 0-1.055-.156a2.2 2.2 0 0 1-.844-.516 2.4 2.4 0 0 1-.57-.89q-.204-.555-.203-1.336v-4.594h-2.219v-1.117h2.219V119.5zm9.442 10.656a4.3 4.3 0 0 1-1.641-.304 3.7 3.7 0 0 1-1.273-.852 3.9 3.9 0 0 1-.829-1.297 4.4 4.4 0 0 1-.296-1.633v-.328q0-1.023.328-1.828.327-.813.875-1.375.539-.555 1.226-.851a3.6 3.6 0 0 1 1.422-.297q.914 0 1.594.32.687.312 1.14.867.454.563.672 1.32.227.759.227 1.641v.649h-6.039v.054q.054.618.242 1.086.195.47.531.828.344.383.828.602t1.071.219q.773 0 1.375-.313a3 3 0 0 0 1-.828l.883.687q-.423.642-1.266 1.141-.835.492-2.07.492m-.188-7.578a2.1 2.1 0 0 0-.828.164q-.39.156-.703.461a2.8 2.8 0 0 0-.531.766q-.212.445-.297 1.031h4.547v-.07q0-.391-.149-.836a2.4 2.4 0 0 0-.414-.782 2 2 0 0 0-.672-.531q-.398-.203-.953-.203m5.309 3.125q0-.945.235-1.734.241-.797.687-1.367a3.01 3.01 0 0 1 2.461-1.211q.757 0 1.32.257.571.25.985.735V118h1.445v12h-1.328l-.063-.891a2.76 2.76 0 0 1-1.007.782q-.587.265-1.368.265a2.94 2.94 0 0 1-1.39-.328 3.2 3.2 0 0 1-1.055-.906 4.4 4.4 0 0 1-.68-1.36 5.8 5.8 0 0 1-.242-1.695zm1.445.164q0 .618.133 1.172.133.555.414.977.274.422.703.672.43.242 1.032.242.726 0 1.203-.328.476-.328.758-.883v-3.922a2.4 2.4 0 0 0-.758-.844q-.477-.336-1.188-.336-.609 0-1.047.25-.429.25-.703.672a3.1 3.1 0 0 0-.414.992q-.132.555-.133 1.172zm9.388-.484q0-1.117.172-2.102.179-.984.476-1.828.297-.836.68-1.531.39-.696.82-1.234.422-.54.852-.922.43-.383.82-.602l.305.953a4.4 4.4 0 0 0-.508.453 6 6 0 0 0-.492.594q-.36.508-.688 1.195a8.5 8.5 0 0 0-.547 1.493 11 11 0 0 0-.328 1.617 14.5 14.5 0 0 0-.117 1.898v.11q0 .976.109 1.828.11.851.297 1.57a10.8 10.8 0 0 0 1.024 2.461q.297.468.609.828.32.367.641.625l-.305.883a5 5 0 0 1-.828-.602 6.4 6.4 0 0 1-.852-.922 9 9 0 0 1-.82-1.234 9.5 9.5 0 0 1-.672-1.531 11.6 11.6 0 0 1-.476-1.821 12 12 0 0 1-.172-2.101zm13.653 1.742q0-.523-.243-.883a2.1 2.1 0 0 0-.609-.609 4 4 0 0 0-.828-.406q-.446-.165-.86-.297a14 14 0 0 1-1.226-.469 5.8 5.8 0 0 1-1.125-.672 3.5 3.5 0 0 1-.844-.937q-.32-.547-.32-1.282 0-.734.32-1.312a3.2 3.2 0 0 1 .852-.977 3.8 3.8 0 0 1 1.187-.601 4.4 4.4 0 0 1 1.336-.211q.742 0 1.43.25.687.242 1.219.687.531.445.851 1.078.321.634.336 1.414h-1.484a3.1 3.1 0 0 0-.242-.89 2.2 2.2 0 0 0-.477-.696 2 2 0 0 0-.711-.445 2.5 2.5 0 0 0-.922-.164q-.414 0-.812.117a2.1 2.1 0 0 0-.696.352 1.8 1.8 0 0 0-.5.578 1.7 1.7 0 0 0-.179.797q.007.492.25.836.242.336.617.57.367.234.797.391.437.156.82.273.633.195 1.266.477.633.273 1.156.703.516.398.828.976.32.579.32 1.336 0 .766-.343 1.336a3 3 0 0 1-.875.946q-.54.383-1.219.578a5 5 0 0 1-1.36.187 4.9 4.9 0 0 1-1.601-.273 4 4 0 0 1-1.359-.789 3.4 3.4 0 0 1-.821-1.039 3.2 3.2 0 0 1-.32-1.336h1.476q.07.531.29.945.218.406.562.688.343.288.789.437.453.141.984.141.423 0 .829-.102.414-.11.734-.336.32-.22.523-.554.204-.344.204-.813m4.621-4.32q.172-.258.383-.469.211-.22.445-.383.375-.273.821-.414.453-.14.96-.148.664 0 1.204.195.546.187.929.594t.586 1.031q.211.617.211 1.469V130h-1.445v-5.336q0-.5-.117-.875a1.65 1.65 0 0 0-.344-.633 1.5 1.5 0 0 0-.609-.406 2.3 2.3 0 0 0-.844-.133 2.5 2.5 0 0 0-1.391.422 2.7 2.7 0 0 0-.437.367 3 3 0 0 0-.352.453V130h-1.445v-12h1.445zM386.208 130a1.7 1.7 0 0 1-.141-.406 5 5 0 0 1-.07-.516 3.9 3.9 0 0 1-1.078.758 4 4 0 0 1-.696.234 3.4 3.4 0 0 1-.781.086q-.672 0-1.219-.195a2.8 2.8 0 0 1-.914-.531 2.3 2.3 0 0 1-.593-.782 2.4 2.4 0 0 1-.204-.992q0-.695.274-1.218.28-.524.789-.876a3.7 3.7 0 0 1 1.219-.515 7 7 0 0 1 1.601-.172h1.578v-.664q0-.382-.14-.688a1.5 1.5 0 0 0-.399-.523 1.9 1.9 0 0 0-.632-.328 2.7 2.7 0 0 0-.829-.117q-.43 0-.773.109a1.9 1.9 0 0 0-.57.289q-.235.18-.368.43a1.1 1.1 0 0 0-.125.508h-1.453a2.1 2.1 0 0 1 .235-.907q.234-.445.672-.804a3.5 3.5 0 0 1 1.046-.571 4.3 4.3 0 0 1 1.415-.218q.718 0 1.335.179.618.172 1.071.524.445.359.703.89.258.532.258 1.243v3.929q0 .423.078.899.078.469.219.82V130zm-2.555-1.102q.421 0 .789-.109.368-.11.672-.289.297-.18.516-.406.219-.234.343-.485v-1.711h-1.343q-.75 0-1.313.133-.555.126-.883.391a1.3 1.3 0 0 0-.359.445 1.4 1.4 0 0 0-.117.586q0 .312.101.578.11.265.321.453.21.196.531.305.32.11.742.109m5.856-3.195q0-.945.234-1.734.243-.797.688-1.367a3.1 3.1 0 0 1 1.062-.891q.625-.32 1.399-.32.757 0 1.32.257.57.25.985.735V118h1.445v12h-1.328l-.063-.891a2.76 2.76 0 0 1-1.008.782q-.585.265-1.367.265a2.94 2.94 0 0 1-1.39-.328 3.2 3.2 0 0 1-1.055-.906 4.4 4.4 0 0 1-.68-1.36 5.8 5.8 0 0 1-.242-1.695zm1.445.164q0 .618.133 1.172.134.555.414.977.274.422.703.672.43.242 1.032.242.726 0 1.203-.328.476-.328.758-.883v-3.922a2.4 2.4 0 0 0-.758-.844q-.477-.336-1.188-.336-.609 0-1.047.25-.429.25-.703.672a3.1 3.1 0 0 0-.414.992q-.132.555-.133 1.172zm7.552-.172q0-.913.265-1.695.266-.79.766-1.367a3.45 3.45 0 0 1 1.203-.906 3.7 3.7 0 0 1 1.602-.336q.898 0 1.609.336.718.327 1.219.906.492.578.757 1.367a5.2 5.2 0 0 1 .266 1.695v.172q0 .915-.266 1.695a4.1 4.1 0 0 1-.757 1.36 3.6 3.6 0 0 1-1.211.906q-.711.328-1.602.328a3.85 3.85 0 0 1-1.617-.328 3.5 3.5 0 0 1-1.203-.906 4.1 4.1 0 0 1-.766-1.36 5.2 5.2 0 0 1-.265-1.695zm1.445.172q0 .625.148 1.195.149.563.453.993.297.43.75.679.454.25 1.055.25.594 0 1.039-.25a2.25 2.25 0 0 0 .758-.679q.297-.43.445-.993a4.7 4.7 0 0 0 .149-1.195v-.172q0-.617-.156-1.179a3.1 3.1 0 0 0-.446-1 2.24 2.24 0 0 0-.758-.68q-.444-.258-1.046-.258t-1.047.258a2.2 2.2 0 0 0-.743.68 3 3 0 0 0-.453 1 4.6 4.6 0 0 0-.148 1.179zm8.903 4.133-1.797-8.453h1.281l.985 5.391.171 1.21.211-1.21 1.352-5.391h.93l1.343 5.391.227 1.328.211-1.328.937-5.391h1.282L414.19 130h-1.141l-1.32-5.18-.219-1.312-.211 1.312-1.305 5.18zm13.59-4.539q0 1.117-.18 2.101a11 11 0 0 1-.468 1.821 9.4 9.4 0 0 1-.688 1.531 9 9 0 0 1-.805 1.234 6.4 6.4 0 0 1-.867.922q-.43.383-.82.602l-.305-.883q.328-.242.664-.625.336-.382.641-.883.29-.507.555-1.148.273-.633.445-1.391.18-.703.273-1.515.102-.821.102-1.75v-.11q0-1.055-.133-1.914a14 14 0 0 0-.281-1.461 9 9 0 0 0-.547-1.539 9 9 0 0 0-.656-1.195 5 5 0 0 0-.532-.696 5 5 0 0 0-.531-.515l.305-.883q.39.219.828.602.438.382.859.922.438.554.821 1.234t.672 1.531a13 13 0 0 1 .461 1.781q.187.954.187 2.149z"/></svg>