<svg width="428" height="134" viewBox="0 0 428 134" fill="none" xmlns="http://www.w3.org/2000/svg">
<rect width="132" height="100" rx="12" fill="#5EA5F9"/>
<path d="M48.8438 130V118.625H52.2266C52.6953 118.63 53.1536 118.693 53.6016 118.812C54.0495 118.927 54.4479 119.107 54.7969 119.352C55.1458 119.596 55.4245 119.909 55.6328 120.289C55.8411 120.669 55.9427 121.125 55.9375 121.656C55.9323 121.953 55.8828 122.224 55.7891 122.469C55.7005 122.714 55.5781 122.932 55.4219 123.125C55.2604 123.323 55.0807 123.49 54.8828 123.625C54.6901 123.76 54.4557 123.888 54.1797 124.008V124.031C54.4661 124.099 54.7422 124.221 55.0078 124.398C55.2734 124.576 55.4922 124.771 55.6641 124.984C55.8464 125.219 55.987 125.482 56.0859 125.773C56.1901 126.065 56.2422 126.38 56.2422 126.719C56.2474 127.25 56.1458 127.719 55.9375 128.125C55.7292 128.531 55.4505 128.87 55.1016 129.141C54.7526 129.417 54.349 129.628 53.8906 129.773C53.4375 129.919 52.9688 129.995 52.4844 130H48.8438ZM50.2969 124.68V128.773H52.5234C52.8255 128.768 53.112 128.719 53.3828 128.625C53.6536 128.526 53.8932 128.391 54.1016 128.219C54.3099 128.047 54.474 127.836 54.5938 127.586C54.7188 127.336 54.7812 127.052 54.7812 126.734C54.7865 126.411 54.7318 126.125 54.6172 125.875C54.5078 125.625 54.3542 125.411 54.1562 125.234C53.9583 125.062 53.7266 124.93 53.4609 124.836C53.1953 124.742 52.9089 124.69 52.6016 124.68H50.2969ZM50.2969 123.477H52.3125C52.5833 123.471 52.849 123.43 53.1094 123.352C53.3698 123.268 53.6016 123.148 53.8047 122.992C54.0078 122.841 54.1719 122.654 54.2969 122.43C54.4219 122.206 54.4844 121.945 54.4844 121.648C54.4844 121.331 54.4219 121.06 54.2969 120.836C54.1771 120.612 54.0156 120.427 53.8125 120.281C53.6042 120.141 53.3646 120.036 53.0938 119.969C52.8281 119.901 52.5547 119.865 52.2734 119.859H50.2969V123.477ZM58.2153 118H62.5356V128.75H65.2934V130H58.2153V128.75H61.0903V119.258H58.2153V118ZM72.6884 130L72.6025 128.836C72.3213 129.253 71.9697 129.578 71.5478 129.812C71.1259 130.042 70.639 130.156 70.0869 130.156C69.6442 130.156 69.2431 130.089 68.8838 129.953C68.5244 129.812 68.2171 129.596 67.9619 129.305C67.7067 129.013 67.5088 128.643 67.3681 128.195C67.2327 127.742 67.165 127.201 67.165 126.57V121.547H68.6103V126.586C68.6103 127.044 68.6468 127.424 68.7197 127.727C68.7926 128.029 68.902 128.268 69.0478 128.445C69.1936 128.628 69.3707 128.755 69.5791 128.828C69.7926 128.901 70.0374 128.938 70.3134 128.938C70.6364 128.938 70.9254 128.901 71.1806 128.828C71.4358 128.75 71.6572 128.643 71.8447 128.508C72.0009 128.398 72.1364 128.268 72.2509 128.117C72.3707 127.961 72.4697 127.792 72.5478 127.609V121.547H74.0009V130H72.6884ZM79.9819 130.156C79.3881 130.156 78.8412 130.055 78.3412 129.852C77.8465 129.648 77.422 129.365 77.0678 129C76.7136 128.635 76.4376 128.203 76.2397 127.703C76.0418 127.203 75.9428 126.659 75.9428 126.07V125.742C75.9428 125.06 76.0522 124.451 76.2709 123.914C76.4897 123.372 76.7814 122.914 77.1459 122.539C77.5053 122.169 77.9142 121.885 78.3725 121.688C78.836 121.49 79.31 121.391 79.7944 121.391C80.4037 121.391 80.935 121.497 81.3881 121.711C81.8465 121.919 82.2267 122.208 82.5287 122.578C82.8308 122.953 83.0548 123.393 83.2006 123.898C83.3517 124.404 83.4272 124.951 83.4272 125.539V126.188H77.3881V126.242C77.4246 126.654 77.5053 127.016 77.6303 127.328C77.7605 127.641 77.9376 127.917 78.1616 128.156C78.3907 128.411 78.6668 128.612 78.9897 128.758C79.3126 128.904 79.6694 128.977 80.06 128.977C80.5756 128.977 81.034 128.872 81.435 128.664C81.836 128.456 82.1694 128.18 82.435 127.836L83.3178 128.523C83.0366 128.951 82.6147 129.331 82.0522 129.664C81.4949 129.992 80.8048 130.156 79.9819 130.156ZM79.7944 122.578C79.5027 122.578 79.2267 122.633 78.9662 122.742C78.7058 122.846 78.4715 123 78.2631 123.203C78.0548 123.411 77.8777 123.667 77.7319 123.969C77.5912 124.266 77.4923 124.609 77.435 125H81.9819V124.93C81.9819 124.669 81.9324 124.391 81.8334 124.094C81.7345 123.792 81.5965 123.531 81.4194 123.312C81.2423 123.094 81.0183 122.917 80.7475 122.781C80.4819 122.646 80.1642 122.578 79.7944 122.578Z" fill="#6B6B6B"/>
<rect x="145" width="132" height="100" rx="12" fill="#EBF4FE"/>
<path d="M143.344 130V118.625H146.727C147.195 118.63 147.654 118.693 148.102 118.812C148.549 118.927 148.948 119.107 149.297 119.352C149.646 119.596 149.924 119.909 150.133 120.289C150.341 120.669 150.443 121.125 150.438 121.656C150.432 121.953 150.383 122.224 150.289 122.469C150.201 122.714 150.078 122.932 149.922 123.125C149.76 123.323 149.581 123.49 149.383 123.625C149.19 123.76 148.956 123.888 148.68 124.008V124.031C148.966 124.099 149.242 124.221 149.508 124.398C149.773 124.576 149.992 124.771 150.164 124.984C150.346 125.219 150.487 125.482 150.586 125.773C150.69 126.065 150.742 126.38 150.742 126.719C150.747 127.25 150.646 127.719 150.438 128.125C150.229 128.531 149.951 128.87 149.602 129.141C149.253 129.417 148.849 129.628 148.391 129.773C147.938 129.919 147.469 129.995 146.984 130H143.344ZM144.797 124.68V128.773H147.023C147.326 128.768 147.612 128.719 147.883 128.625C148.154 128.526 148.393 128.391 148.602 128.219C148.81 128.047 148.974 127.836 149.094 127.586C149.219 127.336 149.281 127.052 149.281 126.734C149.286 126.411 149.232 126.125 149.117 125.875C149.008 125.625 148.854 125.411 148.656 125.234C148.458 125.062 148.227 124.93 147.961 124.836C147.695 124.742 147.409 124.69 147.102 124.68H144.797ZM144.797 123.477H146.812C147.083 123.471 147.349 123.43 147.609 123.352C147.87 123.268 148.102 123.148 148.305 122.992C148.508 122.841 148.672 122.654 148.797 122.43C148.922 122.206 148.984 121.945 148.984 121.648C148.984 121.331 148.922 121.06 148.797 120.836C148.677 120.612 148.516 120.427 148.312 120.281C148.104 120.141 147.865 120.036 147.594 119.969C147.328 119.901 147.055 119.865 146.773 119.859H144.797V123.477ZM152.715 118H157.036V128.75H159.793V130H152.715V128.75H155.59V119.258H152.715V118ZM167.188 130L167.103 128.836C166.821 129.253 166.47 129.578 166.048 129.812C165.626 130.042 165.139 130.156 164.587 130.156C164.144 130.156 163.743 130.089 163.384 129.953C163.024 129.812 162.717 129.596 162.462 129.305C162.207 129.013 162.009 128.643 161.868 128.195C161.733 127.742 161.665 127.201 161.665 126.57V121.547H163.11V126.586C163.11 127.044 163.147 127.424 163.22 127.727C163.293 128.029 163.402 128.268 163.548 128.445C163.694 128.628 163.871 128.755 164.079 128.828C164.293 128.901 164.537 128.938 164.813 128.938C165.136 128.938 165.425 128.901 165.681 128.828C165.936 128.75 166.157 128.643 166.345 128.508C166.501 128.398 166.636 128.268 166.751 128.117C166.871 127.961 166.97 127.792 167.048 127.609V121.547H168.501V130H167.188ZM174.482 130.156C173.888 130.156 173.341 130.055 172.841 129.852C172.346 129.648 171.922 129.365 171.568 129C171.214 128.635 170.938 128.203 170.74 127.703C170.542 127.203 170.443 126.659 170.443 126.07V125.742C170.443 125.06 170.552 124.451 170.771 123.914C170.99 123.372 171.281 122.914 171.646 122.539C172.005 122.169 172.414 121.885 172.872 121.688C173.336 121.49 173.81 121.391 174.294 121.391C174.904 121.391 175.435 121.497 175.888 121.711C176.346 121.919 176.727 122.208 177.029 122.578C177.331 122.953 177.555 123.393 177.701 123.898C177.852 124.404 177.927 124.951 177.927 125.539V126.188H171.888V126.242C171.925 126.654 172.005 127.016 172.13 127.328C172.261 127.641 172.438 127.917 172.662 128.156C172.891 128.411 173.167 128.612 173.49 128.758C173.813 128.904 174.169 128.977 174.56 128.977C175.076 128.977 175.534 128.872 175.935 128.664C176.336 128.456 176.669 128.18 176.935 127.836L177.818 128.523C177.537 128.951 177.115 129.331 176.552 129.664C175.995 129.992 175.305 130.156 174.482 130.156ZM174.294 122.578C174.003 122.578 173.727 122.633 173.466 122.742C173.206 122.846 172.971 123 172.763 123.203C172.555 123.411 172.378 123.667 172.232 123.969C172.091 124.266 171.992 124.609 171.935 125H176.482V124.93C176.482 124.669 176.432 124.391 176.333 124.094C176.234 123.792 176.096 123.531 175.919 123.312C175.742 123.094 175.518 122.917 175.247 122.781C174.982 122.646 174.664 122.578 174.294 122.578ZM186.197 125.617H180.221V124.43H186.197V125.617ZM188.991 130V118.625H192.373C192.842 118.63 193.301 118.693 193.748 118.812C194.196 118.927 194.595 119.107 194.944 119.352C195.293 119.596 195.571 119.909 195.78 120.289C195.988 120.669 196.09 121.125 196.084 121.656C196.079 121.953 196.03 122.224 195.936 122.469C195.847 122.714 195.725 122.932 195.569 123.125C195.407 123.323 195.228 123.49 195.03 123.625C194.837 123.76 194.603 123.888 194.327 124.008V124.031C194.613 124.099 194.889 124.221 195.155 124.398C195.42 124.576 195.639 124.771 195.811 124.984C195.993 125.219 196.134 125.482 196.233 125.773C196.337 126.065 196.389 126.38 196.389 126.719C196.394 127.25 196.293 127.719 196.084 128.125C195.876 128.531 195.597 128.87 195.248 129.141C194.899 129.417 194.496 129.628 194.037 129.773C193.584 129.919 193.116 129.995 192.631 130H188.991ZM190.444 124.68V128.773H192.67C192.972 128.768 193.259 128.719 193.53 128.625C193.801 128.526 194.04 128.391 194.248 128.219C194.457 128.047 194.621 127.836 194.741 127.586C194.866 127.336 194.928 127.052 194.928 126.734C194.933 126.411 194.879 126.125 194.764 125.875C194.655 125.625 194.501 125.411 194.303 125.234C194.105 125.062 193.873 124.93 193.608 124.836C193.342 124.742 193.056 124.69 192.748 124.68H190.444ZM190.444 123.477H192.459C192.73 123.471 192.996 123.43 193.256 123.352C193.517 123.268 193.748 123.148 193.952 122.992C194.155 122.841 194.319 122.654 194.444 122.43C194.569 122.206 194.631 121.945 194.631 121.648C194.631 121.331 194.569 121.06 194.444 120.836C194.324 120.612 194.162 120.427 193.959 120.281C193.751 120.141 193.511 120.036 193.241 119.969C192.975 119.901 192.702 119.865 192.42 119.859H190.444V123.477ZM203.69 130C203.633 129.891 203.586 129.755 203.55 129.594C203.518 129.427 203.495 129.255 203.479 129.078C203.334 129.224 203.169 129.362 202.987 129.492C202.81 129.622 202.615 129.737 202.401 129.836C202.182 129.935 201.951 130.013 201.706 130.07C201.461 130.128 201.201 130.156 200.925 130.156C200.477 130.156 200.071 130.091 199.706 129.961C199.347 129.831 199.042 129.654 198.792 129.43C198.537 129.211 198.339 128.951 198.198 128.648C198.063 128.341 197.995 128.01 197.995 127.656C197.995 127.193 198.086 126.786 198.268 126.438C198.456 126.089 198.719 125.797 199.057 125.562C199.396 125.333 199.802 125.161 200.276 125.047C200.755 124.932 201.289 124.875 201.878 124.875H203.456V124.211C203.456 123.956 203.409 123.727 203.315 123.523C203.222 123.32 203.089 123.146 202.917 123C202.745 122.859 202.534 122.75 202.284 122.672C202.039 122.594 201.763 122.555 201.456 122.555C201.169 122.555 200.912 122.591 200.682 122.664C200.459 122.737 200.268 122.833 200.112 122.953C199.956 123.073 199.834 123.216 199.745 123.383C199.662 123.544 199.62 123.714 199.62 123.891H198.167C198.172 123.583 198.25 123.281 198.401 122.984C198.557 122.688 198.781 122.419 199.073 122.18C199.36 121.945 199.709 121.755 200.12 121.609C200.537 121.464 201.008 121.391 201.534 121.391C202.013 121.391 202.459 121.451 202.87 121.57C203.281 121.685 203.638 121.859 203.94 122.094C204.237 122.333 204.472 122.63 204.643 122.984C204.815 123.339 204.901 123.753 204.901 124.227V128.156C204.901 128.438 204.927 128.737 204.979 129.055C205.031 129.367 205.104 129.641 205.198 129.875V130H203.69ZM201.136 128.898C201.417 128.898 201.68 128.862 201.925 128.789C202.169 128.716 202.393 128.62 202.597 128.5C202.794 128.38 202.966 128.245 203.112 128.094C203.258 127.938 203.373 127.776 203.456 127.609V125.898H202.112C201.612 125.898 201.175 125.943 200.8 126.031C200.43 126.115 200.136 126.245 199.917 126.422C199.761 126.547 199.641 126.695 199.557 126.867C199.479 127.039 199.44 127.234 199.44 127.453C199.44 127.661 199.474 127.854 199.542 128.031C199.615 128.208 199.722 128.359 199.862 128.484C200.003 128.615 200.18 128.716 200.393 128.789C200.607 128.862 200.854 128.898 201.136 128.898ZM210.867 128.984C211.127 128.984 211.38 128.943 211.624 128.859C211.874 128.776 212.096 128.659 212.288 128.508C212.481 128.362 212.635 128.19 212.749 127.992C212.869 127.789 212.932 127.57 212.937 127.336H214.304C214.299 127.711 214.2 128.07 214.007 128.414C213.82 128.753 213.567 129.049 213.249 129.305C212.932 129.565 212.567 129.773 212.156 129.93C211.744 130.081 211.314 130.156 210.867 130.156C210.226 130.156 209.666 130.042 209.187 129.812C208.708 129.583 208.309 129.273 207.992 128.883C207.669 128.497 207.426 128.052 207.265 127.547C207.104 127.036 207.023 126.5 207.023 125.938V125.609C207.023 125.052 207.104 124.518 207.265 124.008C207.426 123.497 207.669 123.047 207.992 122.656C208.309 122.271 208.708 121.964 209.187 121.734C209.666 121.505 210.226 121.391 210.867 121.391C211.367 121.391 211.825 121.471 212.242 121.633C212.663 121.789 213.028 122.003 213.335 122.273C213.637 122.549 213.874 122.875 214.046 123.25C214.218 123.625 214.304 124.026 214.304 124.453H212.937C212.932 124.198 212.874 123.958 212.765 123.734C212.661 123.505 212.518 123.305 212.335 123.133C212.153 122.961 211.934 122.826 211.679 122.727C211.429 122.628 211.158 122.578 210.867 122.578C210.419 122.578 210.041 122.669 209.734 122.852C209.432 123.029 209.187 123.26 208.999 123.547C208.812 123.839 208.676 124.164 208.593 124.523C208.515 124.883 208.476 125.245 208.476 125.609V125.938C208.476 126.307 208.515 126.674 208.593 127.039C208.676 127.398 208.812 127.721 208.999 128.008C209.182 128.299 209.424 128.536 209.726 128.719C210.033 128.896 210.413 128.984 210.867 128.984ZM218.926 126.055L217.863 127.078V130H216.41V118H217.863V125.344L218.808 124.328L221.582 121.547H223.34L219.918 125.07L223.863 130H222.027L218.926 126.055ZM225.258 125.703C225.258 125.073 225.334 124.495 225.485 123.969C225.641 123.438 225.865 122.982 226.157 122.602C226.448 122.221 226.802 121.924 227.219 121.711C227.636 121.497 228.107 121.391 228.633 121.391C228.972 121.391 229.282 121.43 229.563 121.508C229.849 121.586 230.107 121.701 230.336 121.852C230.461 121.93 230.578 122.021 230.688 122.125C230.802 122.229 230.909 122.344 231.008 122.469L231.078 121.547H232.391V129.82C232.391 130.378 232.302 130.872 232.125 131.305C231.953 131.737 231.711 132.104 231.399 132.406C231.081 132.708 230.703 132.938 230.266 133.094C229.828 133.25 229.344 133.328 228.813 133.328C228.594 133.328 228.344 133.302 228.063 133.25C227.782 133.203 227.498 133.122 227.211 133.008C226.92 132.898 226.638 132.75 226.368 132.562C226.102 132.375 225.873 132.143 225.68 131.867L226.43 131C226.607 131.214 226.789 131.393 226.977 131.539C227.164 131.69 227.354 131.81 227.547 131.898C227.74 131.987 227.933 132.049 228.125 132.086C228.318 132.128 228.511 132.148 228.703 132.148C229.047 132.148 229.357 132.099 229.633 132C229.909 131.901 230.146 131.755 230.344 131.562C230.537 131.375 230.685 131.141 230.789 130.859C230.894 130.578 230.946 130.255 230.946 129.891V129.164C230.836 129.289 230.719 129.404 230.594 129.508C230.474 129.612 230.344 129.703 230.203 129.781C229.985 129.901 229.743 129.992 229.477 130.055C229.211 130.122 228.925 130.156 228.618 130.156C228.102 130.156 227.636 130.047 227.219 129.828C226.802 129.609 226.451 129.307 226.164 128.922C225.873 128.536 225.649 128.083 225.493 127.562C225.336 127.036 225.258 126.471 225.258 125.867V125.703ZM226.703 125.867C226.703 126.279 226.745 126.669 226.828 127.039C226.917 127.409 227.055 127.734 227.243 128.016C227.425 128.297 227.659 128.521 227.946 128.688C228.232 128.849 228.576 128.93 228.977 128.93C229.227 128.93 229.451 128.901 229.649 128.844C229.852 128.781 230.034 128.695 230.196 128.586C230.352 128.477 230.493 128.346 230.618 128.195C230.743 128.044 230.852 127.878 230.946 127.695V123.82C230.852 123.643 230.743 123.482 230.618 123.336C230.493 123.19 230.349 123.062 230.188 122.953C230.026 122.849 229.847 122.768 229.649 122.711C229.451 122.648 229.232 122.617 228.993 122.617C228.586 122.617 228.237 122.701 227.946 122.867C227.659 123.034 227.425 123.258 227.243 123.539C227.055 123.826 226.917 124.156 226.828 124.531C226.745 124.901 226.703 125.292 226.703 125.703V125.867ZM240.192 121.391C240.458 121.391 240.734 121.409 241.02 121.445C241.312 121.482 241.531 121.531 241.677 121.594L241.481 123.008C241.2 122.945 240.932 122.901 240.677 122.875C240.427 122.844 240.164 122.828 239.887 122.828C239.533 122.828 239.213 122.872 238.927 122.961C238.64 123.044 238.39 123.169 238.177 123.336C237.984 123.482 237.815 123.661 237.669 123.875C237.528 124.083 237.411 124.318 237.317 124.578V130H235.864V121.547H237.239L237.302 122.68L237.309 122.891C237.653 122.427 238.065 122.062 238.544 121.797C239.028 121.526 239.578 121.391 240.192 121.391ZM243.376 125.695C243.376 125.086 243.465 124.521 243.642 124C243.819 123.474 244.074 123.018 244.408 122.633C244.736 122.247 245.137 121.945 245.611 121.727C246.085 121.503 246.618 121.391 247.212 121.391C247.811 121.391 248.348 121.503 248.822 121.727C249.301 121.945 249.707 122.247 250.04 122.633C250.368 123.018 250.621 123.474 250.798 124C250.975 124.521 251.064 125.086 251.064 125.695V125.867C251.064 126.477 250.975 127.042 250.798 127.562C250.621 128.083 250.368 128.536 250.04 128.922C249.707 129.307 249.303 129.609 248.829 129.828C248.355 130.047 247.822 130.156 247.228 130.156C246.629 130.156 246.09 130.047 245.611 129.828C245.137 129.609 244.736 129.307 244.408 128.922C244.074 128.536 243.819 128.083 243.642 127.562C243.465 127.042 243.376 126.477 243.376 125.867V125.695ZM244.822 125.867C244.822 126.284 244.871 126.682 244.97 127.062C245.069 127.438 245.22 127.768 245.423 128.055C245.621 128.341 245.871 128.568 246.173 128.734C246.475 128.901 246.827 128.984 247.228 128.984C247.624 128.984 247.97 128.901 248.267 128.734C248.569 128.568 248.822 128.341 249.025 128.055C249.223 127.768 249.371 127.438 249.47 127.062C249.569 126.682 249.618 126.284 249.618 125.867V125.695C249.618 125.284 249.566 124.891 249.462 124.516C249.363 124.135 249.215 123.802 249.017 123.516C248.814 123.229 248.561 123.003 248.259 122.836C247.962 122.664 247.613 122.578 247.212 122.578C246.811 122.578 246.462 122.664 246.165 122.836C245.868 123.003 245.621 123.229 245.423 123.516C245.22 123.802 245.069 124.135 244.97 124.516C244.871 124.891 244.822 125.284 244.822 125.695V125.867ZM258.482 130L258.396 128.836C258.115 129.253 257.763 129.578 257.342 129.812C256.92 130.042 256.433 130.156 255.881 130.156C255.438 130.156 255.037 130.089 254.677 129.953C254.318 129.812 254.011 129.596 253.756 129.305C253.5 129.013 253.302 128.643 253.162 128.195C253.026 127.742 252.959 127.201 252.959 126.57V121.547H254.404V126.586C254.404 127.044 254.441 127.424 254.513 127.727C254.586 128.029 254.696 128.268 254.842 128.445C254.987 128.628 255.164 128.755 255.373 128.828C255.586 128.901 255.831 128.938 256.107 128.938C256.43 128.938 256.719 128.901 256.974 128.828C257.23 128.75 257.451 128.643 257.638 128.508C257.795 128.398 257.93 128.268 258.045 128.117C258.164 127.961 258.263 127.792 258.342 127.609V121.547H259.795V130H258.482ZM262.041 130V121.547H263.338L263.44 122.797C263.565 122.62 263.7 122.458 263.846 122.312C263.997 122.161 264.156 122.031 264.323 121.922C264.573 121.755 264.843 121.628 265.135 121.539C265.432 121.445 265.744 121.396 266.073 121.391C266.515 121.391 266.916 121.453 267.276 121.578C267.64 121.703 267.95 121.898 268.205 122.164C268.461 122.43 268.656 122.768 268.791 123.18C268.932 123.586 269.002 124.07 269.002 124.633V130H267.557V124.664C267.557 124.289 267.515 123.971 267.432 123.711C267.349 123.451 267.226 123.24 267.065 123.078C266.898 122.917 266.695 122.799 266.455 122.727C266.221 122.654 265.95 122.617 265.643 122.617C265.377 122.617 265.13 122.656 264.901 122.734C264.671 122.807 264.461 122.909 264.268 123.039C264.112 123.154 263.966 123.286 263.83 123.438C263.7 123.589 263.586 123.755 263.487 123.938V130H262.041ZM270.897 125.703C270.897 125.073 270.975 124.495 271.132 123.969C271.293 123.438 271.522 122.982 271.819 122.602C272.111 122.221 272.465 121.924 272.882 121.711C273.298 121.497 273.764 121.391 274.28 121.391C274.785 121.391 275.225 121.477 275.6 121.648C275.981 121.815 276.309 122.06 276.585 122.383V118H278.03V130H276.702L276.639 129.109C276.358 129.453 276.022 129.714 275.632 129.891C275.241 130.068 274.785 130.156 274.264 130.156C273.754 130.156 273.29 130.047 272.874 129.828C272.462 129.609 272.111 129.307 271.819 128.922C271.527 128.536 271.301 128.083 271.139 127.562C270.978 127.036 270.897 126.471 270.897 125.867V125.703ZM272.342 125.867C272.342 126.279 272.387 126.669 272.475 127.039C272.564 127.409 272.702 127.734 272.889 128.016C273.072 128.297 273.306 128.521 273.592 128.688C273.879 128.849 274.223 128.93 274.624 128.93C275.108 128.93 275.509 128.82 275.827 128.602C276.145 128.383 276.397 128.089 276.585 127.719V123.797C276.397 123.453 276.145 123.172 275.827 122.953C275.509 122.729 275.113 122.617 274.639 122.617C274.233 122.617 273.884 122.701 273.592 122.867C273.306 123.034 273.072 123.258 272.889 123.539C272.702 123.826 272.564 124.156 272.475 124.531C272.387 124.901 272.342 125.292 272.342 125.703V125.867Z" fill="#6B6B6B"/>
<rect x="293.5" y="0.5" width="131" height="99" rx="11.5" fill="#F7F7F7" stroke="#C2C2C2"/>
<path d="M292.945 118.625L294.797 124.312L296.797 118.625H298.594V130H297.188V125.461L297.305 120.711L295.203 126.836H294.375L292.445 120.875L292.562 125.461V130H291.156V118.625H292.945ZM300.083 125.695C300.083 125.086 300.171 124.521 300.348 124C300.525 123.474 300.78 123.018 301.114 122.633C301.442 122.247 301.843 121.945 302.317 121.727C302.791 121.503 303.325 121.391 303.918 121.391C304.517 121.391 305.054 121.503 305.528 121.727C306.007 121.945 306.413 122.247 306.747 122.633C307.075 123.018 307.327 123.474 307.504 124C307.681 124.521 307.77 125.086 307.77 125.695V125.867C307.77 126.477 307.681 127.042 307.504 127.562C307.327 128.083 307.075 128.536 306.747 128.922C306.413 129.307 306.01 129.609 305.536 129.828C305.062 130.047 304.528 130.156 303.934 130.156C303.335 130.156 302.796 130.047 302.317 129.828C301.843 129.609 301.442 129.307 301.114 128.922C300.78 128.536 300.525 128.083 300.348 127.562C300.171 127.042 300.083 126.477 300.083 125.867V125.695ZM301.528 125.867C301.528 126.284 301.577 126.682 301.676 127.062C301.775 127.438 301.926 127.768 302.129 128.055C302.327 128.341 302.577 128.568 302.879 128.734C303.181 128.901 303.533 128.984 303.934 128.984C304.33 128.984 304.676 128.901 304.973 128.734C305.275 128.568 305.528 128.341 305.731 128.055C305.929 127.768 306.077 127.438 306.176 127.062C306.275 126.682 306.325 126.284 306.325 125.867V125.695C306.325 125.284 306.273 124.891 306.168 124.516C306.069 124.135 305.921 123.802 305.723 123.516C305.52 123.229 305.267 123.003 304.965 122.836C304.668 122.664 304.319 122.578 303.918 122.578C303.517 122.578 303.168 122.664 302.872 122.836C302.575 123.003 302.327 123.229 302.129 123.516C301.926 123.802 301.775 124.135 301.676 124.516C301.577 124.891 301.528 125.284 301.528 125.695V125.867ZM309.618 130V121.547H310.915L311.017 122.797C311.142 122.62 311.277 122.458 311.423 122.312C311.574 122.161 311.733 122.031 311.899 121.922C312.149 121.755 312.42 121.628 312.712 121.539C313.009 121.445 313.321 121.396 313.649 121.391C314.092 121.391 314.493 121.453 314.853 121.578C315.217 121.703 315.527 121.898 315.782 122.164C316.037 122.43 316.233 122.768 316.368 123.18C316.509 123.586 316.579 124.07 316.579 124.633V130H315.134V124.664C315.134 124.289 315.092 123.971 315.009 123.711C314.925 123.451 314.803 123.24 314.642 123.078C314.475 122.917 314.272 122.799 314.032 122.727C313.798 122.654 313.527 122.617 313.22 122.617C312.954 122.617 312.707 122.656 312.478 122.734C312.248 122.807 312.037 122.909 311.845 123.039C311.688 123.154 311.543 123.286 311.407 123.438C311.277 123.589 311.162 123.755 311.063 123.938V130H309.618ZM318.341 125.695C318.341 125.086 318.43 124.521 318.607 124C318.784 123.474 319.039 123.018 319.372 122.633C319.701 122.247 320.102 121.945 320.576 121.727C321.05 121.503 321.583 121.391 322.177 121.391C322.776 121.391 323.313 121.503 323.787 121.727C324.266 121.945 324.672 122.247 325.005 122.633C325.333 123.018 325.586 123.474 325.763 124C325.94 124.521 326.029 125.086 326.029 125.695V125.867C326.029 126.477 325.94 127.042 325.763 127.562C325.586 128.083 325.333 128.536 325.005 128.922C324.672 129.307 324.268 129.609 323.794 129.828C323.32 130.047 322.787 130.156 322.193 130.156C321.594 130.156 321.055 130.047 320.576 129.828C320.102 129.609 319.701 129.307 319.372 128.922C319.039 128.536 318.784 128.083 318.607 127.562C318.43 127.042 318.341 126.477 318.341 125.867V125.695ZM319.787 125.867C319.787 126.284 319.836 126.682 319.935 127.062C320.034 127.438 320.185 127.768 320.388 128.055C320.586 128.341 320.836 128.568 321.138 128.734C321.44 128.901 321.792 128.984 322.193 128.984C322.589 128.984 322.935 128.901 323.232 128.734C323.534 128.568 323.787 128.341 323.99 128.055C324.188 127.768 324.336 127.438 324.435 127.062C324.534 126.682 324.583 126.284 324.583 125.867V125.695C324.583 125.284 324.531 124.891 324.427 124.516C324.328 124.135 324.18 123.802 323.982 123.516C323.779 123.229 323.526 123.003 323.224 122.836C322.927 122.664 322.578 122.578 322.177 122.578C321.776 122.578 321.427 122.664 321.13 122.836C320.833 123.003 320.586 123.229 320.388 123.516C320.185 123.802 320.034 124.135 319.935 124.516C319.836 124.891 319.787 125.284 319.787 125.695V125.867ZM334.197 125.617H328.221V124.43H334.197V125.617ZM336.991 130V118.625H340.373C340.842 118.63 341.301 118.693 341.748 118.812C342.196 118.927 342.595 119.107 342.944 119.352C343.293 119.596 343.571 119.909 343.78 120.289C343.988 120.669 344.09 121.125 344.084 121.656C344.079 121.953 344.03 122.224 343.936 122.469C343.847 122.714 343.725 122.932 343.569 123.125C343.407 123.323 343.228 123.49 343.03 123.625C342.837 123.76 342.603 123.888 342.327 124.008V124.031C342.613 124.099 342.889 124.221 343.155 124.398C343.42 124.576 343.639 124.771 343.811 124.984C343.993 125.219 344.134 125.482 344.233 125.773C344.337 126.065 344.389 126.38 344.389 126.719C344.394 127.25 344.293 127.719 344.084 128.125C343.876 128.531 343.597 128.87 343.248 129.141C342.899 129.417 342.496 129.628 342.037 129.773C341.584 129.919 341.116 129.995 340.631 130H336.991ZM338.444 124.68V128.773H340.67C340.972 128.768 341.259 128.719 341.53 128.625C341.801 128.526 342.04 128.391 342.248 128.219C342.457 128.047 342.621 127.836 342.741 127.586C342.866 127.336 342.928 127.052 342.928 126.734C342.933 126.411 342.879 126.125 342.764 125.875C342.655 125.625 342.501 125.411 342.303 125.234C342.105 125.062 341.873 124.93 341.608 124.836C341.342 124.742 341.056 124.69 340.748 124.68H338.444ZM338.444 123.477H340.459C340.73 123.471 340.996 123.43 341.256 123.352C341.517 123.268 341.748 123.148 341.952 122.992C342.155 122.841 342.319 122.654 342.444 122.43C342.569 122.206 342.631 121.945 342.631 121.648C342.631 121.331 342.569 121.06 342.444 120.836C342.324 120.612 342.162 120.427 341.959 120.281C341.751 120.141 341.511 120.036 341.241 119.969C340.975 119.901 340.702 119.865 340.42 119.859H338.444V123.477ZM351.69 130C351.633 129.891 351.586 129.755 351.55 129.594C351.518 129.427 351.495 129.255 351.479 129.078C351.334 129.224 351.169 129.362 350.987 129.492C350.81 129.622 350.615 129.737 350.401 129.836C350.182 129.935 349.951 130.013 349.706 130.07C349.461 130.128 349.201 130.156 348.925 130.156C348.477 130.156 348.071 130.091 347.706 129.961C347.347 129.831 347.042 129.654 346.792 129.43C346.537 129.211 346.339 128.951 346.198 128.648C346.063 128.341 345.995 128.01 345.995 127.656C345.995 127.193 346.086 126.786 346.268 126.438C346.456 126.089 346.719 125.797 347.057 125.562C347.396 125.333 347.802 125.161 348.276 125.047C348.755 124.932 349.289 124.875 349.878 124.875H351.456V124.211C351.456 123.956 351.409 123.727 351.315 123.523C351.222 123.32 351.089 123.146 350.917 123C350.745 122.859 350.534 122.75 350.284 122.672C350.039 122.594 349.763 122.555 349.456 122.555C349.169 122.555 348.912 122.591 348.682 122.664C348.459 122.737 348.268 122.833 348.112 122.953C347.956 123.073 347.834 123.216 347.745 123.383C347.662 123.544 347.62 123.714 347.62 123.891H346.167C346.172 123.583 346.25 123.281 346.401 122.984C346.557 122.688 346.781 122.419 347.073 122.18C347.36 121.945 347.709 121.755 348.12 121.609C348.537 121.464 349.008 121.391 349.534 121.391C350.013 121.391 350.459 121.451 350.87 121.57C351.281 121.685 351.638 121.859 351.94 122.094C352.237 122.333 352.472 122.63 352.643 122.984C352.815 123.339 352.901 123.753 352.901 124.227V128.156C352.901 128.438 352.927 128.737 352.979 129.055C353.031 129.367 353.104 129.641 353.198 129.875V130H351.69ZM349.136 128.898C349.417 128.898 349.68 128.862 349.925 128.789C350.169 128.716 350.393 128.62 350.597 128.5C350.794 128.38 350.966 128.245 351.112 128.094C351.258 127.938 351.373 127.776 351.456 127.609V125.898H350.112C349.612 125.898 349.175 125.943 348.8 126.031C348.43 126.115 348.136 126.245 347.917 126.422C347.761 126.547 347.641 126.695 347.557 126.867C347.479 127.039 347.44 127.234 347.44 127.453C347.44 127.661 347.474 127.854 347.542 128.031C347.615 128.208 347.722 128.359 347.862 128.484C348.003 128.615 348.18 128.716 348.393 128.789C348.607 128.862 348.854 128.898 349.136 128.898ZM358.867 128.984C359.127 128.984 359.38 128.943 359.624 128.859C359.874 128.776 360.096 128.659 360.288 128.508C360.481 128.362 360.635 128.19 360.749 127.992C360.869 127.789 360.932 127.57 360.937 127.336H362.304C362.299 127.711 362.2 128.07 362.007 128.414C361.82 128.753 361.567 129.049 361.249 129.305C360.932 129.565 360.567 129.773 360.156 129.93C359.744 130.081 359.314 130.156 358.867 130.156C358.226 130.156 357.666 130.042 357.187 129.812C356.708 129.583 356.309 129.273 355.992 128.883C355.669 128.497 355.426 128.052 355.265 127.547C355.104 127.036 355.023 126.5 355.023 125.938V125.609C355.023 125.052 355.104 124.518 355.265 124.008C355.426 123.497 355.669 123.047 355.992 122.656C356.309 122.271 356.708 121.964 357.187 121.734C357.666 121.505 358.226 121.391 358.867 121.391C359.367 121.391 359.825 121.471 360.242 121.633C360.663 121.789 361.028 122.003 361.335 122.273C361.637 122.549 361.874 122.875 362.046 123.25C362.218 123.625 362.304 124.026 362.304 124.453H360.937C360.932 124.198 360.874 123.958 360.765 123.734C360.661 123.505 360.518 123.305 360.335 123.133C360.153 122.961 359.934 122.826 359.679 122.727C359.429 122.628 359.158 122.578 358.867 122.578C358.419 122.578 358.041 122.669 357.734 122.852C357.432 123.029 357.187 123.26 356.999 123.547C356.812 123.839 356.676 124.164 356.593 124.523C356.515 124.883 356.476 125.245 356.476 125.609V125.938C356.476 126.307 356.515 126.674 356.593 127.039C356.676 127.398 356.812 127.721 356.999 128.008C357.182 128.299 357.424 128.536 357.726 128.719C358.033 128.896 358.413 128.984 358.867 128.984ZM366.926 126.055L365.863 127.078V130H364.41V118H365.863V125.344L366.808 124.328L369.582 121.547H371.34L367.918 125.07L371.863 130H370.027L366.926 126.055ZM373.258 125.703C373.258 125.073 373.334 124.495 373.485 123.969C373.641 123.438 373.865 122.982 374.157 122.602C374.448 122.221 374.802 121.924 375.219 121.711C375.636 121.497 376.107 121.391 376.633 121.391C376.972 121.391 377.282 121.43 377.563 121.508C377.849 121.586 378.107 121.701 378.336 121.852C378.461 121.93 378.578 122.021 378.688 122.125C378.802 122.229 378.909 122.344 379.008 122.469L379.078 121.547H380.391V129.82C380.391 130.378 380.302 130.872 380.125 131.305C379.953 131.737 379.711 132.104 379.399 132.406C379.081 132.708 378.703 132.938 378.266 133.094C377.828 133.25 377.344 133.328 376.813 133.328C376.594 133.328 376.344 133.302 376.063 133.25C375.782 133.203 375.498 133.122 375.211 133.008C374.92 132.898 374.638 132.75 374.368 132.562C374.102 132.375 373.873 132.143 373.68 131.867L374.43 131C374.607 131.214 374.789 131.393 374.977 131.539C375.164 131.69 375.354 131.81 375.547 131.898C375.74 131.987 375.933 132.049 376.125 132.086C376.318 132.128 376.511 132.148 376.703 132.148C377.047 132.148 377.357 132.099 377.633 132C377.909 131.901 378.146 131.755 378.344 131.562C378.537 131.375 378.685 131.141 378.789 130.859C378.894 130.578 378.946 130.255 378.946 129.891V129.164C378.836 129.289 378.719 129.404 378.594 129.508C378.474 129.612 378.344 129.703 378.203 129.781C377.985 129.901 377.743 129.992 377.477 130.055C377.211 130.122 376.925 130.156 376.618 130.156C376.102 130.156 375.636 130.047 375.219 129.828C374.802 129.609 374.451 129.307 374.164 128.922C373.873 128.536 373.649 128.083 373.493 127.562C373.336 127.036 373.258 126.471 373.258 125.867V125.703ZM374.703 125.867C374.703 126.279 374.745 126.669 374.828 127.039C374.917 127.409 375.055 127.734 375.243 128.016C375.425 128.297 375.659 128.521 375.946 128.688C376.232 128.849 376.576 128.93 376.977 128.93C377.227 128.93 377.451 128.901 377.649 128.844C377.852 128.781 378.034 128.695 378.196 128.586C378.352 128.477 378.493 128.346 378.618 128.195C378.743 128.044 378.852 127.878 378.946 127.695V123.82C378.852 123.643 378.743 123.482 378.618 123.336C378.493 123.19 378.349 123.062 378.188 122.953C378.026 122.849 377.847 122.768 377.649 122.711C377.451 122.648 377.232 122.617 376.993 122.617C376.586 122.617 376.237 122.701 375.946 122.867C375.659 123.034 375.425 123.258 375.243 123.539C375.055 123.826 374.917 124.156 374.828 124.531C374.745 124.901 374.703 125.292 374.703 125.703V125.867ZM388.192 121.391C388.458 121.391 388.734 121.409 389.02 121.445C389.312 121.482 389.531 121.531 389.677 121.594L389.481 123.008C389.2 122.945 388.932 122.901 388.677 122.875C388.427 122.844 388.164 122.828 387.887 122.828C387.533 122.828 387.213 122.872 386.927 122.961C386.64 123.044 386.39 123.169 386.177 123.336C385.984 123.482 385.815 123.661 385.669 123.875C385.528 124.083 385.411 124.318 385.317 124.578V130H383.864V121.547H385.239L385.302 122.68L385.309 122.891C385.653 122.427 386.065 122.062 386.544 121.797C387.028 121.526 387.578 121.391 388.192 121.391ZM391.376 125.695C391.376 125.086 391.465 124.521 391.642 124C391.819 123.474 392.074 123.018 392.408 122.633C392.736 122.247 393.137 121.945 393.611 121.727C394.085 121.503 394.618 121.391 395.212 121.391C395.811 121.391 396.348 121.503 396.822 121.727C397.301 121.945 397.707 122.247 398.04 122.633C398.368 123.018 398.621 123.474 398.798 124C398.975 124.521 399.064 125.086 399.064 125.695V125.867C399.064 126.477 398.975 127.042 398.798 127.562C398.621 128.083 398.368 128.536 398.04 128.922C397.707 129.307 397.303 129.609 396.829 129.828C396.355 130.047 395.822 130.156 395.228 130.156C394.629 130.156 394.09 130.047 393.611 129.828C393.137 129.609 392.736 129.307 392.408 128.922C392.074 128.536 391.819 128.083 391.642 127.562C391.465 127.042 391.376 126.477 391.376 125.867V125.695ZM392.822 125.867C392.822 126.284 392.871 126.682 392.97 127.062C393.069 127.438 393.22 127.768 393.423 128.055C393.621 128.341 393.871 128.568 394.173 128.734C394.475 128.901 394.827 128.984 395.228 128.984C395.624 128.984 395.97 128.901 396.267 128.734C396.569 128.568 396.822 128.341 397.025 128.055C397.223 127.768 397.371 127.438 397.47 127.062C397.569 126.682 397.618 126.284 397.618 125.867V125.695C397.618 125.284 397.566 124.891 397.462 124.516C397.363 124.135 397.215 123.802 397.017 123.516C396.814 123.229 396.561 123.003 396.259 122.836C395.962 122.664 395.613 122.578 395.212 122.578C394.811 122.578 394.462 122.664 394.165 122.836C393.868 123.003 393.621 123.229 393.423 123.516C393.22 123.802 393.069 124.135 392.97 124.516C392.871 124.891 392.822 125.284 392.822 125.695V125.867ZM406.482 130L406.396 128.836C406.115 129.253 405.763 129.578 405.342 129.812C404.92 130.042 404.433 130.156 403.881 130.156C403.438 130.156 403.037 130.089 402.677 129.953C402.318 129.812 402.011 129.596 401.756 129.305C401.5 129.013 401.302 128.643 401.162 128.195C401.026 127.742 400.959 127.201 400.959 126.57V121.547H402.404V126.586C402.404 127.044 402.441 127.424 402.513 127.727C402.586 128.029 402.696 128.268 402.842 128.445C402.987 128.628 403.164 128.755 403.373 128.828C403.586 128.901 403.831 128.938 404.107 128.938C404.43 128.938 404.719 128.901 404.974 128.828C405.23 128.75 405.451 128.643 405.638 128.508C405.795 128.398 405.93 128.268 406.045 128.117C406.164 127.961 406.263 127.792 406.342 127.609V121.547H407.795V130H406.482ZM410.041 130V121.547H411.338L411.44 122.797C411.565 122.62 411.7 122.458 411.846 122.312C411.997 122.161 412.156 122.031 412.323 121.922C412.573 121.755 412.843 121.628 413.135 121.539C413.432 121.445 413.744 121.396 414.073 121.391C414.515 121.391 414.916 121.453 415.276 121.578C415.64 121.703 415.95 121.898 416.205 122.164C416.461 122.43 416.656 122.768 416.791 123.18C416.932 123.586 417.002 124.07 417.002 124.633V130H415.557V124.664C415.557 124.289 415.515 123.971 415.432 123.711C415.349 123.451 415.226 123.24 415.065 123.078C414.898 122.917 414.695 122.799 414.455 122.727C414.221 122.654 413.95 122.617 413.643 122.617C413.377 122.617 413.13 122.656 412.901 122.734C412.671 122.807 412.461 122.909 412.268 123.039C412.112 123.154 411.966 123.286 411.83 123.438C411.7 123.589 411.586 123.755 411.487 123.938V130H410.041ZM418.897 125.703C418.897 125.073 418.975 124.495 419.132 123.969C419.293 123.438 419.522 122.982 419.819 122.602C420.111 122.221 420.465 121.924 420.882 121.711C421.298 121.497 421.764 121.391 422.28 121.391C422.785 121.391 423.225 121.477 423.6 121.648C423.981 121.815 424.309 122.06 424.585 122.383V118H426.03V130H424.702L424.639 129.109C424.358 129.453 424.022 129.714 423.632 129.891C423.241 130.068 422.785 130.156 422.264 130.156C421.754 130.156 421.29 130.047 420.874 129.828C420.462 129.609 420.111 129.307 419.819 128.922C419.527 128.536 419.301 128.083 419.139 127.562C418.978 127.036 418.897 126.471 418.897 125.867V125.703ZM420.342 125.867C420.342 126.279 420.387 126.669 420.475 127.039C420.564 127.409 420.702 127.734 420.889 128.016C421.072 128.297 421.306 128.521 421.592 128.688C421.879 128.849 422.223 128.93 422.624 128.93C423.108 128.93 423.509 128.82 423.827 128.602C424.145 128.383 424.397 128.089 424.585 127.719V123.797C424.397 123.453 424.145 123.172 423.827 122.953C423.509 122.729 423.113 122.617 422.639 122.617C422.233 122.617 421.884 122.701 421.592 122.867C421.306 123.034 421.072 123.258 420.889 123.539C420.702 123.826 420.564 124.156 420.475 124.531C420.387 124.901 420.342 125.292 420.342 125.703V125.867Z" fill="#6B6B6B"/>
</svg>
