<svg width="558" height="134" viewBox="0 0 558 134" fill="none" xmlns="http://www.w3.org/2000/svg">
<rect width="132" height="100" rx="12" fill="#C2C2C2"/>
<path d="M48.7109 130V118.625H51.3438C51.7865 118.63 52.2031 118.677 52.5938 118.766C52.9896 118.849 53.3542 118.969 53.6875 119.125C54.151 119.339 54.5599 119.62 54.9141 119.969C55.2734 120.312 55.5599 120.711 55.7734 121.164C55.9661 121.549 56.112 121.971 56.2109 122.43C56.3151 122.888 56.3698 123.378 56.375 123.898V124.734C56.375 125.234 56.3255 125.708 56.2266 126.156C56.1328 126.604 55.9948 127.016 55.8125 127.391C55.625 127.781 55.388 128.135 55.1016 128.453C54.8151 128.771 54.4948 129.042 54.1406 129.266C53.7656 129.5 53.3411 129.68 52.8672 129.805C52.3984 129.93 51.8906 129.995 51.3438 130H48.7109ZM50.1797 119.812V128.82H51.3438C51.7604 128.815 52.138 128.763 52.4766 128.664C52.8203 128.565 53.125 128.424 53.3906 128.242C53.6719 128.055 53.9141 127.826 54.1172 127.555C54.3255 127.279 54.4896 126.971 54.6094 126.633C54.7135 126.357 54.7917 126.06 54.8438 125.742C54.8958 125.419 54.9245 125.083 54.9297 124.734V123.883C54.9245 123.529 54.8932 123.19 54.8359 122.867C54.7839 122.539 54.7031 122.234 54.5938 121.953C54.4531 121.589 54.263 121.26 54.0234 120.969C53.7891 120.672 53.5 120.432 53.1562 120.25C52.9115 120.115 52.638 120.01 52.3359 119.938C52.0339 119.859 51.7031 119.818 51.3438 119.812H50.1797ZM63.5434 130C63.4861 129.891 63.4393 129.755 63.4028 129.594C63.3716 129.427 63.3481 129.255 63.3325 129.078C63.1867 129.224 63.0226 129.362 62.8403 129.492C62.6632 129.622 62.4679 129.737 62.2544 129.836C62.0356 129.935 61.8039 130.013 61.5591 130.07C61.3143 130.128 61.0539 130.156 60.7778 130.156C60.3299 130.156 59.9236 130.091 59.5591 129.961C59.1997 129.831 58.895 129.654 58.645 129.43C58.3898 129.211 58.1919 128.951 58.0513 128.648C57.9158 128.341 57.8481 128.01 57.8481 127.656C57.8481 127.193 57.9393 126.786 58.1216 126.438C58.3091 126.089 58.5721 125.797 58.9106 125.562C59.2492 125.333 59.6554 125.161 60.1294 125.047C60.6085 124.932 61.1424 124.875 61.7309 124.875H63.3091V124.211C63.3091 123.956 63.2622 123.727 63.1684 123.523C63.0747 123.32 62.9419 123.146 62.77 123C62.5981 122.859 62.3872 122.75 62.1372 122.672C61.8924 122.594 61.6164 122.555 61.3091 122.555C61.0226 122.555 60.7648 122.591 60.5356 122.664C60.3117 122.737 60.1216 122.833 59.9653 122.953C59.8091 123.073 59.6867 123.216 59.5981 123.383C59.5148 123.544 59.4731 123.714 59.4731 123.891H58.02C58.0252 123.583 58.1033 123.281 58.2544 122.984C58.4106 122.688 58.6346 122.419 58.9263 122.18C59.2127 121.945 59.5617 121.755 59.9731 121.609C60.3898 121.464 60.8611 121.391 61.3872 121.391C61.8664 121.391 62.3117 121.451 62.7231 121.57C63.1346 121.685 63.4914 121.859 63.7934 122.094C64.0903 122.333 64.3247 122.63 64.4966 122.984C64.6684 123.339 64.7544 123.753 64.7544 124.227V128.156C64.7544 128.438 64.7804 128.737 64.8325 129.055C64.8846 129.367 64.9575 129.641 65.0513 129.875V130H63.5434ZM60.9888 128.898C61.27 128.898 61.533 128.862 61.7778 128.789C62.0226 128.716 62.2466 128.62 62.4497 128.5C62.6476 128.38 62.8195 128.245 62.9653 128.094C63.1111 127.938 63.2257 127.776 63.3091 127.609V125.898H61.9653C61.4653 125.898 61.0278 125.943 60.6528 126.031C60.283 126.115 59.9888 126.245 59.77 126.422C59.6138 126.547 59.494 126.695 59.4106 126.867C59.3325 127.039 59.2934 127.234 59.2934 127.453C59.2934 127.661 59.3273 127.854 59.395 128.031C59.4679 128.208 59.5747 128.359 59.7153 128.484C59.8559 128.615 60.033 128.716 60.2466 128.789C60.4601 128.862 60.7075 128.898 60.9888 128.898ZM72.6572 121.391C72.9228 121.391 73.1989 121.409 73.4853 121.445C73.777 121.482 73.9957 121.531 74.1416 121.594L73.9463 123.008C73.665 122.945 73.3968 122.901 73.1416 122.875C72.8916 122.844 72.6285 122.828 72.3525 122.828C71.9983 122.828 71.678 122.872 71.3916 122.961C71.1051 123.044 70.8551 123.169 70.6416 123.336C70.4489 123.482 70.2796 123.661 70.1338 123.875C69.9931 124.083 69.8759 124.318 69.7822 124.578V130H68.3291V121.547H69.7041L69.7666 122.68L69.7744 122.891C70.1181 122.427 70.5296 122.062 71.0088 121.797C71.4931 121.526 72.0426 121.391 72.6572 121.391ZM78.7787 126.055L77.7162 127.078V130H76.2631V118H77.7162V125.344L78.6616 124.328L81.435 121.547H83.1928L79.7709 125.07L83.7162 130H81.8803L78.7787 126.055Z" fill="#6B6B6B"/>
<rect x="142" width="132" height="100" rx="12" fill="#E1E1E1"/>
<path d="M187.492 128.773H193.055V130H186.047V118.625H187.492V128.773ZM195.215 121.547H199.536V128.75H202.293V130H195.215V128.75H198.09V122.805H195.215V121.547ZM197.903 119.328C197.903 119.203 197.921 119.086 197.958 118.977C197.999 118.867 198.062 118.773 198.145 118.695C198.213 118.628 198.299 118.576 198.403 118.539C198.512 118.497 198.635 118.477 198.77 118.477C198.905 118.477 199.025 118.497 199.129 118.539C199.234 118.576 199.319 118.628 199.387 118.695C199.471 118.768 199.533 118.859 199.575 118.969C199.616 119.078 199.637 119.198 199.637 119.328C199.637 119.562 199.564 119.758 199.418 119.914C199.273 120.07 199.056 120.148 198.77 120.148C198.478 120.148 198.26 120.07 198.114 119.914C197.973 119.758 197.903 119.562 197.903 119.328ZM203.853 125.703C203.853 125.073 203.928 124.495 204.079 123.969C204.235 123.438 204.459 122.982 204.751 122.602C205.043 122.221 205.397 121.924 205.813 121.711C206.23 121.497 206.701 121.391 207.228 121.391C207.566 121.391 207.876 121.43 208.157 121.508C208.444 121.586 208.701 121.701 208.931 121.852C209.056 121.93 209.173 122.021 209.282 122.125C209.397 122.229 209.504 122.344 209.603 122.469L209.673 121.547H210.985V129.82C210.985 130.378 210.897 130.872 210.72 131.305C210.548 131.737 210.306 132.104 209.993 132.406C209.675 132.708 209.298 132.938 208.86 133.094C208.423 133.25 207.938 133.328 207.407 133.328C207.188 133.328 206.938 133.302 206.657 133.25C206.376 133.203 206.092 133.122 205.806 133.008C205.514 132.898 205.233 132.75 204.962 132.562C204.696 132.375 204.467 132.143 204.274 131.867L205.024 131C205.201 131.214 205.384 131.393 205.571 131.539C205.759 131.69 205.949 131.81 206.142 131.898C206.334 131.987 206.527 132.049 206.72 132.086C206.912 132.128 207.105 132.148 207.298 132.148C207.642 132.148 207.951 132.099 208.228 132C208.504 131.901 208.741 131.755 208.938 131.562C209.131 131.375 209.28 131.141 209.384 130.859C209.488 130.578 209.54 130.255 209.54 129.891V129.164C209.431 129.289 209.313 129.404 209.188 129.508C209.069 129.612 208.938 129.703 208.798 129.781C208.579 129.901 208.337 129.992 208.071 130.055C207.806 130.122 207.519 130.156 207.212 130.156C206.696 130.156 206.23 130.047 205.813 129.828C205.397 129.609 205.045 129.307 204.759 128.922C204.467 128.536 204.243 128.083 204.087 127.562C203.931 127.036 203.853 126.471 203.853 125.867V125.703ZM205.298 125.867C205.298 126.279 205.339 126.669 205.423 127.039C205.511 127.409 205.649 127.734 205.837 128.016C206.019 128.297 206.254 128.521 206.54 128.688C206.826 128.849 207.17 128.93 207.571 128.93C207.821 128.93 208.045 128.901 208.243 128.844C208.446 128.781 208.629 128.695 208.79 128.586C208.946 128.477 209.087 128.346 209.212 128.195C209.337 128.044 209.446 127.878 209.54 127.695V123.82C209.446 123.643 209.337 123.482 209.212 123.336C209.087 123.19 208.944 123.062 208.782 122.953C208.621 122.849 208.441 122.768 208.243 122.711C208.045 122.648 207.826 122.617 207.587 122.617C207.181 122.617 206.832 122.701 206.54 122.867C206.254 123.034 206.019 123.258 205.837 123.539C205.649 123.826 205.511 124.156 205.423 124.531C205.339 124.901 205.298 125.292 205.298 125.703V125.867ZM214.693 122.805C214.807 122.633 214.935 122.477 215.076 122.336C215.216 122.19 215.365 122.062 215.521 121.953C215.771 121.771 216.044 121.633 216.341 121.539C216.643 121.445 216.964 121.396 217.302 121.391C217.745 121.391 218.146 121.456 218.505 121.586C218.87 121.711 219.18 121.909 219.435 122.18C219.69 122.451 219.886 122.794 220.021 123.211C220.162 123.622 220.232 124.112 220.232 124.68V130H218.787V124.664C218.787 124.331 218.747 124.039 218.669 123.789C218.591 123.534 218.477 123.323 218.326 123.156C218.164 122.974 217.961 122.839 217.716 122.75C217.471 122.656 217.19 122.612 216.872 122.617C216.612 122.617 216.365 122.654 216.13 122.727C215.896 122.799 215.68 122.904 215.482 123.039C215.326 123.143 215.18 123.266 215.044 123.406C214.914 123.542 214.797 123.693 214.693 123.859V130H213.247V118H214.693V122.805ZM225.799 119.5V121.547H229.018V122.664H225.799V127.258C225.799 127.586 225.84 127.857 225.924 128.07C226.007 128.284 226.122 128.453 226.268 128.578C226.413 128.708 226.58 128.799 226.768 128.852C226.96 128.904 227.163 128.93 227.377 128.93C227.533 128.93 227.695 128.922 227.861 128.906C228.028 128.885 228.192 128.862 228.353 128.836C228.51 128.81 228.656 128.784 228.791 128.758C228.932 128.727 229.046 128.701 229.135 128.68L229.338 129.703C229.218 129.776 229.072 129.841 228.9 129.898C228.728 129.951 228.541 129.995 228.338 130.031C228.135 130.073 227.919 130.104 227.689 130.125C227.465 130.146 227.241 130.156 227.018 130.156C226.643 130.156 226.291 130.104 225.963 130C225.64 129.891 225.359 129.719 225.119 129.484C224.879 129.255 224.689 128.958 224.549 128.594C224.413 128.224 224.346 127.779 224.346 127.258V122.664H222.127V121.547H224.346V119.5H225.799Z" fill="#6B6B6B"/>
<rect x="284" width="132" height="100" rx="12" fill="#AFD2FC"/>
<path d="M317.531 119.859H314.016V130H312.609V119.859H309.094V118.625H317.531V119.859ZM322.723 130.156C322.129 130.156 321.583 130.055 321.083 129.852C320.588 129.648 320.163 129.365 319.809 129C319.455 128.635 319.179 128.203 318.981 127.703C318.783 127.203 318.684 126.659 318.684 126.07V125.742C318.684 125.06 318.793 124.451 319.012 123.914C319.231 123.372 319.523 122.914 319.887 122.539C320.247 122.169 320.655 121.885 321.114 121.688C321.577 121.49 322.051 121.391 322.536 121.391C323.145 121.391 323.676 121.497 324.129 121.711C324.588 121.919 324.968 122.208 325.27 122.578C325.572 122.953 325.796 123.393 325.942 123.898C326.093 124.404 326.168 124.951 326.168 125.539V126.188H320.129V126.242C320.166 126.654 320.247 127.016 320.372 127.328C320.502 127.641 320.679 127.917 320.903 128.156C321.132 128.411 321.408 128.612 321.731 128.758C322.054 128.904 322.411 128.977 322.801 128.977C323.317 128.977 323.775 128.872 324.176 128.664C324.577 128.456 324.911 128.18 325.176 127.836L326.059 128.523C325.778 128.951 325.356 129.331 324.793 129.664C324.236 129.992 323.546 130.156 322.723 130.156ZM322.536 122.578C322.244 122.578 321.968 122.633 321.708 122.742C321.447 122.846 321.213 123 321.004 123.203C320.796 123.411 320.619 123.667 320.473 123.969C320.333 124.266 320.234 124.609 320.176 125H324.723V124.93C324.723 124.669 324.674 124.391 324.575 124.094C324.476 123.792 324.338 123.531 324.161 123.312C323.984 123.094 323.76 122.917 323.489 122.781C323.223 122.646 322.905 122.578 322.536 122.578ZM331.61 124.68L333.868 121.547H335.563L332.415 125.727L335.649 130H333.978L331.642 126.781L329.306 130H327.618L330.853 125.727L327.704 121.547H329.376L331.61 124.68ZM340.669 119.5V121.547H343.888V122.664H340.669V127.258C340.669 127.586 340.711 127.857 340.794 128.07C340.878 128.284 340.992 128.453 341.138 128.578C341.284 128.708 341.451 128.799 341.638 128.852C341.831 128.904 342.034 128.93 342.247 128.93C342.404 128.93 342.565 128.922 342.732 128.906C342.899 128.885 343.063 128.862 343.224 128.836C343.38 128.81 343.526 128.784 343.662 128.758C343.802 128.727 343.917 128.701 344.005 128.68L344.208 129.703C344.089 129.776 343.943 129.841 343.771 129.898C343.599 129.951 343.412 129.995 343.208 130.031C343.005 130.073 342.789 130.104 342.56 130.125C342.336 130.146 342.112 130.156 341.888 130.156C341.513 130.156 341.162 130.104 340.833 130C340.511 129.891 340.229 129.719 339.99 129.484C339.75 129.255 339.56 128.958 339.419 128.594C339.284 128.224 339.216 127.779 339.216 127.258V122.664H336.997V121.547H339.216V119.5H340.669ZM352.697 125.617H346.721V124.43H352.697V125.617ZM355.491 130V118.625H358.873C359.342 118.63 359.801 118.693 360.248 118.812C360.696 118.927 361.095 119.107 361.444 119.352C361.793 119.596 362.071 119.909 362.28 120.289C362.488 120.669 362.59 121.125 362.584 121.656C362.579 121.953 362.53 122.224 362.436 122.469C362.347 122.714 362.225 122.932 362.069 123.125C361.907 123.323 361.728 123.49 361.53 123.625C361.337 123.76 361.103 123.888 360.827 124.008V124.031C361.113 124.099 361.389 124.221 361.655 124.398C361.92 124.576 362.139 124.771 362.311 124.984C362.493 125.219 362.634 125.482 362.733 125.773C362.837 126.065 362.889 126.38 362.889 126.719C362.894 127.25 362.793 127.719 362.584 128.125C362.376 128.531 362.097 128.87 361.748 129.141C361.399 129.417 360.996 129.628 360.537 129.773C360.084 129.919 359.616 129.995 359.131 130H355.491ZM356.944 124.68V128.773H359.17C359.472 128.768 359.759 128.719 360.03 128.625C360.301 128.526 360.54 128.391 360.748 128.219C360.957 128.047 361.121 127.836 361.241 127.586C361.366 127.336 361.428 127.052 361.428 126.734C361.433 126.411 361.379 126.125 361.264 125.875C361.155 125.625 361.001 125.411 360.803 125.234C360.605 125.062 360.373 124.93 360.108 124.836C359.842 124.742 359.556 124.69 359.248 124.68H356.944ZM356.944 123.477H358.959C359.23 123.471 359.496 123.43 359.756 123.352C360.017 123.268 360.248 123.148 360.452 122.992C360.655 122.841 360.819 122.654 360.944 122.43C361.069 122.206 361.131 121.945 361.131 121.648C361.131 121.331 361.069 121.06 360.944 120.836C360.824 120.612 360.662 120.427 360.459 120.281C360.251 120.141 360.011 120.036 359.741 119.969C359.475 119.901 359.202 119.865 358.92 119.859H356.944V123.477ZM364.862 118H369.182V128.75H371.94V130H364.862V128.75H367.737V119.258H364.862V118ZM379.335 130L379.249 128.836C378.968 129.253 378.617 129.578 378.195 129.812C377.773 130.042 377.286 130.156 376.734 130.156C376.291 130.156 375.89 130.089 375.531 129.953C375.171 129.812 374.864 129.596 374.609 129.305C374.354 129.013 374.156 128.643 374.015 128.195C373.88 127.742 373.812 127.201 373.812 126.57V121.547H375.257V126.586C375.257 127.044 375.294 127.424 375.367 127.727C375.439 128.029 375.549 128.268 375.695 128.445C375.841 128.628 376.018 128.755 376.226 128.828C376.439 128.901 376.684 128.938 376.96 128.938C377.283 128.938 377.572 128.901 377.827 128.828C378.083 128.75 378.304 128.643 378.492 128.508C378.648 128.398 378.783 128.268 378.898 128.117C379.018 127.961 379.117 127.792 379.195 127.609V121.547H380.648V130H379.335ZM386.629 130.156C386.035 130.156 385.488 130.055 384.988 129.852C384.493 129.648 384.069 129.365 383.715 129C383.361 128.635 383.084 128.203 382.887 127.703C382.689 127.203 382.59 126.659 382.59 126.07V125.742C382.59 125.06 382.699 124.451 382.918 123.914C383.137 123.372 383.428 122.914 383.793 122.539C384.152 122.169 384.561 121.885 385.019 121.688C385.483 121.49 385.957 121.391 386.441 121.391C387.051 121.391 387.582 121.497 388.035 121.711C388.493 121.919 388.874 122.208 389.176 122.578C389.478 122.953 389.702 123.393 389.848 123.898C389.999 124.404 390.074 124.951 390.074 125.539V126.188H384.035V126.242C384.071 126.654 384.152 127.016 384.277 127.328C384.407 127.641 384.584 127.917 384.808 128.156C385.038 128.411 385.314 128.612 385.637 128.758C385.959 128.904 386.316 128.977 386.707 128.977C387.223 128.977 387.681 128.872 388.082 128.664C388.483 128.456 388.816 128.18 389.082 127.836L389.965 128.523C389.683 128.951 389.262 129.331 388.699 129.664C388.142 129.992 387.452 130.156 386.629 130.156ZM386.441 122.578C386.15 122.578 385.874 122.633 385.613 122.742C385.353 122.846 385.118 123 384.91 123.203C384.702 123.411 384.525 123.667 384.379 123.969C384.238 124.266 384.139 124.609 384.082 125H388.629V124.93C388.629 124.669 388.579 124.391 388.48 124.094C388.381 123.792 388.243 123.531 388.066 123.312C387.889 123.094 387.665 122.917 387.394 122.781C387.129 122.646 386.811 122.578 386.441 122.578Z" fill="#6B6B6B"/>
<rect x="426" width="132" height="100" rx="12" fill="#D7E9FD"/>
<path d="M474.844 130V118.625H478.227C478.695 118.63 479.154 118.693 479.602 118.812C480.049 118.927 480.448 119.107 480.797 119.352C481.146 119.596 481.424 119.909 481.633 120.289C481.841 120.669 481.943 121.125 481.938 121.656C481.932 121.953 481.883 122.224 481.789 122.469C481.701 122.714 481.578 122.932 481.422 123.125C481.26 123.323 481.081 123.49 480.883 123.625C480.69 123.76 480.456 123.888 480.18 124.008V124.031C480.466 124.099 480.742 124.221 481.008 124.398C481.273 124.576 481.492 124.771 481.664 124.984C481.846 125.219 481.987 125.482 482.086 125.773C482.19 126.065 482.242 126.38 482.242 126.719C482.247 127.25 482.146 127.719 481.938 128.125C481.729 128.531 481.451 128.87 481.102 129.141C480.753 129.417 480.349 129.628 479.891 129.773C479.438 129.919 478.969 129.995 478.484 130H474.844ZM476.297 124.68V128.773H478.523C478.826 128.768 479.112 128.719 479.383 128.625C479.654 128.526 479.893 128.391 480.102 128.219C480.31 128.047 480.474 127.836 480.594 127.586C480.719 127.336 480.781 127.052 480.781 126.734C480.786 126.411 480.732 126.125 480.617 125.875C480.508 125.625 480.354 125.411 480.156 125.234C479.958 125.062 479.727 124.93 479.461 124.836C479.195 124.742 478.909 124.69 478.602 124.68H476.297ZM476.297 123.477H478.312C478.583 123.471 478.849 123.43 479.109 123.352C479.37 123.268 479.602 123.148 479.805 122.992C480.008 122.841 480.172 122.654 480.297 122.43C480.422 122.206 480.484 121.945 480.484 121.648C480.484 121.331 480.422 121.06 480.297 120.836C480.177 120.612 480.016 120.427 479.812 120.281C479.604 120.141 479.365 120.036 479.094 119.969C478.828 119.901 478.555 119.865 478.273 119.859H476.297V123.477ZM484.215 118H488.536V128.75H491.293V130H484.215V128.75H487.09V119.258H484.215V118ZM498.688 130L498.603 128.836C498.321 129.253 497.97 129.578 497.548 129.812C497.126 130.042 496.639 130.156 496.087 130.156C495.644 130.156 495.243 130.089 494.884 129.953C494.524 129.812 494.217 129.596 493.962 129.305C493.707 129.013 493.509 128.643 493.368 128.195C493.233 127.742 493.165 127.201 493.165 126.57V121.547H494.61V126.586C494.61 127.044 494.647 127.424 494.72 127.727C494.793 128.029 494.902 128.268 495.048 128.445C495.194 128.628 495.371 128.755 495.579 128.828C495.793 128.901 496.037 128.938 496.313 128.938C496.636 128.938 496.925 128.901 497.181 128.828C497.436 128.75 497.657 128.643 497.845 128.508C498.001 128.398 498.136 128.268 498.251 128.117C498.371 127.961 498.47 127.792 498.548 127.609V121.547H500.001V130H498.688ZM505.982 130.156C505.388 130.156 504.841 130.055 504.341 129.852C503.846 129.648 503.422 129.365 503.068 129C502.714 128.635 502.438 128.203 502.24 127.703C502.042 127.203 501.943 126.659 501.943 126.07V125.742C501.943 125.06 502.052 124.451 502.271 123.914C502.49 123.372 502.781 122.914 503.146 122.539C503.505 122.169 503.914 121.885 504.372 121.688C504.836 121.49 505.31 121.391 505.794 121.391C506.404 121.391 506.935 121.497 507.388 121.711C507.846 121.919 508.227 122.208 508.529 122.578C508.831 122.953 509.055 123.393 509.201 123.898C509.352 124.404 509.427 124.951 509.427 125.539V126.188H503.388V126.242C503.425 126.654 503.505 127.016 503.63 127.328C503.761 127.641 503.938 127.917 504.162 128.156C504.391 128.411 504.667 128.612 504.99 128.758C505.313 128.904 505.669 128.977 506.06 128.977C506.576 128.977 507.034 128.872 507.435 128.664C507.836 128.456 508.169 128.18 508.435 127.836L509.318 128.523C509.037 128.951 508.615 129.331 508.052 129.664C507.495 129.992 506.805 130.156 505.982 130.156ZM505.794 122.578C505.503 122.578 505.227 122.633 504.966 122.742C504.706 122.846 504.471 123 504.263 123.203C504.055 123.411 503.878 123.667 503.732 123.969C503.591 124.266 503.492 124.609 503.435 125H507.982V124.93C507.982 124.669 507.932 124.391 507.833 124.094C507.734 123.792 507.596 123.531 507.419 123.312C507.242 123.094 507.018 122.917 506.747 122.781C506.482 122.646 506.164 122.578 505.794 122.578Z" fill="#6B6B6B"/>
</svg>
