<svg width="416" height="132" viewBox="0 0 416 132" fill="none" xmlns="http://www.w3.org/2000/svg">
<rect x="0.4" y="0.4" width="131.2" height="99.2" rx="11.6" fill="white" stroke="#C2C2C2" stroke-width="0.8"/>
<path d="M46.4844 130H45.0156L40.6016 121.5L40.5781 130H39.1172V118.625H40.5859L45 127.109L45.0234 118.625H46.4844V130ZM48.0825 125.695C48.0825 125.086 48.171 124.521 48.3481 124C48.5252 123.474 48.7804 123.018 49.1138 122.633C49.4419 122.247 49.8429 121.945 50.3169 121.727C50.7908 121.503 51.3247 121.391 51.9184 121.391C52.5174 121.391 53.0539 121.503 53.5278 121.727C54.007 121.945 54.4132 122.247 54.7466 122.633C55.0747 123.018 55.3273 123.474 55.5044 124C55.6815 124.521 55.77 125.086 55.77 125.695V125.867C55.77 126.477 55.6815 127.042 55.5044 127.562C55.3273 128.083 55.0747 128.536 54.7466 128.922C54.4132 129.307 54.0096 129.609 53.5356 129.828C53.0617 130.047 52.5278 130.156 51.9341 130.156C51.3351 130.156 50.796 130.047 50.3169 129.828C49.8429 129.609 49.4419 129.307 49.1138 128.922C48.7804 128.536 48.5252 128.083 48.3481 127.562C48.171 127.042 48.0825 126.477 48.0825 125.867V125.695ZM49.5278 125.867C49.5278 126.284 49.5773 126.682 49.6763 127.062C49.7752 127.438 49.9263 127.768 50.1294 128.055C50.3273 128.341 50.5773 128.568 50.8794 128.734C51.1815 128.901 51.533 128.984 51.9341 128.984C52.3299 128.984 52.6763 128.901 52.9731 128.734C53.2752 128.568 53.5278 128.341 53.7309 128.055C53.9289 127.768 54.0773 127.438 54.1763 127.062C54.2752 126.682 54.3247 126.284 54.3247 125.867V125.695C54.3247 125.284 54.2726 124.891 54.1684 124.516C54.0695 124.135 53.921 123.802 53.7231 123.516C53.52 123.229 53.2674 123.003 52.9653 122.836C52.6684 122.664 52.3195 122.578 51.9184 122.578C51.5174 122.578 51.1684 122.664 50.8716 122.836C50.5747 123.003 50.3273 123.229 50.1294 123.516C49.9263 123.802 49.7752 124.135 49.6763 124.516C49.5773 124.891 49.5278 125.284 49.5278 125.695V125.867ZM63.1572 121.391C63.4228 121.391 63.6989 121.409 63.9853 121.445C64.277 121.482 64.4957 121.531 64.6416 121.594L64.4463 123.008C64.165 122.945 63.8968 122.901 63.6416 122.875C63.3916 122.844 63.1285 122.828 62.8525 122.828C62.4983 122.828 62.178 122.872 61.8916 122.961C61.6051 123.044 61.3551 123.169 61.1416 123.336C60.9489 123.482 60.7796 123.661 60.6338 123.875C60.4931 124.083 60.3759 124.318 60.2822 124.578V130H58.8291V121.547H60.2041L60.2666 122.68L60.2744 122.891C60.6181 122.427 61.0296 122.062 61.5088 121.797C61.9931 121.526 62.5426 121.391 63.1572 121.391ZM67.4116 121.547L67.4506 122.344C67.6225 122.047 67.8465 121.815 68.1225 121.648C68.4037 121.482 68.7423 121.396 69.1381 121.391C69.3621 121.391 69.5626 121.417 69.7397 121.469C69.922 121.516 70.0808 121.586 70.2162 121.68C70.3152 121.753 70.4037 121.841 70.4819 121.945C70.5652 122.049 70.6355 122.167 70.6928 122.297C70.7657 122.177 70.8517 122.065 70.9506 121.961C71.0496 121.857 71.1564 121.766 71.2709 121.688C71.4168 121.599 71.5782 121.529 71.7553 121.477C71.9376 121.424 72.1355 121.396 72.3491 121.391C72.6407 121.391 72.9037 121.435 73.1381 121.523C73.3725 121.607 73.5704 121.732 73.7319 121.898C73.909 122.086 74.0444 122.331 74.1381 122.633C74.2319 122.93 74.2787 123.281 74.2787 123.688V130H72.9037V123.672C72.9037 123.495 72.8829 123.339 72.8412 123.203C72.7996 123.068 72.7397 122.956 72.6616 122.867C72.5782 122.784 72.4741 122.721 72.3491 122.68C72.2293 122.638 72.0886 122.617 71.9272 122.617C71.7553 122.617 71.6069 122.641 71.4819 122.688C71.3569 122.734 71.2527 122.797 71.1694 122.875C71.086 122.958 71.0209 123.055 70.9741 123.164C70.9272 123.268 70.8959 123.385 70.8803 123.516C70.8803 123.542 70.8803 123.568 70.8803 123.594C70.8803 123.615 70.8803 123.641 70.8803 123.672V130H69.5053V123.664C69.5053 123.487 69.4845 123.331 69.4428 123.195C69.4064 123.06 69.3465 122.948 69.2631 122.859C69.185 122.776 69.086 122.716 68.9662 122.68C68.8517 122.638 68.7162 122.617 68.56 122.617C68.3881 122.617 68.2371 122.638 68.1069 122.68C67.9819 122.716 67.8751 122.771 67.7866 122.844C67.7189 122.901 67.659 122.966 67.6069 123.039C67.56 123.112 67.5209 123.19 67.4897 123.273V130H66.1147V121.547H67.4116ZM81.4316 130C81.3743 129.891 81.3274 129.755 81.2909 129.594C81.2597 129.427 81.2363 129.255 81.2206 129.078C81.0748 129.224 80.9107 129.362 80.7284 129.492C80.5514 129.622 80.356 129.737 80.1425 129.836C79.9238 129.935 79.692 130.013 79.4472 130.07C79.2024 130.128 78.942 130.156 78.6659 130.156C78.218 130.156 77.8118 130.091 77.4472 129.961C77.0878 129.831 76.7831 129.654 76.5331 129.43C76.2779 129.211 76.08 128.951 75.9394 128.648C75.804 128.341 75.7363 128.01 75.7363 127.656C75.7363 127.193 75.8274 126.786 76.0097 126.438C76.1972 126.089 76.4602 125.797 76.7988 125.562C77.1373 125.333 77.5435 125.161 78.0175 125.047C78.4967 124.932 79.0305 124.875 79.6191 124.875H81.1972V124.211C81.1972 123.956 81.1503 123.727 81.0566 123.523C80.9628 123.32 80.83 123.146 80.6581 123C80.4863 122.859 80.2753 122.75 80.0253 122.672C79.7805 122.594 79.5045 122.555 79.1972 122.555C78.9107 122.555 78.6529 122.591 78.4238 122.664C78.1998 122.737 78.0097 122.833 77.8534 122.953C77.6972 123.073 77.5748 123.216 77.4863 123.383C77.4029 123.544 77.3613 123.714 77.3613 123.891H75.9081C75.9133 123.583 75.9915 123.281 76.1425 122.984C76.2988 122.688 76.5227 122.419 76.8144 122.18C77.1008 121.945 77.4498 121.755 77.8613 121.609C78.2779 121.464 78.7493 121.391 79.2753 121.391C79.7545 121.391 80.1998 121.451 80.6113 121.57C81.0227 121.685 81.3795 121.859 81.6816 122.094C81.9784 122.333 82.2128 122.63 82.3847 122.984C82.5566 123.339 82.6425 123.753 82.6425 124.227V128.156C82.6425 128.438 82.6685 128.737 82.7206 129.055C82.7727 129.367 82.8456 129.641 82.9394 129.875V130H81.4316ZM78.8769 128.898C79.1581 128.898 79.4211 128.862 79.6659 128.789C79.9107 128.716 80.1347 128.62 80.3378 128.5C80.5357 128.38 80.7076 128.245 80.8534 128.094C80.9993 127.938 81.1139 127.776 81.1972 127.609V125.898H79.8534C79.3534 125.898 78.9159 125.943 78.5409 126.031C78.1711 126.115 77.8769 126.245 77.6581 126.422C77.5019 126.547 77.3821 126.695 77.2988 126.867C77.2206 127.039 77.1816 127.234 77.1816 127.453C77.1816 127.661 77.2154 127.854 77.2831 128.031C77.356 128.208 77.4628 128.359 77.6034 128.484C77.7441 128.615 77.9211 128.716 78.1347 128.789C78.3482 128.862 78.5956 128.898 78.8769 128.898ZM85.2328 118H89.5531V128.75H92.3109V130H85.2328V128.75H88.1078V119.258H85.2328V118Z" fill="#6B6B6B"/>
<rect x="142.5" y="0.5" width="131" height="99" rx="11.5" fill="#F7F7F7" stroke="#C2C2C2"/>
<path d="M164.289 127.055H160.492L159.578 130H158.133L161.805 118.625H163.016L166.625 130H165.188L164.289 127.055ZM160.883 125.797H163.906L162.406 120.859L160.883 125.797ZM168.215 118H172.536V128.75H175.293V130H168.215V128.75H171.09V119.258H168.215V118ZM180.54 119.5V121.547H183.759V122.664H180.54V127.258C180.54 127.586 180.582 127.857 180.665 128.07C180.748 128.284 180.863 128.453 181.009 128.578C181.155 128.708 181.321 128.799 181.509 128.852C181.701 128.904 181.905 128.93 182.118 128.93C182.274 128.93 182.436 128.922 182.603 128.906C182.769 128.885 182.933 128.862 183.095 128.836C183.251 128.81 183.397 128.784 183.532 128.758C183.673 128.727 183.787 128.701 183.876 128.68L184.079 129.703C183.959 129.776 183.813 129.841 183.642 129.898C183.47 129.951 183.282 129.995 183.079 130.031C182.876 130.073 182.66 130.104 182.431 130.125C182.207 130.146 181.983 130.156 181.759 130.156C181.384 130.156 181.032 130.104 180.704 130C180.381 129.891 180.1 129.719 179.86 129.484C179.621 129.255 179.431 128.958 179.29 128.594C179.155 128.224 179.087 127.779 179.087 127.258V122.664H176.868V121.547H179.087V119.5H180.54ZM189.982 130.156C189.388 130.156 188.841 130.055 188.341 129.852C187.846 129.648 187.422 129.365 187.068 129C186.714 128.635 186.438 128.203 186.24 127.703C186.042 127.203 185.943 126.659 185.943 126.07V125.742C185.943 125.06 186.052 124.451 186.271 123.914C186.49 123.372 186.781 122.914 187.146 122.539C187.505 122.169 187.914 121.885 188.372 121.688C188.836 121.49 189.31 121.391 189.794 121.391C190.404 121.391 190.935 121.497 191.388 121.711C191.846 121.919 192.227 122.208 192.529 122.578C192.831 122.953 193.055 123.393 193.201 123.898C193.352 124.404 193.427 124.951 193.427 125.539V126.188H187.388V126.242C187.425 126.654 187.505 127.016 187.63 127.328C187.761 127.641 187.938 127.917 188.162 128.156C188.391 128.411 188.667 128.612 188.99 128.758C189.313 128.904 189.669 128.977 190.06 128.977C190.576 128.977 191.034 128.872 191.435 128.664C191.836 128.456 192.169 128.18 192.435 127.836L193.318 128.523C193.037 128.951 192.615 129.331 192.052 129.664C191.495 129.992 190.805 130.156 189.982 130.156ZM189.794 122.578C189.503 122.578 189.227 122.633 188.966 122.742C188.706 122.846 188.471 123 188.263 123.203C188.055 123.411 187.878 123.667 187.732 123.969C187.591 124.266 187.492 124.609 187.435 125H191.982V124.93C191.982 124.669 191.932 124.391 191.833 124.094C191.734 123.792 191.596 123.531 191.419 123.312C191.242 123.094 191.018 122.917 190.747 122.781C190.482 122.646 190.164 122.578 189.794 122.578ZM200.916 121.391C201.182 121.391 201.458 121.409 201.744 121.445C202.036 121.482 202.254 121.531 202.4 121.594L202.205 123.008C201.924 122.945 201.656 122.901 201.4 122.875C201.15 122.844 200.887 122.828 200.611 122.828C200.257 122.828 199.937 122.872 199.65 122.961C199.364 123.044 199.114 123.169 198.9 123.336C198.708 123.482 198.538 123.661 198.393 123.875C198.252 124.083 198.135 124.318 198.041 124.578V130H196.588V121.547H197.963L198.025 122.68L198.033 122.891C198.377 122.427 198.788 122.062 199.268 121.797C199.752 121.526 200.301 121.391 200.916 121.391ZM204.506 130V121.547H205.803L205.905 122.797C206.03 122.62 206.165 122.458 206.311 122.312C206.462 122.161 206.621 122.031 206.787 121.922C207.037 121.755 207.308 121.628 207.6 121.539C207.897 121.445 208.209 121.396 208.537 121.391C208.98 121.391 209.381 121.453 209.741 121.578C210.105 121.703 210.415 121.898 210.67 122.164C210.926 122.43 211.121 122.768 211.256 123.18C211.397 123.586 211.467 124.07 211.467 124.633V130H210.022V124.664C210.022 124.289 209.98 123.971 209.897 123.711C209.814 123.451 209.691 123.24 209.53 123.078C209.363 122.917 209.16 122.799 208.92 122.727C208.686 122.654 208.415 122.617 208.108 122.617C207.842 122.617 207.595 122.656 207.366 122.734C207.136 122.807 206.926 122.909 206.733 123.039C206.577 123.154 206.431 123.286 206.295 123.438C206.165 123.589 206.051 123.755 205.952 123.938V130H204.506ZM219.19 130C219.133 129.891 219.086 129.755 219.05 129.594C219.018 129.427 218.995 129.255 218.979 129.078C218.834 129.224 218.669 129.362 218.487 129.492C218.31 129.622 218.115 129.737 217.901 129.836C217.682 129.935 217.451 130.013 217.206 130.07C216.961 130.128 216.701 130.156 216.425 130.156C215.977 130.156 215.571 130.091 215.206 129.961C214.847 129.831 214.542 129.654 214.292 129.43C214.037 129.211 213.839 128.951 213.698 128.648C213.563 128.341 213.495 128.01 213.495 127.656C213.495 127.193 213.586 126.786 213.768 126.438C213.956 126.089 214.219 125.797 214.557 125.562C214.896 125.333 215.302 125.161 215.776 125.047C216.255 124.932 216.789 124.875 217.378 124.875H218.956V124.211C218.956 123.956 218.909 123.727 218.815 123.523C218.722 123.32 218.589 123.146 218.417 123C218.245 122.859 218.034 122.75 217.784 122.672C217.539 122.594 217.263 122.555 216.956 122.555C216.669 122.555 216.412 122.591 216.182 122.664C215.959 122.737 215.768 122.833 215.612 122.953C215.456 123.073 215.334 123.216 215.245 123.383C215.162 123.544 215.12 123.714 215.12 123.891H213.667C213.672 123.583 213.75 123.281 213.901 122.984C214.057 122.688 214.281 122.419 214.573 122.18C214.86 121.945 215.209 121.755 215.62 121.609C216.037 121.464 216.508 121.391 217.034 121.391C217.513 121.391 217.959 121.451 218.37 121.57C218.781 121.685 219.138 121.859 219.44 122.094C219.737 122.333 219.972 122.63 220.143 122.984C220.315 123.339 220.401 123.753 220.401 124.227V128.156C220.401 128.438 220.427 128.737 220.479 129.055C220.531 129.367 220.604 129.641 220.698 129.875V130H219.19ZM216.636 128.898C216.917 128.898 217.18 128.862 217.425 128.789C217.669 128.716 217.893 128.62 218.097 128.5C218.294 128.38 218.466 128.245 218.612 128.094C218.758 127.938 218.873 127.776 218.956 127.609V125.898H217.612C217.112 125.898 216.675 125.943 216.3 126.031C215.93 126.115 215.636 126.245 215.417 126.422C215.261 126.547 215.141 126.695 215.057 126.867C214.979 127.039 214.94 127.234 214.94 127.453C214.94 127.661 214.974 127.854 215.042 128.031C215.115 128.208 215.222 128.359 215.362 128.484C215.503 128.615 215.68 128.716 215.893 128.789C216.107 128.862 216.354 128.898 216.636 128.898ZM226.187 119.5V121.547H229.406V122.664H226.187V127.258C226.187 127.586 226.229 127.857 226.312 128.07C226.395 128.284 226.51 128.453 226.656 128.578C226.801 128.708 226.968 128.799 227.156 128.852C227.348 128.904 227.551 128.93 227.765 128.93C227.921 128.93 228.083 128.922 228.249 128.906C228.416 128.885 228.58 128.862 228.742 128.836C228.898 128.81 229.044 128.784 229.179 128.758C229.32 128.727 229.434 128.701 229.523 128.68L229.726 129.703C229.606 129.776 229.46 129.841 229.288 129.898C229.117 129.951 228.929 129.995 228.726 130.031C228.523 130.073 228.307 130.104 228.077 130.125C227.854 130.146 227.63 130.156 227.406 130.156C227.031 130.156 226.679 130.104 226.351 130C226.028 129.891 225.747 129.719 225.507 129.484C225.268 129.255 225.077 128.958 224.937 128.594C224.801 128.224 224.734 127.779 224.734 127.258V122.664H222.515V121.547H224.734V119.5H226.187ZM232.121 121.547H236.441V128.75H239.199V130H232.121V128.75H234.996V122.805H232.121V121.547ZM234.808 119.328C234.808 119.203 234.827 119.086 234.863 118.977C234.905 118.867 234.967 118.773 235.051 118.695C235.118 118.628 235.204 118.576 235.308 118.539C235.418 118.497 235.54 118.477 235.676 118.477C235.811 118.477 235.931 118.497 236.035 118.539C236.139 118.576 236.225 118.628 236.293 118.695C236.376 118.768 236.439 118.859 236.48 118.969C236.522 119.078 236.543 119.198 236.543 119.328C236.543 119.562 236.47 119.758 236.324 119.914C236.178 120.07 235.962 120.148 235.676 120.148C235.384 120.148 235.165 120.07 235.019 119.914C234.879 119.758 234.808 119.562 234.808 119.328ZM243.907 130L240.43 121.547H241.914L244.336 127.922L244.469 128.445L244.61 127.922L246.977 121.547H248.453L245.008 130H243.907ZM253.887 130.156C253.294 130.156 252.747 130.055 252.247 129.852C251.752 129.648 251.328 129.365 250.973 129C250.619 128.635 250.343 128.203 250.145 127.703C249.947 127.203 249.848 126.659 249.848 126.07V125.742C249.848 125.06 249.958 124.451 250.177 123.914C250.395 123.372 250.687 122.914 251.052 122.539C251.411 122.169 251.82 121.885 252.278 121.688C252.742 121.49 253.216 121.391 253.7 121.391C254.309 121.391 254.841 121.497 255.294 121.711C255.752 121.919 256.132 122.208 256.434 122.578C256.736 122.953 256.96 123.393 257.106 123.898C257.257 124.404 257.333 124.951 257.333 125.539V126.188H251.294V126.242C251.33 126.654 251.411 127.016 251.536 127.328C251.666 127.641 251.843 127.917 252.067 128.156C252.296 128.411 252.572 128.612 252.895 128.758C253.218 128.904 253.575 128.977 253.966 128.977C254.481 128.977 254.94 128.872 255.341 128.664C255.742 128.456 256.075 128.18 256.341 127.836L257.223 128.523C256.942 128.951 256.52 129.331 255.958 129.664C255.401 129.992 254.71 130.156 253.887 130.156ZM253.7 122.578C253.408 122.578 253.132 122.633 252.872 122.742C252.611 122.846 252.377 123 252.169 123.203C251.96 123.411 251.783 123.667 251.637 123.969C251.497 124.266 251.398 124.609 251.341 125H255.887V124.93C255.887 124.669 255.838 124.391 255.739 124.094C255.64 123.792 255.502 123.531 255.325 123.312C255.148 123.094 254.924 122.917 254.653 122.781C254.387 122.646 254.07 122.578 253.7 122.578Z" fill="#6B6B6B"/>
<rect x="284" width="132" height="100" rx="12" fill="black" fill-opacity="0.6"/>
<path d="M323.211 130V118.625H325.844C326.286 118.63 326.703 118.677 327.094 118.766C327.49 118.849 327.854 118.969 328.188 119.125C328.651 119.339 329.06 119.62 329.414 119.969C329.773 120.312 330.06 120.711 330.273 121.164C330.466 121.549 330.612 121.971 330.711 122.43C330.815 122.888 330.87 123.378 330.875 123.898V124.734C330.875 125.234 330.826 125.708 330.727 126.156C330.633 126.604 330.495 127.016 330.312 127.391C330.125 127.781 329.888 128.135 329.602 128.453C329.315 128.771 328.995 129.042 328.641 129.266C328.266 129.5 327.841 129.68 327.367 129.805C326.898 129.93 326.391 129.995 325.844 130H323.211ZM324.68 119.812V128.82H325.844C326.26 128.815 326.638 128.763 326.977 128.664C327.32 128.565 327.625 128.424 327.891 128.242C328.172 128.055 328.414 127.826 328.617 127.555C328.826 127.279 328.99 126.971 329.109 126.633C329.214 126.357 329.292 126.06 329.344 125.742C329.396 125.419 329.424 125.083 329.43 124.734V123.883C329.424 123.529 329.393 123.19 329.336 122.867C329.284 122.539 329.203 122.234 329.094 121.953C328.953 121.589 328.763 121.26 328.523 120.969C328.289 120.672 328 120.432 327.656 120.25C327.411 120.115 327.138 120.01 326.836 119.938C326.534 119.859 326.203 119.818 325.844 119.812H324.68ZM332.715 121.547H337.036V128.75H339.793V130H332.715V128.75H335.59V122.805H332.715V121.547ZM335.403 119.328C335.403 119.203 335.421 119.086 335.458 118.977C335.499 118.867 335.562 118.773 335.645 118.695C335.713 118.628 335.799 118.576 335.903 118.539C336.012 118.497 336.135 118.477 336.27 118.477C336.405 118.477 336.525 118.497 336.629 118.539C336.734 118.576 336.819 118.628 336.887 118.695C336.971 118.768 337.033 118.859 337.075 118.969C337.116 119.078 337.137 119.198 337.137 119.328C337.137 119.562 337.064 119.758 336.918 119.914C336.773 120.07 336.556 120.148 336.27 120.148C335.978 120.148 335.76 120.07 335.614 119.914C335.473 119.758 335.403 119.562 335.403 119.328ZM342.282 121.547L342.321 122.344C342.493 122.047 342.717 121.815 342.993 121.648C343.274 121.482 343.613 121.396 344.009 121.391C344.233 121.391 344.433 121.417 344.61 121.469C344.793 121.516 344.951 121.586 345.087 121.68C345.186 121.753 345.274 121.841 345.353 121.945C345.436 122.049 345.506 122.167 345.563 122.297C345.636 122.177 345.722 122.065 345.821 121.961C345.92 121.857 346.027 121.766 346.142 121.688C346.287 121.599 346.449 121.529 346.626 121.477C346.808 121.424 347.006 121.396 347.22 121.391C347.511 121.391 347.774 121.435 348.009 121.523C348.243 121.607 348.441 121.732 348.603 121.898C348.78 122.086 348.915 122.331 349.009 122.633C349.103 122.93 349.149 123.281 349.149 123.688V130H347.774V123.672C347.774 123.495 347.754 123.339 347.712 123.203C347.67 123.068 347.61 122.956 347.532 122.867C347.449 122.784 347.345 122.721 347.22 122.68C347.1 122.638 346.959 122.617 346.798 122.617C346.626 122.617 346.478 122.641 346.353 122.688C346.228 122.734 346.123 122.797 346.04 122.875C345.957 122.958 345.892 123.055 345.845 123.164C345.798 123.268 345.767 123.385 345.751 123.516C345.751 123.542 345.751 123.568 345.751 123.594C345.751 123.615 345.751 123.641 345.751 123.672V130H344.376V123.664C344.376 123.487 344.355 123.331 344.313 123.195C344.277 123.06 344.217 122.948 344.134 122.859C344.056 122.776 343.957 122.716 343.837 122.68C343.722 122.638 343.587 122.617 343.431 122.617C343.259 122.617 343.108 122.638 342.978 122.68C342.853 122.716 342.746 122.771 342.657 122.844C342.589 122.901 342.53 122.966 342.478 123.039C342.431 123.112 342.392 123.19 342.36 123.273V130H340.985V121.547H342.282ZM351.412 121.547L351.451 122.344C351.622 122.047 351.846 121.815 352.122 121.648C352.404 121.482 352.742 121.396 353.138 121.391C353.362 121.391 353.563 121.417 353.74 121.469C353.922 121.516 354.081 121.586 354.216 121.68C354.315 121.753 354.404 121.841 354.482 121.945C354.565 122.049 354.636 122.167 354.693 122.297C354.766 122.177 354.852 122.065 354.951 121.961C355.05 121.857 355.156 121.766 355.271 121.688C355.417 121.599 355.578 121.529 355.755 121.477C355.938 121.424 356.136 121.396 356.349 121.391C356.641 121.391 356.904 121.435 357.138 121.523C357.372 121.607 357.57 121.732 357.732 121.898C357.909 122.086 358.044 122.331 358.138 122.633C358.232 122.93 358.279 123.281 358.279 123.688V130H356.904V123.672C356.904 123.495 356.883 123.339 356.841 123.203C356.8 123.068 356.74 122.956 356.662 122.867C356.578 122.784 356.474 122.721 356.349 122.68C356.229 122.638 356.089 122.617 355.927 122.617C355.755 122.617 355.607 122.641 355.482 122.688C355.357 122.734 355.253 122.797 355.169 122.875C355.086 122.958 355.021 123.055 354.974 123.164C354.927 123.268 354.896 123.385 354.88 123.516C354.88 123.542 354.88 123.568 354.88 123.594C354.88 123.615 354.88 123.641 354.88 123.672V130H353.505V123.664C353.505 123.487 353.484 123.331 353.443 123.195C353.406 123.06 353.346 122.948 353.263 122.859C353.185 122.776 353.086 122.716 352.966 122.68C352.852 122.638 352.716 122.617 352.56 122.617C352.388 122.617 352.237 122.638 352.107 122.68C351.982 122.716 351.875 122.771 351.787 122.844C351.719 122.901 351.659 122.966 351.607 123.039C351.56 123.112 351.521 123.19 351.49 123.273V130H350.115V121.547H351.412ZM363.611 130.156C363.018 130.156 362.471 130.055 361.971 129.852C361.476 129.648 361.051 129.365 360.697 129C360.343 128.635 360.067 128.203 359.869 127.703C359.671 127.203 359.572 126.659 359.572 126.07V125.742C359.572 125.06 359.682 124.451 359.9 123.914C360.119 123.372 360.411 122.914 360.775 122.539C361.135 122.169 361.544 121.885 362.002 121.688C362.465 121.49 362.939 121.391 363.424 121.391C364.033 121.391 364.564 121.497 365.018 121.711C365.476 121.919 365.856 122.208 366.158 122.578C366.46 122.953 366.684 123.393 366.83 123.898C366.981 124.404 367.057 124.951 367.057 125.539V126.188H361.018V126.242C361.054 126.654 361.135 127.016 361.26 127.328C361.39 127.641 361.567 127.917 361.791 128.156C362.02 128.411 362.296 128.612 362.619 128.758C362.942 128.904 363.299 128.977 363.689 128.977C364.205 128.977 364.663 128.872 365.064 128.664C365.465 128.456 365.799 128.18 366.064 127.836L366.947 128.523C366.666 128.951 366.244 129.331 365.682 129.664C365.124 129.992 364.434 130.156 363.611 130.156ZM363.424 122.578C363.132 122.578 362.856 122.633 362.596 122.742C362.335 122.846 362.101 123 361.893 123.203C361.684 123.411 361.507 123.667 361.361 123.969C361.221 124.266 361.122 124.609 361.064 125H365.611V124.93C365.611 124.669 365.562 124.391 365.463 124.094C365.364 123.792 365.226 123.531 365.049 123.312C364.872 123.094 364.648 122.917 364.377 122.781C364.111 122.646 363.794 122.578 363.424 122.578ZM374.545 121.391C374.811 121.391 375.087 121.409 375.373 121.445C375.665 121.482 375.884 121.531 376.03 121.594L375.834 123.008C375.553 122.945 375.285 122.901 375.03 122.875C374.78 122.844 374.517 122.828 374.241 122.828C373.886 122.828 373.566 122.872 373.28 122.961C372.993 123.044 372.743 123.169 372.53 123.336C372.337 123.482 372.168 123.661 372.022 123.875C371.881 124.083 371.764 124.318 371.67 124.578V130H370.217V121.547H371.592L371.655 122.68L371.662 122.891C372.006 122.427 372.418 122.062 372.897 121.797C373.381 121.526 373.931 121.391 374.545 121.391Z" fill="#6B6B6B"/>
</svg>
