<svg xmlns="http://www.w3.org/2000/svg" width="842" height="134" fill="none"><rect width="131.2" height="99.2" x=".4" y=".4" fill="#fff" stroke="#C2C2C2" stroke-width=".8" rx="11.6"/><path fill="#6B6B6B" d="M21.344 130v-11.375h3.383q.702.008 1.375.187a3.6 3.6 0 0 1 1.195.54q.523.367.836.937t.305 1.367a2.4 2.4 0 0 1-.149.813 2.3 2.3 0 0 1-.367.656 2.6 2.6 0 0 1-.54.5 4 4 0 0 1-.702.383v.023q.429.102.828.367.398.267.656.586.273.353.422.789.156.438.156.946.008.797-.305 1.406a3 3 0 0 1-.835 1.016 3.8 3.8 0 0 1-1.211.632 4.7 4.7 0 0 1-1.407.227zm1.453-5.32v4.093h2.226q.454-.007.86-.148.405-.148.719-.406.312-.258.492-.633a1.9 1.9 0 0 0 .187-.852 1.96 1.96 0 0 0-.164-.859 1.8 1.8 0 0 0-.46-.641 2.1 2.1 0 0 0-.696-.398 2.8 2.8 0 0 0-.86-.156zm0-1.203h2.015q.407-.008.797-.125a2.3 2.3 0 0 0 .696-.36q.305-.226.492-.562a1.6 1.6 0 0 0 .187-.782q0-.476-.187-.812a1.6 1.6 0 0 0-.485-.555 2.2 2.2 0 0 0-.718-.312 3.6 3.6 0 0 0-.82-.11h-1.977zM36.043 130a1.7 1.7 0 0 1-.14-.406 5 5 0 0 1-.07-.516q-.219.219-.493.414a3.4 3.4 0 0 1-1.28.578 3.4 3.4 0 0 1-.782.086q-.672 0-1.219-.195a2.8 2.8 0 0 1-.914-.531 2.3 2.3 0 0 1-.594-.782 2.4 2.4 0 0 1-.203-.992q0-.695.274-1.218.28-.524.789-.876a3.7 3.7 0 0 1 1.218-.515 7 7 0 0 1 1.602-.172h1.578v-.664q0-.382-.14-.688a1.5 1.5 0 0 0-.399-.523 1.9 1.9 0 0 0-.633-.328 2.7 2.7 0 0 0-.828-.117q-.43 0-.773.109a1.9 1.9 0 0 0-.57.289q-.236.18-.368.43a1.1 1.1 0 0 0-.125.508H30.52q.007-.462.234-.907.235-.445.672-.804a3.5 3.5 0 0 1 1.047-.571 4.3 4.3 0 0 1 1.414-.218q.72 0 1.336.179.618.172 1.07.524.446.359.704.89.257.532.257 1.243v3.929q0 .423.079.899.078.469.218.82V130zm-2.554-1.102q.421 0 .789-.109a3 3 0 0 0 .672-.289q.297-.18.515-.406.218-.234.344-.485v-1.711h-1.344q-.75 0-1.312.133-.555.126-.883.391a1.3 1.3 0 0 0-.36.445 1.4 1.4 0 0 0-.117.586q0 .312.102.578.11.265.32.453.21.196.532.305.32.11.742.109m9.73.086q.392 0 .758-.125.375-.124.665-.351.288-.219.46-.516a1.33 1.33 0 0 0 .188-.656h1.367a2.24 2.24 0 0 1-.297 1.078 3 3 0 0 1-.758.891q-.476.39-1.093.625a3.7 3.7 0 0 1-1.29.226q-.96 0-1.679-.344a3.4 3.4 0 0 1-1.195-.929 3.9 3.9 0 0 1-.727-1.336 5.3 5.3 0 0 1-.242-1.609v-.329q0-.836.242-1.601.243-.766.727-1.352a3.5 3.5 0 0 1 1.195-.922q.72-.343 1.68-.343.75 0 1.375.242.633.235 1.093.64.454.414.711.977.258.563.258 1.203H45.29a1.7 1.7 0 0 0-.172-.719 1.9 1.9 0 0 0-.43-.601 2 2 0 0 0-.656-.406 2.2 2.2 0 0 0-.812-.149q-.672 0-1.133.274a2.2 2.2 0 0 0-.735.695 3.1 3.1 0 0 0-.406.976q-.117.54-.117 1.086v.329q0 .554.117 1.101.126.538.407.969.273.436.726.711.461.265 1.14.265m8.06-2.929-1.063 1.023V130h-1.453v-12h1.453v7.344l.946-1.016 2.773-2.781h1.758l-3.422 3.523 3.945 4.93H54.38zm6.332-.352q0-.945.227-1.734a4.1 4.1 0 0 1 .672-1.367 3.1 3.1 0 0 1 1.062-.891 3.05 3.05 0 0 1 1.414-.32q.508 0 .93.117a2.7 2.7 0 0 1 1.125.617q.172.156.32.344l.07-.922h1.313v8.273q0 .836-.266 1.485a3.1 3.1 0 0 1-.726 1.101 3.2 3.2 0 0 1-1.133.688 4.3 4.3 0 0 1-1.453.234q-.328 0-.75-.078a4 4 0 0 1-.852-.242 4 4 0 0 1-.843-.446 2.8 2.8 0 0 1-.688-.695l.75-.867q.266.32.547.539.282.227.57.359a2.5 2.5 0 0 0 .578.188q.29.063.579.062.514 0 .93-.148.413-.149.71-.438a1.86 1.86 0 0 0 .445-.703q.157-.422.157-.968v-.727q-.165.188-.352.344-.18.156-.39.273a3 3 0 0 1-.727.274 3.5 3.5 0 0 1-.86.101q-.773 0-1.398-.328a3.1 3.1 0 0 1-1.055-.906 4.3 4.3 0 0 1-.671-1.36 6 6 0 0 1-.235-1.695zm1.446.164q0 .618.125 1.172.132.555.414.977.273.422.703.672.43.242 1.031.242.375 0 .672-.086.304-.094.547-.258a2 2 0 0 0 .422-.391 2.7 2.7 0 0 0 .328-.5v-3.875a2.7 2.7 0 0 0-.328-.484 2.1 2.1 0 0 0-.43-.383 2 2 0 0 0-.54-.242 2.2 2.2 0 0 0-.655-.094q-.61 0-1.047.25-.43.25-.703.672a3.1 3.1 0 0 0-.414.992 5.3 5.3 0 0 0-.125 1.172zm13.488-4.476q.399 0 .828.054.437.055.657.149l-.196 1.414a7 7 0 0 0-.804-.133 6 6 0 0 0-.79-.047q-.53 0-.96.133a2.2 2.2 0 0 0-.75.375 2.3 2.3 0 0 0-.508.539q-.21.313-.352.703V130h-1.453v-8.453h1.375l.063 1.133.007.211a3.8 3.8 0 0 1 1.235-1.094q.727-.406 1.648-.406m3.184 4.304q0-.913.266-1.695.265-.79.766-1.367.492-.579 1.203-.906a3.7 3.7 0 0 1 1.601-.336q.9 0 1.61.336.719.327 1.218.906.493.578.758 1.367.266.781.266 1.695v.172q0 .915-.266 1.695a4.1 4.1 0 0 1-.758 1.36 3.55 3.55 0 0 1-1.21.906q-.712.328-1.602.328a3.85 3.85 0 0 1-1.617-.328 3.5 3.5 0 0 1-1.203-.906 4 4 0 0 1-.766-1.36 5.2 5.2 0 0 1-.266-1.695zm1.446.172q0 .625.148 1.195.15.563.453.993.297.43.75.679t1.055.25q.594 0 1.039-.25a2.25 2.25 0 0 0 .758-.679q.297-.43.445-.993a4.7 4.7 0 0 0 .149-1.195v-.172q0-.617-.157-1.179a3.1 3.1 0 0 0-.445-1 2.25 2.25 0 0 0-.758-.68 2.05 2.05 0 0 0-1.047-.258q-.6 0-1.047.258a2.2 2.2 0 0 0-.742.68 3 3 0 0 0-.453 1 4.6 4.6 0 0 0-.148 1.179zM90.835 130l-.086-1.164a3.04 3.04 0 0 1-1.054.976q-.634.344-1.461.344-.665 0-1.203-.203a2.35 2.35 0 0 1-.922-.648q-.383-.438-.594-1.11-.203-.679-.203-1.625v-5.023h1.445v5.039q0 .687.11 1.141.108.453.328.718.22.274.53.383.322.11.735.11.484 0 .868-.11.382-.117.664-.32.234-.165.406-.391.18-.234.297-.508v-6.062h1.453V130zm3.56 0v-8.453h1.296l.102 1.25a4 4 0 0 1 .406-.485q.227-.227.477-.39.374-.25.812-.383.446-.14.938-.148.663 0 1.203.187.546.187.929.586.384.398.586 1.016.211.609.211 1.453V130H99.91v-5.336q0-.563-.125-.953a1.55 1.55 0 0 0-.367-.633 1.5 1.5 0 0 0-.61-.351 2.7 2.7 0 0 0-.812-.11q-.399 0-.742.117-.344.11-.633.305a3 3 0 0 0-.438.399q-.195.226-.343.5V130zm8.855-4.297q0-.945.235-1.734.241-.797.687-1.367a3.1 3.1 0 0 1 1.063-.891q.625-.32 1.398-.32.758 0 1.32.257.571.25.985.735V118h1.445v12h-1.328l-.062-.891a2.8 2.8 0 0 1-1.008.782q-.587.265-1.367.265-.766 0-1.391-.328a3.2 3.2 0 0 1-1.055-.906 4.4 4.4 0 0 1-.679-1.36 5.7 5.7 0 0 1-.243-1.695zm1.446.164q0 .618.132 1.172.133.555.415.977.273.422.703.672.43.242 1.031.242.726 0 1.203-.328t.758-.883v-3.922a2.4 2.4 0 0 0-.758-.844q-.477-.336-1.187-.336-.61 0-1.047.25a2.06 2.06 0 0 0-.703.672 3.1 3.1 0 0 0-.415.992q-.132.555-.132 1.172z"/><rect width="132" height="100" x="142" fill="#368FF7" rx="12"/><path fill="#6B6B6B" d="M178.438 125.438V130h-1.446v-11.375h3.688q.765.015 1.445.242.687.227 1.203.656t.813 1.063q.304.633.304 1.453t-.304 1.453a3.1 3.1 0 0 1-.813 1.055 3.7 3.7 0 0 1-1.203.656 4.7 4.7 0 0 1-1.445.235zm0-1.188h2.242q.5-.007.922-.156.422-.156.734-.438.313-.281.484-.679.18-.407.18-.922t-.18-.93a2 2 0 0 0-.476-.703 2.2 2.2 0 0 0-.742-.445 2.8 2.8 0 0 0-.922-.165h-2.242zm13.09-2.859q.397 0 .828.054.438.055.656.149l-.195 1.414a7 7 0 0 0-.805-.133 6 6 0 0 0-.789-.047q-.53 0-.961.133a2.28 2.28 0 0 0-1.258.914q-.21.313-.351.703V130H187.2v-8.453h1.375l.062 1.133.008.211a3.85 3.85 0 0 1 1.234-1.094q.727-.406 1.649-.406m3.817.156h4.32v7.203h2.758V130h-7.078v-1.25h2.875v-5.945h-2.875zm2.687-2.219q0-.187.055-.351a.75.75 0 0 1 .187-.282.7.7 0 0 1 .258-.156 1 1 0 0 1 .367-.062q.204 0 .36.062.156.056.258.156a.7.7 0 0 1 .187.274 1 1 0 0 1 .063.359q0 .351-.219.586t-.649.234q-.437 0-.656-.234a.85.85 0 0 1-.211-.586m6.88 2.219.039.797a1.9 1.9 0 0 1 .671-.696q.423-.25 1.016-.257.336 0 .602.078.273.07.476.211.149.11.266.265.125.156.211.352a2 2 0 0 1 .578-.609q.219-.133.484-.211.274-.079.594-.086.438 0 .789.132.351.126.594.375.265.282.406.735.141.445.141 1.055V130h-1.375v-6.328a1.6 1.6 0 0 0-.063-.469.9.9 0 0 0-.179-.336.8.8 0 0 0-.313-.187 1.3 1.3 0 0 0-.422-.063q-.258 0-.445.071a.9.9 0 0 0-.313.187.9.9 0 0 0-.195.289 1.2 1.2 0 0 0-.094.352V130h-1.375v-6.336q0-.265-.062-.469a.8.8 0 0 0-.18-.336.66.66 0 0 0-.297-.179 1.2 1.2 0 0 0-.406-.063q-.258 0-.453.063a.87.87 0 0 0-.5.359 1.2 1.2 0 0 0-.117.234V130h-1.375v-8.453zm14.02 8.453a1.6 1.6 0 0 1-.141-.406 5 5 0 0 1-.07-.516q-.219.219-.493.414a3.4 3.4 0 0 1-1.281.578 3.4 3.4 0 0 1-.781.086q-.672 0-1.219-.195a2.8 2.8 0 0 1-.914-.531 2.3 2.3 0 0 1-.594-.782 2.4 2.4 0 0 1-.203-.992q0-.695.274-1.218.28-.524.789-.876a3.7 3.7 0 0 1 1.219-.515 7 7 0 0 1 1.601-.172h1.578v-.664a1.51 1.51 0 0 0-.539-1.211 1.9 1.9 0 0 0-.633-.328 2.7 2.7 0 0 0-.828-.117q-.43 0-.773.109a1.9 1.9 0 0 0-.571.289q-.234.18-.367.43a1.1 1.1 0 0 0-.125.508h-1.453q.007-.462.235-.907.234-.445.671-.804a3.5 3.5 0 0 1 1.047-.571 4.3 4.3 0 0 1 1.414-.218q.719 0 1.336.179a3.1 3.1 0 0 1 1.071.524q.445.359.703.89.258.532.258 1.243v3.929q0 .423.078.899.078.469.218.82V130zm-2.555-1.102q.422 0 .789-.109.368-.11.672-.289.297-.18.515-.406a2 2 0 0 0 .344-.485v-1.711h-1.344q-.75 0-1.312.133-.555.126-.883.391a1.3 1.3 0 0 0-.359.445 1.4 1.4 0 0 0-.117.586q0 .312.101.578.11.265.32.453.211.196.532.305.32.11.742.109m11.668-7.507q.399 0 .828.054.438.055.657.149l-.196 1.414a7 7 0 0 0-.804-.133 6 6 0 0 0-.789-.047q-.532 0-.961.133a2.28 2.28 0 0 0-1.258.914 3.2 3.2 0 0 0-.352.703V130h-1.453v-8.453h1.375l.063 1.133.007.211a3.85 3.85 0 0 1 1.235-1.094q.726-.406 1.648-.406m4.27 12.023q-.203 0-.476-.047a8 8 0 0 1-.414-.078l.234-1.18q.195.016.383.024.195.015.305.015a.94.94 0 0 0 .539-.164 2.1 2.1 0 0 0 .445-.39q.188-.227.32-.469.141-.242.219-.398l.578-1.125-3.641-8.055h1.618l2.32 5.453.375 1.023.398-.992 2.18-5.484h1.617l-4.289 9.758q-.148.327-.383.695a3.5 3.5 0 0 1-.554.68 3 3 0 0 1-.766.523 2.3 2.3 0 0 1-1.008.211"/><rect width="132" height="100" x="284" fill="#6B6B6B" rx="12"/><path fill="#6B6B6B" d="M343.312 127.125q0-.523-.242-.883a2.1 2.1 0 0 0-.609-.609 4 4 0 0 0-.828-.406q-.446-.165-.86-.297a14 14 0 0 1-1.226-.469 5.8 5.8 0 0 1-1.125-.672 3.5 3.5 0 0 1-.844-.937q-.32-.547-.32-1.282 0-.734.32-1.312a3.2 3.2 0 0 1 .852-.977 3.8 3.8 0 0 1 1.187-.601 4.4 4.4 0 0 1 1.336-.211q.742 0 1.43.25.687.242 1.219.687.531.445.851 1.078.321.634.336 1.414h-1.484a3.1 3.1 0 0 0-.243-.89 2.04 2.04 0 0 0-1.187-1.141 2.5 2.5 0 0 0-.922-.164q-.414 0-.812.117a2.1 2.1 0 0 0-.696.352 1.8 1.8 0 0 0-.5.578 1.7 1.7 0 0 0-.179.797q.007.492.25.836.242.336.617.57.367.234.797.391.437.156.82.273.633.195 1.266.477.633.273 1.156.703.516.398.828.976.32.579.32 1.336 0 .766-.343 1.336a3 3 0 0 1-.875.946q-.54.383-1.219.578a5 5 0 0 1-1.36.187 4.9 4.9 0 0 1-1.601-.273 4 4 0 0 1-1.36-.789 3.4 3.4 0 0 1-.82-1.039 3.2 3.2 0 0 1-.32-1.336h1.476q.07.531.29.945.218.406.562.688.344.288.789.437.453.141.984.141.423 0 .829-.102.413-.11.734-.336.32-.22.523-.554.204-.344.203-.813m8.747 2.875-.086-1.164a3.04 3.04 0 0 1-1.055.976q-.632.344-1.46.344-.664 0-1.204-.203a2.35 2.35 0 0 1-.921-.648q-.384-.438-.594-1.11-.204-.679-.203-1.625v-5.023h1.445v5.039q0 .687.109 1.141.11.453.328.718.219.274.532.383.32.11.734.11.484 0 .867-.11.383-.117.664-.32.235-.165.407-.391a2.4 2.4 0 0 0 .296-.508v-6.062h1.454V130zm10.723-4.133q0 .555-.086 1.071-.078.507-.234.953-.212.585-.555 1.054a3 3 0 0 1-.812.766q-.344.211-.758.328a3.2 3.2 0 0 1-.883.117q-.547 0-1-.133a2.8 2.8 0 0 1-.805-.382 3 3 0 0 1-.625-.602l-.07.961h-1.328v-12h1.445v4.453a2.7 2.7 0 0 1 .399-.406 2.6 2.6 0 0 1 1.156-.57q.375-.087.812-.086.548 0 1.008.148.462.148.836.414.336.25.602.609.265.352.469.79.21.492.32 1.093.11.594.109 1.258zm-1.445-.164q0-.398-.055-.773a4.3 4.3 0 0 0-.148-.719 3.3 3.3 0 0 0-.367-.758 1.7 1.7 0 0 0-.555-.539 2 2 0 0 0-.508-.219 2.3 2.3 0 0 0-.625-.078 2.2 2.2 0 0 0-.687.102 1.9 1.9 0 0 0-.555.265q-.25.18-.445.422a2.6 2.6 0 0 0-.321.516v3.695q.14.282.328.524.196.234.446.414t.562.281q.313.094.688.094.359 0 .656-.086.297-.094.531-.266.313-.219.524-.555.21-.336.336-.75.101-.312.148-.671t.047-.735z"/><rect width="132" height="100" x="426" fill="#C2C2C2" rx="12"/><path fill="#6B6B6B" d="M468.258 124.969a8 8 0 0 1-.11 1.234q-.093.618-.296 1.195a5.2 5.2 0 0 1-.524 1.079 3.8 3.8 0 0 1-.75.875q-.437.375-1.008.593a3.6 3.6 0 0 1-1.265.211q-.704 0-1.274-.211a3.4 3.4 0 0 1-1-.593 4 4 0 0 1-.758-.875 5.4 5.4 0 0 1-.523-1.086 6.5 6.5 0 0 1-.312-1.196 8 8 0 0 1-.11-1.226v-1.297q.007-.609.102-1.227.101-.624.312-1.203.203-.578.516-1.078.32-.507.758-.891.437-.375 1-.585.57-.219 1.273-.219t1.273.219q.572.21 1.008.585.438.375.75.883.32.5.532 1.078.203.579.296 1.204.102.624.11 1.234zm-1.43-1.313a9 9 0 0 0-.055-.844 6 6 0 0 0-.156-.882 4.7 4.7 0 0 0-.305-.821 2.8 2.8 0 0 0-.468-.703 2.1 2.1 0 0 0-.664-.468 2.1 2.1 0 0 0-.891-.18 2.05 2.05 0 0 0-1.547.656 2.8 2.8 0 0 0-.469.703 4.3 4.3 0 0 0-.296.821 6 6 0 0 0-.172.882q-.048.438-.055.836v1.313q.007.398.055.843.054.445.172.876.117.437.304.835.187.399.469.696.282.304.664.484t.891.18a2.07 2.07 0 0 0 1.562-.664q.274-.297.453-.688.188-.398.305-.836.11-.43.148-.875.048-.445.055-.851zm8.731 6.344-.086-1.164a3.04 3.04 0 0 1-1.055.976q-.632.344-1.46.344-.664 0-1.204-.203a2.35 2.35 0 0 1-.921-.648q-.384-.438-.594-1.11-.204-.679-.203-1.625v-5.023h1.445v5.039q0 .687.109 1.141.11.453.328.718.219.274.532.383.32.11.734.11.484 0 .867-.11.383-.117.664-.32.235-.165.407-.391a2.4 2.4 0 0 0 .296-.508v-6.062h1.454V130zm6.981-10.5v2.047h3.219v1.117h-3.219v4.594q0 .492.125.812t.344.508q.219.195.5.274.289.078.609.078.234 0 .485-.024a15 15 0 0 0 .929-.148l.344-.078.203 1.023q-.18.11-.437.195-.258.08-.563.133a6 6 0 0 1-.648.094 7 7 0 0 1-.672.031q-.563 0-1.055-.156a2.2 2.2 0 0 1-.844-.516 2.4 2.4 0 0 1-.57-.89q-.203-.555-.203-1.336v-4.594h-2.219v-1.117h2.219V119.5zm5.934-1.5h4.32v10.75h2.758V130h-7.078v-1.25h2.875v-9.492h-2.875zm9.129 3.547h4.321v7.203h2.758V130h-7.079v-1.25h2.875v-5.945h-2.875zm2.688-2.219q0-.187.055-.351a.73.73 0 0 1 .445-.438q.164-.062.367-.062a1 1 0 0 1 .36.062.7.7 0 0 1 .257.156.7.7 0 0 1 .188.274q.062.164.062.359 0 .351-.218.586-.219.234-.649.234-.437 0-.656-.234a.84.84 0 0 1-.211-.586M506.506 130v-8.453h1.297l.102 1.25a4 4 0 0 1 .406-.485q.227-.227.476-.39a3 3 0 0 1 .813-.383q.445-.14.937-.148.664 0 1.204.187a2.3 2.3 0 0 1 .929.586q.384.398.586 1.016.211.609.211 1.453V130h-1.445v-5.336q0-.563-.125-.953a1.55 1.55 0 0 0-.367-.633 1.5 1.5 0 0 0-.61-.351 2.7 2.7 0 0 0-.812-.11q-.399 0-.742.117-.344.11-.633.305a3 3 0 0 0-.438.399q-.195.226-.343.5V130zm12.864.156a4.3 4.3 0 0 1-1.641-.304 3.7 3.7 0 0 1-1.273-.852 3.9 3.9 0 0 1-.828-1.297 4.4 4.4 0 0 1-.297-1.633v-.328q0-1.023.328-1.828.328-.813.875-1.375a3.8 3.8 0 0 1 1.227-.851 3.6 3.6 0 0 1 1.421-.297q.915 0 1.594.32.688.312 1.141.867.453.563.672 1.32.226.759.226 1.641v.649h-6.039v.054q.055.618.242 1.086.196.47.532.828.344.383.828.602t1.07.219q.774 0 1.375-.313a3 3 0 0 0 1-.828l.883.687q-.422.642-1.266 1.141-.835.492-2.07.492m-.188-7.578q-.437 0-.828.164-.39.156-.703.461a2.8 2.8 0 0 0-.531.766q-.212.445-.297 1.031h4.547v-.07q0-.391-.148-.836a2.4 2.4 0 0 0-.415-.782 2 2 0 0 0-.671-.531q-.399-.203-.954-.203"/><rect width="132" height="100" x="568" fill="#121212" rx="12"/><path fill="#6B6B6B" d="M597.031 119.859h-3.515V130h-1.407v-10.141h-3.515v-1.234h8.437zm5.192 10.297q-.89 0-1.64-.304a3.73 3.73 0 0 1-2.102-2.149 4.4 4.4 0 0 1-.297-1.633v-.328q0-1.023.328-1.828.329-.813.875-1.375a3.8 3.8 0 0 1 1.227-.851 3.6 3.6 0 0 1 1.422-.297q.913 0 1.593.32.688.312 1.141.867.453.563.672 1.32.226.759.226 1.641v.649h-6.039v.054q.056.618.243 1.086.195.47.531.828.344.383.828.602.485.219 1.07.219.774 0 1.375-.313a3 3 0 0 0 1-.828l.883.687q-.421.642-1.266 1.141-.836.492-2.07.492m-.187-7.578a2.1 2.1 0 0 0-.828.164 2.1 2.1 0 0 0-.704.461 2.8 2.8 0 0 0-.531.766q-.21.445-.297 1.031h4.547v-.07q0-.391-.148-.836a2.4 2.4 0 0 0-.414-.782 2 2 0 0 0-.672-.531q-.4-.203-.953-.203m9.074 2.102 2.258-3.133h1.695l-3.148 4.18 3.234 4.273h-1.671l-2.336-3.219-2.336 3.219h-1.688l3.235-4.273-3.149-4.18h1.672zm9.059-5.18v2.047h3.219v1.117h-3.219v4.594q0 .492.125.812a1.26 1.26 0 0 0 .844.782q.29.078.609.078.235 0 .485-.024a14 14 0 0 0 .93-.148l.343-.078.203 1.023a2 2 0 0 1-.437.195 5 5 0 0 1-.563.133 6 6 0 0 1-.648.094 7 7 0 0 1-.672.031q-.562 0-1.055-.156a2.2 2.2 0 0 1-.843-.516 2.4 2.4 0 0 1-.571-.89q-.203-.555-.203-1.336v-4.594h-2.219v-1.117h2.219V119.5zm12.028 6.117h-5.976v-1.187h5.976zm2.794 4.383v-11.375h3.382q.704.008 1.375.187.672.172 1.196.54.523.367.836.937t.304 1.367a2.4 2.4 0 0 1-.148.813 2.3 2.3 0 0 1-.367.656 2.6 2.6 0 0 1-.539.5 4 4 0 0 1-.703.383v.023q.429.102.828.367.398.267.656.586.273.353.422.789.156.438.156.946.008.797-.305 1.406a3 3 0 0 1-.836 1.016 3.8 3.8 0 0 1-1.211.632 4.7 4.7 0 0 1-1.406.227zm1.453-5.32v4.093h2.226q.453-.007.86-.148.406-.148.718-.406.313-.258.493-.633a1.9 1.9 0 0 0 .187-.852 1.96 1.96 0 0 0-.164-.859 1.8 1.8 0 0 0-.461-.641 2.1 2.1 0 0 0-.695-.398 2.8 2.8 0 0 0-.86-.156zm0-1.203h2.015q.407-.008.797-.125.39-.126.696-.36.304-.226.492-.562a1.6 1.6 0 0 0 .187-.782q0-.476-.187-.812a1.6 1.6 0 0 0-.485-.555 2.2 2.2 0 0 0-.718-.312 3.6 3.6 0 0 0-.821-.11h-1.976zm7.918-5.477h4.32v10.75h2.758V130h-7.078v-1.25h2.875v-9.492h-2.875zm14.458 12a1.7 1.7 0 0 1-.141-.406 5 5 0 0 1-.07-.516 3.9 3.9 0 0 1-1.078.758 4 4 0 0 1-.696.234 3.4 3.4 0 0 1-.781.086q-.672 0-1.219-.195a2.8 2.8 0 0 1-.914-.531 2.3 2.3 0 0 1-.594-.782 2.4 2.4 0 0 1-.203-.992q0-.695.274-1.218.28-.524.789-.876a3.7 3.7 0 0 1 1.219-.515 7 7 0 0 1 1.601-.172h1.578v-.664a1.51 1.51 0 0 0-.539-1.211 1.9 1.9 0 0 0-.633-.328 2.7 2.7 0 0 0-.828-.117q-.43 0-.773.109a1.9 1.9 0 0 0-.57.289q-.235.18-.368.43a1.1 1.1 0 0 0-.125.508h-1.453q.008-.462.235-.907.234-.445.671-.804a3.5 3.5 0 0 1 1.047-.571 4.3 4.3 0 0 1 1.414-.218q.72 0 1.336.179.618.172 1.071.524.445.359.703.89.258.532.258 1.243v3.929q0 .423.078.899.078.469.218.82V130zm-2.555-1.102q.422 0 .789-.109.367-.11.672-.289.297-.18.516-.406.218-.234.343-.485v-1.711h-1.343q-.75 0-1.313.133-.555.126-.883.391a1.3 1.3 0 0 0-.359.445 1.4 1.4 0 0 0-.117.586q0 .312.101.578.11.265.321.453.21.196.531.305.32.11.742.109m9.731.086q.39 0 .758-.125.375-.124.664-.351.289-.219.461-.516.18-.305.187-.656h1.367a2.24 2.24 0 0 1-.296 1.078 3 3 0 0 1-.758.891q-.477.39-1.094.625a3.7 3.7 0 0 1-1.289.226q-.962 0-1.68-.344a3.4 3.4 0 0 1-1.195-.929 3.9 3.9 0 0 1-.727-1.336 5.3 5.3 0 0 1-.242-1.609v-.329q0-.836.242-1.601a4 4 0 0 1 .727-1.352 3.5 3.5 0 0 1 1.195-.922q.718-.343 1.68-.343.75 0 1.375.242.632.235 1.094.64.453.414.711.977t.257 1.203h-1.367a1.7 1.7 0 0 0-.172-.719 1.9 1.9 0 0 0-1.086-1.007 2.2 2.2 0 0 0-.812-.149q-.672 0-1.133.274a2.2 2.2 0 0 0-.734.695 3 3 0 0 0-.406.976q-.118.54-.118 1.086v.329q0 .554.118 1.101.124.538.406.969.273.436.726.711.462.265 1.141.265m8.059-2.929-1.062 1.023V130h-1.454v-12h1.454v7.344l.945-1.016 2.773-2.781h1.758l-3.422 3.523 3.946 4.93h-1.836z"/><rect width="131.2" height="99.2" x="710.4" y=".4" fill="#fff" stroke="#C2C2C2" stroke-width=".8" rx="11.6"/><path fill="#6B6B6B" d="M739.031 119.859h-3.515V130h-1.407v-10.141h-3.515v-1.234h8.437zm5.192 10.297q-.89 0-1.64-.304a3.73 3.73 0 0 1-2.102-2.149 4.4 4.4 0 0 1-.297-1.633v-.328q0-1.023.328-1.828.329-.813.875-1.375a3.8 3.8 0 0 1 1.227-.851 3.6 3.6 0 0 1 1.422-.297q.913 0 1.593.32.688.312 1.141.867.453.563.672 1.32.226.759.226 1.641v.649h-6.039v.054q.056.618.243 1.086.195.47.531.828.344.383.828.602.485.219 1.07.219.774 0 1.375-.313a3 3 0 0 0 1-.828l.883.687q-.421.642-1.266 1.141-.836.492-2.07.492m-.187-7.578a2.1 2.1 0 0 0-.828.164 2.1 2.1 0 0 0-.704.461 2.8 2.8 0 0 0-.531.766q-.21.445-.297 1.031h4.547v-.07q0-.391-.148-.836a2.4 2.4 0 0 0-.414-.782 2 2 0 0 0-.672-.531q-.4-.203-.953-.203m9.074 2.102 2.258-3.133h1.695l-3.148 4.18 3.234 4.273h-1.671l-2.336-3.219-2.336 3.219h-1.688l3.235-4.273-3.149-4.18h1.672zm9.059-5.18v2.047h3.219v1.117h-3.219v4.594q0 .492.125.812a1.26 1.26 0 0 0 .844.782q.29.078.609.078.235 0 .485-.024a14 14 0 0 0 .93-.148l.343-.078.203 1.023a2 2 0 0 1-.437.195 5 5 0 0 1-.563.133 6 6 0 0 1-.648.094 7 7 0 0 1-.672.031q-.562 0-1.055-.156a2.2 2.2 0 0 1-.843-.516 2.4 2.4 0 0 1-.571-.89q-.203-.555-.203-1.336v-4.594h-2.219v-1.117h2.219V119.5zm12.028 6.117h-5.976v-1.187h5.976zM777.6 130l-1.383-11.375h1.375l.82 7.844.047.453.086-.469 1.375-7.828h1.258l1.383 7.836.086.461.047-.469.82-7.828h1.367L783.498 130h-1.476l-1.383-8.094-.078-.476-.086.484-1.391 8.086zm9.981-7.195q.172-.258.383-.469.21-.22.445-.383.375-.273.82-.414a3.5 3.5 0 0 1 2.164.047q.548.187.93.594.383.406.586 1.031.211.617.211 1.469V130h-1.445v-5.336q0-.5-.118-.875a1.65 1.65 0 0 0-.343-.633 1.5 1.5 0 0 0-.61-.406 2.2 2.2 0 0 0-.843-.133q-.391 0-.743.11-.351.109-.648.312a2.7 2.7 0 0 0-.789.82V130h-1.445v-12h1.445zm7.911-1.258h4.32v7.203h2.758V130h-7.078v-1.25h2.875v-5.945h-2.875zm2.687-2.219q0-.187.055-.351a.73.73 0 0 1 .445-.438q.164-.062.367-.062a1 1 0 0 1 .36.062.7.7 0 0 1 .257.156.7.7 0 0 1 .188.274 1 1 0 0 1 .062.359q0 .351-.218.586-.219.234-.649.234-.437 0-.656-.234a.84.84 0 0 1-.211-.586m9.637.172v2.047h3.219v1.117h-3.219v4.594q0 .492.125.812a1.26 1.26 0 0 0 .844.782q.29.078.609.078.235 0 .485-.024a15 15 0 0 0 .929-.148q.212-.047.344-.078l.203 1.023a2 2 0 0 1-.437.195q-.258.08-.563.133a6 6 0 0 1-.648.094 7 7 0 0 1-.672.031q-.563 0-1.055-.156a2.2 2.2 0 0 1-.843-.516 2.4 2.4 0 0 1-.571-.89q-.203-.555-.203-1.336v-4.594h-2.219v-1.117h2.219V119.5zm9.442 10.656q-.89 0-1.64-.304a3.73 3.73 0 0 1-2.102-2.149 4.4 4.4 0 0 1-.297-1.633v-.328q0-1.023.328-1.828.329-.813.875-1.375a3.8 3.8 0 0 1 1.227-.851 3.6 3.6 0 0 1 1.422-.297q.913 0 1.593.32.688.312 1.141.867.453.563.672 1.32.226.759.226 1.641v.649h-6.039v.054q.055.618.243 1.086.195.47.531.828.343.383.828.602t1.07.219q.774 0 1.375-.313a3 3 0 0 0 1-.828l.883.687q-.421.642-1.266 1.141-.835.492-2.07.492m-.187-7.578a2.1 2.1 0 0 0-.828.164 2.1 2.1 0 0 0-.704.461 2.8 2.8 0 0 0-.531.766q-.21.445-.297 1.031h4.547v-.07q0-.391-.148-.836a2.4 2.4 0 0 0-.414-.782 2 2 0 0 0-.672-.531q-.4-.203-.953-.203"/></svg>