<svg xmlns="http://www.w3.org/2000/svg" width="274" height="132" fill="none"><rect width="132" height="100" fill="#2A8642" rx="12"/><path fill="#6B6B6B" d="M40.813 127.125q0-.523-.243-.883a2.1 2.1 0 0 0-.61-.609 4 4 0 0 0-.827-.406 20 20 0 0 0-.86-.297q-.601-.196-1.226-.469a5.8 5.8 0 0 1-1.125-.672 3.5 3.5 0 0 1-.844-.937q-.32-.547-.32-1.282 0-.734.32-1.312.328-.579.852-.977a3.8 3.8 0 0 1 1.187-.601 4.4 4.4 0 0 1 1.336-.211q.742 0 1.43.25.687.242 1.219.687.531.445.851 1.078.321.634.336 1.414h-1.484a3.1 3.1 0 0 0-.242-.89 2.2 2.2 0 0 0-.477-.696 2 2 0 0 0-.711-.445 2.5 2.5 0 0 0-.922-.164 3 3 0 0 0-.812.117q-.39.118-.696.352a1.8 1.8 0 0 0-.5.578q-.18.344-.18.797.01.492.25.836.243.336.618.57.367.234.797.391.437.156.82.273.633.195 1.266.477.633.273 1.156.703.516.398.828.976.32.579.32 1.336 0 .766-.343 1.336a3 3 0 0 1-.875.946 4 4 0 0 1-1.22.578 5 5 0 0 1-1.359.187 4.9 4.9 0 0 1-1.601-.273 4 4 0 0 1-1.36-.789 3.4 3.4 0 0 1-.82-1.039 3.2 3.2 0 0 1-.32-1.336h1.476q.07.531.29.945.218.406.562.688.344.288.79.437.453.141.983.141.423 0 .829-.102a2.3 2.3 0 0 0 .734-.336q.32-.22.523-.554.204-.344.203-.813M49.559 130l-.086-1.164a3.04 3.04 0 0 1-1.055.976q-.632.344-1.46.344-.664 0-1.204-.203a2.35 2.35 0 0 1-.921-.648q-.384-.438-.594-1.11-.204-.679-.203-1.625v-5.023h1.445v5.039q0 .687.11 1.141.109.453.327.718.219.274.532.383.32.11.734.11.485 0 .867-.11.383-.117.664-.32.235-.165.407-.391.18-.234.296-.508v-6.062h1.454V130zm7.16-1.016q.392 0 .758-.125.375-.124.665-.351.288-.219.46-.516a1.33 1.33 0 0 0 .188-.656h1.367a2.24 2.24 0 0 1-.297 1.078 3 3 0 0 1-.758.891q-.476.39-1.093.625a3.7 3.7 0 0 1-1.29.226q-.96 0-1.679-.344a3.4 3.4 0 0 1-1.195-.929 3.9 3.9 0 0 1-.727-1.336 5.3 5.3 0 0 1-.242-1.609v-.329q0-.836.242-1.601.243-.766.727-1.352a3.5 3.5 0 0 1 1.195-.922q.72-.343 1.68-.343.75 0 1.375.242.633.235 1.093.64.454.414.711.977.258.563.258 1.203H58.79a1.7 1.7 0 0 0-.172-.719 1.9 1.9 0 0 0-.43-.601 2 2 0 0 0-.656-.406 2.2 2.2 0 0 0-.812-.149q-.672 0-1.133.274a2.2 2.2 0 0 0-.735.695 3.1 3.1 0 0 0-.406.976q-.117.54-.117 1.086v.329q0 .554.117 1.101.126.538.407.969.273.436.726.711.461.265 1.14.265m9.13 0q.39 0 .758-.125.375-.124.664-.351.29-.219.46-.516a1.33 1.33 0 0 0 .188-.656h1.368a2.24 2.24 0 0 1-.297 1.078 3 3 0 0 1-.758.891q-.477.39-1.094.625a3.7 3.7 0 0 1-1.289.226q-.96 0-1.68-.344a3.4 3.4 0 0 1-1.195-.929 3.9 3.9 0 0 1-.726-1.336 5.3 5.3 0 0 1-.243-1.609v-.329q0-.836.242-1.601.243-.766.727-1.352a3.5 3.5 0 0 1 1.195-.922q.72-.343 1.68-.343.75 0 1.375.242.632.235 1.094.64.453.414.71.977.26.563.259 1.203h-1.368a1.7 1.7 0 0 0-.171-.719 1.9 1.9 0 0 0-.43-.601 2 2 0 0 0-.656-.406 2.2 2.2 0 0 0-.813-.149q-.672 0-1.133.274a2.2 2.2 0 0 0-.734.695 3.1 3.1 0 0 0-.406.976q-.118.54-.118 1.086v.329q0 .554.118 1.101.124.538.406.969.273.436.726.711.462.265 1.141.265m9.262 1.172q-.89 0-1.64-.304a3.7 3.7 0 0 1-1.274-.852 3.9 3.9 0 0 1-.828-1.297 4.4 4.4 0 0 1-.297-1.633v-.328q0-1.023.328-1.828a4.2 4.2 0 0 1 .875-1.375q.54-.555 1.227-.851a3.6 3.6 0 0 1 1.422-.297q.914 0 1.593.32.688.312 1.141.867.453.563.672 1.32.227.759.227 1.641v.649h-6.04v.054q.056.618.243 1.086.195.47.53.828.345.383.83.602.483.219 1.07.219.773 0 1.374-.313a3 3 0 0 0 1-.828l.883.687q-.422.642-1.265 1.141-.837.492-2.07.492m-.187-7.578q-.438 0-.828.164-.39.156-.704.461a2.8 2.8 0 0 0-.53.766q-.211.445-.298 1.031h4.547v-.07q0-.391-.148-.836a2.4 2.4 0 0 0-.414-.782 2 2 0 0 0-.672-.531q-.4-.203-.953-.203m11.2 5.18q0-.258-.102-.461a1 1 0 0 0-.344-.383 2.6 2.6 0 0 0-.64-.312 6.5 6.5 0 0 0-.993-.266 10 10 0 0 1-1.328-.359 4.2 4.2 0 0 1-1.015-.508 2.2 2.2 0 0 1-.665-.68 1.8 1.8 0 0 1-.234-.922q0-.516.242-.961.243-.453.68-.789a3.4 3.4 0 0 1 1.04-.531q.608-.195 1.335-.195.781 0 1.406.203t1.063.562q.436.36.672.844.242.477.242 1.031h-1.446q0-.273-.14-.531a1.5 1.5 0 0 0-.39-.469 2 2 0 0 0-.61-.328 2.4 2.4 0 0 0-.797-.125q-.46 0-.812.102-.345.101-.57.273a1.16 1.16 0 0 0-.352.399 1 1 0 0 0-.118.468q0 .25.094.446.094.195.328.351.227.156.61.281.39.125.984.243.78.164 1.398.382.618.211 1.04.508.42.305.64.703.227.399.227.922 0 .562-.258 1.024a2.36 2.36 0 0 1-.703.789 3.4 3.4 0 0 1-1.086.508 5 5 0 0 1-1.383.179 4.8 4.8 0 0 1-1.531-.226 3.6 3.6 0 0 1-1.133-.618 2.6 2.6 0 0 1-.719-.874 2.36 2.36 0 0 1-.242-1.04h1.445q.032.445.235.75.21.306.523.493.305.187.68.265t.742.078q.578 0 1.008-.132.429-.141.672-.383a1.1 1.1 0 0 0 .226-.328 1 1 0 0 0 .078-.383m9.129 0q0-.258-.102-.461a1 1 0 0 0-.343-.383 2.6 2.6 0 0 0-.641-.312 6.5 6.5 0 0 0-.992-.266 10 10 0 0 1-1.328-.359 4.2 4.2 0 0 1-1.016-.508 2.2 2.2 0 0 1-.664-.68 1.8 1.8 0 0 1-.234-.922q0-.516.242-.961.242-.453.68-.789a3.4 3.4 0 0 1 1.038-.531q.61-.195 1.336-.195.781 0 1.407.203.624.203 1.062.562t.672.844q.242.477.242 1.031h-1.445q0-.273-.14-.531a1.5 1.5 0 0 0-.391-.469 2 2 0 0 0-.61-.328 2.4 2.4 0 0 0-.797-.125q-.46 0-.812.102-.345.101-.57.273a1.16 1.16 0 0 0-.352.399 1 1 0 0 0-.117.468q0 .25.094.446.093.195.328.351.226.156.61.281.39.125.983.243.781.164 1.399.382.617.211 1.039.508.422.305.64.703.227.399.227.922 0 .562-.258 1.024-.249.46-.703.789a3.4 3.4 0 0 1-1.086.508 5 5 0 0 1-1.383.179 4.8 4.8 0 0 1-1.53-.226 3.6 3.6 0 0 1-1.134-.618 2.6 2.6 0 0 1-.718-.874 2.36 2.36 0 0 1-.243-1.04h1.446q.03.445.234.75.21.306.524.493a2.1 2.1 0 0 0 .68.265q.375.078.741.078.579 0 1.008-.132.43-.141.672-.383a1.1 1.1 0 0 0 .227-.328 1 1 0 0 0 .078-.383"/><rect width="132" height="100" x="142" fill="#BB362A" rx="12"/><path fill="#6B6B6B" d="M192.117 124.742h-4.75v4.031h5.539V130h-6.984v-11.375h6.914v1.234h-5.469v3.657h4.75zm8.411-3.351q.397 0 .828.054.438.055.656.149l-.195 1.414a7 7 0 0 0-.805-.133 6 6 0 0 0-.789-.047q-.53 0-.961.133a2.28 2.28 0 0 0-1.258.914q-.21.313-.351.703V130H196.2v-8.453h1.375l.062 1.133.008.211a3.85 3.85 0 0 1 1.234-1.094q.727-.406 1.649-.406m9.129 0q.399 0 .828.054.438.055.657.149l-.196 1.414a7 7 0 0 0-.804-.133 6 6 0 0 0-.789-.047q-.532 0-.961.133a2.28 2.28 0 0 0-1.258.914 3.2 3.2 0 0 0-.352.703V130h-1.453v-8.453h1.375l.063 1.133.007.211a3.85 3.85 0 0 1 1.235-1.094q.727-.406 1.648-.406m3.184 4.304q0-.913.266-1.695.266-.79.765-1.367a3.5 3.5 0 0 1 1.204-.906 3.7 3.7 0 0 1 1.601-.336q.899 0 1.61.336.718.327 1.218.906.492.578.758 1.367.266.781.266 1.695v.172q0 .915-.266 1.695-.266.781-.758 1.36a3.55 3.55 0 0 1-1.211.906 3.8 3.8 0 0 1-1.601.328 3.85 3.85 0 0 1-1.617-.328 3.5 3.5 0 0 1-1.204-.906 4 4 0 0 1-.765-1.36 5.2 5.2 0 0 1-.266-1.695zm1.446.172q0 .625.148 1.195.149.563.453.993.297.43.75.679t1.055.25q.594 0 1.039-.25a2.25 2.25 0 0 0 .758-.679q.297-.43.445-.993a4.7 4.7 0 0 0 .148-1.195v-.172q0-.617-.156-1.179a3.1 3.1 0 0 0-.445-1 2.25 2.25 0 0 0-.758-.68 2.05 2.05 0 0 0-1.047-.258q-.602 0-1.047.258a2.2 2.2 0 0 0-.742.68 3 3 0 0 0-.453 1 4.6 4.6 0 0 0-.148 1.179zm13.629-4.476q.399 0 .828.054.437.055.656.149l-.195 1.414a7 7 0 0 0-.805-.133 6 6 0 0 0-.789-.047q-.53 0-.961.133a2.2 2.2 0 0 0-.75.375 2.3 2.3 0 0 0-.507.539 3.2 3.2 0 0 0-.352.703V130h-1.453v-8.453h1.375l.062 1.133.008.211a3.8 3.8 0 0 1 1.235-1.094q.726-.406 1.648-.406"/></svg>