<svg xmlns="http://www.w3.org/2000/svg" width="428" height="134" fill="none"><rect width="132" height="100" fill="#5EA5F9" rx="12"/><path fill="#6B6B6B" d="M48.844 130v-11.375h3.383q.703.008 1.375.187a3.6 3.6 0 0 1 1.195.54q.524.367.836.937.313.57.304 1.367a2.4 2.4 0 0 1-.148.813 2.3 2.3 0 0 1-.367.656 2.6 2.6 0 0 1-.54.5 4 4 0 0 1-.702.383v.023q.429.102.828.367.398.267.656.586.273.353.422.789.156.438.156.946.008.797-.304 1.406a3 3 0 0 1-.836 1.016 3.8 3.8 0 0 1-1.211.632 4.7 4.7 0 0 1-1.407.227zm1.453-5.32v4.093h2.226q.453-.007.86-.148.405-.148.719-.406.312-.258.492-.633a1.9 1.9 0 0 0 .187-.852 1.96 1.96 0 0 0-.164-.859 1.8 1.8 0 0 0-.46-.641 2.1 2.1 0 0 0-.696-.398 2.8 2.8 0 0 0-.86-.156zm0-1.203h2.016q.406-.008.796-.125a2.3 2.3 0 0 0 .696-.36q.305-.226.492-.562a1.6 1.6 0 0 0 .187-.782q0-.476-.187-.812a1.6 1.6 0 0 0-.484-.555 2.2 2.2 0 0 0-.72-.312 3.6 3.6 0 0 0-.82-.11h-1.976zM58.215 118h4.32v10.75h2.758V130h-7.078v-1.25h2.875v-9.492h-2.875zm14.473 12-.085-1.164a3.04 3.04 0 0 1-1.055.976q-.633.344-1.461.344-.664 0-1.203-.203a2.35 2.35 0 0 1-.922-.648q-.383-.438-.594-1.11-.203-.679-.203-1.625v-5.023h1.445v5.039q0 .687.11 1.141t.328.718q.219.274.531.383.32.11.734.11.484 0 .868-.11.382-.117.664-.32.234-.165.406-.391.18-.234.297-.508v-6.062H74V130zm7.294.156q-.89 0-1.64-.304a3.73 3.73 0 0 1-2.102-2.149 4.4 4.4 0 0 1-.297-1.633v-.328q0-1.023.328-1.828.328-.813.875-1.375a3.8 3.8 0 0 1 1.227-.851 3.6 3.6 0 0 1 1.421-.297q.915 0 1.594.32.688.312 1.14.867.454.563.673 1.32.225.759.226 1.641v.649h-6.039v.054q.055.618.242 1.086.195.47.532.828.343.383.828.602t1.07.219q.774 0 1.375-.313a3 3 0 0 0 1-.828l.883.687q-.422.642-1.266 1.141-.836.492-2.07.492m-.188-7.578q-.436 0-.828.164-.39.156-.703.461a2.8 2.8 0 0 0-.531.766q-.21.445-.297 1.031h4.547v-.07q0-.391-.149-.836a2.4 2.4 0 0 0-.414-.782 2 2 0 0 0-.671-.531q-.399-.203-.954-.203"/><rect width="132" height="100" x="145" fill="#EBF4FE" rx="12"/><path fill="#6B6B6B" d="M143.344 130v-11.375h3.383q.702.008 1.375.187.671.172 1.195.54.523.367.836.937t.305 1.367a2.4 2.4 0 0 1-.149.813 2.2 2.2 0 0 1-.367.656 2.6 2.6 0 0 1-.539.5 4 4 0 0 1-.703.383v.023q.429.102.828.367.398.267.656.586.273.353.422.789.156.438.156.946.008.797-.304 1.406a3 3 0 0 1-.836 1.016 3.8 3.8 0 0 1-1.211.632 4.7 4.7 0 0 1-1.407.227zm1.453-5.32v4.093h2.226q.454-.007.86-.148.406-.148.719-.406t.492-.633a1.9 1.9 0 0 0 .187-.852 1.96 1.96 0 0 0-.164-.859 1.8 1.8 0 0 0-.461-.641 2.1 2.1 0 0 0-.695-.398 2.8 2.8 0 0 0-.859-.156zm0-1.203h2.015q.407-.008.797-.125.391-.126.696-.36.304-.226.492-.562a1.6 1.6 0 0 0 .187-.782q0-.476-.187-.812a1.6 1.6 0 0 0-.485-.555 2.2 2.2 0 0 0-.718-.312 3.6 3.6 0 0 0-.821-.11h-1.976zm7.918-5.477h4.321v10.75h2.757V130h-7.078v-1.25h2.875v-9.492h-2.875zm14.473 12-.085-1.164a3.04 3.04 0 0 1-1.055.976q-.633.344-1.461.344-.665 0-1.203-.203a2.35 2.35 0 0 1-.922-.648q-.382-.438-.594-1.11-.203-.679-.203-1.625v-5.023h1.445v5.039q0 .687.11 1.141t.328.718q.219.274.531.383.32.11.734.11.484 0 .868-.11.382-.117.664-.32.234-.165.406-.391.18-.234.297-.508v-6.062h1.453V130zm7.294.156a4.3 4.3 0 0 1-1.641-.304 3.7 3.7 0 0 1-1.273-.852 3.9 3.9 0 0 1-.828-1.297 4.4 4.4 0 0 1-.297-1.633v-.328q0-1.023.328-1.828.328-.813.875-1.375.539-.555 1.226-.851a3.6 3.6 0 0 1 1.422-.297q.915 0 1.594.32.688.312 1.141.867.453.563.672 1.32.226.759.226 1.641v.649h-6.039v.054q.055.618.242 1.086.196.47.532.828.343.383.828.602t1.07.219q.774 0 1.375-.313a3 3 0 0 0 1-.828l.883.687q-.422.642-1.266 1.141-.835.492-2.07.492m-.188-7.578q-.436 0-.828.164-.39.156-.703.461a2.8 2.8 0 0 0-.531.766q-.211.445-.297 1.031h4.547v-.07q0-.391-.149-.836a2.4 2.4 0 0 0-.414-.782 2 2 0 0 0-.672-.531q-.398-.203-.953-.203m11.903 3.039h-5.976v-1.187h5.976zm2.794 4.383v-11.375h3.382q.704.008 1.375.187.672.172 1.196.54.523.367.836.937t.304 1.367a2.4 2.4 0 0 1-.148.813 2.3 2.3 0 0 1-.367.656 2.6 2.6 0 0 1-.539.5 4 4 0 0 1-.703.383v.023q.429.102.828.367.398.267.656.586.273.353.422.789.156.438.156.946.008.797-.305 1.406a3 3 0 0 1-.836 1.016 3.8 3.8 0 0 1-1.211.632 4.7 4.7 0 0 1-1.406.227zm1.453-5.32v4.093h2.226q.453-.007.86-.148.406-.148.718-.406.313-.258.493-.633a1.9 1.9 0 0 0 .187-.852 1.96 1.96 0 0 0-.164-.859 1.8 1.8 0 0 0-.461-.641 2.1 2.1 0 0 0-.695-.398 2.8 2.8 0 0 0-.86-.156zm0-1.203h2.015q.407-.008.797-.125.39-.126.696-.36.305-.226.492-.562a1.6 1.6 0 0 0 .187-.782q0-.476-.187-.812a1.6 1.6 0 0 0-.485-.555 2.2 2.2 0 0 0-.718-.312 3.6 3.6 0 0 0-.821-.11h-1.976zM203.69 130a1.7 1.7 0 0 1-.14-.406 5 5 0 0 1-.071-.516q-.218.219-.492.414a3.4 3.4 0 0 1-1.281.578 3.4 3.4 0 0 1-.781.086q-.672 0-1.219-.195a2.8 2.8 0 0 1-.914-.531 2.3 2.3 0 0 1-.594-.782 2.4 2.4 0 0 1-.203-.992q0-.695.273-1.218.282-.524.789-.876a3.7 3.7 0 0 1 1.219-.515 7 7 0 0 1 1.602-.172h1.578v-.664q0-.382-.141-.688a1.5 1.5 0 0 0-.398-.523 1.9 1.9 0 0 0-.633-.328 2.7 2.7 0 0 0-.828-.117q-.43 0-.774.109a1.9 1.9 0 0 0-.57.289q-.234.18-.367.43a1.1 1.1 0 0 0-.125.508h-1.453q.007-.462.234-.907.234-.445.672-.804a3.5 3.5 0 0 1 1.047-.571 4.3 4.3 0 0 1 1.414-.218q.719 0 1.336.179.617.172 1.07.524.446.359.703.89.258.532.258 1.243v3.929q0 .423.078.899.078.469.219.82V130zm-2.554-1.102q.422 0 .789-.109.366-.11.672-.289.296-.18.515-.406a2 2 0 0 0 .344-.485v-1.711h-1.344q-.75 0-1.312.133-.555.126-.883.391a1.3 1.3 0 0 0-.36.445 1.4 1.4 0 0 0-.117.586q0 .312.102.578.11.265.32.453.212.196.531.305.32.11.743.109m9.731.086q.39 0 .757-.125.375-.124.664-.351.29-.219.461-.516.18-.305.188-.656h1.367a2.24 2.24 0 0 1-.297 1.078q-.28.508-.758.891-.476.39-1.093.625a3.7 3.7 0 0 1-1.289.226q-.961 0-1.68-.344a3.4 3.4 0 0 1-1.195-.929 3.9 3.9 0 0 1-.727-1.336 5.3 5.3 0 0 1-.242-1.609v-.329q0-.836.242-1.601.242-.766.727-1.352a3.5 3.5 0 0 1 1.195-.922q.719-.343 1.68-.343.75 0 1.375.242.632.235 1.093.64.453.414.711.977t.258 1.203h-1.367a1.7 1.7 0 0 0-.172-.719 1.9 1.9 0 0 0-.43-.601 2 2 0 0 0-.656-.406 2.2 2.2 0 0 0-.812-.149q-.672 0-1.133.274a2.2 2.2 0 0 0-.735.695 3.1 3.1 0 0 0-.406.976q-.117.54-.117 1.086v.329q0 .554.117 1.101.125.538.406.969.274.436.727.711.46.265 1.141.265m8.059-2.929-1.063 1.023V130h-1.453v-12h1.453v7.344l.945-1.016 2.774-2.781h1.758l-3.422 3.523 3.945 4.93h-1.836zm6.332-.352q0-.945.227-1.734a4.1 4.1 0 0 1 .672-1.367 3.1 3.1 0 0 1 1.062-.891 3.05 3.05 0 0 1 1.414-.32q.508 0 .93.117a2.7 2.7 0 0 1 1.125.617q.171.156.32.344l.07-.922h1.313v8.273q0 .836-.266 1.485a3.1 3.1 0 0 1-.726 1.101 3.2 3.2 0 0 1-1.133.688 4.3 4.3 0 0 1-1.453.234q-.329 0-.75-.078a4.2 4.2 0 0 1-.852-.242 4 4 0 0 1-.843-.446 2.8 2.8 0 0 1-.688-.695l.75-.867q.265.32.547.539.28.227.57.359.29.133.578.188.29.063.578.062.516 0 .93-.148.414-.149.711-.438.29-.28.445-.703.157-.422.157-.968v-.727a3 3 0 0 1-.352.344 2.3 2.3 0 0 1-.391.273q-.327.18-.726.274a3.5 3.5 0 0 1-.859.101q-.774 0-1.399-.328a3.1 3.1 0 0 1-1.055-.906 4.3 4.3 0 0 1-.671-1.36 5.9 5.9 0 0 1-.235-1.695zm1.445.164q0 .618.125 1.172.133.555.415.977.273.422.703.672.43.242 1.031.242.375 0 .672-.086.304-.094.547-.258.234-.164.422-.391a2.8 2.8 0 0 0 .328-.5v-3.875a2.7 2.7 0 0 0-.328-.484 2.2 2.2 0 0 0-.43-.383 2 2 0 0 0-.539-.242 2.2 2.2 0 0 0-.656-.094q-.61 0-1.047.25a2.06 2.06 0 0 0-.703.672 3.1 3.1 0 0 0-.415.992q-.125.555-.125 1.172zm13.489-4.476q.399 0 .828.054.438.055.657.149l-.196 1.414a7 7 0 0 0-.804-.133 6 6 0 0 0-.79-.047q-.531 0-.96.133a2.28 2.28 0 0 0-1.258.914 3.2 3.2 0 0 0-.352.703V130h-1.453v-8.453h1.375l.063 1.133.007.211a3.85 3.85 0 0 1 1.235-1.094q.727-.406 1.648-.406m3.184 4.304q0-.913.266-1.695.265-.79.766-1.367a3.45 3.45 0 0 1 1.203-.906 3.7 3.7 0 0 1 1.601-.336q.899 0 1.61.336.719.327 1.218.906.492.578.758 1.367.266.781.266 1.695v.172q0 .915-.266 1.695-.266.781-.758 1.36a3.55 3.55 0 0 1-1.211.906 3.8 3.8 0 0 1-1.601.328 3.85 3.85 0 0 1-1.617-.328 3.5 3.5 0 0 1-1.203-.906 4 4 0 0 1-.766-1.36 5.2 5.2 0 0 1-.266-1.695zm1.446.172q0 .625.148 1.195.148.563.453.993.297.43.75.679t1.055.25q.594 0 1.039-.25a2.25 2.25 0 0 0 .758-.679q.297-.43.445-.993a4.7 4.7 0 0 0 .148-1.195v-.172q0-.617-.156-1.179a3.1 3.1 0 0 0-.445-1 2.25 2.25 0 0 0-.758-.68 2.05 2.05 0 0 0-1.047-.258q-.601 0-1.047.258a2.2 2.2 0 0 0-.742.68 3 3 0 0 0-.453 1 4.6 4.6 0 0 0-.148 1.179zm13.66 4.133-.086-1.164a3.04 3.04 0 0 1-1.054.976q-.633.344-1.461.344-.664 0-1.204-.203a2.35 2.35 0 0 1-.921-.648q-.384-.438-.594-1.11-.204-.679-.203-1.625v-5.023h1.445v5.039q0 .687.109 1.141.11.453.329.718.218.274.531.383.32.11.734.11.484 0 .867-.11a2.2 2.2 0 0 0 .664-.32q.235-.165.407-.391.179-.234.297-.508v-6.062h1.453V130zm3.559 0v-8.453h1.297l.102 1.25a4 4 0 0 1 .406-.485q.226-.227.477-.39.375-.25.812-.383.445-.14.938-.148.663 0 1.203.187a2.3 2.3 0 0 1 .929.586q.384.398.586 1.016.211.609.211 1.453V130h-1.445v-5.336q0-.563-.125-.953a1.55 1.55 0 0 0-.367-.633 1.5 1.5 0 0 0-.61-.351 2.7 2.7 0 0 0-.812-.11q-.399 0-.742.117-.344.11-.633.305a3 3 0 0 0-.438.399q-.195.226-.343.5V130zm8.856-4.297q0-.945.235-1.734.242-.797.687-1.367a3.01 3.01 0 0 1 2.461-1.211q.758 0 1.32.257.571.25.985.735V118h1.445v12h-1.328l-.063-.891a2.76 2.76 0 0 1-1.007.782q-.587.265-1.368.265a2.94 2.94 0 0 1-1.39-.328 3.2 3.2 0 0 1-1.055-.906 4.4 4.4 0 0 1-.68-1.36 5.8 5.8 0 0 1-.242-1.695zm1.445.164q0 .618.133 1.172.133.555.414.977.274.422.703.672.43.242 1.032.242.726 0 1.203-.328.476-.328.758-.883v-3.922a2.4 2.4 0 0 0-.758-.844q-.477-.336-1.188-.336-.609 0-1.047.25-.429.25-.703.672a3.1 3.1 0 0 0-.414.992q-.133.555-.133 1.172z"/><rect width="131" height="99" x="293.5" y=".5" fill="#F7F7F7" stroke="#C2C2C2" rx="11.5"/><path fill="#6B6B6B" d="m292.945 118.625 1.852 5.687 2-5.687h1.797V130h-1.406v-4.539l.117-4.75-2.102 6.125h-.828l-1.93-5.961.117 4.586V130h-1.406v-11.375zm7.138 7.07q0-.913.265-1.695.265-.79.766-1.367a3.45 3.45 0 0 1 1.203-.906 3.7 3.7 0 0 1 1.601-.336q.899 0 1.61.336.718.327 1.219.906.492.578.757 1.367.266.781.266 1.695v.172q0 .915-.266 1.695a4.1 4.1 0 0 1-.757 1.36 3.6 3.6 0 0 1-1.211.906q-.711.328-1.602.328a3.85 3.85 0 0 1-1.617-.328 3.5 3.5 0 0 1-1.203-.906 4 4 0 0 1-.766-1.36 5.2 5.2 0 0 1-.265-1.695zm1.445.172q0 .625.148 1.195.149.563.453.993.297.43.75.679t1.055.25q.594 0 1.039-.25a2.25 2.25 0 0 0 .758-.679q.297-.43.445-.993a4.7 4.7 0 0 0 .149-1.195v-.172q0-.617-.157-1.179a3.1 3.1 0 0 0-.445-1 2.25 2.25 0 0 0-.758-.68 2.05 2.05 0 0 0-1.047-.258q-.602 0-1.046.258a2.2 2.2 0 0 0-.743.68 3 3 0 0 0-.453 1 4.6 4.6 0 0 0-.148 1.179zm8.09 4.133v-8.453h1.297l.102 1.25a4 4 0 0 1 .406-.485q.227-.227.476-.39a3 3 0 0 1 .813-.383q.445-.14.937-.148.664 0 1.204.187a2.3 2.3 0 0 1 .929.586q.383.398.586 1.016.211.609.211 1.453V130h-1.445v-5.336q0-.563-.125-.953a1.56 1.56 0 0 0-.367-.633 1.5 1.5 0 0 0-.61-.351 2.7 2.7 0 0 0-.812-.11q-.399 0-.742.117-.345.11-.633.305a3 3 0 0 0-.438.399q-.195.226-.344.5V130zm8.723-4.305q0-.913.266-1.695.266-.79.765-1.367a3.5 3.5 0 0 1 1.204-.906 3.7 3.7 0 0 1 1.601-.336q.899 0 1.61.336.719.327 1.218.906.492.578.758 1.367.266.781.266 1.695v.172q0 .915-.266 1.695-.266.781-.758 1.36a3.55 3.55 0 0 1-1.211.906 3.8 3.8 0 0 1-1.601.328 3.85 3.85 0 0 1-1.617-.328 3.5 3.5 0 0 1-1.204-.906 4 4 0 0 1-.765-1.36 5.2 5.2 0 0 1-.266-1.695zm1.446.172q0 .625.148 1.195.149.563.453.993.297.43.75.679t1.055.25q.594 0 1.039-.25a2.25 2.25 0 0 0 .758-.679q.297-.43.445-.993a4.7 4.7 0 0 0 .148-1.195v-.172q0-.617-.156-1.179a3.1 3.1 0 0 0-.445-1 2.25 2.25 0 0 0-.758-.68 2.05 2.05 0 0 0-1.047-.258q-.601 0-1.047.258a2.2 2.2 0 0 0-.742.68 3 3 0 0 0-.453 1 4.6 4.6 0 0 0-.148 1.179zm14.41-.25h-5.976v-1.187h5.976zm2.794 4.383v-11.375h3.382q.704.008 1.375.187.672.172 1.196.54.523.367.836.937t.304 1.367a2.4 2.4 0 0 1-.148.813 2.3 2.3 0 0 1-.367.656 2.6 2.6 0 0 1-.539.5 4 4 0 0 1-.703.383v.023q.429.102.828.367.398.267.656.586.273.353.422.789.156.438.156.946.008.797-.305 1.406a3 3 0 0 1-.836 1.016 3.8 3.8 0 0 1-1.211.632 4.7 4.7 0 0 1-1.406.227zm1.453-5.32v4.093h2.226q.453-.007.86-.148.406-.148.718-.406.313-.258.493-.633a1.9 1.9 0 0 0 .187-.852 1.96 1.96 0 0 0-.164-.859 1.8 1.8 0 0 0-.461-.641 2.1 2.1 0 0 0-.695-.398 2.8 2.8 0 0 0-.86-.156zm0-1.203h2.015q.407-.008.797-.125.39-.126.696-.36.305-.226.492-.562a1.6 1.6 0 0 0 .187-.782q0-.476-.187-.812a1.6 1.6 0 0 0-.485-.555 2.2 2.2 0 0 0-.718-.312 3.6 3.6 0 0 0-.821-.11h-1.976zM351.69 130a1.7 1.7 0 0 1-.14-.406 5 5 0 0 1-.071-.516q-.218.219-.492.414a3.4 3.4 0 0 1-1.281.578 3.4 3.4 0 0 1-.781.086q-.672 0-1.219-.195a2.8 2.8 0 0 1-.914-.531 2.3 2.3 0 0 1-.594-.782 2.4 2.4 0 0 1-.203-.992q0-.695.273-1.218.282-.524.789-.876a3.7 3.7 0 0 1 1.219-.515 7 7 0 0 1 1.602-.172h1.578v-.664q0-.382-.141-.688a1.5 1.5 0 0 0-.398-.523 1.9 1.9 0 0 0-.633-.328 2.7 2.7 0 0 0-.828-.117q-.43 0-.774.109a1.9 1.9 0 0 0-.57.289q-.234.18-.367.43a1.1 1.1 0 0 0-.125.508h-1.453q.007-.462.234-.907.234-.445.672-.804a3.5 3.5 0 0 1 1.047-.571 4.3 4.3 0 0 1 1.414-.218q.719 0 1.336.179.617.172 1.07.524.446.359.703.89.258.532.258 1.243v3.929q0 .423.078.899.078.469.219.82V130zm-2.554-1.102q.422 0 .789-.109.366-.11.672-.289.296-.18.515-.406a2 2 0 0 0 .344-.485v-1.711h-1.344q-.75 0-1.312.133-.555.126-.883.391a1.3 1.3 0 0 0-.36.445 1.4 1.4 0 0 0-.117.586q0 .312.102.578.11.265.32.453.211.196.531.305.32.11.743.109m9.731.086q.39 0 .757-.125.375-.124.664-.351.29-.219.461-.516.18-.305.188-.656h1.367a2.24 2.24 0 0 1-.297 1.078q-.28.508-.758.891-.476.39-1.093.625a3.7 3.7 0 0 1-1.289.226q-.962 0-1.68-.344a3.4 3.4 0 0 1-1.195-.929 3.9 3.9 0 0 1-.727-1.336 5.3 5.3 0 0 1-.242-1.609v-.329q0-.836.242-1.601.242-.766.727-1.352a3.5 3.5 0 0 1 1.195-.922q.718-.343 1.68-.343.75 0 1.375.242.632.235 1.093.64.453.414.711.977t.258 1.203h-1.367a1.7 1.7 0 0 0-.172-.719 1.9 1.9 0 0 0-.43-.601 2 2 0 0 0-.656-.406 2.2 2.2 0 0 0-.812-.149q-.672 0-1.133.274a2.2 2.2 0 0 0-.735.695 3.1 3.1 0 0 0-.406.976q-.117.54-.117 1.086v.329q0 .554.117 1.101.125.538.406.969.274.436.727.711.46.265 1.141.265m8.059-2.929-1.063 1.023V130h-1.453v-12h1.453v7.344l.945-1.016 2.774-2.781h1.758l-3.422 3.523 3.945 4.93h-1.836zm6.332-.352q0-.945.227-1.734a4.1 4.1 0 0 1 .672-1.367 3.1 3.1 0 0 1 1.062-.891 3.05 3.05 0 0 1 1.414-.32q.508 0 .93.117a2.7 2.7 0 0 1 1.125.617q.171.156.32.344l.07-.922h1.313v8.273q0 .836-.266 1.485a3.1 3.1 0 0 1-.726 1.101 3.2 3.2 0 0 1-1.133.688 4.3 4.3 0 0 1-1.453.234q-.329 0-.75-.078a4.2 4.2 0 0 1-.852-.242 4 4 0 0 1-.843-.446 2.8 2.8 0 0 1-.688-.695l.75-.867q.265.32.547.539.28.227.57.359.29.133.578.188.29.063.578.062.516 0 .93-.148.414-.149.711-.438.29-.28.445-.703.157-.422.157-.968v-.727a3 3 0 0 1-.352.344 2.3 2.3 0 0 1-.391.273q-.327.18-.726.274a3.5 3.5 0 0 1-.859.101q-.774 0-1.399-.328a3.1 3.1 0 0 1-1.055-.906 4.3 4.3 0 0 1-.671-1.36 5.9 5.9 0 0 1-.235-1.695zm1.445.164q0 .618.125 1.172.133.555.415.977.273.422.703.672.43.242 1.031.242.375 0 .672-.086.304-.094.547-.258.234-.164.422-.391a2.8 2.8 0 0 0 .328-.5v-3.875a2.7 2.7 0 0 0-.328-.484 2.2 2.2 0 0 0-.43-.383 2 2 0 0 0-.539-.242 2.2 2.2 0 0 0-.656-.094q-.61 0-1.047.25a2.06 2.06 0 0 0-.703.672 3.1 3.1 0 0 0-.415.992q-.125.555-.125 1.172zm13.489-4.476q.399 0 .828.054.438.055.657.149l-.196 1.414a7 7 0 0 0-.804-.133 6 6 0 0 0-.79-.047q-.531 0-.96.133a2.28 2.28 0 0 0-1.258.914 3.2 3.2 0 0 0-.352.703V130h-1.453v-8.453h1.375l.063 1.133.007.211a3.85 3.85 0 0 1 1.235-1.094q.726-.406 1.648-.406m3.184 4.304q0-.913.266-1.695.265-.79.766-1.367a3.45 3.45 0 0 1 1.203-.906 3.7 3.7 0 0 1 1.601-.336q.899 0 1.61.336.719.327 1.218.906.492.578.758 1.367.266.781.266 1.695v.172q0 .915-.266 1.695-.266.781-.758 1.36a3.55 3.55 0 0 1-1.211.906 3.8 3.8 0 0 1-1.601.328 3.85 3.85 0 0 1-1.617-.328 3.5 3.5 0 0 1-1.203-.906 4 4 0 0 1-.766-1.36 5.2 5.2 0 0 1-.266-1.695zm1.446.172q0 .625.148 1.195.149.563.453.993.297.43.75.679t1.055.25q.594 0 1.039-.25a2.25 2.25 0 0 0 .758-.679q.297-.43.445-.993a4.7 4.7 0 0 0 .148-1.195v-.172q0-.617-.156-1.179a3.1 3.1 0 0 0-.445-1 2.25 2.25 0 0 0-.758-.68 2.05 2.05 0 0 0-1.047-.258q-.601 0-1.047.258a2.2 2.2 0 0 0-.742.68 3 3 0 0 0-.453 1 4.6 4.6 0 0 0-.148 1.179zm13.66 4.133-.086-1.164a3.04 3.04 0 0 1-1.054.976q-.633.344-1.461.344-.664 0-1.204-.203a2.35 2.35 0 0 1-.921-.648q-.384-.438-.594-1.11-.204-.679-.203-1.625v-5.023h1.445v5.039q0 .687.109 1.141.11.453.329.718.217.274.531.383.32.11.734.11.484 0 .867-.11a2.2 2.2 0 0 0 .664-.32q.235-.165.407-.391.179-.234.297-.508v-6.062h1.453V130zm3.559 0v-8.453h1.297l.102 1.25a4 4 0 0 1 .406-.485q.226-.227.477-.39.375-.25.812-.383.445-.14.938-.148.663 0 1.203.187a2.3 2.3 0 0 1 .929.586q.384.398.586 1.016.211.609.211 1.453V130h-1.445v-5.336q0-.563-.125-.953a1.55 1.55 0 0 0-.367-.633 1.5 1.5 0 0 0-.61-.351 2.7 2.7 0 0 0-.812-.11q-.399 0-.742.117-.344.11-.633.305a3 3 0 0 0-.438.399q-.195.226-.343.5V130zm8.856-4.297q0-.945.235-1.734.241-.797.687-1.367a3.01 3.01 0 0 1 2.461-1.211q.758 0 1.32.257.571.25.985.735V118h1.445v12h-1.328l-.063-.891a2.76 2.76 0 0 1-1.007.782q-.587.265-1.368.265a2.94 2.94 0 0 1-1.39-.328 3.2 3.2 0 0 1-1.055-.906 4.4 4.4 0 0 1-.68-1.36 5.8 5.8 0 0 1-.242-1.695zm1.445.164q0 .618.133 1.172.133.555.414.977.274.422.703.672.43.242 1.032.242.726 0 1.203-.328.476-.328.758-.883v-3.922a2.4 2.4 0 0 0-.758-.844q-.477-.336-1.188-.336-.609 0-1.047.25-.429.25-.703.672a3.1 3.1 0 0 0-.414.992q-.133.555-.133 1.172z"/></svg>