<svg xmlns="http://www.w3.org/2000/svg" width="908" height="218" fill="none" viewBox="0 0 908 218"><path fill="#fff" d="M275.5 55a7.5 7.5 0 0 1 7.5-7.5h342a7.5 7.5 0 0 1 7.5 7.5v79a7.5 7.5 0 0 1-7.5 7.5H283a7.5 7.5 0 0 1-7.5-7.5z"/><path stroke="#C2C2C2" d="M275.5 55a7.5 7.5 0 0 1 7.5-7.5h342a7.5 7.5 0 0 1 7.5 7.5v79a7.5 7.5 0 0 1-7.5 7.5H283a7.5 7.5 0 0 1-7.5-7.5z"/><path fill="#121212" d="M308.648 76.776h-3.504v10.336h-1.664V76.776h-3.52v-1.44h8.688zm6.125 5.536q-.113-.928-.656-1.552-.545-.64-1.568-.64-.929 0-1.616.64-.672.624-.816 1.568zm-6.256.64q0-1.232.512-2.192.511-.96 1.408-1.488.912-.544 2.08-.544 1.647 0 2.416.8.783.8 1.056 1.472.368.896.368 1.984 0 .225-.016.4a3 3 0 0 0-.016.208h-6.208q.144.96.832 1.568a2.32 2.32 0 0 0 1.584.608q.72 0 1.184-.224.48-.225.656-.416.175-.192.336-.432l1.344.608q-.384.784-1.28 1.328-.897.528-2.256.528-1.168 0-2.08-.528a3.8 3.8 0 0 1-1.408-1.504q-.513-.96-.512-2.176m13.752-.016 3.088 4.176h-2.064l-2-2.832-1.984 2.832h-2.064l3.04-4.176-3.104-4.192h2.08l2.032 2.912 2.016-2.912h2.08zm7.717 4.224q-1.088 0-1.792-.72t-.72-1.856v-4.32h-1.44v-1.456h1.44V76.52h1.664v2.288h1.792v1.456h-1.792v4.24q0 .432.24.752t.608.336q.272 0 .512-.048.257-.065.336-.08l.352 1.552q-.785.144-1.2.144M301.448 111.88a4.24 4.24 0 0 0 1.312 1.52q.832.56 1.712.56 1.152 0 1.872-.544.736-.56.736-1.456 0-.624-.368-1.04a2.8 2.8 0 0 0-.912-.672 15 15 0 0 0-1.472-.592q-1.152-.4-1.856-.752a3.45 3.45 0 0 1-1.184-1.008q-.496-.656-.496-1.68 0-.912.496-1.584.512-.672 1.376-1.024t1.92-.352q1.264 0 2.272.672t1.424 1.92l-1.264.448a2.4 2.4 0 0 0-.944-1.312 2.55 2.55 0 0 0-1.456-.496q-1.04 0-1.744.48-.688.463-.688 1.248 0 .608.368 1.024t.896.688q.544.256 1.488.592 1.152.416 1.856.784.704.352 1.2 1.008.496.64.496 1.664 0 .944-.512 1.68-.496.736-1.408 1.136t-2.08.4a4.4 4.4 0 0 1-2.4-.688q-1.088-.704-1.824-1.984zm10.609-.288q0 1.024.576 1.696.576.656 1.488.656 1.025 0 1.664-.608.64-.624.64-1.632v-4.912h1.408v8.272h-1.408v-1.232a3 3 0 0 1-1.072.96 2.7 2.7 0 0 1-1.344.368q-.96 0-1.728-.448a3.17 3.17 0 0 1-1.2-1.232q-.432-.784-.432-1.776v-4.912h1.408zm11.966 3.568q-.687 0-1.424-.368-.735-.368-1.264-1.216v1.488h-1.408v-11.68h1.408v4.992q.529-.848 1.264-1.216.737-.368 1.44-.368 1.152 0 2.048.544a3.63 3.63 0 0 1 1.392 1.472q.512.944.512 2.16t-.512 2.176q-.495.944-1.408 1.488-.896.528-2.048.528m-2.688-4.176q0 .816.352 1.504.369.688.976 1.088.609.4 1.312.4.753 0 1.344-.384.609-.384.928-1.056.336-.688.336-1.552t-.336-1.536a2.35 2.35 0 0 0-.928-1.056 2.4 2.4 0 0 0-1.344-.384q-.703 0-1.312.4-.607.4-.976 1.088a3.2 3.2 0 0 0-.352 1.488m11.1 4.112q-1.024 0-1.68-.672-.657-.672-.688-1.728v-4.624h-1.376v-1.232h1.376v-2.192h1.408v2.192h1.776v1.232h-1.776v4.528q0 .48.272.832.271.352.688.352.24 0 .432-.032t.384-.08l.256 1.296a5.3 5.3 0 0 1-1.072.128m8.547-4.704q-.112-1.024-.672-1.712-.544-.704-1.648-.704-1.008 0-1.728.688-.704.672-.848 1.744zm-6.288.544q0-1.216.496-2.16.495-.944 1.392-1.472.895-.528 2.032-.528 2.384 0 3.408 2.24.336.896.336 1.904a5 5 0 0 1-.032.624h-6.24q.159 1.04.864 1.696.72.656 1.68.656.768 0 1.264-.24.512-.24.704-.464.207-.24.368-.48l1.12.576q-.369.752-1.264 1.28-.88.528-2.208.528-1.137 0-2.032-.528a3.63 3.63 0 0 1-1.392-1.472q-.496-.944-.496-2.16m13.211 0 3.088 4.128h-1.744l-2.128-2.944-2.096 2.944h-1.76l3.056-4.128-3.088-4.144h1.776l2.112 2.992 2.128-2.992h1.76zm7.565 4.16q-1.024 0-1.68-.672t-.688-1.728v-4.624h-1.376v-1.232h1.376v-2.192h1.408v2.192h1.776v1.232h-1.776v4.528q0 .48.272.832a.83.83 0 0 0 .688.352q.24 0 .432-.032t.384-.08l.256 1.296a5.3 5.3 0 0 1-1.072.128"/><path fill="#6B6B6B" d="M298.576 162.576a.6.6 0 0 0 0 .848l3.818 3.819a.601.601 0 0 0 .849-.849L299.849 163l3.394-3.394a.601.601 0 0 0-.849-.849zm310.848.848a.6.6 0 0 0 0-.848l-3.818-3.819a.601.601 0 0 0-.849.849l3.394 3.394-3.394 3.394a.601.601 0 0 0 .849.849zM299 163.6h310v-1.2H299zM455.418 178.054h-5.614v3.248h4.718v1.26h-4.718v4.536h-1.456v-10.304h7.07zm3.024 1.764v7.28h-1.456v-7.28zm-1.554-2.38q0-.364.224-.588a.82.82 0 0 1 .602-.238q.365 0 .588.238a.77.77 0 0 1 .238.588.8.8 0 0 1-.238.588.77.77 0 0 1-.588.238.85.85 0 0 1-.602-.224.85.85 0 0 1-.224-.602m4.813-.644v10.304h-1.456v-10.304zm3.142 0v10.304h-1.456v-10.304z"/><path fill="red" fill-opacity=".1" d="M633 47v24H275V47zM633 122v20H275v-20z"/><path fill="#6B6B6B" d="M269.424 46.576a.6.6 0 0 0-.848 0l-3.819 3.818a.6.6 0 0 0 .849.849L269 47.848l3.394 3.395a.6.6 0 0 0 .849-.849zm-.848 24.848a.6.6 0 0 0 .848 0l3.819-3.818a.6.6 0 0 0-.849-.849L269 70.151l-3.394-3.394a.6.6 0 0 0-.849.849zM268.4 47v24h1.2V47zM269.424 121.576a.6.6 0 0 0-.848 0l-3.819 3.818a.601.601 0 0 0 .849.849l3.394-3.394 3.394 3.394a.601.601 0 0 0 .849-.849zm-.848 20.848a.6.6 0 0 0 .848 0l3.819-3.818a.601.601 0 0 0-.849-.849L269 141.151l-3.394-3.394a.601.601 0 0 0-.849.849zM268.4 122v20h1.2v-20zM227.276 60.768l1.428-1.316a62 62 0 0 0 1.806-1.68q.686-.672 1.148-1.372.462-.714.462-1.344 0-.868-.504-1.414-.49-.56-1.274-.56-.602 0-1.162.392a2.35 2.35 0 0 0-.826 1.008l-1.274-.56a3.56 3.56 0 0 1 1.33-1.554q.924-.615 1.932-.616.938 0 1.666.42.742.42 1.148 1.176.42.742.42 1.708 0 .953-.574 1.89a8.6 8.6 0 0 1-1.372 1.736 36 36 0 0 1-2.044 1.862l-.252.224h4.396v1.274h-6.314zm13.667-2.646h1.302v1.274h-1.302v2.646h-1.442v-2.646h-4.396l-.14-1.274 4.592-6.272h1.386zm-1.442 0v-3.85l-2.8 3.85zm8.066 2.842q.938 0 1.526-.686.588-.7.588-1.82 0-1.106-.588-1.792t-1.526-.686a1.93 1.93 0 0 0-1.092.336 2.37 2.37 0 0 0-.798.91 2.6 2.6 0 0 0-.294 1.232q0 .686.294 1.26t.798.91 1.092.336m-3.654-6.188h1.456v1.26q.378-.63 1.05-.938.672-.322 1.232-.322 1.022 0 1.806.476.798.462 1.232 1.302.448.825.448 1.904t-.448 1.932q-.434.84-1.232 1.316-.784.462-1.806.462-.56 0-1.232-.322a2.5 2.5 0 0 1-1.05-.966v4.354h-1.456zm12.367 3.668 2.702 3.654h-1.806l-1.75-2.478-1.736 2.478h-1.806l2.66-3.654-2.716-3.668h1.82l1.778 2.548 1.764-2.548h1.82zM227.119 135.768q.195-.182 1.428-1.316a61 61 0 0 0 1.806-1.68 8.5 8.5 0 0 0 1.148-1.372q.462-.714.462-1.344 0-.868-.504-1.414-.49-.56-1.274-.56-.603 0-1.162.392a2.33 2.33 0 0 0-.826 1.008l-1.274-.56a3.56 3.56 0 0 1 1.33-1.554q.924-.616 1.932-.616.937 0 1.666.42.741.42 1.148 1.176.42.742.42 1.708 0 .952-.574 1.89a8.7 8.7 0 0 1-1.372 1.736 36 36 0 0 1-2.044 1.862l-.252.224h4.396v1.274h-6.314zm11.497.084q.686 0 1.218-.49.546-.49.84-1.372.294-.896.294-2.044 0-1.162-.294-2.044t-.826-1.372a1.76 1.76 0 0 0-1.232-.49q-.7 0-1.246.49-.532.49-.826 1.372t-.294 2.044q0 1.148.294 2.044.294.882.826 1.372.546.49 1.246.49m-3.822-3.906q0-1.498.49-2.674.49-1.19 1.358-1.848a3.14 3.14 0 0 1 1.974-.672 3.14 3.14 0 0 1 1.974.672q.867.658 1.344 1.848.49 1.176.49 2.674 0 1.499-.49 2.688-.477 1.176-1.344 1.834a3.18 3.18 0 0 1-1.974.658 3.18 3.18 0 0 1-1.974-.658q-.869-.658-1.358-1.834-.49-1.19-.49-2.688m12.93 4.018q.938 0 1.526-.686.588-.7.588-1.82 0-1.106-.588-1.792-.587-.686-1.526-.686a1.93 1.93 0 0 0-1.092.336 2.36 2.36 0 0 0-.798.91 2.6 2.6 0 0 0-.294 1.232q0 .686.294 1.26t.798.91 1.092.336m-3.654-6.188h1.456v1.26q.378-.63 1.05-.938.672-.322 1.232-.322 1.023 0 1.806.476.798.462 1.232 1.302.448.826.448 1.904t-.448 1.932q-.434.84-1.232 1.316-.783.462-1.806.462-.56 0-1.232-.322a2.5 2.5 0 0 1-1.05-.966v4.354h-1.456zm12.367 3.668 2.702 3.654h-1.806l-1.75-2.478-1.736 2.478h-1.806l2.66-3.654-2.716-3.668h1.82l1.778 2.548 1.764-2.548h1.82z"/><path stroke="#BB362A" d="M299 47v135M609 47v135"/></svg>