<svg width="358" height="121" viewBox="0 0 358 121" fill="none" xmlns="http://www.w3.org/2000/svg">
<path d="M0.5 8C0.5 3.85786 3.85786 0.5 8 0.5H350C354.142 0.5 357.5 3.85786 357.5 8V113C357.5 117.142 354.142 120.5 350 120.5H8C3.85787 120.5 0.5 117.142 0.5 113V8Z" fill="white"/>
<path d="M0.5 8C0.5 3.85786 3.85786 0.5 8 0.5H350C354.142 0.5 357.5 3.85786 357.5 8V113C357.5 117.142 354.142 120.5 350 120.5H8C3.85787 120.5 0.5 117.142 0.5 113V8Z" stroke="#C2C2C2"/>
<path d="M34.656 36.544C34.8267 36.2453 34.9653 35.8827 35.072 35.456C35.1893 35.0187 35.248 34.6133 35.248 34.24C35.248 33.344 35.072 32.5493 34.72 31.856C34.3787 31.1627 33.888 30.6293 33.248 30.256C32.6187 29.872 31.888 29.68 31.056 29.68C30.224 29.68 29.488 29.872 28.848 30.256C28.2187 30.6293 27.728 31.1627 27.376 31.856C27.0347 32.5493 26.864 33.344 26.864 34.24C26.864 35.136 27.0347 35.9307 27.376 36.624C27.728 37.3067 28.2187 37.84 28.848 38.224C29.488 38.5973 30.224 38.784 31.056 38.784C31.5253 38.784 32 38.6987 32.48 38.528C32.96 38.3467 33.3547 38.112 33.664 37.824L32.048 36.112L33.232 35.008L34.656 36.544ZM25.184 34.24C25.184 33.0773 25.4347 32.0427 25.936 31.136C26.4373 30.2187 27.1307 29.504 28.016 28.992C28.912 28.48 29.9253 28.224 31.056 28.224C32.1867 28.224 33.1947 28.48 34.08 28.992C34.976 29.504 35.6747 30.2187 36.176 31.136C36.6773 32.0427 36.928 33.0773 36.928 34.24C36.9067 34.8267 36.7947 35.456 36.592 36.128C36.3893 36.7893 36.1333 37.344 35.824 37.792L37.104 39.12L35.92 40.224L34.72 38.912C34.2827 39.3067 33.7227 39.6267 33.04 39.872C32.3573 40.1173 31.696 40.24 31.056 40.24C29.9253 40.24 28.912 39.984 28.016 39.472C27.1307 38.96 26.4373 38.2507 25.936 37.344C25.4347 36.4373 25.184 35.4027 25.184 34.24ZM39.8831 38.4C40.1711 38.4 40.4058 38.4907 40.5871 38.672C40.7685 38.8533 40.8591 39.088 40.8591 39.376C40.8591 39.6747 40.7685 39.9147 40.5871 40.096C40.4058 40.2773 40.1711 40.368 39.8831 40.368C39.5951 40.368 39.3551 40.2773 39.1631 40.096C38.9818 39.9147 38.8911 39.6747 38.8911 39.376C38.8911 39.088 38.9818 38.8533 39.1631 38.672C39.3551 38.4907 39.5951 38.4 39.8831 38.4ZM56.5041 31.68V27.04H58.2161V41.312H56.5041V33.056H53.5281V31.68H56.5041ZM46.2641 36.976C47.0001 36.624 47.6348 36.112 48.1681 35.44C48.7121 34.7573 49.1281 33.984 49.4161 33.12C49.7041 32.256 49.8481 31.376 49.8481 30.48V28.192H51.5761V30.48C51.5761 31.3653 51.7148 32.224 51.9921 33.056C52.2695 33.888 52.6695 34.6293 53.1921 35.28C53.7148 35.92 54.3388 36.4053 55.0641 36.736L54.0561 38.112C53.2775 37.728 52.6055 37.1787 52.0401 36.464C51.4748 35.7493 51.0321 34.912 50.7121 33.952C50.3921 34.9547 49.9441 35.84 49.3681 36.608C48.7921 37.376 48.1148 37.9573 47.3361 38.352L46.2641 36.976ZM73.0965 35.456V36.832H69.9765V41.28H68.2645V36.832H65.0645V41.28H63.3525V36.832H60.2165V35.456H73.0965ZM61.7205 27.552H71.5765V31.488H63.4965V32.864H71.9285V34.256H61.7525V30.208H69.8485V28.928H61.7205V27.552ZM75.3049 42.176H74.0729L74.6649 38.544H76.3769L75.3049 42.176ZM89.3279 28.224V29.408H92.1919V27.072H93.9039V37.424H92.1919V33.84H89.3279V35.072H82.7199V28.224H89.3279ZM87.6479 33.696V29.6H84.3999V33.696H87.6479ZM84.6239 36.464H86.3359V39.616H94.2239V41.008H84.6239V36.464ZM92.1919 32.464V30.784H89.3279V32.464H92.1919ZM106 30.352V27.056H107.712V34.816H106V31.744H103.552V30.352H106ZM95.8883 33.696C96.9763 33.3227 97.8243 32.72 98.4323 31.888C99.0403 31.056 99.3443 30.1493 99.3443 29.168V29.152H96.3843V27.792H104V29.152H101.072V29.168C101.072 30.0747 101.36 30.9227 101.936 31.712C102.523 32.4907 103.344 33.0613 104.4 33.424L103.552 34.768C102.784 34.5013 102.118 34.112 101.552 33.6C100.998 33.088 100.56 32.48 100.24 31.776C99.9203 32.544 99.4616 33.216 98.8643 33.792C98.2776 34.368 97.5736 34.7947 96.7523 35.072L95.8883 33.696ZM98.4323 35.424H100.128V36.928H106.016V35.424H107.712V41.104H98.4323V35.424ZM106.016 39.728V38.272H100.128V39.728H106.016ZM123.352 30.832V27.072H125.08V37.44H123.352V32.24H120.856V30.832H123.352ZM113.24 34.416C114.328 34.0427 115.176 33.44 115.784 32.608C116.392 31.776 116.696 30.8693 116.696 29.888V29.472H113.736V28.096H121.352V29.472H118.44V29.888C118.44 30.784 118.728 31.6267 119.304 32.416C119.891 33.2053 120.707 33.776 121.752 34.128L120.904 35.488C120.136 35.2107 119.469 34.816 118.904 34.304C118.349 33.792 117.912 33.1893 117.592 32.496C117.283 33.264 116.829 33.936 116.232 34.512C115.635 35.088 114.925 35.5147 114.104 35.792L113.24 34.416ZM115.816 36.56H117.544V39.616H125.448V41.008H115.816V36.56ZM137.176 30.304V27.056H138.888V36.176H137.176V34.496H135.08V33.12H137.176V31.68H135.112V30.304H137.176ZM127.112 28.464H130.28V26.928H132.008V28.464H135V29.824H127.112V28.464ZM127.848 33.056C127.848 32.544 127.987 32.0907 128.264 31.696C128.542 31.2907 128.931 30.976 129.432 30.752C129.934 30.528 130.499 30.416 131.128 30.416C131.768 30.416 132.334 30.528 132.824 30.752C133.326 30.976 133.715 31.2907 133.992 31.696C134.27 32.0907 134.408 32.544 134.408 33.056C134.408 33.5787 134.27 34.0427 133.992 34.448C133.715 34.8533 133.326 35.168 132.824 35.392C132.334 35.616 131.768 35.728 131.128 35.728C130.499 35.728 129.934 35.616 129.432 35.392C128.931 35.168 128.542 34.8533 128.264 34.448C127.987 34.0427 127.848 33.5787 127.848 33.056ZM129.336 38.8C129.336 38.032 129.763 37.4293 130.616 36.992C131.48 36.5547 132.659 36.336 134.152 36.336C135.646 36.336 136.819 36.5547 137.672 36.992C138.536 37.4293 138.968 38.032 138.968 38.8C138.968 39.568 138.536 40.1707 137.672 40.608C136.819 41.0453 135.646 41.264 134.152 41.264C132.659 41.264 131.48 41.0453 130.616 40.608C129.763 40.1707 129.336 39.568 129.336 38.8ZM129.448 33.056C129.448 33.4827 129.598 33.8187 129.896 34.064C130.206 34.3093 130.616 34.432 131.128 34.432C131.63 34.432 132.035 34.3093 132.344 34.064C132.654 33.8187 132.808 33.4827 132.808 33.056C132.808 32.64 132.654 32.3147 132.344 32.08C132.035 31.8347 131.63 31.712 131.128 31.712C130.616 31.712 130.206 31.8347 129.896 32.08C129.598 32.3147 129.448 32.64 129.448 33.056ZM131.144 38.8C131.144 39.184 131.406 39.472 131.928 39.664C132.451 39.856 133.192 39.952 134.152 39.952C135.112 39.952 135.848 39.856 136.36 39.664C136.883 39.472 137.144 39.184 137.144 38.8C137.144 38.4267 136.888 38.144 136.376 37.952C135.864 37.76 135.123 37.664 134.152 37.664C133.182 37.664 132.435 37.76 131.912 37.952C131.4 38.144 131.144 38.4267 131.144 38.8ZM152.649 27.04V41.312H150.921V27.04H152.649ZM141.369 33.104C141.369 32.1013 141.524 31.2213 141.833 30.464C142.153 29.696 142.59 29.1093 143.145 28.704C143.7 28.288 144.334 28.08 145.049 28.08C145.764 28.08 146.398 28.288 146.953 28.704C147.508 29.1093 147.94 29.696 148.249 30.464C148.569 31.2213 148.729 32.1013 148.729 33.104C148.729 34.1173 148.569 35.008 148.249 35.776C147.94 36.5333 147.508 37.12 146.953 37.536C146.398 37.952 145.764 38.16 145.049 38.16C144.334 38.16 143.7 37.952 143.145 37.536C142.59 37.12 142.153 36.5333 141.833 35.776C141.524 35.008 141.369 34.1173 141.369 33.104ZM143.033 33.104C143.033 34.192 143.214 35.0453 143.577 35.664C143.95 36.2827 144.441 36.592 145.049 36.592C145.657 36.592 146.148 36.2827 146.521 35.664C146.894 35.0453 147.081 34.192 147.081 33.104C147.081 32.0267 146.894 31.184 146.521 30.576C146.148 29.9573 145.657 29.648 145.049 29.648C144.441 29.648 143.95 29.9573 143.577 30.576C143.214 31.184 143.033 32.0267 143.033 33.104ZM163.281 35.744V36.336C163.281 36.9653 163.425 37.568 163.713 38.144C164.011 38.7093 164.454 39.1787 165.041 39.552C165.638 39.1573 166.086 38.672 166.385 38.096C166.694 37.5093 166.849 36.9227 166.849 36.336V35.744H168.529V36.336C168.529 37.1147 168.763 37.8187 169.233 38.448C169.702 39.0667 170.379 39.5253 171.265 39.824L170.433 41.072C169.771 40.848 169.206 40.5173 168.737 40.08C168.278 39.6533 167.921 39.152 167.665 38.576C167.419 39.1627 167.078 39.6853 166.641 40.144C166.214 40.6027 165.697 40.96 165.089 41.216C163.841 40.7573 162.966 39.888 162.465 38.608C162.198 39.1733 161.835 39.664 161.377 40.08C160.929 40.5067 160.385 40.8373 159.745 41.072L158.897 39.824C159.771 39.5147 160.443 39.04 160.913 38.4C161.393 37.7493 161.633 37.0613 161.633 36.336V35.744H163.281ZM158.545 31.2C158.545 30.5493 158.705 29.9733 159.025 29.472C159.355 28.96 159.809 28.56 160.385 28.272C160.961 27.984 161.611 27.84 162.337 27.84C163.062 27.84 163.713 27.984 164.289 28.272C164.865 28.56 165.313 28.96 165.633 29.472C165.963 29.9733 166.129 30.5493 166.129 31.2C166.129 31.8507 165.963 32.432 165.633 32.944C165.313 33.456 164.865 33.856 164.289 34.144C163.713 34.4213 163.062 34.56 162.337 34.56C161.611 34.56 160.961 34.4213 160.385 34.144C159.809 33.856 159.355 33.456 159.025 32.944C158.705 32.432 158.545 31.8507 158.545 31.2ZM160.225 31.2C160.225 31.7867 160.422 32.256 160.817 32.608C161.211 32.96 161.718 33.136 162.337 33.136C162.966 33.136 163.473 32.96 163.857 32.608C164.251 32.256 164.449 31.7867 164.449 31.2C164.449 30.6133 164.251 30.144 163.857 29.792C163.462 29.44 162.955 29.264 162.337 29.264C161.718 29.264 161.211 29.44 160.817 29.792C160.422 30.144 160.225 30.6133 160.225 31.2ZM168.305 27.072H170.033V35.152H168.305V27.072ZM183.169 27.04V32.56H185.265V33.984H183.169V41.264H181.441V27.04H183.169ZM172.609 28.416H174.321V36.32C176.476 36.288 178.481 36.08 180.337 35.696L180.529 37.12C178.46 37.536 176.214 37.744 173.793 37.744H172.609V28.416ZM188.898 38.144V34.496C188.322 34.1653 187.879 33.7547 187.57 33.264C187.26 32.7627 187.106 32.2027 187.106 31.584C187.106 30.8373 187.33 30.1813 187.778 29.616C188.226 29.04 188.844 28.5973 189.634 28.288C190.434 27.9787 191.34 27.824 192.354 27.824C193.367 27.824 194.268 27.9787 195.058 28.288C195.858 28.5973 196.482 29.04 196.93 29.616C197.378 30.1813 197.602 30.8373 197.602 31.584C197.602 32.192 197.447 32.7467 197.138 33.248C196.828 33.7493 196.391 34.1653 195.826 34.496V38.144H198.802V39.536H185.922V38.144H188.898ZM188.786 31.584C188.786 32.32 189.111 32.9067 189.762 33.344C190.423 33.7707 191.287 33.984 192.354 33.984C193.42 33.984 194.279 33.7707 194.93 33.344C195.591 32.9067 195.922 32.32 195.922 31.584C195.922 30.848 195.591 30.2667 194.93 29.84C194.279 29.4027 193.42 29.184 192.354 29.184C191.287 29.184 190.423 29.4027 189.762 29.84C189.111 30.2667 188.786 30.848 188.786 31.584ZM194.098 38.144V35.136C193.532 35.2533 192.951 35.312 192.354 35.312C191.756 35.312 191.175 35.2533 190.61 35.136V38.144H194.098ZM203.362 40.368C203.063 40.368 202.823 40.272 202.642 40.08C202.461 39.8987 202.37 39.664 202.37 39.376C202.37 39.088 202.461 38.8533 202.642 38.672C202.823 38.4907 203.063 38.4 203.362 38.4C203.65 38.4 203.885 38.4907 204.066 38.672C204.247 38.8533 204.338 39.088 204.338 39.376C204.338 39.664 204.247 39.8987 204.066 40.08C203.885 40.272 203.65 40.368 203.362 40.368ZM199.874 30.4C200.173 29.6107 200.669 28.9653 201.362 28.464C202.066 27.9627 202.818 27.712 203.618 27.712C204.343 27.712 204.983 27.8613 205.538 28.16C206.103 28.448 206.541 28.8587 206.85 29.392C207.159 29.9147 207.314 30.512 207.314 31.184C207.314 31.8133 207.149 32.4213 206.818 33.008C206.487 33.5947 205.933 34.176 205.154 34.752C204.749 35.0507 204.482 35.3387 204.354 35.616C204.226 35.8933 204.167 36.32 204.178 36.896L202.498 36.928C202.487 36.1067 202.61 35.424 202.866 34.88C203.122 34.336 203.549 33.8453 204.146 33.408C204.733 32.96 205.127 32.5813 205.33 32.272C205.533 31.952 205.634 31.5947 205.634 31.2C205.634 30.6773 205.447 30.2507 205.074 29.92C204.701 29.5787 204.215 29.408 203.618 29.408C203.159 29.408 202.727 29.5573 202.322 29.856C201.927 30.1547 201.639 30.5387 201.458 31.008L199.874 30.4Z" fill="#121212"/>
<path d="M36.24 68.064H34.72L33.392 64.784H27.952L26.592 68.064H25.072L29.888 56.384H31.504L36.24 68.064ZM32.896 63.552L30.688 58.144L28.448 63.552H32.896ZM38.9765 66.512C39.2432 66.512 39.4565 66.592 39.6165 66.752C39.7765 66.912 39.8565 67.1253 39.8565 67.392C39.8565 67.6587 39.7765 67.872 39.6165 68.032C39.4565 68.2027 39.2432 68.288 38.9765 68.288C38.7098 68.288 38.4912 68.2027 38.3205 68.032C38.1605 67.872 38.0805 67.6587 38.0805 67.392C38.0805 67.1253 38.1605 66.912 38.3205 66.752C38.4912 66.592 38.7098 66.512 38.9765 66.512ZM48.4005 63.392V65.056H50.6245V63.392H51.9845V69.04H47.0245V63.392H48.4005ZM45.6485 58.976C45.6485 58.336 45.8032 57.7707 46.1125 57.28C46.4325 56.7893 46.8698 56.4053 47.4245 56.128C47.9792 55.8507 48.6032 55.712 49.2965 55.712C50.2245 55.712 51.0192 55.9573 51.6805 56.448C52.3525 56.928 52.7578 57.5627 52.8965 58.352H55.6325V55.12H57.0885V62.576H55.6325V59.552H52.9125C52.7738 60.3627 52.3738 61.0187 51.7125 61.52C51.0512 62.0107 50.2458 62.256 49.2965 62.256C48.6032 62.256 47.9792 62.1173 47.4245 61.84C46.8698 61.5627 46.4325 61.1787 46.1125 60.688C45.8032 60.1867 45.6485 59.616 45.6485 58.976ZM47.0565 58.976C47.0565 59.584 47.2645 60.08 47.6805 60.464C48.0965 60.848 48.6352 61.04 49.2965 61.04C49.9578 61.04 50.4965 60.848 50.9125 60.464C51.3392 60.08 51.5525 59.584 51.5525 58.976C51.5525 58.368 51.3392 57.8773 50.9125 57.504C50.4965 57.12 49.9578 56.928 49.2965 56.928C48.6352 56.928 48.0965 57.12 47.6805 57.504C47.2645 57.8773 47.0565 58.368 47.0565 58.976ZM50.6245 67.92V66.144H48.4005V67.92H50.6245ZM52.0645 68.064C52.8752 67.7227 53.4938 67.2213 53.9205 66.56C54.3578 65.8987 54.5765 65.1947 54.5765 64.448V63.296H56.0165V64.448C56.0165 65.2267 56.2352 65.9467 56.6725 66.608C57.1098 67.2693 57.7338 67.7547 58.5445 68.064L57.8085 69.168C57.2005 68.9227 56.6832 68.576 56.2565 68.128C55.8405 67.6907 55.5205 67.184 55.2965 66.608C55.0618 67.184 54.7312 67.6907 54.3045 68.128C53.8885 68.576 53.3818 68.9227 52.7845 69.168L52.0645 68.064ZM62.2729 63.568V65.104H68.8969V63.568H70.3369V69.04H60.8329V63.568H62.2729ZM59.2489 61.488H72.0009V62.656H59.2489V61.488ZM59.9529 59.424C60.8489 59.3067 61.6702 59.072 62.4169 58.72C63.1742 58.368 63.7715 57.9413 64.2089 57.44C64.6569 56.928 64.8809 56.3947 64.8809 55.84V55.264H66.3849V55.84C66.3849 56.384 66.6089 56.912 67.0569 57.424C67.5049 57.936 68.1022 58.3733 68.8489 58.736C69.6062 59.088 70.4222 59.3173 71.2969 59.424L70.7689 60.56C69.6382 60.4 68.6089 60.064 67.6809 59.552C66.7635 59.0293 66.0809 58.3947 65.6329 57.648C65.1955 58.3947 64.5129 59.0293 63.5849 59.552C62.6675 60.064 61.6382 60.4 60.4969 60.56L59.9529 59.424ZM68.8969 67.872V66.224H62.2729V67.872H68.8969ZM84.6733 55.104V69.216H83.2333V55.104H84.6733ZM73.9213 56.48H75.3773V64.368C77.7026 64.3467 79.8573 64.128 81.8413 63.712L82.0333 64.944C79.8893 65.392 77.5853 65.616 75.1213 65.616H73.9213V56.48ZM97.8096 55.088V60.592H100.05V61.808H97.8096V69.248H96.3376V55.088H97.8096ZM87.5056 56.48H94.0656V57.648H88.9456V64.528C90.2256 64.528 91.3296 64.496 92.2576 64.432C93.1963 64.3573 94.1456 64.2293 95.1056 64.048L95.2656 65.28C94.2416 65.472 93.2336 65.6 92.2416 65.664C91.2496 65.728 90.0443 65.76 88.6256 65.76H87.5056V56.48ZM103.426 65.072H102.114L101.858 56.192H103.65L103.426 65.072ZM101.874 67.376C101.874 67.12 101.959 66.912 102.13 66.752C102.301 66.5813 102.519 66.496 102.786 66.496C103.042 66.496 103.25 66.5813 103.41 66.752C103.581 66.912 103.666 67.12 103.666 67.376C103.666 67.6427 103.581 67.8613 103.41 68.032C103.25 68.2027 103.042 68.288 102.786 68.288C102.519 68.288 102.301 68.2027 102.13 68.032C101.959 67.8613 101.874 67.6427 101.874 67.376ZM115.707 64.88C117.254 64.88 118.449 65.0667 119.291 65.44C120.134 65.8027 120.555 66.336 120.555 67.04C120.555 67.744 120.134 68.2773 119.291 68.64C118.449 69.0133 117.254 69.2 115.707 69.2C114.139 69.2 112.939 69.0133 112.107 68.64C111.275 68.2773 110.859 67.744 110.859 67.04C110.859 66.336 111.275 65.8027 112.107 65.44C112.939 65.0667 114.139 64.88 115.707 64.88ZM109.339 62.928H114.987V61.92C113.729 61.8667 112.769 61.6747 112.107 61.344C111.457 61.0027 111.131 60.528 111.131 59.92C111.131 59.2693 111.521 58.7733 112.299 58.432C113.089 58.0907 114.225 57.92 115.707 57.92C117.19 57.92 118.326 58.0907 119.115 58.432C119.905 58.7733 120.299 59.2693 120.299 59.92C120.299 60.528 119.969 61.0027 119.307 61.344C118.646 61.6747 117.691 61.8667 116.443 61.92V62.928H122.091V64.08H109.339V62.928ZM109.995 56.24H114.987V54.928H116.443V56.24H121.371V57.392H109.995V56.24ZM112.347 67.04C112.347 67.7547 113.467 68.112 115.707 68.112C117.937 68.112 119.051 67.7547 119.051 67.04C119.051 66.6773 118.763 66.4053 118.187 66.224C117.622 66.0427 116.795 65.952 115.707 65.952C114.609 65.952 113.771 66.0427 113.195 66.224C112.63 66.4053 112.347 66.6773 112.347 67.04ZM112.667 59.92C112.667 60.2507 112.923 60.5013 113.435 60.672C113.958 60.832 114.715 60.912 115.707 60.912C116.699 60.912 117.457 60.832 117.979 60.672C118.502 60.5013 118.763 60.2507 118.763 59.92C118.763 59.6 118.502 59.3547 117.979 59.184C117.457 59.0133 116.699 58.928 115.707 58.928C114.726 58.928 113.974 59.0133 113.451 59.184C112.929 59.3547 112.667 59.6 112.667 59.92ZM134.748 64.208V69.232H133.292V65.408H125.292V64.208H134.748ZM123.452 59.312C123.452 58.6613 123.612 58.08 123.932 57.568C124.252 57.056 124.695 56.656 125.26 56.368C125.825 56.08 126.46 55.936 127.164 55.936C127.868 55.936 128.503 56.08 129.068 56.368C129.633 56.656 130.076 57.056 130.396 57.568C130.716 58.08 130.876 58.6613 130.876 59.312C130.876 59.9627 130.716 60.544 130.396 61.056C130.076 61.5573 129.633 61.952 129.068 62.24C128.503 62.528 127.868 62.672 127.164 62.672C126.46 62.672 125.825 62.528 125.26 62.24C124.695 61.952 124.252 61.5573 123.932 61.056C123.612 60.544 123.452 59.9627 123.452 59.312ZM124.876 59.312C124.876 59.952 125.089 60.4693 125.516 60.864C125.943 61.248 126.492 61.44 127.164 61.44C127.836 61.44 128.385 61.248 128.812 60.864C129.239 60.4693 129.452 59.952 129.452 59.312C129.452 58.672 129.239 58.16 128.812 57.776C128.385 57.3813 127.836 57.184 127.164 57.184C126.492 57.184 125.943 57.3813 125.516 57.776C125.089 58.16 124.876 58.672 124.876 59.312ZM133.292 55.12H134.748V63.472H133.292V55.12ZM148.988 55.104V69.216H147.596V61.92H145.772V68.496H144.412V55.408H145.772V60.704H147.596V55.104H148.988ZM137.484 56.816H142.7V58H138.924V64.592C139.842 64.5813 140.647 64.5493 141.34 64.496C142.034 64.4427 142.732 64.3467 143.436 64.208L143.596 65.408C142.786 65.568 141.991 65.6747 141.212 65.728C140.444 65.7813 139.511 65.808 138.412 65.808H137.484V56.816ZM154.285 56.544V55.024H155.741V56.544H159.181V57.712H150.845V56.544H154.285ZM151.613 60.944C151.613 60.432 151.751 59.984 152.029 59.6C152.317 59.2053 152.717 58.9013 153.229 58.688C153.751 58.4747 154.343 58.368 155.005 58.368C155.677 58.368 156.269 58.4747 156.781 58.688C157.303 58.9013 157.703 59.2053 157.981 59.6C158.269 59.984 158.413 60.432 158.413 60.944C158.413 61.712 158.098 62.3307 157.469 62.8C156.85 63.2587 156.029 63.488 155.005 63.488C153.991 63.488 153.17 63.2587 152.541 62.8C151.922 62.3307 151.613 61.712 151.613 60.944ZM152.589 64.656H161.805V69.232H160.333V65.84H152.589V64.656ZM153.005 60.944C153.005 61.3707 153.186 61.7173 153.549 61.984C153.922 62.2507 154.407 62.384 155.005 62.384C155.602 62.384 156.082 62.2507 156.445 61.984C156.818 61.7173 157.005 61.3707 157.005 60.944C157.005 60.496 156.823 60.144 156.461 59.888C156.098 59.632 155.613 59.504 155.005 59.504C154.397 59.504 153.911 59.632 153.549 59.888C153.186 60.144 153.005 60.496 153.005 60.944ZM160.333 55.12H161.805V58.944H163.837V60.16H161.805V63.936H160.333V55.12ZM175.981 56.464V57.984C175.981 59.1893 175.954 60.2507 175.901 61.168C175.848 62.0747 175.709 63.12 175.485 64.304L174.045 64.144C174.258 63.024 174.392 62.016 174.445 61.12C174.498 60.2133 174.525 59.168 174.525 57.984V57.664H165.933V56.464H175.981ZM164.637 66.096H167.661V61.488H169.101V66.096H171.165V61.488H172.605V66.096H177.405V67.312H164.637V66.096ZM185.461 56.544V55.024H186.917V56.544H190.357V57.712H182.021V56.544H185.461ZM182.789 60.944C182.789 60.432 182.928 59.984 183.205 59.6C183.493 59.2053 183.893 58.9013 184.405 58.688C184.928 58.4747 185.52 58.368 186.181 58.368C186.853 58.368 187.445 58.4747 187.957 58.688C188.48 58.9013 188.88 59.2053 189.157 59.6C189.445 59.984 189.589 60.432 189.589 60.944C189.589 61.712 189.274 62.3307 188.645 62.8C188.026 63.2587 187.205 63.488 186.181 63.488C185.168 63.488 184.346 63.2587 183.717 62.8C183.098 62.3307 182.789 61.712 182.789 60.944ZM183.765 64.656H192.981V69.232H191.509V65.84H183.765V64.656ZM184.181 60.944C184.181 61.3707 184.362 61.7173 184.725 61.984C185.098 62.2507 185.584 62.384 186.181 62.384C186.778 62.384 187.258 62.2507 187.621 61.984C187.994 61.7173 188.181 61.3707 188.181 60.944C188.181 60.496 188 60.144 187.637 59.888C187.274 59.632 186.789 59.504 186.181 59.504C185.573 59.504 185.088 59.632 184.725 59.888C184.362 60.144 184.181 60.496 184.181 60.944ZM191.509 55.12H192.981V58.944H195.013V60.16H192.981V63.936H191.509V55.12ZM200.069 55.968V57.808C200.069 58.608 200.315 59.3653 200.805 60.08C201.307 60.784 201.995 61.3067 202.869 61.648L202.101 62.752C201.472 62.5067 200.928 62.1547 200.469 61.696C200.011 61.2373 199.648 60.7093 199.381 60.112C199.115 60.7947 198.736 61.4027 198.245 61.936C197.765 62.4693 197.195 62.88 196.533 63.168L195.765 62.032C196.661 61.6373 197.365 61.0453 197.877 60.256C198.4 59.4667 198.661 58.6507 198.661 57.808V55.968H200.069ZM198.309 66.64C198.309 65.84 198.731 65.216 199.573 64.768C200.427 64.32 201.584 64.096 203.045 64.096C204.517 64.096 205.675 64.32 206.517 64.768C207.371 65.216 207.797 65.84 207.797 66.64C207.797 67.44 207.371 68.064 206.517 68.512C205.675 68.9707 204.517 69.2 203.045 69.2C201.584 69.2 200.427 68.9707 199.573 68.512C198.731 68.064 198.309 67.44 198.309 66.64ZM199.749 66.64C199.749 67.0987 200.043 67.456 200.629 67.712C201.216 67.968 202.021 68.096 203.045 68.096C204.08 68.096 204.885 67.968 205.461 67.712C206.037 67.456 206.325 67.0987 206.325 66.64C206.325 66.192 206.037 65.8453 205.461 65.6C204.885 65.344 204.08 65.216 203.045 65.216C202.021 65.216 201.216 65.344 200.629 65.6C200.043 65.8453 199.749 66.192 199.749 66.64ZM203.317 55.392H204.693V58.816H206.325V55.12H207.733V63.808H206.325V60.016H204.693V63.36H203.317V55.392ZM221.206 55.088V69.248H219.75V55.088H221.206ZM210.118 61.12C210.118 60.128 210.272 59.2587 210.582 58.512C210.891 57.7653 211.318 57.1893 211.862 56.784C212.406 56.3787 213.03 56.176 213.734 56.176C214.427 56.176 215.046 56.3787 215.59 56.784C216.144 57.1893 216.576 57.7653 216.886 58.512C217.195 59.2587 217.35 60.128 217.35 61.12C217.35 62.112 217.195 62.9867 216.886 63.744C216.576 64.4907 216.144 65.0667 215.59 65.472C215.046 65.8773 214.427 66.08 213.734 66.08C213.03 66.08 212.406 65.8773 211.862 65.472C211.318 65.0667 210.891 64.4907 210.582 63.744C210.272 62.9867 210.118 62.112 210.118 61.12ZM211.526 61.12C211.526 61.856 211.616 62.5013 211.798 63.056C211.99 63.6 212.251 64.0213 212.582 64.32C212.923 64.6187 213.307 64.768 213.734 64.768C214.16 64.768 214.539 64.6187 214.87 64.32C215.211 64.0213 215.472 63.6 215.654 63.056C215.846 62.5013 215.942 61.856 215.942 61.12C215.942 60.384 215.846 59.744 215.654 59.2C215.472 58.6453 215.211 58.224 214.87 57.936C214.539 57.6373 214.16 57.488 213.734 57.488C213.307 57.488 212.923 57.6373 212.582 57.936C212.251 58.224 211.99 58.6453 211.798 59.2C211.616 59.744 211.526 60.384 211.526 61.12ZM234.374 55.088V60.64H236.614V61.872H234.374V69.248H232.934V55.088H234.374ZM224.022 56.4H230.422V61.552H225.51V64.656C226.811 64.6453 227.937 64.608 228.886 64.544C229.835 64.4693 230.795 64.3467 231.766 64.176L231.894 65.36C230.849 65.552 229.814 65.6853 228.79 65.76C227.766 65.8347 226.566 65.872 225.19 65.872H224.054V60.368H228.982V57.584H224.022V56.4ZM244.406 56.304V57.536H247.478V55.12H248.934V65.408H247.478V61.744H244.406V62.992H237.926V56.304H244.406ZM242.982 61.808V57.472H239.35V61.808H242.982ZM239.814 64.48H241.27V67.728H249.27V68.928H239.814V64.48ZM247.478 60.56V58.72H244.406V60.56H247.478ZM257.742 55.808V59.776H265.982V60.976H256.286V55.808H257.742ZM254.638 62.976H267.422V64.16H261.71V69.232H260.27V64.16H254.638V62.976ZM279.599 56.016V57.248C279.599 58.1547 279.577 58.96 279.535 59.664C279.492 60.368 279.385 61.168 279.215 62.064H281.231V63.264H275.551V69.248H274.063V63.264H268.463V62.064H277.727C277.919 61.1787 278.036 60.384 278.079 59.68C278.132 58.9653 278.159 58.1547 278.159 57.248V57.184H270.047V56.016H279.599ZM293.199 55.088V60.672H295.375V61.888H293.199V69.216H291.727V55.088H293.199ZM282.831 56.48H284.287V64.464C286.474 64.4427 288.548 64.2347 290.511 63.84L290.687 65.04C289.567 65.2747 288.463 65.44 287.375 65.536C286.287 65.6213 285.156 65.664 283.983 65.664H282.831V56.48ZM302.759 55.664V57.328H309.287V55.664H310.743V61.328H306.727V62.768H312.391V63.936H299.639V62.768H305.287V61.328H301.319V55.664H302.759ZM301.271 65.008H302.727V67.744H310.967V68.944H301.271V65.008ZM309.287 60.176V58.48H302.759V60.176H309.287ZM321.823 56.304V58.704C321.823 59.536 321.972 60.3573 322.271 61.168C322.569 61.9787 322.985 62.704 323.519 63.344C324.052 63.984 324.66 64.4747 325.343 64.816L324.463 65.968C323.705 65.5733 323.039 65.0027 322.463 64.256C321.887 63.5093 321.444 62.656 321.135 61.696C320.804 62.72 320.34 63.632 319.743 64.432C319.145 65.232 318.452 65.8347 317.663 66.24L316.783 65.056C317.476 64.7147 318.095 64.2133 318.639 63.552C319.193 62.88 319.625 62.1227 319.935 61.28C320.244 60.4267 320.399 59.568 320.399 58.704V56.304H321.823ZM326.415 55.12H327.887V60.752H330.143V61.984H327.887V69.232H326.415V55.12ZM36.16 81.088V95.248H34.704V81.088H36.16ZM25.072 87.12C25.072 86.128 25.2267 85.2587 25.536 84.512C25.8453 83.7653 26.272 83.1893 26.816 82.784C27.36 82.3787 27.984 82.176 28.688 82.176C29.3813 82.176 30 82.3787 30.544 82.784C31.0987 83.1893 31.5307 83.7653 31.84 84.512C32.1493 85.2587 32.304 86.128 32.304 87.12C32.304 88.112 32.1493 88.9867 31.84 89.744C31.5307 90.4907 31.0987 91.0667 30.544 91.472C30 91.8773 29.3813 92.08 28.688 92.08C27.984 92.08 27.36 91.8773 26.816 91.472C26.272 91.0667 25.8453 90.4907 25.536 89.744C25.2267 88.9867 25.072 88.112 25.072 87.12ZM26.48 87.12C26.48 87.856 26.5707 88.5013 26.752 89.056C26.944 89.6 27.2053 90.0213 27.536 90.32C27.8773 90.6187 28.2613 90.768 28.688 90.768C29.1147 90.768 29.4933 90.6187 29.824 90.32C30.1653 90.0213 30.4267 89.6 30.608 89.056C30.8 88.5013 30.896 87.856 30.896 87.12C30.896 86.384 30.8 85.744 30.608 85.2C30.4267 84.6453 30.1653 84.224 29.824 83.936C29.4933 83.6373 29.1147 83.488 28.688 83.488C28.2613 83.488 27.8773 83.6373 27.536 83.936C27.2053 84.224 26.944 84.6453 26.752 85.2C26.5707 85.744 26.48 86.384 26.48 87.12ZM49.6324 82.272V83.456H41.5044V85.408H49.3284V86.576H41.5044V88.624H49.7764V89.808H40.0324V82.272H49.6324ZM38.4164 92.24H51.2004V93.44H38.4164V92.24ZM56.8008 82.112C57.5261 82.112 58.1768 82.256 58.7528 82.544C59.3288 82.832 59.7768 83.232 60.0968 83.744C60.4274 84.2453 60.5928 84.8213 60.5928 85.472C60.5928 86.1227 60.4274 86.704 60.0968 87.216C59.7768 87.728 59.3288 88.128 58.7528 88.416C58.1768 88.6933 57.5261 88.832 56.8008 88.832C56.0648 88.832 55.4034 88.6933 54.8168 88.416C54.2408 88.128 53.7874 87.728 53.4568 87.216C53.1368 86.704 52.9768 86.1227 52.9768 85.472C52.9768 84.8213 53.1368 84.2453 53.4568 83.744C53.7874 83.232 54.2408 82.832 54.8168 82.544C55.4034 82.256 56.0648 82.112 56.8008 82.112ZM52.3048 90.992C54.0968 90.992 55.7288 90.9653 57.2008 90.912C58.6834 90.848 60.0968 90.7147 61.4408 90.512L61.5528 91.584C60.1661 91.8507 58.7474 92.0213 57.2968 92.096C55.8568 92.1707 54.2514 92.208 52.4808 92.208L52.3048 90.992ZM54.4008 85.472C54.4008 86.0907 54.6248 86.5973 55.0728 86.992C55.5314 87.376 56.1074 87.568 56.8008 87.568C57.4834 87.568 58.0488 87.376 58.4968 86.992C58.9448 86.5973 59.1688 86.0907 59.1688 85.472C59.1688 84.8533 58.9448 84.352 58.4968 83.968C58.0488 83.5733 57.4834 83.376 56.8008 83.376C56.1074 83.376 55.5314 83.568 55.0728 83.952C54.6248 84.336 54.4008 84.8427 54.4008 85.472ZM62.3208 81.088H63.7928V95.248H62.3208V81.088ZM71.3366 81.44H72.3446L71.8166 84.8H70.3126L71.3366 81.44ZM82.128 82.528V83.744H78.896V85.312C78.896 86.0907 79.056 86.864 79.376 87.632C79.696 88.3893 80.1387 89.0667 80.704 89.664C81.2693 90.2613 81.904 90.7147 82.608 91.024L81.792 92.176C80.9813 91.8133 80.256 91.264 79.616 90.528C78.9867 89.7813 78.5067 88.9333 78.176 87.984C77.856 89.008 77.3813 89.9253 76.752 90.736C76.1227 91.536 75.4027 92.1333 74.592 92.528L73.76 91.376C74.4427 91.0453 75.0667 90.5547 75.632 89.904C76.1973 89.2533 76.64 88.528 76.96 87.728C77.28 86.9173 77.44 86.112 77.44 85.312V83.744H74.224V82.528H82.128ZM83.888 81.12H85.344V95.232H83.888V81.12ZM99.2324 81.104V91.84H97.7764V90.448H94.9604V89.424H97.7764V81.104H99.2324ZM87.5364 87.568C89.2644 87.568 90.875 87.5413 92.3684 87.488C93.8617 87.4347 95.275 87.3227 96.6084 87.152L96.7044 88.208C95.5737 88.3893 94.3364 88.5227 92.9924 88.608V91.36H91.5364V88.688C90.4057 88.7413 89.1364 88.768 87.7284 88.768L87.5364 87.568ZM88.6244 84.128C88.6244 83.6373 88.7684 83.2053 89.0564 82.832C89.355 82.4587 89.7657 82.1707 90.2884 81.968C90.8217 81.7653 91.4297 81.664 92.1124 81.664C92.795 81.664 93.3977 81.7653 93.9204 81.968C94.443 82.1707 94.8484 82.4587 95.1364 82.832C95.435 83.2053 95.5844 83.6373 95.5844 84.128C95.5844 84.8747 95.2644 85.4773 94.6244 85.936C93.9844 86.384 93.147 86.608 92.1124 86.608C91.4297 86.608 90.8217 86.5067 90.2884 86.304C89.7657 86.1013 89.355 85.8133 89.0564 85.44C88.7684 85.056 88.6244 84.6187 88.6244 84.128ZM89.4884 90.8H90.9444V93.728H99.5684V94.928H89.4884V90.8ZM90.0164 84.128C90.0164 84.5547 90.2084 84.896 90.5924 85.152C90.9764 85.3973 91.483 85.52 92.1124 85.52C92.731 85.52 93.2324 85.3973 93.6164 85.152C94.0004 84.896 94.1924 84.5547 94.1924 84.128C94.1924 83.712 94.0004 83.376 93.6164 83.12C93.2324 82.864 92.731 82.736 92.1124 82.736C91.4937 82.736 90.987 82.864 90.5924 83.12C90.2084 83.376 90.0164 83.712 90.0164 84.128ZM112.353 81.12V86.848H114.593V88.064H112.353V95.232H110.897V81.12H112.353ZM101.361 83.328H104.817V81.296H106.305V83.328H109.681V84.512H101.361V83.328ZM102.113 88.864C102.113 88.2347 102.262 87.6747 102.561 87.184C102.859 86.6827 103.27 86.2933 103.793 86.016C104.326 85.7387 104.918 85.6 105.569 85.6C106.23 85.6 106.822 85.7387 107.345 86.016C107.878 86.2933 108.294 86.6827 108.593 87.184C108.891 87.6747 109.041 88.2347 109.041 88.864C109.041 89.4933 108.891 90.0587 108.593 90.56C108.294 91.0507 107.878 91.4347 107.345 91.712C106.822 91.9893 106.23 92.128 105.569 92.128C104.918 92.128 104.326 91.9893 103.793 91.712C103.27 91.4347 102.859 91.0507 102.561 90.56C102.262 90.0587 102.113 89.4933 102.113 88.864ZM103.505 88.864C103.505 89.472 103.697 89.968 104.081 90.352C104.465 90.736 104.961 90.928 105.569 90.928C106.177 90.928 106.673 90.736 107.057 90.352C107.451 89.968 107.649 89.472 107.649 88.864C107.649 88.256 107.451 87.76 107.057 87.376C106.673 86.992 106.177 86.8 105.569 86.8C104.971 86.8 104.475 86.992 104.081 87.376C103.697 87.76 103.505 88.256 103.505 88.864ZM126.881 81.104V95.216H125.409V81.104H126.881ZM115.393 91.488C117.238 90.6027 118.636 89.52 119.585 88.24C120.534 86.96 121.084 85.4773 121.233 83.792H116.065V82.608H122.705C122.705 84.7947 122.188 86.736 121.153 88.432C120.118 90.128 118.454 91.5307 116.161 92.64L115.393 91.488ZM130.865 84.816H129.825L129.649 81.472H131.041L130.865 84.816ZM148.944 87.632V88.72H136.16V87.632H148.944ZM137.664 89.744H147.36V92.848H139.136V94.016H147.792V95.072H137.696V91.856H145.936V90.784H137.664V89.744ZM137.776 81.488H147.312V84.528H139.232V85.616H147.584V86.672H137.808V83.552H145.872V82.528H137.776V81.488ZM159.144 88.544V87.28H155.176V81.52H164.712V82.656H156.632V83.808H164.36V84.912H156.632V86.16H164.808V87.28H160.6V88.544H166.248V89.712H153.512V88.544H159.144ZM155.032 92.944C155.032 92.208 155.448 91.648 156.28 91.264C157.123 90.8693 158.323 90.672 159.88 90.672C161.427 90.672 162.621 90.8693 163.464 91.264C164.307 91.648 164.728 92.208 164.728 92.944C164.728 93.68 164.307 94.24 163.464 94.624C162.621 95.008 161.427 95.2 159.88 95.2C158.323 95.2 157.123 95.008 156.28 94.624C155.448 94.24 155.032 93.68 155.032 92.944ZM156.488 92.944C156.488 93.7227 157.619 94.112 159.88 94.112C160.979 94.112 161.816 94.016 162.392 93.824C162.968 93.6213 163.256 93.328 163.256 92.944C163.256 92.56 162.963 92.2667 162.376 92.064C161.8 91.8613 160.968 91.76 159.88 91.76C158.781 91.76 157.939 91.8613 157.352 92.064C156.776 92.2667 156.488 92.56 156.488 92.944ZM170.072 83.456V81.504H171.512V83.456H174.248V84.64H167.304V83.456H170.072ZM167.752 88.752C167.752 88.1333 167.88 87.5787 168.136 87.088C168.403 86.5973 168.766 86.2133 169.224 85.936C169.683 85.6587 170.206 85.52 170.792 85.52C171.368 85.52 171.886 85.6587 172.344 85.936C172.814 86.2133 173.176 86.5973 173.432 87.088C173.699 87.5787 173.832 88.1333 173.832 88.752C173.832 89.392 173.699 89.9573 173.432 90.448C173.176 90.9387 172.819 91.3227 172.36 91.6C171.902 91.8773 171.379 92.016 170.792 92.016C170.206 92.016 169.683 91.8773 169.224 91.6C168.766 91.3227 168.403 90.9387 168.136 90.448C167.88 89.9573 167.752 89.392 167.752 88.752ZM169.048 88.752C169.048 89.36 169.208 89.8507 169.528 90.224C169.859 90.5973 170.28 90.784 170.792 90.784C171.304 90.784 171.72 90.5973 172.04 90.224C172.371 89.8507 172.536 89.36 172.536 88.752C172.536 88.1547 172.371 87.6693 172.04 87.296C171.72 86.9227 171.304 86.736 170.792 86.736C170.28 86.736 169.859 86.9227 169.528 87.296C169.208 87.6693 169.048 88.1547 169.048 88.752ZM174.904 81.424H176.28V87.008H177.912V81.104H179.304V95.216H177.912V88.208H176.28V94.544H174.904V81.424ZM195.6 81.088V86.752H197.776V87.968H195.6V95.216H194.112V81.088H195.6ZM184.72 91.472C188.251 89.68 190.16 87.12 190.448 83.792H185.408V82.608H191.92C191.92 84.7413 191.408 86.6613 190.384 88.368C189.36 90.0747 187.744 91.4827 185.536 92.592L184.72 91.472ZM210.097 81.12V88.688H208.641V81.12H210.097ZM198.801 85.024C198.801 84.3947 198.961 83.8347 199.281 83.344C199.601 82.8427 200.043 82.4587 200.609 82.192C201.174 81.9147 201.809 81.776 202.513 81.776C203.217 81.776 203.851 81.9147 204.417 82.192C204.982 82.4587 205.425 82.8427 205.745 83.344C206.065 83.8347 206.225 84.3947 206.225 85.024C206.225 85.664 206.065 86.2347 205.745 86.736C205.425 87.2267 204.982 87.6107 204.417 87.888C203.851 88.1653 203.217 88.304 202.513 88.304C201.809 88.304 201.174 88.1653 200.609 87.888C200.043 87.6107 199.601 87.2267 199.281 86.736C198.961 86.2347 198.801 85.664 198.801 85.024ZM200.225 85.024C200.225 85.632 200.438 86.128 200.865 86.512C201.291 86.8853 201.841 87.072 202.513 87.072C203.185 87.072 203.734 86.8853 204.161 86.512C204.587 86.128 204.801 85.632 204.801 85.024C204.801 84.416 204.587 83.9253 204.161 83.552C203.734 83.168 203.185 82.976 202.513 82.976C201.841 82.976 201.291 83.168 200.865 83.552C200.438 83.9253 200.225 84.416 200.225 85.024ZM200.945 89.376H202.401V90.976H208.657V89.376H210.097V95.04H200.945V89.376ZM208.657 93.872V92.128H202.401V93.872H208.657ZM223.329 81.072V84.384H225.377V85.584H223.329V88.816H221.857V81.072H223.329ZM212.369 82.32H215.809V80.96H217.265V82.32H220.705V83.456H212.369V82.32ZM213.137 86.336C213.137 85.6213 213.441 85.056 214.049 84.64C214.668 84.224 215.494 84.016 216.529 84.016C217.564 84.016 218.39 84.224 219.009 84.64C219.628 85.056 219.937 85.6213 219.937 86.336C219.937 87.04 219.622 87.6 218.993 88.016C218.374 88.432 217.553 88.64 216.529 88.64C215.505 88.64 214.684 88.432 214.065 88.016C213.446 87.6 213.137 87.04 213.137 86.336ZM214.289 89.504H223.329V92.752H215.761V93.968H223.809V95.088H214.321V91.712H221.889V90.592H214.289V89.504ZM214.529 86.336C214.529 86.72 214.71 87.024 215.073 87.248C215.436 87.472 215.921 87.584 216.529 87.584C217.137 87.584 217.622 87.472 217.985 87.248C218.348 87.024 218.529 86.72 218.529 86.336C218.529 85.9413 218.348 85.632 217.985 85.408C217.633 85.184 217.148 85.072 216.529 85.072C215.91 85.072 215.42 85.184 215.057 85.408C214.705 85.632 214.529 85.9413 214.529 86.336ZM236.841 81.6V82.368C236.841 82.9867 237.065 83.584 237.513 84.16C237.972 84.7253 238.585 85.2107 239.353 85.616C240.132 86.0107 240.969 86.272 241.865 86.4L241.273 87.568C240.132 87.3867 239.092 87.008 238.153 86.432C237.225 85.856 236.537 85.1573 236.089 84.336C235.652 85.168 234.964 85.8667 234.025 86.432C233.097 86.9973 232.052 87.376 230.889 87.568L230.297 86.4C231.204 86.272 232.041 86.0107 232.809 85.616C233.577 85.2213 234.185 84.7413 234.633 84.176C235.092 83.6 235.321 82.9973 235.321 82.368V81.6H236.841ZM229.689 88.992H242.457V90.192H236.761V95.232H235.321V90.192H229.689V88.992ZM251.889 89.776V90.464C251.889 91.104 252.049 91.7173 252.369 92.304C252.689 92.8907 253.153 93.3707 253.761 93.744C254.379 93.3493 254.854 92.848 255.185 92.24C255.515 91.632 255.681 91.04 255.681 90.464V89.776H257.121V90.464C257.121 91.2213 257.366 91.92 257.857 92.56C258.347 93.1893 259.03 93.6533 259.905 93.952L259.185 95.024C258.513 94.7893 257.937 94.448 257.457 94C256.987 93.552 256.625 93.0293 256.369 92.432C256.145 93.0293 255.814 93.568 255.377 94.048C254.939 94.5387 254.417 94.912 253.809 95.168C253.158 94.912 252.614 94.5547 252.177 94.096C251.739 93.6373 251.409 93.104 251.185 92.496C250.918 93.072 250.55 93.5787 250.081 94.016C249.622 94.4533 249.073 94.7893 248.433 95.024L247.697 93.952C248.571 93.6427 249.254 93.1627 249.745 92.512C250.235 91.8613 250.481 91.1787 250.481 90.464V89.776H251.889ZM247.345 85.232C247.345 84.592 247.505 84.0213 247.825 83.52C248.145 83.0187 248.587 82.6293 249.153 82.352C249.718 82.064 250.353 81.92 251.057 81.92C251.761 81.92 252.395 82.064 252.961 82.352C253.526 82.6293 253.969 83.0187 254.289 83.52C254.609 84.0213 254.769 84.592 254.769 85.232C254.769 85.872 254.609 86.4427 254.289 86.944C253.969 87.4453 253.526 87.8347 252.961 88.112C252.395 88.3893 251.761 88.528 251.057 88.528C250.353 88.528 249.718 88.3893 249.153 88.112C248.587 87.8347 248.145 87.4453 247.825 86.944C247.505 86.4427 247.345 85.872 247.345 85.232ZM248.769 85.232C248.769 85.8613 248.982 86.368 249.409 86.752C249.835 87.136 250.385 87.328 251.057 87.328C251.729 87.328 252.278 87.136 252.705 86.752C253.131 86.368 253.345 85.8613 253.345 85.232C253.345 84.6133 253.131 84.112 252.705 83.728C252.278 83.3333 251.729 83.136 251.057 83.136C250.385 83.136 249.835 83.3333 249.409 83.728C248.982 84.112 248.769 84.6133 248.769 85.232ZM257.185 81.12H258.657V89.168H257.185V81.12ZM264.641 82.176C265.27 82.176 265.836 82.3467 266.337 82.688C266.849 83.0293 267.265 83.5253 267.585 84.176C267.905 84.816 268.097 85.568 268.161 86.432H271.073V81.088H272.529V95.248H271.073V87.6H268.177C268.134 88.5067 267.953 89.3013 267.633 89.984C267.324 90.656 266.908 91.1733 266.385 91.536C265.873 91.8987 265.292 92.08 264.641 92.08C263.958 92.08 263.345 91.8773 262.801 91.472C262.268 91.0667 261.852 90.4907 261.553 89.744C261.254 88.9867 261.105 88.112 261.105 87.12C261.105 86.128 261.254 85.2587 261.553 84.512C261.852 83.7653 262.268 83.1893 262.801 82.784C263.345 82.3787 263.958 82.176 264.641 82.176ZM262.481 87.12C262.481 88.2293 262.678 89.1147 263.073 89.776C263.468 90.4373 263.99 90.768 264.641 90.768C265.292 90.768 265.814 90.4373 266.209 89.776C266.604 89.1147 266.801 88.2293 266.801 87.12C266.801 86.0107 266.604 85.1307 266.209 84.48C265.814 83.8187 265.292 83.488 264.641 83.488C263.99 83.488 263.468 83.8187 263.073 84.48C262.678 85.1307 262.481 86.0107 262.481 87.12ZM277.762 92.24V88.512C277.175 88.192 276.716 87.7867 276.386 87.296C276.066 86.7947 275.906 86.2347 275.906 85.616C275.906 84.8907 276.124 84.2507 276.562 83.696C277.01 83.1413 277.623 82.7147 278.402 82.416C279.18 82.1067 280.066 81.952 281.058 81.952C282.06 81.952 282.951 82.1067 283.73 82.416C284.519 82.7147 285.132 83.1413 285.57 83.696C286.007 84.2507 286.226 84.8907 286.226 85.616C286.226 86.2347 286.066 86.7893 285.746 87.28C285.436 87.76 284.994 88.1653 284.418 88.496V92.24H287.474V93.44H274.69V92.24H277.762ZM277.33 85.616C277.33 86.1173 277.484 86.56 277.794 86.944C278.114 87.3173 278.556 87.6107 279.122 87.824C279.687 88.0267 280.332 88.128 281.058 88.128C281.783 88.128 282.428 88.0267 282.994 87.824C283.559 87.6107 284.002 87.3173 284.322 86.944C284.642 86.56 284.802 86.1173 284.802 85.616C284.802 85.1147 284.642 84.6773 284.322 84.304C284.002 83.92 283.559 83.6267 282.994 83.424C282.428 83.2107 281.783 83.104 281.058 83.104C280.332 83.104 279.687 83.2107 279.122 83.424C278.556 83.6267 278.114 83.92 277.794 84.304C277.484 84.6773 277.33 85.1147 277.33 85.616ZM282.946 92.24V89.056C282.391 89.1947 281.762 89.264 281.058 89.264C280.375 89.264 279.756 89.1947 279.202 89.056V92.24H282.946ZM289.746 92.512C290.013 92.512 290.226 92.592 290.386 92.752C290.546 92.912 290.626 93.1253 290.626 93.392C290.626 93.6587 290.546 93.872 290.386 94.032C290.226 94.2027 290.013 94.288 289.746 94.288C289.479 94.288 289.261 94.2027 289.09 94.032C288.93 93.872 288.85 93.6587 288.85 93.392C288.85 93.1253 288.93 92.912 289.09 92.752C289.261 92.592 289.479 92.512 289.746 92.512Z" fill="#121212"/>
</svg>
