<svg xmlns="http://www.w3.org/2000/svg" width="358" height="121" fill="none" viewBox="0 0 358 121"><path fill="#fff" d="M.5 8A7.5 7.5 0 0 1 8 .5h342a7.5 7.5 0 0 1 7.5 7.5v105a7.5 7.5 0 0 1-7.5 7.5H8A7.5 7.5 0 0 1 .5 113z"/><path stroke="#C2C2C2" d="M.5 8A7.5 7.5 0 0 1 8 .5h342a7.5 7.5 0 0 1 7.5 7.5v105a7.5 7.5 0 0 1-7.5 7.5H8A7.5 7.5 0 0 1 .5 113z"/><path fill="#121212" d="M34.656 36.544q.256-.448.416-1.088.176-.656.176-1.216 0-1.343-.528-2.384a3.7 3.7 0 0 0-1.472-1.6q-.944-.576-2.192-.576t-2.208.576q-.944.56-1.472 1.6-.512 1.04-.512 2.384t.512 2.384a3.95 3.95 0 0 0 1.472 1.6q.96.56 2.208.56.704 0 1.424-.256.72-.272 1.184-.704l-1.616-1.712 1.184-1.104zm-9.472-2.304q0-1.744.752-3.104a5.44 5.44 0 0 1 2.08-2.144q1.344-.768 3.04-.768t3.024.768a5.4 5.4 0 0 1 2.096 2.144q.752 1.36.752 3.104a7.5 7.5 0 0 1-.336 1.888q-.305.992-.768 1.664l1.28 1.328-1.184 1.104-1.2-1.312q-.656.593-1.68.96a5.9 5.9 0 0 1-1.984.368q-1.696 0-3.04-.768a5.47 5.47 0 0 1-2.08-2.128q-.752-1.36-.752-3.104m14.7 4.16q.431 0 .703.272t.272.704q0 .449-.272.72-.272.272-.704.272t-.72-.272q-.272-.271-.272-.72 0-.432.272-.704.288-.272.72-.272m16.62-6.72v-4.64h1.712v14.272h-1.712v-8.256h-2.976V31.68zm-10.24 5.296a5.4 5.4 0 0 0 1.904-1.536 7.5 7.5 0 0 0 1.248-2.32 8.3 8.3 0 0 0 .432-2.64v-2.288h1.728v2.288q0 1.328.416 2.576a7.1 7.1 0 0 0 1.2 2.224 5.16 5.16 0 0 0 1.872 1.456l-1.008 1.376a5.85 5.85 0 0 1-2.016-1.648q-.848-1.072-1.328-2.512a8.9 8.9 0 0 1-1.344 2.656q-.864 1.152-2.032 1.744zm26.833-1.52v1.376h-3.12v4.448h-1.713v-4.448h-3.2v4.448h-1.711v-4.448h-3.136v-1.376zM61.72 27.552h9.856v3.936h-8.08v1.376h8.432v1.392H61.752v-4.048h8.096v-1.28h-8.127zm13.584 14.624h-1.232l.592-3.632h1.712zm14.023-13.952v1.184h2.864v-2.336h1.712v10.352h-1.712V33.84h-2.864v1.232H82.72v-6.848zm-1.68 5.472V29.6H84.4v4.096zm-3.024 2.768h1.712v3.152h7.888v1.392h-9.6zm7.568-4v-1.68h-2.864v1.68zM106 30.352v-3.296h1.712v7.76H106v-3.072h-2.448v-1.392zm-10.112 3.344q1.632-.56 2.544-1.808t.912-2.72v-.016h-2.96v-1.36H104v1.36h-2.928v.016q0 1.36.864 2.544.88 1.169 2.464 1.712l-.848 1.344a5.8 5.8 0 0 1-2-1.168 5.6 5.6 0 0 1-1.312-1.824 5.95 5.95 0 0 1-1.376 2.016 5.46 5.46 0 0 1-2.112 1.28zm2.544 1.728h1.696v1.504h5.888v-1.504h1.696v5.68h-9.28zm7.584 4.304v-1.456h-5.888v1.456zm17.336-8.896v-3.76h1.728V37.44h-1.728v-5.2h-2.496v-1.408zm-10.112 3.584q1.632-.56 2.544-1.808t.912-2.72v-.416h-2.96v-1.376h7.616v1.376h-2.912v.416q0 1.344.864 2.528.88 1.185 2.448 1.712l-.848 1.36a6 6 0 0 1-2-1.184 5.7 5.7 0 0 1-1.312-1.808 5.8 5.8 0 0 1-1.36 2.016 5.6 5.6 0 0 1-2.128 1.28zm2.576 2.144h1.728v3.056h7.904v1.392h-9.632zm21.36-6.256v-3.248h1.712v9.12h-1.712v-1.68h-2.096V33.12h2.096v-1.44h-2.064v-1.376zm-10.064-1.84h3.168v-1.536h1.728v1.536H135v1.36h-7.888zm.736 4.592q0-.768.416-1.36.417-.608 1.168-.944.753-.336 1.696-.336.96 0 1.696.336.753.336 1.168.944.416.592.416 1.36 0 .784-.416 1.392-.415.608-1.168.944-.736.336-1.696.336-.943 0-1.696-.336-.751-.336-1.168-.944a2.4 2.4 0 0 1-.416-1.392m1.488 5.744q0-1.151 1.28-1.808 1.296-.656 3.536-.656t3.52.656q1.296.656 1.296 1.808 0 1.151-1.296 1.808-1.28.656-3.52.656t-3.536-.656q-1.28-.656-1.28-1.808m.112-5.744q0 .64.448 1.008.465.368 1.232.368.753 0 1.216-.368.464-.367.464-1.008 0-.624-.464-.976-.463-.368-1.216-.368-.767 0-1.232.368-.447.352-.448.976m1.696 5.744q0 .576.784.864t2.224.288 2.208-.288q.784-.288.784-.864 0-.56-.768-.848t-2.224-.288q-1.455 0-2.24.288-.768.288-.768.848m21.505-11.76v14.272h-1.728V27.04zm-11.28 6.064q0-1.505.464-2.64.48-1.152 1.312-1.76a3.1 3.1 0 0 1 1.904-.624 3.1 3.1 0 0 1 1.904.624q.833.608 1.296 1.76.48 1.136.48 2.64 0 1.52-.48 2.672-.464 1.136-1.296 1.76a3.1 3.1 0 0 1-1.904.624 3.1 3.1 0 0 1-1.904-.624q-.832-.624-1.312-1.76-.464-1.152-.464-2.672m1.664 0q0 1.632.544 2.56.56.928 1.472.928t1.472-.928.56-2.56q0-1.616-.56-2.528-.56-.928-1.472-.928t-1.472.928q-.544.912-.544 2.528m20.248 2.64v.592q0 .945.432 1.808.447.848 1.328 1.408.895-.592 1.344-1.456.464-.88.464-1.76v-.592h1.68v.592q0 1.168.704 2.112.703.928 2.032 1.376l-.832 1.248a4.6 4.6 0 0 1-1.696-.992 4.6 4.6 0 0 1-1.072-1.504 5.1 5.1 0 0 1-1.024 1.568 4.45 4.45 0 0 1-1.552 1.072q-1.872-.688-2.624-2.608a4.7 4.7 0 0 1-1.088 1.472 4.7 4.7 0 0 1-1.632.992l-.848-1.248q1.311-.465 2.016-1.424.72-.976.72-2.064v-.592zm-4.736-4.544q0-.976.48-1.728.496-.768 1.36-1.2.863-.432 1.952-.432t1.952.432a3.27 3.27 0 0 1 1.344 1.2q.496.752.496 1.728a3.15 3.15 0 0 1-.496 1.744q-.48.768-1.344 1.2-.864.416-1.952.416t-1.952-.416a3.4 3.4 0 0 1-1.36-1.2 3.2 3.2 0 0 1-.48-1.744m1.68 0q0 .88.592 1.408.591.528 1.52.528.944 0 1.52-.528.592-.528.592-1.408t-.592-1.408-1.52-.528q-.929 0-1.52.528-.592.528-.592 1.408m8.08-4.128h1.728v8.08h-1.728zm14.864-.032v5.52h2.096v1.424h-2.096v7.28h-1.728V27.04zm-10.56 1.376h1.712v7.904q3.232-.048 6.016-.624l.192 1.424q-3.104.624-6.736.624h-1.184zm16.289 9.728v-3.648q-.864-.495-1.328-1.232a3.13 3.13 0 0 1-.464-1.68q0-1.12.672-1.968.671-.864 1.856-1.328 1.2-.464 2.72-.464t2.704.464q1.2.465 1.872 1.328.672.848.672 1.968a3.1 3.1 0 0 1-.464 1.664q-.465.752-1.312 1.248v3.648h2.976v1.392h-12.88v-1.392zm-.112-6.56q0 1.104.976 1.76.991.64 2.592.64t2.576-.64q.992-.656.992-1.76t-.992-1.744q-.977-.656-2.576-.656t-2.592.656q-.976.64-.976 1.744m5.312 6.56v-3.008a8.6 8.6 0 0 1-1.744.176 8.6 8.6 0 0 1-1.744-.176v3.008zm9.264 2.224q-.448 0-.72-.288a.95.95 0 0 1-.272-.704q0-.432.272-.704t.72-.272q.432 0 .704.272a.95.95 0 0 1 .272.704.95.95 0 0 1-.272.704.92.92 0 0 1-.704.288m-3.488-9.968a4.17 4.17 0 0 1 1.488-1.936q1.056-.752 2.256-.752 1.088 0 1.92.448a3.1 3.1 0 0 1 1.312 1.232q.464.784.464 1.792 0 .944-.496 1.824t-1.664 1.744q-.608.449-.8.864-.192.416-.176 1.28l-1.68.032q-.016-1.232.368-2.048t1.28-1.472q.88-.672 1.184-1.136a1.96 1.96 0 0 0 .304-1.072q0-.785-.56-1.28-.56-.512-1.456-.512-.688 0-1.296.448a2.6 2.6 0 0 0-.864 1.152zM36.24 68.064h-1.52l-1.328-3.28h-5.44l-1.36 3.28h-1.52l4.816-11.68h1.616zm-3.344-4.512-2.208-5.408-2.24 5.408zm6.08 2.96q.4 0 .64.24t.24.64-.24.64q-.24.255-.64.256a.89.89 0 0 1-.655-.256q-.24-.24-.24-.64t.24-.64a.92.92 0 0 1 .656-.24m9.425-3.12v1.664h2.223v-1.664h1.36v5.648h-4.96v-5.648zm-2.753-4.416q0-.96.464-1.696.48-.736 1.313-1.152.831-.416 1.872-.416 1.391 0 2.384.736 1.008.72 1.216 1.904h2.736V55.12h1.456v7.456h-1.456v-3.024h-2.72a3.03 3.03 0 0 1-1.2 1.968q-.993.736-2.416.736-1.041 0-1.872-.416a3.3 3.3 0 0 1-1.312-1.152q-.465-.752-.465-1.712m1.408 0q0 .912.625 1.488.624.576 1.616.576.991 0 1.616-.576.64-.576.64-1.488t-.64-1.472q-.624-.576-1.616-.576t-1.616.576q-.624.56-.624 1.472m3.569 8.944v-1.776H48.4v1.776zm1.44.144q1.215-.512 1.855-1.504.657-.992.657-2.112v-1.152h1.44v1.152q0 1.168.655 2.16.657.992 1.873 1.456l-.736 1.104a4.4 4.4 0 0 1-1.552-1.04 4.6 4.6 0 0 1-.96-1.52 4.7 4.7 0 0 1-.992 1.52 4.24 4.24 0 0 1-1.52 1.04zm10.208-4.496v1.536h6.624v-1.536h1.44v5.472h-9.504v-5.472zm-3.024-2.08H72v1.168H59.249zm.704-2.064a8.3 8.3 0 0 0 2.464-.704q1.136-.528 1.792-1.28.672-.768.672-1.6v-.576h1.504v.576q0 .816.672 1.584t1.792 1.312a8.1 8.1 0 0 0 2.448.688l-.528 1.136a8.9 8.9 0 0 1-3.088-1.008q-1.377-.784-2.048-1.904-.656 1.12-2.048 1.904-1.377.768-3.088 1.008zm8.944 8.448v-1.648h-6.624v1.648zm15.776-12.768v14.112h-1.44V55.104zM73.921 56.48h1.456v7.888q3.489-.032 6.464-.656l.192 1.232q-3.216.672-6.912.672h-1.2zm23.889-1.392v5.504h2.24v1.216h-2.24v7.44h-1.472v-14.16zM87.506 56.48h6.56v1.168h-5.12v6.88q1.92 0 3.312-.096a27 27 0 0 0 2.848-.384l.16 1.232q-1.536.288-3.024.384-1.489.096-3.616.096h-1.12zm15.92 8.592h-1.312l-.256-8.88h1.792zm-1.552 2.304q0-.384.256-.624a.89.89 0 0 1 .656-.256q.384 0 .624.256.256.24.256.624a.89.89 0 0 1-.256.656.82.82 0 0 1-.624.256.89.89 0 0 1-.656-.256.89.89 0 0 1-.256-.656m13.833-2.496q2.32 0 3.584.56 1.264.544 1.264 1.6t-1.264 1.6q-1.263.56-3.584.56-2.352 0-3.6-.56-1.248-.544-1.248-1.6t1.248-1.6q1.248-.56 3.6-.56m-6.368-1.952h5.648V61.92q-1.887-.08-2.88-.576-.975-.512-.976-1.424 0-.976 1.168-1.488 1.185-.512 3.408-.512 2.224 0 3.408.512 1.185.512 1.184 1.488 0 .912-.992 1.424-.992.496-2.864.576v1.008h5.648v1.152h-12.752zm.656-6.688h4.992v-1.312h1.456v1.312h4.928v1.152h-11.376zm2.352 10.8q0 1.072 3.36 1.072 3.344 0 3.344-1.072 0-.545-.864-.816-.848-.272-2.48-.272-1.647 0-2.512.272-.848.271-.848.816m.32-7.12q0 .495.768.752.784.24 2.272.24 1.489 0 2.272-.24.784-.255.784-.752 0-.48-.784-.736t-2.272-.256q-1.471 0-2.256.256t-.784.736m22.081 4.288v5.024h-1.456v-3.824h-8v-1.2zm-11.296-4.896q0-.975.48-1.744.48-.768 1.328-1.2t1.904-.432 1.904.432a3.3 3.3 0 0 1 1.328 1.2q.48.768.48 1.744t-.48 1.744q-.48.752-1.328 1.184t-1.904.432-1.904-.432a3.33 3.33 0 0 1-1.328-1.184 3.2 3.2 0 0 1-.48-1.744m1.424 0q0 .96.64 1.552.64.576 1.648.576t1.648-.576q.64-.592.64-1.552t-.64-1.536q-.64-.592-1.648-.592t-1.648.592q-.64.576-.64 1.536m8.416-4.192h1.456v8.352h-1.456zm15.696-.016v14.112h-1.392V61.92h-1.824v6.576h-1.36V55.408h1.36v5.296h1.824v-5.6zm-11.504 1.712h5.216V58h-3.776v6.592q1.377-.016 2.416-.096 1.04-.08 2.096-.288l.16 1.2q-1.215.24-2.384.32a41 41 0 0 1-2.8.08h-.928zm16.801-.272v-1.52h1.456v1.52h3.44v1.168h-8.336v-1.168zm-2.672 4.4q0-.768.416-1.344.432-.592 1.2-.912.783-.32 1.776-.32 1.008 0 1.776.32.783.32 1.2.912.432.576.432 1.344 0 1.152-.944 1.856-.928.688-2.464.688-1.52 0-2.464-.688-.928-.704-.928-1.856m.976 3.712h9.216v4.576h-1.472V65.84h-7.744zm.416-3.712q0 .64.544 1.04.56.4 1.456.4t1.44-.4q.56-.4.56-1.04 0-.672-.544-1.056t-1.456-.384-1.456.384a1.22 1.22 0 0 0-.544 1.056m7.328-5.824h1.472v3.824h2.032v1.216h-2.032v3.776h-1.472zm15.648 1.344v1.52a56 56 0 0 1-.08 3.184q-.08 1.36-.416 3.136l-1.44-.16q.32-1.68.4-3.024.08-1.36.08-3.136v-.32h-8.592v-1.2zm-11.344 9.632h3.024v-4.608h1.44v4.608h2.064v-4.608h1.44v4.608h4.8v1.216h-12.768zm20.824-9.552v-1.52h1.456v1.52h3.44v1.168h-8.336v-1.168zm-2.672 4.4q0-.768.416-1.344.432-.592 1.2-.912.785-.32 1.776-.32 1.008 0 1.776.32.784.32 1.2.912.432.576.432 1.344 0 1.152-.944 1.856-.928.688-2.464.688-1.52 0-2.464-.688-.928-.704-.928-1.856m.976 3.712h9.216v4.576h-1.472V65.84h-7.744zm.416-3.712q0 .64.544 1.04.56.4 1.456.4t1.44-.4q.56-.4.56-1.04 0-.672-.544-1.056t-1.456-.384-1.456.384a1.22 1.22 0 0 0-.544 1.056m7.328-5.824h1.472v3.824h2.032v1.216h-2.032v3.776h-1.472zm8.56.848v1.84q0 1.2.736 2.272.753 1.056 2.064 1.568l-.768 1.104a4.7 4.7 0 0 1-1.632-1.056 5.3 5.3 0 0 1-1.088-1.584 5.8 5.8 0 0 1-1.136 1.824q-.72.8-1.712 1.232l-.768-1.136a4.72 4.72 0 0 0 2.112-1.776q.784-1.184.784-2.448v-1.84zm-1.76 10.672q0-1.2 1.264-1.872 1.28-.672 3.472-.672 2.208 0 3.472.672 1.28.672 1.28 1.872t-1.28 1.872q-1.264.688-3.472.688-2.191 0-3.472-.688-1.263-.672-1.264-1.872m1.44 0q0 .688.88 1.072t2.416.384q1.552 0 2.416-.384t.864-1.072q0-.672-.864-1.04-.864-.384-2.416-.384-1.536 0-2.416.384-.88.368-.88 1.04m3.568-11.248h1.376v3.424h1.632V55.12h1.408v8.688h-1.408v-3.792h-1.632v3.344h-1.376zm17.889-.304v14.16h-1.456v-14.16zm-11.088 6.032q0-1.488.464-2.608t1.28-1.728a3.05 3.05 0 0 1 1.872-.608q1.04 0 1.856.608.831.608 1.296 1.728.464 1.12.464 2.608t-.464 2.624q-.465 1.12-1.296 1.728a3.03 3.03 0 0 1-1.856.608 3.05 3.05 0 0 1-1.872-.608q-.816-.608-1.28-1.728-.464-1.136-.464-2.624m1.408 0q0 1.104.272 1.936.288.816.784 1.264.512.448 1.152.448t1.136-.448q.511-.448.784-1.264.288-.832.288-1.936t-.288-1.92q-.273-.832-.784-1.264a1.65 1.65 0 0 0-1.136-.448q-.64 0-1.152.448-.496.432-.784 1.264-.272.816-.272 1.92m22.848-6.032v5.552h2.24v1.232h-2.24v7.376h-1.44v-14.16zM224.022 56.4h6.4v5.152h-4.912v3.104a58 58 0 0 0 3.376-.112 30 30 0 0 0 2.88-.368l.128 1.184q-1.568.288-3.104.4a50 50 0 0 1-3.6.112h-1.136v-5.504h4.928v-2.784h-4.96zm20.384-.096v1.232h3.072V55.12h1.456v10.288h-1.456v-3.664h-3.072v1.248h-6.48v-6.688zm-1.424 5.504v-4.336h-3.632v4.336zm-3.168 2.672h1.456v3.248h8v1.2h-9.456zm7.664-3.92v-1.84h-3.072v1.84zm10.264-4.752v3.968h8.24v1.2h-9.696v-5.168zm-3.104 7.168h12.784v1.184h-5.712v5.072h-1.44V64.16h-5.632zm24.961-6.96v1.232q0 1.36-.064 2.416-.065 1.056-.32 2.4h2.016v1.2h-5.68v5.984h-1.488v-5.984h-5.6v-1.2h9.264q.288-1.328.352-2.384.08-1.072.08-2.432v-.064h-8.112v-1.168zm13.6-.928v5.584h2.176v1.216h-2.176v7.328h-1.472V55.088zm-10.368 1.392h1.456v7.984q3.28-.032 6.224-.624l.176 1.2q-1.68.352-3.312.496a43 43 0 0 1-3.392.128h-1.152zm19.928-.816v1.664h6.528v-1.664h1.456v5.664h-4.016v1.44h5.664v1.168h-12.752v-1.168h5.648v-1.44h-3.968v-5.664zm-1.488 9.344h1.456v2.736h8.24v1.2h-9.696zm8.016-4.832V58.48h-6.528v1.696zm12.536-3.872v2.4q0 1.248.448 2.464.447 1.215 1.248 2.176a5.7 5.7 0 0 0 1.824 1.472l-.88 1.152q-1.136-.592-2-1.712a8.3 8.3 0 0 1-1.328-2.56 9.3 9.3 0 0 1-1.392 2.736q-.897 1.2-2.08 1.808l-.88-1.184q1.04-.512 1.856-1.504a7.75 7.75 0 0 0 1.76-4.848v-2.4zm4.592-1.184h1.472v5.632h2.256v1.232h-2.256v7.248h-1.472zM36.16 81.088v14.16h-1.456v-14.16zM25.072 87.12q0-1.488.464-2.608t1.28-1.728a3.05 3.05 0 0 1 1.872-.608q1.04 0 1.856.608.832.608 1.296 1.728t.464 2.608-.464 2.624q-.464 1.12-1.296 1.728a3.03 3.03 0 0 1-1.856.608 3.05 3.05 0 0 1-1.872-.608q-.816-.608-1.28-1.728-.464-1.136-.464-2.624m1.408 0q0 1.104.272 1.936.288.816.784 1.264.512.448 1.152.448t1.136-.448q.512-.448.784-1.264.288-.832.288-1.936t-.288-1.92q-.272-.832-.784-1.264a1.65 1.65 0 0 0-1.136-.448q-.64 0-1.152.448-.495.433-.784 1.264-.272.816-.272 1.92m23.152-4.848v1.184h-8.128v1.952h7.824v1.168h-7.824v2.048h8.272v1.184h-9.744v-7.536zM38.416 92.24H51.2v1.2H38.416zm18.385-10.128q1.088 0 1.952.432a3.27 3.27 0 0 1 1.344 1.2q.495.751.496 1.728 0 .975-.496 1.744-.48.768-1.344 1.2-.864.416-1.952.416-1.105 0-1.984-.416a3.4 3.4 0 0 1-1.36-1.2 3.2 3.2 0 0 1-.48-1.744q0-.976.48-1.728a3.4 3.4 0 0 1 1.36-1.2q.88-.432 1.984-.432m-4.496 8.88q2.688 0 4.896-.08a40 40 0 0 0 4.24-.4l.112 1.072a31 31 0 0 1-4.256.512q-2.16.112-4.816.112zm2.096-5.52q0 .928.672 1.52.687.576 1.728.576 1.023 0 1.696-.576.672-.592.672-1.52t-.672-1.504q-.673-.592-1.696-.592-1.041 0-1.728.576-.672.576-.672 1.52m7.92-4.384h1.472v14.16H62.32zm9.016.352h1.008l-.528 3.36h-1.504zm10.791 1.088v1.216h-3.232v1.568q0 1.168.48 2.32.48 1.136 1.328 2.032.848.895 1.904 1.36l-.816 1.152q-1.216-.544-2.176-1.648a8 8 0 0 1-1.44-2.544 8.7 8.7 0 0 1-1.424 2.752q-.945 1.2-2.16 1.792l-.832-1.152q1.025-.495 1.872-1.472a7.6 7.6 0 0 0 1.328-2.176q.48-1.216.48-2.416v-1.568h-3.216v-1.216zm1.76-1.408h1.456v14.112h-1.456zm15.344-.016V91.84h-1.456v-1.392H94.96v-1.024h2.816v-8.32zm-11.696 6.464q2.592 0 4.832-.08a47 47 0 0 0 4.24-.336l.096 1.056q-1.695.272-3.712.4v2.752h-1.456v-2.672q-1.695.08-3.808.08zm1.088-3.44q0-.736.432-1.296.449-.56 1.232-.864.801-.304 1.824-.304 1.025 0 1.808.304t1.216.864q.448.56.448 1.296 0 1.12-.96 1.808-.96.672-2.512.672-1.023 0-1.824-.304-.783-.304-1.232-.864a2.13 2.13 0 0 1-.432-1.312m.864 6.672h1.456v2.928h8.624v1.2h-10.08zm.528-6.672q0 .64.576 1.024.576.368 1.52.368.928 0 1.504-.368.576-.384.576-1.024 0-.624-.576-1.008t-1.504-.384-1.52.384q-.576.384-.576 1.008m22.337-3.008v5.728h2.24v1.216h-2.24v7.168h-1.456V81.12zm-10.992 2.208h3.456v-2.032h1.488v2.032h3.376v1.184h-8.32zm.752 5.536q0-.945.448-1.68.447-.751 1.232-1.168a3.8 3.8 0 0 1 1.776-.416q.991 0 1.776.416.8.416 1.248 1.168.447.735.448 1.68 0 .945-.448 1.696-.449.736-1.248 1.152-.785.416-1.776.416a3.8 3.8 0 0 1-1.776-.416 3.1 3.1 0 0 1-1.232-1.152 3.25 3.25 0 0 1-.448-1.696m1.392 0q0 .912.576 1.488t1.488.576 1.488-.576q.591-.576.592-1.488 0-.912-.592-1.488-.576-.576-1.488-.576-.897 0-1.488.576-.576.576-.576 1.488m23.376-7.76v14.112h-1.472V81.104zm-11.488 10.384q2.768-1.328 4.192-3.248t1.648-4.448h-5.168v-1.184h6.64q0 3.28-1.552 5.824t-4.992 4.208zm15.472-6.672h-1.04l-.176-3.344h1.392zm18.079 2.816v1.088H136.16v-1.088zm-11.28 2.112h9.696v3.104h-8.224v1.168h8.656v1.056h-10.096v-3.216h8.24v-1.072h-8.272zm.112-8.256h9.536v3.04h-8.08v1.088h8.352v1.056h-9.776v-3.12h8.064v-1.024h-8.096zm21.368 7.056V87.28h-3.968v-5.76h9.536v1.136h-8.08v1.152h7.728v1.104h-7.728v1.248h8.176v1.12H160.6v1.264h5.648v1.168h-12.736v-1.168zm-4.112 4.4q0-1.104 1.248-1.68 1.264-.592 3.6-.592 2.32 0 3.584.592 1.264.576 1.264 1.68t-1.264 1.68-3.584.576q-2.335 0-3.6-.576-1.248-.576-1.248-1.68m1.456 0q0 1.168 3.392 1.168 1.648 0 2.512-.288.864-.304.864-.88t-.88-.88q-.864-.304-2.496-.304-1.648 0-2.528.304-.864.304-.864.88m13.584-9.488v-1.952h1.44v1.952h2.736v1.184h-6.944v-1.184zm-2.32 5.296q0-.928.384-1.664.4-.736 1.088-1.152a2.97 2.97 0 0 1 1.568-.416q.864 0 1.552.416.704.416 1.088 1.152.4.735.4 1.664 0 .96-.4 1.696-.384.736-1.072 1.152a2.97 2.97 0 0 1-1.568.416 2.97 2.97 0 0 1-1.568-.416 3 3 0 0 1-1.088-1.152q-.384-.735-.384-1.696m1.296 0q0 .912.48 1.472.496.56 1.264.56t1.248-.56q.496-.56.496-1.472 0-.896-.496-1.456-.48-.56-1.248-.56t-1.264.56q-.48.56-.48 1.456m5.856-7.328h1.376v5.584h1.632v-5.904h1.392v14.112h-1.392v-7.008h-1.632v6.336h-1.376zm20.696-.336v5.664h2.176v1.216H195.6v7.248h-1.488V81.088zm-10.88 10.384q5.296-2.688 5.728-7.68h-5.04v-1.184h6.512q0 3.2-1.536 5.76t-4.848 4.224zm25.377-10.352v7.568h-1.456V81.12zm-11.296 3.904q0-.945.48-1.68.48-.752 1.328-1.152.848-.416 1.904-.416 1.055 0 1.904.416.848.4 1.328 1.152.48.735.48 1.68 0 .96-.48 1.712-.48.736-1.328 1.152t-1.904.416-1.904-.416a3.26 3.26 0 0 1-1.328-1.152 3.1 3.1 0 0 1-.48-1.712m1.424 0q0 .912.64 1.488.64.56 1.648.56t1.648-.56q.64-.576.64-1.488t-.64-1.472q-.64-.576-1.648-.576t-1.648.576q-.64.56-.64 1.472m.72 4.352h1.456v1.6h6.256v-1.6h1.44v5.664h-9.152zm7.712 4.496v-1.744h-6.256v1.744zm14.672-12.8v3.312h2.048v1.2h-2.048v3.232h-1.472v-7.744zm-10.96 1.248h3.44v-1.36h1.456v1.36h3.44v1.136h-8.336zm.768 4.016q0-1.072.912-1.696.928-.624 2.48-.624t2.48.624.928 1.696q0 1.056-.944 1.68-.928.624-2.464.624t-2.464-.624-.928-1.68m1.152 3.168h9.04v3.248h-7.568v1.216h8.048v1.12h-9.488v-3.376h7.568v-1.12h-7.6zm.24-3.168q0 .576.544.912t1.456.336 1.456-.336.544-.912q0-.592-.544-.928-.528-.336-1.456-.336t-1.472.336q-.528.336-.528.928m22.312-4.736v.768q0 .928.672 1.792.688.847 1.84 1.456a8 8 0 0 0 2.512.784l-.592 1.168a8.4 8.4 0 0 1-3.12-1.136q-1.392-.864-2.064-2.096-.656 1.247-2.064 2.096-1.392.848-3.136 1.136l-.592-1.168a7.9 7.9 0 0 0 2.512-.784q1.152-.592 1.824-1.44.688-.864.688-1.808V81.6zm-7.152 7.392h12.768v1.2h-5.696v5.04h-1.44v-5.04h-5.632zm22.2.784v.688q0 .96.48 1.84t1.392 1.44a4.1 4.1 0 0 0 1.424-1.504q.495-.912.496-1.776v-.688h1.44v.688q0 1.136.736 2.096.735.944 2.048 1.392l-.72 1.072A4.8 4.8 0 0 1 257.457 94a4.7 4.7 0 0 1-1.088-1.568 5 5 0 0 1-.992 1.616q-.656.735-1.568 1.12a4.5 4.5 0 0 1-1.632-1.072 4.6 4.6 0 0 1-.992-1.6 4.9 4.9 0 0 1-1.104 1.52 4.7 4.7 0 0 1-1.648 1.008l-.736-1.072q1.311-.465 2.048-1.44.736-.975.736-2.048v-.688zm-4.544-4.544q0-.96.48-1.712.48-.751 1.328-1.168.848-.432 1.904-.432 1.055 0 1.904.432a3.2 3.2 0 0 1 1.328 1.168q.48.752.48 1.712t-.48 1.712a3.2 3.2 0 0 1-1.328 1.168q-.848.416-1.904.416t-1.904-.416a3.2 3.2 0 0 1-1.328-1.168 3.1 3.1 0 0 1-.48-1.712m1.424 0q0 .945.64 1.52t1.648.576q1.008 0 1.648-.576.64-.575.64-1.52 0-.928-.64-1.504-.64-.592-1.648-.592t-1.648.592q-.64.576-.64 1.504m8.416-4.112h1.472v8.048h-1.472zm7.456 1.056q.944 0 1.696.512.768.511 1.248 1.488.48.96.576 2.256h2.912v-5.344h1.456v14.16h-1.456V87.6h-2.896q-.064 1.36-.544 2.384-.464 1.008-1.248 1.552a2.94 2.94 0 0 1-1.744.544 3 3 0 0 1-1.84-.608q-.8-.608-1.248-1.728-.448-1.136-.448-2.624t.448-2.608 1.248-1.728a3 3 0 0 1 1.84-.608m-2.16 4.944q0 1.665.592 2.656t1.568.992q.976 0 1.568-.992t.592-2.656q0-1.665-.592-2.64-.592-.992-1.568-.992t-1.568.992q-.592.975-.592 2.64m15.281 5.12v-3.728q-.88-.48-1.376-1.216a3.06 3.06 0 0 1-.48-1.68q0-1.087.656-1.92.672-.832 1.84-1.28 1.167-.465 2.656-.464 1.503 0 2.672.464 1.183.448 1.84 1.28.656.832.656 1.92 0 .928-.48 1.664-.464.72-1.328 1.216v3.744h3.056v1.2H274.69v-1.2zm-.432-6.624q0 .752.464 1.328.48.56 1.328.88.847.304 1.936.304 1.087 0 1.936-.304.848-.32 1.328-.88.48-.576.48-1.328t-.48-1.312q-.48-.576-1.328-.88-.849-.32-1.936-.32-1.089 0-1.936.32-.849.304-1.328.88a2 2 0 0 0-.464 1.312m5.616 6.624v-3.184a7.8 7.8 0 0 1-1.888.208q-1.025 0-1.856-.208v3.184zm6.8.272q.4 0 .64.24t.24.64-.24.64q-.24.255-.64.256a.89.89 0 0 1-.656-.256q-.24-.24-.24-.64t.24-.64a.92.92 0 0 1 .656-.24"/></svg>