<svg xmlns="http://www.w3.org/2000/svg" width="390" height="211" fill="none" viewBox="0 0 390 211"><path fill="#fff" d="M0 0h390v211H0z"/><path fill="#fff" d="M16.5 57a7.5 7.5 0 0 1 7.5-7.5h342a7.5 7.5 0 0 1 7.5 7.5v79a7.5 7.5 0 0 1-7.5 7.5H24a7.5 7.5 0 0 1-7.5-7.5z"/><path stroke="#C2C2C2" d="M16.5 57a7.5 7.5 0 0 1 7.5-7.5h342a7.5 7.5 0 0 1 7.5 7.5v79a7.5 7.5 0 0 1-7.5 7.5H24a7.5 7.5 0 0 1-7.5-7.5z"/><path fill="#121212" d="M49.648 78.776h-3.504v10.336H44.48V78.776h-3.52v-1.44h8.688zm6.124 5.536q-.111-.928-.655-1.552-.544-.64-1.569-.64-.927 0-1.616.64-.672.624-.816 1.568zm-6.255.64q0-1.232.511-2.192.513-.96 1.409-1.488.911-.544 2.08-.544 1.647 0 2.415.8.785.8 1.056 1.472.368.896.368 1.984 0 .225-.016.4-.015.16-.016.208h-6.207q.144.96.832 1.568t1.584.608q.72 0 1.184-.224.48-.224.656-.416.175-.192.336-.432l1.343.608q-.383.784-1.28 1.328-.896.528-2.255.528-1.17 0-2.08-.528a3.83 3.83 0 0 1-1.408-1.504q-.513-.96-.513-2.176m13.752-.016 3.088 4.176h-2.064l-2-2.832-1.984 2.832h-2.064l3.04-4.176-3.104-4.192h2.08l2.032 2.912 2.016-2.912h2.08zm7.717 4.224q-1.089 0-1.792-.72-.705-.72-.72-1.856v-4.32h-1.44v-1.456h1.44V78.52h1.664v2.288h1.792v1.456h-1.792v4.24q0 .432.24.752t.608.336q.272 0 .512-.048.255-.065.336-.08l.352 1.552q-.785.144-1.2.144M42.448 113.88q.495.944 1.312 1.52.832.56 1.712.56 1.152 0 1.872-.544.736-.56.736-1.456 0-.624-.368-1.04a2.8 2.8 0 0 0-.912-.672 15 15 0 0 0-1.472-.592q-1.152-.4-1.856-.752a3.45 3.45 0 0 1-1.184-1.008q-.496-.656-.496-1.68 0-.912.496-1.584.512-.672 1.376-1.024t1.92-.352q1.264 0 2.272.672t1.424 1.92l-1.264.448a2.4 2.4 0 0 0-.944-1.312 2.55 2.55 0 0 0-1.456-.496q-1.04 0-1.744.48-.688.463-.688 1.248 0 .608.368 1.024t.896.688q.544.256 1.488.592 1.152.416 1.856.784.705.352 1.2 1.008.495.64.496 1.664 0 .944-.512 1.68-.495.736-1.408 1.136t-2.08.4a4.4 4.4 0 0 1-2.4-.688q-1.087-.704-1.824-1.984zm10.61-.288q0 1.024.575 1.696.576.656 1.488.656 1.025 0 1.664-.608.64-.624.64-1.632v-4.912h1.408v8.272h-1.408v-1.232a3 3 0 0 1-1.072.96 2.7 2.7 0 0 1-1.344.368q-.96 0-1.728-.448a3.17 3.17 0 0 1-1.2-1.232q-.432-.784-.432-1.776v-4.912h1.408zm11.965 3.568q-.687 0-1.424-.368-.735-.368-1.264-1.216v1.488h-1.408v-11.68h1.408v4.992q.529-.848 1.264-1.216t1.44-.368q1.151 0 2.048.544a3.63 3.63 0 0 1 1.392 1.472q.512.944.512 2.16t-.512 2.176q-.495.944-1.408 1.488-.896.528-2.048.528m-2.688-4.176q0 .816.352 1.504.368.688.976 1.088.609.4 1.312.4.753 0 1.344-.384.609-.384.928-1.056.336-.688.336-1.552t-.336-1.536a2.36 2.36 0 0 0-.928-1.056 2.4 2.4 0 0 0-1.344-.384q-.704 0-1.312.4-.607.4-.976 1.088a3.2 3.2 0 0 0-.352 1.488m11.1 4.112q-1.025 0-1.68-.672-.657-.672-.688-1.728v-4.624H69.69v-1.232h1.376v-2.192h1.408v2.192h1.776v1.232h-1.776v4.528q0 .48.272.832.27.352.688.352.24 0 .431-.032.193-.032.385-.08l.255 1.296a5.3 5.3 0 0 1-1.072.128m8.546-4.704q-.111-1.024-.671-1.712-.545-.704-1.648-.704-1.008 0-1.729.688-.704.672-.848 1.744zm-6.287.544q0-1.216.495-2.16.496-.944 1.393-1.472.895-.528 2.032-.528 2.384 0 3.407 2.24.337.896.337 1.904a5 5 0 0 1-.032.624h-6.24q.159 1.04.864 1.696.72.656 1.68.656.767 0 1.264-.24.51-.24.703-.464.21-.24.369-.48l1.12.576q-.369.752-1.264 1.28-.88.528-2.209.528-1.135 0-2.031-.528a3.63 3.63 0 0 1-1.392-1.472q-.496-.944-.496-2.16m13.21 0 3.089 4.128h-1.744l-2.128-2.944-2.096 2.944h-1.76l3.056-4.128-3.088-4.144h1.776l2.112 2.992 2.128-2.992h1.76zm7.566 4.16q-1.024 0-1.68-.672t-.688-1.728v-4.624h-1.376v-1.232h1.376v-2.192h1.408v2.192h1.776v1.232H95.51v4.528q0 .48.272.832.271.352.688.352.24 0 .432-.032t.384-.08l.256 1.296a5.3 5.3 0 0 1-1.072.128"/><path fill="#6B6B6B" d="M15.576 161.576a.6.6 0 0 0 0 .848l3.818 3.819a.6.6 0 0 0 .849-.849L16.849 162l3.394-3.394a.6.6 0 0 0-.849-.849zm358.848.848a.6.6 0 0 0 0-.848l-3.818-3.819a.601.601 0 0 0-.849.849l3.394 3.394-3.394 3.394a.601.601 0 0 0 .849.849zM16 162.6h358v-1.2H16zM194.418 176.054h-5.614v3.248h4.718v1.26h-4.718v4.536h-1.456v-10.304h7.07zm3.024 1.764v7.28h-1.456v-7.28zm-1.554-2.38q0-.364.224-.588a.82.82 0 0 1 .602-.238q.364 0 .588.238a.77.77 0 0 1 .238.588.8.8 0 0 1-.238.588.77.77 0 0 1-.588.238.85.85 0 0 1-.602-.224.85.85 0 0 1-.224-.602m4.813-.644v10.304h-1.456v-10.304zm3.142 0v10.304h-1.456v-10.304z"/></svg>