<svg width="908" height="410" viewBox="0 0 908 410" fill="none" xmlns="http://www.w3.org/2000/svg">
<rect width="907" height="410" transform="translate(0.5)" fill="white"/>
<path d="M128.5 55C128.5 50.8579 131.858 47.5 136 47.5H772C776.142 47.5 779.5 50.8579 779.5 55V134C779.5 138.142 776.142 141.5 772 141.5H136C131.858 141.5 128.5 138.142 128.5 134V55Z" fill="white"/>
<path d="M128.5 55C128.5 50.8579 131.858 47.5 136 47.5H772C776.142 47.5 779.5 50.8579 779.5 55V134C779.5 138.142 776.142 141.5 772 141.5H136C131.858 141.5 128.5 138.142 128.5 134V55Z" stroke="#C2C2C2"/>
<path d="M161.648 76.776H158.144V87.112H156.48V76.776H152.96V75.336H161.648V76.776ZM167.773 82.312C167.698 81.6933 167.479 81.176 167.117 80.76C166.754 80.3333 166.231 80.12 165.549 80.12C164.93 80.12 164.391 80.3333 163.933 80.76C163.485 81.176 163.213 81.6987 163.117 82.328L167.773 82.312ZM161.517 82.952C161.517 82.1307 161.687 81.4 162.029 80.76C162.37 80.12 162.839 79.624 163.437 79.272C164.045 78.9093 164.738 78.728 165.517 78.728C166.615 78.728 167.421 78.9947 167.933 79.528C168.455 80.0613 168.807 80.552 168.989 81C169.234 81.5973 169.357 82.2587 169.357 82.984C169.357 83.1333 169.351 83.2667 169.341 83.384C169.33 83.4907 169.325 83.56 169.325 83.592H163.117C163.213 84.232 163.49 84.7547 163.949 85.16C164.407 85.5653 164.935 85.768 165.533 85.768C166.013 85.768 166.407 85.6933 166.717 85.544C167.037 85.3947 167.255 85.256 167.373 85.128C167.49 85 167.602 84.856 167.709 84.696L169.053 85.304C168.797 85.8267 168.37 86.2693 167.773 86.632C167.175 86.984 166.423 87.16 165.517 87.16C164.738 87.16 164.045 86.984 163.437 86.632C162.839 86.2693 162.37 85.768 162.029 85.128C161.687 84.488 161.517 83.7627 161.517 82.952ZM175.269 82.936L178.357 87.112H176.293L174.293 84.28L172.309 87.112H170.245L173.285 82.936L170.181 78.744H172.261L174.293 81.656L176.309 78.744H178.389L175.269 82.936ZM182.986 87.16C182.261 87.16 181.663 86.92 181.194 86.44C180.725 85.96 180.485 85.3413 180.474 84.584V80.264H179.034V78.808H180.474V76.52H182.138V78.808H183.93V80.264H182.138V84.504C182.138 84.792 182.218 85.0427 182.378 85.256C182.538 85.4693 182.741 85.5813 182.986 85.592C183.167 85.592 183.338 85.576 183.498 85.544C183.669 85.5013 183.781 85.4747 183.834 85.464L184.186 87.016C183.663 87.112 183.263 87.16 182.986 87.16Z" fill="#121212"/>
<path d="M154.448 111.88C154.779 112.509 155.216 113.016 155.76 113.4C156.315 113.773 156.885 113.96 157.472 113.96C158.24 113.96 158.864 113.779 159.344 113.416C159.835 113.043 160.08 112.557 160.08 111.96C160.08 111.544 159.957 111.197 159.712 110.92C159.467 110.643 159.163 110.419 158.8 110.248C158.448 110.077 157.957 109.88 157.328 109.656C156.56 109.389 155.941 109.139 155.472 108.904C155.013 108.669 154.619 108.333 154.288 107.896C153.957 107.459 153.792 106.899 153.792 106.216C153.792 105.608 153.957 105.08 154.288 104.632C154.629 104.184 155.088 103.843 155.664 103.608C156.24 103.373 156.88 103.256 157.584 103.256C158.427 103.256 159.184 103.48 159.856 103.928C160.528 104.376 161.003 105.016 161.28 105.848L160.016 106.296C159.845 105.741 159.531 105.304 159.072 104.984C158.624 104.664 158.139 104.499 157.616 104.488C156.923 104.488 156.341 104.648 155.872 104.968C155.413 105.277 155.184 105.693 155.184 106.216C155.184 106.621 155.307 106.963 155.552 107.24C155.797 107.517 156.096 107.747 156.448 107.928C156.811 108.099 157.307 108.296 157.936 108.52C158.704 108.797 159.323 109.059 159.792 109.304C160.261 109.539 160.661 109.875 160.992 110.312C161.323 110.739 161.488 111.293 161.488 111.976C161.488 112.605 161.317 113.165 160.976 113.656C160.645 114.147 160.176 114.525 159.568 114.792C158.96 115.059 158.267 115.192 157.488 115.192C156.613 115.192 155.813 114.963 155.088 114.504C154.363 114.035 153.755 113.373 153.264 112.52L154.448 111.88ZM165.057 111.592C165.057 112.275 165.249 112.84 165.633 113.288C166.017 113.725 166.513 113.944 167.121 113.944C167.804 113.944 168.359 113.741 168.785 113.336C169.212 112.92 169.425 112.376 169.425 111.704V106.792H170.833V115.064H169.425V113.832C169.159 114.227 168.801 114.547 168.353 114.792C167.916 115.037 167.468 115.16 167.009 115.16C166.369 115.16 165.793 115.011 165.281 114.712C164.769 114.413 164.369 114.003 164.081 113.48C163.793 112.957 163.649 112.365 163.649 111.704V106.792H165.057V111.592ZM177.023 115.16C176.565 115.16 176.09 115.037 175.599 114.792C175.109 114.547 174.687 114.141 174.335 113.576V115.064H172.927V103.384H174.335V108.376C174.687 107.811 175.109 107.405 175.599 107.16C176.09 106.915 176.57 106.792 177.039 106.792C177.807 106.792 178.49 106.973 179.087 107.336C179.685 107.688 180.149 108.179 180.479 108.808C180.821 109.437 180.991 110.157 180.991 110.968C180.991 111.779 180.821 112.504 180.479 113.144C180.149 113.773 179.679 114.269 179.071 114.632C178.474 114.984 177.791 115.16 177.023 115.16ZM174.335 110.984C174.335 111.528 174.453 112.029 174.687 112.488C174.933 112.947 175.258 113.309 175.663 113.576C176.069 113.843 176.506 113.976 176.975 113.976C177.477 113.976 177.925 113.848 178.319 113.592C178.725 113.336 179.034 112.984 179.247 112.536C179.471 112.077 179.583 111.56 179.583 110.984C179.583 110.408 179.471 109.896 179.247 109.448C179.034 108.989 178.725 108.637 178.319 108.392C177.925 108.136 177.477 108.008 176.975 108.008C176.506 108.008 176.069 108.141 175.663 108.408C175.258 108.675 174.933 109.037 174.687 109.496C174.453 109.955 174.335 110.451 174.335 110.984ZM185.435 115.096C184.752 115.096 184.192 114.872 183.755 114.424C183.317 113.976 183.088 113.4 183.067 112.696V108.072H181.691V106.84H183.067V104.648H184.475V106.84H186.251V108.072H184.475V112.6C184.475 112.92 184.565 113.197 184.747 113.432C184.928 113.667 185.157 113.784 185.435 113.784C185.595 113.784 185.739 113.773 185.867 113.752C185.995 113.731 186.123 113.704 186.251 113.672L186.507 114.968C186.101 115.053 185.744 115.096 185.435 115.096ZM193.982 110.392C193.907 109.709 193.683 109.139 193.31 108.68C192.947 108.211 192.398 107.976 191.662 107.976C190.99 107.976 190.414 108.205 189.934 108.664C189.464 109.112 189.182 109.693 189.086 110.408L193.982 110.392ZM187.694 110.936C187.694 110.125 187.859 109.405 188.19 108.776C188.52 108.147 188.984 107.656 189.582 107.304C190.179 106.952 190.856 106.776 191.614 106.776C193.203 106.776 194.339 107.523 195.022 109.016C195.246 109.613 195.358 110.248 195.358 110.92C195.358 111.101 195.352 111.251 195.342 111.368C195.331 111.475 195.326 111.533 195.326 111.544H189.086C189.192 112.237 189.48 112.803 189.95 113.24C190.43 113.677 190.99 113.896 191.63 113.896C192.142 113.896 192.563 113.816 192.894 113.656C193.235 113.496 193.47 113.341 193.598 113.192C193.736 113.032 193.859 112.872 193.966 112.712L195.086 113.288C194.84 113.789 194.419 114.216 193.822 114.568C193.235 114.92 192.499 115.096 191.614 115.096C190.856 115.096 190.179 114.92 189.582 114.568C188.984 114.216 188.52 113.725 188.19 113.096C187.859 112.467 187.694 111.747 187.694 110.936ZM200.905 110.936L203.993 115.064H202.249L200.121 112.12L198.025 115.064H196.265L199.321 110.936L196.233 106.792H198.009L200.121 109.784L202.249 106.792H204.009L200.905 110.936ZM208.47 115.096C207.787 115.096 207.227 114.872 206.79 114.424C206.353 113.976 206.123 113.4 206.102 112.696V108.072H204.726V106.84H206.102V104.648H207.51V106.84H209.286V108.072H207.51V112.6C207.51 112.92 207.601 113.197 207.782 113.432C207.963 113.667 208.193 113.784 208.47 113.784C208.63 113.784 208.774 113.773 208.902 113.752C209.03 113.731 209.158 113.704 209.286 113.672L209.542 114.968C209.137 115.053 208.779 115.096 208.47 115.096Z" fill="#121212"/>
<path d="M128.5 232C128.5 227.858 131.858 224.5 136 224.5H436C440.142 224.5 443.5 227.858 443.5 232V311C443.5 315.142 440.142 318.5 436 318.5H136C131.858 318.5 128.5 315.142 128.5 311V232Z" fill="white"/>
<path d="M128.5 232C128.5 227.858 131.858 224.5 136 224.5H436C440.142 224.5 443.5 227.858 443.5 232V311C443.5 315.142 440.142 318.5 436 318.5H136C131.858 318.5 128.5 315.142 128.5 311V232Z" stroke="#C2C2C2"/>
<path d="M161.648 253.776H158.144V264.112H156.48V253.776H152.96V252.336H161.648V253.776ZM167.773 259.312C167.698 258.693 167.479 258.176 167.117 257.76C166.754 257.333 166.231 257.12 165.549 257.12C164.93 257.12 164.391 257.333 163.933 257.76C163.485 258.176 163.213 258.699 163.117 259.328L167.773 259.312ZM161.517 259.952C161.517 259.131 161.687 258.4 162.029 257.76C162.37 257.12 162.839 256.624 163.437 256.272C164.045 255.909 164.738 255.728 165.517 255.728C166.615 255.728 167.421 255.995 167.933 256.528C168.455 257.061 168.807 257.552 168.989 258C169.234 258.597 169.357 259.259 169.357 259.984C169.357 260.133 169.351 260.267 169.341 260.384C169.33 260.491 169.325 260.56 169.325 260.592H163.117C163.213 261.232 163.49 261.755 163.949 262.16C164.407 262.565 164.935 262.768 165.533 262.768C166.013 262.768 166.407 262.693 166.717 262.544C167.037 262.395 167.255 262.256 167.373 262.128C167.49 262 167.602 261.856 167.709 261.696L169.053 262.304C168.797 262.827 168.37 263.269 167.773 263.632C167.175 263.984 166.423 264.16 165.517 264.16C164.738 264.16 164.045 263.984 163.437 263.632C162.839 263.269 162.37 262.768 162.029 262.128C161.687 261.488 161.517 260.763 161.517 259.952ZM175.269 259.936L178.357 264.112H176.293L174.293 261.28L172.309 264.112H170.245L173.285 259.936L170.181 255.744H172.261L174.293 258.656L176.309 255.744H178.389L175.269 259.936ZM182.986 264.16C182.261 264.16 181.663 263.92 181.194 263.44C180.725 262.96 180.485 262.341 180.474 261.584V257.264H179.034V255.808H180.474V253.52H182.138V255.808H183.93V257.264H182.138V261.504C182.138 261.792 182.218 262.043 182.378 262.256C182.538 262.469 182.741 262.581 182.986 262.592C183.167 262.592 183.338 262.576 183.498 262.544C183.669 262.501 183.781 262.475 183.834 262.464L184.186 264.016C183.663 264.112 183.263 264.16 182.986 264.16Z" fill="#121212"/>
<path d="M154.448 288.88C154.779 289.509 155.216 290.016 155.76 290.4C156.315 290.773 156.885 290.96 157.472 290.96C158.24 290.96 158.864 290.779 159.344 290.416C159.835 290.043 160.08 289.557 160.08 288.96C160.08 288.544 159.957 288.197 159.712 287.92C159.467 287.643 159.163 287.419 158.8 287.248C158.448 287.077 157.957 286.88 157.328 286.656C156.56 286.389 155.941 286.139 155.472 285.904C155.013 285.669 154.619 285.333 154.288 284.896C153.957 284.459 153.792 283.899 153.792 283.216C153.792 282.608 153.957 282.08 154.288 281.632C154.629 281.184 155.088 280.843 155.664 280.608C156.24 280.373 156.88 280.256 157.584 280.256C158.427 280.256 159.184 280.48 159.856 280.928C160.528 281.376 161.003 282.016 161.28 282.848L160.016 283.296C159.845 282.741 159.531 282.304 159.072 281.984C158.624 281.664 158.139 281.499 157.616 281.488C156.923 281.488 156.341 281.648 155.872 281.968C155.413 282.277 155.184 282.693 155.184 283.216C155.184 283.621 155.307 283.963 155.552 284.24C155.797 284.517 156.096 284.747 156.448 284.928C156.811 285.099 157.307 285.296 157.936 285.52C158.704 285.797 159.323 286.059 159.792 286.304C160.261 286.539 160.661 286.875 160.992 287.312C161.323 287.739 161.488 288.293 161.488 288.976C161.488 289.605 161.317 290.165 160.976 290.656C160.645 291.147 160.176 291.525 159.568 291.792C158.96 292.059 158.267 292.192 157.488 292.192C156.613 292.192 155.813 291.963 155.088 291.504C154.363 291.035 153.755 290.373 153.264 289.52L154.448 288.88ZM165.057 288.592C165.057 289.275 165.249 289.84 165.633 290.288C166.017 290.725 166.513 290.944 167.121 290.944C167.804 290.944 168.359 290.741 168.785 290.336C169.212 289.92 169.425 289.376 169.425 288.704V283.792H170.833V292.064H169.425V290.832C169.159 291.227 168.801 291.547 168.353 291.792C167.916 292.037 167.468 292.16 167.009 292.16C166.369 292.16 165.793 292.011 165.281 291.712C164.769 291.413 164.369 291.003 164.081 290.48C163.793 289.957 163.649 289.365 163.649 288.704V283.792H165.057V288.592ZM177.023 292.16C176.565 292.16 176.09 292.037 175.599 291.792C175.109 291.547 174.687 291.141 174.335 290.576V292.064H172.927V280.384H174.335V285.376C174.687 284.811 175.109 284.405 175.599 284.16C176.09 283.915 176.57 283.792 177.039 283.792C177.807 283.792 178.49 283.973 179.087 284.336C179.685 284.688 180.149 285.179 180.479 285.808C180.821 286.437 180.991 287.157 180.991 287.968C180.991 288.779 180.821 289.504 180.479 290.144C180.149 290.773 179.679 291.269 179.071 291.632C178.474 291.984 177.791 292.16 177.023 292.16ZM174.335 287.984C174.335 288.528 174.453 289.029 174.687 289.488C174.933 289.947 175.258 290.309 175.663 290.576C176.069 290.843 176.506 290.976 176.975 290.976C177.477 290.976 177.925 290.848 178.319 290.592C178.725 290.336 179.034 289.984 179.247 289.536C179.471 289.077 179.583 288.56 179.583 287.984C179.583 287.408 179.471 286.896 179.247 286.448C179.034 285.989 178.725 285.637 178.319 285.392C177.925 285.136 177.477 285.008 176.975 285.008C176.506 285.008 176.069 285.141 175.663 285.408C175.258 285.675 174.933 286.037 174.687 286.496C174.453 286.955 174.335 287.451 174.335 287.984ZM185.435 292.096C184.752 292.096 184.192 291.872 183.755 291.424C183.317 290.976 183.088 290.4 183.067 289.696V285.072H181.691V283.84H183.067V281.648H184.475V283.84H186.251V285.072H184.475V289.6C184.475 289.92 184.565 290.197 184.747 290.432C184.928 290.667 185.157 290.784 185.435 290.784C185.595 290.784 185.739 290.773 185.867 290.752C185.995 290.731 186.123 290.704 186.251 290.672L186.507 291.968C186.101 292.053 185.744 292.096 185.435 292.096ZM193.982 287.392C193.907 286.709 193.683 286.139 193.31 285.68C192.947 285.211 192.398 284.976 191.662 284.976C190.99 284.976 190.414 285.205 189.934 285.664C189.464 286.112 189.182 286.693 189.086 287.408L193.982 287.392ZM187.694 287.936C187.694 287.125 187.859 286.405 188.19 285.776C188.52 285.147 188.984 284.656 189.582 284.304C190.179 283.952 190.856 283.776 191.614 283.776C193.203 283.776 194.339 284.523 195.022 286.016C195.246 286.613 195.358 287.248 195.358 287.92C195.358 288.101 195.352 288.251 195.342 288.368C195.331 288.475 195.326 288.533 195.326 288.544H189.086C189.192 289.237 189.48 289.803 189.95 290.24C190.43 290.677 190.99 290.896 191.63 290.896C192.142 290.896 192.563 290.816 192.894 290.656C193.235 290.496 193.47 290.341 193.598 290.192C193.736 290.032 193.859 289.872 193.966 289.712L195.086 290.288C194.84 290.789 194.419 291.216 193.822 291.568C193.235 291.92 192.499 292.096 191.614 292.096C190.856 292.096 190.179 291.92 189.582 291.568C188.984 291.216 188.52 290.725 188.19 290.096C187.859 289.467 187.694 288.747 187.694 287.936ZM200.905 287.936L203.993 292.064H202.249L200.121 289.12L198.025 292.064H196.265L199.321 287.936L196.233 283.792H198.009L200.121 286.784L202.249 283.792H204.009L200.905 287.936ZM208.47 292.096C207.787 292.096 207.227 291.872 206.79 291.424C206.353 290.976 206.123 290.4 206.102 289.696V285.072H204.726V283.84H206.102V281.648H207.51V283.84H209.286V285.072H207.51V289.6C207.51 289.92 207.601 290.197 207.782 290.432C207.963 290.667 208.193 290.784 208.47 290.784C208.63 290.784 208.774 290.773 208.902 290.752C209.03 290.731 209.158 290.704 209.286 290.672L209.542 291.968C209.137 292.053 208.779 292.096 208.47 292.096Z" fill="#121212"/>
<path d="M464.5 232C464.5 227.858 467.858 224.5 472 224.5H772C776.142 224.5 779.5 227.858 779.5 232V311C779.5 315.142 776.142 318.5 772 318.5H472C467.858 318.5 464.5 315.142 464.5 311V232Z" fill="white"/>
<path d="M464.5 232C464.5 227.858 467.858 224.5 472 224.5H772C776.142 224.5 779.5 227.858 779.5 232V311C779.5 315.142 776.142 318.5 772 318.5H472C467.858 318.5 464.5 315.142 464.5 311V232Z" stroke="#C2C2C2"/>
<path d="M497.648 253.776H494.144V264.112H492.48V253.776H488.96V252.336H497.648V253.776ZM503.773 259.312C503.698 258.693 503.479 258.176 503.117 257.76C502.754 257.333 502.231 257.12 501.549 257.12C500.93 257.12 500.391 257.333 499.933 257.76C499.485 258.176 499.213 258.699 499.117 259.328L503.773 259.312ZM497.517 259.952C497.517 259.131 497.687 258.4 498.029 257.76C498.37 257.12 498.839 256.624 499.437 256.272C500.045 255.909 500.738 255.728 501.517 255.728C502.615 255.728 503.421 255.995 503.933 256.528C504.455 257.061 504.807 257.552 504.989 258C505.234 258.597 505.357 259.259 505.357 259.984C505.357 260.133 505.351 260.267 505.341 260.384C505.33 260.491 505.325 260.56 505.325 260.592H499.117C499.213 261.232 499.49 261.755 499.949 262.16C500.407 262.565 500.935 262.768 501.533 262.768C502.013 262.768 502.407 262.693 502.717 262.544C503.037 262.395 503.255 262.256 503.373 262.128C503.49 262 503.602 261.856 503.709 261.696L505.053 262.304C504.797 262.827 504.37 263.269 503.773 263.632C503.175 263.984 502.423 264.16 501.517 264.16C500.738 264.16 500.045 263.984 499.437 263.632C498.839 263.269 498.37 262.768 498.029 262.128C497.687 261.488 497.517 260.763 497.517 259.952ZM511.269 259.936L514.357 264.112H512.293L510.293 261.28L508.309 264.112H506.245L509.285 259.936L506.181 255.744H508.261L510.293 258.656L512.309 255.744H514.389L511.269 259.936ZM518.986 264.16C518.261 264.16 517.663 263.92 517.194 263.44C516.725 262.96 516.485 262.341 516.474 261.584V257.264H515.034V255.808H516.474V253.52H518.138V255.808H519.93V257.264H518.138V261.504C518.138 261.792 518.218 262.043 518.378 262.256C518.538 262.469 518.741 262.581 518.986 262.592C519.167 262.592 519.338 262.576 519.498 262.544C519.669 262.501 519.781 262.475 519.834 262.464L520.186 264.016C519.663 264.112 519.263 264.16 518.986 264.16Z" fill="#121212"/>
<path d="M490.448 288.88C490.779 289.509 491.216 290.016 491.76 290.4C492.315 290.773 492.885 290.96 493.472 290.96C494.24 290.96 494.864 290.779 495.344 290.416C495.835 290.043 496.08 289.557 496.08 288.96C496.08 288.544 495.957 288.197 495.712 287.92C495.467 287.643 495.163 287.419 494.8 287.248C494.448 287.077 493.957 286.88 493.328 286.656C492.56 286.389 491.941 286.139 491.472 285.904C491.013 285.669 490.619 285.333 490.288 284.896C489.957 284.459 489.792 283.899 489.792 283.216C489.792 282.608 489.957 282.08 490.288 281.632C490.629 281.184 491.088 280.843 491.664 280.608C492.24 280.373 492.88 280.256 493.584 280.256C494.427 280.256 495.184 280.48 495.856 280.928C496.528 281.376 497.003 282.016 497.28 282.848L496.016 283.296C495.845 282.741 495.531 282.304 495.072 281.984C494.624 281.664 494.139 281.499 493.616 281.488C492.923 281.488 492.341 281.648 491.872 281.968C491.413 282.277 491.184 282.693 491.184 283.216C491.184 283.621 491.307 283.963 491.552 284.24C491.797 284.517 492.096 284.747 492.448 284.928C492.811 285.099 493.307 285.296 493.936 285.52C494.704 285.797 495.323 286.059 495.792 286.304C496.261 286.539 496.661 286.875 496.992 287.312C497.323 287.739 497.488 288.293 497.488 288.976C497.488 289.605 497.317 290.165 496.976 290.656C496.645 291.147 496.176 291.525 495.568 291.792C494.96 292.059 494.267 292.192 493.488 292.192C492.613 292.192 491.813 291.963 491.088 291.504C490.363 291.035 489.755 290.373 489.264 289.52L490.448 288.88ZM501.057 288.592C501.057 289.275 501.249 289.84 501.633 290.288C502.017 290.725 502.513 290.944 503.121 290.944C503.804 290.944 504.359 290.741 504.785 290.336C505.212 289.92 505.425 289.376 505.425 288.704V283.792H506.833V292.064H505.425V290.832C505.159 291.227 504.801 291.547 504.353 291.792C503.916 292.037 503.468 292.16 503.009 292.16C502.369 292.16 501.793 292.011 501.281 291.712C500.769 291.413 500.369 291.003 500.081 290.48C499.793 289.957 499.649 289.365 499.649 288.704V283.792H501.057V288.592ZM513.023 292.16C512.565 292.16 512.09 292.037 511.599 291.792C511.109 291.547 510.687 291.141 510.335 290.576V292.064H508.927V280.384H510.335V285.376C510.687 284.811 511.109 284.405 511.599 284.16C512.09 283.915 512.57 283.792 513.039 283.792C513.807 283.792 514.49 283.973 515.087 284.336C515.685 284.688 516.149 285.179 516.479 285.808C516.821 286.437 516.991 287.157 516.991 287.968C516.991 288.779 516.821 289.504 516.479 290.144C516.149 290.773 515.679 291.269 515.071 291.632C514.474 291.984 513.791 292.16 513.023 292.16ZM510.335 287.984C510.335 288.528 510.453 289.029 510.687 289.488C510.933 289.947 511.258 290.309 511.663 290.576C512.069 290.843 512.506 290.976 512.975 290.976C513.477 290.976 513.925 290.848 514.319 290.592C514.725 290.336 515.034 289.984 515.247 289.536C515.471 289.077 515.583 288.56 515.583 287.984C515.583 287.408 515.471 286.896 515.247 286.448C515.034 285.989 514.725 285.637 514.319 285.392C513.925 285.136 513.477 285.008 512.975 285.008C512.506 285.008 512.069 285.141 511.663 285.408C511.258 285.675 510.933 286.037 510.687 286.496C510.453 286.955 510.335 287.451 510.335 287.984ZM521.435 292.096C520.752 292.096 520.192 291.872 519.755 291.424C519.317 290.976 519.088 290.4 519.067 289.696V285.072H517.691V283.84H519.067V281.648H520.475V283.84H522.251V285.072H520.475V289.6C520.475 289.92 520.565 290.197 520.747 290.432C520.928 290.667 521.157 290.784 521.435 290.784C521.595 290.784 521.739 290.773 521.867 290.752C521.995 290.731 522.123 290.704 522.251 290.672L522.507 291.968C522.101 292.053 521.744 292.096 521.435 292.096ZM529.982 287.392C529.907 286.709 529.683 286.139 529.31 285.68C528.947 285.211 528.398 284.976 527.662 284.976C526.99 284.976 526.414 285.205 525.934 285.664C525.464 286.112 525.182 286.693 525.086 287.408L529.982 287.392ZM523.694 287.936C523.694 287.125 523.859 286.405 524.19 285.776C524.52 285.147 524.984 284.656 525.582 284.304C526.179 283.952 526.856 283.776 527.614 283.776C529.203 283.776 530.339 284.523 531.022 286.016C531.246 286.613 531.358 287.248 531.358 287.92C531.358 288.101 531.352 288.251 531.342 288.368C531.331 288.475 531.326 288.533 531.326 288.544H525.086C525.192 289.237 525.48 289.803 525.95 290.24C526.43 290.677 526.99 290.896 527.63 290.896C528.142 290.896 528.563 290.816 528.894 290.656C529.235 290.496 529.47 290.341 529.598 290.192C529.736 290.032 529.859 289.872 529.966 289.712L531.086 290.288C530.84 290.789 530.419 291.216 529.822 291.568C529.235 291.92 528.499 292.096 527.614 292.096C526.856 292.096 526.179 291.92 525.582 291.568C524.984 291.216 524.52 290.725 524.19 290.096C523.859 289.467 523.694 288.747 523.694 287.936ZM536.905 287.936L539.993 292.064H538.249L536.121 289.12L534.025 292.064H532.265L535.321 287.936L532.233 283.792H534.009L536.121 286.784L538.249 283.792H540.009L536.905 287.936ZM544.47 292.096C543.787 292.096 543.227 291.872 542.79 291.424C542.353 290.976 542.123 290.4 542.102 289.696V285.072H540.726V283.84H542.102V281.648H543.51V283.84H545.286V285.072H543.51V289.6C543.51 289.92 543.601 290.197 543.782 290.432C543.963 290.667 544.193 290.784 544.47 290.784C544.63 290.784 544.774 290.773 544.902 290.752C545.03 290.731 545.158 290.704 545.286 290.672L545.542 291.968C545.137 292.053 544.779 292.096 544.47 292.096Z" fill="#121212"/>
<path d="M128.076 159.576C127.841 159.81 127.841 160.19 128.076 160.424L131.894 164.243C132.128 164.477 132.508 164.477 132.743 164.243C132.977 164.008 132.977 163.628 132.743 163.394L129.349 160L132.743 156.606C132.977 156.372 132.977 155.992 132.743 155.757C132.508 155.523 132.128 155.523 131.894 155.757L128.076 159.576ZM780.924 160.424C781.159 160.19 781.159 159.81 780.924 159.576L777.106 155.757C776.872 155.523 776.492 155.523 776.257 155.757C776.023 155.992 776.023 156.372 776.257 156.606L779.651 160L776.257 163.394C776.023 163.628 776.023 164.008 776.257 164.243C776.492 164.477 776.872 164.477 777.106 164.243L780.924 160.424ZM128.5 160.6H780.5V159.4H128.5V160.6Z" fill="#6B6B6B"/>
<path d="M128.076 336.576C127.841 336.81 127.841 337.19 128.076 337.424L131.894 341.243C132.128 341.477 132.508 341.477 132.743 341.243C132.977 341.008 132.977 340.628 132.743 340.394L129.349 337L132.743 333.606C132.977 333.372 132.977 332.992 132.743 332.757C132.508 332.523 132.128 332.523 131.894 332.757L128.076 336.576ZM444.924 337.424C445.159 337.19 445.159 336.81 444.924 336.576L441.106 332.757C440.872 332.523 440.492 332.523 440.257 332.757C440.023 332.992 440.023 333.372 440.257 333.606L443.651 337L440.257 340.394C440.023 340.628 440.023 341.008 440.257 341.243C440.492 341.477 440.872 341.477 441.106 341.243L444.924 337.424ZM128.5 337.6H444.5V336.4H128.5V337.6Z" fill="#6B6B6B"/>
<path d="M464.076 336.576C463.841 336.81 463.841 337.19 464.076 337.424L467.894 341.243C468.128 341.477 468.508 341.477 468.743 341.243C468.977 341.008 468.977 340.628 468.743 340.394L465.349 337L468.743 333.606C468.977 333.372 468.977 332.992 468.743 332.757C468.508 332.523 468.128 332.523 467.894 332.757L464.076 336.576ZM780.924 337.424C781.159 337.19 781.159 336.81 780.924 336.576L777.106 332.757C776.872 332.523 776.492 332.523 776.257 332.757C776.023 332.992 776.023 333.372 776.257 333.606L779.651 337L776.257 340.394C776.023 340.628 776.023 341.008 776.257 341.243C776.492 341.477 776.872 341.477 777.106 341.243L780.924 337.424ZM464.5 337.6H780.5V336.4H464.5V337.6Z" fill="#6B6B6B"/>
<path d="M418.171 182.866C418.778 182.866 419.273 182.67 419.655 182.278C420.047 181.886 420.243 181.377 420.243 180.752C420.243 180.127 420.047 179.618 419.655 179.226C419.273 178.825 418.778 178.624 418.171 178.624C417.574 178.624 417.084 178.825 416.701 179.226C416.319 179.618 416.127 180.127 416.127 180.752C416.127 181.377 416.319 181.886 416.701 182.278C417.084 182.67 417.574 182.866 418.171 182.866ZM414.671 180.752C414.671 180.136 414.858 179.492 415.231 178.82L418.045 173.836H419.711L417.667 177.406C417.826 177.369 418.013 177.35 418.227 177.35C418.899 177.35 419.497 177.499 420.019 177.798C420.551 178.087 420.962 178.489 421.251 179.002C421.55 179.515 421.699 180.099 421.699 180.752C421.699 181.405 421.55 181.989 421.251 182.502C420.953 183.015 420.537 183.417 420.005 183.706C419.473 183.995 418.867 184.14 418.185 184.14C417.504 184.14 416.897 183.995 416.365 183.706C415.833 183.417 415.418 183.015 415.119 182.502C414.821 181.989 414.671 181.405 414.671 180.752ZM423.36 179.282L423.696 173.85H429.128V175.124H425.096L424.928 177.658C425.422 177.434 425.908 177.322 426.384 177.322C427.074 177.322 427.69 177.467 428.232 177.756C428.782 178.045 429.207 178.447 429.506 178.96C429.814 179.473 429.968 180.061 429.968 180.724C429.968 181.396 429.814 181.993 429.506 182.516C429.207 183.039 428.782 183.445 428.232 183.734C427.69 184.023 427.074 184.168 426.384 184.168C425.842 184.168 425.334 184.056 424.858 183.832C424.382 183.608 423.976 183.295 423.64 182.894C423.304 182.493 423.075 182.035 422.954 181.522L424.368 181.186C424.48 181.662 424.722 182.054 425.096 182.362C425.469 182.661 425.898 182.81 426.384 182.81C427.009 182.81 427.518 182.619 427.91 182.236C428.311 181.844 428.512 181.34 428.512 180.724C428.512 180.127 428.311 179.641 427.91 179.268C427.518 178.885 427.009 178.694 426.384 178.694C426.122 178.694 425.847 178.769 425.558 178.918C425.268 179.058 425.016 179.24 424.802 179.464L423.36 179.282ZM431.418 182.768C431.549 182.647 432.025 182.208 432.846 181.452C433.602 180.771 434.204 180.211 434.652 179.772C435.109 179.324 435.492 178.867 435.8 178.4C436.108 177.924 436.262 177.476 436.262 177.056C436.262 176.477 436.094 176.006 435.758 175.642C435.431 175.269 435.007 175.082 434.484 175.082C434.083 175.082 433.695 175.213 433.322 175.474C432.949 175.735 432.673 176.071 432.496 176.482L431.222 175.922C431.502 175.287 431.945 174.769 432.552 174.368C433.168 173.957 433.812 173.752 434.484 173.752C435.109 173.752 435.665 173.892 436.15 174.172C436.645 174.452 437.027 174.844 437.298 175.348C437.578 175.843 437.718 176.412 437.718 177.056C437.718 177.691 437.527 178.321 437.144 178.946C436.771 179.571 436.313 180.15 435.772 180.682C435.24 181.214 434.559 181.835 433.728 182.544L433.476 182.768H437.872V184.042H431.558L431.418 182.768ZM443.181 182.964C443.806 182.964 444.315 182.735 444.707 182.278C445.099 181.811 445.295 181.205 445.295 180.458C445.295 179.721 445.099 179.123 444.707 178.666C444.315 178.209 443.806 177.98 443.181 177.98C442.789 177.98 442.425 178.092 442.089 178.316C441.753 178.54 441.487 178.843 441.291 179.226C441.095 179.599 440.997 180.01 440.997 180.458C440.997 180.915 441.095 181.335 441.291 181.718C441.487 182.101 441.753 182.404 442.089 182.628C442.425 182.852 442.789 182.964 443.181 182.964ZM439.527 176.776H440.983V178.036C441.235 177.616 441.585 177.303 442.033 177.098C442.481 176.883 442.892 176.776 443.265 176.776C443.946 176.776 444.548 176.935 445.071 177.252C445.603 177.56 446.014 177.994 446.303 178.554C446.602 179.105 446.751 179.739 446.751 180.458C446.751 181.177 446.602 181.821 446.303 182.39C446.014 182.95 445.603 183.389 445.071 183.706C444.548 184.014 443.946 184.168 443.265 184.168C442.892 184.168 442.481 184.061 442.033 183.846C441.585 183.622 441.235 183.3 440.983 182.88V187.234H439.527V176.776ZM451.894 180.444L454.596 184.098H452.79L451.04 181.62L449.304 184.098H447.498L450.158 180.444L447.442 176.776H449.262L451.04 179.324L452.804 176.776H454.624L451.894 180.444ZM457.026 181.928C456.709 180.845 456.55 179.851 456.55 178.946C456.55 178.041 456.709 177.051 457.026 175.978C457.353 174.895 457.768 173.953 458.272 173.15H459.812C459.243 173.934 458.776 174.867 458.412 175.95C458.048 177.033 457.866 178.031 457.866 178.946C457.866 179.861 458.048 180.859 458.412 181.942C458.776 183.025 459.243 183.958 459.812 184.742H458.272C457.768 183.939 457.353 183.001 457.026 181.928ZM463.163 176.328V184.098H461.707V173.794H463.275L467.027 179.87L470.779 173.794H472.347V184.098H470.891V176.314L467.027 182.362L463.163 176.328ZM477.611 182.964C477.993 182.964 478.353 182.857 478.689 182.642C479.025 182.418 479.291 182.119 479.487 181.746C479.692 181.363 479.795 180.943 479.795 180.486C479.795 180.029 479.692 179.613 479.487 179.24C479.291 178.857 479.025 178.559 478.689 178.344C478.353 178.12 477.993 178.008 477.611 178.008C476.985 178.008 476.477 178.237 476.085 178.694C475.693 179.151 475.497 179.749 475.497 180.486C475.497 181.223 475.693 181.821 476.085 182.278C476.477 182.735 476.985 182.964 477.611 182.964ZM474.041 180.486C474.041 179.777 474.185 179.142 474.475 178.582C474.773 178.022 475.184 177.588 475.707 177.28C476.239 176.963 476.841 176.804 477.513 176.804C477.942 176.804 478.353 176.911 478.745 177.126C479.146 177.331 479.491 177.644 479.781 178.064V176.776H481.237V184.098L479.781 184.112V182.894C479.482 183.323 479.137 183.645 478.745 183.86C478.353 184.065 477.942 184.168 477.513 184.168C476.841 184.168 476.239 184.014 475.707 183.706C475.184 183.389 474.773 182.95 474.475 182.39C474.185 181.83 474.041 181.195 474.041 180.486ZM487.195 180.444L489.897 184.098H488.091L486.341 181.62L484.605 184.098H482.799L485.459 180.444L482.743 176.776H484.563L486.341 179.324L488.105 176.776H489.925L487.195 180.444ZM494.063 175.978C494.39 177.061 494.553 178.05 494.553 178.946C494.553 179.842 494.39 180.831 494.063 181.914C493.746 182.997 493.34 183.939 492.845 184.742H491.305C491.875 183.958 492.337 183.025 492.691 181.942C493.055 180.859 493.237 179.861 493.237 178.946C493.237 178.031 493.055 177.033 492.691 175.95C492.337 174.867 491.875 173.934 491.305 173.15H492.845C493.34 173.953 493.746 174.895 494.063 175.978Z" fill="#6B6B6B"/>
<path d="M254.856 355.778C255.304 356.039 255.658 356.394 255.92 356.842C256.19 357.281 256.326 357.719 256.326 358.158C256.326 358.727 256.181 359.236 255.892 359.684C255.602 360.132 255.196 360.482 254.674 360.734C254.151 360.986 253.558 361.112 252.896 361.112C252.233 361.112 251.64 360.986 251.118 360.734C250.595 360.473 250.184 360.113 249.886 359.656C249.596 359.189 249.452 358.662 249.452 358.074H250.908C250.908 358.587 251.094 359.007 251.468 359.334C251.841 359.661 252.317 359.824 252.896 359.824C253.493 359.824 253.978 359.665 254.352 359.348C254.725 359.021 254.912 358.601 254.912 358.088C254.912 357.584 254.725 357.173 254.352 356.856C253.978 356.539 253.502 356.38 252.924 356.38H252.196V355.162H252.924C253.465 355.162 253.908 355.017 254.254 354.728C254.599 354.439 254.772 354.065 254.772 353.608C254.772 353.151 254.604 352.782 254.268 352.502C253.932 352.213 253.502 352.068 252.98 352.068C252.466 352.068 252.042 352.213 251.706 352.502C251.379 352.791 251.216 353.165 251.216 353.622H249.76C249.76 353.071 249.895 352.581 250.166 352.152C250.446 351.713 250.828 351.377 251.314 351.144C251.799 350.901 252.354 350.78 252.98 350.78C253.596 350.78 254.146 350.897 254.632 351.13C255.126 351.363 255.509 351.69 255.78 352.11C256.05 352.53 256.186 353.006 256.186 353.538C256.186 353.939 256.064 354.35 255.822 354.77C255.579 355.181 255.257 355.517 254.856 355.778ZM261.322 361.042L259.866 361.028V352.418L258.088 353.426L257.472 352.208L259.88 350.864H261.322V361.042ZM266.74 359.866C267.347 359.866 267.841 359.67 268.224 359.278C268.616 358.886 268.812 358.377 268.812 357.752C268.812 357.127 268.616 356.618 268.224 356.226C267.841 355.825 267.347 355.624 266.74 355.624C266.143 355.624 265.653 355.825 265.27 356.226C264.887 356.618 264.696 357.127 264.696 357.752C264.696 358.377 264.887 358.886 265.27 359.278C265.653 359.67 266.143 359.866 266.74 359.866ZM263.24 357.752C263.24 357.136 263.427 356.492 263.8 355.82L266.614 350.836H268.28L266.236 354.406C266.395 354.369 266.581 354.35 266.796 354.35C267.468 354.35 268.065 354.499 268.588 354.798C269.12 355.087 269.531 355.489 269.82 356.002C270.119 356.515 270.268 357.099 270.268 357.752C270.268 358.405 270.119 358.989 269.82 359.502C269.521 360.015 269.106 360.417 268.574 360.706C268.042 360.995 267.435 361.14 266.754 361.14C266.073 361.14 265.466 360.995 264.934 360.706C264.402 360.417 263.987 360.015 263.688 359.502C263.389 358.989 263.24 358.405 263.24 357.752ZM275.582 359.964C276.208 359.964 276.716 359.735 277.108 359.278C277.5 358.811 277.696 358.205 277.696 357.458C277.696 356.721 277.5 356.123 277.108 355.666C276.716 355.209 276.208 354.98 275.582 354.98C275.19 354.98 274.826 355.092 274.49 355.316C274.154 355.54 273.888 355.843 273.692 356.226C273.496 356.599 273.398 357.01 273.398 357.458C273.398 357.915 273.496 358.335 273.692 358.718C273.888 359.101 274.154 359.404 274.49 359.628C274.826 359.852 275.19 359.964 275.582 359.964ZM271.928 353.776H273.384V355.036C273.636 354.616 273.986 354.303 274.434 354.098C274.882 353.883 275.293 353.776 275.666 353.776C276.348 353.776 276.95 353.935 277.472 354.252C278.004 354.56 278.415 354.994 278.704 355.554C279.003 356.105 279.152 356.739 279.152 357.458C279.152 358.177 279.003 358.821 278.704 359.39C278.415 359.95 278.004 360.389 277.472 360.706C276.95 361.014 276.348 361.168 275.666 361.168C275.293 361.168 274.882 361.061 274.434 360.846C273.986 360.622 273.636 360.3 273.384 359.88V364.234H271.928V353.776ZM284.295 357.444L286.997 361.098H285.191L283.441 358.62L281.705 361.098H279.899L282.559 357.444L279.843 353.776H281.663L283.441 356.324L285.205 353.776H287.025L284.295 357.444ZM289.427 358.928C289.11 357.845 288.951 356.851 288.951 355.946C288.951 355.041 289.11 354.051 289.427 352.978C289.754 351.895 290.169 350.953 290.673 350.15H292.213C291.644 350.934 291.177 351.867 290.813 352.95C290.449 354.033 290.267 355.031 290.267 355.946C290.267 356.861 290.449 357.859 290.813 358.942C291.177 360.025 291.644 360.958 292.213 361.742H290.673C290.169 360.939 289.754 360.001 289.427 358.928ZM295.564 353.328V361.098H294.108V350.794H295.676L299.428 356.87L303.18 350.794H304.748V361.098H303.292V353.314L299.428 359.362L295.564 353.328ZM308.358 353.818V361.098H306.902V353.818H308.358ZM306.804 351.438C306.804 351.195 306.879 350.999 307.028 350.85C307.187 350.691 307.387 350.612 307.63 350.612C307.873 350.612 308.069 350.691 308.218 350.85C308.377 350.999 308.456 351.195 308.456 351.438C308.456 351.671 308.377 351.867 308.218 352.026C308.069 352.185 307.873 352.264 307.63 352.264C307.387 352.264 307.187 352.189 307.028 352.04C306.879 351.881 306.804 351.681 306.804 351.438ZM315.397 357.038C315.397 356.422 315.239 355.932 314.921 355.568C314.613 355.195 314.189 355.008 313.647 355.008C313.283 355.008 312.952 355.101 312.653 355.288C312.364 355.465 312.135 355.708 311.967 356.016C311.809 356.324 311.729 356.665 311.729 357.038V361.098H310.273V353.776H311.729V355.008C311.953 354.653 312.261 354.364 312.653 354.14C313.045 353.907 313.442 353.79 313.843 353.79C314.347 353.79 314.828 353.907 315.285 354.14C315.743 354.364 316.116 354.714 316.405 355.19C316.704 355.666 316.853 356.263 316.853 356.982V361.098H315.397V357.038ZM321.283 352.978C321.61 354.061 321.773 355.05 321.773 355.946C321.773 356.842 321.61 357.831 321.283 358.914C320.966 359.997 320.56 360.939 320.065 361.742H318.525C319.094 360.958 319.556 360.025 319.911 358.942C320.275 357.859 320.457 356.861 320.457 355.946C320.457 355.031 320.275 354.033 319.911 352.95C319.556 351.867 319.094 350.934 318.525 350.15H320.065C320.56 350.953 320.966 351.895 321.283 352.978Z" fill="#6B6B6B"/>
<path d="M590.856 355.778C591.304 356.039 591.658 356.394 591.92 356.842C592.19 357.281 592.326 357.719 592.326 358.158C592.326 358.727 592.181 359.236 591.892 359.684C591.602 360.132 591.196 360.482 590.674 360.734C590.151 360.986 589.558 361.112 588.896 361.112C588.233 361.112 587.64 360.986 587.118 360.734C586.595 360.473 586.184 360.113 585.886 359.656C585.596 359.189 585.452 358.662 585.452 358.074H586.908C586.908 358.587 587.094 359.007 587.468 359.334C587.841 359.661 588.317 359.824 588.896 359.824C589.493 359.824 589.978 359.665 590.352 359.348C590.725 359.021 590.912 358.601 590.912 358.088C590.912 357.584 590.725 357.173 590.352 356.856C589.978 356.539 589.502 356.38 588.924 356.38H588.196V355.162H588.924C589.465 355.162 589.908 355.017 590.254 354.728C590.599 354.439 590.772 354.065 590.772 353.608C590.772 353.151 590.604 352.782 590.268 352.502C589.932 352.213 589.502 352.068 588.98 352.068C588.466 352.068 588.042 352.213 587.706 352.502C587.379 352.791 587.216 353.165 587.216 353.622H585.76C585.76 353.071 585.895 352.581 586.166 352.152C586.446 351.713 586.828 351.377 587.314 351.144C587.799 350.901 588.354 350.78 588.98 350.78C589.596 350.78 590.146 350.897 590.632 351.13C591.126 351.363 591.509 351.69 591.78 352.11C592.05 352.53 592.186 353.006 592.186 353.538C592.186 353.939 592.064 354.35 591.822 354.77C591.579 355.181 591.257 355.517 590.856 355.778ZM597.322 361.042L595.866 361.028V352.418L594.088 353.426L593.472 352.208L595.88 350.864H597.322V361.042ZM602.74 359.866C603.347 359.866 603.841 359.67 604.224 359.278C604.616 358.886 604.812 358.377 604.812 357.752C604.812 357.127 604.616 356.618 604.224 356.226C603.841 355.825 603.347 355.624 602.74 355.624C602.143 355.624 601.653 355.825 601.27 356.226C600.887 356.618 600.696 357.127 600.696 357.752C600.696 358.377 600.887 358.886 601.27 359.278C601.653 359.67 602.143 359.866 602.74 359.866ZM599.24 357.752C599.24 357.136 599.427 356.492 599.8 355.82L602.614 350.836H604.28L602.236 354.406C602.395 354.369 602.581 354.35 602.796 354.35C603.468 354.35 604.065 354.499 604.588 354.798C605.12 355.087 605.531 355.489 605.82 356.002C606.119 356.515 606.268 357.099 606.268 357.752C606.268 358.405 606.119 358.989 605.82 359.502C605.521 360.015 605.106 360.417 604.574 360.706C604.042 360.995 603.435 361.14 602.754 361.14C602.073 361.14 601.466 360.995 600.934 360.706C600.402 360.417 599.987 360.015 599.688 359.502C599.389 358.989 599.24 358.405 599.24 357.752ZM611.582 359.964C612.208 359.964 612.716 359.735 613.108 359.278C613.5 358.811 613.696 358.205 613.696 357.458C613.696 356.721 613.5 356.123 613.108 355.666C612.716 355.209 612.208 354.98 611.582 354.98C611.19 354.98 610.826 355.092 610.49 355.316C610.154 355.54 609.888 355.843 609.692 356.226C609.496 356.599 609.398 357.01 609.398 357.458C609.398 357.915 609.496 358.335 609.692 358.718C609.888 359.101 610.154 359.404 610.49 359.628C610.826 359.852 611.19 359.964 611.582 359.964ZM607.928 353.776H609.384V355.036C609.636 354.616 609.986 354.303 610.434 354.098C610.882 353.883 611.293 353.776 611.666 353.776C612.348 353.776 612.95 353.935 613.472 354.252C614.004 354.56 614.415 354.994 614.704 355.554C615.003 356.105 615.152 356.739 615.152 357.458C615.152 358.177 615.003 358.821 614.704 359.39C614.415 359.95 614.004 360.389 613.472 360.706C612.95 361.014 612.348 361.168 611.666 361.168C611.293 361.168 610.882 361.061 610.434 360.846C609.986 360.622 609.636 360.3 609.384 359.88V364.234H607.928V353.776ZM620.295 357.444L622.997 361.098H621.191L619.441 358.62L617.705 361.098H615.899L618.559 357.444L615.843 353.776H617.663L619.441 356.324L621.205 353.776H623.025L620.295 357.444ZM625.427 358.928C625.11 357.845 624.951 356.851 624.951 355.946C624.951 355.041 625.11 354.051 625.427 352.978C625.754 351.895 626.169 350.953 626.673 350.15H628.213C627.644 350.934 627.177 351.867 626.813 352.95C626.449 354.033 626.267 355.031 626.267 355.946C626.267 356.861 626.449 357.859 626.813 358.942C627.177 360.025 627.644 360.958 628.213 361.742H626.673C626.169 360.939 625.754 360.001 625.427 358.928ZM631.564 353.328V361.098H630.108V350.794H631.676L635.428 356.87L639.18 350.794H640.748V361.098H639.292V353.314L635.428 359.362L631.564 353.328ZM644.358 353.818V361.098H642.902V353.818H644.358ZM642.804 351.438C642.804 351.195 642.879 350.999 643.028 350.85C643.187 350.691 643.387 350.612 643.63 350.612C643.873 350.612 644.069 350.691 644.218 350.85C644.377 350.999 644.456 351.195 644.456 351.438C644.456 351.671 644.377 351.867 644.218 352.026C644.069 352.185 643.873 352.264 643.63 352.264C643.387 352.264 643.187 352.189 643.028 352.04C642.879 351.881 642.804 351.681 642.804 351.438ZM651.397 357.038C651.397 356.422 651.239 355.932 650.921 355.568C650.613 355.195 650.189 355.008 649.647 355.008C649.283 355.008 648.952 355.101 648.653 355.288C648.364 355.465 648.135 355.708 647.967 356.016C647.809 356.324 647.729 356.665 647.729 357.038V361.098H646.273V353.776H647.729V355.008C647.953 354.653 648.261 354.364 648.653 354.14C649.045 353.907 649.442 353.79 649.843 353.79C650.347 353.79 650.828 353.907 651.285 354.14C651.743 354.364 652.116 354.714 652.405 355.19C652.704 355.666 652.853 356.263 652.853 356.982V361.098H651.397V357.038ZM657.283 352.978C657.61 354.061 657.773 355.05 657.773 355.946C657.773 356.842 657.61 357.831 657.283 358.914C656.966 359.997 656.56 360.939 656.065 361.742H654.525C655.094 360.958 655.556 360.025 655.911 358.942C656.275 357.859 656.457 356.861 656.457 355.946C656.457 355.031 656.275 354.033 655.911 352.95C655.556 351.867 655.094 350.934 654.525 350.15H656.065C656.56 350.953 656.966 351.895 657.283 352.978Z" fill="#6B6B6B"/>
</svg>
