<svg xmlns="http://www.w3.org/2000/svg" width="908" height="410" fill="none" viewBox="0 0 908 410"><path fill="#fff" d="M.5 0h907v410H.5z"/><path fill="#fff" d="M128.5 55a7.5 7.5 0 0 1 7.5-7.5h636a7.5 7.5 0 0 1 7.5 7.5v79a7.5 7.5 0 0 1-7.5 7.5H136a7.5 7.5 0 0 1-7.5-7.5z"/><path stroke="#C2C2C2" d="M128.5 55a7.5 7.5 0 0 1 7.5-7.5h636a7.5 7.5 0 0 1 7.5 7.5v79a7.5 7.5 0 0 1-7.5 7.5H136a7.5 7.5 0 0 1-7.5-7.5z"/><path fill="#121212" d="M161.648 76.776h-3.504v10.336h-1.664V76.776h-3.52v-1.44h8.688zm6.125 5.536q-.113-.928-.656-1.552-.545-.64-1.568-.64-.929 0-1.616.64-.672.624-.816 1.568zm-6.256.64q0-1.232.512-2.192.511-.96 1.408-1.488.912-.544 2.08-.544 1.648 0 2.416.8.783.8 1.056 1.472.368.896.368 1.984 0 .225-.016.4a3 3 0 0 0-.016.208h-6.208q.144.96.832 1.568a2.32 2.32 0 0 0 1.584.608q.72 0 1.184-.224.48-.225.656-.416.175-.192.336-.432l1.344.608q-.384.784-1.28 1.328-.897.528-2.256.528-1.168 0-2.08-.528a3.8 3.8 0 0 1-1.408-1.504q-.513-.96-.512-2.176m13.752-.016 3.088 4.176h-2.064l-2-2.832-1.984 2.832h-2.064l3.04-4.176-3.104-4.192h2.08l2.032 2.912 2.016-2.912h2.08zm7.717 4.224q-1.088 0-1.792-.72-.703-.72-.72-1.856v-4.32h-1.44v-1.456h1.44V76.52h1.664v2.288h1.792v1.456h-1.792v4.24q0 .432.24.752t.608.336q.272 0 .512-.048.256-.065.336-.08l.352 1.552q-.785.144-1.2.144M154.448 111.88a4.24 4.24 0 0 0 1.312 1.52q.832.56 1.712.56 1.152 0 1.872-.544.736-.56.736-1.456 0-.624-.368-1.04a2.8 2.8 0 0 0-.912-.672 15 15 0 0 0-1.472-.592q-1.152-.4-1.856-.752a3.45 3.45 0 0 1-1.184-1.008q-.496-.656-.496-1.68 0-.912.496-1.584.512-.672 1.376-1.024t1.92-.352q1.264 0 2.272.672t1.424 1.92l-1.264.448a2.4 2.4 0 0 0-.944-1.312 2.55 2.55 0 0 0-1.456-.496q-1.04 0-1.744.48-.688.463-.688 1.248 0 .608.368 1.024t.896.688q.544.256 1.488.592 1.152.416 1.856.784.703.352 1.2 1.008.496.64.496 1.664 0 .944-.512 1.68-.496.736-1.408 1.136t-2.08.4a4.4 4.4 0 0 1-2.4-.688q-1.088-.704-1.824-1.984zm10.609-.288q0 1.024.576 1.696.576.656 1.488.656 1.025 0 1.664-.608.64-.624.64-1.632v-4.912h1.408v8.272h-1.408v-1.232a3 3 0 0 1-1.072.96 2.7 2.7 0 0 1-1.344.368q-.96 0-1.728-.448a3.17 3.17 0 0 1-1.2-1.232q-.432-.784-.432-1.776v-4.912h1.408zm11.966 3.568q-.687 0-1.424-.368t-1.264-1.216v1.488h-1.408v-11.68h1.408v4.992q.528-.848 1.264-1.216.737-.368 1.44-.368 1.152 0 2.048.544a3.63 3.63 0 0 1 1.392 1.472q.513.944.512 2.16 0 1.216-.512 2.176-.496.944-1.408 1.488-.896.528-2.048.528m-2.688-4.176q0 .816.352 1.504.369.688.976 1.088.609.4 1.312.4.753 0 1.344-.384.609-.384.928-1.056.336-.688.336-1.552t-.336-1.536a2.35 2.35 0 0 0-.928-1.056 2.4 2.4 0 0 0-1.344-.384q-.703 0-1.312.4-.607.4-.976 1.088a3.2 3.2 0 0 0-.352 1.488m11.1 4.112q-1.024 0-1.68-.672-.657-.672-.688-1.728v-4.624h-1.376v-1.232h1.376v-2.192h1.408v2.192h1.776v1.232h-1.776v4.528q0 .48.272.832.271.352.688.352.24 0 .432-.032t.384-.08l.256 1.296a5.3 5.3 0 0 1-1.072.128m8.547-4.704q-.112-1.024-.672-1.712-.544-.704-1.648-.704-1.008 0-1.728.688-.704.672-.848 1.744zm-6.288.544q0-1.216.496-2.16.495-.944 1.392-1.472.895-.528 2.032-.528 2.383 0 3.408 2.24.336.896.336 1.904a5 5 0 0 1-.032.624h-6.24q.159 1.04.864 1.696.72.656 1.68.656.768 0 1.264-.24.512-.24.704-.464.207-.24.368-.48l1.12.576q-.369.752-1.264 1.28-.88.528-2.208.528-1.137 0-2.032-.528a3.63 3.63 0 0 1-1.392-1.472q-.496-.944-.496-2.16m13.211 0 3.088 4.128h-1.744l-2.128-2.944-2.096 2.944h-1.76l3.056-4.128-3.088-4.144h1.776l2.112 2.992 2.128-2.992h1.76zm7.565 4.16q-1.024 0-1.68-.672t-.688-1.728v-4.624h-1.376v-1.232h1.376v-2.192h1.408v2.192h1.776v1.232h-1.776v4.528q0 .48.272.832a.83.83 0 0 0 .688.352q.24 0 .432-.032t.384-.08l.256 1.296a5.3 5.3 0 0 1-1.072.128"/><path fill="#fff" d="M128.5 232a7.5 7.5 0 0 1 7.5-7.5h300a7.5 7.5 0 0 1 7.5 7.5v79a7.5 7.5 0 0 1-7.5 7.5H136a7.5 7.5 0 0 1-7.5-7.5z"/><path stroke="#C2C2C2" d="M128.5 232a7.5 7.5 0 0 1 7.5-7.5h300a7.5 7.5 0 0 1 7.5 7.5v79a7.5 7.5 0 0 1-7.5 7.5H136a7.5 7.5 0 0 1-7.5-7.5z"/><path fill="#121212" d="M161.648 253.776h-3.504v10.336h-1.664v-10.336h-3.52v-1.44h8.688zm6.125 5.536q-.113-.928-.656-1.552-.545-.64-1.568-.64-.929 0-1.616.64-.672.624-.816 1.568zm-6.256.64q0-1.232.512-2.192.511-.96 1.408-1.488.912-.544 2.08-.544 1.648 0 2.416.8.783.8 1.056 1.472.368.896.368 1.984 0 .224-.016.4a3 3 0 0 0-.016.208h-6.208q.144.96.832 1.568a2.32 2.32 0 0 0 1.584.608q.72 0 1.184-.224.48-.224.656-.416.175-.192.336-.432l1.344.608q-.384.784-1.28 1.328-.897.528-2.256.528-1.168 0-2.08-.528a3.8 3.8 0 0 1-1.408-1.504q-.513-.96-.512-2.176m13.752-.016 3.088 4.176h-2.064l-2-2.832-1.984 2.832h-2.064l3.04-4.176-3.104-4.192h2.08l2.032 2.912 2.016-2.912h2.08zm7.717 4.224q-1.088 0-1.792-.72-.703-.72-.72-1.856v-4.32h-1.44v-1.456h1.44v-2.288h1.664v2.288h1.792v1.456h-1.792v4.24q0 .432.24.752t.608.336q.272 0 .512-.048.256-.064.336-.08l.352 1.552q-.785.144-1.2.144M154.448 288.88a4.24 4.24 0 0 0 1.312 1.52q.832.56 1.712.56 1.152 0 1.872-.544.736-.56.736-1.456 0-.624-.368-1.04a2.8 2.8 0 0 0-.912-.672 15 15 0 0 0-1.472-.592q-1.152-.4-1.856-.752a3.45 3.45 0 0 1-1.184-1.008q-.496-.656-.496-1.68 0-.912.496-1.584.512-.672 1.376-1.024t1.92-.352q1.264 0 2.272.672t1.424 1.92l-1.264.448a2.4 2.4 0 0 0-.944-1.312 2.55 2.55 0 0 0-1.456-.496q-1.04 0-1.744.48-.688.464-.688 1.248 0 .608.368 1.024t.896.688q.544.256 1.488.592 1.152.416 1.856.784.703.353 1.2 1.008.496.64.496 1.664 0 .944-.512 1.68-.496.736-1.408 1.136t-2.08.4a4.4 4.4 0 0 1-2.4-.688q-1.088-.704-1.824-1.984zm10.609-.288q0 1.024.576 1.696.576.656 1.488.656 1.025 0 1.664-.608.64-.624.64-1.632v-4.912h1.408v8.272h-1.408v-1.232a3 3 0 0 1-1.072.96 2.7 2.7 0 0 1-1.344.368q-.96 0-1.728-.448a3.17 3.17 0 0 1-1.2-1.232q-.432-.784-.432-1.776v-4.912h1.408zm11.966 3.568q-.687 0-1.424-.368t-1.264-1.216v1.488h-1.408v-11.68h1.408v4.992q.528-.848 1.264-1.216.737-.368 1.44-.368 1.152 0 2.048.544a3.63 3.63 0 0 1 1.392 1.472q.513.943.512 2.16 0 1.216-.512 2.176-.496.943-1.408 1.488-.896.528-2.048.528m-2.688-4.176q0 .816.352 1.504.369.688.976 1.088.609.4 1.312.4.753 0 1.344-.384.609-.384.928-1.056.336-.688.336-1.552t-.336-1.536a2.35 2.35 0 0 0-.928-1.056 2.4 2.4 0 0 0-1.344-.384q-.703 0-1.312.4-.607.4-.976 1.088a3.2 3.2 0 0 0-.352 1.488m11.1 4.112q-1.024 0-1.68-.672-.657-.672-.688-1.728v-4.624h-1.376v-1.232h1.376v-2.192h1.408v2.192h1.776v1.232h-1.776v4.528q0 .48.272.832.271.352.688.352.24 0 .432-.032t.384-.08l.256 1.296a5.3 5.3 0 0 1-1.072.128m8.547-4.704q-.112-1.024-.672-1.712-.544-.704-1.648-.704-1.008 0-1.728.688-.704.672-.848 1.744zm-6.288.544q0-1.216.496-2.16.495-.944 1.392-1.472.895-.528 2.032-.528 2.383 0 3.408 2.24.336.896.336 1.904a5 5 0 0 1-.032.624h-6.24q.159 1.04.864 1.696.72.656 1.68.656.768 0 1.264-.24.512-.24.704-.464.207-.24.368-.48l1.12.576q-.369.752-1.264 1.28-.88.528-2.208.528-1.137 0-2.032-.528a3.63 3.63 0 0 1-1.392-1.472q-.496-.943-.496-2.16m13.211 0 3.088 4.128h-1.744l-2.128-2.944-2.096 2.944h-1.76l3.056-4.128-3.088-4.144h1.776l2.112 2.992 2.128-2.992h1.76zm7.565 4.16q-1.024 0-1.68-.672t-.688-1.728v-4.624h-1.376v-1.232h1.376v-2.192h1.408v2.192h1.776v1.232h-1.776v4.528q0 .48.272.832a.83.83 0 0 0 .688.352q.24 0 .432-.032t.384-.08l.256 1.296a5.3 5.3 0 0 1-1.072.128"/><path fill="#fff" d="M464.5 232a7.5 7.5 0 0 1 7.5-7.5h300a7.5 7.5 0 0 1 7.5 7.5v79a7.5 7.5 0 0 1-7.5 7.5H472a7.5 7.5 0 0 1-7.5-7.5z"/><path stroke="#C2C2C2" d="M464.5 232a7.5 7.5 0 0 1 7.5-7.5h300a7.5 7.5 0 0 1 7.5 7.5v79a7.5 7.5 0 0 1-7.5 7.5H472a7.5 7.5 0 0 1-7.5-7.5z"/><path fill="#121212" d="M497.648 253.776h-3.504v10.336h-1.664v-10.336h-3.52v-1.44h8.688zm6.125 5.536q-.113-.928-.656-1.552-.545-.64-1.568-.64-.929 0-1.616.64-.672.624-.816 1.568zm-6.256.64q0-1.232.512-2.192.511-.96 1.408-1.488.912-.544 2.08-.544 1.647 0 2.416.8.783.8 1.056 1.472.368.896.368 1.984 0 .224-.016.4a3 3 0 0 0-.016.208h-6.208q.144.96.832 1.568a2.32 2.32 0 0 0 1.584.608q.72 0 1.184-.224.48-.224.656-.416.175-.192.336-.432l1.344.608q-.384.784-1.28 1.328-.897.528-2.256.528-1.168 0-2.08-.528a3.8 3.8 0 0 1-1.408-1.504q-.512-.96-.512-2.176m13.752-.016 3.088 4.176h-2.064l-2-2.832-1.984 2.832h-2.064l3.04-4.176-3.104-4.192h2.08l2.032 2.912 2.016-2.912h2.08zm7.717 4.224q-1.088 0-1.792-.72t-.72-1.856v-4.32h-1.44v-1.456h1.44v-2.288h1.664v2.288h1.792v1.456h-1.792v4.24q0 .432.24.752t.608.336q.272 0 .512-.048.257-.064.336-.08l.352 1.552q-.784.144-1.2.144M490.448 288.88a4.24 4.24 0 0 0 1.312 1.52q.832.56 1.712.56 1.152 0 1.872-.544.736-.56.736-1.456 0-.624-.368-1.04a2.8 2.8 0 0 0-.912-.672 15 15 0 0 0-1.472-.592q-1.152-.4-1.856-.752a3.45 3.45 0 0 1-1.184-1.008q-.496-.656-.496-1.68 0-.912.496-1.584.512-.672 1.376-1.024t1.92-.352q1.264 0 2.272.672t1.424 1.92l-1.264.448a2.4 2.4 0 0 0-.944-1.312 2.55 2.55 0 0 0-1.456-.496q-1.04 0-1.744.48-.688.464-.688 1.248 0 .608.368 1.024t.896.688q.544.256 1.488.592 1.152.416 1.856.784.704.353 1.2 1.008.496.64.496 1.664 0 .944-.512 1.68-.496.736-1.408 1.136t-2.08.4a4.4 4.4 0 0 1-2.4-.688q-1.088-.704-1.824-1.984zm10.609-.288q0 1.024.576 1.696.576.656 1.488.656 1.025 0 1.664-.608.64-.624.64-1.632v-4.912h1.408v8.272h-1.408v-1.232a3 3 0 0 1-1.072.96 2.7 2.7 0 0 1-1.344.368q-.96 0-1.728-.448a3.17 3.17 0 0 1-1.2-1.232q-.432-.784-.432-1.776v-4.912h1.408zm11.966 3.568q-.687 0-1.424-.368-.735-.368-1.264-1.216v1.488h-1.408v-11.68h1.408v4.992q.529-.848 1.264-1.216.736-.368 1.44-.368 1.152 0 2.048.544a3.63 3.63 0 0 1 1.392 1.472q.513.943.512 2.16 0 1.216-.512 2.176-.495.943-1.408 1.488-.896.528-2.048.528m-2.688-4.176q0 .816.352 1.504.369.688.976 1.088.609.4 1.312.4.753 0 1.344-.384.609-.384.928-1.056.336-.688.336-1.552t-.336-1.536a2.35 2.35 0 0 0-.928-1.056 2.4 2.4 0 0 0-1.344-.384q-.703 0-1.312.4-.607.4-.976 1.088a3.2 3.2 0 0 0-.352 1.488m11.1 4.112q-1.025 0-1.68-.672-.657-.672-.688-1.728v-4.624h-1.376v-1.232h1.376v-2.192h1.408v2.192h1.776v1.232h-1.776v4.528q0 .48.272.832.271.352.688.352.24 0 .432-.032t.384-.08l.256 1.296a5.3 5.3 0 0 1-1.072.128m8.547-4.704q-.112-1.024-.672-1.712-.544-.704-1.648-.704-1.008 0-1.728.688-.705.672-.848 1.744zm-6.288.544q0-1.216.496-2.16.495-.944 1.392-1.472.895-.528 2.032-.528 2.384 0 3.408 2.24.336.896.336 1.904a5 5 0 0 1-.032.624h-6.24q.159 1.04.864 1.696.72.656 1.68.656.768 0 1.264-.24.512-.24.704-.464.207-.24.368-.48l1.12.576q-.369.752-1.264 1.28-.88.528-2.208.528-1.137 0-2.032-.528a3.63 3.63 0 0 1-1.392-1.472q-.496-.943-.496-2.16m13.211 0 3.088 4.128h-1.744l-2.128-2.944-2.096 2.944h-1.76l3.056-4.128-3.088-4.144h1.776l2.112 2.992 2.128-2.992h1.76zm7.565 4.16q-1.024 0-1.68-.672t-.688-1.728v-4.624h-1.376v-1.232h1.376v-2.192h1.408v2.192h1.776v1.232h-1.776v4.528q0 .48.272.832a.83.83 0 0 0 .688.352q.24 0 .432-.032t.384-.08l.256 1.296a5.3 5.3 0 0 1-1.072.128"/><path fill="#6B6B6B" d="M128.076 159.576a.6.6 0 0 0 0 .848l3.818 3.819a.601.601 0 0 0 .849-.849L129.349 160l3.394-3.394a.601.601 0 0 0-.849-.849zm652.848.848a.6.6 0 0 0 0-.848l-3.818-3.819a.601.601 0 0 0-.849.849l3.394 3.394-3.394 3.394a.601.601 0 0 0 .849.849zM128.5 160.6h652v-1.2h-652zM128.076 336.576a.6.6 0 0 0 0 .848l3.818 3.819a.601.601 0 0 0 .849-.849L129.349 337l3.394-3.394a.601.601 0 0 0-.849-.849zm316.848.848a.6.6 0 0 0 0-.848l-3.818-3.819a.601.601 0 0 0-.849.849l3.394 3.394-3.394 3.394a.601.601 0 0 0 .849.849zM128.5 337.6h316v-1.2h-316zM464.076 336.576a.6.6 0 0 0 0 .848l3.818 3.819a.601.601 0 0 0 .849-.849L465.349 337l3.394-3.394a.601.601 0 0 0-.849-.849zm316.848.848a.6.6 0 0 0 0-.848l-3.818-3.819a.601.601 0 0 0-.849.849l3.394 3.394-3.394 3.394a.601.601 0 0 0 .849.849zM464.5 337.6h316v-1.2h-316zM418.171 182.866q.91 0 1.484-.588.588-.588.588-1.526t-.588-1.526q-.573-.602-1.484-.602-.896 0-1.47.602-.573.588-.574 1.526 0 .938.574 1.526t1.47.588m-3.5-2.114q0-.924.56-1.932l2.814-4.984h1.666l-2.044 3.57q.239-.056.56-.056 1.009 0 1.792.448.798.434 1.232 1.204.448.77.448 1.75t-.448 1.75a3.15 3.15 0 0 1-1.246 1.204q-.797.434-1.82.434-1.022 0-1.82-.434a3.16 3.16 0 0 1-1.246-1.204q-.447-.77-.448-1.75m8.689-1.47.336-5.432h5.432v1.274h-4.032l-.168 2.534a3.5 3.5 0 0 1 1.456-.336q1.035 0 1.848.434.825.434 1.274 1.204.462.77.462 1.764 0 1.008-.462 1.792a3.1 3.1 0 0 1-1.274 1.218q-.813.434-1.848.434-.812 0-1.526-.336a3.5 3.5 0 0 1-1.218-.938 3.3 3.3 0 0 1-.686-1.372l1.414-.336q.168.714.728 1.176a2 2 0 0 0 1.288.448q.938 0 1.526-.574.602-.588.602-1.512 0-.896-.602-1.456-.588-.574-1.526-.574-.393 0-.826.224-.435.21-.756.546zm8.058 3.486 1.428-1.316a61 61 0 0 0 1.806-1.68 8.5 8.5 0 0 0 1.148-1.372q.462-.714.462-1.344 0-.868-.504-1.414-.49-.56-1.274-.56-.602 0-1.162.392a2.34 2.34 0 0 0-.826 1.008l-1.274-.56a3.56 3.56 0 0 1 1.33-1.554q.924-.616 1.932-.616.938 0 1.666.42.742.42 1.148 1.176.42.742.42 1.708 0 .952-.574 1.89a8.7 8.7 0 0 1-1.372 1.736 36 36 0 0 1-2.044 1.862l-.252.224h4.396v1.274h-6.314zm11.763.196q.938 0 1.526-.686.588-.7.588-1.82 0-1.106-.588-1.792t-1.526-.686a1.93 1.93 0 0 0-1.092.336 2.36 2.36 0 0 0-.798.91 2.6 2.6 0 0 0-.294 1.232q0 .686.294 1.26t.798.91 1.092.336m-3.654-6.188h1.456v1.26q.378-.63 1.05-.938.672-.322 1.232-.322 1.022 0 1.806.476.798.462 1.232 1.302.448.826.448 1.904t-.448 1.932q-.434.84-1.232 1.316-.784.462-1.806.462-.56 0-1.232-.322a2.5 2.5 0 0 1-1.05-.966v4.354h-1.456zm12.367 3.668 2.702 3.654h-1.806l-1.75-2.478-1.736 2.478h-1.806l2.66-3.654-2.716-3.668h1.82l1.778 2.548 1.764-2.548h1.82zm5.132 1.484q-.476-1.625-.476-2.982t.476-2.968q.49-1.624 1.246-2.828h1.54q-.854 1.176-1.4 2.8t-.546 2.996.546 2.996 1.4 2.8h-1.54q-.756-1.204-1.246-2.814m6.137-5.6v7.77h-1.456v-10.304h1.568l3.752 6.076 3.752-6.076h1.568v10.304h-1.456v-7.784l-3.864 6.048zm14.448 6.636q.574 0 1.078-.322.504-.336.798-.896.308-.575.308-1.26 0-.686-.308-1.246a2.26 2.26 0 0 0-.798-.896 1.9 1.9 0 0 0-1.078-.336q-.938 0-1.526.686t-.588 1.792.588 1.792 1.526.686m-3.57-2.478q0-1.064.434-1.904.447-.84 1.232-1.302a3.46 3.46 0 0 1 1.806-.476q.644 0 1.232.322.601.308 1.036.938v-1.288h1.456v7.322l-1.456.014v-1.218q-.448.644-1.036.966a2.6 2.6 0 0 1-1.232.308q-1.008 0-1.806-.462a3.34 3.34 0 0 1-1.232-1.316q-.434-.84-.434-1.904m13.154-.042 2.702 3.654h-1.806l-1.75-2.478-1.736 2.478h-1.806l2.66-3.654-2.716-3.668h1.82l1.778 2.548 1.764-2.548h1.82zm6.868-4.466q.49 1.624.49 2.968t-.49 2.968q-.476 1.624-1.218 2.828h-1.54q.855-1.176 1.386-2.8.546-1.624.546-2.996t-.546-2.996q-.531-1.624-1.386-2.8h1.54q.742 1.204 1.218 2.828M254.856 355.778q.672.392 1.064 1.064.405.658.406 1.316 0 .854-.434 1.526-.435.672-1.218 1.05-.785.378-1.778.378-.995 0-1.778-.378a3.1 3.1 0 0 1-1.232-1.078 2.94 2.94 0 0 1-.434-1.582h1.456q0 .77.56 1.26t1.428.49q.895 0 1.456-.476.56-.49.56-1.26 0-.756-.56-1.232-.561-.476-1.428-.476h-.728v-1.218h.728q.811 0 1.33-.434.518-.434.518-1.12t-.504-1.106q-.505-.434-1.288-.434-.77 0-1.274.434-.49.434-.49 1.12h-1.456q0-.827.406-1.47a2.73 2.73 0 0 1 1.148-1.008q.727-.364 1.666-.364.924 0 1.652.35.741.35 1.148.98t.406 1.428q0 .602-.364 1.232a3 3 0 0 1-.966 1.008m6.466 5.264-1.456-.014v-8.61l-1.778 1.008-.616-1.218 2.408-1.344h1.442zm5.418-1.176q.91 0 1.484-.588.588-.588.588-1.526t-.588-1.526q-.574-.602-1.484-.602-.895 0-1.47.602-.574.588-.574 1.526t.574 1.526 1.47.588m-3.5-2.114q0-.924.56-1.932l2.814-4.984h1.666l-2.044 3.57q.238-.056.56-.056 1.008 0 1.792.448.798.434 1.232 1.204.448.77.448 1.75t-.448 1.75a3.16 3.16 0 0 1-1.246 1.204q-.798.434-1.82.434t-1.82-.434a3.16 3.16 0 0 1-1.246-1.204q-.448-.77-.448-1.75m12.342 2.212q.938 0 1.526-.686.588-.7.588-1.82 0-1.106-.588-1.792t-1.526-.686a1.93 1.93 0 0 0-1.092.336 2.36 2.36 0 0 0-.798.91 2.6 2.6 0 0 0-.294 1.232q0 .685.294 1.26.294.574.798.91t1.092.336m-3.654-6.188h1.456v1.26q.378-.63 1.05-.938.672-.322 1.232-.322 1.023 0 1.806.476.798.462 1.232 1.302.448.826.448 1.904t-.448 1.932q-.434.84-1.232 1.316-.783.462-1.806.462-.56 0-1.232-.322a2.5 2.5 0 0 1-1.05-.966v4.354h-1.456zm12.367 3.668 2.702 3.654h-1.806l-1.75-2.478-1.736 2.478h-1.806l2.66-3.654-2.716-3.668h1.82l1.778 2.548 1.764-2.548h1.82zm5.132 1.484q-.476-1.625-.476-2.982t.476-2.968q.49-1.624 1.246-2.828h1.54q-.854 1.176-1.4 2.8t-.546 2.996.546 2.996 1.4 2.8h-1.54q-.756-1.204-1.246-2.814m6.137-5.6v7.77h-1.456v-10.304h1.568l3.752 6.076 3.752-6.076h1.568v10.304h-1.456v-7.784l-3.864 6.048zm12.794.49v7.28h-1.456v-7.28zm-1.554-2.38q0-.365.224-.588a.82.82 0 0 1 .602-.238q.365 0 .588.238a.77.77 0 0 1 .238.588.8.8 0 0 1-.238.588.77.77 0 0 1-.588.238.85.85 0 0 1-.602-.224.85.85 0 0 1-.224-.602m8.593 5.6q0-.924-.476-1.47-.462-.56-1.274-.56-.546 0-.994.28-.434.266-.686.728a2.2 2.2 0 0 0-.238 1.022v4.06h-1.456v-7.322h1.456v1.232q.336-.532.924-.868.588-.35 1.19-.35.756 0 1.442.35.687.336 1.12 1.05.448.714.448 1.792v4.116h-1.456zm5.886-4.06q.49 1.624.49 2.968t-.49 2.968q-.476 1.624-1.218 2.828h-1.54q.853-1.176 1.386-2.8.546-1.624.546-2.996t-.546-2.996q-.533-1.624-1.386-2.8h1.54q.743 1.204 1.218 2.828M590.856 355.778q.671.392 1.064 1.064.405.658.406 1.316 0 .854-.434 1.526-.435.672-1.218 1.05-.785.378-1.778.378-.995 0-1.778-.378a3.1 3.1 0 0 1-1.232-1.078 2.94 2.94 0 0 1-.434-1.582h1.456q0 .77.56 1.26t1.428.49q.895 0 1.456-.476.56-.49.56-1.26 0-.756-.56-1.232-.561-.476-1.428-.476h-.728v-1.218h.728q.811 0 1.33-.434.518-.434.518-1.12t-.504-1.106q-.505-.434-1.288-.434-.77 0-1.274.434-.49.434-.49 1.12h-1.456q0-.827.406-1.47a2.73 2.73 0 0 1 1.148-1.008q.727-.364 1.666-.364.923 0 1.652.35.741.35 1.148.98.405.63.406 1.428 0 .602-.364 1.232a3 3 0 0 1-.966 1.008m6.466 5.264-1.456-.014v-8.61l-1.778 1.008-.616-1.218 2.408-1.344h1.442zm5.418-1.176q.91 0 1.484-.588.588-.588.588-1.526t-.588-1.526q-.574-.602-1.484-.602-.895 0-1.47.602-.574.588-.574 1.526t.574 1.526q.575.588 1.47.588m-3.5-2.114q0-.924.56-1.932l2.814-4.984h1.666l-2.044 3.57q.238-.056.56-.056 1.008 0 1.792.448.798.434 1.232 1.204.448.77.448 1.75t-.448 1.75a3.16 3.16 0 0 1-1.246 1.204q-.798.434-1.82.434t-1.82-.434a3.16 3.16 0 0 1-1.246-1.204q-.448-.77-.448-1.75m12.342 2.212q.939 0 1.526-.686.588-.7.588-1.82 0-1.106-.588-1.792t-1.526-.686a1.93 1.93 0 0 0-1.092.336 2.36 2.36 0 0 0-.798.91 2.6 2.6 0 0 0-.294 1.232q0 .685.294 1.26.294.574.798.91t1.092.336m-3.654-6.188h1.456v1.26q.378-.63 1.05-.938.672-.322 1.232-.322 1.023 0 1.806.476.798.462 1.232 1.302.448.826.448 1.904t-.448 1.932q-.434.84-1.232 1.316-.783.462-1.806.462-.56 0-1.232-.322a2.5 2.5 0 0 1-1.05-.966v4.354h-1.456zm12.367 3.668 2.702 3.654h-1.806l-1.75-2.478-1.736 2.478h-1.806l2.66-3.654-2.716-3.668h1.82l1.778 2.548 1.764-2.548h1.82zm5.132 1.484q-.476-1.625-.476-2.982t.476-2.968q.49-1.624 1.246-2.828h1.54q-.854 1.176-1.4 2.8t-.546 2.996.546 2.996 1.4 2.8h-1.54q-.756-1.204-1.246-2.814m6.137-5.6v7.77h-1.456v-10.304h1.568l3.752 6.076 3.752-6.076h1.568v10.304h-1.456v-7.784l-3.864 6.048zm12.794.49v7.28h-1.456v-7.28zm-1.554-2.38q0-.365.224-.588a.82.82 0 0 1 .602-.238q.365 0 .588.238a.77.77 0 0 1 .238.588.8.8 0 0 1-.238.588.77.77 0 0 1-.588.238.85.85 0 0 1-.602-.224.85.85 0 0 1-.224-.602m8.593 5.6q0-.924-.476-1.47-.462-.56-1.274-.56-.546 0-.994.28-.434.266-.686.728a2.2 2.2 0 0 0-.238 1.022v4.06h-1.456v-7.322h1.456v1.232q.336-.532.924-.868.588-.35 1.19-.35.756 0 1.442.35.687.336 1.12 1.05.448.714.448 1.792v4.116h-1.456zm5.886-4.06q.49 1.624.49 2.968t-.49 2.968q-.475 1.624-1.218 2.828h-1.54q.853-1.176 1.386-2.8.546-1.624.546-2.996t-.546-2.996q-.533-1.624-1.386-2.8h1.54q.743 1.204 1.218 2.828"/></svg>