<svg xmlns="http://www.w3.org/2000/svg" width="908" height="218" fill="none" viewBox="0 0 908 218"><path fill="#fff" d="M.5 0h907v218H.5z"/><path fill="#fff" d="M90.5 69a7.5 7.5 0 0 1 7.5-7.5h342a7.5 7.5 0 0 1 7.5 7.5v79a7.5 7.5 0 0 1-7.5 7.5H98a7.5 7.5 0 0 1-7.5-7.5z"/><path stroke="#368FF7" d="M90.5 69a7.5 7.5 0 0 1 7.5-7.5h342a7.5 7.5 0 0 1 7.5 7.5v79a7.5 7.5 0 0 1-7.5 7.5H98a7.5 7.5 0 0 1-7.5-7.5z"/><path fill="#121212" d="M123.648 90.776h-3.504v10.336h-1.664V90.776h-3.52v-1.44h8.688zm6.125 5.536q-.113-.928-.656-1.552-.545-.64-1.568-.64-.929 0-1.616.64-.672.624-.816 1.568zm-6.256.64q0-1.232.512-2.192.511-.96 1.408-1.488.912-.544 2.08-.544 1.648 0 2.416.8.783.8 1.056 1.472.368.896.368 1.984 0 .225-.016.4a3 3 0 0 0-.016.208h-6.208q.144.96.832 1.568a2.32 2.32 0 0 0 1.584.608q.72 0 1.184-.224.48-.224.656-.416.175-.192.336-.432l1.344.608q-.384.784-1.28 1.328-.897.528-2.256.528-1.168 0-2.08-.528a3.8 3.8 0 0 1-1.408-1.504q-.513-.96-.512-2.176m13.752-.016 3.088 4.176h-2.064l-2-2.832-1.984 2.832h-2.064l3.04-4.176-3.104-4.192h2.08l2.032 2.912 2.016-2.912h2.08zm7.717 4.224q-1.088 0-1.792-.72-.703-.72-.72-1.856v-4.32h-1.44v-1.456h1.44V90.52h1.664v2.288h1.792v1.456h-1.792v4.24q0 .432.24.752t.608.336q.272 0 .512-.048.256-.065.336-.08l.352 1.552q-.785.144-1.2.144"/><path fill="#6B6B6B" d="M116.448 125.88a4.24 4.24 0 0 0 1.312 1.52q.832.56 1.712.56 1.152 0 1.872-.544.736-.56.736-1.456 0-.624-.368-1.04a2.8 2.8 0 0 0-.912-.672 15 15 0 0 0-1.472-.592q-1.152-.4-1.856-.752a3.45 3.45 0 0 1-1.184-1.008q-.496-.656-.496-1.68 0-.912.496-1.584.512-.672 1.376-1.024t1.92-.352q1.264 0 2.272.672t1.424 1.92l-1.264.448a2.4 2.4 0 0 0-.944-1.312 2.55 2.55 0 0 0-1.456-.496q-1.04 0-1.744.48-.688.463-.688 1.248 0 .608.368 1.024t.896.688q.544.256 1.488.592 1.152.416 1.856.784.703.352 1.2 1.008.496.64.496 1.664 0 .944-.512 1.68-.496.736-1.408 1.136t-2.08.4a4.4 4.4 0 0 1-2.4-.688q-1.088-.704-1.824-1.984zm10.609-.288q0 1.024.576 1.696.576.656 1.488.656 1.025 0 1.664-.608.64-.624.64-1.632v-4.912h1.408v8.272h-1.408v-1.232a3 3 0 0 1-1.072.96 2.7 2.7 0 0 1-1.344.368q-.96 0-1.728-.448a3.17 3.17 0 0 1-1.2-1.232q-.432-.784-.432-1.776v-4.912h1.408zm11.966 3.568q-.687 0-1.424-.368t-1.264-1.216v1.488h-1.408v-11.68h1.408v4.992q.528-.848 1.264-1.216.737-.368 1.44-.368 1.152 0 2.048.544a3.63 3.63 0 0 1 1.392 1.472q.513.944.512 2.16 0 1.216-.512 2.176-.496.944-1.408 1.488-.896.528-2.048.528m-2.688-4.176q0 .816.352 1.504.369.688.976 1.088.609.4 1.312.4.753 0 1.344-.384.609-.384.928-1.056.336-.688.336-1.552t-.336-1.536a2.35 2.35 0 0 0-.928-1.056 2.4 2.4 0 0 0-1.344-.384q-.703 0-1.312.4-.607.4-.976 1.088a3.2 3.2 0 0 0-.352 1.488m11.1 4.112q-1.024 0-1.68-.672-.657-.672-.688-1.728v-4.624h-1.376v-1.232h1.376v-2.192h1.408v2.192h1.776v1.232h-1.776v4.528q0 .48.272.832.271.352.688.352.24 0 .432-.032t.384-.08l.256 1.296a5.3 5.3 0 0 1-1.072.128m8.547-4.704q-.112-1.024-.672-1.712-.544-.704-1.648-.704-1.008 0-1.728.688-.705.672-.848 1.744zm-6.288.544q0-1.216.496-2.16.495-.944 1.392-1.472.895-.528 2.032-.528 2.383 0 3.408 2.24.336.896.336 1.904a5 5 0 0 1-.032.624h-6.24q.159 1.04.864 1.696.72.656 1.68.656.768 0 1.264-.24.512-.24.704-.464.207-.24.368-.48l1.12.576q-.369.752-1.264 1.28-.88.528-2.208.528-1.137 0-2.032-.528a3.63 3.63 0 0 1-1.392-1.472q-.496-.944-.496-2.16m13.211 0 3.088 4.128h-1.744l-2.128-2.944-2.096 2.944h-1.76l3.056-4.128-3.088-4.144h1.776l2.112 2.992 2.128-2.992h1.76zm7.565 4.16q-1.024 0-1.68-.672t-.688-1.728v-4.624h-1.376v-1.232h1.376v-2.192h1.408v2.192h1.776v1.232h-1.776v4.528q0 .48.272.832a.83.83 0 0 0 .688.352q.24 0 .432-.032t.384-.08l.256 1.296a5.3 5.3 0 0 1-1.072.128"/><rect width="19" height="19" x="404.5" y="101" fill="#fff" rx="3.5"/><rect width="19" height="19" x="404.5" y="101" stroke="#C2C2C2" rx="3.5"/><path fill="#fff" d="M460.5 69a7.5 7.5 0 0 1 7.5-7.5h342a7.5 7.5 0 0 1 7.5 7.5v79a7.5 7.5 0 0 1-7.5 7.5H468a7.5 7.5 0 0 1-7.5-7.5z"/><path stroke="#BB362A" d="M460.5 69a7.5 7.5 0 0 1 7.5-7.5h342a7.5 7.5 0 0 1 7.5 7.5v79a7.5 7.5 0 0 1-7.5 7.5H468a7.5 7.5 0 0 1-7.5-7.5z"/><path fill="#5566FB" d="M502 128.5c9.941 0 18-8.059 18-18s-8.059-18-18-18-18 8.059-18 18 8.059 18 18 18"/><path fill="#fff" d="M509.625 103.89a18.1 18.1 0 0 0-4.478-1.389.1.1 0 0 0-.042.005.1.1 0 0 0-.031.029q-.308.559-.558 1.146a16.8 16.8 0 0 0-5.03 0 12 12 0 0 0-.566-1.146.1.1 0 0 0-.031-.028q-.02-.009-.042-.006a18 18 0 0 0-4.476 1.389.06.06 0 0 0-.03.025c-2.852 4.262-3.633 8.419-3.25 12.523q.001.015.009.029a.1.1 0 0 0 .02.022 18.2 18.2 0 0 0 5.494 2.778.07.07 0 0 0 .042-.001.07.07 0 0 0 .035-.025q.637-.867 1.124-1.828a.1.1 0 0 0 .007-.028.1.1 0 0 0-.005-.029.1.1 0 0 0-.016-.024.1.1 0 0 0-.024-.015q-.89-.341-1.717-.817a.1.1 0 0 1-.024-.024.1.1 0 0 1-.01-.032.07.07 0 0 1 .027-.061q.174-.13.341-.267a.1.1 0 0 1 .034-.015.1.1 0 0 1 .037.006c3.601 1.644 7.499 1.644 11.057 0a.1.1 0 0 1 .037-.007.1.1 0 0 1 .035.015q.166.138.344.268a.1.1 0 0 1 .022.027q.007.016.006.033a.1.1 0 0 1-.01.033.1.1 0 0 1-.024.024q-.825.48-1.719.817a.1.1 0 0 0-.025.016.1.1 0 0 0-.016.024.074.074 0 0 0 .004.058q.494.954 1.123 1.827.012.018.034.025a.07.07 0 0 0 .043.001 18.2 18.2 0 0 0 5.5-2.777.1.1 0 0 0 .02-.023.1.1 0 0 0 .009-.028c.459-4.746-.768-8.869-3.253-12.523a.06.06 0 0 0-.027-.027m-11.273 10.049c-1.084 0-1.977-.995-1.977-2.217s.876-2.218 1.977-2.218c1.11 0 1.995 1.004 1.977 2.218 0 1.222-.876 2.217-1.977 2.217m7.311 0c-1.084 0-1.977-.995-1.977-2.217s.876-2.218 1.977-2.218c1.11 0 1.994 1.004 1.976 2.218.001 1.222-.866 2.217-1.976 2.217"/><path fill="#5566FB" d="M540.576 95.96q0 1.632-.704 2.816a4.64 4.64 0 0 1-1.936 1.824q-1.248.624-2.88.64-1.696 0-3.04-.768a5.47 5.47 0 0 1-2.08-2.128q-.752-1.376-.752-3.12t.752-3.104a5.47 5.47 0 0 1 2.08-2.128q1.344-.768 3.04-.768 1.808 0 3.072.832 1.28.816 1.904 2l-1.424.736q-.448-.88-1.36-1.488-.912-.624-2.192-.624-1.248 0-2.208.576-.944.56-1.472 1.6-.528 1.024-.528 2.368t.528 2.384a3.96 3.96 0 0 0 1.472 1.6q.96.576 2.208.576 1.728-.048 2.8-.912 1.087-.88 1.104-2.544h-3.728v-1.392h5.36zm5.822 3.696q1.248 0 2.208-.56a3.83 3.83 0 0 0 1.504-1.552q.544-1.008.544-2.32t-.544-2.304a3.8 3.8 0 0 0-1.504-1.568q-.96-.56-2.208-.56h-2.176v8.864zm-3.84-10.32h3.856q1.712 0 3.04.752a5.25 5.25 0 0 1 2.08 2.096q.752 1.328.752 3.04t-.752 3.056a5.27 5.27 0 0 1-2.08 2.08q-1.328.752-3.04.752h-3.856zm12.433 8.448q.512.975 1.296 1.504.783.528 1.616.528 1.12 0 1.792-.512.688-.528.688-1.376 0-.576-.352-.944a2.5 2.5 0 0 0-.864-.624q-.513-.24-1.424-.56-1.152-.4-1.872-.768a3.6 3.6 0 0 1-1.232-1.04q-.512-.672-.512-1.728 0-.928.512-1.616.511-.705 1.392-1.072a5.2 5.2 0 0 1 1.984-.368q1.248 0 2.304.688t1.52 1.984l-1.472.544q-.288-.864-.96-1.312-.657-.465-1.392-.464-.96 0-1.6.448-.624.448-.624 1.184 0 .56.352.944.351.384.864.64.511.24 1.44.576 1.152.416 1.872.784t1.216 1.04q.512.655.512 1.68 0 .976-.528 1.728t-1.472 1.168q-.945.416-2.16.416a4.5 4.5 0 0 1-2.432-.704q-1.104-.72-1.856-2zm14.239 3.456q-1.697 0-3.024-.768a5.5 5.5 0 0 1-2.064-2.128q-.736-1.376-.736-3.12t.736-3.104a5.36 5.36 0 0 1 2.048-2.144q1.328-.768 3.008-.768 1.2 0 2.256.464 1.072.464 1.872 1.296l-1.088 1.072a3.66 3.66 0 0 0-1.344-1.008 4 4 0 0 0-1.68-.368q-1.216 0-2.16.576-.928.56-1.456 1.6-.512 1.024-.512 2.384 0 1.344.512 2.384a4 4 0 0 0 1.456 1.6q.943.576 2.16.576.912 0 1.664-.352.768-.367 1.296-.976l1.152 1.024a5.9 5.9 0 0 1-1.856 1.312 5.2 5.2 0 0 1-2.24.448m18.782-.128h-1.664v-5.328h-6v5.328h-1.664V89.336h1.664v5.008h6v-5.008h1.664zm5.94-1.328q1.071 0 1.728-.784.656-.784.656-2.048t-.656-2.048-1.728-.784q-1.056 0-1.712.784-.657.784-.656 2.048 0 1.264.656 2.048t1.712.784m-4.032-2.832q0-1.232.512-2.192a3.8 3.8 0 0 1 1.424-1.504q.927-.544 2.096-.544 1.184 0 2.096.544a3.77 3.77 0 0 1 1.44 1.504q.512.96.512 2.192 0 1.216-.512 2.176a3.77 3.77 0 0 1-1.44 1.504q-.912.544-2.096.544-1.169 0-2.096-.544a3.8 3.8 0 0 1-1.424-1.504q-.513-.96-.512-2.176m15.5-.48q0-1.056-.544-1.68-.528-.64-1.456-.64a2.1 2.1 0 0 0-1.136.32q-.496.304-.784.832a2.5 2.5 0 0 0-.272 1.168v4.64h-1.664v-8.368h1.664v1.408a2.96 2.96 0 0 1 1.056-.992q.672-.4 1.36-.4a3.6 3.6 0 0 1 1.648.4q.783.384 1.28 1.2.512.816.512 2.048v4.704h-1.664zm7.322 3.328q.704 0 1.264-.384a2.6 2.6 0 0 0 .896-1.04q.32-.656.32-1.408a2.95 2.95 0 0 0-.336-1.392 2.6 2.6 0 0 0-.896-1.024 2.16 2.16 0 0 0-1.248-.384q-1.088 0-1.76.768-.656.769-.656 2.032 0 1.264.672 2.048t1.744.784m-4.08-2.832q0-1.215.496-2.16a3.7 3.7 0 0 1 1.408-1.488q.912-.544 2.064-.544.768 0 1.472.368t1.12 1.072v-1.472h1.664v7.872q-.016 1.2-.528 2.128a3.55 3.55 0 0 1-1.44 1.472q-.943.544-2.208.544a4.4 4.4 0 0 1-2-.464q-.912-.463-1.504-1.392l1.296-.896q.48.672.992.976.528.32 1.216.32 1.168 0 1.84-.72.672-.703.672-1.824v-1.056q-.48.704-1.2 1.088-.703.384-1.392.384-1.152 0-2.064-.528a3.83 3.83 0 0 1-1.408-1.504q-.496-.96-.496-2.176m12.061-4.176v8.32h-1.664v-8.32zm-1.776-2.72q0-.416.256-.672a.93.93 0 0 1 .688-.272q.415 0 .672.272.272.256.272.672 0 .4-.272.672a.88.88 0 0 1-.672.272.96.96 0 0 1-.688-.256.96.96 0 0 1-.256-.688m5.709 6.448 3.264-3.776h2.224l-3.232 3.728 3.2 4.64h-2l-2.4-3.424-1.056 1.264v2.16h-1.664V89.336h1.664zm14.779 3.136q1.248 0 2.208-.56a3.83 3.83 0 0 0 1.504-1.552q.543-1.008.544-2.32 0-1.312-.544-2.304a3.8 3.8 0 0 0-1.504-1.568q-.96-.56-2.208-.56h-2.176v8.864zm-3.84-10.32h3.856q1.711 0 3.04.752a5.25 5.25 0 0 1 2.08 2.096q.752 1.328.752 3.04t-.752 3.056a5.27 5.27 0 0 1-2.08 2.08q-1.329.752-3.04.752h-3.856zm13.207 3.456v8.32h-1.664v-8.32zm-1.776-2.72q0-.416.256-.672a.93.93 0 0 1 .688-.272q.416 0 .672.272.272.256.272.672 0 .4-.272.672a.88.88 0 0 1-.672.272.96.96 0 0 1-.688-.256.96.96 0 0 1-.256-.688m4.973 8.432q.32.624.848.976.543.352 1.024.352.687 0 1.088-.288a.9.9 0 0 0 .416-.784q0-.432-.4-.672t-1.28-.56a11 11 0 0 1-1.36-.56 2.8 2.8 0 0 1-.912-.752q-.369-.48-.368-1.2 0-1.072.816-1.696t2.112-.624q.848 0 1.68.512.847.495 1.168 1.456l-1.392.512q-.209-.608-.624-.832a1.6 1.6 0 0 0-.832-.24q-.609 0-.944.256a.77.77 0 0 0-.32.656q0 .416.4.672.416.255 1.28.56.831.305 1.344.56.527.255.896.736.384.465.384 1.184 0 1.135-.864 1.824-.849.672-2.288.672-.96 0-1.824-.528a3.8 3.8 0 0 1-1.328-1.456zm10.337 1.104q.495 0 1.024-.224.543-.24.912-.608l1.136 1.12a4.5 4.5 0 0 1-1.408.928q-.832.352-1.6.352-1.233 0-2.208-.528a3.9 3.9 0 0 1-1.504-1.504q-.544-.96-.544-2.192t.544-2.192a3.8 3.8 0 0 1 1.504-1.488q.975-.544 2.208-.544.8 0 1.616.352a4.2 4.2 0 0 1 1.392.928l-1.136 1.12a2.8 2.8 0 0 0-.912-.592 2.5 2.5 0 0 0-1.024-.24q-1.137 0-1.84.736-.688.735-.688 1.92t.688 1.92q.703.736 1.84.736m7.953.176q1.073 0 1.728-.784.656-.784.656-2.048t-.656-2.048-1.728-.784q-1.056 0-1.712.784t-.656 2.048.656 2.048 1.712.784m-4.032-2.832q0-1.232.512-2.192a3.8 3.8 0 0 1 1.424-1.504q.928-.544 2.096-.544 1.184 0 2.096.544a3.76 3.76 0 0 1 1.44 1.504q.512.96.512 2.192 0 1.216-.512 2.176a3.76 3.76 0 0 1-1.44 1.504q-.912.544-2.096.544-1.168 0-2.096-.544a3.8 3.8 0 0 1-1.424-1.504q-.512-.96-.512-2.176m11.228-2.624q.336-.72 1.072-1.168a3 3 0 0 1 1.6-.464v1.52a2.4 2.4 0 0 0-1.36.4 2.9 2.9 0 0 0-.96 1.04 2.6 2.6 0 0 0-.352 1.28v4.176h-1.664v-8.368h1.664zm7.358 6.864q-1.152 0-2.064-.528a3.83 3.83 0 0 1-1.408-1.504q-.512-.96-.512-2.192t.496-2.192a3.66 3.66 0 0 1 1.424-1.504q.912-.544 2.064-.544.672 0 1.408.352.736.336 1.232 1.12v-4.864h1.664v11.792h-1.664v-1.392q-.511.752-1.248 1.104-.736.352-1.392.352m-2.32-4.208q0 1.28.672 2.08.688.784 1.776.784.672 0 1.248-.384t.912-1.04q.352-.656.352-1.44a2.96 2.96 0 0 0-.352-1.424 2.7 2.7 0 0 0-.912-1.04 2.2 2.2 0 0 0-1.248-.384q-1.088 0-1.776.8-.672.784-.672 2.048"/><path fill="#6B6B6B" d="M540.16 116.104v14.144h-1.456v-14.144zm-10.672 1.328h6.704v1.216h-5.264v6.896q2.144 0 3.552-.096a24 24 0 0 0 2.832-.368l.144 1.232q-1.488.288-2.976.384a74 74 0 0 1-3.84.08h-1.152zm20.032-.4v1.072q0 1.136.704 2.192a6.5 6.5 0 0 0 1.888 1.808q1.185.736 2.512.976l-.656 1.2a8.25 8.25 0 0 1-3.12-1.44q-1.424-1.056-2.096-2.512-.687 1.472-2.112 2.528a7.9 7.9 0 0 1-3.104 1.424l-.64-1.2a6.8 6.8 0 0 0 2.48-.992q1.185-.752 1.888-1.808.72-1.056.72-2.176v-1.072zm-7.104 10.112H555.2v1.2h-12.784zm25.105-9.712v1.312a49 49 0 0 1-.096 3.216q-.096 1.44-.496 3.376l-1.44-.16q.351-1.664.48-3.232l-8.416.48-.192-1.264 8.688-.32q.032-.768.032-2.096v-.128h-8.336v-1.184zm-11.28 9.728h4.864v-3.584h1.456v3.584h6.432v1.2h-12.752zm25.024-9.792v1.2h-8.16v4.24h8.304v1.184h-9.744v-6.624zm-11.2 9.776h12.784v1.2h-12.784zm29-11.024v10.384h-1.456v-3.664h-3.472a3.4 3.4 0 0 1-1.248.928 3.9 3.9 0 0 1-1.616.336 3.94 3.94 0 0 1-1.872-.448 3.36 3.36 0 0 1-1.312-1.248q-.464-.816-.464-1.84t.464-1.84q.48-.816 1.312-1.264a3.84 3.84 0 0 1 1.872-.464q.864 0 1.6.336.736.32 1.248.912h3.488v-2.128zm-10.064 4.448q0 1.008.64 1.648.655.624 1.632.624t1.616-.624q.64-.64.64-1.648t-.64-1.632q-.64-.64-1.616-.64t-1.632.64q-.64.624-.64 1.632m.976 4.88h1.472v3.28h8v1.2h-9.472zm4.8-6q.16.592.16 1.12 0 .592-.16 1.072h2.832v-2.192zM606.889 123v-1.504h-4.032v-4.736h9.568v1.168h-8.128v2.384h8.224v1.184h-4.176V123h5.664v1.184h-12.752V123zm-4.128 4.672q0-1.216 1.28-1.888t3.568-.672q2.272 0 3.552.672 1.296.672 1.296 1.888 0 1.217-1.296 1.872-1.28.672-3.552.672-2.287 0-3.568-.672-1.28-.655-1.28-1.872m1.472 0q0 .689.88 1.056t2.496.368q1.6 0 2.48-.368t.88-1.056-.88-1.056-2.48-.368-2.496.368q-.88.368-.88 1.056m22.401-11.584v14.16h-1.456v-14.16zm-11.088 6.032q0-1.488.464-2.608t1.28-1.728a3.05 3.05 0 0 1 1.872-.608q1.04 0 1.856.608.831.608 1.296 1.728.464 1.12.464 2.608t-.464 2.624q-.465 1.12-1.296 1.728a3.03 3.03 0 0 1-1.856.608 3.05 3.05 0 0 1-1.872-.608q-.816-.608-1.28-1.728-.464-1.136-.464-2.624m1.408 0q0 1.104.272 1.936.288.816.784 1.264.511.448 1.152.448t1.136-.448q.511-.448.784-1.264.288-.832.288-1.936t-.288-1.92q-.273-.832-.784-1.264a1.65 1.65 0 0 0-1.136-.448q-.64 0-1.152.448-.496.432-.784 1.264-.273.816-.272 1.92m27.096-6v7.28h-1.488v-7.28zm-11.392 5.664q1.104 0 1.712-.016V118.2h-1.328v-1.152h7.568v1.152h-1.328v3.376a30 30 0 0 0 1.984-.192l.08 1.056q-3.312.528-8.528.528zm2.096 2.288h9.296v3.488h-7.824v1.36h8.304v1.168h-9.744v-3.6h7.808v-1.28h-7.84zm1.024-2.336a97 97 0 0 0 2.096-.064V118.2h-2.096zm13.536 5.504v-3.728q-.88-.48-1.376-1.216a3.06 3.06 0 0 1-.48-1.68q0-1.087.656-1.92.672-.832 1.84-1.28 1.168-.464 2.656-.464 1.504 0 2.672.464 1.184.448 1.84 1.28t.656 1.92q0 .928-.48 1.664-.464.72-1.328 1.216v3.744h3.056v1.2h-12.784v-1.2zm-.432-6.624q0 .752.464 1.328.48.56 1.328.88.848.304 1.936.304t1.936-.304q.848-.32 1.328-.88.48-.576.48-1.328t-.48-1.312q-.48-.576-1.328-.88-.848-.32-1.936-.32t-1.936.32q-.848.304-1.328.88a2 2 0 0 0-.464 1.312m5.616 6.624v-3.184a7.8 7.8 0 0 1-1.888.208 7.6 7.6 0 0 1-1.856-.208v3.184zm8.304-8.784v-1.952h1.44v1.952h2.736v1.184h-6.944v-1.184zm-2.32 5.296q0-.928.384-1.664.4-.736 1.088-1.152a3 3 0 0 1 1.568-.416q.865 0 1.552.416.705.416 1.088 1.152.4.736.4 1.664 0 .96-.4 1.696a2.86 2.86 0 0 1-1.072 1.152 2.97 2.97 0 0 1-1.568.416 3 3 0 0 1-1.568-.416 3 3 0 0 1-1.088-1.152q-.384-.736-.384-1.696m1.296 0q0 .912.48 1.472.496.56 1.264.56t1.248-.56q.496-.56.496-1.472 0-.896-.496-1.456-.48-.56-1.248-.56t-1.264.56q-.48.56-.48 1.456m5.856-7.328h1.376v5.584h1.632v-5.904h1.392v14.112h-1.392v-7.008h-1.632v6.336h-1.376zm9.329 10.816v-3.728q-.88-.48-1.376-1.216a3.06 3.06 0 0 1-.48-1.68q0-1.087.656-1.92.672-.832 1.84-1.28 1.168-.464 2.656-.464 1.503 0 2.672.464 1.183.448 1.84 1.28.656.833.656 1.92 0 .928-.48 1.664-.465.72-1.328 1.216v3.744h3.056v1.2h-12.784v-1.2zm-.432-6.624q0 .752.464 1.328.48.56 1.328.88.847.304 1.936.304 1.087 0 1.936-.304.848-.32 1.328-.88.48-.576.48-1.328t-.48-1.312q-.48-.576-1.328-.88-.849-.32-1.936-.32-1.089 0-1.936.32-.849.304-1.328.88a2 2 0 0 0-.464 1.312m5.616 6.624v-3.184a7.8 7.8 0 0 1-1.888.208 7.6 7.6 0 0 1-1.856-.208v3.184zm6.8.272q.4 0 .64.24t.24.64-.24.64q-.24.256-.64.256a.89.89 0 0 1-.656-.256q-.24-.24-.24-.64t.24-.64a.92.92 0 0 1 .656-.24"/><path stroke="#BB362A" stroke-linejoin="bevel" stroke-width="1.4" d="m784 104.5 5 6-5 6"/></svg>