<svg width="908" height="218" viewBox="0 0 908 218" fill="none" xmlns="http://www.w3.org/2000/svg">
<rect width="907" height="218" transform="translate(0.5)" fill="white"/>
<path d="M90.5 69C90.5 64.8579 93.8579 61.5 98 61.5H440C444.142 61.5 447.5 64.8579 447.5 69V148C447.5 152.142 444.142 155.5 440 155.5H98C93.8579 155.5 90.5 152.142 90.5 148V69Z" fill="white"/>
<path d="M90.5 69C90.5 64.8579 93.8579 61.5 98 61.5H440C444.142 61.5 447.5 64.8579 447.5 69V148C447.5 152.142 444.142 155.5 440 155.5H98C93.8579 155.5 90.5 152.142 90.5 148V69Z" stroke="#368FF7"/>
<path d="M123.648 90.776H120.144V101.112H118.48V90.776H114.96V89.336H123.648V90.776ZM129.773 96.312C129.698 95.6933 129.479 95.176 129.117 94.76C128.754 94.3333 128.231 94.12 127.549 94.12C126.93 94.12 126.391 94.3333 125.933 94.76C125.485 95.176 125.213 95.6987 125.117 96.328L129.773 96.312ZM123.517 96.952C123.517 96.1307 123.687 95.4 124.029 94.76C124.37 94.12 124.839 93.624 125.437 93.272C126.045 92.9093 126.738 92.728 127.517 92.728C128.615 92.728 129.421 92.9947 129.933 93.528C130.455 94.0613 130.807 94.552 130.989 95C131.234 95.5973 131.357 96.2587 131.357 96.984C131.357 97.1333 131.351 97.2667 131.341 97.384C131.33 97.4907 131.325 97.56 131.325 97.592H125.117C125.213 98.232 125.49 98.7547 125.949 99.16C126.407 99.5653 126.935 99.768 127.533 99.768C128.013 99.768 128.407 99.6933 128.717 99.544C129.037 99.3947 129.255 99.256 129.373 99.128C129.49 99 129.602 98.856 129.709 98.696L131.053 99.304C130.797 99.8267 130.37 100.269 129.773 100.632C129.175 100.984 128.423 101.16 127.517 101.16C126.738 101.16 126.045 100.984 125.437 100.632C124.839 100.269 124.37 99.768 124.029 99.128C123.687 98.488 123.517 97.7627 123.517 96.952ZM137.269 96.936L140.357 101.112H138.293L136.293 98.28L134.309 101.112H132.245L135.285 96.936L132.181 92.744H134.261L136.293 95.656L138.309 92.744H140.389L137.269 96.936ZM144.986 101.16C144.261 101.16 143.663 100.92 143.194 100.44C142.725 99.96 142.485 99.3413 142.474 98.584V94.264H141.034V92.808H142.474V90.52H144.138V92.808H145.93V94.264H144.138V98.504C144.138 98.792 144.218 99.0427 144.378 99.256C144.538 99.4693 144.741 99.5813 144.986 99.592C145.167 99.592 145.338 99.576 145.498 99.544C145.669 99.5013 145.781 99.4747 145.834 99.464L146.186 101.016C145.663 101.112 145.263 101.16 144.986 101.16Z" fill="#121212"/>
<path d="M116.448 125.88C116.779 126.509 117.216 127.016 117.76 127.4C118.315 127.773 118.885 127.96 119.472 127.96C120.24 127.96 120.864 127.779 121.344 127.416C121.835 127.043 122.08 126.557 122.08 125.96C122.08 125.544 121.957 125.197 121.712 124.92C121.467 124.643 121.163 124.419 120.8 124.248C120.448 124.077 119.957 123.88 119.328 123.656C118.56 123.389 117.941 123.139 117.472 122.904C117.013 122.669 116.619 122.333 116.288 121.896C115.957 121.459 115.792 120.899 115.792 120.216C115.792 119.608 115.957 119.08 116.288 118.632C116.629 118.184 117.088 117.843 117.664 117.608C118.24 117.373 118.88 117.256 119.584 117.256C120.427 117.256 121.184 117.48 121.856 117.928C122.528 118.376 123.003 119.016 123.28 119.848L122.016 120.296C121.845 119.741 121.531 119.304 121.072 118.984C120.624 118.664 120.139 118.499 119.616 118.488C118.923 118.488 118.341 118.648 117.872 118.968C117.413 119.277 117.184 119.693 117.184 120.216C117.184 120.621 117.307 120.963 117.552 121.24C117.797 121.517 118.096 121.747 118.448 121.928C118.811 122.099 119.307 122.296 119.936 122.52C120.704 122.797 121.323 123.059 121.792 123.304C122.261 123.539 122.661 123.875 122.992 124.312C123.323 124.739 123.488 125.293 123.488 125.976C123.488 126.605 123.317 127.165 122.976 127.656C122.645 128.147 122.176 128.525 121.568 128.792C120.96 129.059 120.267 129.192 119.488 129.192C118.613 129.192 117.813 128.963 117.088 128.504C116.363 128.035 115.755 127.373 115.264 126.52L116.448 125.88ZM127.057 125.592C127.057 126.275 127.249 126.84 127.633 127.288C128.017 127.725 128.513 127.944 129.121 127.944C129.804 127.944 130.359 127.741 130.785 127.336C131.212 126.92 131.425 126.376 131.425 125.704V120.792H132.833V129.064H131.425V127.832C131.159 128.227 130.801 128.547 130.353 128.792C129.916 129.037 129.468 129.16 129.009 129.16C128.369 129.16 127.793 129.011 127.281 128.712C126.769 128.413 126.369 128.003 126.081 127.48C125.793 126.957 125.649 126.365 125.649 125.704V120.792H127.057V125.592ZM139.023 129.16C138.565 129.16 138.09 129.037 137.599 128.792C137.109 128.547 136.687 128.141 136.335 127.576V129.064H134.927V117.384H136.335V122.376C136.687 121.811 137.109 121.405 137.599 121.16C138.09 120.915 138.57 120.792 139.039 120.792C139.807 120.792 140.49 120.973 141.087 121.336C141.685 121.688 142.149 122.179 142.479 122.808C142.821 123.437 142.991 124.157 142.991 124.968C142.991 125.779 142.821 126.504 142.479 127.144C142.149 127.773 141.679 128.269 141.071 128.632C140.474 128.984 139.791 129.16 139.023 129.16ZM136.335 124.984C136.335 125.528 136.453 126.029 136.687 126.488C136.933 126.947 137.258 127.309 137.663 127.576C138.069 127.843 138.506 127.976 138.975 127.976C139.477 127.976 139.925 127.848 140.319 127.592C140.725 127.336 141.034 126.984 141.247 126.536C141.471 126.077 141.583 125.56 141.583 124.984C141.583 124.408 141.471 123.896 141.247 123.448C141.034 122.989 140.725 122.637 140.319 122.392C139.925 122.136 139.477 122.008 138.975 122.008C138.506 122.008 138.069 122.141 137.663 122.408C137.258 122.675 136.933 123.037 136.687 123.496C136.453 123.955 136.335 124.451 136.335 124.984ZM147.435 129.096C146.752 129.096 146.192 128.872 145.755 128.424C145.317 127.976 145.088 127.4 145.067 126.696V122.072H143.691V120.84H145.067V118.648H146.475V120.84H148.251V122.072H146.475V126.6C146.475 126.92 146.565 127.197 146.747 127.432C146.928 127.667 147.157 127.784 147.435 127.784C147.595 127.784 147.739 127.773 147.867 127.752C147.995 127.731 148.123 127.704 148.251 127.672L148.507 128.968C148.101 129.053 147.744 129.096 147.435 129.096ZM155.982 124.392C155.907 123.709 155.683 123.139 155.31 122.68C154.947 122.211 154.398 121.976 153.662 121.976C152.99 121.976 152.414 122.205 151.934 122.664C151.464 123.112 151.182 123.693 151.086 124.408L155.982 124.392ZM149.694 124.936C149.694 124.125 149.859 123.405 150.19 122.776C150.52 122.147 150.984 121.656 151.582 121.304C152.179 120.952 152.856 120.776 153.614 120.776C155.203 120.776 156.339 121.523 157.022 123.016C157.246 123.613 157.358 124.248 157.358 124.92C157.358 125.101 157.352 125.251 157.342 125.368C157.331 125.475 157.326 125.533 157.326 125.544H151.086C151.192 126.237 151.48 126.803 151.95 127.24C152.43 127.677 152.99 127.896 153.63 127.896C154.142 127.896 154.563 127.816 154.894 127.656C155.235 127.496 155.47 127.341 155.598 127.192C155.736 127.032 155.859 126.872 155.966 126.712L157.086 127.288C156.84 127.789 156.419 128.216 155.822 128.568C155.235 128.92 154.499 129.096 153.614 129.096C152.856 129.096 152.179 128.92 151.582 128.568C150.984 128.216 150.52 127.725 150.19 127.096C149.859 126.467 149.694 125.747 149.694 124.936ZM162.905 124.936L165.993 129.064H164.249L162.121 126.12L160.025 129.064H158.265L161.321 124.936L158.233 120.792H160.009L162.121 123.784L164.249 120.792H166.009L162.905 124.936ZM170.47 129.096C169.787 129.096 169.227 128.872 168.79 128.424C168.353 127.976 168.123 127.4 168.102 126.696V122.072H166.726V120.84H168.102V118.648H169.51V120.84H171.286V122.072H169.51V126.6C169.51 126.92 169.601 127.197 169.782 127.432C169.963 127.667 170.193 127.784 170.47 127.784C170.63 127.784 170.774 127.773 170.902 127.752C171.03 127.731 171.158 127.704 171.286 127.672L171.542 128.968C171.137 129.053 170.779 129.096 170.47 129.096Z" fill="#6B6B6B"/>
<rect x="404.5" y="101" width="19" height="19" rx="3.5" fill="white"/>
<rect x="404.5" y="101" width="19" height="19" rx="3.5" stroke="#C2C2C2"/>
<path d="M460.5 69C460.5 64.8579 463.858 61.5 468 61.5H810C814.142 61.5 817.5 64.8579 817.5 69V148C817.5 152.142 814.142 155.5 810 155.5H468C463.858 155.5 460.5 152.142 460.5 148V69Z" fill="white"/>
<path d="M460.5 69C460.5 64.8579 463.858 61.5 468 61.5H810C814.142 61.5 817.5 64.8579 817.5 69V148C817.5 152.142 814.142 155.5 810 155.5H468C463.858 155.5 460.5 152.142 460.5 148V69Z" stroke="#BB362A"/>
<path d="M502 128.5C511.941 128.5 520 120.441 520 110.5C520 100.559 511.941 92.5 502 92.5C492.059 92.5 484 100.559 484 110.5C484 120.441 492.059 128.5 502 128.5Z" fill="#5566FB"/>
<path d="M509.625 103.89C508.199 103.235 506.693 102.768 505.147 102.501C505.133 102.499 505.118 102.5 505.105 102.506C505.092 102.513 505.081 102.523 505.074 102.535C504.869 102.907 504.683 103.29 504.516 103.681C502.849 103.428 501.153 103.428 499.486 103.681C499.318 103.289 499.129 102.906 498.92 102.535C498.912 102.523 498.902 102.513 498.889 102.507C498.876 102.501 498.861 102.499 498.847 102.501C497.301 102.768 495.796 103.235 494.371 103.89C494.358 103.895 494.348 103.904 494.341 103.915C491.489 108.177 490.708 112.334 491.091 116.438C491.092 116.448 491.095 116.458 491.1 116.467C491.105 116.475 491.112 116.483 491.12 116.489C492.781 117.72 494.638 118.659 496.614 119.267C496.628 119.271 496.643 119.271 496.656 119.266C496.67 119.262 496.682 119.253 496.691 119.241C497.115 118.664 497.491 118.053 497.815 117.413C497.819 117.405 497.822 117.395 497.822 117.385C497.823 117.375 497.821 117.366 497.817 117.356C497.814 117.347 497.808 117.339 497.801 117.332C497.794 117.325 497.786 117.32 497.777 117.317C497.184 117.09 496.61 116.817 496.06 116.5C496.05 116.494 496.042 116.486 496.036 116.476C496.03 116.466 496.026 116.455 496.026 116.444C496.025 116.432 496.027 116.42 496.032 116.41C496.037 116.399 496.044 116.39 496.053 116.383C496.168 116.297 496.284 116.207 496.394 116.116C496.404 116.108 496.416 116.103 496.428 116.101C496.441 116.1 496.453 116.101 496.465 116.107C500.066 117.751 503.964 117.751 507.522 116.107C507.534 116.101 507.547 116.099 507.559 116.1C507.572 116.102 507.584 116.107 507.594 116.115C507.704 116.206 507.82 116.297 507.938 116.383C507.947 116.39 507.955 116.399 507.96 116.41C507.965 116.42 507.967 116.432 507.966 116.443C507.966 116.455 507.962 116.466 507.956 116.476C507.95 116.486 507.942 116.494 507.932 116.5C507.383 116.82 506.808 117.093 506.213 117.317C506.204 117.32 506.195 117.326 506.188 117.333C506.181 117.34 506.176 117.348 506.172 117.357C506.169 117.366 506.167 117.376 506.168 117.386C506.169 117.396 506.171 117.406 506.176 117.415C506.505 118.05 506.88 118.661 507.299 119.242C507.307 119.254 507.319 119.263 507.333 119.267C507.347 119.272 507.362 119.272 507.376 119.268C509.354 118.662 511.214 117.723 512.876 116.491C512.885 116.485 512.891 116.477 512.896 116.468C512.901 116.46 512.904 116.45 512.905 116.44C513.364 111.694 512.137 107.571 509.652 103.917C509.647 103.905 509.637 103.896 509.625 103.89ZM498.352 113.939C497.268 113.939 496.375 112.944 496.375 111.722C496.375 110.5 497.251 109.504 498.352 109.504C499.462 109.504 500.347 110.508 500.329 111.722C500.329 112.944 499.453 113.939 498.352 113.939ZM505.663 113.939C504.579 113.939 503.686 112.944 503.686 111.722C503.686 110.5 504.562 109.504 505.663 109.504C506.773 109.504 507.657 110.508 507.639 111.722C507.64 112.944 506.773 113.939 505.663 113.939Z" fill="white"/>
<path d="M540.576 95.96C540.576 97.048 540.341 97.9867 539.872 98.776C539.413 99.5653 538.768 100.173 537.936 100.6C537.104 101.016 536.144 101.229 535.056 101.24C533.925 101.24 532.912 100.984 532.016 100.472C531.131 99.96 530.437 99.2507 529.936 98.344C529.435 97.4267 529.184 96.3867 529.184 95.224C529.184 94.0613 529.435 93.0267 529.936 92.12C530.437 91.2133 531.131 90.504 532.016 89.992C532.912 89.48 533.925 89.224 535.056 89.224C536.261 89.224 537.285 89.5013 538.128 90.056C538.981 90.6 539.616 91.2667 540.032 92.056L538.608 92.792C538.309 92.2053 537.856 91.7093 537.248 91.304C536.64 90.888 535.909 90.68 535.056 90.68C534.224 90.68 533.488 90.872 532.848 91.256C532.219 91.6293 531.728 92.1627 531.376 92.856C531.024 93.5387 530.848 94.328 530.848 95.224C530.848 96.12 531.024 96.9147 531.376 97.608C531.728 98.2907 532.219 98.824 532.848 99.208C533.488 99.592 534.224 99.784 535.056 99.784C536.208 99.752 537.141 99.448 537.856 98.872C538.581 98.2853 538.949 97.4373 538.96 96.328H535.232V94.936H540.592L540.576 95.96ZM546.398 99.656C547.23 99.656 547.966 99.4693 548.606 99.096C549.257 98.7227 549.758 98.2053 550.11 97.544C550.473 96.872 550.654 96.0987 550.654 95.224C550.654 94.3493 550.473 93.5813 550.11 92.92C549.758 92.248 549.257 91.7253 548.606 91.352C547.966 90.9787 547.23 90.792 546.398 90.792H544.222V99.656H546.398ZM542.558 89.336H546.414C547.555 89.336 548.569 89.5867 549.454 90.088C550.35 90.5893 551.043 91.288 551.534 92.184C552.035 93.0693 552.286 94.0827 552.286 95.224C552.286 96.3653 552.035 97.384 551.534 98.28C551.043 99.1653 550.35 99.8587 549.454 100.36C548.569 100.861 547.555 101.112 546.414 101.112H542.558V89.336ZM554.991 97.784C555.332 98.4347 555.764 98.936 556.287 99.288C556.809 99.64 557.348 99.816 557.903 99.816C558.649 99.816 559.247 99.6453 559.695 99.304C560.153 98.952 560.383 98.4933 560.383 97.928C560.383 97.544 560.265 97.2293 560.031 96.984C559.807 96.728 559.519 96.52 559.167 96.36C558.825 96.2 558.351 96.0133 557.743 95.8C556.975 95.5333 556.351 95.2773 555.871 95.032C555.391 94.7867 554.98 94.44 554.639 93.992C554.297 93.544 554.127 92.968 554.127 92.264C554.127 91.6453 554.297 91.1067 554.639 90.648C554.98 90.1787 555.444 89.8213 556.031 89.576C556.628 89.3307 557.289 89.208 558.015 89.208C558.847 89.208 559.615 89.4373 560.319 89.896C561.023 90.3547 561.529 91.016 561.839 91.88L560.367 92.424C560.175 91.848 559.855 91.4107 559.407 91.112C558.969 90.8027 558.505 90.648 558.015 90.648C557.375 90.648 556.841 90.7973 556.415 91.096C555.999 91.3947 555.791 91.7893 555.791 92.28C555.791 92.6533 555.908 92.968 556.143 93.224C556.377 93.48 556.665 93.6933 557.007 93.864C557.348 94.024 557.828 94.216 558.447 94.44C559.215 94.7173 559.839 94.9787 560.319 95.224C560.799 95.4693 561.204 95.816 561.535 96.264C561.876 96.7013 562.047 97.2613 562.047 97.944C562.047 98.5947 561.871 99.1707 561.519 99.672C561.167 100.173 560.676 100.563 560.047 100.84C559.417 101.117 558.697 101.256 557.887 101.256C557.012 101.256 556.201 101.021 555.455 100.552C554.719 100.072 554.1 99.4053 553.599 98.552L554.991 97.784ZM569.23 101.24C568.099 101.24 567.091 100.984 566.206 100.472C565.331 99.96 564.643 99.2507 564.142 98.344C563.651 97.4267 563.406 96.3867 563.406 95.224C563.406 94.0613 563.651 93.0267 564.142 92.12C564.633 91.2027 565.315 90.488 566.19 89.976C567.075 89.464 568.078 89.208 569.198 89.208C569.998 89.208 570.75 89.3627 571.454 89.672C572.169 89.9813 572.793 90.4133 573.326 90.968L572.238 92.04C571.886 91.6133 571.438 91.2773 570.894 91.032C570.361 90.7867 569.801 90.664 569.214 90.664C568.403 90.664 567.683 90.856 567.054 91.24C566.435 91.6133 565.95 92.1467 565.598 92.84C565.257 93.5227 565.086 94.3173 565.086 95.224C565.086 96.12 565.257 96.9147 565.598 97.608C565.95 98.2907 566.435 98.824 567.054 99.208C567.683 99.592 568.403 99.784 569.214 99.784C569.822 99.784 570.377 99.6667 570.878 99.432C571.39 99.1867 571.822 98.8613 572.174 98.456L573.326 99.48C572.782 100.045 572.163 100.483 571.47 100.792C570.787 101.101 570.041 101.251 569.23 101.24ZM588.012 101.112H586.348V95.784H580.348V101.112H578.684V89.336H580.348V94.344H586.348V89.336H588.012V101.112ZM593.952 99.784C594.666 99.784 595.242 99.5227 595.68 99C596.117 98.4773 596.336 97.7947 596.336 96.952C596.336 96.1093 596.117 95.4267 595.68 94.904C595.242 94.3813 594.666 94.12 593.952 94.12C593.248 94.12 592.677 94.3813 592.24 94.904C591.802 95.4267 591.584 96.1093 591.584 96.952C591.584 97.7947 591.802 98.4773 592.24 99C592.677 99.5227 593.248 99.784 593.952 99.784ZM589.92 96.952C589.92 96.1307 590.09 95.4 590.432 94.76C590.773 94.12 591.248 93.6187 591.856 93.256C592.474 92.8933 593.173 92.712 593.952 92.712C594.741 92.712 595.44 92.8933 596.048 93.256C596.666 93.6187 597.146 94.12 597.488 94.76C597.829 95.4 598 96.1307 598 96.952C598 97.7627 597.829 98.488 597.488 99.128C597.146 99.768 596.666 100.269 596.048 100.632C595.44 100.995 594.741 101.176 593.952 101.176C593.173 101.176 592.474 100.995 591.856 100.632C591.248 100.269 590.773 99.768 590.432 99.128C590.09 98.488 589.92 97.7627 589.92 96.952ZM605.42 96.472C605.42 95.768 605.238 95.208 604.876 94.792C604.524 94.3653 604.038 94.152 603.42 94.152C603.004 94.152 602.625 94.2587 602.284 94.472C601.953 94.6747 601.692 94.952 601.5 95.304C601.318 95.656 601.228 96.0453 601.228 96.472V101.112H599.564V92.744H601.228V94.152C601.484 93.7467 601.836 93.416 602.284 93.16C602.732 92.8933 603.185 92.76 603.644 92.76C604.22 92.76 604.769 92.8933 605.292 93.16C605.814 93.416 606.241 93.816 606.572 94.36C606.913 94.904 607.084 95.5867 607.084 96.408V101.112H605.42V96.472ZM612.742 99.8C613.211 99.8 613.633 99.672 614.006 99.416C614.39 99.16 614.689 98.8133 614.902 98.376C615.115 97.9387 615.222 97.4693 615.222 96.968C615.222 96.4667 615.11 96.0027 614.886 95.576C614.673 95.1493 614.374 94.808 613.99 94.552C613.617 94.296 613.201 94.168 612.742 94.168C612.017 94.168 611.43 94.424 610.982 94.936C610.545 95.448 610.326 96.1253 610.326 96.968C610.326 97.8107 610.55 98.4933 610.998 99.016C611.446 99.5387 612.027 99.8 612.742 99.8ZM608.662 96.968C608.662 96.1573 608.827 95.4373 609.158 94.808C609.499 94.168 609.969 93.672 610.566 93.32C611.174 92.9573 611.862 92.776 612.63 92.776C613.142 92.776 613.633 92.8987 614.102 93.144C614.571 93.3893 614.945 93.7467 615.222 94.216V92.744H616.886V100.616C616.875 101.416 616.699 102.125 616.358 102.744C616.027 103.373 615.547 103.864 614.918 104.216C614.289 104.579 613.553 104.76 612.71 104.76C611.995 104.76 611.329 104.605 610.71 104.296C610.102 103.987 609.601 103.523 609.206 102.904L610.502 102.008C610.822 102.456 611.153 102.781 611.494 102.984C611.846 103.197 612.251 103.304 612.71 103.304C613.489 103.304 614.102 103.064 614.55 102.584C614.998 102.115 615.222 101.507 615.222 100.76V99.704C614.902 100.173 614.502 100.536 614.022 100.792C613.553 101.048 613.089 101.176 612.63 101.176C611.862 101.176 611.174 101 610.566 100.648C609.969 100.285 609.499 99.784 609.158 99.144C608.827 98.504 608.662 97.7787 608.662 96.968ZM620.723 92.792V101.112H619.059V92.792H620.723ZM618.947 90.072C618.947 89.7947 619.032 89.5707 619.203 89.4C619.384 89.2187 619.614 89.128 619.891 89.128C620.168 89.128 620.392 89.2187 620.563 89.4C620.744 89.5707 620.835 89.7947 620.835 90.072C620.835 90.3387 620.744 90.5627 620.563 90.744C620.392 90.9253 620.168 91.016 619.891 91.016C619.614 91.016 619.384 90.9307 619.203 90.76C619.032 90.5787 618.947 90.3493 618.947 90.072ZM624.656 96.52L627.92 92.744H630.144L626.912 96.472L630.112 101.112H628.112L625.712 97.688L624.656 98.952V101.112H622.992V89.336H624.656V96.52ZM639.435 99.656C640.267 99.656 641.003 99.4693 641.643 99.096C642.293 98.7227 642.795 98.2053 643.147 97.544C643.509 96.872 643.691 96.0987 643.691 95.224C643.691 94.3493 643.509 93.5813 643.147 92.92C642.795 92.248 642.293 91.7253 641.643 91.352C641.003 90.9787 640.267 90.792 639.435 90.792H637.259V99.656H639.435ZM635.595 89.336H639.451C640.592 89.336 641.605 89.5867 642.491 90.088C643.387 90.5893 644.08 91.288 644.571 92.184C645.072 93.0693 645.323 94.0827 645.323 95.224C645.323 96.3653 645.072 97.384 644.571 98.28C644.08 99.1653 643.387 99.8587 642.491 100.36C641.605 100.861 640.592 101.112 639.451 101.112H635.595V89.336ZM648.802 92.792V101.112H647.138V92.792H648.802ZM647.026 90.072C647.026 89.7947 647.111 89.5707 647.282 89.4C647.463 89.2187 647.693 89.128 647.97 89.128C648.247 89.128 648.471 89.2187 648.642 89.4C648.823 89.5707 648.914 89.7947 648.914 90.072C648.914 90.3387 648.823 90.5627 648.642 90.744C648.471 90.9253 648.247 91.016 647.97 91.016C647.693 91.016 647.463 90.9307 647.282 90.76C647.111 90.5787 647.026 90.3493 647.026 90.072ZM651.999 98.504C652.212 98.92 652.495 99.2453 652.847 99.48C653.209 99.7147 653.551 99.832 653.871 99.832C654.329 99.832 654.692 99.736 654.959 99.544C655.236 99.352 655.375 99.0907 655.375 98.76C655.375 98.472 655.241 98.248 654.975 98.088C654.708 97.928 654.281 97.7413 653.695 97.528C653.14 97.336 652.687 97.1493 652.335 96.968C651.983 96.7867 651.679 96.536 651.423 96.216C651.177 95.896 651.055 95.496 651.055 95.016C651.055 94.3013 651.327 93.736 651.871 93.32C652.415 92.904 653.119 92.696 653.983 92.696C654.548 92.696 655.108 92.8667 655.663 93.208C656.228 93.5387 656.617 94.024 656.831 94.664L655.439 95.176C655.3 94.7707 655.092 94.4933 654.815 94.344C654.548 94.184 654.271 94.104 653.983 94.104C653.577 94.104 653.263 94.1893 653.039 94.36C652.825 94.52 652.719 94.7387 652.719 95.016C652.719 95.2933 652.852 95.5173 653.119 95.688C653.396 95.8587 653.823 96.0453 654.399 96.248C654.953 96.4507 655.401 96.6373 655.743 96.808C656.095 96.9787 656.393 97.224 656.639 97.544C656.895 97.8533 657.023 98.248 657.023 98.728C657.023 99.4853 656.735 100.093 656.159 100.552C655.593 101 654.831 101.224 653.871 101.224C653.231 101.224 652.623 101.048 652.047 100.696C651.481 100.333 651.039 99.848 650.719 99.24L651.999 98.504ZM662.336 99.608C662.666 99.608 663.008 99.5333 663.36 99.384C663.722 99.224 664.026 99.0213 664.272 98.776L665.408 99.896C665.034 100.269 664.565 100.579 664 100.824C663.445 101.059 662.912 101.176 662.4 101.176C661.578 101.176 660.842 101 660.192 100.648C659.552 100.285 659.05 99.784 658.688 99.144C658.325 98.504 658.144 97.7733 658.144 96.952C658.144 96.1307 658.325 95.4 658.688 94.76C659.05 94.12 659.552 93.624 660.192 93.272C660.842 92.9093 661.578 92.728 662.4 92.728C662.933 92.728 663.472 92.8453 664.016 93.08C664.57 93.3147 665.034 93.624 665.408 94.008L664.272 95.128C664.026 94.8827 663.722 94.6853 663.36 94.536C663.008 94.376 662.666 94.296 662.336 94.296C661.578 94.296 660.965 94.5413 660.496 95.032C660.037 95.5227 659.808 96.1627 659.808 96.952C659.808 97.7413 660.037 98.3813 660.496 98.872C660.965 99.3627 661.578 99.608 662.336 99.608ZM670.289 99.784C671.004 99.784 671.58 99.5227 672.017 99C672.454 98.4773 672.673 97.7947 672.673 96.952C672.673 96.1093 672.454 95.4267 672.017 94.904C671.58 94.3813 671.004 94.12 670.289 94.12C669.585 94.12 669.014 94.3813 668.577 94.904C668.14 95.4267 667.921 96.1093 667.921 96.952C667.921 97.7947 668.14 98.4773 668.577 99C669.014 99.5227 669.585 99.784 670.289 99.784ZM666.257 96.952C666.257 96.1307 666.428 95.4 666.769 94.76C667.11 94.12 667.585 93.6187 668.193 93.256C668.812 92.8933 669.51 92.712 670.289 92.712C671.078 92.712 671.777 92.8933 672.385 93.256C673.004 93.6187 673.484 94.12 673.825 94.76C674.166 95.4 674.337 96.1307 674.337 96.952C674.337 97.7627 674.166 98.488 673.825 99.128C673.484 99.768 673.004 100.269 672.385 100.632C671.777 100.995 671.078 101.176 670.289 101.176C669.51 101.176 668.812 100.995 668.193 100.632C667.585 100.269 667.11 99.768 666.769 99.128C666.428 98.488 666.257 97.7627 666.257 96.952ZM677.485 94.328C677.709 93.848 678.066 93.4587 678.557 93.16C679.058 92.8507 679.592 92.696 680.157 92.696V94.216C679.656 94.216 679.202 94.3493 678.797 94.616C678.392 94.8827 678.072 95.2293 677.837 95.656C677.602 96.072 677.485 96.4987 677.485 96.936V101.112H675.821V92.744H677.485V94.328ZM684.843 101.192C684.075 101.192 683.387 101.016 682.779 100.664C682.182 100.301 681.712 99.8 681.371 99.16C681.03 98.52 680.859 97.7893 680.859 96.968C680.859 96.1467 681.024 95.416 681.355 94.776C681.696 94.1253 682.171 93.624 682.779 93.272C683.387 92.9093 684.075 92.728 684.843 92.728C685.291 92.728 685.76 92.8453 686.251 93.08C686.742 93.304 687.152 93.6773 687.483 94.2V89.336H689.147V101.128H687.483V99.736C687.142 100.237 686.726 100.605 686.235 100.84C685.744 101.075 685.28 101.192 684.843 101.192ZM682.523 96.984C682.523 97.8373 682.747 98.5307 683.195 99.064C683.654 99.5867 684.246 99.848 684.971 99.848C685.419 99.848 685.835 99.72 686.219 99.464C686.603 99.208 686.907 98.8613 687.131 98.424C687.366 97.9867 687.483 97.5067 687.483 96.984C687.483 96.472 687.366 95.9973 687.131 95.56C686.907 95.1227 686.603 94.776 686.219 94.52C685.835 94.264 685.419 94.136 684.971 94.136C684.246 94.136 683.654 94.4027 683.195 94.936C682.747 95.4587 682.523 96.1413 682.523 96.984Z" fill="#5566FB"/>
<path d="M540.16 116.104V130.248H538.704V116.104H540.16ZM529.488 117.432H536.192V118.648H530.928V125.544C532.357 125.544 533.541 125.512 534.48 125.448C535.419 125.384 536.363 125.261 537.312 125.08L537.456 126.312C536.464 126.504 535.472 126.632 534.48 126.696C533.499 126.749 532.219 126.776 530.64 126.776H529.488V117.432ZM549.52 117.032V118.104C549.52 118.861 549.755 119.592 550.224 120.296C550.704 121 551.334 121.603 552.112 122.104C552.902 122.595 553.739 122.92 554.624 123.08L553.968 124.28C552.838 124.024 551.798 123.544 550.848 122.84C549.899 122.136 549.2 121.299 548.752 120.328C548.294 121.309 547.59 122.152 546.64 122.856C545.702 123.56 544.667 124.035 543.536 124.28L542.896 123.08C543.771 122.92 544.598 122.589 545.376 122.088C546.166 121.587 546.795 120.984 547.264 120.28C547.744 119.576 547.984 118.851 547.984 118.104V117.032H549.52ZM542.416 127.144H555.2V128.344H542.416V127.144ZM567.521 117.432V118.744C567.521 119.928 567.489 121 567.425 121.96C567.361 122.92 567.195 124.045 566.929 125.336L565.489 125.176C565.723 124.067 565.883 122.989 565.969 121.944L557.553 122.424L557.361 121.16L566.049 120.84C566.07 120.328 566.081 119.629 566.081 118.744V118.616H557.745V117.432H567.521ZM556.241 127.16H561.105V123.576H562.561V127.16H568.993V128.36H556.241V127.16ZM581.265 117.368V118.568H573.105V122.808H581.409V123.992H571.665V117.368H581.265ZM570.065 127.144H582.849V128.344H570.065V127.144ZM599.065 116.12V126.504H597.609V122.84H594.137C593.806 123.235 593.39 123.544 592.889 123.768C592.388 123.992 591.849 124.104 591.273 124.104C590.59 124.104 589.966 123.955 589.401 123.656C588.846 123.357 588.409 122.941 588.089 122.408C587.78 121.864 587.625 121.251 587.625 120.568C587.625 119.885 587.78 119.272 588.089 118.728C588.409 118.184 588.846 117.763 589.401 117.464C589.966 117.155 590.59 117 591.273 117C591.849 117 592.382 117.112 592.873 117.336C593.364 117.549 593.78 117.853 594.121 118.248H597.609V116.12H599.065ZM589.001 120.568C589.001 121.24 589.214 121.789 589.641 122.216C590.078 122.632 590.622 122.84 591.273 122.84C591.924 122.84 592.462 122.632 592.889 122.216C593.316 121.789 593.529 121.24 593.529 120.568C593.529 119.896 593.316 119.352 592.889 118.936C592.462 118.509 591.924 118.296 591.273 118.296C590.622 118.296 590.078 118.509 589.641 118.936C589.214 119.352 589.001 119.896 589.001 120.568ZM589.977 125.448H591.449V128.728H599.449V129.928H589.977V125.448ZM594.777 119.448C594.884 119.843 594.937 120.216 594.937 120.568C594.937 120.963 594.884 121.32 594.777 121.64H597.609V119.448H594.777ZM606.889 123V121.496H602.857V116.76H612.425V117.928H604.297V120.312H612.521V121.496H608.345V123H614.009V124.184H601.257V123H606.889ZM602.761 127.672C602.761 126.861 603.188 126.232 604.041 125.784C604.895 125.336 606.084 125.112 607.609 125.112C609.124 125.112 610.308 125.336 611.161 125.784C612.025 126.232 612.457 126.861 612.457 127.672C612.457 128.483 612.025 129.107 611.161 129.544C610.308 129.992 609.124 130.216 607.609 130.216C606.084 130.216 604.895 129.992 604.041 129.544C603.188 129.107 602.761 128.483 602.761 127.672ZM604.233 127.672C604.233 128.131 604.527 128.483 605.113 128.728C605.7 128.973 606.532 129.096 607.609 129.096C608.676 129.096 609.503 128.973 610.089 128.728C610.676 128.483 610.969 128.131 610.969 127.672C610.969 127.213 610.676 126.861 610.089 126.616C609.503 126.371 608.676 126.248 607.609 126.248C606.543 126.248 605.711 126.371 605.113 126.616C604.527 126.861 604.233 127.213 604.233 127.672ZM626.634 116.088V130.248H625.178V116.088H626.634ZM615.546 122.12C615.546 121.128 615.7 120.259 616.01 119.512C616.319 118.765 616.746 118.189 617.29 117.784C617.834 117.379 618.458 117.176 619.162 117.176C619.855 117.176 620.474 117.379 621.018 117.784C621.572 118.189 622.004 118.765 622.314 119.512C622.623 120.259 622.778 121.128 622.778 122.12C622.778 123.112 622.623 123.987 622.314 124.744C622.004 125.491 621.572 126.067 621.018 126.472C620.474 126.877 619.855 127.08 619.162 127.08C618.458 127.08 617.834 126.877 617.29 126.472C616.746 126.067 616.319 125.491 616.01 124.744C615.7 123.987 615.546 123.112 615.546 122.12ZM616.954 122.12C616.954 122.856 617.044 123.501 617.226 124.056C617.418 124.6 617.679 125.021 618.01 125.32C618.351 125.619 618.735 125.768 619.162 125.768C619.588 125.768 619.967 125.619 620.298 125.32C620.639 125.021 620.9 124.6 621.082 124.056C621.274 123.501 621.37 122.856 621.37 122.12C621.37 121.384 621.274 120.744 621.082 120.2C620.9 119.645 620.639 119.224 620.298 118.936C619.967 118.637 619.588 118.488 619.162 118.488C618.735 118.488 618.351 118.637 618.01 118.936C617.679 119.224 617.418 119.645 617.226 120.2C617.044 120.744 616.954 121.384 616.954 122.12ZM644.05 116.12V123.4H642.562V116.12H644.05ZM632.658 121.784C633.394 121.784 633.964 121.779 634.37 121.768V118.2H633.042V117.048H640.61V118.2H639.282V121.576C639.954 121.533 640.615 121.469 641.266 121.384L641.346 122.44C639.138 122.792 636.295 122.968 632.818 122.968L632.658 121.784ZM634.754 124.072H644.05V127.56H636.226V128.92H644.53V130.088H634.786V126.488H642.594V125.208H634.754V124.072ZM635.778 121.736C636.716 121.715 637.415 121.693 637.874 121.672V118.2H635.778V121.736ZM649.314 127.24V123.512C648.727 123.192 648.269 122.787 647.938 122.296C647.618 121.795 647.458 121.235 647.458 120.616C647.458 119.891 647.677 119.251 648.114 118.696C648.562 118.141 649.175 117.715 649.954 117.416C650.733 117.107 651.618 116.952 652.61 116.952C653.613 116.952 654.503 117.107 655.282 117.416C656.071 117.715 656.685 118.141 657.122 118.696C657.559 119.251 657.778 119.891 657.778 120.616C657.778 121.235 657.618 121.789 657.298 122.28C656.989 122.76 656.546 123.165 655.97 123.496V127.24H659.026V128.44H646.242V127.24H649.314ZM648.882 120.616C648.882 121.117 649.037 121.56 649.346 121.944C649.666 122.317 650.109 122.611 650.674 122.824C651.239 123.027 651.885 123.128 652.61 123.128C653.335 123.128 653.981 123.027 654.546 122.824C655.111 122.611 655.554 122.317 655.874 121.944C656.194 121.56 656.354 121.117 656.354 120.616C656.354 120.115 656.194 119.677 655.874 119.304C655.554 118.92 655.111 118.627 654.546 118.424C653.981 118.211 653.335 118.104 652.61 118.104C651.885 118.104 651.239 118.211 650.674 118.424C650.109 118.627 649.666 118.92 649.346 119.304C649.037 119.677 648.882 120.115 648.882 120.616ZM654.498 127.24V124.056C653.943 124.195 653.314 124.264 652.61 124.264C651.927 124.264 651.309 124.195 650.754 124.056V127.24H654.498ZM662.802 118.456V116.504H664.242V118.456H666.978V119.64H660.034V118.456H662.802ZM660.482 123.752C660.482 123.133 660.61 122.579 660.866 122.088C661.133 121.597 661.496 121.213 661.954 120.936C662.413 120.659 662.936 120.52 663.522 120.52C664.098 120.52 664.616 120.659 665.074 120.936C665.544 121.213 665.906 121.597 666.162 122.088C666.429 122.579 666.562 123.133 666.562 123.752C666.562 124.392 666.429 124.957 666.162 125.448C665.906 125.939 665.549 126.323 665.09 126.6C664.632 126.877 664.109 127.016 663.522 127.016C662.936 127.016 662.413 126.877 661.954 126.6C661.496 126.323 661.133 125.939 660.866 125.448C660.61 124.957 660.482 124.392 660.482 123.752ZM661.778 123.752C661.778 124.36 661.938 124.851 662.258 125.224C662.589 125.597 663.01 125.784 663.522 125.784C664.034 125.784 664.45 125.597 664.77 125.224C665.101 124.851 665.266 124.36 665.266 123.752C665.266 123.155 665.101 122.669 664.77 122.296C664.45 121.923 664.034 121.736 663.522 121.736C663.01 121.736 662.589 121.923 662.258 122.296C661.938 122.669 661.778 123.155 661.778 123.752ZM667.634 116.424H669.01V122.008H670.642V116.104H672.034V130.216H670.642V123.208H669.01V129.544H667.634V116.424ZM676.963 127.24V123.512C676.376 123.192 675.917 122.787 675.587 122.296C675.267 121.795 675.107 121.235 675.107 120.616C675.107 119.891 675.325 119.251 675.763 118.696C676.211 118.141 676.824 117.715 677.603 117.416C678.381 117.107 679.267 116.952 680.259 116.952C681.261 116.952 682.152 117.107 682.931 117.416C683.72 117.715 684.333 118.141 684.771 118.696C685.208 119.251 685.427 119.891 685.427 120.616C685.427 121.235 685.267 121.789 684.947 122.28C684.637 122.76 684.195 123.165 683.619 123.496V127.24H686.675V128.44H673.891V127.24H676.963ZM676.531 120.616C676.531 121.117 676.685 121.56 676.995 121.944C677.315 122.317 677.757 122.611 678.323 122.824C678.888 123.027 679.533 123.128 680.259 123.128C680.984 123.128 681.629 123.027 682.195 122.824C682.76 122.611 683.203 122.317 683.523 121.944C683.843 121.56 684.003 121.117 684.003 120.616C684.003 120.115 683.843 119.677 683.523 119.304C683.203 118.92 682.76 118.627 682.195 118.424C681.629 118.211 680.984 118.104 680.259 118.104C679.533 118.104 678.888 118.211 678.323 118.424C677.757 118.627 677.315 118.92 676.995 119.304C676.685 119.677 676.531 120.115 676.531 120.616ZM682.147 127.24V124.056C681.592 124.195 680.963 124.264 680.259 124.264C679.576 124.264 678.957 124.195 678.403 124.056V127.24H682.147ZM688.947 127.512C689.214 127.512 689.427 127.592 689.587 127.752C689.747 127.912 689.827 128.125 689.827 128.392C689.827 128.659 689.747 128.872 689.587 129.032C689.427 129.203 689.214 129.288 688.947 129.288C688.68 129.288 688.462 129.203 688.291 129.032C688.131 128.872 688.051 128.659 688.051 128.392C688.051 128.125 688.131 127.912 688.291 127.752C688.462 127.592 688.68 127.512 688.947 127.512Z" fill="#6B6B6B"/>
<path d="M784 104.5L789 110.5L784 116.5" stroke="#BB362A" stroke-width="1.4" stroke-linejoin="bevel"/>
</svg>
