<svg xmlns="http://www.w3.org/2000/svg" width="908" height="189" fill="none"><path fill="#fff" d="M.5 0h907v188.8H.5z"/><mask id="a" fill="#fff"><path d="M59 76.8h790.4v32.201H59z"/></mask><path fill="#C2C2C2" d="M849.4 108.041H59v1.92h790.4z" mask="url(#a)"/><mask id="b" fill="#fff"><path d="M59 76.8h57.4v32.201H59z"/></mask><path fill="#368FF7" d="M116.4 107.401H59v3.2h57.4z" mask="url(#b)"/><path fill="#368FF7" d="M78.2 89.221h-2.804v8.269h-1.33v-8.269h-2.817V88.07h6.95zm7.99 0h-5.26v2.842h4.608v1.152H80.93v3.123h5.26v1.152H79.6v-9.42h6.592zm6.615 3.546 3.61 4.723h-1.677l-2.752-3.635-2.752 3.635h-1.69l3.623-4.723-3.623-4.698h1.69l2.752 3.61 2.752-3.61h1.677zm11.473-3.546h-2.803v8.269h-1.331v-8.269h-2.816V88.07h6.95z"/><path fill="#6B6B6B" d="M135.6 89.221h-2.803v8.269h-1.331v-8.269h-2.816V88.07h6.95zm7.991 0h-5.261v2.842h4.608v1.152h-4.608v3.123h5.261v1.152h-6.592v-9.42h6.592zm6.614 3.546 3.61 4.723h-1.677l-2.752-3.635-2.752 3.635h-1.69l3.623-4.723-3.623-4.698h1.69l2.752 3.61 2.752-3.61h1.677zm11.473-3.546h-2.803v8.269h-1.331v-8.269h-2.816V88.07h6.95zm31.321 0h-2.803v8.269h-1.331v-8.269h-2.816V88.07h6.95zm7.992 0h-5.261v2.842h4.608v1.152h-4.608v3.123h5.261v1.152h-6.592v-9.42h6.592zm6.614 3.546 3.609 4.723h-1.676l-2.752-3.635-2.752 3.635h-1.69l3.622-4.723-3.622-4.698h1.69l2.752 3.61 2.752-3.61h1.676zm11.473-3.546h-2.803v8.269h-1.331v-8.269h-2.816V88.07h6.95zm31.322 0h-2.803v8.269h-1.332v-8.269h-2.816V88.07h6.951zm7.991 0h-5.261v2.842h4.608v1.152h-4.608v3.123h5.261v1.152h-6.592v-9.42h6.592zm6.614 3.546 3.61 4.723h-1.677l-2.752-3.635-2.752 3.635h-1.69l3.623-4.723-3.623-4.698h1.69l2.752 3.61 2.752-3.61h1.677zm11.473-3.546h-2.803v8.269h-1.331v-8.269h-2.816V88.07h6.95zm31.321 0h-2.803v8.269h-1.331v-8.269h-2.816V88.07h6.95zm7.992 0h-5.261v2.842h4.608v1.152h-4.608v3.123h5.261v1.152h-6.592v-9.42h6.592zm6.614 3.546 3.609 4.723h-1.677l-2.752-3.635-2.752 3.635h-1.689l3.622-4.723-3.622-4.698h1.689l2.752 3.61 2.752-3.61h1.677zm11.473-3.546h-2.803v8.269h-1.332v-8.269h-2.816V88.07h6.951zM58.646 61.246a.5.5 0 0 0 0 .707l3.182 3.182a.5.5 0 1 0 .707-.707L59.707 61.6l2.828-2.829a.5.5 0 1 0-.707-.707zm791.108.707a.5.5 0 0 0 0-.707l-3.182-3.182a.5.5 0 1 0-.707.707l2.828 2.828-2.828 2.829a.5.5 0 0 0 .707.707zM59 62.1h790.4v-1H59zm57.244 63.146a.5.5 0 0 0 0 .707l3.182 3.182a.5.5 0 0 0 .707-.707l-2.828-2.828 2.828-2.829a.5.5 0 0 0-.707-.707zm58.307.707a.5.5 0 0 0 0-.707l-3.182-3.182a.5.5 0 0 0-.707.707l2.829 2.829-2.829 2.828a.5.5 0 0 0 .707.707zm-57.953.147h57.6v-1h-57.6zm114.845-.854a.5.5 0 0 0 0 .707l3.182 3.182a.5.5 0 0 0 .707-.707l-2.828-2.828 2.828-2.829a.5.5 0 0 0-.707-.707zm58.307.707a.5.5 0 0 0 0-.707l-3.182-3.182a.5.5 0 0 0-.707.707l2.829 2.829-2.829 2.828a.5.5 0 0 0 .707.707zm-57.953.147h57.6v-1h-57.6z"/><path fill="#6B6B6B" d="M289.045 125.246a.5.5 0 0 0 0 .707l3.182 3.182a.5.5 0 0 0 .707-.707l-2.828-2.828 2.828-2.829a.5.5 0 0 0-.707-.707zm58.307.707a.5.5 0 0 0 0-.707l-3.182-3.182a.5.5 0 0 0-.707.707l2.828 2.829-2.828 2.828a.5.5 0 0 0 .707.707zm-57.954.147h57.6v-1h-57.6zm-230.752-.854a.5.5 0 0 0 0 .707l3.182 3.182a.5.5 0 0 0 .707-.707l-2.828-2.828 2.828-2.829a.5.5 0 1 0-.707-.707zm58.308.707a.5.5 0 0 0 0-.707l-3.182-3.182a.5.5 0 0 0-.708.707l2.829 2.829-2.829 2.828a.5.5 0 0 0 .708.707zM59 126.1h57.6v-1H59zm114.846-.854a.5.5 0 0 0 0 .707l3.182 3.182a.5.5 0 0 0 .707-.707l-2.829-2.828 2.829-2.829a.5.5 0 0 0-.707-.707zm58.307.707a.5.5 0 0 0 0-.707l-3.182-3.182a.5.5 0 0 0-.707.707l2.828 2.829-2.828 2.828a.5.5 0 0 0 .707.707zm-57.954.147h57.6v-1h-57.6zm-90.082 19.984H82.87v-3.996h-4.5v3.996h-1.248v-8.832h1.248v3.756h4.5v-3.756h1.248zm2.99-2.688q0 .756.42 1.236.42.468 1.092.468.732-.012 1.188-.468t.444-1.2v-3.624h1.248v6.276H90.25v-.912a1.97 1.97 0 0 1-.78.708 2.1 2.1 0 0 1-1.02.264q-.744 0-1.332-.336a2.5 2.5 0 0 1-.924-.96 2.84 2.84 0 0 1-.336-1.392v-3.648h1.248zm8.74 1.704q.53 0 .949-.288.432-.288.672-.78t.24-1.056-.252-1.044a1.96 1.96 0 0 0-.672-.768 1.6 1.6 0 0 0-.936-.288q-.816 0-1.32.576-.492.576-.492 1.524t.504 1.536 1.308.588m-3.06-2.124q0-.912.373-1.62.384-.72 1.056-1.116a2.96 2.96 0 0 1 1.548-.408q.576 0 1.104.276t.84.804v-1.104h1.248v5.904q-.012.9-.396 1.596a2.66 2.66 0 0 1-1.08 1.104q-.708.408-1.656.408a3.3 3.3 0 0 1-1.5-.348 2.9 2.9 0 0 1-1.128-1.044l.972-.672q.36.504.744.732.396.24.912.24.876 0 1.38-.54.504-.528.504-1.368v-.792q-.36.528-.9.816-.528.288-1.044.288a3.03 3.03 0 0 1-1.548-.396 2.87 2.87 0 0 1-1.056-1.128q-.372-.72-.372-1.632m106.328 3.108h-1.248v-3.996h-4.5v3.996h-1.248v-8.832h1.248v3.756h4.5v-3.756h1.248zm2.99-2.688q0 .756.42 1.236.42.468 1.092.468.732-.012 1.188-.468t.444-1.2v-3.624h1.248v6.276h-1.248v-.912a1.97 1.97 0 0 1-.78.708 2.1 2.1 0 0 1-1.02.264q-.744 0-1.332-.336a2.5 2.5 0 0 1-.924-.96 2.84 2.84 0 0 1-.336-1.392v-3.648h1.248zm8.741 1.704q.528 0 .948-.288.432-.288.672-.78t.24-1.056-.252-1.044a1.96 1.96 0 0 0-.672-.768 1.6 1.6 0 0 0-.936-.288q-.816 0-1.32.576-.492.576-.492 1.524t.504 1.536 1.308.588m-3.06-2.124q0-.912.372-1.62.384-.72 1.056-1.116a2.96 2.96 0 0 1 1.548-.408q.576 0 1.104.276t.84.804v-1.104h1.248v5.904q-.012.9-.396 1.596a2.66 2.66 0 0 1-1.08 1.104q-.708.408-1.656.408a3.3 3.3 0 0 1-1.5-.348 2.9 2.9 0 0 1-1.128-1.044l.972-.672q.36.504.744.732.396.24.912.24.876 0 1.38-.54.504-.528.504-1.368v-.792q-.36.528-.9.816-.528.288-1.044.288a3.03 3.03 0 0 1-1.548-.396 2.87 2.87 0 0 1-1.056-1.128q-.372-.72-.372-1.632m-66.671 3.108h-1.248v-3.996h-4.5v3.996h-1.248v-8.832h1.248v3.756h4.5v-3.756h1.248zm2.99-2.688q0 .756.42 1.236.42.468 1.092.468.732-.012 1.188-.468t.444-1.2v-3.624h1.248v6.276h-1.248v-.912a1.97 1.97 0 0 1-.78.708 2.1 2.1 0 0 1-1.02.264q-.744 0-1.332-.336a2.5 2.5 0 0 1-.924-.96 2.84 2.84 0 0 1-.336-1.392v-3.648h1.248zm8.741 1.704q.528 0 .948-.288.432-.288.672-.78t.24-1.056-.252-1.044a1.96 1.96 0 0 0-.672-.768 1.6 1.6 0 0 0-.936-.288q-.816 0-1.32.576-.492.576-.492 1.524t.504 1.536 1.308.588m-3.06-2.124q0-.912.372-1.62.384-.72 1.056-1.116a2.96 2.96 0 0 1 1.548-.408q.576 0 1.104.276t.84.804v-1.104h1.248v5.904q-.012.9-.396 1.596a2.66 2.66 0 0 1-1.08 1.104q-.708.408-1.656.408a3.3 3.3 0 0 1-1.5-.348 2.9 2.9 0 0 1-1.128-1.044l.972-.672q.36.504.744.732.396.24.912.24.876 0 1.38-.54.504-.528.504-1.368v-.792q-.36.528-.9.816-.528.288-1.044.288a3.03 3.03 0 0 1-1.548-.396 2.87 2.87 0 0 1-1.056-1.128q-.372-.72-.372-1.632m107.329 3.108h-1.248v-3.996h-4.5v3.996h-1.248v-8.832h1.248v3.756h4.5v-3.756h1.248zm2.99-2.688q0 .756.42 1.236.42.468 1.092.468.732-.012 1.188-.468t.444-1.2v-3.624h1.248v6.276h-1.248v-.912a1.97 1.97 0 0 1-.78.708 2.1 2.1 0 0 1-1.02.264q-.744 0-1.332-.336a2.5 2.5 0 0 1-.924-.96 2.84 2.84 0 0 1-.336-1.392v-3.648h1.248zm8.741 1.704q.528 0 .948-.288.432-.288.672-.78t.24-1.056-.252-1.044a1.96 1.96 0 0 0-.672-.768 1.6 1.6 0 0 0-.936-.288q-.816 0-1.32.576-.492.576-.492 1.524t.504 1.536 1.308.588m-3.06-2.124q0-.912.372-1.62.384-.72 1.056-1.116a2.96 2.96 0 0 1 1.548-.408q.576 0 1.104.276t.84.804v-1.104h1.248v5.904q-.012.9-.396 1.596a2.66 2.66 0 0 1-1.08 1.104q-.708.408-1.656.408a3.3 3.3 0 0 1-1.5-.348 2.9 2.9 0 0 1-1.128-1.044l.972-.672q.36.504.744.732.396.24.912.24.876 0 1.38-.54.504-.528.504-1.368v-.792q-.36.528-.9.816-.528.288-1.044.288a3.03 3.03 0 0 1-1.548-.396 2.87 2.87 0 0 1-1.056-1.128q-.372-.72-.372-1.632m47.329 3.108h-1.248v-3.996h-4.5v3.996h-1.248v-8.832h1.248v3.756h4.5v-3.756h1.248zm2.99-2.688q0 .756.42 1.236.42.468 1.092.468.732-.012 1.188-.468t.444-1.2v-3.624h1.248v6.276h-1.248v-.912a1.97 1.97 0 0 1-.78.708 2.1 2.1 0 0 1-1.02.264q-.744 0-1.332-.336a2.5 2.5 0 0 1-.924-.96 2.84 2.84 0 0 1-.336-1.392v-3.648h1.248zm8.741 1.704q.528 0 .948-.288.432-.288.672-.78t.24-1.056-.252-1.044a1.96 1.96 0 0 0-.672-.768 1.6 1.6 0 0 0-.936-.288q-.816 0-1.32.576-.492.576-.492 1.524t.504 1.536 1.308.588m-3.06-2.124q0-.912.372-1.62.384-.72 1.056-1.116a2.96 2.96 0 0 1 1.548-.408q.576 0 1.104.276t.84.804v-1.104h1.248v5.904q-.012.9-.396 1.596a2.66 2.66 0 0 1-1.08 1.104q-.708.408-1.656.408a3.3 3.3 0 0 1-1.5-.348 2.9 2.9 0 0 1-1.128-1.044l.972-.672q.36.504.744.732.396.24.912.24.876 0 1.38-.54.504-.528.504-1.368v-.792q-.36.528-.9.816-.528.288-1.044.288a3.03 3.03 0 0 1-1.548-.396 2.87 2.87 0 0 1-1.056-1.128q-.372-.72-.372-1.632M423.514 42.332h-4.812v2.784h4.044v1.08h-4.044v3.888h-1.248v-8.832h6.06zm2.592 1.512v6.24h-1.248v-6.24zm-1.332-2.04q0-.312.192-.504a.7.7 0 0 1 .516-.204.66.66 0 0 1 .504.204.66.66 0 0 1 .204.504q0 .3-.204.504a.66.66 0 0 1-.504.204.72.72 0 0 1-.516-.192.72.72 0 0 1-.192-.516m6.207 5.148 2.316 3.132h-1.548l-1.5-2.124-1.488 2.124h-1.548l2.28-3.132-2.328-3.144h1.56l1.524 2.184 1.512-2.184h1.56zm7.485-.468q-.084-.696-.492-1.164-.408-.48-1.176-.48-.696 0-1.212.48a1.96 1.96 0 0 0-.612 1.176zm-4.692.48q0-.924.384-1.644t1.056-1.116a3 3 0 0 1 1.56-.408q1.236 0 1.812.6.588.6.792 1.104.276.672.276 1.488 0 .168-.012.3-.012.12-.012.156h-4.656q.108.72.624 1.176t1.188.456q.54 0 .888-.168.36-.168.492-.312a3 3 0 0 0 .252-.324l1.008.456q-.288.588-.96.996-.672.396-1.692.396-.876 0-1.56-.396a2.87 2.87 0 0 1-1.056-1.128q-.384-.72-.384-1.632m9.9 3.18a3.03 3.03 0 0 1-1.548-.396 2.87 2.87 0 0 1-1.056-1.128q-.384-.72-.384-1.644t.372-1.644a2.74 2.74 0 0 1 1.068-1.128 2.96 2.96 0 0 1 1.548-.408q.504 0 1.056.264.552.252.924.84v-3.648h1.248v8.844h-1.248v-1.044a2.36 2.36 0 0 1-.936.828q-.552.264-1.044.264m-1.74-3.156q0 .96.504 1.56.516.588 1.332.588.504 0 .936-.288t.684-.78q.264-.492.264-1.08 0-.576-.264-1.068a2 2 0 0 0-.684-.78 1.66 1.66 0 0 0-.936-.288q-.816 0-1.332.6-.504.588-.504 1.536m10.175-4.056q.312 0 .504.192a.68.68 0 0 1 .192.504.7.7 0 0 1-.204.516.67.67 0 0 1-.492.192.7.7 0 0 1-.504-.204.7.7 0 0 1-.204-.504q0-.3.192-.492a.7.7 0 0 1 .516-.204m-.708 4.728q0-.3.192-.492a.7.7 0 0 1 .516-.204q.312 0 .504.192a.68.68 0 0 1 .192.504.7.7 0 0 1-.204.516.67.67 0 0 1-.492.192.7.7 0 0 1-.504-.204.7.7 0 0 1-.204-.504m8.632-5.364q-.792 0-1.296.516-.492.504-.492 1.296 0 .804.492 1.32.504.504 1.296.504.768 0 1.248-.504.492-.516.492-1.32 0-.792-.492-1.296-.48-.516-1.248-.516m-3.036 1.812q0-.84.384-1.5t1.068-1.032a3.3 3.3 0 0 1 1.572-.372q.876 0 1.548.372.684.372 1.068 1.032t.384 1.5q0 .804-.468 1.656l-2.412 4.284h-1.428l1.74-3.072q-.24.06-.468.06a3.3 3.3 0 0 1-1.548-.384 2.8 2.8 0 0 1-1.068-1.044 3 3 0 0 1-.372-1.5m10.063 5.004q.756 0 1.224-.432.48-.444.48-1.14t-.48-1.128q-.468-.444-1.224-.444-.768 0-1.248.444-.48.432-.48 1.128t.48 1.14q.48.432 1.248.432m-2.976-1.548q0-.588.408-1.176.408-.6 1.044-.948a3 3 0 0 1-.864-.888q-.336-.528-.336-.996 0-.696.348-1.236a2.3 2.3 0 0 1 .96-.852 3.1 3.1 0 0 1 1.416-.312q.792 0 1.404.312.624.3.972.852.348.54.348 1.236 0 .48-.336 1.008a2.9 2.9 0 0 1-.864.876q.636.36 1.032.948t.396 1.176q0 .756-.372 1.356-.372.588-1.044.924-.672.324-1.536.324t-1.548-.324a2.64 2.64 0 0 1-1.056-.924 2.5 2.5 0 0 1-.372-1.356m1.5-4.008q0 .6.408.972t1.068.372q.648 0 1.056-.372.42-.384.42-.972t-.42-.96q-.408-.384-1.056-.384-.66 0-1.068.372t-.408.972m8.47 5.556q.756 0 1.224-.432.48-.444.48-1.14t-.48-1.128q-.468-.444-1.224-.444-.768 0-1.248.444-.48.432-.48 1.128t.48 1.14q.48.432 1.248.432m-2.976-1.548q0-.588.408-1.176.408-.6 1.044-.948a3 3 0 0 1-.864-.888q-.336-.528-.336-.996 0-.696.348-1.236a2.3 2.3 0 0 1 .96-.852 3.1 3.1 0 0 1 1.416-.312q.792 0 1.404.312.624.3.972.852.348.54.348 1.236 0 .48-.336 1.008a2.9 2.9 0 0 1-.864.876q.636.36 1.032.948t.396 1.176q0 .756-.372 1.356-.372.588-1.044.924-.672.324-1.536.324t-1.548-.324a2.64 2.64 0 0 1-1.056-.924 2.5 2.5 0 0 1-.372-1.356m1.5-4.008q0 .6.408.972t1.068.372q.648 0 1.056-.372.42-.384.42-.972t-.42-.96q-.408-.384-1.056-.384-.66 0-1.068.372t-.408.972m8.985 5.556q.804 0 1.308-.588.504-.6.504-1.56 0-.948-.504-1.536t-1.308-.588q-.504 0-.936.288a2 2 0 0 0-.684.78q-.252.48-.252 1.056 0 .588.252 1.08t.684.78.936.288m-3.132-5.304h1.248v1.08q.324-.54.9-.804.576-.276 1.056-.276.876 0 1.548.408.684.396 1.056 1.116.384.708.384 1.632t-.384 1.656q-.372.72-1.056 1.128-.672.396-1.548.396-.48 0-1.056-.276a2.15 2.15 0 0 1-.9-.828v3.732h-1.248zm10.6 3.144 2.316 3.132h-1.548l-1.5-2.124-1.488 2.124h-1.548l2.28-3.132-2.328-3.144h1.56l1.524 2.184 1.512-2.184h1.56z"/></svg>