<svg xmlns="http://www.w3.org/2000/svg" width="568" height="113" fill="none" viewBox="0 0 568 113"><path fill="#C2C2C2" d="M567.105 70.43q0 11.437-8.394 18.37-8.516 6.814-20.681 6.814-10.828 0-19.1-6.327-8.273-6.325-11.436-17.275l10.706-4.38q1.095 3.894 3.041 7.057 1.947 3.163 4.501 5.474a23.9 23.9 0 0 0 5.84 3.528q3.163 1.217 6.691 1.217 7.664 0 12.53-3.893 4.867-4.016 4.867-10.584 0-5.475-4.015-9.368-3.771-3.771-14.112-7.299-10.462-3.77-13.017-5.11-13.869-7.056-13.869-20.803 0-9.61 7.664-16.423 7.787-6.813 19.1-6.813 9.976 0 17.275 5.11 7.3 4.988 9.733 12.53l-10.463 4.38q-1.46-4.866-5.839-8.03-4.258-3.285-10.462-3.284-6.57 0-11.071 3.65-4.501 3.405-4.501 8.88 0 4.502 3.528 7.786 3.893 3.285 16.91 7.786 13.26 4.501 18.856 11.071 5.718 6.447 5.718 15.937M499.653 93.667h-59.854V81.988l46.351-64.72h-44.405V6.562h57.422v11.679l-46.351 64.72h46.837zM431.456 50.114q0 19.344-12.895 32.36-13.017 13.14-31.874 13.14-18.978 0-31.874-13.14-12.895-13.016-12.895-32.36 0-19.343 12.895-32.36 12.896-13.14 31.874-13.139 18.978 0 31.874 13.26 12.895 13.018 12.895 32.24m-78.102 0q0 15.085 9.489 24.94 9.61 9.855 23.844 9.854 14.234 0 23.723-9.854 9.61-9.733 9.611-24.94 0-15.206-9.611-24.939-9.49-9.854-23.723-9.854-14.234 0-23.844 9.854-9.489 9.854-9.489 24.94M287.036 17.268v30.657h18.005q6.813 0 11.557-4.38 4.745-4.5 4.745-11.07 0-6.084-4.501-10.584-4.38-4.623-11.071-4.623zm0 76.4h-11.192V6.561h29.684q11.313 0 19.221 7.543 8.03 7.42 8.029 18.37 0 9.002-5.961 16.058-5.84 6.934-14.842 8.881l-.243.365 24.453 35.402v.486h-13.261l-23.479-35.28h-12.409zM250.166 6.562h14.477v.487l-32.36 37.348 34.55 48.784v.486h-13.747L224.74 53.034l-13.382 15.45v25.183h-11.192V6.562h11.192v44.89h.487zM177.834 93.789l-8.759 5.718-5.961-8.881q-10.22 4.987-20.925 4.987-18.978 0-31.874-13.138Q97.42 69.458 97.42 50.115q0-19.344 12.895-32.361 12.896-13.14 31.874-13.139 18.978 0 31.874 13.26 12.895 13.018 12.895 32.24 0 10.218-4.014 19.1-3.893 8.88-11.193 15.45zm-35.645-8.881q7.787 0 14.72-3.407L146.69 66.173l8.76-5.961 10.097 15.207q9.975-9.61 9.976-25.305 0-15.206-9.611-24.939-9.49-9.854-23.723-9.854-14.234 0-23.844 9.854-9.489 9.854-9.489 24.94 0 15.085 9.489 24.939 9.61 9.855 23.844 9.854M88.079 53.642q0 18.249-10.828 29.076-12.165 12.895-31.995 12.895-18.978 0-32.117-13.138Q-.001 69.335 0 50.115q0-19.222 13.139-32.361Q26.278 4.614 45.256 4.615q9.611 0 18.127 3.407t13.99 9.61l-8.03 8.03q-4.014-4.866-10.462-7.543-6.326-2.798-13.625-2.798-14.235 0-24.088 9.854-9.732 9.976-9.732 24.94 0 14.962 9.732 24.939 9.855 9.855 24.088 9.854 13.017 0 21.655-7.3 8.637-7.299 9.975-20.073h-31.63V47.073H87.47q.609 3.405.609 6.57"/><path stroke="#368FF7" d="m223.105 32.338 50 70M282.105 32.338l47 71M131.105 41.338l47 71M269.936 1l-59.403 68.906"/><circle cx="171.105" cy="93.338" r="12" stroke="#368FF7"/><ellipse cx="71.606" cy="20.338" stroke="#368FF7" rx="11.5" ry="12"/><ellipse cx="440.105" cy="88.838" stroke="#368FF7" rx="12" ry="11.5"/><ellipse cx="513.105" cy="69.838" stroke="#368FF7" rx="12" ry="11.5"/></svg>