<svg width="909" height="322" viewBox="0 0 909 322" fill="none" xmlns="http://www.w3.org/2000/svg">
<rect width="909" height="321" transform="translate(0 0.337891)" fill="white"/>
<path d="M149.5 64.8379L143.5 57.3379L149.5 49.8379" stroke="#6B6B6B" stroke-width="1.8" stroke-linejoin="bevel"/>
<path d="M137.5 64.8379L143.5 57.3379L137.5 49.8379" stroke="#6B6B6B" stroke-width="1.8" stroke-linejoin="bevel"/>
<path d="M190.5 56.338L183 62.338L175.5 56.338" stroke="#6B6B6B" stroke-width="1.8" stroke-linejoin="bevel"/>
<path d="M235 55.8379L226 63.3379L217 55.8379" stroke="#121212" stroke-width="2.1" stroke-linejoin="bevel"/>
<path d="M265 61.8379L274 54.3379L283 61.8379" stroke="#121212" stroke-width="2.1" stroke-linejoin="bevel"/>
<path d="M325.75 66.3379L318.25 57.3379L325.75 48.3379" stroke="#121212" stroke-width="2.1" stroke-linejoin="bevel"/>
<path d="M366.25 66.3379L373.75 57.3379L366.25 48.3379" stroke="#121212" stroke-width="2.1" stroke-linejoin="bevel"/>
<path d="M427 55.8379L418 48.3379L409 55.8379" stroke="#121212" stroke-width="2.1" stroke-linejoin="bevel"/>
<path d="M427 63.3379L418 55.8379L409 63.3379" stroke="#121212" stroke-width="2.1" stroke-linejoin="bevel"/>
<path d="M475 58.8379L466 66.3379L457 58.8379" stroke="#121212" stroke-width="2.1" stroke-linejoin="bevel"/>
<path d="M475 51.3379L466 58.8379L457 51.3379" stroke="#121212" stroke-width="2.1" stroke-linejoin="bevel"/>
<path d="M512.5 66.3379L505 57.3379L512.5 48.3379" stroke="#121212" stroke-width="2.1" stroke-linejoin="bevel"/>
<path d="M520 66.3379L512.5 57.3379L520 48.3379" stroke="#121212" stroke-width="2.1" stroke-linejoin="bevel"/>
<path d="M563.5 66.3379L571 57.3379L563.5 48.3379" stroke="#121212" stroke-width="2.1" stroke-linejoin="bevel"/>
<path d="M556 66.3379L563.5 57.3379L556 48.3379" stroke="#121212" stroke-width="2.1" stroke-linejoin="bevel"/>
<path d="M619 51.3379L607 61.8379L601 56.5879" stroke="#121212" stroke-width="2.1" stroke-linejoin="bevel"/>
<path d="M667 57.3379H649" stroke="#121212" stroke-width="2.1" stroke-linejoin="bevel"/>
<path d="M658 66.3379L658 48.3379" stroke="#121212" stroke-width="2.1" stroke-linejoin="bevel"/>
<path d="M715 57.3379H697" stroke="#121212" stroke-width="2.1" stroke-linejoin="bevel"/>
<path d="M769 58.8379L757 67.8379L745 58.8379" stroke="#121212" stroke-width="2.1" stroke-linejoin="bevel"/>
<path d="M769 49.8379L757 58.8379L745 49.8379" stroke="#121212" stroke-width="2.1" stroke-linejoin="bevel"/>
<path d="M164.95 123.338C164.95 131.042 158.704 137.288 151 137.288C143.296 137.288 137.05 131.042 137.05 123.338C137.05 115.634 143.296 109.388 151 109.388C158.704 109.388 164.95 115.634 164.95 123.338Z" stroke="#121212" stroke-width="2.1"/>
<path d="M149.662 126.887C149.686 123.747 150.646 122.786 152.264 121.801C153.225 121.215 153.975 120.278 153.975 118.965C153.975 117.372 152.732 116.364 151.186 116.364C149.85 116.364 148.514 117.161 148.373 119.082H146.24C146.357 116.247 148.514 114.582 151.186 114.582C154.115 114.582 156.037 116.481 156.037 119.059C156.037 120.887 155.17 122.176 153.717 123.067C152.264 123.957 151.725 124.848 151.678 126.887V127.004H149.662V126.887ZM150.74 131.926C149.92 131.926 149.217 131.247 149.24 130.403C149.217 129.582 149.92 128.903 150.74 128.903C151.561 128.903 152.24 129.582 152.24 130.403C152.24 131.247 151.561 131.926 150.74 131.926Z" fill="#121212"/>
<path d="M218.95 123.338C218.95 131.042 212.704 137.288 205 137.288C197.296 137.288 191.05 131.042 191.05 123.338C191.05 115.634 197.296 109.388 205 109.388C212.704 109.388 218.95 115.634 218.95 123.338Z" stroke="#121212" stroke-width="2.1"/>
<path d="M206.149 114.812L205.985 127H204.016L203.852 114.812H206.149ZM205.001 131.921C204.18 131.921 203.477 131.242 203.501 130.398C203.477 129.578 204.18 128.898 205.001 128.898C205.821 128.898 206.501 129.578 206.501 130.398C206.501 131.242 205.821 131.921 205.001 131.921Z" fill="#121212"/>
<path d="M273.08 123.863L273.08 122.813L266.494 111.406L265.585 110.881L252.413 110.881L251.504 111.406L244.918 122.813L244.918 123.863L251.504 135.271L252.413 135.796L265.585 135.796L266.494 135.271L273.08 123.863Z" stroke="#121212" stroke-width="2.1" stroke-linejoin="bevel"/>
<path d="M263.5 123.338C263.5 125.823 261.485 127.838 259 127.838C256.515 127.838 254.5 125.823 254.5 123.338C254.5 120.853 256.515 118.838 259 118.838C261.485 118.838 263.5 120.853 263.5 123.338Z" stroke="#121212" stroke-width="2.1"/>
<path d="M301 123.338C301 129.965 306.373 135.338 313 135.338C319.627 135.338 325 129.965 325 123.338C325 116.71 319.627 111.338 313 111.338C308.417 111.338 304.434 113.907 302.413 117.683" stroke="#121212" stroke-width="2.1"/>
<path d="M308.442 117.78L301.873 118.916L299.571 112.659" stroke="#121212" stroke-width="2.1" stroke-linejoin="bevel"/>
<path d="M376 120.338C376 126.137 371.299 130.838 365.5 130.838C359.701 130.838 355 126.137 355 120.338C355 114.539 359.701 109.838 365.5 109.838C371.299 109.838 376 114.539 376 120.338Z" stroke="#121212" stroke-width="2.1"/>
<path d="M371.5 129.338L377.5 137.588" stroke="#121212" stroke-width="2.1" stroke-linejoin="bevel"/>
<path d="M431.945 114.338V138.338H410.066V114.338" stroke="#121212" stroke-width="2.1"/>
<path d="M428.5 109.838L413.5 109.838" stroke="#121212" stroke-width="2.1"/>
<path d="M421 132.338L421 120.338" stroke="#121212" stroke-width="2.1"/>
<path d="M426.25 132.338L426.25 120.338" stroke="#121212" stroke-width="2.1"/>
<path d="M415.75 132.338L415.75 120.338" stroke="#121212" stroke-width="2.1"/>
<path d="M436 114.338L406 114.338" stroke="#121212" stroke-width="2.1"/>
<path d="M484.01 118.418L485.06 118.419V118.418H484.01ZM466.01 118.418L467.06 118.419V118.418H466.01ZM466 126.338L466.939 126.807L467.05 126.586L467.05 126.339L466 126.338ZM463 132.338L462.061 131.868L463 133.388V132.338ZM487 132.338V133.388L487.939 131.868L487 132.338ZM484 126.338L482.95 126.337L482.95 126.585L483.061 126.807L484 126.338ZM467.06 118.418C467.06 114.091 470.544 110.888 475 110.888V108.788C469.515 108.788 464.96 112.804 464.96 118.418H467.06ZM463.939 132.807L466.939 126.807L465.061 125.868L462.061 131.868L463.939 132.807ZM487 131.288H463V133.388H487V131.288ZM483.061 126.807L486.061 132.807L487.939 131.868L484.939 125.868L483.061 126.807ZM467.05 126.339L467.06 118.419L464.96 118.417L464.95 126.337L467.05 126.339ZM482.96 118.417L482.95 126.337L485.05 126.339L485.06 118.419L482.96 118.417ZM482.553 115.946C482.815 116.706 482.96 117.534 482.96 118.418H485.06C485.06 117.303 484.877 116.243 484.537 115.26L482.553 115.946ZM475 110.888C476.585 110.888 478.051 111.297 479.278 112.012L480.335 110.197C478.779 109.291 476.948 108.788 475 108.788V110.888Z" fill="#121212"/>
<path d="M479.5 132.338C479.5 134.823 477.485 136.838 475 136.838C472.515 136.838 470.5 134.823 470.5 132.338" stroke="#121212" stroke-width="2.1"/>
<path fill-rule="evenodd" clip-rule="evenodd" d="M482.05 111.188C480.973 111.188 480.1 112.061 480.1 113.138C480.1 114.215 480.973 115.088 482.05 115.088C483.127 115.088 484 114.215 484 113.138C484 112.061 483.127 111.188 482.05 111.188ZM478 113.138C478 110.901 479.813 109.088 482.05 109.088C484.287 109.088 486.1 110.901 486.1 113.138C486.1 115.375 484.287 117.188 482.05 117.188C479.813 117.188 478 115.375 478 113.138Z" fill="#121212"/>
<path d="M526 109.38H542.944V137.288H526" stroke="#121212" stroke-width="2.1"/>
<path d="M538 123.338L515.5 123.338" stroke="#121212" stroke-width="2.1" stroke-linejoin="bevel"/>
<path d="M522.25 132.338L514.75 123.338L522.25 114.338" stroke="#121212" stroke-width="2.1" stroke-linejoin="bevel"/>
<path d="M596.941 129.338V137.282H569.055V129.338" stroke="#121212" stroke-width="2.1"/>
<path d="M583 132.338L583 109.838" stroke="#121212" stroke-width="2.1" stroke-linejoin="bevel"/>
<path d="M572.5 118.838L583 109.838L593.5 118.838" stroke="#121212" stroke-width="2.1" stroke-linejoin="bevel"/>
<path d="M644.801 118.838H650.938L650.937 137.279H632.501V131.138" stroke="#121212" stroke-width="2.1"/>
<path d="M641.95 109.388V128.288H623.05V109.388H641.95Z" stroke="#121212" stroke-width="2.1"/>
<path d="M687.1 129.338H677.128V117.338H687.1M694.9 129.338H704.875V117.338H694.9" stroke="#121212" stroke-width="2.1"/>
<path d="M698.5 123.338L683.5 123.338" stroke="#121212" stroke-width="2.1"/>
<path d="M738.25 132.338L730.75 123.338L738.25 114.338" stroke="#121212" stroke-width="2.1" stroke-linejoin="bevel"/>
<path d="M751.75 114.338L759.25 123.338L751.75 132.338" stroke="#121212" stroke-width="2.1" stroke-linejoin="bevel"/>
<path d="M152.443 184.01L152.758 184.388H153.25H164.95V204.788H137.05V179.888H149.008L152.443 184.01Z" stroke="#121212" stroke-width="2.1"/>
<path d="M148 196.838C148 198.495 146.657 199.838 145 199.838C143.343 199.838 142 198.495 142 196.838C142 195.181 143.343 193.838 145 193.838C146.657 193.838 148 195.181 148 196.838Z" stroke="#121212" stroke-width="2.1"/>
<path d="M218.5 192.338H191.5" stroke="#121212" stroke-width="2.1" stroke-linejoin="bevel"/>
<path d="M218.5 181.838H191.5" stroke="#121212" stroke-width="2.1" stroke-linejoin="bevel"/>
<path d="M218.5 202.838H191.5" stroke="#121212" stroke-width="2.1" stroke-linejoin="bevel"/>
<path d="M269.5 204.338L259 192.338L269.5 180.338" stroke="#121212" stroke-width="2.1" stroke-linejoin="bevel"/>
<path d="M248.5 180.338L259 192.338L248.5 204.338" stroke="#121212" stroke-width="2.1" stroke-linejoin="bevel"/>
<path d="M325 192.338H301" stroke="#121212" stroke-width="2.1" stroke-linejoin="bevel"/>
<path d="M311.5 204.338L301 192.338L311.5 180.338" stroke="#121212" stroke-width="2.1" stroke-linejoin="bevel"/>
<path d="M379 192.338H355" stroke="#121212" stroke-width="2.1" stroke-linejoin="bevel"/>
<path d="M368.5 204.338L379 192.338L368.5 180.338" stroke="#121212" stroke-width="2.1" stroke-linejoin="bevel"/>
<g clip-path="url(#clip0_2245_1342)">
<path d="M425.5 184.838C425.5 187.323 423.485 189.338 421 189.338C418.515 189.338 416.5 187.323 416.5 184.838C416.5 182.353 418.515 180.338 421 180.338C423.485 180.338 425.5 182.353 425.5 184.838Z" stroke="#121212" stroke-width="2.1"/>
<path d="M435.076 206.588L428.108 194.518L413.985 194.518L407.016 206.588" stroke="#121212" stroke-width="2.1" stroke-linejoin="bevel"/>
</g>
<g clip-path="url(#clip1_2245_1342)">
<path d="M478 193.838C478 195.495 476.657 196.838 475 196.838C473.343 196.838 472 195.495 472 193.838C472 192.181 473.343 190.838 475 190.838C476.657 190.838 478 192.181 478 193.838Z" stroke="#121212" stroke-width="2.1"/>
<path d="M469.75 183.338C469.75 184.995 468.407 186.338 466.75 186.338C465.093 186.338 463.75 184.995 463.75 183.338C463.75 181.681 465.093 180.338 466.75 180.338C468.407 180.338 469.75 181.681 469.75 183.338Z" stroke="#121212" stroke-width="2.1"/>
<path d="M486.25 183.338C486.25 184.995 484.907 186.338 483.25 186.338C481.593 186.338 480.25 184.995 480.25 183.338C480.25 181.681 481.593 180.338 483.25 180.338C484.907 180.338 486.25 181.681 486.25 183.338Z" stroke="#121212" stroke-width="2.1"/>
<path d="M482.502 206.588L479.092 200.422L470.816 200.422L467.502 206.588" stroke="#121212" stroke-width="2.1" stroke-linejoin="bevel"/>
<path d="M489.125 193.088L487.235 189.922L480.125 189.922" stroke="#121212" stroke-width="2.1" stroke-linejoin="bevel"/>
<path d="M460.899 193.088L462.788 189.922L469.899 189.922" stroke="#121212" stroke-width="2.1" stroke-linejoin="bevel"/>
</g>
<path d="M542.953 206.483L542.216 207.231L544.003 206.483L542.953 206.483ZM515.038 201.603H513.988V202.653H515.038V201.603ZM542.953 181.4L544.003 181.4L544.003 180.35L542.953 180.35L542.953 181.4ZM515.038 181.4V180.35L513.988 180.35V181.4H515.038ZM537.999 201.603L538.736 200.855L538.429 200.553H537.999L537.999 201.603ZM544.003 206.483L544.003 181.4L541.903 181.4L541.903 206.483L544.003 206.483ZM516.088 201.603V181.4H513.988V201.603H516.088ZM542.953 180.35L515.038 180.35V182.45L542.953 182.45L542.953 180.35ZM543.69 205.735L538.736 200.855L537.262 202.351L542.216 207.231L543.69 205.735ZM537.999 200.553L515.038 200.553V202.653L537.999 202.653L537.999 200.553Z" fill="#121212"/>
<path d="M523 191.588C523 192.416 522.328 193.088 521.5 193.088C520.672 193.088 520 192.416 520 191.588C520 190.759 520.672 190.088 521.5 190.088C522.328 190.088 523 190.759 523 191.588Z" stroke="#121212" stroke-width="1.8"/>
<path d="M530.5 191.588C530.5 192.416 529.828 193.088 529 193.088C528.172 193.088 527.5 192.416 527.5 191.588C527.5 190.759 528.172 190.088 529 190.088C529.828 190.088 530.5 190.759 530.5 191.588Z" stroke="#121212" stroke-width="1.8"/>
<path d="M538 191.588C538 192.416 537.328 193.088 536.5 193.088C535.672 193.088 535 192.416 535 191.588C535 190.759 535.672 190.088 536.5 190.088C537.328 190.088 538 190.759 538 191.588Z" stroke="#121212" stroke-width="1.8"/>
<path d="M596.95 181.388V203.288H569.05V181.388H596.95Z" stroke="#121212" stroke-width="2.1"/>
<path d="M596.5 181.838L583 193.838L569.5 181.838" stroke="#121212" stroke-width="2.1" stroke-linejoin="bevel"/>
<path d="M649 188.588V206.27H625V188.588" stroke="#121212" stroke-width="2.1"/>
<path d="M622.75 190.088L637 178.838L651.25 190.088" stroke="#121212" stroke-width="2.1" stroke-linejoin="bevel"/>
<path d="M640 198.338C640 199.995 638.657 201.338 637 201.338C635.343 201.338 634 199.995 634 198.338C634 196.681 635.343 195.338 637 195.338C638.657 195.338 640 196.681 640 198.338Z" stroke="#121212" stroke-width="2.1"/>
<path d="M704.95 181.388V204.788H677.05V181.388H704.95Z" stroke="#121212" stroke-width="2.1"/>
<path d="M698.5 177.338V184.838" stroke="#121212" stroke-width="2.1"/>
<path d="M691 177.338V184.838" stroke="#121212" stroke-width="2.1"/>
<path d="M683.5 177.338V184.838" stroke="#121212" stroke-width="2.1"/>
<path d="M677.5 188.588H704.5" stroke="#121212" stroke-width="2.1"/>
<path d="M700.75 197.588C700.75 199.245 699.407 200.588 697.75 200.588C696.093 200.588 694.75 199.245 694.75 197.588C694.75 195.931 696.093 194.588 697.75 194.588C699.407 194.588 700.75 195.931 700.75 197.588Z" stroke="#121212" stroke-width="2.1"/>
<path d="M731.5 201.338L754 178.838L758.5 183.338L736 205.838L731.5 205.838L731.5 201.338Z" stroke="#121212" stroke-width="2.1" stroke-linejoin="bevel"/>
<path d="M748.75 183.338L754 188.588" stroke="#121212" stroke-width="2.1"/>
<g clip-path="url(#clip2_2245_1342)">
<path d="M158.5 256.838C158.5 259.323 156.485 261.338 154 261.338C151.515 261.338 149.5 259.323 149.5 256.838C149.5 254.353 151.515 252.338 154 252.338C156.485 252.338 158.5 254.353 158.5 256.838Z" stroke="#121212" stroke-width="2.1"/>
<path d="M140.016 278.588L146.985 266.518L154.046 266.518L157.577 266.518" stroke="#121212" stroke-width="2.1" stroke-linejoin="bevel"/>
<path d="M166.767 266.606L169.786 271.835L166.767 277.063L160.73 277.063L157.712 271.835L160.73 266.606L166.767 266.606Z" stroke="#121212" stroke-width="2.1" stroke-linejoin="bevel"/>
<path d="M165.809 271.835C165.809 272.974 164.885 273.897 163.746 273.897C162.607 273.897 161.684 272.974 161.684 271.835C161.684 270.696 162.607 269.772 163.746 269.772C164.885 269.772 165.809 270.696 165.809 271.835Z" fill="#121212"/>
</g>
<path d="M221.941 270.338V278.282H194.055V270.338" stroke="#121212" stroke-width="2.1"/>
<path d="M208 249.338L208 271.838" stroke="#121212" stroke-width="2.1" stroke-linejoin="bevel"/>
<path d="M218.5 262.838L208 271.838L197.5 262.838" stroke="#121212" stroke-width="2.1" stroke-linejoin="bevel"/>
<g clip-path="url(#clip3_2245_1342)">
<path d="M273.091 283.43C273.091 284.229 272.189 284.693 271.539 284.229L265.115 279.64C264.774 279.396 264.315 279.396 263.974 279.64L257.55 284.229C256.9 284.693 255.998 284.229 255.998 283.43V265.802C255.998 265.155 256.255 264.534 256.713 264.076C257.171 263.618 257.792 263.361 258.44 263.361H270.649C271.297 263.361 271.918 263.618 272.376 264.076C272.834 264.534 273.091 265.155 273.091 265.802V283.43Z" fill="url(#paint0_linear_2245_1342)"/>
<path d="M262.363 245.001C263.728 244.009 265.575 244.009 266.94 245.001L277.536 252.699C278.901 253.691 279.472 255.448 278.951 257.052L274.903 269.509C274.382 271.113 272.887 272.199 271.2 272.199H258.103C256.416 272.199 254.921 271.113 254.4 269.509L250.352 257.052C249.831 255.448 250.402 253.691 251.767 252.699L262.363 245.001Z" fill="url(#paint1_linear_2245_1342)"/>
<path fill-rule="evenodd" clip-rule="evenodd" d="M271.846 254.684C272.207 255.045 272.207 255.631 271.846 255.992L263.264 264.574C262.907 264.931 262.331 264.936 261.968 264.586L257.529 260.309C257.161 259.954 257.15 259.369 257.505 259.001C257.859 258.633 258.444 258.622 258.812 258.977L262.598 262.625L270.538 254.684C270.9 254.323 271.485 254.323 271.846 254.684Z" fill="white" stroke="white" stroke-width="0.269875" stroke-linecap="round" stroke-linejoin="round"/>
</g>
<g clip-path="url(#clip4_2245_1342)">
<path d="M331.254 245.091L334.517 251.24L341.373 252.443L340.398 259.335L345.238 264.338L340.398 269.341L341.373 276.233L334.517 277.435L331.254 283.584L325.001 280.527L318.747 283.584L315.485 277.436L308.629 276.233L309.604 269.341L304.764 264.338L309.604 259.335L308.629 252.443L315.485 251.24L318.747 245.091L325.001 248.148L331.254 245.091Z" fill="#368FF7"/>
<path fill-rule="evenodd" clip-rule="evenodd" d="M333.384 258.731C333.811 259.157 333.811 259.848 333.384 260.275L323.253 270.406C322.833 270.826 322.152 270.833 321.724 270.42L316.484 265.37C316.05 264.952 316.037 264.261 316.455 263.827C316.873 263.393 317.565 263.38 317.999 263.798L322.467 268.104L331.841 258.731C332.267 258.305 332.958 258.305 333.384 258.731Z" fill="white" stroke="white" stroke-width="0.3" stroke-linecap="round" stroke-linejoin="round"/>
</g>
<path d="M370 277.838V250.838H385L394 258.938V277.838H370Z" stroke="#121212" stroke-width="2.1"/>
<path d="M385 250.838V259.838H394" stroke="#121212" stroke-width="2.1" stroke-linecap="round" stroke-linejoin="round"/>
<path d="M388 265.838H376" stroke="#121212" stroke-width="2.1" stroke-linecap="round" stroke-linejoin="round"/>
<path d="M388 271.838H376" stroke="#121212" stroke-width="2.1" stroke-linecap="round" stroke-linejoin="round"/>
<path d="M379 259.838H377.5H376" stroke="#121212" stroke-width="2.1" stroke-linecap="round" stroke-linejoin="round"/>
<path d="M425.5 280.838L425.5 250.838" stroke="#121212" stroke-width="2.1" stroke-linejoin="bevel"/>
<path d="M425.5 268.838H448L443.5 261.338L448 253.838L425.5 253.838" stroke="#121212" stroke-width="2.1" stroke-linejoin="bevel"/>
<defs>
<linearGradient id="paint0_linear_2245_1342" x1="264.545" y1="263.361" x2="264.545" y2="285.337" gradientUnits="userSpaceOnUse">
<stop offset="0.520753" stop-color="#EE695D"/>
<stop offset="1" stop-color="#EA4335"/>
</linearGradient>
<linearGradient id="paint1_linear_2245_1342" x1="264.651" y1="243.338" x2="264.651" y2="275.246" gradientUnits="userSpaceOnUse">
<stop stop-color="#FBBC04"/>
<stop offset="1" stop-color="#F9AB00"/>
</linearGradient>
<clipPath id="clip0_2245_1342">
<rect width="36" height="36" fill="white" transform="translate(403 174.338)"/>
</clipPath>
<clipPath id="clip1_2245_1342">
<rect width="36" height="36" fill="white" transform="translate(457 174.338)"/>
</clipPath>
<clipPath id="clip2_2245_1342">
<rect width="36" height="36" fill="white" transform="translate(136 246.338)"/>
</clipPath>
<clipPath id="clip3_2245_1342">
<rect width="42" height="42" fill="white" transform="translate(244 243.338)"/>
</clipPath>
<clipPath id="clip4_2245_1342">
<rect width="42" height="42" fill="white" transform="translate(304 243.338)"/>
</clipPath>
</defs>
</svg>
