<svg xmlns="http://www.w3.org/2000/svg" width="692" height="193" fill="none" viewBox="0 0 692 193"><g clip-path="url(#a)"><path fill="#fff" d="M0 .338h192v192H0z"/><circle cx="96" cy="96.338" r="80" stroke="red" stroke-opacity=".1"/><path stroke="red" stroke-opacity=".1" d="M16 32.338h160v128H16z"/><path stroke="red" stroke-opacity=".1" d="M160 16.338v160H32v-160z"/><path fill="red" fill-opacity=".1" d="M0 .338h192v16H0zM0 176.338h192v16H0z"/><path fill="red" fill-opacity=".1" d="M192 .338v192h-16v-192zM16 .338v192H0v-192z"/><path stroke="red" stroke-opacity=".5" d="M96 .338v192M192 96.338H0"/></g><g clip-path="url(#b)"><path fill="#fff" d="M651.5 96.338h24v24h-24z"/><circle cx="663.5" cy="108.338" r="10" stroke="red" stroke-opacity=".1" stroke-width=".1"/><path stroke="red" stroke-opacity=".1" stroke-width=".1" d="M653.5 100.338h20v16h-20z"/><path stroke="red" stroke-opacity=".1" stroke-width=".1" d="M671.5 98.338v20h-16v-20z"/><path fill="red" fill-opacity=".1" d="M651.5 96.338h24v2h-24zM651.5 118.338h24v2h-24z"/><path fill="red" fill-opacity=".1" d="M675.5 96.338v24h-2v-24zM653.5 96.338v24h-2v-24z"/><path stroke="#121212" stroke-linejoin="bevel" stroke-width="1.4" d="M672.5 108.338h-18M672.5 101.338h-18M672.5 115.338h-18"/></g><g clip-path="url(#c)"><path fill="#fff" d="M551.5 96.338h20v20h-20z"/><circle cx="561.5" cy="106.338" r="8" stroke="red" stroke-opacity=".1" stroke-width=".1"/><path stroke="red" stroke-opacity=".1" stroke-width=".1" d="M553.5 100.338h16v12h-16z"/><path stroke="red" stroke-opacity=".1" stroke-width=".1" d="M567.5 98.338v16h-12v-16z"/><path fill="red" fill-opacity=".1" d="M551.5 96.338h20v2h-20zM551.5 114.338h20v2h-20z"/><path fill="red" fill-opacity=".1" d="M571.5 96.338v20h-2v-20zM553.5 96.338v20h-2v-20z"/><path stroke="#121212" stroke-linejoin="bevel" stroke-width="1.4" d="m560.5 112.338-5-6 5-6M565.5 112.338l-5-6 5-6"/></g><g clip-path="url(#d)"><path fill="#fff" d="M454.5 96.338h14v14h-14z"/><circle cx="461.5" cy="103.338" r="6" stroke="red" stroke-opacity=".1" stroke-width=".1"/><path stroke="red" stroke-opacity=".1" stroke-width=".1" d="M455.5 98.338h12v10h-12z"/><path stroke="red" stroke-opacity=".1" stroke-width=".1" d="M466.5 97.338v12h-10v-12z"/><path fill="red" fill-opacity=".1" d="M454.5 96.338h14v1h-14zM454.5 109.338h14v1h-14z"/><path fill="red" fill-opacity=".1" d="M468.5 96.338v14h-1v-14zM455.5 96.338v14h-1v-14z"/><path stroke="#121212" stroke-linejoin="bevel" stroke-width="1.2" d="m465.5 108.338-4-5 4-5M457.5 108.338l4-5-4-5"/></g><rect width="55" height="29" x="429.5" y="45.838" fill="#fff" rx="14.5"/><rect width="55" height="29" x="429.5" y="45.838" stroke="#6B6B6B" rx="14.5"/><path fill="#121212" d="m446.426 65.38-1.456-.014v-8.61l-1.778 1.008-.616-1.218 2.408-1.344h1.442zm7.897-3.92h1.302v1.274h-1.302v2.646h-1.442v-2.646h-4.396l-.14-1.274 4.592-6.272h1.386zm-1.442 0v-3.85l-2.8 3.85zm8.066 2.842q.938 0 1.526-.686.588-.7.588-1.82 0-1.106-.588-1.792t-1.526-.686a1.93 1.93 0 0 0-1.092.336 2.37 2.37 0 0 0-.798.91 2.6 2.6 0 0 0-.294 1.232q0 .686.294 1.26t.798.91 1.092.336m-3.654-6.188h1.456v1.26q.378-.63 1.05-.938.672-.322 1.232-.322 1.022 0 1.806.476.798.462 1.232 1.302.448.825.448 1.904t-.448 1.932q-.434.84-1.232 1.316-.784.462-1.806.462-.56 0-1.232-.322a2.5 2.5 0 0 1-1.05-.966v4.354h-1.456zm12.367 3.668 2.702 3.654h-1.806l-1.75-2.478-1.736 2.478h-1.806l2.66-3.654-2.716-3.668h1.82l1.778 2.548 1.764-2.548h1.82z"/><rect width="57" height="29" x="531.5" y="45.838" fill="#fff" rx="14.5"/><rect width="57" height="29" x="531.5" y="45.838" stroke="#6B6B6B" rx="14.5"/><path fill="#121212" d="m544.341 64.106 1.428-1.316a62 62 0 0 0 1.806-1.68q.687-.672 1.148-1.372.462-.714.462-1.344 0-.868-.504-1.414-.49-.56-1.274-.56-.601 0-1.162.392a2.35 2.35 0 0 0-.826 1.008l-1.274-.56a3.57 3.57 0 0 1 1.33-1.554q.924-.615 1.932-.616.939 0 1.666.42.743.42 1.148 1.176.42.742.42 1.708 0 .953-.574 1.89a8.6 8.6 0 0 1-1.372 1.736 36 36 0 0 1-2.044 1.862l-.252.224h4.396v1.274h-6.314zm11.497.084q.687 0 1.218-.49.546-.49.84-1.372.294-.896.294-2.044 0-1.162-.294-2.044t-.826-1.372a1.76 1.76 0 0 0-1.232-.49q-.7 0-1.246.49-.532.49-.826 1.372t-.294 2.044q0 1.148.294 2.044.294.882.826 1.372.547.49 1.246.49m-3.822-3.906q0-1.498.49-2.674.49-1.19 1.358-1.848a3.14 3.14 0 0 1 1.974-.672q1.107 0 1.974.672.869.659 1.344 1.848.49 1.176.49 2.674 0 1.499-.49 2.688-.476 1.176-1.344 1.834a3.18 3.18 0 0 1-1.974.658q-1.105 0-1.974-.658-.867-.658-1.358-1.834-.49-1.19-.49-2.688m12.931 4.018q.938 0 1.526-.686.588-.7.588-1.82 0-1.106-.588-1.792t-1.526-.686a1.93 1.93 0 0 0-1.092.336 2.37 2.37 0 0 0-.798.91 2.6 2.6 0 0 0-.294 1.232q0 .686.294 1.26t.798.91 1.092.336m-3.654-6.188h1.456v1.26q.378-.63 1.05-.938.672-.322 1.232-.322 1.022 0 1.806.476.798.462 1.232 1.302.448.825.448 1.904t-.448 1.932q-.434.84-1.232 1.316-.784.462-1.806.462-.56 0-1.232-.322a2.5 2.5 0 0 1-1.05-.966v4.354h-1.456zm12.367 3.668 2.702 3.654h-1.806l-1.75-2.478-1.736 2.478h-1.806l2.66-3.654-2.716-3.668h1.82l1.778 2.548 1.764-2.548h1.82z"/><rect width="57" height="29" x="634.5" y="45.838" fill="#fff" rx="14.5"/><rect width="57" height="29" x="634.5" y="45.838" stroke="#6B6B6B" rx="14.5"/><path fill="#121212" d="m647.656 64.106 1.428-1.316a62 62 0 0 0 1.806-1.68q.686-.672 1.148-1.372.462-.714.462-1.344 0-.868-.504-1.414-.49-.56-1.274-.56-.602 0-1.162.392a2.35 2.35 0 0 0-.826 1.008l-1.274-.56a3.56 3.56 0 0 1 1.33-1.554q.924-.615 1.932-.616.938 0 1.666.42.742.42 1.148 1.176.42.742.42 1.708 0 .953-.574 1.89a8.6 8.6 0 0 1-1.372 1.736 36 36 0 0 1-2.044 1.862l-.252.224h4.396v1.274h-6.314zm13.667-2.646h1.302v1.274h-1.302v2.646h-1.442v-2.646h-4.396l-.14-1.274 4.592-6.272h1.386zm-1.442 0v-3.85l-2.8 3.85zm8.066 2.842q.938 0 1.526-.686.588-.7.588-1.82 0-1.106-.588-1.792t-1.526-.686a1.93 1.93 0 0 0-1.092.336 2.37 2.37 0 0 0-.798.91 2.6 2.6 0 0 0-.294 1.232q0 .686.294 1.26t.798.91 1.092.336m-3.654-6.188h1.456v1.26q.378-.63 1.05-.938.672-.322 1.232-.322 1.022 0 1.806.476.798.462 1.232 1.302.448.825.448 1.904t-.448 1.932q-.434.84-1.232 1.316-.784.462-1.806.462-.56 0-1.232-.322a2.5 2.5 0 0 1-1.05-.966v4.354h-1.456zm12.367 3.668 2.702 3.654h-1.806l-1.75-2.478-1.736 2.478h-1.806l2.66-3.654-2.716-3.668h1.82l1.778 2.548 1.764-2.548h1.82z"/><path fill="#6B6B6B" d="M359.424 96.762a.6.6 0 0 0 0-.848l-3.818-3.819a.6.6 0 0 0-.849.849l3.394 3.394-3.394 3.394a.601.601 0 0 0 .849.849zM277 96.938h82v-1.2h-82z"/><defs><clipPath id="a"><path fill="#fff" d="M0 .338h192v192H0z"/></clipPath><clipPath id="b"><path fill="#fff" d="M651.5 96.338h24v24h-24z"/></clipPath><clipPath id="c"><path fill="#fff" d="M551.5 96.338h20v20h-20z"/></clipPath><clipPath id="d"><path fill="#fff" d="M454.5 96.338h14v14h-14z"/></clipPath></defs></svg>