<svg width="909" height="304" viewBox="0 0 909 304" fill="none" xmlns="http://www.w3.org/2000/svg">
<rect width="909" height="303" transform="translate(0 0.33783)" fill="white"/>
<g clip-path="url(#clip0_2245_984)">
<rect width="21" height="21" transform="translate(140 57.3378)" fill="white"/>
<path d="M156.5 75.3378L150.5 67.8378L156.5 60.3378" stroke="#121212" stroke-width="1.8" stroke-linejoin="bevel"/>
<path d="M144.5 75.3378L150.5 67.8378L144.5 60.3378" stroke="#121212" stroke-width="1.8" stroke-linejoin="bevel"/>
</g>
<g clip-path="url(#clip1_2245_984)">
<rect width="30" height="30" transform="translate(190 52.3378)" fill="white"/>
<path d="M214 65.8378L205 73.3378L196 65.8378" stroke="#121212" stroke-width="2.1" stroke-linejoin="bevel"/>
</g>
<g clip-path="url(#clip2_2245_984)">
<rect width="30" height="30" transform="translate(238 52.3378)" fill="white"/>
<path d="M254.5 76.3378L247 67.3378L254.5 58.3378" stroke="#121212" stroke-width="2.1" stroke-linejoin="bevel"/>
</g>
<g clip-path="url(#clip3_2245_984)">
<rect width="30" height="30" transform="matrix(-1 0 0 1 316 52.3378)" fill="white"/>
<path d="M299.5 76.3378L307 67.3378L299.5 58.3378" stroke="#121212" stroke-width="2.1" stroke-linejoin="bevel"/>
</g>
<g clip-path="url(#clip4_2245_984)">
<rect width="30" height="30" transform="translate(334 52.3378)" fill="white"/>
<path d="M358 65.8378L349 58.3378L340 65.8378" stroke="#121212" stroke-width="2.1" stroke-linejoin="bevel"/>
<path d="M358 73.3378L349 65.8378L340 73.3378" stroke="#121212" stroke-width="2.1" stroke-linejoin="bevel"/>
</g>
<g clip-path="url(#clip5_2245_984)">
<rect width="30" height="30" transform="translate(382 52.3378)" fill="white"/>
<path d="M406 68.8378L397 76.3378L388 68.8378" stroke="#121212" stroke-width="2.1" stroke-linejoin="bevel"/>
<path d="M406 61.3378L397 68.8378L388 61.3378" stroke="#121212" stroke-width="2.1" stroke-linejoin="bevel"/>
</g>
<g clip-path="url(#clip6_2245_984)">
<rect width="30" height="30" transform="translate(430 52.3378)" fill="white"/>
<path d="M443.5 76.3378L436 67.3378L443.5 58.3378" stroke="#121212" stroke-width="2.1" stroke-linejoin="bevel"/>
<path d="M451 76.3378L443.5 67.3378L451 58.3378" stroke="#121212" stroke-width="2.1" stroke-linejoin="bevel"/>
</g>
<g clip-path="url(#clip7_2245_984)">
<rect width="30" height="30" transform="matrix(-1 0 0 1 508 52.3378)" fill="white"/>
<path d="M494.5 76.3378L502 67.3378L494.5 58.3378" stroke="#121212" stroke-width="2.1" stroke-linejoin="bevel"/>
<path d="M487 76.3378L494.5 67.3378L487 58.3378" stroke="#121212" stroke-width="2.1" stroke-linejoin="bevel"/>
</g>
<g clip-path="url(#clip8_2245_984)">
<rect width="30" height="30" transform="translate(526 52.3378)" fill="white"/>
<path d="M550 61.3378L538 71.8378L532 66.5878" stroke="#121212" stroke-width="2.1" stroke-linejoin="bevel"/>
</g>
<g clip-path="url(#clip9_2245_984)">
<rect width="30" height="30" transform="translate(574 52.3378)" fill="white"/>
<path d="M598 67.3378H580" stroke="#121212" stroke-width="2.1" stroke-linejoin="bevel"/>
<path d="M589 76.3378L589 58.3378" stroke="#121212" stroke-width="2.1" stroke-linejoin="bevel"/>
</g>
<g clip-path="url(#clip10_2245_984)">
<rect width="30" height="30" transform="translate(622 52.3378)" fill="white"/>
<path d="M646 67.3378H628" stroke="#121212" stroke-width="2.1" stroke-linejoin="bevel"/>
</g>
<g clip-path="url(#clip11_2245_984)">
<rect width="36" height="36" transform="translate(139 142.338)" fill="white"/>
<path d="M164.801 155.838H170.938L170.937 174.279H152.501V168.138" stroke="#121212" stroke-width="2.1"/>
<path d="M161.95 146.388V165.288H143.05V146.388H161.95Z" stroke="#121212" stroke-width="2.1"/>
</g>
<g clip-path="url(#clip12_2245_984)">
<rect width="36" height="36" transform="translate(193 142.338)" fill="white"/>
<path d="M207.1 166.338H197.128V154.338H207.1M214.9 166.338H224.875V154.338H214.9" stroke="#121212" stroke-width="2.1"/>
<path d="M218.5 160.338L203.5 160.338" stroke="#121212" stroke-width="2.1"/>
</g>
<g clip-path="url(#clip13_2245_984)">
<rect width="36" height="36" transform="translate(247 142.338)" fill="white"/>
<path d="M258.25 169.338L250.75 160.338L258.25 151.338" stroke="#121212" stroke-width="2.1" stroke-linejoin="bevel"/>
<path d="M271.75 151.338L279.25 160.338L271.75 169.338" stroke="#121212" stroke-width="2.1" stroke-linejoin="bevel"/>
</g>
<g clip-path="url(#clip14_2245_984)">
<rect width="36" height="36" transform="translate(301 142.338)" fill="white"/>
<path d="M320.443 152.01L320.758 152.388H321.25H332.95V172.788H305.05V147.888H317.008L320.443 152.01Z" stroke="#121212" stroke-width="2.1"/>
<path d="M316 164.838C316 166.495 314.657 167.838 313 167.838C311.343 167.838 310 166.495 310 164.838C310 163.181 311.343 161.838 313 161.838C314.657 161.838 316 163.181 316 164.838Z" stroke="#121212" stroke-width="2.1"/>
</g>
<g clip-path="url(#clip15_2245_984)">
<rect width="36" height="36" transform="translate(355 142.338)" fill="white"/>
<path d="M386.5 160.338H359.5" stroke="#121212" stroke-width="2.1" stroke-linejoin="bevel"/>
<path d="M386.5 149.838H359.5" stroke="#121212" stroke-width="2.1" stroke-linejoin="bevel"/>
<path d="M386.5 170.838H359.5" stroke="#121212" stroke-width="2.1" stroke-linejoin="bevel"/>
</g>
<g clip-path="url(#clip16_2245_984)">
<rect width="36" height="36" transform="translate(409 142.338)" fill="white"/>
<path d="M437.5 172.338L427 160.338L437.5 148.338" stroke="#121212" stroke-width="2.1" stroke-linejoin="bevel"/>
<path d="M416.5 148.338L427 160.338L416.5 172.338" stroke="#121212" stroke-width="2.1" stroke-linejoin="bevel"/>
</g>
<g clip-path="url(#clip17_2245_984)">
<rect width="36" height="36" transform="translate(463 142.338)" fill="white"/>
<path d="M493 160.338H469" stroke="#121212" stroke-width="2.1" stroke-linejoin="bevel"/>
<path d="M479.5 172.338L469 160.338L479.5 148.338" stroke="#121212" stroke-width="2.1" stroke-linejoin="bevel"/>
</g>
<g clip-path="url(#clip18_2245_984)">
<rect width="36" height="36" transform="translate(517 142.338)" fill="white"/>
<path d="M547 160.338H523" stroke="#121212" stroke-width="2.1" stroke-linejoin="bevel"/>
<path d="M536.5 172.338L547 160.338L536.5 148.338" stroke="#121212" stroke-width="2.1" stroke-linejoin="bevel"/>
</g>
<g clip-path="url(#clip19_2245_984)">
<rect width="36" height="36" transform="translate(571 142.338)" fill="white"/>
<path d="M593.5 152.838C593.5 155.323 591.485 157.338 589 157.338C586.515 157.338 584.5 155.323 584.5 152.838C584.5 150.353 586.515 148.338 589 148.338C591.485 148.338 593.5 150.353 593.5 152.838Z" stroke="#121212" stroke-width="2.1"/>
<path d="M603.076 174.588L596.108 162.519L581.985 162.519L575.016 174.588" stroke="#121212" stroke-width="2.1" stroke-linejoin="bevel"/>
</g>
<g clip-path="url(#clip20_2245_984)">
<rect width="36" height="36" transform="translate(625 142.338)" fill="white"/>
<path d="M646 161.838C646 163.495 644.657 164.838 643 164.838C641.343 164.838 640 163.495 640 161.838C640 160.181 641.343 158.838 643 158.838C644.657 158.838 646 160.181 646 161.838Z" stroke="#121212" stroke-width="2.1"/>
<path d="M637.75 151.338C637.75 152.995 636.407 154.338 634.75 154.338C633.093 154.338 631.75 152.995 631.75 151.338C631.75 149.681 633.093 148.338 634.75 148.338C636.407 148.338 637.75 149.681 637.75 151.338Z" stroke="#121212" stroke-width="2.1"/>
<path d="M654.25 151.338C654.25 152.995 652.907 154.338 651.25 154.338C649.593 154.338 648.25 152.995 648.25 151.338C648.25 149.681 649.593 148.338 651.25 148.338C652.907 148.338 654.25 149.681 654.25 151.338Z" stroke="#121212" stroke-width="2.1"/>
<path d="M650.5 174.588L647.09 168.422L638.814 168.422L635.5 174.588" stroke="#121212" stroke-width="2.1" stroke-linejoin="bevel"/>
<path d="M657.125 161.087L655.235 157.921L648.125 157.921" stroke="#121212" stroke-width="2.1" stroke-linejoin="bevel"/>
<path d="M628.899 161.087L630.788 157.921L637.899 157.921" stroke="#121212" stroke-width="2.1" stroke-linejoin="bevel"/>
</g>
<g clip-path="url(#clip21_2245_984)">
<rect width="36" height="36" transform="translate(679 142.338)" fill="white"/>
<path d="M710.953 174.482L710.216 175.23L712.003 174.482L710.953 174.482ZM683.038 169.601H681.988V170.651H683.038V169.601ZM710.953 149.398L712.003 149.398L712.003 148.348L710.953 148.348L710.953 149.398ZM683.038 149.398V148.348L681.988 148.348V149.398H683.038ZM705.999 169.601L706.736 168.853L706.429 168.551H705.999L705.999 169.601ZM712.003 174.482L712.003 149.398L709.903 149.398L709.903 174.482L712.003 174.482ZM684.088 169.601V149.398H681.988V169.601H684.088ZM710.953 148.348L683.038 148.348V150.448L710.953 150.448L710.953 148.348ZM711.69 173.734L706.736 168.853L705.262 170.349L710.216 175.23L711.69 173.734ZM705.999 168.551L683.038 168.551V170.651L705.999 170.651L705.999 168.551Z" fill="#121212"/>
<path d="M691 159.588C691 160.416 690.328 161.088 689.5 161.088C688.672 161.088 688 160.416 688 159.588C688 158.76 688.672 158.088 689.5 158.088C690.328 158.088 691 158.76 691 159.588Z" stroke="#121212" stroke-width="1.8"/>
<path d="M698.5 159.588C698.5 160.416 697.828 161.088 697 161.088C696.172 161.088 695.5 160.416 695.5 159.588C695.5 158.759 696.172 158.088 697 158.088C697.828 158.088 698.5 158.759 698.5 159.588Z" stroke="#121212" stroke-width="1.8"/>
<path d="M706 159.588C706 160.416 705.328 161.088 704.5 161.088C703.672 161.088 703 160.416 703 159.588C703 158.759 703.672 158.088 704.5 158.088C705.328 158.088 706 158.759 706 159.588Z" stroke="#121212" stroke-width="1.8"/>
</g>
<g clip-path="url(#clip22_2245_984)">
<rect width="36" height="36" transform="translate(139 216.338)" fill="white"/>
<path d="M170.95 223.388V245.288H143.05V223.388H170.95Z" stroke="#121212" stroke-width="2.1"/>
<path d="M170.5 223.838L157 235.838L143.5 223.838" stroke="#121212" stroke-width="2.1" stroke-linejoin="bevel"/>
</g>
<g clip-path="url(#clip23_2245_984)">
<rect width="36" height="36" transform="translate(193 216.338)" fill="white"/>
<path d="M223 230.588V248.27H199V230.588" stroke="#121212" stroke-width="2.1"/>
<path d="M196.75 232.088L211 220.838L225.25 232.088" stroke="#121212" stroke-width="2.1" stroke-linejoin="bevel"/>
<path d="M214 240.338C214 241.995 212.657 243.338 211 243.338C209.343 243.338 208 241.995 208 240.338C208 238.681 209.343 237.338 211 237.338C212.657 237.338 214 238.681 214 240.338Z" stroke="#121212" stroke-width="2.1"/>
</g>
<g clip-path="url(#clip24_2245_984)">
<rect width="36" height="36" transform="translate(247 216.338)" fill="white"/>
<path d="M278.95 223.388V246.788H251.05V223.388H278.95Z" stroke="#121212" stroke-width="2.1"/>
<path d="M272.5 219.338V226.838" stroke="#121212" stroke-width="2.1"/>
<path d="M265 219.338V226.838" stroke="#121212" stroke-width="2.1"/>
<path d="M257.5 219.338V226.838" stroke="#121212" stroke-width="2.1"/>
<path d="M251.5 230.588H278.5" stroke="#121212" stroke-width="2.1"/>
<path d="M274.75 239.588C274.75 241.245 273.407 242.588 271.75 242.588C270.093 242.588 268.75 241.245 268.75 239.588C268.75 237.931 270.093 236.588 271.75 236.588C273.407 236.588 274.75 237.931 274.75 239.588Z" stroke="#121212" stroke-width="2.1"/>
</g>
<g clip-path="url(#clip25_2245_984)">
<rect width="36" height="36" transform="translate(301 216.338)" fill="white"/>
<path d="M332.943 240.338V248.282H305.057V240.338" stroke="#121212" stroke-width="2.1"/>
<path d="M319 243.338L319 220.838" stroke="#121212" stroke-width="2.1" stroke-linejoin="bevel"/>
<path d="M308.5 229.838L319 220.838L329.5 229.838" stroke="#121212" stroke-width="2.1" stroke-linejoin="bevel"/>
</g>
<g clip-path="url(#clip26_2245_984)">
<rect width="36" height="36" transform="translate(355 216.338)" fill="white"/>
<path d="M370 220.381H386.944V248.289H370" stroke="#121212" stroke-width="2.1"/>
<path d="M382 234.338L359.5 234.338" stroke="#121212" stroke-width="2.1" stroke-linejoin="bevel"/>
<path d="M366.25 243.338L358.75 234.338L366.25 225.338" stroke="#121212" stroke-width="2.1" stroke-linejoin="bevel"/>
</g>
<g clip-path="url(#clip27_2245_984)">
<rect width="36" height="36" transform="translate(409 216.338)" fill="white"/>
<path d="M436.01 229.418L437.06 229.419V229.418H436.01ZM418.01 229.418L419.06 229.419V229.418H418.01ZM418 237.338L418.939 237.807L419.05 237.586L419.05 237.339L418 237.338ZM415 243.338L414.061 242.868L415 244.388V243.338ZM439 243.338V244.388L439.939 242.868L439 243.338ZM436 237.338L434.95 237.337L434.95 237.585L435.061 237.807L436 237.338ZM419.06 229.418C419.06 225.091 422.544 221.888 427 221.888V219.788C421.515 219.788 416.96 223.804 416.96 229.418H419.06ZM415.939 243.807L418.939 237.807L417.061 236.868L414.061 242.868L415.939 243.807ZM439 242.288H415V244.388H439V242.288ZM435.061 237.807L438.061 243.807L439.939 242.868L436.939 236.868L435.061 237.807ZM419.05 237.339L419.06 229.419L416.96 229.417L416.95 237.337L419.05 237.339ZM434.96 229.417L434.95 237.337L437.05 237.339L437.06 229.419L434.96 229.417ZM434.553 226.946C434.815 227.706 434.96 228.534 434.96 229.418H437.06C437.06 228.303 436.877 227.243 436.537 226.26L434.553 226.946ZM427 221.888C428.585 221.888 430.051 222.297 431.278 223.012L432.335 221.197C430.779 220.291 428.948 219.788 427 219.788V221.888Z" fill="#121212"/>
<path d="M431.5 243.338C431.5 245.823 429.485 247.838 427 247.838C424.515 247.838 422.5 245.823 422.5 243.338" stroke="#121212" stroke-width="2.1"/>
<path fill-rule="evenodd" clip-rule="evenodd" d="M434.05 222.188C432.973 222.188 432.1 223.061 432.1 224.138C432.1 225.215 432.973 226.088 434.05 226.088C435.127 226.088 436 225.215 436 224.138C436 223.061 435.127 222.188 434.05 222.188ZM430 224.138C430 221.901 431.813 220.088 434.05 220.088C436.287 220.088 438.1 221.901 438.1 224.138C438.1 226.375 436.287 228.188 434.05 228.188C431.813 228.188 430 226.375 430 224.138Z" fill="#121212"/>
</g>
<g clip-path="url(#clip28_2245_984)">
<rect width="36" height="36" transform="translate(463 216.338)" fill="white"/>
<path d="M491.943 225.338V249.338H470.064V225.338" stroke="#121212" stroke-width="2.1"/>
<path d="M488.5 220.838L473.5 220.838" stroke="#121212" stroke-width="2.1"/>
<path d="M481 243.338L481 231.338" stroke="#121212" stroke-width="2.1"/>
<path d="M486.25 243.338L486.25 231.338" stroke="#121212" stroke-width="2.1"/>
<path d="M475.75 243.338L475.75 231.338" stroke="#121212" stroke-width="2.1"/>
<path d="M496 225.338L466 225.338" stroke="#121212" stroke-width="2.1"/>
</g>
<g clip-path="url(#clip29_2245_984)">
<rect width="36" height="36" transform="translate(517 216.338)" fill="white"/>
<path d="M548.95 234.338C548.95 242.042 542.704 248.288 535 248.288C527.296 248.288 521.05 242.042 521.05 234.338C521.05 226.633 527.296 220.388 535 220.388C542.704 220.388 548.95 226.633 548.95 234.338Z" stroke="#121212" stroke-width="2.1"/>
<path d="M533.662 237.886C533.686 234.745 534.646 233.784 536.264 232.8C537.225 232.214 537.975 231.276 537.975 229.964C537.975 228.37 536.732 227.362 535.186 227.362C533.85 227.362 532.514 228.159 532.373 230.081H530.24C530.357 227.245 532.514 225.581 535.186 225.581C538.115 225.581 540.037 227.479 540.037 230.058C540.037 231.886 539.17 233.175 537.717 234.065C536.264 234.956 535.725 235.847 535.678 237.886V238.003H533.662V237.886ZM534.74 242.925C533.92 242.925 533.217 242.245 533.24 241.401C533.217 240.581 533.92 239.901 534.74 239.901C535.561 239.901 536.24 240.581 536.24 241.401C536.24 242.245 535.561 242.925 534.74 242.925Z" fill="#121212"/>
</g>
<g clip-path="url(#clip30_2245_984)">
<rect width="36" height="36" transform="translate(571 216.338)" fill="white"/>
<path d="M602.95 234.338C602.95 242.042 596.704 248.288 589 248.288C581.296 248.288 575.05 242.042 575.05 234.338C575.05 226.633 581.296 220.388 589 220.388C596.704 220.388 602.95 226.633 602.95 234.338Z" stroke="#121212" stroke-width="2.1"/>
<path d="M590.149 225.813L589.985 238H588.016L587.852 225.813H590.149ZM589.001 242.922C588.18 242.922 587.477 242.242 587.501 241.398C587.477 240.578 588.18 239.898 589.001 239.898C589.821 239.898 590.501 240.578 590.501 241.398C590.501 242.242 589.821 242.922 589.001 242.922Z" fill="#121212"/>
</g>
<g clip-path="url(#clip31_2245_984)">
<rect width="36" height="36" transform="translate(625 216.338)" fill="white"/>
<path d="M657.082 234.862L657.082 233.812L650.496 222.405L649.587 221.88L636.415 221.88L635.506 222.405L628.92 233.812L628.92 234.862L635.506 246.269L636.415 246.794L649.587 246.794L650.496 246.269L657.082 234.862Z" stroke="#121212" stroke-width="2.1" stroke-linejoin="bevel"/>
<path d="M647.5 234.338C647.5 236.823 645.485 238.838 643 238.838C640.515 238.838 638.5 236.823 638.5 234.338C638.5 231.853 640.515 229.838 643 229.838C645.485 229.838 647.5 231.853 647.5 234.338Z" stroke="#121212" stroke-width="2.1"/>
</g>
<g clip-path="url(#clip32_2245_984)">
<rect width="36" height="36" transform="translate(679 216.338)" fill="white"/>
<path d="M685 234.338C685 240.965 690.373 246.338 697 246.338C703.627 246.338 709 240.965 709 234.338C709 227.71 703.627 222.338 697 222.338C692.417 222.338 688.434 224.907 686.413 228.683" stroke="#121212" stroke-width="2.1"/>
<path d="M692.44 228.779L685.871 229.914L683.569 223.658" stroke="#121212" stroke-width="2.1" stroke-linejoin="bevel"/>
</g>
<g clip-path="url(#clip33_2245_984)">
<rect width="36" height="36" transform="translate(733 216.338)" fill="white"/>
<path d="M760 231.338C760 237.137 755.299 241.838 749.5 241.838C743.701 241.838 739 237.137 739 231.338C739 225.539 743.701 220.838 749.5 220.838C755.299 220.838 760 225.539 760 231.338Z" stroke="#121212" stroke-width="2.1"/>
<path d="M755.5 240.338L761.5 248.588" stroke="#121212" stroke-width="2.1" stroke-linejoin="bevel"/>
</g>
<defs>
<clipPath id="clip0_2245_984">
<rect width="21" height="21" fill="white" transform="translate(140 57.3378)"/>
</clipPath>
<clipPath id="clip1_2245_984">
<rect width="30" height="30" fill="white" transform="translate(190 52.3378)"/>
</clipPath>
<clipPath id="clip2_2245_984">
<rect width="30" height="30" fill="white" transform="translate(238 52.3378)"/>
</clipPath>
<clipPath id="clip3_2245_984">
<rect width="30" height="30" fill="white" transform="matrix(-1 0 0 1 316 52.3378)"/>
</clipPath>
<clipPath id="clip4_2245_984">
<rect width="30" height="30" fill="white" transform="translate(334 52.3378)"/>
</clipPath>
<clipPath id="clip5_2245_984">
<rect width="30" height="30" fill="white" transform="translate(382 52.3378)"/>
</clipPath>
<clipPath id="clip6_2245_984">
<rect width="30" height="30" fill="white" transform="translate(430 52.3378)"/>
</clipPath>
<clipPath id="clip7_2245_984">
<rect width="30" height="30" fill="white" transform="matrix(-1 0 0 1 508 52.3378)"/>
</clipPath>
<clipPath id="clip8_2245_984">
<rect width="30" height="30" fill="white" transform="translate(526 52.3378)"/>
</clipPath>
<clipPath id="clip9_2245_984">
<rect width="30" height="30" fill="white" transform="translate(574 52.3378)"/>
</clipPath>
<clipPath id="clip10_2245_984">
<rect width="30" height="30" fill="white" transform="translate(622 52.3378)"/>
</clipPath>
<clipPath id="clip11_2245_984">
<rect width="36" height="36" fill="white" transform="translate(139 142.338)"/>
</clipPath>
<clipPath id="clip12_2245_984">
<rect width="36" height="36" fill="white" transform="translate(193 142.338)"/>
</clipPath>
<clipPath id="clip13_2245_984">
<rect width="36" height="36" fill="white" transform="translate(247 142.338)"/>
</clipPath>
<clipPath id="clip14_2245_984">
<rect width="36" height="36" fill="white" transform="translate(301 142.338)"/>
</clipPath>
<clipPath id="clip15_2245_984">
<rect width="36" height="36" fill="white" transform="translate(355 142.338)"/>
</clipPath>
<clipPath id="clip16_2245_984">
<rect width="36" height="36" fill="white" transform="translate(409 142.338)"/>
</clipPath>
<clipPath id="clip17_2245_984">
<rect width="36" height="36" fill="white" transform="translate(463 142.338)"/>
</clipPath>
<clipPath id="clip18_2245_984">
<rect width="36" height="36" fill="white" transform="translate(517 142.338)"/>
</clipPath>
<clipPath id="clip19_2245_984">
<rect width="36" height="36" fill="white" transform="translate(571 142.338)"/>
</clipPath>
<clipPath id="clip20_2245_984">
<rect width="36" height="36" fill="white" transform="translate(625 142.338)"/>
</clipPath>
<clipPath id="clip21_2245_984">
<rect width="36" height="36" fill="white" transform="translate(679 142.338)"/>
</clipPath>
<clipPath id="clip22_2245_984">
<rect width="36" height="36" fill="white" transform="translate(139 216.338)"/>
</clipPath>
<clipPath id="clip23_2245_984">
<rect width="36" height="36" fill="white" transform="translate(193 216.338)"/>
</clipPath>
<clipPath id="clip24_2245_984">
<rect width="36" height="36" fill="white" transform="translate(247 216.338)"/>
</clipPath>
<clipPath id="clip25_2245_984">
<rect width="36" height="36" fill="white" transform="translate(301 216.338)"/>
</clipPath>
<clipPath id="clip26_2245_984">
<rect width="36" height="36" fill="white" transform="translate(355 216.338)"/>
</clipPath>
<clipPath id="clip27_2245_984">
<rect width="36" height="36" fill="white" transform="translate(409 216.338)"/>
</clipPath>
<clipPath id="clip28_2245_984">
<rect width="36" height="36" fill="white" transform="translate(463 216.338)"/>
</clipPath>
<clipPath id="clip29_2245_984">
<rect width="36" height="36" fill="white" transform="translate(517 216.338)"/>
</clipPath>
<clipPath id="clip30_2245_984">
<rect width="36" height="36" fill="white" transform="translate(571 216.338)"/>
</clipPath>
<clipPath id="clip31_2245_984">
<rect width="36" height="36" fill="white" transform="translate(625 216.338)"/>
</clipPath>
<clipPath id="clip32_2245_984">
<rect width="36" height="36" fill="white" transform="translate(679 216.338)"/>
</clipPath>
<clipPath id="clip33_2245_984">
<rect width="36" height="36" fill="white" transform="translate(733 216.338)"/>
</clipPath>
</defs>
</svg>
