<svg xmlns="http://www.w3.org/2000/svg" width="909" height="304" fill="none" viewBox="0 0 909 304"><path fill="#fff" d="M0 .338h909v303H0z"/><g clip-path="url(#a)"><path fill="#fff" d="M140 57.338h21v21h-21z"/><path stroke="#121212" stroke-linejoin="bevel" stroke-width="1.8" d="m156.5 75.338-6-7.5 6-7.5M144.5 75.338l6-7.5-6-7.5"/></g><g clip-path="url(#b)"><path fill="#fff" d="M190 52.338h30v30h-30z"/><path stroke="#121212" stroke-linejoin="bevel" stroke-width="2.1" d="m214 65.838-9 7.5-9-7.5"/></g><g clip-path="url(#c)"><path fill="#fff" d="M238 52.338h30v30h-30z"/><path stroke="#121212" stroke-linejoin="bevel" stroke-width="2.1" d="m254.5 76.338-7.5-9 7.5-9"/></g><g clip-path="url(#d)"><path fill="#fff" d="M316 52.338h-30v30h30z"/><path stroke="#121212" stroke-linejoin="bevel" stroke-width="2.1" d="m299.5 76.338 7.5-9-7.5-9"/></g><g clip-path="url(#e)"><path fill="#fff" d="M334 52.338h30v30h-30z"/><path stroke="#121212" stroke-linejoin="bevel" stroke-width="2.1" d="m358 65.838-9-7.5-9 7.5M358 73.338l-9-7.5-9 7.5"/></g><g clip-path="url(#f)"><path fill="#fff" d="M382 52.338h30v30h-30z"/><path stroke="#121212" stroke-linejoin="bevel" stroke-width="2.1" d="m406 68.838-9 7.5-9-7.5M406 61.338l-9 7.5-9-7.5"/></g><g clip-path="url(#g)"><path fill="#fff" d="M430 52.338h30v30h-30z"/><path stroke="#121212" stroke-linejoin="bevel" stroke-width="2.1" d="m443.5 76.338-7.5-9 7.5-9M451 76.338l-7.5-9 7.5-9"/></g><g clip-path="url(#h)"><path fill="#fff" d="M508 52.338h-30v30h30z"/><path stroke="#121212" stroke-linejoin="bevel" stroke-width="2.1" d="m494.5 76.338 7.5-9-7.5-9M487 76.338l7.5-9-7.5-9"/></g><g clip-path="url(#i)"><path fill="#fff" d="M526 52.338h30v30h-30z"/><path stroke="#121212" stroke-linejoin="bevel" stroke-width="2.1" d="m550 61.338-12 10.5-6-5.25"/></g><g clip-path="url(#j)"><path fill="#fff" d="M574 52.338h30v30h-30z"/><path stroke="#121212" stroke-linejoin="bevel" stroke-width="2.1" d="M598 67.338h-18M589 76.338v-18"/></g><g clip-path="url(#k)"><path fill="#fff" d="M622 52.338h30v30h-30z"/><path stroke="#121212" stroke-linejoin="bevel" stroke-width="2.1" d="M646 67.338h-18"/></g><g clip-path="url(#l)"><path fill="#fff" d="M139 142.338h36v36h-36z"/><path stroke="#121212" stroke-width="2.1" d="M164.801 155.838h6.137l-.001 18.441h-18.436v-6.141"/><path stroke="#121212" stroke-width="2.1" d="M161.95 146.388v18.9h-18.9v-18.9z"/></g><g clip-path="url(#m)"><path fill="#fff" d="M193 142.338h36v36h-36z"/><path stroke="#121212" stroke-width="2.1" d="M207.1 166.338h-9.972v-12h9.972m7.8 12h9.975v-12H214.9M218.5 160.338h-15"/></g><g clip-path="url(#n)"><path fill="#fff" d="M247 142.338h36v36h-36z"/><path stroke="#121212" stroke-linejoin="bevel" stroke-width="2.1" d="m258.25 169.338-7.5-9 7.5-9M271.75 151.338l7.5 9-7.5 9"/></g><g clip-path="url(#o)"><path fill="#fff" d="M301 142.338h36v36h-36z"/><path stroke="#121212" stroke-width="2.1" d="m320.443 152.01.315.378h12.192v20.4h-27.9v-24.9h11.958z"/><path stroke="#121212" stroke-width="2.1" d="M316 164.838a3 3 0 1 1-6 0 3 3 0 0 1 6 0Z"/></g><g clip-path="url(#p)"><path fill="#fff" d="M355 142.338h36v36h-36z"/><path stroke="#121212" stroke-linejoin="bevel" stroke-width="2.1" d="M386.5 160.338h-27M386.5 149.838h-27M386.5 170.838h-27"/></g><g clip-path="url(#q)"><path fill="#fff" d="M409 142.338h36v36h-36z"/><path stroke="#121212" stroke-linejoin="bevel" stroke-width="2.1" d="m437.5 172.338-10.5-12 10.5-12M416.5 148.338l10.5 12-10.5 12"/></g><g clip-path="url(#r)"><path fill="#fff" d="M463 142.338h36v36h-36z"/><path stroke="#121212" stroke-linejoin="bevel" stroke-width="2.1" d="M493 160.338h-24M479.5 172.338l-10.5-12 10.5-12"/></g><g clip-path="url(#s)"><path fill="#fff" d="M517 142.338h36v36h-36z"/><path stroke="#121212" stroke-linejoin="bevel" stroke-width="2.1" d="M547 160.338h-24M536.5 172.338l10.5-12-10.5-12"/></g><g clip-path="url(#t)"><path fill="#fff" d="M571 142.338h36v36h-36z"/><path stroke="#121212" stroke-width="2.1" d="M593.5 152.838a4.5 4.5 0 1 1-9 0 4.5 4.5 0 0 1 9 0Z"/><path stroke="#121212" stroke-linejoin="bevel" stroke-width="2.1" d="m603.076 174.588-6.968-12.069h-14.123l-6.969 12.069"/></g><g clip-path="url(#u)"><path fill="#fff" d="M625 142.338h36v36h-36z"/><path stroke="#121212" stroke-width="2.1" d="M646 161.838a3 3 0 1 1-6 0 3 3 0 0 1 6 0ZM637.75 151.338a3 3 0 1 1-6 0 3 3 0 0 1 6 0ZM654.25 151.338a3 3 0 1 1-6 0 3 3 0 0 1 6 0Z"/><path stroke="#121212" stroke-linejoin="bevel" stroke-width="2.1" d="m650.5 174.588-3.41-6.166h-8.276l-3.314 6.166M657.125 161.087l-1.89-3.166h-7.11M628.899 161.087l1.889-3.166h7.111"/></g><g clip-path="url(#v)"><path fill="#fff" d="M679 142.338h36v36h-36z"/><path fill="#121212" d="m710.953 174.482-.737.748 1.787-.748zm-27.915-4.881h-1.05v1.05h1.05zm27.915-20.203h1.05v-1.05h-1.05zm-27.915 0v-1.05h-1.05v1.05zm22.961 20.203.737-.748-.307-.302h-.43zm6.004 4.881v-25.084h-2.1v25.084zm-27.915-4.881v-20.203h-2.1v20.203zm26.865-21.253h-27.915v2.1h27.915zm.737 25.386-4.954-4.881-1.474 1.496 4.954 4.881zm-5.691-5.183h-22.961v2.1h22.961z"/><path stroke="#121212" stroke-width="1.8" d="M691 159.588a1.5 1.5 0 1 1-3.001-.001 1.5 1.5 0 0 1 3.001.001ZM698.5 159.588a1.5 1.5 0 1 1-3.001-.001 1.5 1.5 0 0 1 3.001.001ZM706 159.588a1.5 1.5 0 1 1-3.001-.001 1.5 1.5 0 0 1 3.001.001Z"/></g><g clip-path="url(#w)"><path fill="#fff" d="M139 216.338h36v36h-36z"/><path stroke="#121212" stroke-width="2.1" d="M170.95 223.388v21.9h-27.9v-21.9z"/><path stroke="#121212" stroke-linejoin="bevel" stroke-width="2.1" d="m170.5 223.838-13.5 12-13.5-12"/></g><g clip-path="url(#x)"><path fill="#fff" d="M193 216.338h36v36h-36z"/><path stroke="#121212" stroke-width="2.1" d="M223 230.588v17.682h-24v-17.682"/><path stroke="#121212" stroke-linejoin="bevel" stroke-width="2.1" d="m196.75 232.088 14.25-11.25 14.25 11.25"/><path stroke="#121212" stroke-width="2.1" d="M214 240.338a3 3 0 1 1-6 0 3 3 0 0 1 6 0Z"/></g><g clip-path="url(#y)"><path fill="#fff" d="M247 216.338h36v36h-36z"/><path stroke="#121212" stroke-width="2.1" d="M278.95 223.388v23.4h-27.9v-23.4zM272.5 219.338v7.5M265 219.338v7.5M257.5 219.338v7.5M251.5 230.588h27"/><path stroke="#121212" stroke-width="2.1" d="M274.75 239.588a3 3 0 1 1-6 0 3 3 0 0 1 6 0Z"/></g><g clip-path="url(#z)"><path fill="#fff" d="M301 216.338h36v36h-36z"/><path stroke="#121212" stroke-width="2.1" d="M332.943 240.338v7.944h-27.886v-7.944"/><path stroke="#121212" stroke-linejoin="bevel" stroke-width="2.1" d="M319 243.338v-22.5M308.5 229.838l10.5-9 10.5 9"/></g><g clip-path="url(#A)"><path fill="#fff" d="M355 216.338h36v36h-36z"/><path stroke="#121212" stroke-width="2.1" d="M370 220.381h16.944v27.908H370"/><path stroke="#121212" stroke-linejoin="bevel" stroke-width="2.1" d="M382 234.338h-22.5M366.25 243.338l-7.5-9 7.5-9"/></g><g clip-path="url(#B)"><path fill="#fff" d="M409 216.338h36v36h-36z"/><path fill="#121212" d="m436.01 229.418 1.05.001v-.001zm-18 0 1.05.001v-.001zm-.01 7.92.939.469.111-.221v-.247zm-3 6-.939-.47.939 1.52zm24 0v1.05l.939-1.52zm-3-6-1.05-.001v.248l.111.222zm-16.94-7.92c0-4.327 3.484-7.53 7.94-7.53v-2.1c-5.485 0-10.04 4.016-10.04 9.63zm-3.121 14.389 3-6-1.878-.939-3 6zM439 242.288h-24v2.1h24zm-3.939-4.481 3 6 1.878-.939-3-6zm-16.011-.468.01-7.92-2.1-.002-.01 7.92zm15.91-7.922-.01 7.92 2.1.002.01-7.92zm-.407-2.471c.262.76.407 1.588.407 2.472h2.1a9.6 9.6 0 0 0-.523-3.158zM427 221.888c1.585 0 3.051.409 4.278 1.124l1.057-1.815c-1.556-.906-3.387-1.409-5.335-1.409z"/><path stroke="#121212" stroke-width="2.1" d="M431.5 243.338a4.5 4.5 0 0 1-9 0"/><path fill="#121212" fill-rule="evenodd" d="M434.05 222.188a1.95 1.95 0 1 0 0 3.9 1.95 1.95 0 0 0 0-3.9m-4.05 1.95a4.05 4.05 0 1 1 8.1 0 4.05 4.05 0 0 1-8.1 0" clip-rule="evenodd"/></g><g clip-path="url(#C)"><path fill="#fff" d="M463 216.338h36v36h-36z"/><path stroke="#121212" stroke-width="2.1" d="M491.943 225.338v24h-21.879v-24M488.5 220.838h-15M481 243.338v-12M486.25 243.338v-12M475.75 243.338v-12M496 225.338h-30"/></g><g clip-path="url(#D)"><path fill="#fff" d="M517 216.338h36v36h-36z"/><path stroke="#121212" stroke-width="2.1" d="M548.95 234.338c0 7.704-6.246 13.95-13.95 13.95s-13.95-6.246-13.95-13.95c0-7.705 6.246-13.95 13.95-13.95s13.95 6.245 13.95 13.95Z"/><path fill="#121212" d="M533.662 237.886c.024-3.141.984-4.102 2.602-5.086.961-.586 1.711-1.524 1.711-2.836 0-1.594-1.243-2.602-2.789-2.602-1.336 0-2.672.797-2.813 2.719h-2.133c.117-2.836 2.274-4.5 4.946-4.5 2.929 0 4.851 1.898 4.851 4.477 0 1.828-.867 3.117-2.32 4.007-1.453.891-1.992 1.782-2.039 3.821v.117h-2.016zm1.078 5.039c-.82 0-1.523-.68-1.5-1.524-.023-.82.68-1.5 1.5-1.5.821 0 1.5.68 1.5 1.5 0 .844-.679 1.524-1.5 1.524"/></g><g clip-path="url(#E)"><path fill="#fff" d="M571 216.338h36v36h-36z"/><path stroke="#121212" stroke-width="2.1" d="M602.95 234.338c0 7.704-6.246 13.95-13.95 13.95s-13.95-6.246-13.95-13.95c0-7.705 6.246-13.95 13.95-13.95s13.95 6.245 13.95 13.95Z"/><path fill="#121212" d="M590.149 225.813 589.985 238h-1.969l-.164-12.187zm-1.148 17.109c-.821 0-1.524-.68-1.5-1.524-.024-.82.679-1.5 1.5-1.5.82 0 1.5.68 1.5 1.5 0 .844-.68 1.524-1.5 1.524"/></g><g clip-path="url(#F)"><path fill="#fff" d="M625 216.338h36v36h-36z"/><path stroke="#121212" stroke-linejoin="bevel" stroke-width="2.1" d="M657.082 234.862v-1.05l-6.586-11.407-.909-.525h-13.172l-.909.525-6.586 11.407v1.05l6.586 11.407.909.525h13.172l.909-.525z"/><path stroke="#121212" stroke-width="2.1" d="M647.5 234.338a4.5 4.5 0 1 1-9 0 4.5 4.5 0 0 1 9 0Z"/></g><g clip-path="url(#G)"><path fill="#fff" d="M679 216.338h36v36h-36z"/><path stroke="#121212" stroke-width="2.1" d="M685 234.338c0 6.627 5.373 12 12 12s12-5.373 12-12c0-6.628-5.373-12-12-12a12 12 0 0 0-10.587 6.345"/><path stroke="#121212" stroke-linejoin="bevel" stroke-width="2.1" d="m692.44 228.779-6.569 1.135-2.302-6.256"/></g><g clip-path="url(#H)"><path fill="#fff" d="M733 216.338h36v36h-36z"/><path stroke="#121212" stroke-width="2.1" d="M760 231.338c0 5.799-4.701 10.5-10.5 10.5s-10.5-4.701-10.5-10.5 4.701-10.5 10.5-10.5 10.5 4.701 10.5 10.5Z"/><path stroke="#121212" stroke-linejoin="bevel" stroke-width="2.1" d="m755.5 240.338 6 8.25"/></g><defs><clipPath id="a"><path fill="#fff" d="M140 57.338h21v21h-21z"/></clipPath><clipPath id="b"><path fill="#fff" d="M190 52.338h30v30h-30z"/></clipPath><clipPath id="c"><path fill="#fff" d="M238 52.338h30v30h-30z"/></clipPath><clipPath id="d"><path fill="#fff" d="M316 52.338h-30v30h30z"/></clipPath><clipPath id="e"><path fill="#fff" d="M334 52.338h30v30h-30z"/></clipPath><clipPath id="f"><path fill="#fff" d="M382 52.338h30v30h-30z"/></clipPath><clipPath id="g"><path fill="#fff" d="M430 52.338h30v30h-30z"/></clipPath><clipPath id="h"><path fill="#fff" d="M508 52.338h-30v30h30z"/></clipPath><clipPath id="i"><path fill="#fff" d="M526 52.338h30v30h-30z"/></clipPath><clipPath id="j"><path fill="#fff" d="M574 52.338h30v30h-30z"/></clipPath><clipPath id="k"><path fill="#fff" d="M622 52.338h30v30h-30z"/></clipPath><clipPath id="l"><path fill="#fff" d="M139 142.338h36v36h-36z"/></clipPath><clipPath id="m"><path fill="#fff" d="M193 142.338h36v36h-36z"/></clipPath><clipPath id="n"><path fill="#fff" d="M247 142.338h36v36h-36z"/></clipPath><clipPath id="o"><path fill="#fff" d="M301 142.338h36v36h-36z"/></clipPath><clipPath id="p"><path fill="#fff" d="M355 142.338h36v36h-36z"/></clipPath><clipPath id="q"><path fill="#fff" d="M409 142.338h36v36h-36z"/></clipPath><clipPath id="r"><path fill="#fff" d="M463 142.338h36v36h-36z"/></clipPath><clipPath id="s"><path fill="#fff" d="M517 142.338h36v36h-36z"/></clipPath><clipPath id="t"><path fill="#fff" d="M571 142.338h36v36h-36z"/></clipPath><clipPath id="u"><path fill="#fff" d="M625 142.338h36v36h-36z"/></clipPath><clipPath id="v"><path fill="#fff" d="M679 142.338h36v36h-36z"/></clipPath><clipPath id="w"><path fill="#fff" d="M139 216.338h36v36h-36z"/></clipPath><clipPath id="x"><path fill="#fff" d="M193 216.338h36v36h-36z"/></clipPath><clipPath id="y"><path fill="#fff" d="M247 216.338h36v36h-36z"/></clipPath><clipPath id="z"><path fill="#fff" d="M301 216.338h36v36h-36z"/></clipPath><clipPath id="A"><path fill="#fff" d="M355 216.338h36v36h-36z"/></clipPath><clipPath id="B"><path fill="#fff" d="M409 216.338h36v36h-36z"/></clipPath><clipPath id="C"><path fill="#fff" d="M463 216.338h36v36h-36z"/></clipPath><clipPath id="D"><path fill="#fff" d="M517 216.338h36v36h-36z"/></clipPath><clipPath id="E"><path fill="#fff" d="M571 216.338h36v36h-36z"/></clipPath><clipPath id="F"><path fill="#fff" d="M625 216.338h36v36h-36z"/></clipPath><clipPath id="G"><path fill="#fff" d="M679 216.338h36v36h-36z"/></clipPath><clipPath id="H"><path fill="#fff" d="M733 216.338h36v36h-36z"/></clipPath></defs></svg>