<svg xmlns="http://www.w3.org/2000/svg" width="909" height="322" fill="none" viewBox="0 0 909 322"><path fill="#fff" d="M0 .338h909v321H0z"/><path stroke="#6B6B6B" stroke-linejoin="bevel" stroke-width="1.8" d="m149.5 64.838-6-7.5 6-7.5M137.5 64.838l6-7.5-6-7.5M190.5 56.338l-7.5 6-7.5-6"/><path stroke="#121212" stroke-linejoin="bevel" stroke-width="2.1" d="m235 55.838-9 7.5-9-7.5M265 61.838l9-7.5 9 7.5M325.75 66.338l-7.5-9 7.5-9M366.25 66.338l7.5-9-7.5-9M427 55.838l-9-7.5-9 7.5M427 63.338l-9-7.5-9 7.5M475 58.838l-9 7.5-9-7.5"/><path stroke="#121212" stroke-linejoin="bevel" stroke-width="2.1" d="m475 51.338-9 7.5-9-7.5M512.5 66.338l-7.5-9 7.5-9M520 66.338l-7.5-9 7.5-9M563.5 66.338l7.5-9-7.5-9M556 66.338l7.5-9-7.5-9M619 51.338l-12 10.5-6-5.25M667 57.338h-18M658 66.338v-18M715 57.338h-18M769 58.838l-12 9-12-9"/><path stroke="#121212" stroke-linejoin="bevel" stroke-width="2.1" d="m769 49.838-12 9-12-9"/><path stroke="#121212" stroke-width="2.1" d="M164.95 123.338c0 7.704-6.246 13.95-13.95 13.95s-13.95-6.246-13.95-13.95 6.246-13.95 13.95-13.95 13.95 6.246 13.95 13.95Z"/><path fill="#121212" d="M149.662 126.887c.024-3.14.984-4.101 2.602-5.086.961-.586 1.711-1.523 1.711-2.836 0-1.593-1.243-2.601-2.789-2.601-1.336 0-2.672.797-2.813 2.718h-2.133c.117-2.835 2.274-4.5 4.946-4.5 2.929 0 4.851 1.899 4.851 4.477 0 1.828-.867 3.117-2.32 4.008-1.453.89-1.992 1.781-2.039 3.82v.117h-2.016zm1.078 5.039c-.82 0-1.523-.679-1.5-1.523-.023-.821.68-1.5 1.5-1.5.821 0 1.5.679 1.5 1.5 0 .844-.679 1.523-1.5 1.523"/><path stroke="#121212" stroke-width="2.1" d="M218.95 123.338c0 7.704-6.246 13.95-13.95 13.95s-13.95-6.246-13.95-13.95 6.246-13.95 13.95-13.95 13.95 6.246 13.95 13.95Z"/><path fill="#121212" d="M206.149 114.812 205.985 127h-1.969l-.164-12.188zm-1.148 17.109c-.821 0-1.524-.679-1.5-1.523-.024-.82.679-1.5 1.5-1.5a1.51 1.51 0 0 1 0 3.023"/><path stroke="#121212" stroke-linejoin="bevel" stroke-width="2.1" d="M273.08 123.863v-1.05l-6.586-11.407-.909-.525h-13.172l-.909.525-6.586 11.407v1.05l6.586 11.408.909.525h13.172l.909-.525z"/><path stroke="#121212" stroke-width="2.1" d="M263.5 123.338a4.5 4.5 0 1 1-9 0 4.5 4.5 0 0 1 9 0ZM301 123.338c0 6.627 5.373 12 12 12s12-5.373 12-12c0-6.628-5.373-12-12-12a12 12 0 0 0-10.587 6.345"/><path stroke="#121212" stroke-linejoin="bevel" stroke-width="2.1" d="m308.442 117.78-6.569 1.136-2.302-6.257"/><path stroke="#121212" stroke-width="2.1" d="M376 120.338c0 5.799-4.701 10.5-10.5 10.5s-10.5-4.701-10.5-10.5 4.701-10.5 10.5-10.5 10.5 4.701 10.5 10.5Z"/><path stroke="#121212" stroke-linejoin="bevel" stroke-width="2.1" d="m371.5 129.338 6 8.25"/><path stroke="#121212" stroke-width="2.1" d="M431.945 114.338v24h-21.879v-24M428.5 109.838h-15M421 132.338v-12M426.25 132.338v-12M415.75 132.338v-12M436 114.338h-30"/><path fill="#121212" d="m484.01 118.418 1.05.001v-.001zm-18 0 1.05.001v-.001zm-.01 7.92.939.469.111-.221v-.247zm-3 6-.939-.47.939 1.52zm24 0v1.05l.939-1.52zm-3-6-1.05-.001v.248l.111.222zm-16.94-7.92c0-4.327 3.484-7.53 7.94-7.53v-2.1c-5.485 0-10.04 4.016-10.04 9.63zm-3.121 14.389 3-6-1.878-.939-3 6zM487 131.288h-24v2.1h24zm-3.939-4.481 3 6 1.878-.939-3-6zm-16.011-.468.01-7.92-2.1-.002-.01 7.92zm15.91-7.922-.01 7.92 2.1.002.01-7.92zm-.407-2.471c.262.76.407 1.588.407 2.472h2.1a9.6 9.6 0 0 0-.523-3.158zM475 110.888c1.585 0 3.051.409 4.278 1.124l1.057-1.815c-1.556-.906-3.387-1.409-5.335-1.409z"/><path stroke="#121212" stroke-width="2.1" d="M479.5 132.338a4.5 4.5 0 0 1-9 0"/><path fill="#121212" fill-rule="evenodd" d="M482.05 111.188a1.95 1.95 0 1 0 0 3.9 1.95 1.95 0 0 0 0-3.9m-4.05 1.95a4.05 4.05 0 1 1 8.1 0 4.05 4.05 0 0 1-8.1 0" clip-rule="evenodd"/><path stroke="#121212" stroke-width="2.1" d="M526 109.38h16.944v27.908H526"/><path stroke="#121212" stroke-linejoin="bevel" stroke-width="2.1" d="M538 123.338h-22.5M522.25 132.338l-7.5-9 7.5-9"/><path stroke="#121212" stroke-width="2.1" d="M596.941 129.338v7.944h-27.886v-7.944"/><path stroke="#121212" stroke-linejoin="bevel" stroke-width="2.1" d="M583 132.338v-22.5M572.5 118.838l10.5-9 10.5 9"/><path stroke="#121212" stroke-width="2.1" d="M644.801 118.838h6.137l-.001 18.441h-18.436v-6.141"/><path stroke="#121212" stroke-width="2.1" d="M641.95 109.388v18.9h-18.9v-18.9zM687.1 129.338h-9.972v-12h9.972m7.8 12h9.975v-12H694.9M698.5 123.338h-15"/><path stroke="#121212" stroke-linejoin="bevel" stroke-width="2.1" d="m738.25 132.338-7.5-9 7.5-9M751.75 114.338l7.5 9-7.5 9"/><path stroke="#121212" stroke-width="2.1" d="m152.443 184.01.315.378h12.192v20.4h-27.9v-24.9h11.958z"/><path stroke="#121212" stroke-width="2.1" d="M148 196.838a3 3 0 1 1-6 0 3 3 0 0 1 6 0Z"/><path stroke="#121212" stroke-linejoin="bevel" stroke-width="2.1" d="M218.5 192.338h-27M218.5 181.838h-27M218.5 202.838h-27M269.5 204.338l-10.5-12 10.5-12M248.5 180.338l10.5 12-10.5 12M325 192.338h-24M311.5 204.338l-10.5-12 10.5-12M379 192.338h-24M368.5 204.338l10.5-12-10.5-12"/><g stroke="#121212" stroke-width="2.1" clip-path="url(#a)"><path d="M425.5 184.838a4.5 4.5 0 1 1-9 0 4.5 4.5 0 0 1 9 0Z"/><path stroke-linejoin="bevel" d="m435.076 206.588-6.968-12.07h-14.123l-6.969 12.07"/></g><g stroke="#121212" stroke-width="2.1" clip-path="url(#b)"><path d="M478 193.838a3 3 0 1 1-6 0 3 3 0 0 1 6 0ZM469.75 183.338a3 3 0 1 1-6 0 3 3 0 0 1 6 0ZM486.25 183.338a3 3 0 1 1-6 0 3 3 0 0 1 6 0Z"/><path stroke-linejoin="bevel" d="m482.502 206.588-3.41-6.166h-8.276l-3.314 6.166M489.125 193.088l-1.89-3.166h-7.11M460.899 193.088l1.889-3.166h7.111"/></g><path fill="#121212" d="m542.953 206.483-.737.748 1.787-.748zm-27.915-4.88h-1.05v1.05h1.05zm27.915-20.203h1.05v-1.05h-1.05zm-27.915 0v-1.05h-1.05v1.05zm22.961 20.203.737-.748-.307-.302h-.43zm6.004 4.88V181.4h-2.1v25.083zm-27.915-4.88V181.4h-2.1v20.203zm26.865-21.253h-27.915v2.1h27.915zm.737 25.385-4.954-4.88-1.474 1.496 4.954 4.88zm-5.691-5.182h-22.961v2.1h22.961z"/><path stroke="#121212" stroke-width="1.8" d="M523 191.588a1.5 1.5 0 1 1-3.001-.001 1.5 1.5 0 0 1 3.001.001ZM530.5 191.588a1.5 1.5 0 1 1-3.001-.001 1.5 1.5 0 0 1 3.001.001ZM538 191.588a1.5 1.5 0 1 1-3.001-.001 1.5 1.5 0 0 1 3.001.001Z"/><path stroke="#121212" stroke-width="2.1" d="M596.95 181.388v21.9h-27.9v-21.9z"/><path stroke="#121212" stroke-linejoin="bevel" stroke-width="2.1" d="m596.5 181.838-13.5 12-13.5-12"/><path stroke="#121212" stroke-width="2.1" d="M649 188.588v17.682h-24v-17.682"/><path stroke="#121212" stroke-linejoin="bevel" stroke-width="2.1" d="m622.75 190.088 14.25-11.25 14.25 11.25"/><path stroke="#121212" stroke-width="2.1" d="M640 198.338a3 3 0 1 1-6 0 3 3 0 0 1 6 0ZM704.95 181.388v23.4h-27.9v-23.4zM698.5 177.338v7.5M691 177.338v7.5M683.5 177.338v7.5M677.5 188.588h27"/><path stroke="#121212" stroke-width="2.1" d="M700.75 197.588a3 3 0 1 1-6 0 3 3 0 0 1 6 0Z"/><path stroke="#121212" stroke-linejoin="bevel" stroke-width="2.1" d="m731.5 201.338 22.5-22.5 4.5 4.5-22.5 22.5h-4.5z"/><path stroke="#121212" stroke-width="2.1" d="m748.75 183.338 5.25 5.25"/><g clip-path="url(#c)"><path stroke="#121212" stroke-width="2.1" d="M158.5 256.838a4.5 4.5 0 1 1-9 0 4.5 4.5 0 0 1 9 0Z"/><path stroke="#121212" stroke-linejoin="bevel" stroke-width="2.1" d="m140.016 278.588 6.969-12.07h10.592M166.767 266.606l3.019 5.229-3.019 5.228h-6.037l-3.018-5.228 3.018-5.229z"/><path fill="#121212" d="M165.809 271.835a2.063 2.063 0 1 1-4.125-.001 2.063 2.063 0 0 1 4.125.001"/></g><path stroke="#121212" stroke-width="2.1" d="M221.941 270.338v7.944h-27.886v-7.944"/><path stroke="#121212" stroke-linejoin="bevel" stroke-width="2.1" d="M208 249.338v22.5M218.5 262.838l-10.5 9-10.5-9"/><g clip-path="url(#d)"><path fill="url(#e)" d="M273.091 283.43a.981.981 0 0 1-1.552.799l-6.424-4.589a.98.98 0 0 0-1.141 0l-6.424 4.589a.981.981 0 0 1-1.552-.799v-17.628a2.44 2.44 0 0 1 2.442-2.441h12.209a2.44 2.44 0 0 1 2.442 2.441z"/><path fill="url(#f)" d="M262.363 245.001a3.89 3.89 0 0 1 4.577 0l10.596 7.698a3.89 3.89 0 0 1 1.415 4.353l-4.048 12.457a3.89 3.89 0 0 1-3.703 2.69h-13.097a3.89 3.89 0 0 1-3.703-2.69l-4.048-12.457a3.89 3.89 0 0 1 1.415-4.353z"/><path fill="#fff" fill-rule="evenodd" stroke="#fff" stroke-linecap="round" stroke-linejoin="round" stroke-width=".27" d="M271.846 254.684a.925.925 0 0 1 0 1.308l-8.582 8.582a.925.925 0 0 1-1.296.012l-4.439-4.277a.925.925 0 1 1 1.283-1.332l3.786 3.648 7.94-7.941a.925.925 0 0 1 1.308 0" clip-rule="evenodd"/></g><g clip-path="url(#g)"><path fill="#368FF7" d="m331.254 245.091 3.263 6.149 6.856 1.203-.975 6.892 4.84 5.003-4.84 5.003.975 6.892-6.856 1.202-3.263 6.149-6.253-3.057-6.254 3.057-3.262-6.148-6.856-1.203.975-6.892-4.84-5.003 4.84-5.003-.975-6.892 6.856-1.203 3.262-6.149 6.254 3.057z"/><path fill="#fff" fill-rule="evenodd" stroke="#fff" stroke-linecap="round" stroke-linejoin="round" stroke-width=".3" d="M333.384 258.731a1.09 1.09 0 0 1 0 1.544l-10.131 10.131c-.42.42-1.101.427-1.529.014l-5.24-5.05a1.091 1.091 0 1 1 1.515-1.572l4.468 4.306 9.374-9.373a1.09 1.09 0 0 1 1.543 0" clip-rule="evenodd"/></g><path stroke="#121212" stroke-width="2.1" d="M370 277.838v-27h15l9 8.1v18.9z"/><path stroke="#121212" stroke-linecap="round" stroke-linejoin="round" stroke-width="2.1" d="M385 250.838v9h9M388 265.838h-12M388 271.838h-12M379 259.838h-3"/><path stroke="#121212" stroke-linejoin="bevel" stroke-width="2.1" d="M425.5 280.838v-30M425.5 268.838H448l-4.5-7.5 4.5-7.5h-22.5"/><defs><clipPath id="a"><path fill="#fff" d="M403 174.338h36v36h-36z"/></clipPath><clipPath id="b"><path fill="#fff" d="M457 174.338h36v36h-36z"/></clipPath><clipPath id="c"><path fill="#fff" d="M136 246.338h36v36h-36z"/></clipPath><clipPath id="d"><path fill="#fff" d="M244 243.338h42v42h-42z"/></clipPath><clipPath id="g"><path fill="#fff" d="M304 243.338h42v42h-42z"/></clipPath><linearGradient id="e" x1="264.545" x2="264.545" y1="263.361" y2="285.337" gradientUnits="userSpaceOnUse"><stop offset=".521" stop-color="#EE695D"/><stop offset="1" stop-color="#EA4335"/></linearGradient><linearGradient id="f" x1="264.651" x2="264.651" y1="243.338" y2="275.246" gradientUnits="userSpaceOnUse"><stop stop-color="#FBBC04"/><stop offset="1" stop-color="#F9AB00"/></linearGradient></defs></svg>