<svg width="880" height="126" viewBox="0 0 880 126" fill="none" xmlns="http://www.w3.org/2000/svg">
<g clip-path="url(#clip0_2269_3847)">
<rect width="880" height="125.6" fill="white"/>
<mask id="path-1-inside-1_2269_3847" fill="white">
<path d="M0 0H880V43.2H0V0Z"/>
</mask>
<path d="M0 0H880V43.2H0V0Z" fill="white"/>
<path d="M880 42.4H0V44H880V42.4Z" fill="#C2C2C2" mask="url(#path-1-inside-1_2269_3847)"/>
<g clip-path="url(#clip1_2269_3847)">
<path d="M53.1566 22.0473L59.5153 18.3215C61.0077 17.4516 61.5268 15.5149 60.667 13.9885C59.8073 12.4621 57.8932 11.9533 56.3847 12.8232L45.3867 19.2407L53.1566 22.0473Z" fill="#EA4335"/>
<path d="M57.9427 31.5994C59.0295 31.5994 60.0838 31.0249 60.6516 30.0073C61.5113 28.4973 61.0085 26.5606 59.4999 25.6743L48.502 19.2568C47.0096 18.3869 45.0955 18.8957 44.2196 20.4221C43.3599 21.9321 43.8627 23.8688 45.3713 24.7551L56.3692 31.1726C56.8721 31.4517 57.4236 31.5994 57.9427 31.5994Z" fill="#4285F4"/>
<path d="M68.8918 31.5997C69.4271 31.5997 69.9624 31.4684 70.449 31.173L81.4469 24.7555L73.7906 21.916L67.3345 25.691C65.8422 26.5609 65.3231 28.4977 66.1828 30.0241C66.7506 31.0253 67.805 31.5997 68.8918 31.5997Z" fill="#FBBC04"/>
<path d="M79.8737 25.166C80.9605 25.166 82.0149 24.5915 82.5826 23.5903C83.4424 22.0803 82.9395 20.1436 81.4309 19.2573L70.4492 12.8398C68.9569 11.9699 67.0428 12.4787 66.1668 14.0051C65.3071 15.5151 65.81 17.4518 67.3185 18.3381L78.3165 24.7556C78.8031 25.0347 79.3384 25.166 79.8737 25.166Z" fill="#0F9D58"/>
</g>
<path d="M95.9924 21.212H101.608C101.64 21.34 101.667 21.4947 101.688 21.676C101.71 21.8573 101.72 22.0387 101.72 22.22C101.72 22.956 101.608 23.6493 101.384 24.3C101.16 24.9507 100.808 25.532 100.328 26.044C99.8164 26.588 99.2031 27.0093 98.4884 27.308C97.7737 27.6067 96.9577 27.756 96.0404 27.756C95.2084 27.756 94.4244 27.6067 93.6884 27.308C92.9524 27.0093 92.3124 26.5933 91.7684 26.06C91.2244 25.5267 90.7924 24.8973 90.4724 24.172C90.1524 23.436 89.9924 22.636 89.9924 21.772C89.9924 20.908 90.1524 20.1133 90.4724 19.388C90.7924 18.652 91.2244 18.0173 91.7684 17.484C92.3124 16.9507 92.9524 16.5347 93.6884 16.236C94.4244 15.9373 95.2084 15.788 96.0404 15.788C96.9684 15.788 97.7951 15.948 98.5204 16.268C99.2564 16.588 99.8857 17.0307 100.408 17.596L98.9204 19.052C98.5471 18.6573 98.1311 18.3587 97.6724 18.156C97.2137 17.9427 96.6644 17.836 96.0244 17.836C95.5017 17.836 95.0057 17.932 94.5364 18.124C94.0671 18.3053 93.6564 18.5667 93.3044 18.908C92.9524 19.2493 92.6697 19.6653 92.4564 20.156C92.2537 20.636 92.1524 21.1747 92.1524 21.772C92.1524 22.3693 92.2537 22.9133 92.4564 23.404C92.6697 23.884 92.9524 24.2947 93.3044 24.636C93.6671 24.9773 94.0831 25.244 94.5524 25.436C95.0217 25.6173 95.5231 25.708 96.0564 25.708C96.6644 25.708 97.1764 25.6227 97.5924 25.452C98.0191 25.2707 98.3817 25.0413 98.6804 24.764C98.8937 24.572 99.0751 24.332 99.2244 24.044C99.3844 23.7453 99.5071 23.4147 99.5924 23.052H95.9924V21.212ZM103.506 16.044H107.378C108.284 16.044 109.1 16.1827 109.826 16.46C110.551 16.7373 111.17 17.132 111.682 17.644C112.194 18.1453 112.583 18.748 112.85 19.452C113.127 20.156 113.266 20.9293 113.266 21.772C113.266 22.6253 113.127 23.404 112.85 24.108C112.583 24.812 112.194 25.4147 111.682 25.916C111.17 26.4173 110.551 26.8067 109.826 27.084C109.1 27.3613 108.284 27.5 107.378 27.5H103.506V16.044ZM107.282 25.452C107.911 25.452 108.466 25.3667 108.946 25.196C109.426 25.0147 109.826 24.764 110.146 24.444C110.466 24.124 110.706 23.74 110.866 23.292C111.026 22.8333 111.106 22.3267 111.106 21.772C111.106 21.2173 111.026 20.716 110.866 20.268C110.706 19.8093 110.466 19.42 110.146 19.1C109.826 18.78 109.426 18.5347 108.946 18.364C108.466 18.1827 107.911 18.092 107.282 18.092H105.666V25.452H107.282ZM118.51 27.756C118.019 27.756 117.55 27.6867 117.102 27.548C116.654 27.4093 116.243 27.2013 115.87 26.924C115.496 26.6467 115.171 26.3107 114.894 25.916C114.616 25.5107 114.398 25.0413 114.238 24.508L116.27 23.708C116.419 24.284 116.68 24.764 117.054 25.148C117.427 25.5213 117.918 25.708 118.526 25.708C118.75 25.708 118.963 25.6813 119.166 25.628C119.379 25.564 119.566 25.4787 119.726 25.372C119.896 25.2547 120.03 25.1107 120.126 24.94C120.222 24.7693 120.27 24.572 120.27 24.348C120.27 24.1347 120.232 23.9427 120.158 23.772C120.083 23.6013 119.955 23.4413 119.774 23.292C119.603 23.1427 119.374 22.9987 119.086 22.86C118.808 22.7213 118.462 22.5773 118.046 22.428L117.342 22.172C117.032 22.0653 116.718 21.9213 116.398 21.74C116.088 21.5587 115.806 21.34 115.55 21.084C115.294 20.828 115.08 20.5293 114.91 20.188C114.75 19.836 114.67 19.4413 114.67 19.004C114.67 18.556 114.755 18.14 114.926 17.756C115.107 17.3613 115.358 17.02 115.678 16.732C116.008 16.4333 116.398 16.204 116.846 16.044C117.304 15.8733 117.811 15.788 118.366 15.788C118.942 15.788 119.438 15.868 119.854 16.028C120.28 16.1773 120.638 16.3747 120.926 16.62C121.224 16.8547 121.464 17.116 121.646 17.404C121.827 17.692 121.96 17.964 122.046 18.22L120.142 19.02C120.035 18.7 119.838 18.412 119.55 18.156C119.272 17.9 118.888 17.772 118.398 17.772C117.928 17.772 117.539 17.884 117.23 18.108C116.92 18.3213 116.766 18.604 116.766 18.956C116.766 19.2973 116.915 19.5907 117.214 19.836C117.512 20.0707 117.987 20.3 118.638 20.524L119.358 20.764C119.816 20.924 120.232 21.1107 120.606 21.324C120.99 21.5267 121.315 21.772 121.582 22.06C121.859 22.348 122.067 22.6787 122.206 23.052C122.355 23.4147 122.43 23.836 122.43 24.316C122.43 24.9133 122.307 25.4307 122.062 25.868C121.827 26.2947 121.523 26.6467 121.15 26.924C120.776 27.2013 120.355 27.4093 119.886 27.548C119.416 27.6867 118.958 27.756 118.51 27.756ZM134.225 25.66C133.659 26.3427 132.993 26.8653 132.225 27.228C131.457 27.58 130.598 27.756 129.649 27.756C128.795 27.756 128.001 27.6013 127.265 27.292C126.539 26.9827 125.91 26.5613 125.377 26.028C124.843 25.4947 124.422 24.8653 124.113 24.14C123.803 23.404 123.649 22.6147 123.649 21.772C123.649 20.9293 123.803 20.1453 124.113 19.42C124.422 18.684 124.843 18.0493 125.377 17.516C125.91 16.9827 126.539 16.5613 127.265 16.252C128.001 15.9427 128.795 15.788 129.649 15.788C130.566 15.788 131.371 15.948 132.065 16.268C132.769 16.588 133.393 17.052 133.937 17.66L132.417 19.132C132.075 18.7373 131.681 18.4227 131.233 18.188C130.795 17.9533 130.273 17.836 129.665 17.836C129.131 17.836 128.63 17.932 128.161 18.124C127.691 18.3053 127.281 18.5667 126.929 18.908C126.587 19.2493 126.315 19.6653 126.113 20.156C125.91 20.636 125.809 21.1747 125.809 21.772C125.809 22.3693 125.91 22.9133 126.113 23.404C126.315 23.884 126.587 24.2947 126.929 24.636C127.281 24.9773 127.691 25.244 128.161 25.436C128.63 25.6173 129.131 25.708 129.665 25.708C130.305 25.708 130.87 25.58 131.361 25.324C131.862 25.0573 132.305 24.684 132.689 24.204L134.225 25.66Z" fill="#121212"/>
<path d="M143.638 26H142.607V17.9808H143.638V21.4192H147.647V17.9808H148.678V26H147.647V22.3824H143.638V26ZM149.793 23.256C149.793 22.4123 150.058 21.7141 150.588 21.1616C151.125 20.6091 151.801 20.3328 152.615 20.3328C153.429 20.3328 154.101 20.6091 154.631 21.1616C155.169 21.7141 155.437 22.4123 155.437 23.256C155.437 24.1072 155.169 24.8053 154.631 25.3504C154.101 25.9029 153.429 26.1792 152.615 26.1792C151.801 26.1792 151.125 25.9029 150.588 25.3504C150.058 24.7979 149.793 24.0997 149.793 23.256ZM150.823 23.256C150.823 23.8459 150.995 24.3237 151.338 24.6896C151.682 25.0555 152.107 25.2384 152.615 25.2384C153.123 25.2384 153.548 25.0555 153.892 24.6896C154.235 24.3237 154.407 23.8459 154.407 23.256C154.407 22.6736 154.235 22.1995 153.892 21.8336C153.541 21.4603 153.115 21.2736 152.615 21.2736C152.115 21.2736 151.689 21.4603 151.338 21.8336C150.995 22.1995 150.823 22.6736 150.823 23.256ZM156.264 20.512H157.25V21.2736H157.294C157.451 21.0048 157.69 20.7808 158.011 20.6016C158.34 20.4224 158.679 20.3328 159.03 20.3328C159.702 20.3328 160.218 20.5269 160.576 20.9152C160.942 21.296 161.125 21.8411 161.125 22.5504V26H160.094V22.6176C160.072 21.7216 159.62 21.2736 158.739 21.2736C158.328 21.2736 157.985 21.4416 157.709 21.7776C157.432 22.1061 157.294 22.5019 157.294 22.9648V26H156.264V20.512ZM164.744 25.2384C165.251 25.2384 165.666 25.0555 165.987 24.6896C166.323 24.3237 166.491 23.8459 166.491 23.256C166.491 22.6811 166.323 22.2069 165.987 21.8336C165.658 21.4603 165.244 21.2736 164.744 21.2736C164.251 21.2736 163.836 21.4603 163.5 21.8336C163.164 22.2069 162.996 22.6811 162.996 23.256C162.996 23.8384 163.164 24.3125 163.5 24.6784C163.836 25.0517 164.251 25.2384 164.744 25.2384ZM164.71 28.5984C164.404 28.5984 164.116 28.5573 163.848 28.4752C163.579 28.4005 163.332 28.2923 163.108 28.1504C162.892 28.0085 162.705 27.8405 162.548 27.6464C162.392 27.4523 162.272 27.2357 162.19 26.9968L163.164 26.5936C163.276 26.9147 163.47 27.1723 163.747 27.3664C164.023 27.5605 164.344 27.6576 164.71 27.6576C165.27 27.6576 165.707 27.4896 166.02 27.1536C166.334 26.8176 166.491 26.3547 166.491 25.7648V25.2384H166.446C166.252 25.5296 165.987 25.7611 165.651 25.9328C165.322 26.0971 164.964 26.1792 164.576 26.1792C163.859 26.1792 163.243 25.8992 162.728 25.3392C162.22 24.7643 161.966 24.0699 161.966 23.256C161.966 22.4421 162.22 21.7515 162.728 21.184C163.243 20.6165 163.859 20.3328 164.576 20.3328C164.964 20.3328 165.322 20.4187 165.651 20.5904C165.987 20.7547 166.252 20.9824 166.446 21.2736H166.491V20.512H167.476V25.7648C167.476 26.6459 167.226 27.3365 166.726 27.8368C166.218 28.3445 165.546 28.5984 164.71 28.5984ZM170.065 18.6192C170.065 18.8208 169.995 18.9925 169.853 19.1344C169.711 19.2763 169.539 19.3472 169.337 19.3472C169.136 19.3472 168.964 19.2763 168.822 19.1344C168.68 18.9925 168.609 18.8208 168.609 18.6192C168.609 18.4176 168.68 18.2459 168.822 18.104C168.964 17.9621 169.136 17.8912 169.337 17.8912C169.539 17.8912 169.711 17.9621 169.853 18.104C169.995 18.2459 170.065 18.4176 170.065 18.6192ZM169.853 20.512V26H168.822V20.512H169.853ZM176.021 26H174.778L173.064 23.4128L172.224 24.2416V26H171.194V17.9808H172.224V22.92L174.598 20.512H175.92V20.5568L173.781 22.6848L176.021 25.9552V26ZM181.818 26.1792C180.929 26.1792 180.213 25.888 179.667 25.3056C179.122 24.7307 178.85 23.9691 178.85 23.0208V17.9808H179.88V23.0656C179.88 23.7227 180.052 24.2416 180.395 24.6224C180.739 25.0032 181.213 25.1936 181.818 25.1936C182.423 25.1936 182.897 25.0032 183.24 24.6224C183.584 24.2416 183.755 23.7227 183.755 23.0656V17.9808H184.786V23.0208C184.786 23.9915 184.517 24.7605 183.979 25.328C183.442 25.8955 182.721 26.1792 181.818 26.1792ZM186.036 20.512H187.021V21.2736H187.066C187.223 21.0048 187.462 20.7808 187.783 20.6016C188.112 20.4224 188.451 20.3328 188.802 20.3328C189.474 20.3328 189.989 20.5269 190.348 20.9152C190.714 21.296 190.897 21.8411 190.897 22.5504V26H189.866V22.6176C189.844 21.7216 189.392 21.2736 188.511 21.2736C188.1 21.2736 187.757 21.4416 187.481 21.7776C187.204 22.1061 187.066 22.5019 187.066 22.9648V26H186.036V20.512ZM193.439 18.6192C193.439 18.8208 193.368 18.9925 193.226 19.1344C193.084 19.2763 192.913 19.3472 192.711 19.3472C192.509 19.3472 192.338 19.2763 192.196 19.1344C192.054 18.9925 191.983 18.8208 191.983 18.6192C191.983 18.4176 192.054 18.2459 192.196 18.104C192.338 17.9621 192.509 17.8912 192.711 17.8912C192.913 17.8912 193.084 17.9621 193.226 18.104C193.368 18.2459 193.439 18.4176 193.439 18.6192ZM193.226 20.512V26H192.196V20.512H193.226ZM197.233 26H196.202L193.985 20.512H195.105L196.717 24.768H196.74L198.375 20.512H199.473L197.233 26ZM201.021 25.3056C201.021 25.5147 200.946 25.6939 200.797 25.8432C200.655 25.9925 200.476 26.0672 200.259 26.0672C200.05 26.0672 199.871 25.9925 199.722 25.8432C199.572 25.6939 199.498 25.5147 199.498 25.3056C199.498 25.0891 199.572 24.9099 199.722 24.768C199.871 24.6187 200.05 24.544 200.259 24.544C200.476 24.544 200.655 24.6187 200.797 24.768C200.946 24.9099 201.021 25.0891 201.021 25.3056Z" fill="#368FF7"/>
<mask id="path-9-inside-2_2269_3847" fill="white">
<path d="M729.9 22.0004C729.9 13.6609 736.661 6.90039 745 6.90039H819.8C828.14 6.90039 834.9 13.6609 834.9 22.0004C834.9 30.3399 828.14 37.1004 819.8 37.1004H745C736.661 37.1004 729.9 30.3399 729.9 22.0004Z"/>
</mask>
<path d="M729.9 22.0004C729.9 13.6609 736.661 6.90039 745 6.90039H819.8C828.14 6.90039 834.9 13.6609 834.9 22.0004C834.9 30.3399 828.14 37.1004 819.8 37.1004H745C736.661 37.1004 729.9 30.3399 729.9 22.0004Z" fill="white"/>
<path d="M745 7.70039H819.8V6.10039H745V7.70039ZM819.8 36.3004H745V37.9004H819.8V36.3004ZM745 36.3004C737.103 36.3004 730.7 29.8981 730.7 22.0004H729.1C729.1 30.7817 736.219 37.9004 745 37.9004V36.3004ZM834.1 22.0004C834.1 29.8981 827.698 36.3004 819.8 36.3004V37.9004C828.582 37.9004 835.7 30.7817 835.7 22.0004H834.1ZM819.8 7.70039C827.698 7.70039 834.1 14.1027 834.1 22.0004H835.7C835.7 13.2191 828.582 6.10039 819.8 6.10039V7.70039ZM745 6.10039C736.219 6.10039 729.1 13.2191 729.1 22.0004H730.7C730.7 14.1027 737.103 7.70039 745 7.70039V6.10039Z" fill="#C2C2C2" mask="url(#path-9-inside-2_2269_3847)"/>
<path d="M750.408 25.2578V23.6002H747.586V20.3522H753.287V19.0754H747.575V18.1122H754.474V21.3042H748.784V22.637H754.698V23.6002H751.607V25.2578H755.527V26.2322H746.511V25.2578H750.408ZM764.05 18.4034V19.5122C764.05 20.4082 764.028 21.2034 763.983 21.8978C763.946 22.5922 763.845 23.4023 763.681 24.3282L762.471 24.2162C762.643 23.35 762.747 22.5735 762.785 21.8866C762.829 21.1922 762.852 20.4007 762.852 19.5122V19.3666H757.14V18.4034H764.05ZM756.188 25.045H765.193V26.0306H756.188V25.045ZM774.086 17.4514V24.6418H772.876V17.4514H774.086ZM766.044 20.5986C766.044 20.1207 766.16 19.6914 766.391 19.3106C766.623 18.9298 766.94 18.6348 767.343 18.4258C767.754 18.2092 768.206 18.101 768.698 18.101C769.199 18.101 769.65 18.2092 770.054 18.4258C770.457 18.6348 770.774 18.9298 771.006 19.3106C771.237 19.6914 771.353 20.1207 771.353 20.5986C771.353 21.069 771.237 21.4946 771.006 21.8754C770.774 22.2562 770.457 22.5548 770.054 22.7714C769.65 22.9804 769.199 23.085 768.698 23.085C768.206 23.085 767.754 22.9804 767.343 22.7714C766.94 22.5548 766.623 22.2562 766.391 21.8754C766.16 21.4946 766.044 21.069 766.044 20.5986ZM767.22 20.5986C767.22 21.0316 767.358 21.3788 767.634 21.6402C767.918 21.9015 768.273 22.0322 768.698 22.0322C769.124 22.0322 769.479 21.9015 769.762 21.6402C770.046 21.3714 770.188 21.0242 770.188 20.5986C770.188 20.158 770.046 19.8071 769.762 19.5458C769.479 19.277 769.124 19.1426 768.698 19.1426C768.273 19.1426 767.918 19.277 767.634 19.5458C767.358 19.8071 767.22 20.158 767.22 20.5986ZM767.567 23.925H768.766V26.2322H774.366V27.2066H767.567V23.925ZM776.841 27.1282H775.676L778.073 17.8546H779.227L776.841 27.1282ZM787.971 17.429V21.3378H789.449V22.3346H787.971V27.3858H786.761V17.429H787.971ZM780.198 24.6754C781.4 24.0631 782.326 23.3276 782.975 22.469C783.633 21.6028 784.021 20.5986 784.14 19.4562H780.713V18.4818H785.361C785.361 21.7298 783.868 24.1004 780.881 25.5938L780.198 24.6754ZM798.118 17.4402V22.7826H796.92V17.4402H798.118ZM790.088 20.1954C790.088 19.7474 790.2 19.3516 790.424 19.0082C790.655 18.6572 790.973 18.3847 791.376 18.1906C791.779 17.989 792.234 17.8882 792.742 17.8882C793.242 17.8882 793.694 17.989 794.097 18.1906C794.501 18.3847 794.818 18.6572 795.049 19.0082C795.281 19.3516 795.397 19.7474 795.397 20.1954C795.397 20.6434 795.281 21.0466 795.049 21.405C794.825 21.7559 794.508 22.0322 794.097 22.2338C793.694 22.4279 793.242 22.525 792.742 22.525C792.234 22.525 791.779 22.4279 791.376 22.2338C790.973 22.0322 790.655 21.7559 790.424 21.405C790.2 21.054 790.088 20.6508 790.088 20.1954ZM791.264 20.1954C791.264 20.5986 791.402 20.9234 791.678 21.1698C791.954 21.4087 792.309 21.5282 792.742 21.5282C793.175 21.5282 793.53 21.4087 793.806 21.1698C794.082 20.9234 794.221 20.5986 794.221 20.1954C794.221 19.7996 794.082 19.4823 793.806 19.2434C793.53 18.997 793.175 18.8738 792.742 18.8738C792.309 18.8738 791.954 18.997 791.678 19.2434C791.402 19.4823 791.264 19.7996 791.264 20.1954ZM791.6 23.253H792.787V24.2946H796.931V23.253H798.118V27.2738H791.6V23.253ZM796.931 26.3106V25.2242H792.787V26.3106H796.931ZM807.336 17.4402V21.4162H808.848V22.413H807.336V27.397H806.126V17.4402H807.336ZM799.53 18.9634H801.87V17.5858H803.091V18.9634H805.376V19.9266H799.53V18.9634ZM800 22.9394C800 22.4914 800.108 22.0919 800.325 21.741C800.541 21.3826 800.836 21.1063 801.21 20.9122C801.59 20.7106 802.016 20.6098 802.486 20.6098C802.957 20.6098 803.379 20.7106 803.752 20.9122C804.133 21.1063 804.428 21.3826 804.637 21.741C804.853 22.0919 804.962 22.4914 804.962 22.9394C804.962 23.3948 804.853 23.8018 804.637 24.1602C804.428 24.5111 804.133 24.7874 803.752 24.989C803.379 25.1831 802.957 25.2802 802.486 25.2802C802.016 25.2802 801.59 25.1831 801.21 24.989C800.836 24.7874 800.541 24.5074 800.325 24.149C800.108 23.7906 800 23.3874 800 22.9394ZM801.154 22.9394C801.154 23.35 801.277 23.6786 801.523 23.925C801.77 24.1714 802.091 24.2946 802.486 24.2946C802.875 24.2946 803.192 24.1714 803.438 23.925C803.685 23.6786 803.808 23.35 803.808 22.9394C803.808 22.5362 803.685 22.2114 803.438 21.965C803.192 21.7186 802.875 21.5954 802.486 21.5954C802.091 21.5954 801.77 21.7186 801.523 21.965C801.277 22.2114 801.154 22.5362 801.154 22.9394ZM817.495 17.4402V27.397H816.285V17.4402H817.495ZM809.319 24.6866C810.595 24.0668 811.555 23.3314 812.197 22.4802C812.839 21.6215 813.212 20.6098 813.317 19.445H809.823V18.4818H814.549C814.549 20.0722 814.194 21.4647 813.485 22.6594C812.776 23.8466 811.6 24.8396 809.957 25.6386L809.319 24.6866Z" fill="#121212"/>
<path d="M44.8008 0L44.8008 168.8" stroke="#BB362A" stroke-width="0.8"/>
<path d="M835.199 0L835.199 168.8" stroke="#BB362A" stroke-width="0.8"/>
<path d="M44.5757 88.5757C44.3414 88.8101 44.3414 89.1899 44.5757 89.4243L48.3941 93.2426C48.6284 93.477 49.0083 93.477 49.2426 93.2426C49.477 93.0083 49.477 92.6284 49.2426 92.3941L45.8485 89L49.2426 85.6059C49.477 85.3716 49.477 84.9917 49.2426 84.7574C49.0083 84.523 48.6284 84.523 48.3941 84.7574L44.5757 88.5757ZM835.424 89.4243C835.659 89.1899 835.659 88.8101 835.424 88.5757L831.606 84.7574C831.372 84.523 830.992 84.523 830.757 84.7574C830.523 84.9917 830.523 85.3716 830.757 85.6059L834.151 89L830.757 92.3941C830.523 92.6284 830.523 93.0083 830.757 93.2426C830.992 93.477 831.372 93.477 831.606 93.2426L835.424 89.4243ZM45 89.6H835V88.4H45V89.6Z" fill="#6B6B6B"/>
<path d="M423.529 60.012C422.913 60.012 422.409 60.2127 422.017 60.614C421.634 61.006 421.443 61.51 421.443 62.126C421.443 62.7513 421.634 63.2647 422.017 63.666C422.409 64.058 422.913 64.254 423.529 64.254C424.126 64.254 424.611 64.058 424.985 63.666C425.367 63.2647 425.559 62.7513 425.559 62.126C425.559 61.51 425.367 61.006 424.985 60.614C424.611 60.2127 424.126 60.012 423.529 60.012ZM419.987 62.126C419.987 61.4727 420.136 60.8893 420.435 60.376C420.733 59.8627 421.149 59.4613 421.681 59.172C422.222 58.8827 422.833 58.738 423.515 58.738C424.196 58.738 424.798 58.8827 425.321 59.172C425.853 59.4613 426.268 59.8627 426.567 60.376C426.865 60.8893 427.015 61.4727 427.015 62.126C427.015 62.7513 426.833 63.3953 426.469 64.058L423.655 69.056H421.989L424.019 65.472C423.832 65.5187 423.65 65.542 423.473 65.542C422.801 65.5327 422.199 65.3833 421.667 65.094C421.135 64.7953 420.719 64.3893 420.421 63.876C420.131 63.3627 419.987 62.7793 419.987 62.126ZM431.727 67.964C432.315 67.964 432.791 67.796 433.155 67.46C433.528 67.1147 433.715 66.6713 433.715 66.13C433.715 65.5887 433.528 65.15 433.155 64.814C432.791 64.4687 432.315 64.296 431.727 64.296C431.129 64.296 430.644 64.4687 430.271 64.814C429.897 65.15 429.711 65.5887 429.711 66.13C429.711 66.6713 429.897 67.1147 430.271 67.46C430.644 67.796 431.129 67.964 431.727 67.964ZM428.255 66.158C428.255 65.7007 428.413 65.2433 428.731 64.786C429.048 64.3193 429.454 63.9507 429.949 63.68C429.538 63.4 429.202 63.0547 428.941 62.644C428.679 62.2333 428.549 61.846 428.549 61.482C428.549 60.9407 428.684 60.46 428.955 60.04C429.225 59.6107 429.599 59.2793 430.075 59.046C430.56 58.8033 431.111 58.682 431.727 58.682C432.343 58.682 432.889 58.8033 433.365 59.046C433.85 59.2793 434.228 59.6107 434.499 60.04C434.769 60.46 434.905 60.9407 434.905 61.482C434.905 61.8553 434.774 62.2473 434.513 62.658C434.251 63.0687 433.915 63.4093 433.505 63.68C433.999 63.96 434.401 64.3287 434.709 64.786C435.017 65.2433 435.171 65.7007 435.171 66.158C435.171 66.746 435.026 67.2733 434.737 67.74C434.447 68.1973 434.041 68.5567 433.519 68.818C432.996 69.07 432.399 69.196 431.727 69.196C431.055 69.196 430.453 69.07 429.921 68.818C429.398 68.5567 428.987 68.1973 428.689 67.74C428.399 67.2733 428.255 66.746 428.255 66.158ZM430.005 61.482C430.005 61.9487 430.163 62.3267 430.481 62.616C430.798 62.9053 431.213 63.05 431.727 63.05C432.231 63.05 432.641 62.9053 432.959 62.616C433.285 62.3173 433.449 61.9393 433.449 61.482C433.449 61.0247 433.285 60.6513 432.959 60.362C432.641 60.0633 432.231 59.914 431.727 59.914C431.213 59.914 430.798 60.0587 430.481 60.348C430.163 60.6373 430.005 61.0153 430.005 61.482ZM439.886 67.964C440.474 67.964 440.95 67.796 441.314 67.46C441.687 67.1147 441.874 66.6713 441.874 66.13C441.874 65.5887 441.687 65.15 441.314 64.814C440.95 64.4687 440.474 64.296 439.886 64.296C439.288 64.296 438.803 64.4687 438.43 64.814C438.056 65.15 437.87 65.5887 437.87 66.13C437.87 66.6713 438.056 67.1147 438.43 67.46C438.803 67.796 439.288 67.964 439.886 67.964ZM436.414 66.158C436.414 65.7007 436.572 65.2433 436.89 64.786C437.207 64.3193 437.613 63.9507 438.108 63.68C437.697 63.4 437.361 63.0547 437.1 62.644C436.838 62.2333 436.708 61.846 436.708 61.482C436.708 60.9407 436.843 60.46 437.114 60.04C437.384 59.6107 437.758 59.2793 438.234 59.046C438.719 58.8033 439.27 58.682 439.886 58.682C440.502 58.682 441.048 58.8033 441.524 59.046C442.009 59.2793 442.387 59.6107 442.658 60.04C442.928 60.46 443.064 60.9407 443.064 61.482C443.064 61.8553 442.933 62.2473 442.672 62.658C442.41 63.0687 442.074 63.4093 441.664 63.68C442.158 63.96 442.56 64.3287 442.868 64.786C443.176 65.2433 443.33 65.7007 443.33 66.158C443.33 66.746 443.185 67.2733 442.896 67.74C442.606 68.1973 442.2 68.5567 441.678 68.818C441.155 69.07 440.558 69.196 439.886 69.196C439.214 69.196 438.612 69.07 438.08 68.818C437.557 68.5567 437.146 68.1973 436.848 67.74C436.558 67.2733 436.414 66.746 436.414 66.158ZM438.164 61.482C438.164 61.9487 438.322 62.3267 438.64 62.616C438.957 62.9053 439.372 63.05 439.886 63.05C440.39 63.05 440.8 62.9053 441.118 62.616C441.444 62.3173 441.608 61.9393 441.608 61.482C441.608 61.0247 441.444 60.6513 441.118 60.362C440.8 60.0633 440.39 59.914 439.886 59.914C439.372 59.914 438.957 60.0587 438.64 60.348C438.322 60.6373 438.164 61.0153 438.164 61.482ZM448.646 67.964C449.272 67.964 449.78 67.7353 450.172 67.278C450.564 66.8113 450.76 66.2047 450.76 65.458C450.76 64.7207 450.564 64.1233 450.172 63.666C449.78 63.2087 449.272 62.98 448.646 62.98C448.254 62.98 447.89 63.092 447.554 63.316C447.218 63.54 446.952 63.8433 446.756 64.226C446.56 64.5993 446.462 65.01 446.462 65.458C446.462 65.9153 446.56 66.3353 446.756 66.718C446.952 67.1007 447.218 67.404 447.554 67.628C447.89 67.852 448.254 67.964 448.646 67.964ZM444.992 61.776H446.448V63.036C446.7 62.616 447.05 62.3033 447.498 62.098C447.946 61.8833 448.357 61.776 448.73 61.776C449.412 61.776 450.014 61.9347 450.536 62.252C451.068 62.56 451.479 62.994 451.768 63.554C452.067 64.1047 452.216 64.7393 452.216 65.458C452.216 66.1767 452.067 66.8207 451.768 67.39C451.479 67.95 451.068 68.3887 450.536 68.706C450.014 69.014 449.412 69.168 448.73 69.168C448.357 69.168 447.946 69.0607 447.498 68.846C447.05 68.622 446.7 68.3 446.448 67.88V72.234H444.992V61.776ZM457.359 65.444L460.061 69.098H458.255L456.505 66.62L454.769 69.098H452.963L455.623 65.444L452.907 61.776H454.727L456.505 64.324L458.269 61.776H460.089L457.359 65.444Z" fill="#6B6B6B"/>
</g>
<defs>
<clipPath id="clip0_2269_3847">
<rect width="880" height="125.6" fill="white"/>
</clipPath>
<clipPath id="clip1_2269_3847">
<rect width="39.2" height="19.2" fill="white" transform="translate(43.8008 12.4004)"/>
</clipPath>
</defs>
</svg>
