<svg width="390" height="134" viewBox="0 0 390 134" fill="none" xmlns="http://www.w3.org/2000/svg">
<g clip-path="url(#clip0_2269_3859)">
<rect width="390" height="133" transform="translate(0 0.599609)" fill="white"/>
<mask id="path-1-inside-1_2269_3859" fill="white">
<path d="M0 0.599609H390V66.5996H0V0.599609Z"/>
</mask>
<path d="M0 0.599609H390V66.5996H0V0.599609Z" fill="white"/>
<path d="M390 65.5996H0V67.5996H390V65.5996Z" fill="#C2C2C2" mask="url(#path-1-inside-1_2269_3859)"/>
<g clip-path="url(#clip1_2269_3859)">
<path d="M27.6948 33.6585L35.6432 29.0013C37.5086 27.9139 38.1575 25.493 37.0828 23.585C36.0082 21.677 33.6155 21.041 31.7298 22.1283L17.9824 30.1502L27.6948 33.6585Z" fill="#EA4335"/>
<path d="M33.6773 45.5986C35.0359 45.5986 36.3538 44.8805 37.0635 43.6085C38.1382 41.721 37.5096 39.3001 35.6239 38.1922L21.8765 30.1703C20.011 29.0829 17.6184 29.719 16.5235 31.627C15.4488 33.5145 16.0774 35.9354 17.9631 37.0433L31.7105 45.0652C32.3391 45.4139 33.0285 45.5986 33.6773 45.5986Z" fill="#4285F4"/>
<path d="M47.3642 45.5988C48.0334 45.5988 48.7025 45.4346 49.3108 45.0653L63.0582 37.0435L53.4877 33.4941L45.4177 38.2129C43.5523 39.3003 42.9034 41.7212 43.9781 43.6292C44.6877 44.8807 46.0057 45.5988 47.3642 45.5988Z" fill="#FBBC04"/>
<path d="M61.0907 37.5566C62.4492 37.5566 63.7672 36.8385 64.4768 35.587C65.5515 33.6995 64.9229 31.2786 63.0372 30.1707L49.3101 22.1488C47.4446 21.0615 45.052 21.6975 43.9571 23.6055C42.8824 25.493 43.511 27.9139 45.3967 29.0218L59.1441 37.0437C59.7524 37.3925 60.4215 37.5566 61.0907 37.5566Z" fill="#0F9D58"/>
</g>
<path d="M81.24 23.7396H88.26C88.3 23.8996 88.3333 24.0929 88.36 24.3196C88.3867 24.5463 88.4 24.7729 88.4 24.9996C88.4 25.9196 88.26 26.7863 87.98 27.5996C87.7 28.4129 87.26 29.1396 86.66 29.7796C86.02 30.4596 85.2533 30.9863 84.36 31.3596C83.4667 31.7329 82.4467 31.9196 81.3 31.9196C80.26 31.9196 79.28 31.7329 78.36 31.3596C77.44 30.9863 76.64 30.4663 75.96 29.7996C75.28 29.1329 74.74 28.3463 74.34 27.4396C73.94 26.5196 73.74 25.5196 73.74 24.4396C73.74 23.3596 73.94 22.3663 74.34 21.4596C74.74 20.5396 75.28 19.7463 75.96 19.0796C76.64 18.4129 77.44 17.8929 78.36 17.5196C79.28 17.1463 80.26 16.9596 81.3 16.9596C82.46 16.9596 83.4933 17.1596 84.4 17.5596C85.32 17.9596 86.1067 18.5129 86.76 19.2196L84.9 21.0396C84.4333 20.5463 83.9133 20.1729 83.34 19.9196C82.7667 19.6529 82.08 19.5196 81.28 19.5196C80.6267 19.5196 80.0067 19.6396 79.42 19.8796C78.8333 20.1063 78.32 20.4329 77.88 20.8596C77.44 21.2863 77.0867 21.8063 76.82 22.4196C76.5667 23.0196 76.44 23.6929 76.44 24.4396C76.44 25.1863 76.5667 25.8663 76.82 26.4796C77.0867 27.0796 77.44 27.5929 77.88 28.0196C78.3333 28.4463 78.8533 28.7796 79.44 29.0196C80.0267 29.2463 80.6533 29.3596 81.32 29.3596C82.08 29.3596 82.72 29.2529 83.24 29.0396C83.7733 28.8129 84.2267 28.5263 84.6 28.1796C84.8667 27.9396 85.0933 27.6396 85.28 27.2796C85.48 26.9063 85.6333 26.4929 85.74 26.0396H81.24V23.7396ZM90.6314 17.2796H95.4714C96.6047 17.2796 97.6247 17.4529 98.5314 17.7996C99.4381 18.1463 100.211 18.6396 100.851 19.2796C101.491 19.9063 101.978 20.6596 102.311 21.5396C102.658 22.4196 102.831 23.3863 102.831 24.4396C102.831 25.5063 102.658 26.4796 102.311 27.3596C101.978 28.2396 101.491 28.9929 100.851 29.6196C100.211 30.2463 99.4381 30.7329 98.5314 31.0796C97.6247 31.4263 96.6047 31.5996 95.4714 31.5996H90.6314V17.2796ZM95.3514 29.0396C96.1381 29.0396 96.8314 28.9329 97.4314 28.7196C98.0314 28.4929 98.5314 28.1796 98.9314 27.7796C99.3314 27.3796 99.6314 26.8996 99.8314 26.3396C100.031 25.7663 100.131 25.1329 100.131 24.4396C100.131 23.7463 100.031 23.1196 99.8314 22.5596C99.6314 21.9863 99.3314 21.4996 98.9314 21.0996C98.5314 20.6996 98.0314 20.3929 97.4314 20.1796C96.8314 19.9529 96.1381 19.8396 95.3514 19.8396H93.3314V29.0396H95.3514ZM109.386 31.9196C108.773 31.9196 108.186 31.8329 107.626 31.6596C107.066 31.4863 106.553 31.2263 106.086 30.8796C105.62 30.5329 105.213 30.1129 104.866 29.6196C104.52 29.1129 104.246 28.5263 104.046 27.8596L106.586 26.8596C106.773 27.5796 107.1 28.1796 107.566 28.6596C108.033 29.1263 108.646 29.3596 109.406 29.3596C109.686 29.3596 109.953 29.3263 110.206 29.2596C110.473 29.1796 110.706 29.0729 110.906 28.9396C111.12 28.7929 111.286 28.6129 111.406 28.3996C111.526 28.1863 111.586 27.9396 111.586 27.6596C111.586 27.3929 111.54 27.1529 111.446 26.9396C111.353 26.7263 111.193 26.5263 110.966 26.3396C110.753 26.1529 110.466 25.9729 110.106 25.7996C109.76 25.6263 109.326 25.4463 108.806 25.2596L107.926 24.9396C107.54 24.8063 107.146 24.6263 106.746 24.3996C106.36 24.1729 106.006 23.8996 105.686 23.5796C105.366 23.2596 105.1 22.8863 104.886 22.4596C104.686 22.0196 104.586 21.5263 104.586 20.9796C104.586 20.4196 104.693 19.8996 104.906 19.4196C105.133 18.9263 105.446 18.4996 105.846 18.1396C106.26 17.7663 106.746 17.4796 107.306 17.2796C107.88 17.0663 108.513 16.9596 109.206 16.9596C109.926 16.9596 110.546 17.0596 111.066 17.2596C111.6 17.4463 112.046 17.6929 112.406 17.9996C112.78 18.2929 113.08 18.6196 113.306 18.9796C113.533 19.3396 113.7 19.6796 113.806 19.9996L111.426 20.9996C111.293 20.5996 111.046 20.2396 110.686 19.9196C110.34 19.5996 109.86 19.4396 109.246 19.4396C108.66 19.4396 108.173 19.5796 107.786 19.8596C107.4 20.1263 107.206 20.4796 107.206 20.9196C107.206 21.3463 107.393 21.7129 107.766 22.0196C108.14 22.3129 108.733 22.5996 109.546 22.8796L110.446 23.1796C111.02 23.3796 111.54 23.6129 112.006 23.8796C112.486 24.1329 112.893 24.4396 113.226 24.7996C113.573 25.1596 113.833 25.5729 114.006 26.0396C114.193 26.4929 114.286 27.0196 114.286 27.6196C114.286 28.3663 114.133 29.0129 113.826 29.5596C113.533 30.0929 113.153 30.5329 112.686 30.8796C112.22 31.2263 111.693 31.4863 111.106 31.6596C110.52 31.8329 109.946 31.9196 109.386 31.9196ZM129.03 29.2996C128.324 30.1529 127.49 30.8063 126.53 31.2596C125.57 31.6996 124.497 31.9196 123.31 31.9196C122.244 31.9196 121.25 31.7263 120.33 31.3396C119.424 30.9529 118.637 30.4263 117.97 29.7596C117.304 29.0929 116.777 28.3063 116.39 27.3996C116.004 26.4796 115.81 25.4929 115.81 24.4396C115.81 23.3863 116.004 22.4063 116.39 21.4996C116.777 20.5796 117.304 19.7863 117.97 19.1196C118.637 18.4529 119.424 17.9263 120.33 17.5396C121.25 17.1529 122.244 16.9596 123.31 16.9596C124.457 16.9596 125.464 17.1596 126.33 17.5596C127.21 17.9596 127.99 18.5396 128.67 19.2996L126.77 21.1396C126.344 20.6463 125.85 20.2529 125.29 19.9596C124.744 19.6663 124.09 19.5196 123.33 19.5196C122.664 19.5196 122.037 19.6396 121.45 19.8796C120.864 20.1063 120.35 20.4329 119.91 20.8596C119.484 21.2863 119.144 21.8063 118.89 22.4196C118.637 23.0196 118.51 23.6929 118.51 24.4396C118.51 25.1863 118.637 25.8663 118.89 26.4796C119.144 27.0796 119.484 27.5929 119.91 28.0196C120.35 28.4463 120.864 28.7796 121.45 29.0196C122.037 29.2463 122.664 29.3596 123.33 29.3596C124.13 29.3596 124.837 29.1996 125.45 28.8796C126.077 28.5463 126.63 28.0796 127.11 27.4796L129.03 29.2996Z" fill="#121212"/>
<path d="M75.296 49.5996H74.008V39.5756H75.296V43.8736H80.308V39.5756H81.596V49.5996H80.308V45.0776H75.296V49.5996ZM82.9897 46.1696C82.9897 45.1149 83.321 44.2423 83.9837 43.5516C84.6557 42.8609 85.5003 42.5156 86.5177 42.5156C87.535 42.5156 88.375 42.8609 89.0377 43.5516C89.7097 44.2423 90.0457 45.1149 90.0457 46.1696C90.0457 47.2336 89.7097 48.1063 89.0377 48.7876C88.375 49.4783 87.535 49.8236 86.5177 49.8236C85.5003 49.8236 84.6557 49.4783 83.9837 48.7876C83.321 48.0969 82.9897 47.2243 82.9897 46.1696ZM84.2777 46.1696C84.2777 46.9069 84.4923 47.5043 84.9217 47.9616C85.351 48.4189 85.883 48.6476 86.5177 48.6476C87.1523 48.6476 87.6843 48.4189 88.1137 47.9616C88.543 47.5043 88.7577 46.9069 88.7577 46.1696C88.7577 45.4416 88.543 44.8489 88.1137 44.3916C87.675 43.9249 87.143 43.6916 86.5177 43.6916C85.8923 43.6916 85.3603 43.9249 84.9217 44.3916C84.4923 44.8489 84.2777 45.4416 84.2777 46.1696ZM91.0789 42.7396H92.3109V43.6916H92.3669C92.5629 43.3556 92.8616 43.0756 93.2629 42.8516C93.6736 42.6276 94.0983 42.5156 94.5369 42.5156C95.3769 42.5156 96.0209 42.7583 96.4689 43.2436C96.9263 43.7196 97.1549 44.4009 97.1549 45.2876V49.5996H95.8669V45.3716C95.8389 44.2516 95.2743 43.6916 94.1729 43.6916C93.6596 43.6916 93.2303 43.9016 92.8849 44.3216C92.5396 44.7323 92.3669 45.2269 92.3669 45.8056V49.5996H91.0789V42.7396ZM101.678 48.6476C102.313 48.6476 102.831 48.4189 103.232 47.9616C103.652 47.5043 103.862 46.9069 103.862 46.1696C103.862 45.4509 103.652 44.8583 103.232 44.3916C102.822 43.9249 102.304 43.6916 101.678 43.6916C101.062 43.6916 100.544 43.9249 100.124 44.3916C99.7045 44.8583 99.4945 45.4509 99.4945 46.1696C99.4945 46.8976 99.7045 47.4903 100.124 47.9476C100.544 48.4143 101.062 48.6476 101.678 48.6476ZM101.636 52.8476C101.254 52.8476 100.894 52.7963 100.558 52.6936C100.222 52.6003 99.9145 52.4649 99.6345 52.2876C99.3638 52.1103 99.1305 51.9003 98.9345 51.6576C98.7385 51.4149 98.5891 51.1443 98.4865 50.8456L99.7045 50.3416C99.8445 50.7429 100.087 51.0649 100.432 51.3076C100.778 51.5503 101.179 51.6716 101.636 51.6716C102.336 51.6716 102.882 51.4616 103.274 51.0416C103.666 50.6216 103.862 50.0429 103.862 49.3056V48.6476H103.806C103.564 49.0116 103.232 49.3009 102.812 49.5156C102.402 49.7209 101.954 49.8236 101.468 49.8236C100.572 49.8236 99.8025 49.4736 99.1585 48.7736C98.5238 48.0549 98.2065 47.1869 98.2065 46.1696C98.2065 45.1523 98.5238 44.2889 99.1585 43.5796C99.8025 42.8703 100.572 42.5156 101.468 42.5156C101.954 42.5156 102.402 42.6229 102.812 42.8376C103.232 43.0429 103.564 43.3276 103.806 43.6916H103.862V42.7396H105.094V49.3056C105.094 50.4069 104.782 51.2703 104.156 51.8956C103.522 52.5303 102.682 52.8476 101.636 52.8476ZM108.331 40.3736C108.331 40.6256 108.242 40.8403 108.065 41.0176C107.888 41.1949 107.673 41.2836 107.421 41.2836C107.169 41.2836 106.954 41.1949 106.777 41.0176C106.6 40.8403 106.511 40.6256 106.511 40.3736C106.511 40.1216 106.6 39.9069 106.777 39.7296C106.954 39.5523 107.169 39.4636 107.421 39.4636C107.673 39.4636 107.888 39.5523 108.065 39.7296C108.242 39.9069 108.331 40.1216 108.331 40.3736ZM108.065 42.7396V49.5996H106.777V42.7396H108.065ZM115.775 49.5996H114.221L112.079 46.3656L111.029 47.4016V49.5996H109.741V39.5756H111.029V45.7496L113.997 42.7396H115.649V42.7956L112.975 45.4556L115.775 49.5436V49.5996ZM123.021 49.8236C121.911 49.8236 121.015 49.4596 120.333 48.7316C119.652 48.0129 119.311 47.0609 119.311 45.8756V39.5756H120.599V45.9316C120.599 46.7529 120.814 47.4016 121.243 47.8776C121.673 48.3536 122.265 48.5916 123.021 48.5916C123.777 48.5916 124.37 48.3536 124.799 47.8776C125.229 47.4016 125.443 46.7529 125.443 45.9316V39.5756H126.731V45.8756C126.731 47.0889 126.395 48.0503 125.723 48.7596C125.051 49.4689 124.151 49.8236 123.021 49.8236ZM128.294 42.7396H129.526V43.6916H129.582C129.778 43.3556 130.076 43.0756 130.478 42.8516C130.888 42.6276 131.313 42.5156 131.752 42.5156C132.592 42.5156 133.236 42.7583 133.684 43.2436C134.141 43.7196 134.37 44.4009 134.37 45.2876V49.5996H133.082V45.3716C133.054 44.2516 132.489 43.6916 131.388 43.6916C130.874 43.6916 130.445 43.9016 130.1 44.3216C129.754 44.7323 129.582 45.2269 129.582 45.8056V49.5996H128.294V42.7396ZM137.548 40.3736C137.548 40.6256 137.459 40.8403 137.282 41.0176C137.104 41.1949 136.89 41.2836 136.638 41.2836C136.386 41.2836 136.171 41.1949 135.994 41.0176C135.816 40.8403 135.728 40.6256 135.728 40.3736C135.728 40.1216 135.816 39.9069 135.994 39.7296C136.171 39.5523 136.386 39.4636 136.638 39.4636C136.89 39.4636 137.104 39.5523 137.282 39.7296C137.459 39.9069 137.548 40.1216 137.548 40.3736ZM137.282 42.7396V49.5996H135.994V42.7396H137.282ZM142.29 49.5996H141.002L138.23 42.7396H139.63L141.646 48.0596H141.674L143.718 42.7396H145.09L142.29 49.5996ZM147.025 48.7316C147.025 48.9929 146.932 49.2169 146.745 49.4036C146.568 49.5903 146.344 49.6836 146.073 49.6836C145.812 49.6836 145.588 49.5903 145.401 49.4036C145.215 49.2169 145.121 48.9929 145.121 48.7316C145.121 48.4609 145.215 48.2369 145.401 48.0596C145.588 47.8729 145.812 47.7796 146.073 47.7796C146.344 47.7796 146.568 47.8729 146.745 48.0596C146.932 48.2369 147.025 48.4609 147.025 48.7316Z" fill="#368FF7"/>
<mask id="path-9-inside-2_2269_3859" fill="white">
<path d="M243 33.5996C243 23.1062 251.507 14.5996 262 14.5996H355C365.493 14.5996 374 23.1062 374 33.5996C374 44.093 365.493 52.5996 355 52.5996H262C251.507 52.5996 243 44.093 243 33.5996Z"/>
</mask>
<path d="M243 33.5996C243 23.1062 251.507 14.5996 262 14.5996H355C365.493 14.5996 374 23.1062 374 33.5996C374 44.093 365.493 52.5996 355 52.5996H262C251.507 52.5996 243 44.093 243 33.5996Z" fill="white"/>
<path d="M262 15.5996H355V13.5996H262V15.5996ZM355 51.5996H262V53.5996H355V51.5996ZM262 51.5996C252.059 51.5996 244 43.5407 244 33.5996H242C242 44.6453 250.954 53.5996 262 53.5996V51.5996ZM373 33.5996C373 43.5407 364.941 51.5996 355 51.5996V53.5996C366.046 53.5996 375 44.6453 375 33.5996H373ZM355 15.5996C364.941 15.5996 373 23.6585 373 33.5996H375C375 22.5539 366.046 13.5996 355 13.5996V15.5996ZM262 13.5996C250.954 13.5996 242 22.5539 242 33.5996H244C244 23.6585 252.059 15.5996 262 15.5996V13.5996Z" fill="#C2C2C2" mask="url(#path-9-inside-2_2269_3859)"/>
<path d="M268.51 37.0456V34.9736H264.982V30.9136H272.108V29.3176H264.968V28.1136H273.592V32.1036H266.48V33.7696H273.872V34.9736H270.008V37.0456H274.908V38.2636H263.638V37.0456H268.51ZM285.562 28.4776V29.8636C285.562 30.9836 285.534 31.9776 285.478 32.8456C285.432 33.7136 285.306 34.7263 285.1 35.8836L283.588 35.7436C283.803 34.6609 283.934 33.6903 283.98 32.8316C284.036 31.9636 284.064 30.9743 284.064 29.8636V29.6816H276.924V28.4776H285.562ZM275.734 36.7796H286.99V38.0116H275.734V36.7796ZM298.107 27.2876V36.2756H296.595V27.2876H298.107ZM288.055 31.2216C288.055 30.6243 288.199 30.0876 288.489 29.6116C288.778 29.1356 289.175 28.7669 289.679 28.5056C290.192 28.2349 290.757 28.0996 291.373 28.0996C291.998 28.0996 292.563 28.2349 293.067 28.5056C293.571 28.7669 293.967 29.1356 294.257 29.6116C294.546 30.0876 294.691 30.6243 294.691 31.2216C294.691 31.8096 294.546 32.3416 294.257 32.8176C293.967 33.2936 293.571 33.6669 293.067 33.9376C292.563 34.1989 291.998 34.3296 291.373 34.3296C290.757 34.3296 290.192 34.1989 289.679 33.9376C289.175 33.6669 288.778 33.2936 288.489 32.8176C288.199 32.3416 288.055 31.8096 288.055 31.2216ZM289.525 31.2216C289.525 31.7629 289.697 32.1969 290.043 32.5236C290.397 32.8503 290.841 33.0136 291.373 33.0136C291.905 33.0136 292.348 32.8503 292.703 32.5236C293.057 32.1876 293.235 31.7536 293.235 31.2216C293.235 30.6709 293.057 30.2323 292.703 29.9056C292.348 29.5696 291.905 29.4016 291.373 29.4016C290.841 29.4016 290.397 29.5696 290.043 29.9056C289.697 30.2323 289.525 30.6709 289.525 31.2216ZM289.959 35.3796H291.457V38.2636H298.457V39.4816H289.959V35.3796ZM301.551 39.3836H300.095L303.091 27.7916H304.533L301.551 39.3836ZM315.463 27.2596V32.1456H317.311V33.3916H315.463V39.7056H313.951V27.2596H315.463ZM305.747 36.3176C307.249 35.5523 308.407 34.6329 309.219 33.5596C310.04 32.4769 310.525 31.2216 310.675 29.7936H306.391V28.5756H312.201C312.201 32.6356 310.334 35.5989 306.601 37.4656L305.747 36.3176ZM328.147 27.2736V33.9516H326.649V27.2736H328.147ZM318.109 30.7176C318.109 30.1576 318.249 29.6629 318.529 29.2336C318.818 28.7949 319.215 28.4543 319.719 28.2116C320.223 27.9596 320.792 27.8336 321.427 27.8336C322.052 27.8336 322.617 27.9596 323.121 28.2116C323.625 28.4543 324.022 28.7949 324.311 29.2336C324.6 29.6629 324.745 30.1576 324.745 30.7176C324.745 31.2776 324.6 31.7816 324.311 32.2296C324.031 32.6683 323.634 33.0136 323.121 33.2656C322.617 33.5083 322.052 33.6296 321.427 33.6296C320.792 33.6296 320.223 33.5083 319.719 33.2656C319.215 33.0136 318.818 32.6683 318.529 32.2296C318.249 31.7909 318.109 31.2869 318.109 30.7176ZM319.579 30.7176C319.579 31.2216 319.752 31.6276 320.097 31.9356C320.442 32.2343 320.886 32.3836 321.427 32.3836C321.968 32.3836 322.412 32.2343 322.757 31.9356C323.102 31.6276 323.275 31.2216 323.275 30.7176C323.275 30.2229 323.102 29.8263 322.757 29.5276C322.412 29.2196 321.968 29.0656 321.427 29.0656C320.886 29.0656 320.442 29.2196 320.097 29.5276C319.752 29.8263 319.579 30.2229 319.579 30.7176ZM319.999 34.5396H321.483V35.8416H326.663V34.5396H328.147V39.5656H319.999V34.5396ZM326.663 38.3616V37.0036H321.483V38.3616H326.663ZM339.669 27.2736V32.2436H341.559V33.4896H339.669V39.7196H338.157V27.2736H339.669ZM329.911 29.1776H332.837V27.4556H334.363V29.1776H337.219V30.3816H329.911V29.1776ZM330.499 34.1476C330.499 33.5876 330.635 33.0883 330.905 32.6496C331.176 32.2016 331.545 31.8563 332.011 31.6136C332.487 31.3616 333.019 31.2356 333.607 31.2356C334.195 31.2356 334.723 31.3616 335.189 31.6136C335.665 31.8563 336.034 32.2016 336.295 32.6496C336.566 33.0883 336.701 33.5876 336.701 34.1476C336.701 34.7169 336.566 35.2256 336.295 35.6736C336.034 36.1123 335.665 36.4576 335.189 36.7096C334.723 36.9523 334.195 37.0736 333.607 37.0736C333.019 37.0736 332.487 36.9523 332.011 36.7096C331.545 36.4576 331.176 36.1076 330.905 35.6596C330.635 35.2116 330.499 34.7076 330.499 34.1476ZM331.941 34.1476C331.941 34.6609 332.095 35.0716 332.403 35.3796C332.711 35.6876 333.113 35.8416 333.607 35.8416C334.093 35.8416 334.489 35.6876 334.797 35.3796C335.105 35.0716 335.259 34.6609 335.259 34.1476C335.259 33.6436 335.105 33.2376 334.797 32.9296C334.489 32.6216 334.093 32.4676 333.607 32.4676C333.113 32.4676 332.711 32.6216 332.403 32.9296C332.095 33.2376 331.941 33.6436 331.941 34.1476ZM352.368 27.2736V39.7196H350.856V27.2736H352.368ZM342.148 36.3316C343.744 35.5569 344.943 34.6376 345.746 33.5736C346.548 32.5003 347.015 31.2356 347.146 29.7796H342.778V28.5756H348.686C348.686 30.5636 348.242 32.3043 347.356 33.7976C346.469 35.2816 344.999 36.5229 342.946 37.5216L342.148 36.3316Z" fill="#121212"/>
<path d="M-0.424264 84.1753C-0.658579 84.4097 -0.658579 84.7896 -0.424264 85.0239L3.39411 88.8423C3.62843 89.0766 4.00833 89.0766 4.24264 88.8423C4.47696 88.6079 4.47696 88.228 4.24264 87.9937L0.848528 84.5996L4.24264 81.2055C4.47696 80.9712 4.47696 80.5913 4.24264 80.357C4.00833 80.1227 3.62843 80.1227 3.39411 80.357L-0.424264 84.1753ZM390.424 85.0239C390.659 84.7896 390.659 84.4097 390.424 84.1753L386.606 80.357C386.372 80.1227 385.992 80.1227 385.757 80.357C385.523 80.5913 385.523 80.9712 385.757 81.2055L389.151 84.5996L385.757 87.9937C385.523 88.228 385.523 88.6079 385.757 88.8423C385.992 89.0766 386.372 89.0766 386.606 88.8423L390.424 85.0239ZM0 85.1996H390V83.9996H0V85.1996Z" fill="#6B6B6B"/>
<path d="M194.418 98.6536H188.804V101.902H193.522V103.162H188.804V107.698H187.348V97.3936H194.418V98.6536ZM197.442 100.418V107.698H195.986V100.418H197.442ZM195.888 98.0376C195.888 97.7949 195.963 97.5989 196.112 97.4496C196.271 97.2909 196.472 97.2116 196.714 97.2116C196.957 97.2116 197.153 97.2909 197.302 97.4496C197.461 97.5989 197.54 97.7949 197.54 98.0376C197.54 98.2709 197.461 98.4669 197.302 98.6256C197.153 98.7843 196.957 98.8636 196.714 98.8636C196.472 98.8636 196.271 98.7889 196.112 98.6396C195.963 98.4809 195.888 98.2803 195.888 98.0376ZM200.701 97.3936V107.698H199.245V97.3936H200.701ZM203.843 97.3936V107.698H202.387V97.3936H203.843Z" fill="#6B6B6B"/>
<path d="M4.56206 57.6416L3.10606 57.6276V49.0176L1.32806 50.0256L0.712063 48.8076L3.12006 47.4636H4.56206V57.6416ZM9.98061 56.4656C10.5873 56.4656 11.0819 56.2696 11.4646 55.8776C11.8566 55.4856 12.0526 54.9769 12.0526 54.3516C12.0526 53.7263 11.8566 53.2176 11.4646 52.8256C11.0819 52.4243 10.5873 52.2236 9.98061 52.2236C9.38328 52.2236 8.89328 52.4243 8.51061 52.8256C8.12794 53.2176 7.93661 53.7263 7.93661 54.3516C7.93661 54.9769 8.12794 55.4856 8.51061 55.8776C8.89328 56.2696 9.38328 56.4656 9.98061 56.4656ZM6.48061 54.3516C6.48061 53.7356 6.66728 53.0916 7.04061 52.4196L9.85461 47.4356H11.5206L9.47661 51.0056C9.63528 50.9683 9.82194 50.9496 10.0366 50.9496C10.7086 50.9496 11.3059 51.0989 11.8286 51.3976C12.3606 51.6869 12.7713 52.0883 13.0606 52.6016C13.3593 53.1149 13.5086 53.6983 13.5086 54.3516C13.5086 55.0049 13.3593 55.5883 13.0606 56.1016C12.7619 56.6149 12.3466 57.0163 11.8146 57.3056C11.2826 57.5949 10.6759 57.7396 9.99461 57.7396C9.31328 57.7396 8.70661 57.5949 8.17461 57.3056C7.64261 57.0163 7.22728 56.6149 6.92861 56.1016C6.62994 55.5883 6.48061 55.0049 6.48061 54.3516ZM18.8228 56.5636C19.4481 56.5636 19.9568 56.3349 20.3488 55.8776C20.7408 55.4109 20.9368 54.8043 20.9368 54.0576C20.9368 53.3203 20.7408 52.7229 20.3488 52.2656C19.9568 51.8083 19.4481 51.5796 18.8228 51.5796C18.4308 51.5796 18.0668 51.6916 17.7308 51.9156C17.3948 52.1396 17.1288 52.4429 16.9328 52.8256C16.7368 53.1989 16.6388 53.6096 16.6388 54.0576C16.6388 54.5149 16.7368 54.9349 16.9328 55.3176C17.1288 55.7003 17.3948 56.0036 17.7308 56.2276C18.0668 56.4516 18.4308 56.5636 18.8228 56.5636ZM15.1688 50.3756H16.6248V51.6356C16.8768 51.2156 17.2268 50.9029 17.6748 50.6976C18.1228 50.4829 18.5335 50.3756 18.9068 50.3756C19.5881 50.3756 20.1901 50.5343 20.7128 50.8516C21.2448 51.1596 21.6555 51.5936 21.9448 52.1536C22.2435 52.7043 22.3928 53.3389 22.3928 54.0576C22.3928 54.7763 22.2435 55.4203 21.9448 55.9896C21.6555 56.5496 21.2448 56.9883 20.7128 57.3056C20.1901 57.6136 19.5881 57.7676 18.9068 57.7676C18.5335 57.7676 18.1228 57.6603 17.6748 57.4456C17.2268 57.2216 16.8768 56.8996 16.6248 56.4796V60.8336H15.1688V50.3756ZM27.5357 54.0436L30.2377 57.6976H28.4317L26.6817 55.2196L24.9457 57.6976H23.1397L25.7997 54.0436L23.0837 50.3756H24.9037L26.6817 52.9236L28.4457 50.3756H30.2657L27.5357 54.0436Z" fill="#6B6B6B"/>
<path d="M363.562 57.6416L362.106 57.6276V49.0176L360.328 50.0256L359.712 48.8076L362.12 47.4636H363.562V57.6416ZM368.981 56.4656C369.587 56.4656 370.082 56.2696 370.465 55.8776C370.857 55.4856 371.053 54.9769 371.053 54.3516C371.053 53.7263 370.857 53.2176 370.465 52.8256C370.082 52.4243 369.587 52.2236 368.981 52.2236C368.383 52.2236 367.893 52.4243 367.511 52.8256C367.128 53.2176 366.937 53.7263 366.937 54.3516C366.937 54.9769 367.128 55.4856 367.511 55.8776C367.893 56.2696 368.383 56.4656 368.981 56.4656ZM365.481 54.3516C365.481 53.7356 365.667 53.0916 366.041 52.4196L368.855 47.4356H370.521L368.477 51.0056C368.635 50.9683 368.822 50.9496 369.037 50.9496C369.709 50.9496 370.306 51.0989 370.829 51.3976C371.361 51.6869 371.771 52.0883 372.061 52.6016C372.359 53.1149 372.509 53.6983 372.509 54.3516C372.509 55.0049 372.359 55.5883 372.061 56.1016C371.762 56.6149 371.347 57.0163 370.815 57.3056C370.283 57.5949 369.676 57.7396 368.995 57.7396C368.313 57.7396 367.707 57.5949 367.175 57.3056C366.643 57.0163 366.227 56.6149 365.929 56.1016C365.63 55.5883 365.481 55.0049 365.481 54.3516ZM377.823 56.5636C378.448 56.5636 378.957 56.3349 379.349 55.8776C379.741 55.4109 379.937 54.8043 379.937 54.0576C379.937 53.3203 379.741 52.7229 379.349 52.2656C378.957 51.8083 378.448 51.5796 377.823 51.5796C377.431 51.5796 377.067 51.6916 376.731 51.9156C376.395 52.1396 376.129 52.4429 375.933 52.8256C375.737 53.1989 375.639 53.6096 375.639 54.0576C375.639 54.5149 375.737 54.9349 375.933 55.3176C376.129 55.7003 376.395 56.0036 376.731 56.2276C377.067 56.4516 377.431 56.5636 377.823 56.5636ZM374.169 50.3756H375.625V51.6356C375.877 51.2156 376.227 50.9029 376.675 50.6976C377.123 50.4829 377.533 50.3756 377.907 50.3756C378.588 50.3756 379.19 50.5343 379.713 50.8516C380.245 51.1596 380.655 51.5936 380.945 52.1536C381.243 52.7043 381.393 53.3389 381.393 54.0576C381.393 54.7763 381.243 55.4203 380.945 55.9896C380.655 56.5496 380.245 56.9883 379.713 57.3056C379.19 57.6136 378.588 57.7676 377.907 57.7676C377.533 57.7676 377.123 57.6603 376.675 57.4456C376.227 57.2216 375.877 56.8996 375.625 56.4796V60.8336H374.169V50.3756ZM386.536 54.0436L389.238 57.6976H387.432L385.682 55.2196L383.946 57.6976H382.14L384.8 54.0436L382.084 50.3756H383.904L385.682 52.9236L387.446 50.3756H389.266L386.536 54.0436Z" fill="#6B6B6B"/>
<path d="M374 0.599609L374 211.6" stroke="#BB362A"/>
<path d="M16 0.599609L16 211.6" stroke="#BB362A"/>
<path d="M373.576 33.1753C373.341 33.4097 373.341 33.7896 373.576 34.0239L377.394 37.8423C377.628 38.0766 378.008 38.0766 378.243 37.8423C378.477 37.6079 378.477 37.228 378.243 36.9937L374.849 33.5996L378.243 30.2055C378.477 29.9712 378.477 29.5913 378.243 29.357C378.008 29.1227 377.628 29.1227 377.394 29.357L373.576 33.1753ZM390.424 34.0239C390.659 33.7896 390.659 33.4097 390.424 33.1753L386.606 29.357C386.372 29.1227 385.992 29.1227 385.757 29.357C385.523 29.5913 385.523 29.9712 385.757 30.2055L389.151 33.5996L385.757 36.9937C385.523 37.228 385.523 37.6079 385.757 37.8423C385.992 38.0766 386.372 38.0766 386.606 37.8423L390.424 34.0239ZM374 34.1996H390V32.9996H374V34.1996Z" fill="#6B6B6B"/>
<path d="M-0.424264 33.1753C-0.658579 33.4097 -0.658579 33.7896 -0.424264 34.0239L3.39411 37.8423C3.62843 38.0766 4.00833 38.0766 4.24264 37.8423C4.47696 37.6079 4.47696 37.228 4.24264 36.9937L0.848528 33.5996L4.24264 30.2055C4.47696 29.9712 4.47696 29.5913 4.24264 29.357C4.00833 29.1227 3.62843 29.1227 3.39411 29.357L-0.424264 33.1753ZM16.4243 34.0239C16.6586 33.7896 16.6586 33.4097 16.4243 33.1753L12.6059 29.357C12.3716 29.1227 11.9917 29.1227 11.7574 29.357C11.523 29.5913 11.523 29.9712 11.7574 30.2055L15.1515 33.5996L11.7574 36.9937C11.523 37.228 11.523 37.6079 11.7574 37.8423C11.9917 38.0766 12.3716 38.0766 12.6059 37.8423L16.4243 34.0239ZM0 34.1996H16V32.9996H0V34.1996Z" fill="#6B6B6B"/>
</g>
<defs>
<clipPath id="clip0_2269_3859">
<rect width="390" height="133" fill="white" transform="translate(0 0.599609)"/>
</clipPath>
<clipPath id="clip1_2269_3859">
<rect width="49" height="24" fill="white" transform="translate(16 21.5996)"/>
</clipPath>
</defs>
</svg>
