<svg width="880" height="126" viewBox="0 0 880 126" fill="none" xmlns="http://www.w3.org/2000/svg">
<g clip-path="url(#clip0_2269_3847)">
<rect width="880" height="125.6" fill="white"/>
<mask id="path-1-inside-1_2269_3847" fill="white">
<path d="M0 0H880V43.2H0V0Z"/>
</mask>
<path d="M0 0H880V43.2H0V0Z" fill="white"/>
<path d="M880 42.4H0V44H880V42.4Z" fill="#C2C2C2" mask="url(#path-1-inside-1_2269_3847)"/>
<g clip-path="url(#clip1_2269_3847)">
<path d="M53.3559 22.0473L59.7145 18.3215C61.2069 17.4516 61.726 15.5149 60.8663 13.9885C60.0065 12.4621 58.0924 11.9533 56.5839 12.8232L45.5859 19.2407L53.3559 22.0473Z" fill="#EA4335"/>
<path d="M58.1419 31.5994C59.2287 31.5994 60.2831 31.0249 60.8508 30.0073C61.7105 28.4973 61.2077 26.5606 59.6991 25.6743L48.7012 19.2568C47.2088 18.3869 45.2947 18.8957 44.4188 20.4221C43.5591 21.9321 44.0619 23.8688 45.5705 24.7551L56.5684 31.1726C57.0713 31.4517 57.6228 31.5994 58.1419 31.5994Z" fill="#4285F4"/>
<path d="M69.091 31.5997C69.6263 31.5997 70.1616 31.4684 70.6482 31.173L81.6462 24.7555L73.9898 21.916L67.5338 25.691C66.0414 26.5609 65.5223 28.4977 66.3821 30.0241C66.9498 31.0253 68.0042 31.5997 69.091 31.5997Z" fill="#FBBC04"/>
<path d="M80.0729 25.166C81.1597 25.166 82.2141 24.5915 82.7819 23.5903C83.6416 22.0803 83.1387 20.1436 81.6301 19.2573L70.6484 12.8398C69.1561 11.9699 67.242 12.4787 66.3661 14.0051C65.5063 15.5151 66.0092 17.4518 67.5178 18.3381L78.5157 24.7556C79.0023 25.0347 79.5376 25.166 80.0729 25.166Z" fill="#0F9D58"/>
</g>
<path d="M96.1916 21.212H101.808C101.84 21.34 101.866 21.4947 101.888 21.676C101.909 21.8573 101.92 22.0387 101.92 22.22C101.92 22.956 101.808 23.6493 101.584 24.3C101.36 24.9507 101.008 25.532 100.528 26.044C100.016 26.588 99.4023 27.0093 98.6876 27.308C97.9729 27.6067 97.1569 27.756 96.2396 27.756C95.4076 27.756 94.6236 27.6067 93.8876 27.308C93.1516 27.0093 92.5116 26.5933 91.9676 26.06C91.4236 25.5267 90.9916 24.8973 90.6716 24.172C90.3516 23.436 90.1916 22.636 90.1916 21.772C90.1916 20.908 90.3516 20.1133 90.6716 19.388C90.9916 18.652 91.4236 18.0173 91.9676 17.484C92.5116 16.9507 93.1516 16.5347 93.8876 16.236C94.6236 15.9373 95.4076 15.788 96.2396 15.788C97.1676 15.788 97.9943 15.948 98.7196 16.268C99.4556 16.588 100.085 17.0307 100.608 17.596L99.1196 19.052C98.7463 18.6573 98.3303 18.3587 97.8716 18.156C97.4129 17.9427 96.8636 17.836 96.2236 17.836C95.7009 17.836 95.2049 17.932 94.7356 18.124C94.2663 18.3053 93.8556 18.5667 93.5036 18.908C93.1516 19.2493 92.8689 19.6653 92.6556 20.156C92.4529 20.636 92.3516 21.1747 92.3516 21.772C92.3516 22.3693 92.4529 22.9133 92.6556 23.404C92.8689 23.884 93.1516 24.2947 93.5036 24.636C93.8663 24.9773 94.2823 25.244 94.7516 25.436C95.2209 25.6173 95.7223 25.708 96.2556 25.708C96.8636 25.708 97.3756 25.6227 97.7916 25.452C98.2183 25.2707 98.5809 25.0413 98.8796 24.764C99.0929 24.572 99.2743 24.332 99.4236 24.044C99.5836 23.7453 99.7063 23.4147 99.7916 23.052H96.1916V21.212ZM103.705 16.044H107.577C108.483 16.044 109.299 16.1827 110.025 16.46C110.75 16.7373 111.369 17.132 111.881 17.644C112.393 18.1453 112.782 18.748 113.049 19.452C113.326 20.156 113.465 20.9293 113.465 21.772C113.465 22.6253 113.326 23.404 113.049 24.108C112.782 24.812 112.393 25.4147 111.881 25.916C111.369 26.4173 110.75 26.8067 110.025 27.084C109.299 27.3613 108.483 27.5 107.577 27.5H103.705V16.044ZM107.481 25.452C108.11 25.452 108.665 25.3667 109.145 25.196C109.625 25.0147 110.025 24.764 110.345 24.444C110.665 24.124 110.905 23.74 111.065 23.292C111.225 22.8333 111.305 22.3267 111.305 21.772C111.305 21.2173 111.225 20.716 111.065 20.268C110.905 19.8093 110.665 19.42 110.345 19.1C110.025 18.78 109.625 18.5347 109.145 18.364C108.665 18.1827 108.11 18.092 107.481 18.092H105.865V25.452H107.481ZM120.645 21.212H126.261C126.293 21.34 126.319 21.4947 126.341 21.676C126.362 21.8573 126.373 22.0387 126.373 22.22C126.373 22.956 126.261 23.6493 126.037 24.3C125.813 24.9507 125.461 25.532 124.981 26.044C124.469 26.588 123.855 27.0093 123.141 27.308C122.426 27.6067 121.61 27.756 120.693 27.756C119.861 27.756 119.077 27.6067 118.341 27.308C117.605 27.0093 116.965 26.5933 116.421 26.06C115.877 25.5267 115.445 24.8973 115.125 24.172C114.805 23.436 114.645 22.636 114.645 21.772C114.645 20.908 114.805 20.1133 115.125 19.388C115.445 18.652 115.877 18.0173 116.421 17.484C116.965 16.9507 117.605 16.5347 118.341 16.236C119.077 15.9373 119.861 15.788 120.693 15.788C121.621 15.788 122.447 15.948 123.173 16.268C123.909 16.588 124.538 17.0307 125.061 17.596L123.573 19.052C123.199 18.6573 122.783 18.3587 122.325 18.156C121.866 17.9427 121.317 17.836 120.677 17.836C120.154 17.836 119.658 17.932 119.189 18.124C118.719 18.3053 118.309 18.5667 117.957 18.908C117.605 19.2493 117.322 19.6653 117.109 20.156C116.906 20.636 116.805 21.1747 116.805 21.772C116.805 22.3693 116.906 22.9133 117.109 23.404C117.322 23.884 117.605 24.2947 117.957 24.636C118.319 24.9773 118.735 25.244 119.205 25.436C119.674 25.6173 120.175 25.708 120.709 25.708C121.317 25.708 121.829 25.6227 122.245 25.452C122.671 25.2707 123.034 25.0413 123.333 24.764C123.546 24.572 123.727 24.332 123.877 24.044C124.037 23.7453 124.159 23.4147 124.245 23.052H120.645V21.212ZM131.536 19.404C132.144 19.404 132.698 19.5107 133.2 19.724C133.712 19.9267 134.149 20.2147 134.512 20.588C134.885 20.9507 135.173 21.388 135.376 21.9C135.589 22.412 135.696 22.972 135.696 23.58C135.696 24.188 135.589 24.748 135.376 25.26C135.173 25.772 134.885 26.2147 134.512 26.588C134.149 26.9507 133.712 27.2387 133.2 27.452C132.698 27.6547 132.144 27.756 131.536 27.756C130.928 27.756 130.368 27.6547 129.856 27.452C129.354 27.2387 128.917 26.9507 128.544 26.588C128.181 26.2147 127.893 25.772 127.68 25.26C127.477 24.748 127.376 24.188 127.376 23.58C127.376 22.972 127.477 22.412 127.68 21.9C127.893 21.388 128.181 20.9507 128.544 20.588C128.917 20.2147 129.354 19.9267 129.856 19.724C130.368 19.5107 130.928 19.404 131.536 19.404ZM131.536 25.82C131.802 25.82 132.058 25.772 132.304 25.676C132.56 25.5693 132.784 25.42 132.976 25.228C133.168 25.036 133.317 24.8013 133.424 24.524C133.541 24.2467 133.6 23.932 133.6 23.58C133.6 23.228 133.541 22.9133 133.424 22.636C133.317 22.3587 133.168 22.124 132.976 21.932C132.784 21.74 132.56 21.596 132.304 21.5C132.058 21.3933 131.802 21.34 131.536 21.34C131.258 21.34 130.997 21.3933 130.752 21.5C130.506 21.596 130.288 21.74 130.096 21.932C129.904 22.124 129.749 22.3587 129.632 22.636C129.525 22.9133 129.472 23.228 129.472 23.58C129.472 23.932 129.525 24.2467 129.632 24.524C129.749 24.8013 129.904 25.036 130.096 25.228C130.288 25.42 130.506 25.5693 130.752 25.676C130.997 25.772 131.258 25.82 131.536 25.82ZM147.314 25.66C146.749 26.3427 146.082 26.8653 145.314 27.228C144.546 27.58 143.688 27.756 142.738 27.756C141.885 27.756 141.09 27.6013 140.354 27.292C139.629 26.9827 139 26.5613 138.466 26.028C137.933 25.4947 137.512 24.8653 137.202 24.14C136.893 23.404 136.738 22.6147 136.738 21.772C136.738 20.9293 136.893 20.1453 137.202 19.42C137.512 18.684 137.933 18.0493 138.466 17.516C139 16.9827 139.629 16.5613 140.354 16.252C141.09 15.9427 141.885 15.788 142.738 15.788C143.656 15.788 144.461 15.948 145.154 16.268C145.858 16.588 146.482 17.052 147.026 17.66L145.506 19.132C145.165 18.7373 144.77 18.4227 144.322 18.188C143.885 17.9533 143.362 17.836 142.754 17.836C142.221 17.836 141.72 17.932 141.25 18.124C140.781 18.3053 140.37 18.5667 140.018 18.908C139.677 19.2493 139.405 19.6653 139.202 20.156C139 20.636 138.898 21.1747 138.898 21.772C138.898 22.3693 139 22.9133 139.202 23.404C139.405 23.884 139.677 24.2947 140.018 24.636C140.37 24.9773 140.781 25.244 141.25 25.436C141.72 25.6173 142.221 25.708 142.754 25.708C143.394 25.708 143.96 25.58 144.45 25.324C144.952 25.0573 145.394 24.684 145.778 24.204L147.314 25.66Z" fill="#121212"/>
<path d="M156.837 26H155.806V17.9808H156.837V21.4192H160.846V17.9808H161.877V26H160.846V22.3824H156.837V26ZM162.992 23.256C162.992 22.4123 163.257 21.7141 163.787 21.1616C164.325 20.6091 165 20.3328 165.814 20.3328C166.628 20.3328 167.3 20.6091 167.83 21.1616C168.368 21.7141 168.637 22.4123 168.637 23.256C168.637 24.1072 168.368 24.8053 167.83 25.3504C167.3 25.9029 166.628 26.1792 165.814 26.1792C165 26.1792 164.325 25.9029 163.787 25.3504C163.257 24.7979 162.992 24.0997 162.992 23.256ZM164.022 23.256C164.022 23.8459 164.194 24.3237 164.537 24.6896C164.881 25.0555 165.306 25.2384 165.814 25.2384C166.322 25.2384 166.747 25.0555 167.091 24.6896C167.434 24.3237 167.606 23.8459 167.606 23.256C167.606 22.6736 167.434 22.1995 167.091 21.8336C166.74 21.4603 166.314 21.2736 165.814 21.2736C165.314 21.2736 164.888 21.4603 164.537 21.8336C164.194 22.1995 164.022 22.6736 164.022 23.256ZM169.463 20.512H170.449V21.2736H170.494C170.65 21.0048 170.889 20.7808 171.21 20.6016C171.539 20.4224 171.879 20.3328 172.23 20.3328C172.902 20.3328 173.417 20.5269 173.775 20.9152C174.141 21.296 174.324 21.8411 174.324 22.5504V26H173.294V22.6176C173.271 21.7216 172.819 21.2736 171.938 21.2736C171.528 21.2736 171.184 21.4416 170.908 21.7776C170.632 22.1061 170.494 22.5019 170.494 22.9648V26H169.463V20.512ZM177.943 25.2384C178.45 25.2384 178.865 25.0555 179.186 24.6896C179.522 24.3237 179.69 23.8459 179.69 23.256C179.69 22.6811 179.522 22.2069 179.186 21.8336C178.857 21.4603 178.443 21.2736 177.943 21.2736C177.45 21.2736 177.036 21.4603 176.7 21.8336C176.364 22.2069 176.196 22.6811 176.196 23.256C176.196 23.8384 176.364 24.3125 176.7 24.6784C177.036 25.0517 177.45 25.2384 177.943 25.2384ZM177.909 28.5984C177.603 28.5984 177.316 28.5573 177.047 28.4752C176.778 28.4005 176.532 28.2923 176.308 28.1504C176.091 28.0085 175.904 27.8405 175.748 27.6464C175.591 27.4523 175.471 27.2357 175.389 26.9968L176.364 26.5936C176.476 26.9147 176.67 27.1723 176.946 27.3664C177.222 27.5605 177.543 27.6576 177.909 27.6576C178.469 27.6576 178.906 27.4896 179.22 27.1536C179.533 26.8176 179.69 26.3547 179.69 25.7648V25.2384H179.645C179.451 25.5296 179.186 25.7611 178.85 25.9328C178.521 26.0971 178.163 26.1792 177.775 26.1792C177.058 26.1792 176.442 25.8992 175.927 25.3392C175.419 24.7643 175.165 24.0699 175.165 23.256C175.165 22.4421 175.419 21.7515 175.927 21.184C176.442 20.6165 177.058 20.3328 177.775 20.3328C178.163 20.3328 178.521 20.4187 178.85 20.5904C179.186 20.7547 179.451 20.9824 179.645 21.2736H179.69V20.512H180.676V25.7648C180.676 26.6459 180.425 27.3365 179.925 27.8368C179.417 28.3445 178.745 28.5984 177.909 28.5984ZM183.265 18.6192C183.265 18.8208 183.194 18.9925 183.052 19.1344C182.91 19.2763 182.738 19.3472 182.537 19.3472C182.335 19.3472 182.163 19.2763 182.021 19.1344C181.88 18.9925 181.809 18.8208 181.809 18.6192C181.809 18.4176 181.88 18.2459 182.021 18.104C182.163 17.9621 182.335 17.8912 182.537 17.8912C182.738 17.8912 182.91 17.9621 183.052 18.104C183.194 18.2459 183.265 18.4176 183.265 18.6192ZM183.052 20.512V26H182.021V20.512H183.052ZM189.22 26H187.977L186.263 23.4128L185.423 24.2416V26H184.393V17.9808H185.423V22.92L187.798 20.512H189.119V20.5568L186.98 22.6848L189.22 25.9552V26ZM195.017 26.1792C194.129 26.1792 193.412 25.888 192.867 25.3056C192.322 24.7307 192.049 23.9691 192.049 23.0208V17.9808H193.079V23.0656C193.079 23.7227 193.251 24.2416 193.595 24.6224C193.938 25.0032 194.412 25.1936 195.017 25.1936C195.622 25.1936 196.096 25.0032 196.439 24.6224C196.783 24.2416 196.955 23.7227 196.955 23.0656V17.9808H197.985V23.0208C197.985 23.9915 197.716 24.7605 197.179 25.328C196.641 25.8955 195.921 26.1792 195.017 26.1792ZM199.235 20.512H200.221V21.2736H200.265C200.422 21.0048 200.661 20.7808 200.982 20.6016C201.311 20.4224 201.65 20.3328 202.001 20.3328C202.673 20.3328 203.189 20.5269 203.547 20.9152C203.913 21.296 204.096 21.8411 204.096 22.5504V26H203.065V22.6176C203.043 21.7216 202.591 21.2736 201.71 21.2736C201.3 21.2736 200.956 21.4416 200.68 21.7776C200.404 22.1061 200.265 22.5019 200.265 22.9648V26H199.235V20.512ZM206.638 18.6192C206.638 18.8208 206.567 18.9925 206.425 19.1344C206.283 19.2763 206.112 19.3472 205.91 19.3472C205.709 19.3472 205.537 19.2763 205.395 19.1344C205.253 18.9925 205.182 18.8208 205.182 18.6192C205.182 18.4176 205.253 18.2459 205.395 18.104C205.537 17.9621 205.709 17.8912 205.91 17.8912C206.112 17.8912 206.283 17.9621 206.425 18.104C206.567 18.2459 206.638 18.4176 206.638 18.6192ZM206.425 20.512V26H205.395V20.512H206.425ZM210.432 26H209.401L207.184 20.512H208.304L209.917 24.768H209.939L211.574 20.512H212.672L210.432 26ZM214.22 25.3056C214.22 25.5147 214.146 25.6939 213.996 25.8432C213.854 25.9925 213.675 26.0672 213.459 26.0672C213.25 26.0672 213.07 25.9925 212.921 25.8432C212.772 25.6939 212.697 25.5147 212.697 25.3056C212.697 25.0891 212.772 24.9099 212.921 24.768C213.07 24.6187 213.25 24.544 213.459 24.544C213.675 24.544 213.854 24.6187 213.996 24.768C214.146 24.9099 214.22 25.0891 214.22 25.3056Z" fill="#368FF7"/>
<mask id="path-9-inside-2_2269_3847" fill="white">
<path d="M729.9 22.0004C729.9 13.6609 736.661 6.90039 745 6.90039H819.8C828.14 6.90039 834.9 13.6609 834.9 22.0004C834.9 30.3399 828.14 37.1004 819.8 37.1004H745C736.661 37.1004 729.9 30.3399 729.9 22.0004Z"/>
</mask>
<path d="M729.9 22.0004C729.9 13.6609 736.661 6.90039 745 6.90039H819.8C828.14 6.90039 834.9 13.6609 834.9 22.0004C834.9 30.3399 828.14 37.1004 819.8 37.1004H745C736.661 37.1004 729.9 30.3399 729.9 22.0004Z" fill="white"/>
<path d="M745 7.70039H819.8V6.10039H745V7.70039ZM819.8 36.3004H745V37.9004H819.8V36.3004ZM745 36.3004C737.103 36.3004 730.7 29.8981 730.7 22.0004H729.1C729.1 30.7817 736.219 37.9004 745 37.9004V36.3004ZM834.1 22.0004C834.1 29.8981 827.698 36.3004 819.8 36.3004V37.9004C828.582 37.9004 835.7 30.7817 835.7 22.0004H834.1ZM819.8 7.70039C827.698 7.70039 834.1 14.1027 834.1 22.0004H835.7C835.7 13.2191 828.582 6.10039 819.8 6.10039V7.70039ZM745 6.10039C736.219 6.10039 729.1 13.2191 729.1 22.0004H730.7C730.7 14.1027 737.103 7.70039 745 7.70039V6.10039Z" fill="#C2C2C2" mask="url(#path-9-inside-2_2269_3847)"/>
<path d="M750.408 25.2578V23.6002H747.586V20.3522H753.287V19.0754H747.575V18.1122H754.474V21.3042H748.784V22.637H754.698V23.6002H751.607V25.2578H755.527V26.2322H746.511V25.2578H750.408ZM764.05 18.4034V19.5122C764.05 20.4082 764.028 21.2034 763.983 21.8978C763.946 22.5922 763.845 23.4023 763.681 24.3282L762.471 24.2162C762.643 23.35 762.747 22.5735 762.785 21.8866C762.829 21.1922 762.852 20.4007 762.852 19.5122V19.3666H757.14V18.4034H764.05ZM756.188 25.045H765.193V26.0306H756.188V25.045ZM774.086 17.4514V24.6418H772.876V17.4514H774.086ZM766.044 20.5986C766.044 20.1207 766.16 19.6914 766.391 19.3106C766.623 18.9298 766.94 18.6348 767.343 18.4258C767.754 18.2092 768.206 18.101 768.698 18.101C769.199 18.101 769.65 18.2092 770.054 18.4258C770.457 18.6348 770.774 18.9298 771.006 19.3106C771.237 19.6914 771.353 20.1207 771.353 20.5986C771.353 21.069 771.237 21.4946 771.006 21.8754C770.774 22.2562 770.457 22.5548 770.054 22.7714C769.65 22.9804 769.199 23.085 768.698 23.085C768.206 23.085 767.754 22.9804 767.343 22.7714C766.94 22.5548 766.623 22.2562 766.391 21.8754C766.16 21.4946 766.044 21.069 766.044 20.5986ZM767.22 20.5986C767.22 21.0316 767.358 21.3788 767.634 21.6402C767.918 21.9015 768.273 22.0322 768.698 22.0322C769.124 22.0322 769.479 21.9015 769.762 21.6402C770.046 21.3714 770.188 21.0242 770.188 20.5986C770.188 20.158 770.046 19.8071 769.762 19.5458C769.479 19.277 769.124 19.1426 768.698 19.1426C768.273 19.1426 767.918 19.277 767.634 19.5458C767.358 19.8071 767.22 20.158 767.22 20.5986ZM767.567 23.925H768.766V26.2322H774.366V27.2066H767.567V23.925ZM776.841 27.1282H775.676L778.073 17.8546H779.227L776.841 27.1282ZM787.971 17.429V21.3378H789.449V22.3346H787.971V27.3858H786.761V17.429H787.971ZM780.198 24.6754C781.4 24.0631 782.326 23.3276 782.975 22.469C783.633 21.6028 784.021 20.5986 784.14 19.4562H780.713V18.4818H785.361C785.361 21.7298 783.868 24.1004 780.881 25.5938L780.198 24.6754ZM798.118 17.4402V22.7826H796.92V17.4402H798.118ZM790.088 20.1954C790.088 19.7474 790.2 19.3516 790.424 19.0082C790.655 18.6572 790.973 18.3847 791.376 18.1906C791.779 17.989 792.234 17.8882 792.742 17.8882C793.242 17.8882 793.694 17.989 794.097 18.1906C794.501 18.3847 794.818 18.6572 795.049 19.0082C795.281 19.3516 795.397 19.7474 795.397 20.1954C795.397 20.6434 795.281 21.0466 795.049 21.405C794.825 21.7559 794.508 22.0322 794.097 22.2338C793.694 22.4279 793.242 22.525 792.742 22.525C792.234 22.525 791.779 22.4279 791.376 22.2338C790.973 22.0322 790.655 21.7559 790.424 21.405C790.2 21.054 790.088 20.6508 790.088 20.1954ZM791.264 20.1954C791.264 20.5986 791.402 20.9234 791.678 21.1698C791.954 21.4087 792.309 21.5282 792.742 21.5282C793.175 21.5282 793.53 21.4087 793.806 21.1698C794.082 20.9234 794.221 20.5986 794.221 20.1954C794.221 19.7996 794.082 19.4823 793.806 19.2434C793.53 18.997 793.175 18.8738 792.742 18.8738C792.309 18.8738 791.954 18.997 791.678 19.2434C791.402 19.4823 791.264 19.7996 791.264 20.1954ZM791.6 23.253H792.787V24.2946H796.931V23.253H798.118V27.2738H791.6V23.253ZM796.931 26.3106V25.2242H792.787V26.3106H796.931ZM807.336 17.4402V21.4162H808.848V22.413H807.336V27.397H806.126V17.4402H807.336ZM799.53 18.9634H801.87V17.5858H803.091V18.9634H805.376V19.9266H799.53V18.9634ZM800 22.9394C800 22.4914 800.108 22.0919 800.325 21.741C800.541 21.3826 800.836 21.1063 801.21 20.9122C801.59 20.7106 802.016 20.6098 802.486 20.6098C802.957 20.6098 803.379 20.7106 803.752 20.9122C804.133 21.1063 804.428 21.3826 804.637 21.741C804.853 22.0919 804.962 22.4914 804.962 22.9394C804.962 23.3948 804.853 23.8018 804.637 24.1602C804.428 24.5111 804.133 24.7874 803.752 24.989C803.379 25.1831 802.957 25.2802 802.486 25.2802C802.016 25.2802 801.59 25.1831 801.21 24.989C800.836 24.7874 800.541 24.5074 800.325 24.149C800.108 23.7906 800 23.3874 800 22.9394ZM801.154 22.9394C801.154 23.35 801.277 23.6786 801.523 23.925C801.77 24.1714 802.091 24.2946 802.486 24.2946C802.875 24.2946 803.192 24.1714 803.438 23.925C803.685 23.6786 803.808 23.35 803.808 22.9394C803.808 22.5362 803.685 22.2114 803.438 21.965C803.192 21.7186 802.875 21.5954 802.486 21.5954C802.091 21.5954 801.77 21.7186 801.523 21.965C801.277 22.2114 801.154 22.5362 801.154 22.9394ZM817.495 17.4402V27.397H816.285V17.4402H817.495ZM809.319 24.6866C810.595 24.0668 811.555 23.3314 812.197 22.4802C812.839 21.6215 813.212 20.6098 813.317 19.445H809.823V18.4818H814.549C814.549 20.0722 814.194 21.4647 813.485 22.6594C812.776 23.8466 811.6 24.8396 809.957 25.6386L809.319 24.6866Z" fill="#121212"/>
<path d="M44.8008 0L44.8008 168.8" stroke="#BB362A" stroke-width="0.8"/>
<path d="M835.199 0L835.199 168.8" stroke="#BB362A" stroke-width="0.8"/>
<path d="M44.5757 88.5757C44.3414 88.8101 44.3414 89.1899 44.5757 89.4243L48.3941 93.2426C48.6284 93.477 49.0083 93.477 49.2426 93.2426C49.477 93.0083 49.477 92.6284 49.2426 92.3941L45.8485 89L49.2426 85.6059C49.477 85.3716 49.477 84.9917 49.2426 84.7574C49.0083 84.523 48.6284 84.523 48.3941 84.7574L44.5757 88.5757ZM835.424 89.4243C835.659 89.1899 835.659 88.8101 835.424 88.5757L831.606 84.7574C831.372 84.523 830.992 84.523 830.757 84.7574C830.523 84.9917 830.523 85.3716 830.757 85.6059L834.151 89L830.757 92.3941C830.523 92.6284 830.523 93.0083 830.757 93.2426C830.992 93.477 831.372 93.477 831.606 93.2426L835.424 89.4243ZM45 89.6H835V88.4H45V89.6Z" fill="#6B6B6B"/>
<path d="M423.529 60.012C422.913 60.012 422.409 60.2127 422.017 60.614C421.634 61.006 421.443 61.51 421.443 62.126C421.443 62.7513 421.634 63.2647 422.017 63.666C422.409 64.058 422.913 64.254 423.529 64.254C424.126 64.254 424.611 64.058 424.985 63.666C425.367 63.2647 425.559 62.7513 425.559 62.126C425.559 61.51 425.367 61.006 424.985 60.614C424.611 60.2127 424.126 60.012 423.529 60.012ZM419.987 62.126C419.987 61.4727 420.136 60.8893 420.435 60.376C420.733 59.8627 421.149 59.4613 421.681 59.172C422.222 58.8827 422.833 58.738 423.515 58.738C424.196 58.738 424.798 58.8827 425.321 59.172C425.853 59.4613 426.268 59.8627 426.567 60.376C426.865 60.8893 427.015 61.4727 427.015 62.126C427.015 62.7513 426.833 63.3953 426.469 64.058L423.655 69.056H421.989L424.019 65.472C423.832 65.5187 423.65 65.542 423.473 65.542C422.801 65.5327 422.199 65.3833 421.667 65.094C421.135 64.7953 420.719 64.3893 420.421 63.876C420.131 63.3627 419.987 62.7793 419.987 62.126ZM431.727 67.964C432.315 67.964 432.791 67.796 433.155 67.46C433.528 67.1147 433.715 66.6713 433.715 66.13C433.715 65.5887 433.528 65.15 433.155 64.814C432.791 64.4687 432.315 64.296 431.727 64.296C431.129 64.296 430.644 64.4687 430.271 64.814C429.897 65.15 429.711 65.5887 429.711 66.13C429.711 66.6713 429.897 67.1147 430.271 67.46C430.644 67.796 431.129 67.964 431.727 67.964ZM428.255 66.158C428.255 65.7007 428.413 65.2433 428.731 64.786C429.048 64.3193 429.454 63.9507 429.949 63.68C429.538 63.4 429.202 63.0547 428.941 62.644C428.679 62.2333 428.549 61.846 428.549 61.482C428.549 60.9407 428.684 60.46 428.955 60.04C429.225 59.6107 429.599 59.2793 430.075 59.046C430.56 58.8033 431.111 58.682 431.727 58.682C432.343 58.682 432.889 58.8033 433.365 59.046C433.85 59.2793 434.228 59.6107 434.499 60.04C434.769 60.46 434.905 60.9407 434.905 61.482C434.905 61.8553 434.774 62.2473 434.513 62.658C434.251 63.0687 433.915 63.4093 433.505 63.68C433.999 63.96 434.401 64.3287 434.709 64.786C435.017 65.2433 435.171 65.7007 435.171 66.158C435.171 66.746 435.026 67.2733 434.737 67.74C434.447 68.1973 434.041 68.5567 433.519 68.818C432.996 69.07 432.399 69.196 431.727 69.196C431.055 69.196 430.453 69.07 429.921 68.818C429.398 68.5567 428.987 68.1973 428.689 67.74C428.399 67.2733 428.255 66.746 428.255 66.158ZM430.005 61.482C430.005 61.9487 430.163 62.3267 430.481 62.616C430.798 62.9053 431.213 63.05 431.727 63.05C432.231 63.05 432.641 62.9053 432.959 62.616C433.285 62.3173 433.449 61.9393 433.449 61.482C433.449 61.0247 433.285 60.6513 432.959 60.362C432.641 60.0633 432.231 59.914 431.727 59.914C431.213 59.914 430.798 60.0587 430.481 60.348C430.163 60.6373 430.005 61.0153 430.005 61.482ZM439.886 67.964C440.474 67.964 440.95 67.796 441.314 67.46C441.687 67.1147 441.874 66.6713 441.874 66.13C441.874 65.5887 441.687 65.15 441.314 64.814C440.95 64.4687 440.474 64.296 439.886 64.296C439.288 64.296 438.803 64.4687 438.43 64.814C438.056 65.15 437.87 65.5887 437.87 66.13C437.87 66.6713 438.056 67.1147 438.43 67.46C438.803 67.796 439.288 67.964 439.886 67.964ZM436.414 66.158C436.414 65.7007 436.572 65.2433 436.89 64.786C437.207 64.3193 437.613 63.9507 438.108 63.68C437.697 63.4 437.361 63.0547 437.1 62.644C436.838 62.2333 436.708 61.846 436.708 61.482C436.708 60.9407 436.843 60.46 437.114 60.04C437.384 59.6107 437.758 59.2793 438.234 59.046C438.719 58.8033 439.27 58.682 439.886 58.682C440.502 58.682 441.048 58.8033 441.524 59.046C442.009 59.2793 442.387 59.6107 442.658 60.04C442.928 60.46 443.064 60.9407 443.064 61.482C443.064 61.8553 442.933 62.2473 442.672 62.658C442.41 63.0687 442.074 63.4093 441.664 63.68C442.158 63.96 442.56 64.3287 442.868 64.786C443.176 65.2433 443.33 65.7007 443.33 66.158C443.33 66.746 443.185 67.2733 442.896 67.74C442.606 68.1973 442.2 68.5567 441.678 68.818C441.155 69.07 440.558 69.196 439.886 69.196C439.214 69.196 438.612 69.07 438.08 68.818C437.557 68.5567 437.146 68.1973 436.848 67.74C436.558 67.2733 436.414 66.746 436.414 66.158ZM438.164 61.482C438.164 61.9487 438.322 62.3267 438.64 62.616C438.957 62.9053 439.372 63.05 439.886 63.05C440.39 63.05 440.8 62.9053 441.118 62.616C441.444 62.3173 441.608 61.9393 441.608 61.482C441.608 61.0247 441.444 60.6513 441.118 60.362C440.8 60.0633 440.39 59.914 439.886 59.914C439.372 59.914 438.957 60.0587 438.64 60.348C438.322 60.6373 438.164 61.0153 438.164 61.482ZM448.646 67.964C449.272 67.964 449.78 67.7353 450.172 67.278C450.564 66.8113 450.76 66.2047 450.76 65.458C450.76 64.7207 450.564 64.1233 450.172 63.666C449.78 63.2087 449.272 62.98 448.646 62.98C448.254 62.98 447.89 63.092 447.554 63.316C447.218 63.54 446.952 63.8433 446.756 64.226C446.56 64.5993 446.462 65.01 446.462 65.458C446.462 65.9153 446.56 66.3353 446.756 66.718C446.952 67.1007 447.218 67.404 447.554 67.628C447.89 67.852 448.254 67.964 448.646 67.964ZM444.992 61.776H446.448V63.036C446.7 62.616 447.05 62.3033 447.498 62.098C447.946 61.8833 448.357 61.776 448.73 61.776C449.412 61.776 450.014 61.9347 450.536 62.252C451.068 62.56 451.479 62.994 451.768 63.554C452.067 64.1047 452.216 64.7393 452.216 65.458C452.216 66.1767 452.067 66.8207 451.768 67.39C451.479 67.95 451.068 68.3887 450.536 68.706C450.014 69.014 449.412 69.168 448.73 69.168C448.357 69.168 447.946 69.0607 447.498 68.846C447.05 68.622 446.7 68.3 446.448 67.88V72.234H444.992V61.776ZM457.359 65.444L460.061 69.098H458.255L456.505 66.62L454.769 69.098H452.963L455.623 65.444L452.907 61.776H454.727L456.505 64.324L458.269 61.776H460.089L457.359 65.444Z" fill="#6B6B6B"/>
</g>
<defs>
<clipPath id="clip0_2269_3847">
<rect width="880" height="125.6" fill="white"/>
</clipPath>
<clipPath id="clip1_2269_3847">
<rect width="39.2" height="19.2" fill="white" transform="translate(44 12.4004)"/>
</clipPath>
</defs>
</svg>
