<svg width="908" height="133" viewBox="0 0 908 133" fill="none" xmlns="http://www.w3.org/2000/svg">
<rect width="907" height="132.8" transform="translate(0.5)" fill="white"/>
<path d="M58.9472 90.8457C58.752 91.0409 58.752 91.3575 58.9472 91.5528L62.1292 94.7348C62.3245 94.93 62.6411 94.93 62.8363 94.7348C63.0316 94.5395 63.0316 94.2229 62.8363 94.0276L60.0079 91.1992L62.8363 88.3708C63.0316 88.1755 63.0316 87.8589 62.8363 87.6637C62.6411 87.4684 62.3245 87.4684 62.1292 87.6637L58.9472 90.8457ZM312.454 91.5528C312.65 91.3575 312.65 91.0409 312.454 90.8456L309.272 87.6637C309.077 87.4684 308.761 87.4684 308.565 87.6637C308.37 87.8589 308.37 88.1755 308.565 88.3708L311.394 91.1992L308.565 94.0276C308.37 94.2229 308.37 94.5395 308.565 94.7347C308.761 94.93 309.077 94.93 309.272 94.7347L312.454 91.5528ZM59.3008 91.6992L312.101 91.6992L312.101 90.6992L59.3008 90.6992L59.3008 91.6992Z" fill="#6B6B6B"/>
<path d="M327.748 90.8457C327.553 91.0409 327.553 91.3575 327.748 91.5528L330.93 94.7348C331.125 94.93 331.442 94.93 331.637 94.7348C331.832 94.5395 331.832 94.2229 331.637 94.0276L328.809 91.1992L331.637 88.3708C331.832 88.1755 331.832 87.8589 331.637 87.6637C331.442 87.4684 331.125 87.4684 330.93 87.6637L327.748 90.8457ZM850.055 91.5527C850.25 91.3575 850.25 91.0409 850.055 90.8456L846.873 87.6636C846.678 87.4684 846.361 87.4684 846.166 87.6636C845.971 87.8589 845.971 88.1755 846.166 88.3707L848.994 91.1992L846.166 94.0276C845.971 94.2229 845.971 94.5394 846.166 94.7347C846.361 94.93 846.678 94.93 846.873 94.7347L850.055 91.5527ZM328.102 91.6992L849.702 91.6992L849.702 90.6992L328.102 90.6992L328.102 91.6992Z" fill="#6B6B6B"/>
<path d="M141.141 101.332H136.329V104.116H140.373V105.196H136.329V109.084H135.081V100.252H141.141V101.332ZM143.733 102.844V109.084H142.485V102.844H143.733ZM142.401 100.804C142.401 100.596 142.465 100.428 142.593 100.3C142.729 100.164 142.901 100.096 143.109 100.096C143.317 100.096 143.485 100.164 143.613 100.3C143.749 100.428 143.817 100.596 143.817 100.804C143.817 101.004 143.749 101.172 143.613 101.308C143.485 101.444 143.317 101.512 143.109 101.512C142.901 101.512 142.729 101.448 142.593 101.32C142.465 101.184 142.401 101.012 142.401 100.804ZM148.608 105.952L150.924 109.084H149.376L147.876 106.96L146.388 109.084H144.84L147.12 105.952L144.792 102.808H146.352L147.876 104.992L149.388 102.808H150.948L148.608 105.952ZM156.094 105.484C156.038 105.02 155.874 104.632 155.602 104.32C155.33 104 154.938 103.84 154.426 103.84C153.962 103.84 153.558 104 153.214 104.32C152.878 104.632 152.674 105.024 152.602 105.496L156.094 105.484ZM151.402 105.964C151.402 105.348 151.53 104.8 151.786 104.32C152.042 103.84 152.394 103.468 152.842 103.204C153.298 102.932 153.818 102.796 154.402 102.796C155.226 102.796 155.83 102.996 156.214 103.396C156.606 103.796 156.87 104.164 157.006 104.5C157.19 104.948 157.282 105.444 157.282 105.988C157.282 106.1 157.278 106.2 157.27 106.288C157.262 106.368 157.258 106.42 157.258 106.444H152.602C152.674 106.924 152.882 107.316 153.226 107.62C153.57 107.924 153.966 108.076 154.414 108.076C154.774 108.076 155.07 108.02 155.302 107.908C155.542 107.796 155.706 107.692 155.794 107.596C155.882 107.5 155.966 107.392 156.046 107.272L157.054 107.728C156.862 108.12 156.542 108.452 156.094 108.724C155.646 108.988 155.082 109.12 154.402 109.12C153.818 109.12 153.298 108.988 152.842 108.724C152.394 108.452 152.042 108.076 151.786 107.596C151.53 107.116 151.402 106.572 151.402 105.964ZM161.301 109.144C160.725 109.144 160.209 109.012 159.753 108.748C159.305 108.476 158.953 108.1 158.697 107.62C158.441 107.14 158.313 106.592 158.313 105.976C158.313 105.36 158.437 104.812 158.685 104.332C158.941 103.844 159.297 103.468 159.753 103.204C160.209 102.932 160.725 102.796 161.301 102.796C161.637 102.796 161.989 102.884 162.357 103.06C162.725 103.228 163.033 103.508 163.281 103.9V100.252H164.529V109.096H163.281V108.052C163.025 108.428 162.713 108.704 162.345 108.88C161.977 109.056 161.629 109.144 161.301 109.144ZM159.561 105.988C159.561 106.628 159.729 107.148 160.065 107.548C160.409 107.94 160.853 108.136 161.397 108.136C161.733 108.136 162.045 108.04 162.333 107.848C162.621 107.656 162.849 107.396 163.017 107.068C163.193 106.74 163.281 106.38 163.281 105.988C163.281 105.604 163.193 105.248 163.017 104.92C162.849 104.592 162.621 104.332 162.333 104.14C162.045 103.948 161.733 103.852 161.397 103.852C160.853 103.852 160.409 104.052 160.065 104.452C159.729 104.844 159.561 105.356 159.561 105.988ZM169.736 101.932C169.944 101.932 170.112 101.996 170.24 102.124C170.368 102.252 170.432 102.42 170.432 102.628C170.432 102.836 170.364 103.008 170.228 103.144C170.1 103.272 169.936 103.336 169.736 103.336C169.536 103.336 169.368 103.268 169.232 103.132C169.096 102.996 169.028 102.828 169.028 102.628C169.028 102.428 169.092 102.264 169.22 102.136C169.356 102 169.528 101.932 169.736 101.932ZM169.028 106.66C169.028 106.46 169.092 106.296 169.22 106.168C169.356 106.032 169.528 105.964 169.736 105.964C169.944 105.964 170.112 106.028 170.24 106.156C170.368 106.284 170.432 106.452 170.432 106.66C170.432 106.868 170.364 107.04 170.228 107.176C170.1 107.304 169.936 107.368 169.736 107.368C169.536 107.368 169.368 107.3 169.232 107.164C169.096 107.028 169.028 106.86 169.028 106.66ZM179.257 104.524C179.641 104.748 179.945 105.052 180.169 105.436C180.401 105.812 180.517 106.188 180.517 106.564C180.517 107.052 180.393 107.488 180.145 107.872C179.897 108.256 179.549 108.556 179.101 108.772C178.653 108.988 178.145 109.096 177.577 109.096C177.009 109.096 176.501 108.988 176.053 108.772C175.605 108.548 175.253 108.24 174.997 107.848C174.749 107.448 174.625 106.996 174.625 106.492H175.873C175.873 106.932 176.033 107.292 176.353 107.572C176.673 107.852 177.081 107.992 177.577 107.992C178.089 107.992 178.505 107.856 178.825 107.584C179.145 107.304 179.305 106.944 179.305 106.504C179.305 106.072 179.145 105.72 178.825 105.448C178.505 105.176 178.097 105.04 177.601 105.04H176.977V103.996H177.601C178.065 103.996 178.445 103.872 178.741 103.624C179.037 103.376 179.185 103.056 179.185 102.664C179.185 102.272 179.041 101.956 178.753 101.716C178.465 101.468 178.097 101.344 177.649 101.344C177.209 101.344 176.845 101.468 176.557 101.716C176.277 101.964 176.137 102.284 176.137 102.676H174.889C174.889 102.204 175.005 101.784 175.237 101.416C175.477 101.04 175.805 100.752 176.221 100.552C176.637 100.344 177.113 100.24 177.649 100.24C178.177 100.24 178.649 100.34 179.065 100.54C179.489 100.74 179.817 101.02 180.049 101.38C180.281 101.74 180.397 102.148 180.397 102.604C180.397 102.948 180.293 103.3 180.085 103.66C179.877 104.012 179.601 104.3 179.257 104.524ZM184.799 109.036L183.551 109.024V101.644L182.027 102.508L181.499 101.464L183.563 100.312H184.799V109.036ZM189.443 108.028C189.963 108.028 190.387 107.86 190.715 107.524C191.051 107.188 191.219 106.752 191.219 106.216C191.219 105.68 191.051 105.244 190.715 104.908C190.387 104.564 189.963 104.392 189.443 104.392C188.931 104.392 188.511 104.564 188.183 104.908C187.855 105.244 187.691 105.68 187.691 106.216C187.691 106.752 187.855 107.188 188.183 107.524C188.511 107.86 188.931 108.028 189.443 108.028ZM186.443 106.216C186.443 105.688 186.603 105.136 186.923 104.56L189.335 100.288H190.763L189.011 103.348C189.147 103.316 189.307 103.3 189.491 103.3C190.067 103.3 190.579 103.428 191.027 103.684C191.483 103.932 191.835 104.276 192.083 104.716C192.339 105.156 192.467 105.656 192.467 106.216C192.467 106.776 192.339 107.276 192.083 107.716C191.827 108.156 191.471 108.5 191.015 108.748C190.559 108.996 190.039 109.12 189.455 109.12C188.871 109.12 188.351 108.996 187.895 108.748C187.439 108.5 187.083 108.156 186.827 107.716C186.571 107.276 186.443 106.776 186.443 106.216ZM197.022 108.112C197.558 108.112 197.994 107.916 198.33 107.524C198.666 107.124 198.834 106.604 198.834 105.964C198.834 105.332 198.666 104.82 198.33 104.428C197.994 104.036 197.558 103.84 197.022 103.84C196.686 103.84 196.374 103.936 196.086 104.128C195.798 104.32 195.57 104.58 195.402 104.908C195.234 105.228 195.15 105.58 195.15 105.964C195.15 106.356 195.234 106.716 195.402 107.044C195.57 107.372 195.798 107.632 196.086 107.824C196.374 108.016 196.686 108.112 197.022 108.112ZM193.89 102.808H195.138V103.888C195.354 103.528 195.654 103.26 196.038 103.084C196.422 102.9 196.774 102.808 197.094 102.808C197.678 102.808 198.194 102.944 198.642 103.216C199.098 103.48 199.45 103.852 199.698 104.332C199.954 104.804 200.082 105.348 200.082 105.964C200.082 106.58 199.954 107.132 199.698 107.62C199.45 108.1 199.098 108.476 198.642 108.748C198.194 109.012 197.678 109.144 197.094 109.144C196.774 109.144 196.422 109.052 196.038 108.868C195.654 108.676 195.354 108.4 195.138 108.04V111.772H193.89V102.808ZM204.49 105.952L206.806 109.084H205.258L203.758 106.96L202.27 109.084H200.722L203.002 105.952L200.674 102.808H202.234L203.758 104.992L205.27 102.808H206.83L204.49 105.952ZM208.889 107.224C208.617 106.296 208.481 105.444 208.481 104.668C208.481 103.892 208.617 103.044 208.889 102.124C209.169 101.196 209.525 100.388 209.957 99.7H211.277C210.789 100.372 210.389 101.172 210.077 102.1C209.765 103.028 209.609 103.884 209.609 104.668C209.609 105.452 209.765 106.308 210.077 107.236C210.389 108.164 210.789 108.964 211.277 109.636H209.957C209.525 108.948 209.169 108.144 208.889 107.224ZM214.15 102.424V109.084H212.902V100.252H214.246L217.462 105.46L220.678 100.252H222.022V109.084H220.774V102.412L217.462 107.596L214.15 102.424ZM225.116 102.844V109.084H223.868V102.844H225.116ZM223.784 100.804C223.784 100.596 223.848 100.428 223.976 100.3C224.112 100.164 224.284 100.096 224.492 100.096C224.7 100.096 224.868 100.164 224.996 100.3C225.132 100.428 225.2 100.596 225.2 100.804C225.2 101.004 225.132 101.172 224.996 101.308C224.868 101.444 224.7 101.512 224.492 101.512C224.284 101.512 224.112 101.448 223.976 101.32C223.848 101.184 223.784 101.012 223.784 100.804ZM231.149 105.604C231.149 105.076 231.013 104.656 230.741 104.344C230.477 104.024 230.113 103.864 229.649 103.864C229.337 103.864 229.053 103.944 228.797 104.104C228.549 104.256 228.353 104.464 228.209 104.728C228.073 104.992 228.005 105.284 228.005 105.604V109.084H226.757V102.808H228.005V103.864C228.197 103.56 228.461 103.312 228.797 103.12C229.133 102.92 229.473 102.82 229.817 102.82C230.249 102.82 230.661 102.92 231.053 103.12C231.445 103.312 231.765 103.612 232.013 104.02C232.269 104.428 232.397 104.94 232.397 105.556V109.084H231.149V105.604ZM236.194 102.124C236.474 103.052 236.614 103.9 236.614 104.668C236.614 105.436 236.474 106.284 236.194 107.212C235.922 108.14 235.574 108.948 235.15 109.636H233.83C234.318 108.964 234.714 108.164 235.018 107.236C235.33 106.308 235.486 105.452 235.486 104.668C235.486 103.884 235.33 103.028 235.018 102.1C234.714 101.172 234.318 100.372 233.83 99.7H235.15C235.574 100.388 235.922 101.196 236.194 102.124Z" fill="#6B6B6B"/>
<path d="M540.401 101.332H535.589V104.116H539.633V105.196H535.589V109.084H534.341V100.252H540.401V101.332ZM542.993 102.844V109.084H541.745V102.844H542.993ZM541.661 100.804C541.661 100.596 541.725 100.428 541.853 100.3C541.989 100.164 542.161 100.096 542.369 100.096C542.577 100.096 542.745 100.164 542.873 100.3C543.009 100.428 543.077 100.596 543.077 100.804C543.077 101.004 543.009 101.172 542.873 101.308C542.745 101.444 542.577 101.512 542.369 101.512C542.161 101.512 541.989 101.448 541.853 101.32C541.725 101.184 541.661 101.012 541.661 100.804ZM547.868 105.952L550.184 109.084H548.636L547.136 106.96L545.648 109.084H544.1L546.38 105.952L544.052 102.808H545.612L547.136 104.992L548.648 102.808H550.208L547.868 105.952ZM555.354 105.484C555.298 105.02 555.134 104.632 554.862 104.32C554.59 104 554.198 103.84 553.686 103.84C553.222 103.84 552.818 104 552.474 104.32C552.138 104.632 551.934 105.024 551.862 105.496L555.354 105.484ZM550.662 105.964C550.662 105.348 550.79 104.8 551.046 104.32C551.302 103.84 551.654 103.468 552.102 103.204C552.558 102.932 553.078 102.796 553.662 102.796C554.486 102.796 555.09 102.996 555.474 103.396C555.866 103.796 556.13 104.164 556.266 104.5C556.45 104.948 556.542 105.444 556.542 105.988C556.542 106.1 556.538 106.2 556.53 106.288C556.522 106.368 556.518 106.42 556.518 106.444H551.862C551.934 106.924 552.142 107.316 552.486 107.62C552.83 107.924 553.226 108.076 553.674 108.076C554.034 108.076 554.33 108.02 554.562 107.908C554.802 107.796 554.966 107.692 555.054 107.596C555.142 107.5 555.226 107.392 555.306 107.272L556.314 107.728C556.122 108.12 555.802 108.452 555.354 108.724C554.906 108.988 554.342 109.12 553.662 109.12C553.078 109.12 552.558 108.988 552.102 108.724C551.654 108.452 551.302 108.076 551.046 107.596C550.79 107.116 550.662 106.572 550.662 105.964ZM560.561 109.144C559.985 109.144 559.469 109.012 559.013 108.748C558.565 108.476 558.213 108.1 557.957 107.62C557.701 107.14 557.573 106.592 557.573 105.976C557.573 105.36 557.697 104.812 557.945 104.332C558.201 103.844 558.557 103.468 559.013 103.204C559.469 102.932 559.985 102.796 560.561 102.796C560.897 102.796 561.249 102.884 561.617 103.06C561.985 103.228 562.293 103.508 562.541 103.9V100.252H563.789V109.096H562.541V108.052C562.285 108.428 561.973 108.704 561.605 108.88C561.237 109.056 560.889 109.144 560.561 109.144ZM558.821 105.988C558.821 106.628 558.989 107.148 559.325 107.548C559.669 107.94 560.113 108.136 560.657 108.136C560.993 108.136 561.305 108.04 561.593 107.848C561.881 107.656 562.109 107.396 562.277 107.068C562.453 106.74 562.541 106.38 562.541 105.988C562.541 105.604 562.453 105.248 562.277 104.92C562.109 104.592 561.881 104.332 561.593 104.14C561.305 103.948 560.993 103.852 560.657 103.852C560.113 103.852 559.669 104.052 559.325 104.452C558.989 104.844 558.821 105.356 558.821 105.988ZM568.996 101.932C569.204 101.932 569.372 101.996 569.5 102.124C569.628 102.252 569.692 102.42 569.692 102.628C569.692 102.836 569.624 103.008 569.488 103.144C569.36 103.272 569.196 103.336 568.996 103.336C568.796 103.336 568.628 103.268 568.492 103.132C568.356 102.996 568.288 102.828 568.288 102.628C568.288 102.428 568.352 102.264 568.48 102.136C568.616 102 568.788 101.932 568.996 101.932ZM568.288 106.66C568.288 106.46 568.352 106.296 568.48 106.168C568.616 106.032 568.788 105.964 568.996 105.964C569.204 105.964 569.372 106.028 569.5 106.156C569.628 106.284 569.692 106.452 569.692 106.66C569.692 106.868 569.624 107.04 569.488 107.176C569.36 107.304 569.196 107.368 568.996 107.368C568.796 107.368 568.628 107.3 568.492 107.164C568.356 107.028 568.288 106.86 568.288 106.66ZM576.884 108.028C577.404 108.028 577.828 107.86 578.156 107.524C578.492 107.188 578.66 106.752 578.66 106.216C578.66 105.68 578.492 105.244 578.156 104.908C577.828 104.564 577.404 104.392 576.884 104.392C576.372 104.392 575.952 104.564 575.624 104.908C575.296 105.244 575.132 105.68 575.132 106.216C575.132 106.752 575.296 107.188 575.624 107.524C575.952 107.86 576.372 108.028 576.884 108.028ZM573.884 106.216C573.884 105.688 574.044 105.136 574.364 104.56L576.776 100.288H578.204L576.452 103.348C576.588 103.316 576.748 103.3 576.932 103.3C577.508 103.3 578.02 103.428 578.468 103.684C578.924 103.932 579.276 104.276 579.524 104.716C579.78 105.156 579.908 105.656 579.908 106.216C579.908 106.776 579.78 107.276 579.524 107.716C579.268 108.156 578.912 108.5 578.456 108.748C578 108.996 577.48 109.12 576.896 109.12C576.312 109.12 575.792 108.996 575.336 108.748C574.88 108.5 574.524 108.156 574.268 107.716C574.012 107.276 573.884 106.776 573.884 106.216ZM581.331 104.956L581.619 100.3H586.275V101.392H582.819L582.675 103.564C583.099 103.372 583.515 103.276 583.923 103.276C584.515 103.276 585.043 103.4 585.507 103.648C585.979 103.896 586.343 104.24 586.599 104.68C586.863 105.12 586.995 105.624 586.995 106.192C586.995 106.768 586.863 107.28 586.599 107.728C586.343 108.176 585.979 108.524 585.507 108.772C585.043 109.02 584.515 109.144 583.923 109.144C583.459 109.144 583.023 109.048 582.615 108.856C582.207 108.664 581.859 108.396 581.571 108.052C581.283 107.708 581.087 107.316 580.983 106.876L582.195 106.588C582.291 106.996 582.499 107.332 582.819 107.596C583.139 107.852 583.507 107.98 583.923 107.98C584.459 107.98 584.895 107.816 585.231 107.488C585.575 107.152 585.747 106.72 585.747 106.192C585.747 105.68 585.575 105.264 585.231 104.944C584.895 104.616 584.459 104.452 583.923 104.452C583.699 104.452 583.463 104.516 583.215 104.644C582.967 104.764 582.751 104.92 582.567 105.112L581.331 104.956ZM588.238 107.944C588.35 107.84 588.758 107.464 589.462 106.816C590.11 106.232 590.626 105.752 591.01 105.376C591.402 104.992 591.73 104.6 591.994 104.2C592.258 103.792 592.39 103.408 592.39 103.048C592.39 102.552 592.246 102.148 591.958 101.836C591.678 101.516 591.314 101.356 590.866 101.356C590.522 101.356 590.19 101.468 589.87 101.692C589.55 101.916 589.314 102.204 589.162 102.556L588.07 102.076C588.31 101.532 588.69 101.088 589.21 100.744C589.738 100.392 590.29 100.216 590.866 100.216C591.402 100.216 591.878 100.336 592.294 100.576C592.718 100.816 593.046 101.152 593.278 101.584C593.518 102.008 593.638 102.496 593.638 103.048C593.638 103.592 593.474 104.132 593.146 104.668C592.826 105.204 592.434 105.7 591.97 106.156C591.514 106.612 590.93 107.144 590.218 107.752L590.002 107.944H593.77V109.036H588.358L588.238 107.944ZM598.321 108.112C598.857 108.112 599.293 107.916 599.629 107.524C599.965 107.124 600.133 106.604 600.133 105.964C600.133 105.332 599.965 104.82 599.629 104.428C599.293 104.036 598.857 103.84 598.321 103.84C597.985 103.84 597.673 103.936 597.385 104.128C597.097 104.32 596.869 104.58 596.701 104.908C596.533 105.228 596.449 105.58 596.449 105.964C596.449 106.356 596.533 106.716 596.701 107.044C596.869 107.372 597.097 107.632 597.385 107.824C597.673 108.016 597.985 108.112 598.321 108.112ZM595.189 102.808H596.437V103.888C596.653 103.528 596.953 103.26 597.337 103.084C597.721 102.9 598.073 102.808 598.393 102.808C598.977 102.808 599.493 102.944 599.941 103.216C600.397 103.48 600.749 103.852 600.997 104.332C601.253 104.804 601.381 105.348 601.381 105.964C601.381 106.58 601.253 107.132 600.997 107.62C600.749 108.1 600.397 108.476 599.941 108.748C599.493 109.012 598.977 109.144 598.393 109.144C598.073 109.144 597.721 109.052 597.337 108.868C596.953 108.676 596.653 108.4 596.437 108.04V111.772H595.189V102.808ZM605.789 105.952L608.105 109.084H606.557L605.057 106.96L603.569 109.084H602.021L604.301 105.952L601.973 102.808H603.533L605.057 104.992L606.569 102.808H608.129L605.789 105.952ZM610.188 107.224C609.916 106.296 609.78 105.444 609.78 104.668C609.78 103.892 609.916 103.044 610.188 102.124C610.468 101.196 610.824 100.388 611.256 99.7H612.576C612.088 100.372 611.688 101.172 611.376 102.1C611.064 103.028 610.908 103.884 610.908 104.668C610.908 105.452 611.064 106.308 611.376 107.236C611.688 108.164 612.088 108.964 612.576 109.636H611.256C610.824 108.948 610.468 108.144 610.188 107.224ZM615.448 102.424V109.084H614.2V100.252H615.544L618.76 105.46L621.976 100.252H623.32V109.084H622.072V102.412L618.76 107.596L615.448 102.424ZM627.832 108.112C628.16 108.112 628.468 108.02 628.756 107.836C629.044 107.644 629.272 107.388 629.44 107.068C629.616 106.74 629.704 106.38 629.704 105.988C629.704 105.596 629.616 105.24 629.44 104.92C629.272 104.592 629.044 104.336 628.756 104.152C628.468 103.96 628.16 103.864 627.832 103.864C627.296 103.864 626.86 104.06 626.524 104.452C626.188 104.844 626.02 105.356 626.02 105.988C626.02 106.62 626.188 107.132 626.524 107.524C626.86 107.916 627.296 108.112 627.832 108.112ZM624.772 105.988C624.772 105.38 624.896 104.836 625.144 104.356C625.4 103.876 625.752 103.504 626.2 103.24C626.656 102.968 627.172 102.832 627.748 102.832C628.116 102.832 628.468 102.924 628.804 103.108C629.148 103.284 629.444 103.552 629.692 103.912V102.808H630.94V109.084L629.692 109.096V108.052C629.436 108.42 629.14 108.696 628.804 108.88C628.468 109.056 628.116 109.144 627.748 109.144C627.172 109.144 626.656 109.012 626.2 108.748C625.752 108.476 625.4 108.1 625.144 107.62C624.896 107.14 624.772 106.596 624.772 105.988ZM636.048 105.952L638.364 109.084H636.816L635.316 106.96L633.828 109.084H632.28L634.56 105.952L632.232 102.808H633.792L635.316 104.992L636.828 102.808H638.388L636.048 105.952ZM641.935 102.124C642.215 103.052 642.355 103.9 642.355 104.668C642.355 105.436 642.215 106.284 641.935 107.212C641.663 108.14 641.315 108.948 640.891 109.636H639.571C640.059 108.964 640.455 108.164 640.759 107.236C641.071 106.308 641.227 105.452 641.227 104.668C641.227 103.884 641.071 103.028 640.759 102.1C640.455 101.172 640.059 100.372 639.571 99.7H640.891C641.315 100.388 641.663 101.196 641.935 102.124Z" fill="#6B6B6B"/>
<path d="M61.0496 35.4708H65.1376V36.4788H59.8848V28.2356H61.0496V35.4708ZM68.5066 35.5716C68.8127 35.5716 69.1002 35.4857 69.369 35.314C69.6378 35.1348 69.8506 34.8959 70.0074 34.5972C70.1717 34.2911 70.2538 33.9551 70.2538 33.5892C70.2538 33.2233 70.1717 32.8911 70.0074 32.5924C69.8506 32.2863 69.6378 32.0473 69.369 31.8756C69.1002 31.6964 68.8127 31.6068 68.5066 31.6068C68.0063 31.6068 67.5994 31.7897 67.2858 32.1556C66.9722 32.5215 66.8154 32.9993 66.8154 33.5892C66.8154 34.1791 66.9722 34.6569 67.2858 35.0228C67.5994 35.3887 68.0063 35.5716 68.5066 35.5716ZM65.6506 33.5892C65.6506 33.0217 65.7663 32.514 65.9978 32.066C66.2367 31.618 66.5653 31.2708 66.9834 31.0244C67.409 30.7705 67.8906 30.6436 68.4282 30.6436C68.7717 30.6436 69.1002 30.7295 69.4138 30.9012C69.7349 31.0655 70.0111 31.3156 70.2426 31.6516V30.6212H71.4074V36.4788L70.2426 36.49V35.5156C70.0037 35.8591 69.7274 36.1167 69.4138 36.2884C69.1002 36.4527 68.7717 36.5348 68.4282 36.5348C67.8906 36.5348 67.409 36.4116 66.9834 36.1652C66.5653 35.9113 66.2367 35.5604 65.9978 35.1124C65.7663 34.6644 65.6506 34.1567 65.6506 33.5892ZM75.8296 36.5348C75.5384 36.5348 75.221 36.4564 74.8776 36.2996C74.5416 36.1428 74.2504 35.8815 74.004 35.5156V36.49H72.8392V28.2356H74.004V31.6404C74.2504 31.2596 74.5416 30.9945 74.8776 30.8452C75.221 30.6884 75.5421 30.61 75.8408 30.61C76.3784 30.61 76.86 30.7369 77.2856 30.9908C77.7112 31.2447 78.0434 31.5956 78.2824 32.0436C78.5213 32.4916 78.6408 33.0031 78.6408 33.578C78.6408 34.1529 78.5213 34.6644 78.2824 35.1124C78.0434 35.5604 77.7112 35.9113 77.2856 36.1652C76.86 36.4116 76.3746 36.5348 75.8296 36.5348ZM74.004 33.5892C74.004 33.9551 74.0824 34.2911 74.2392 34.5972C74.396 34.9033 74.6088 35.146 74.8776 35.3252C75.1538 35.5044 75.4488 35.594 75.7624 35.594C76.2701 35.594 76.6808 35.4111 76.9944 35.0452C77.3154 34.6719 77.476 34.1865 77.476 33.5892C77.476 32.9993 77.3154 32.5215 76.9944 32.1556C76.6808 31.7823 76.2701 31.5956 75.7624 31.5956C75.4488 31.5956 75.1576 31.6852 74.8888 31.8644C74.62 32.0436 74.4034 32.2863 74.2392 32.5924C74.0824 32.8985 74.004 33.2308 74.004 33.5892ZM83.948 33.1188C83.8957 32.6857 83.7427 32.3236 83.4888 32.0324C83.2349 31.7337 82.8691 31.5844 82.3912 31.5844C81.9581 31.5844 81.5811 31.7337 81.26 32.0324C80.9464 32.3236 80.756 32.6895 80.6888 33.13L83.948 33.1188ZM79.5688 33.5668C79.5688 32.9919 79.6883 32.4804 79.9272 32.0324C80.1661 31.5844 80.4947 31.2372 80.9128 30.9908C81.3384 30.7369 81.8237 30.61 82.3688 30.61C83.1379 30.61 83.7016 30.7967 84.06 31.17C84.4259 31.5433 84.6723 31.8868 84.7992 32.2004C84.9709 32.6185 85.0568 33.0815 85.0568 33.5892C85.0568 33.6937 85.0531 33.7871 85.0456 33.8692C85.0381 33.9439 85.0344 33.9924 85.0344 34.0148H80.6888C80.756 34.4628 80.9501 34.8287 81.2712 35.1124C81.5923 35.3961 81.9619 35.538 82.38 35.538C82.716 35.538 82.9923 35.4857 83.2088 35.3812C83.4328 35.2767 83.5859 35.1796 83.668 35.09C83.7501 35.0004 83.8285 34.8996 83.9032 34.7876L84.844 35.2132C84.6648 35.5791 84.3661 35.8889 83.948 36.1428C83.5299 36.3892 83.0035 36.5124 82.3688 36.5124C81.8237 36.5124 81.3384 36.3892 80.9128 36.1428C80.4947 35.8889 80.1661 35.538 79.9272 35.09C79.6883 34.642 79.5688 34.1343 79.5688 33.5668ZM87.2635 28.2356V36.4788H86.0987V28.2356H87.2635Z" fill="#6B6B6B"/>
<path d="M287.882 34.6132C288.196 34.6132 288.474 34.5012 288.718 34.2772C288.967 34.0532 289.159 33.7396 289.294 33.3364C289.428 32.9268 289.495 32.4596 289.495 31.9348C289.495 31.4036 289.428 30.9364 289.294 30.5332C289.159 30.13 288.97 29.8164 288.727 29.5924C288.484 29.3684 288.202 29.2564 287.882 29.2564C287.562 29.2564 287.278 29.3684 287.028 29.5924C286.785 29.8164 286.596 30.13 286.462 30.5332C286.327 30.9364 286.26 31.4036 286.26 31.9348C286.26 32.4596 286.327 32.9268 286.462 33.3364C286.596 33.7396 286.785 34.0532 287.028 34.2772C287.278 34.5012 287.562 34.6132 287.882 34.6132ZM285.262 31.9348C285.262 31.25 285.374 30.6388 285.598 30.1012C285.822 29.5572 286.132 29.1348 286.529 28.834C286.926 28.5268 287.377 28.3732 287.882 28.3732C288.388 28.3732 288.839 28.5268 289.236 28.834C289.633 29.1348 289.94 29.5572 290.158 30.1012C290.382 30.6388 290.494 31.25 290.494 31.9348C290.494 32.6196 290.382 33.234 290.158 33.778C289.94 34.3156 289.633 34.7348 289.236 35.0356C288.839 35.3364 288.388 35.4868 287.882 35.4868C287.377 35.4868 286.926 35.3364 286.529 35.0356C286.132 34.7348 285.822 34.3156 285.598 33.778C285.374 33.234 285.262 32.6196 285.262 31.9348ZM292.4 35.938H291.402L293.456 27.9892H294.445L292.4 35.938ZM298.119 35.4292L297.121 35.4196V29.5156L295.901 30.2068L295.479 29.3716L297.13 28.45H298.119V35.4292ZM302.142 34.6132C302.455 34.6132 302.734 34.5012 302.977 34.2772C303.227 34.0532 303.419 33.7396 303.553 33.3364C303.687 32.9268 303.755 32.4596 303.755 31.9348C303.755 31.4036 303.687 30.9364 303.553 30.5332C303.419 30.13 303.23 29.8164 302.987 29.5924C302.743 29.3684 302.462 29.2564 302.142 29.2564C301.822 29.2564 301.537 29.3684 301.287 29.5924C301.044 29.8164 300.855 30.13 300.721 30.5332C300.587 30.9364 300.519 31.4036 300.519 31.9348C300.519 32.4596 300.587 32.9268 300.721 33.3364C300.855 33.7396 301.044 34.0532 301.287 34.2772C301.537 34.5012 301.822 34.6132 302.142 34.6132ZM299.521 31.9348C299.521 31.25 299.633 30.6388 299.857 30.1012C300.081 29.5572 300.391 29.1348 300.788 28.834C301.185 28.5268 301.636 28.3732 302.142 28.3732C302.647 28.3732 303.099 28.5268 303.495 28.834C303.892 29.1348 304.199 29.5572 304.417 30.1012C304.641 30.6388 304.753 31.25 304.753 31.9348C304.753 32.6196 304.641 33.234 304.417 33.778C304.199 34.3156 303.892 34.7348 303.495 35.0356C303.099 35.3364 302.647 35.4868 302.142 35.4868C301.636 35.4868 301.185 35.3364 300.788 35.0356C300.391 34.7348 300.081 34.3156 299.857 33.778C299.633 33.234 299.521 32.6196 299.521 31.9348ZM308.301 34.6132C308.615 34.6132 308.893 34.5012 309.136 34.2772C309.386 34.0532 309.578 33.7396 309.712 33.3364C309.847 32.9268 309.914 32.4596 309.914 31.9348C309.914 31.4036 309.847 30.9364 309.712 30.5332C309.578 30.13 309.389 29.8164 309.146 29.5924C308.903 29.3684 308.621 29.2564 308.301 29.2564C307.981 29.2564 307.696 29.3684 307.447 29.5924C307.204 29.8164 307.015 30.13 306.88 30.5332C306.746 30.9364 306.679 31.4036 306.679 31.9348C306.679 32.4596 306.746 32.9268 306.88 33.3364C307.015 33.7396 307.204 34.0532 307.447 34.2772C307.696 34.5012 307.981 34.6132 308.301 34.6132ZM305.68 31.9348C305.68 31.25 305.792 30.6388 306.016 30.1012C306.24 29.5572 306.551 29.1348 306.948 28.834C307.344 28.5268 307.796 28.3732 308.301 28.3732C308.807 28.3732 309.258 28.5268 309.655 28.834C310.052 29.1348 310.359 29.5572 310.576 30.1012C310.8 30.6388 310.912 31.25 310.912 31.9348C310.912 32.6196 310.8 33.234 310.576 33.778C310.359 34.3156 310.052 34.7348 309.655 35.0356C309.258 35.3364 308.807 35.4868 308.301 35.4868C307.796 35.4868 307.344 35.3364 306.948 35.0356C306.551 34.7348 306.24 34.3156 306.016 33.778C305.792 33.234 305.68 32.6196 305.68 31.9348Z" fill="#6B6B6B"/>
<mask id="path-7-inside-1_2274_3383" fill="white">
<path d="M59 47.8008C59 45.5916 60.7909 43.8008 63 43.8008H307.8C310.009 43.8008 311.8 45.5916 311.8 47.8008V72.6008C311.8 74.8099 310.009 76.6008 307.8 76.6008H63C60.7909 76.6008 59 74.8099 59 72.6008V47.8008Z"/>
</mask>
<path d="M59 47.8008C59 45.5916 60.7909 43.8008 63 43.8008H307.8C310.009 43.8008 311.8 45.5916 311.8 47.8008V72.6008C311.8 74.8099 310.009 76.6008 307.8 76.6008H63C60.7909 76.6008 59 74.8099 59 72.6008V47.8008Z" fill="white"/>
<path d="M63 44.6008H307.8V43.0008H63V44.6008ZM311 47.8008V72.6008H312.6V47.8008H311ZM307.8 75.8008H63V77.4008H307.8V75.8008ZM59.8 72.6008V47.8008H58.2V72.6008H59.8ZM63 75.8008C61.2327 75.8008 59.8 74.3681 59.8 72.6008H58.2C58.2 75.2517 60.349 77.4008 63 77.4008V75.8008ZM311 72.6008C311 74.3681 309.567 75.8008 307.8 75.8008V77.4008C310.451 77.4008 312.6 75.2517 312.6 72.6008H311ZM307.8 44.6008C309.567 44.6008 311 46.0335 311 47.8008H312.6C312.6 45.1498 310.451 43.0008 307.8 43.0008V44.6008ZM63 43.0008C60.349 43.0008 58.2 45.1498 58.2 47.8008H59.8C59.8 46.0335 61.2327 44.6008 63 44.6008V43.0008Z" fill="#C2C2C2" mask="url(#path-7-inside-1_2274_3383)"/>
<path d="M76.2412 56.9068H73.3996V65.2524H72.2732V56.9068H69.4188V55.9084H76.2412V56.9068ZM81.1938 61.5148C81.1341 60.9686 80.9549 60.5121 80.6562 60.1452C80.3661 59.7697 79.9266 59.582 79.3378 59.582C78.8002 59.582 78.3394 59.7654 77.9554 60.1324C77.5799 60.4908 77.3538 60.9558 77.277 61.5276L81.1938 61.5148ZM76.1634 61.95C76.1634 61.3014 76.2957 60.7254 76.5602 60.222C76.8247 59.7185 77.1959 59.326 77.6738 59.0444C78.1517 58.7628 78.6935 58.622 79.2994 58.622C80.5709 58.622 81.4797 59.2193 82.0258 60.414C82.205 60.8918 82.2946 61.3996 82.2946 61.9372C82.2946 62.0822 82.2903 62.2017 82.2818 62.2956C82.2733 62.3809 82.269 62.4278 82.269 62.4364H77.277C77.3623 62.991 77.5927 63.4433 77.9682 63.7932C78.3522 64.143 78.8002 64.318 79.3122 64.318C79.7218 64.318 80.0589 64.254 80.3234 64.126C80.5965 63.998 80.7842 63.8742 80.8866 63.7548C80.9975 63.6268 81.0957 63.4988 81.181 63.3708L82.077 63.8316C81.8807 64.2326 81.5437 64.574 81.0658 64.8556C80.5965 65.1372 80.0077 65.278 79.2994 65.278C78.6935 65.278 78.1517 65.1372 77.6738 64.8556C77.1959 64.574 76.8247 64.1814 76.5602 63.678C76.2957 63.1745 76.1634 62.5985 76.1634 61.95ZM86.7325 61.95L89.2029 65.2524H87.8077L86.1053 62.8972L84.4285 65.2524H83.0205L85.4653 61.95L82.9949 58.6348H84.4157L86.1053 61.0284L87.8077 58.6348H89.2157L86.7325 61.95ZM92.7847 65.278C92.2386 65.278 91.7906 65.0988 91.4407 64.7404C91.0908 64.382 90.9074 63.9212 90.8903 63.358V59.6588H89.7895V58.6732H90.8903V56.9196H92.0167V58.6732H93.4375V59.6588H92.0167V63.2812C92.0167 63.5372 92.0892 63.759 92.2343 63.9468C92.3794 64.1345 92.5628 64.2284 92.7847 64.2284C92.9127 64.2284 93.0279 64.2198 93.1303 64.2028C93.2327 64.1857 93.3351 64.1644 93.4375 64.1388L93.6423 65.1756C93.318 65.2438 93.0322 65.278 92.7847 65.278Z" fill="#C2C2C2"/>
<path d="M330.05 33.0704H334.138V34.0784H328.885V25.8352H330.05V33.0704ZM337.507 33.1712C337.813 33.1712 338.1 33.0853 338.369 32.9136C338.638 32.7344 338.851 32.4955 339.007 32.1968C339.172 31.8907 339.254 31.5547 339.254 31.1888C339.254 30.8229 339.172 30.4907 339.007 30.192C338.851 29.8859 338.638 29.6469 338.369 29.4752C338.1 29.296 337.813 29.2064 337.507 29.2064C337.006 29.2064 336.599 29.3893 336.286 29.7552C335.972 30.1211 335.815 30.5989 335.815 31.1888C335.815 31.7787 335.972 32.2565 336.286 32.6224C336.599 32.9883 337.006 33.1712 337.507 33.1712ZM334.651 31.1888C334.651 30.6213 334.766 30.1136 334.998 29.6656C335.237 29.2176 335.565 28.8704 335.983 28.624C336.409 28.3701 336.891 28.2432 337.428 28.2432C337.772 28.2432 338.1 28.3291 338.414 28.5008C338.735 28.6651 339.011 28.9152 339.243 29.2512V28.2208H340.407V34.0784L339.243 34.0896V33.1152C339.004 33.4587 338.727 33.7163 338.414 33.888C338.1 34.0523 337.772 34.1344 337.428 34.1344C336.891 34.1344 336.409 34.0112 335.983 33.7648C335.565 33.5109 335.237 33.16 334.998 32.712C334.766 32.264 334.651 31.7563 334.651 31.1888ZM344.83 34.1344C344.538 34.1344 344.221 34.056 343.878 33.8992C343.542 33.7424 343.25 33.4811 343.004 33.1152V34.0896H341.839V25.8352H343.004V29.24C343.25 28.8592 343.542 28.5941 343.878 28.4448C344.221 28.288 344.542 28.2096 344.841 28.2096C345.378 28.2096 345.86 28.3365 346.286 28.5904C346.711 28.8443 347.043 29.1952 347.282 29.6432C347.521 30.0912 347.641 30.6027 347.641 31.1776C347.641 31.7525 347.521 32.264 347.282 32.712C347.043 33.16 346.711 33.5109 346.286 33.7648C345.86 34.0112 345.375 34.1344 344.83 34.1344ZM343.004 31.1888C343.004 31.5547 343.082 31.8907 343.239 32.1968C343.396 32.5029 343.609 32.7456 343.878 32.9248C344.154 33.104 344.449 33.1936 344.762 33.1936C345.27 33.1936 345.681 33.0107 345.994 32.6448C346.315 32.2715 346.476 31.7861 346.476 31.1888C346.476 30.5989 346.315 30.1211 345.994 29.7552C345.681 29.3819 345.27 29.1952 344.762 29.1952C344.449 29.1952 344.158 29.2848 343.889 29.464C343.62 29.6432 343.403 29.8859 343.239 30.192C343.082 30.4981 343.004 30.8304 343.004 31.1888ZM352.948 30.7184C352.896 30.2853 352.743 29.9232 352.489 29.632C352.235 29.3333 351.869 29.184 351.391 29.184C350.958 29.184 350.581 29.3333 350.26 29.632C349.946 29.9232 349.756 30.2891 349.689 30.7296L352.948 30.7184ZM348.569 31.1664C348.569 30.5915 348.688 30.08 348.927 29.632C349.166 29.184 349.495 28.8368 349.913 28.5904C350.338 28.3365 350.824 28.2096 351.369 28.2096C352.138 28.2096 352.702 28.3963 353.06 28.7696C353.426 29.1429 353.672 29.4864 353.799 29.8C353.971 30.2181 354.057 30.6811 354.057 31.1888C354.057 31.2933 354.053 31.3867 354.046 31.4688C354.038 31.5435 354.034 31.592 354.034 31.6144H349.689C349.756 32.0624 349.95 32.4283 350.271 32.712C350.592 32.9957 350.962 33.1376 351.38 33.1376C351.716 33.1376 351.992 33.0853 352.209 32.9808C352.433 32.8763 352.586 32.7792 352.668 32.6896C352.75 32.6 352.829 32.4992 352.903 32.3872L353.844 32.8128C353.665 33.1787 353.366 33.4885 352.948 33.7424C352.53 33.9888 352.003 34.112 351.369 34.112C350.824 34.112 350.338 33.9888 349.913 33.7424C349.495 33.4885 349.166 33.1376 348.927 32.6896C348.688 32.2416 348.569 31.7339 348.569 31.1664ZM356.264 25.8352V34.0784H355.099V25.8352H356.264Z" fill="#6B6B6B"/>
<path d="M825.681 32.2128C825.995 32.2128 826.273 32.1008 826.516 31.8768C826.766 31.6528 826.958 31.3392 827.092 30.936C827.227 30.5264 827.294 30.0592 827.294 29.5344C827.294 29.0032 827.227 28.536 827.092 28.1328C826.958 27.7296 826.769 27.416 826.526 27.192C826.283 26.968 826.001 26.856 825.681 26.856C825.361 26.856 825.076 26.968 824.827 27.192C824.584 27.416 824.395 27.7296 824.26 28.1328C824.126 28.536 824.059 29.0032 824.059 29.5344C824.059 30.0592 824.126 30.5264 824.26 30.936C824.395 31.3392 824.584 31.6528 824.827 31.8768C825.076 32.1008 825.361 32.2128 825.681 32.2128ZM823.06 29.5344C823.06 28.8496 823.172 28.2384 823.396 27.7008C823.62 27.1568 823.931 26.7344 824.328 26.4336C824.724 26.1264 825.176 25.9728 825.681 25.9728C826.187 25.9728 826.638 26.1264 827.035 26.4336C827.432 26.7344 827.739 27.1568 827.956 27.7008C828.18 28.2384 828.292 28.8496 828.292 29.5344C828.292 30.2192 828.18 30.8336 827.956 31.3776C827.739 31.9152 827.432 32.3344 827.035 32.6352C826.638 32.936 826.187 33.0864 825.681 33.0864C825.176 33.0864 824.724 32.936 824.328 32.6352C823.931 32.3344 823.62 31.9152 823.396 31.3776C823.172 30.8336 823.06 30.2192 823.06 29.5344ZM830.199 33.5376H829.201L831.255 25.5888H832.244L830.199 33.5376ZM835.918 33.0288L834.919 33.0192V27.1152L833.7 27.8064L833.278 26.9712L834.929 26.0496H835.918V33.0288ZM839.941 32.2128C840.254 32.2128 840.533 32.1008 840.776 31.8768C841.025 31.6528 841.217 31.3392 841.352 30.936C841.486 30.5264 841.553 30.0592 841.553 29.5344C841.553 29.0032 841.486 28.536 841.352 28.1328C841.217 27.7296 841.029 27.416 840.785 27.192C840.542 26.968 840.261 26.856 839.941 26.856C839.621 26.856 839.336 26.968 839.086 27.192C838.843 27.416 838.654 27.7296 838.52 28.1328C838.385 28.536 838.318 29.0032 838.318 29.5344C838.318 30.0592 838.385 30.5264 838.52 30.936C838.654 31.3392 838.843 31.6528 839.086 31.8768C839.336 32.1008 839.621 32.2128 839.941 32.2128ZM837.32 29.5344C837.32 28.8496 837.432 28.2384 837.656 27.7008C837.88 27.1568 838.19 26.7344 838.587 26.4336C838.984 26.1264 839.435 25.9728 839.941 25.9728C840.446 25.9728 840.897 26.1264 841.294 26.4336C841.691 26.7344 841.998 27.1568 842.216 27.7008C842.44 28.2384 842.552 28.8496 842.552 29.5344C842.552 30.2192 842.44 30.8336 842.216 31.3776C841.998 31.9152 841.691 32.3344 841.294 32.6352C840.897 32.936 840.446 33.0864 839.941 33.0864C839.435 33.0864 838.984 32.936 838.587 32.6352C838.19 32.3344 837.88 31.9152 837.656 31.3776C837.432 30.8336 837.32 30.2192 837.32 29.5344ZM846.1 32.2128C846.414 32.2128 846.692 32.1008 846.935 31.8768C847.185 31.6528 847.377 31.3392 847.511 30.936C847.646 30.5264 847.713 30.0592 847.713 29.5344C847.713 29.0032 847.646 28.536 847.511 28.1328C847.377 27.7296 847.188 27.416 846.945 27.192C846.702 26.968 846.42 26.856 846.1 26.856C845.78 26.856 845.495 26.968 845.246 27.192C845.002 27.416 844.814 27.7296 844.679 28.1328C844.545 28.536 844.478 29.0032 844.478 29.5344C844.478 30.0592 844.545 30.5264 844.679 30.936C844.814 31.3392 845.002 31.6528 845.246 31.8768C845.495 32.1008 845.78 32.2128 846.1 32.2128ZM843.479 29.5344C843.479 28.8496 843.591 28.2384 843.815 27.7008C844.039 27.1568 844.35 26.7344 844.746 26.4336C845.143 26.1264 845.594 25.9728 846.1 25.9728C846.606 25.9728 847.057 26.1264 847.454 26.4336C847.85 26.7344 848.158 27.1568 848.375 27.7008C848.599 28.2384 848.711 28.8496 848.711 29.5344C848.711 30.2192 848.599 30.8336 848.375 31.3776C848.158 31.9152 847.85 32.3344 847.454 32.6352C847.057 32.936 846.606 33.0864 846.1 33.0864C845.594 33.0864 845.143 32.936 844.746 32.6352C844.35 32.3344 844.039 31.9152 843.815 31.3776C843.591 30.8336 843.479 30.2192 843.479 29.5344Z" fill="#6B6B6B"/>
<mask id="path-12-inside-2_2274_3383" fill="white">
<path d="M328 45.4004C328 43.1913 329.791 41.4004 332 41.4004H845.6C847.809 41.4004 849.6 43.1913 849.6 45.4004V70.2004C849.6 72.4095 847.809 74.2004 845.6 74.2004H332C329.791 74.2004 328 72.4095 328 70.2004V45.4004Z"/>
</mask>
<path d="M328 45.4004C328 43.1913 329.791 41.4004 332 41.4004H845.6C847.809 41.4004 849.6 43.1913 849.6 45.4004V70.2004C849.6 72.4095 847.809 74.2004 845.6 74.2004H332C329.791 74.2004 328 72.4095 328 70.2004V45.4004Z" fill="white"/>
<path d="M332 42.2004H845.6V40.6004H332V42.2004ZM848.8 45.4004V70.2004H850.4V45.4004H848.8ZM845.6 73.4004H332V75.0004H845.6V73.4004ZM328.8 70.2004V45.4004H327.2V70.2004H328.8ZM332 73.4004C330.233 73.4004 328.8 71.9677 328.8 70.2004H327.2C327.2 72.8514 329.349 75.0004 332 75.0004V73.4004ZM848.8 70.2004C848.8 71.9677 847.367 73.4004 845.6 73.4004V75.0004C848.251 75.0004 850.4 72.8514 850.4 70.2004H848.8ZM845.6 42.2004C847.367 42.2004 848.8 43.6331 848.8 45.4004H850.4C850.4 42.7494 848.251 40.6004 845.6 40.6004V42.2004ZM332 40.6004C329.349 40.6004 327.2 42.7494 327.2 45.4004H328.8C328.8 43.6331 330.233 42.2004 332 42.2004V40.6004Z" fill="#C2C2C2" mask="url(#path-12-inside-2_2274_3383)"/>
<path d="M345.241 54.5064H342.4V62.852H341.273V54.5064H338.419V53.508H345.241V54.5064ZM350.194 59.1144C350.134 58.5682 349.955 58.1117 349.656 57.7448C349.366 57.3693 348.927 57.1816 348.338 57.1816C347.8 57.1816 347.339 57.365 346.955 57.732C346.58 58.0904 346.354 58.5554 346.277 59.1272L350.194 59.1144ZM345.163 59.5496C345.163 58.901 345.296 58.325 345.56 57.8216C345.825 57.3181 346.196 56.9256 346.674 56.644C347.152 56.3624 347.694 56.2216 348.299 56.2216C349.571 56.2216 350.48 56.8189 351.026 58.0136C351.205 58.4914 351.295 58.9992 351.295 59.5368C351.295 59.6818 351.29 59.8013 351.282 59.8952C351.273 59.9805 351.269 60.0274 351.269 60.036H346.277C346.362 60.5906 346.593 61.0429 346.968 61.3928C347.352 61.7426 347.8 61.9176 348.312 61.9176C348.722 61.9176 349.059 61.8536 349.323 61.7256C349.596 61.5976 349.784 61.4738 349.887 61.3544C349.998 61.2264 350.096 61.0984 350.181 60.9704L351.077 61.4312C350.881 61.8322 350.544 62.1736 350.066 62.4552C349.596 62.7368 349.008 62.8776 348.299 62.8776C347.694 62.8776 347.152 62.7368 346.674 62.4552C346.196 62.1736 345.825 61.781 345.56 61.2776C345.296 60.7741 345.163 60.1981 345.163 59.5496ZM355.733 59.5496L358.203 62.852H356.808L355.105 60.4968L353.429 62.852H352.021L354.465 59.5496L351.995 56.2344H353.416L355.105 58.628L356.808 56.2344H358.216L355.733 59.5496ZM361.785 62.8776C361.239 62.8776 360.791 62.6984 360.441 62.34C360.091 61.9816 359.907 61.5208 359.89 60.9576V57.2584H358.79V56.2728H359.89V54.5192H361.017V56.2728H362.438V57.2584H361.017V60.8808C361.017 61.1368 361.089 61.3586 361.234 61.5464C361.379 61.7341 361.563 61.828 361.785 61.828C361.913 61.828 362.028 61.8194 362.13 61.8024C362.233 61.7853 362.335 61.764 362.438 61.7384L362.642 62.7752C362.318 62.8434 362.032 62.8776 361.785 62.8776Z" fill="#C2C2C2"/>
</svg>
