<svg width="390" height="279" viewBox="0 0 390 279" fill="none" xmlns="http://www.w3.org/2000/svg">
<g clip-path="url(#clip0_2274_3396)">
<rect width="390" height="278" transform="translate(0 0.800781)" fill="white"/>
<path d="M16.5 -0.199221C16.5 -4.34136 19.8579 -7.69922 24 -7.69922H366C370.142 -7.69922 373.5 -4.34135 373.5 -0.199219V121.801C373.5 125.943 370.142 129.301 366 129.301H24C19.8579 129.301 16.5 125.943 16.5 121.801V-0.199221Z" fill="white"/>
<path d="M16.5 -0.199221C16.5 -4.34136 19.8579 -7.69922 24 -7.69922H366C370.142 -7.69922 373.5 -4.34135 373.5 -0.199219V121.801C373.5 125.943 370.142 129.301 366 129.301H24C19.8579 129.301 16.5 125.943 16.5 121.801V-0.199221Z" stroke="#C2C2C2"/>
<path d="M42.562 26.6388H47.672V27.8988H41.106V17.5948H42.562V26.6388ZM51.8833 26.7648C52.2659 26.7648 52.6253 26.6574 52.9613 26.4428C53.2973 26.2188 53.5633 25.9201 53.7593 25.5468C53.9646 25.1641 54.0673 24.7441 54.0673 24.2868C54.0673 23.8294 53.9646 23.4141 53.7593 23.0408C53.5633 22.6581 53.2973 22.3594 52.9613 22.1448C52.6253 21.9208 52.2659 21.8088 51.8833 21.8088C51.2579 21.8088 50.7493 22.0374 50.3573 22.4948C49.9653 22.9521 49.7693 23.5494 49.7693 24.2868C49.7693 25.0241 49.9653 25.6214 50.3573 26.0788C50.7493 26.5361 51.2579 26.7648 51.8833 26.7648ZM48.3133 24.2868C48.3133 23.5774 48.4579 22.9428 48.7473 22.3828C49.0459 21.8228 49.4566 21.3888 49.9793 21.0808C50.5113 20.7634 51.1133 20.6048 51.7853 20.6048C52.2146 20.6048 52.6253 20.7121 53.0173 20.9268C53.4186 21.1321 53.7639 21.4448 54.0533 21.8648V20.5768H55.5093V27.8988L54.0533 27.9128V26.6948C53.7546 27.1241 53.4093 27.4461 53.0173 27.6608C52.6253 27.8661 52.2146 27.9688 51.7853 27.9688C51.1133 27.9688 50.5113 27.8148 49.9793 27.5068C49.4566 27.1894 49.0459 26.7508 48.7473 26.1908C48.4579 25.6308 48.3133 24.9961 48.3133 24.2868ZM61.037 27.9688C60.673 27.9688 60.2763 27.8708 59.847 27.6748C59.427 27.4788 59.063 27.1521 58.755 26.6948V27.9128H57.299V17.5948H58.755V21.8508C59.063 21.3748 59.427 21.0434 59.847 20.8568C60.2763 20.6608 60.6776 20.5628 61.051 20.5628C61.723 20.5628 62.325 20.7214 62.857 21.0388C63.389 21.3561 63.8043 21.7948 64.103 22.3548C64.4016 22.9148 64.551 23.5541 64.551 24.2728C64.551 24.9914 64.4016 25.6308 64.103 26.1908C63.8043 26.7508 63.389 27.1894 62.857 27.5068C62.325 27.8148 61.7183 27.9688 61.037 27.9688ZM58.755 24.2868C58.755 24.7441 58.853 25.1641 59.049 25.5468C59.245 25.9294 59.511 26.2328 59.847 26.4568C60.1923 26.6808 60.561 26.7928 60.953 26.7928C61.5876 26.7928 62.101 26.5641 62.493 26.1068C62.8943 25.6401 63.095 25.0334 63.095 24.2868C63.095 23.5494 62.8943 22.9521 62.493 22.4948C62.101 22.0281 61.5876 21.7948 60.953 21.7948C60.561 21.7948 60.197 21.9068 59.861 22.1308C59.525 22.3548 59.2543 22.6581 59.049 23.0408C58.853 23.4234 58.755 23.8388 58.755 24.2868ZM71.185 23.6988C71.1197 23.1574 70.9283 22.7048 70.611 22.3408C70.2937 21.9674 69.8363 21.7808 69.239 21.7808C68.6977 21.7808 68.2263 21.9674 67.825 22.3408C67.433 22.7048 67.195 23.1621 67.111 23.7128L71.185 23.6988ZM65.711 24.2588C65.711 23.5401 65.8603 22.9008 66.159 22.3408C66.4577 21.7808 66.8683 21.3468 67.391 21.0388C67.923 20.7214 68.5297 20.5628 69.211 20.5628C70.1723 20.5628 70.877 20.7961 71.325 21.2628C71.7823 21.7294 72.0903 22.1588 72.249 22.5508C72.4637 23.0734 72.571 23.6521 72.571 24.2868C72.571 24.4174 72.5663 24.5341 72.557 24.6368C72.5477 24.7301 72.543 24.7908 72.543 24.8188H67.111C67.195 25.3788 67.4377 25.8361 67.839 26.1908C68.2403 26.5454 68.7023 26.7228 69.225 26.7228C69.645 26.7228 69.9903 26.6574 70.261 26.5268C70.541 26.3961 70.7323 26.2748 70.835 26.1628C70.9377 26.0508 71.0357 25.9248 71.129 25.7848L72.305 26.3168C72.081 26.7741 71.7077 27.1614 71.185 27.4788C70.6623 27.7868 70.0043 27.9408 69.211 27.9408C68.5297 27.9408 67.923 27.7868 67.391 27.4788C66.8683 27.1614 66.4577 26.7228 66.159 26.1628C65.8603 25.6028 65.711 24.9681 65.711 24.2588ZM75.3294 17.5948V27.8988H73.8734V17.5948H75.3294Z" fill="#6B6B6B"/>
<path d="M319.852 26.8168C320.244 26.8168 320.592 26.6768 320.896 26.3968C321.208 26.1168 321.448 25.7248 321.616 25.2208C321.784 24.7088 321.868 24.1248 321.868 23.4688C321.868 22.8048 321.784 22.2208 321.616 21.7168C321.448 21.2128 321.212 20.8208 320.908 20.5408C320.604 20.2608 320.252 20.1208 319.852 20.1208C319.452 20.1208 319.096 20.2608 318.784 20.5408C318.48 20.8208 318.244 21.2128 318.076 21.7168C317.908 22.2208 317.824 22.8048 317.824 23.4688C317.824 24.1248 317.908 24.7088 318.076 25.2208C318.244 25.7248 318.48 26.1168 318.784 26.3968C319.096 26.6768 319.452 26.8168 319.852 26.8168ZM316.576 23.4688C316.576 22.6128 316.716 21.8488 316.996 21.1768C317.276 20.4968 317.664 19.9688 318.16 19.5928C318.656 19.2088 319.22 19.0168 319.852 19.0168C320.484 19.0168 321.048 19.2088 321.544 19.5928C322.04 19.9688 322.424 20.4968 322.696 21.1768C322.976 21.8488 323.116 22.6128 323.116 23.4688C323.116 24.3248 322.976 25.0928 322.696 25.7728C322.424 26.4448 322.04 26.9688 321.544 27.3448C321.048 27.7208 320.484 27.9088 319.852 27.9088C319.22 27.9088 318.656 27.7208 318.16 27.3448C317.664 26.9688 317.276 26.4448 316.996 25.7728C316.716 25.0928 316.576 24.3248 316.576 23.4688ZM325.499 28.4728H324.251L326.819 18.5368H328.055L325.499 28.4728ZM332.648 27.8368L331.4 27.8248V20.4448L329.876 21.3088L329.348 20.2648L331.412 19.1128H332.648V27.8368ZM337.676 26.8168C338.068 26.8168 338.416 26.6768 338.72 26.3968C339.032 26.1168 339.272 25.7248 339.44 25.2208C339.608 24.7088 339.692 24.1248 339.692 23.4688C339.692 22.8048 339.608 22.2208 339.44 21.7168C339.272 21.2128 339.036 20.8208 338.732 20.5408C338.428 20.2608 338.076 20.1208 337.676 20.1208C337.276 20.1208 336.92 20.2608 336.608 20.5408C336.304 20.8208 336.068 21.2128 335.9 21.7168C335.732 22.2208 335.648 22.8048 335.648 23.4688C335.648 24.1248 335.732 24.7088 335.9 25.2208C336.068 25.7248 336.304 26.1168 336.608 26.3968C336.92 26.6768 337.276 26.8168 337.676 26.8168ZM334.4 23.4688C334.4 22.6128 334.54 21.8488 334.82 21.1768C335.1 20.4968 335.488 19.9688 335.984 19.5928C336.48 19.2088 337.044 19.0168 337.676 19.0168C338.308 19.0168 338.872 19.2088 339.368 19.5928C339.864 19.9688 340.248 20.4968 340.52 21.1768C340.8 21.8488 340.94 22.6128 340.94 23.4688C340.94 24.3248 340.8 25.0928 340.52 25.7728C340.248 26.4448 339.864 26.9688 339.368 27.3448C338.872 27.7208 338.308 27.9088 337.676 27.9088C337.044 27.9088 336.48 27.7208 335.984 27.3448C335.488 26.9688 335.1 26.4448 334.82 25.7728C334.54 25.0928 334.4 24.3248 334.4 23.4688ZM345.375 26.8168C345.767 26.8168 346.115 26.6768 346.419 26.3968C346.731 26.1168 346.971 25.7248 347.139 25.2208C347.307 24.7088 347.391 24.1248 347.391 23.4688C347.391 22.8048 347.307 22.2208 347.139 21.7168C346.971 21.2128 346.735 20.8208 346.431 20.5408C346.127 20.2608 345.775 20.1208 345.375 20.1208C344.975 20.1208 344.619 20.2608 344.307 20.5408C344.003 20.8208 343.767 21.2128 343.599 21.7168C343.431 22.2208 343.347 22.8048 343.347 23.4688C343.347 24.1248 343.431 24.7088 343.599 25.2208C343.767 25.7248 344.003 26.1168 344.307 26.3968C344.619 26.6768 344.975 26.8168 345.375 26.8168ZM342.099 23.4688C342.099 22.6128 342.239 21.8488 342.519 21.1768C342.799 20.4968 343.187 19.9688 343.683 19.5928C344.179 19.2088 344.743 19.0168 345.375 19.0168C346.007 19.0168 346.571 19.2088 347.067 19.5928C347.563 19.9688 347.947 20.4968 348.219 21.1768C348.499 21.8488 348.639 22.6128 348.639 23.4688C348.639 24.3248 348.499 25.0928 348.219 25.7728C347.947 26.4448 347.563 26.9688 347.067 27.3448C346.571 27.7208 346.007 27.9088 345.375 27.9088C344.743 27.9088 344.179 27.7208 343.683 27.3448C343.187 26.9688 342.799 26.4448 342.519 25.7728C342.239 25.0928 342.099 24.3248 342.099 23.4688Z" fill="#6B6B6B"/>
<mask id="path-4-inside-1_2274_3396" fill="white">
<path d="M40 41.8008C40 39.5916 41.7909 37.8008 44 37.8008H346C348.209 37.8008 350 39.5916 350 41.8008V75.8008C350 78.0099 348.209 79.8008 346 79.8008H44C41.7909 79.8008 40 78.0099 40 75.8008V41.8008Z"/>
</mask>
<path d="M40 41.8008C40 39.5916 41.7909 37.8008 44 37.8008H346C348.209 37.8008 350 39.5916 350 41.8008V75.8008C350 78.0099 348.209 79.8008 346 79.8008H44C41.7909 79.8008 40 78.0099 40 75.8008V41.8008Z" fill="white"/>
<path d="M44 38.8008H346V36.8008H44V38.8008ZM349 41.8008V75.8008H351V41.8008H349ZM346 78.8008H44V80.8008H346V78.8008ZM41 75.8008V41.8008H39V75.8008H41ZM44 78.8008C42.3431 78.8008 41 77.4576 41 75.8008H39C39 78.5622 41.2386 80.8008 44 80.8008V78.8008ZM349 75.8008C349 77.4576 347.657 78.8008 346 78.8008V80.8008C348.761 80.8008 351 78.5622 351 75.8008H349ZM346 38.8008C347.657 38.8008 349 40.1439 349 41.8008H351C351 39.0394 348.761 36.8008 346 36.8008V38.8008ZM44 36.8008C41.2386 36.8008 39 39.0394 39 41.8008H41C41 40.1439 42.3431 38.8008 44 38.8008V36.8008Z" fill="#C2C2C2" mask="url(#path-4-inside-1_2274_3396)"/>
<path d="M61.552 54.4328H58V64.8648H56.592V54.4328H53.024V53.1848H61.552V54.4328ZM67.7428 60.1928C67.6681 59.5101 67.4441 58.9394 67.0708 58.4808C66.7081 58.0114 66.1588 57.7768 65.4228 57.7768C64.7508 57.7768 64.1748 58.0061 63.6948 58.4648C63.2254 58.9128 62.9428 59.4941 62.8468 60.2088L67.7428 60.1928ZM61.4548 60.7368C61.4548 59.9261 61.6201 59.2061 61.9508 58.5768C62.2814 57.9474 62.7454 57.4568 63.3428 57.1048C63.9401 56.7528 64.6174 56.5768 65.3748 56.5768C66.9641 56.5768 68.1001 57.3234 68.7828 58.8168C69.0068 59.4141 69.1188 60.0488 69.1188 60.7208C69.1188 60.9021 69.1134 61.0514 69.1028 61.1688C69.0921 61.2754 69.0868 61.3341 69.0868 61.3448H62.8468C62.9534 62.0381 63.2414 62.6034 63.7108 63.0408C64.1908 63.4781 64.7508 63.6968 65.3908 63.6968C65.9028 63.6968 66.3241 63.6168 66.6548 63.4568C66.9961 63.2968 67.2308 63.1421 67.3588 62.9928C67.4974 62.8328 67.6201 62.6728 67.7268 62.5128L68.8468 63.0888C68.6014 63.5901 68.1801 64.0168 67.5828 64.3688C66.9961 64.7208 66.2601 64.8968 65.3748 64.8968C64.6174 64.8968 63.9401 64.7208 63.3428 64.3688C62.7454 64.0168 62.2814 63.5261 61.9508 62.8968C61.6201 62.2674 61.4548 61.5474 61.4548 60.7368ZM74.6661 60.7368L77.7541 64.8648H76.0101L73.8821 61.9208L71.7861 64.8648H70.0261L73.0821 60.7368L69.9941 56.5928H71.7701L73.8821 59.5848L76.0101 56.5928H77.7701L74.6661 60.7368ZM82.2314 64.8968C81.5487 64.8968 80.9887 64.6728 80.5514 64.2248C80.114 63.7768 79.8847 63.2008 79.8634 62.4968V57.8728H78.4874V56.6408H79.8634V54.4488H81.2714V56.6408H83.0474V57.8728H81.2714V62.4008C81.2714 62.7208 81.362 62.9981 81.5434 63.2328C81.7247 63.4674 81.954 63.5848 82.2314 63.5848C82.3914 63.5848 82.5354 63.5741 82.6634 63.5528C82.7914 63.5314 82.9194 63.5048 83.0474 63.4728L83.3034 64.7688C82.898 64.8541 82.5407 64.8968 82.2314 64.8968Z" fill="#C2C2C2"/>
<path d="M39.5757 93.3765C39.3414 93.6108 39.3414 93.9907 39.5757 94.225L43.3941 98.0434C43.6284 98.2777 44.0083 98.2777 44.2426 98.0434C44.477 97.8091 44.477 97.4292 44.2426 97.1949L40.8485 93.8008L44.2426 90.4067C44.477 90.1724 44.477 89.7925 44.2426 89.5581C44.0083 89.3238 43.6284 89.3238 43.3941 89.5581L39.5757 93.3765ZM350.424 94.225C350.659 93.9907 350.659 93.6108 350.424 93.3765L346.606 89.5581C346.372 89.3238 345.992 89.3238 345.757 89.5581C345.523 89.7925 345.523 90.1724 345.757 90.4067L349.151 93.8008L345.757 97.1949C345.523 97.4292 345.523 97.8091 345.757 98.0434C345.992 98.2777 346.372 98.2777 346.606 98.0434L350.424 94.225ZM40 94.4008H350V93.2008H40V94.4008Z" fill="#6B6B6B"/>
<path d="M193.918 104.855H188.304V108.103H193.022V109.363H188.304V113.899H186.848V103.595H193.918V104.855ZM196.942 106.619V113.899H195.486V106.619H196.942ZM195.388 104.239C195.388 103.996 195.463 103.8 195.612 103.651C195.771 103.492 195.972 103.413 196.214 103.413C196.457 103.413 196.653 103.492 196.802 103.651C196.961 103.8 197.04 103.996 197.04 104.239C197.04 104.472 196.961 104.668 196.802 104.827C196.653 104.985 196.457 105.065 196.214 105.065C195.972 105.065 195.771 104.99 195.612 104.841C195.463 104.682 195.388 104.481 195.388 104.239ZM200.201 103.595V113.899H198.745V103.595H200.201ZM203.343 103.595V113.899H201.887V103.595H203.343Z" fill="#6B6B6B"/>
<path d="M15.5757 230.377C15.3414 230.611 15.3414 230.991 15.5757 231.225L19.3941 235.043C19.6284 235.278 20.0083 235.278 20.2426 235.043C20.477 234.809 20.477 234.429 20.2426 234.195L16.8485 230.801L20.2426 227.407C20.477 227.172 20.477 226.792 20.2426 226.558C20.0083 226.324 19.6284 226.324 19.3941 226.558L15.5757 230.377ZM374.424 231.225C374.659 230.991 374.659 230.611 374.424 230.377L370.606 226.558C370.372 226.324 369.992 226.324 369.757 226.558C369.523 226.792 369.523 227.172 369.757 227.407L373.151 230.801L369.757 234.195C369.523 234.429 369.523 234.809 369.757 235.043C369.992 235.278 370.372 235.278 370.606 235.043L374.424 231.225ZM16 231.401H374V230.201H16V231.401Z" fill="#6B6B6B"/>
<path d="M194.418 241.855H188.804V245.103H193.522V246.363H188.804V250.899H187.348V240.595H194.418V241.855ZM197.442 243.619V250.899H195.986V243.619H197.442ZM195.888 241.239C195.888 240.996 195.963 240.8 196.112 240.651C196.271 240.492 196.472 240.413 196.714 240.413C196.957 240.413 197.153 240.492 197.302 240.651C197.461 240.8 197.54 240.996 197.54 241.239C197.54 241.472 197.461 241.668 197.302 241.827C197.153 241.985 196.957 242.065 196.714 242.065C196.472 242.065 196.271 241.99 196.112 241.841C195.963 241.682 195.888 241.481 195.888 241.239ZM200.701 240.595V250.899H199.245V240.595H200.701ZM203.843 240.595V250.899H202.387V240.595H203.843Z" fill="#6B6B6B"/>
<path d="M18.562 163.639H23.672V164.899H17.106V154.595H18.562V163.639ZM27.8833 163.765C28.2659 163.765 28.6253 163.657 28.9613 163.443C29.2973 163.219 29.5633 162.92 29.7593 162.547C29.9646 162.164 30.0673 161.744 30.0673 161.287C30.0673 160.829 29.9646 160.414 29.7593 160.041C29.5633 159.658 29.2973 159.359 28.9613 159.145C28.6253 158.921 28.2659 158.809 27.8833 158.809C27.2579 158.809 26.7493 159.037 26.3573 159.495C25.9653 159.952 25.7693 160.549 25.7693 161.287C25.7693 162.024 25.9653 162.621 26.3573 163.079C26.7493 163.536 27.2579 163.765 27.8833 163.765ZM24.3133 161.287C24.3133 160.577 24.4579 159.943 24.7473 159.383C25.0459 158.823 25.4566 158.389 25.9793 158.081C26.5113 157.763 27.1133 157.605 27.7853 157.605C28.2146 157.605 28.6253 157.712 29.0173 157.927C29.4186 158.132 29.7639 158.445 30.0533 158.865V157.577H31.5093V164.899L30.0533 164.913V163.695C29.7546 164.124 29.4093 164.446 29.0173 164.661C28.6253 164.866 28.2146 164.969 27.7853 164.969C27.1133 164.969 26.5113 164.815 25.9793 164.507C25.4566 164.189 25.0459 163.751 24.7473 163.191C24.4579 162.631 24.3133 161.996 24.3133 161.287ZM37.037 164.969C36.673 164.969 36.2763 164.871 35.847 164.675C35.427 164.479 35.063 164.152 34.755 163.695V164.913H33.299V154.595H34.755V158.851C35.063 158.375 35.427 158.043 35.847 157.857C36.2763 157.661 36.6776 157.563 37.051 157.563C37.723 157.563 38.325 157.721 38.857 158.039C39.389 158.356 39.8043 158.795 40.103 159.355C40.4016 159.915 40.551 160.554 40.551 161.273C40.551 161.991 40.4016 162.631 40.103 163.191C39.8043 163.751 39.389 164.189 38.857 164.507C38.325 164.815 37.7183 164.969 37.037 164.969ZM34.755 161.287C34.755 161.744 34.853 162.164 35.049 162.547C35.245 162.929 35.511 163.233 35.847 163.457C36.1923 163.681 36.561 163.793 36.953 163.793C37.5876 163.793 38.101 163.564 38.493 163.107C38.8943 162.64 39.095 162.033 39.095 161.287C39.095 160.549 38.8943 159.952 38.493 159.495C38.101 159.028 37.5876 158.795 36.953 158.795C36.561 158.795 36.197 158.907 35.861 159.131C35.525 159.355 35.2543 159.658 35.049 160.041C34.853 160.423 34.755 160.839 34.755 161.287ZM47.185 160.699C47.1197 160.157 46.9283 159.705 46.611 159.341C46.2937 158.967 45.8363 158.781 45.239 158.781C44.6977 158.781 44.2263 158.967 43.825 159.341C43.433 159.705 43.195 160.162 43.111 160.713L47.185 160.699ZM41.711 161.259C41.711 160.54 41.8603 159.901 42.159 159.341C42.4577 158.781 42.8683 158.347 43.391 158.039C43.923 157.721 44.5297 157.563 45.211 157.563C46.1723 157.563 46.877 157.796 47.325 158.263C47.7823 158.729 48.0903 159.159 48.249 159.551C48.4637 160.073 48.571 160.652 48.571 161.287C48.571 161.417 48.5663 161.534 48.557 161.637C48.5477 161.73 48.543 161.791 48.543 161.819H43.111C43.195 162.379 43.4377 162.836 43.839 163.191C44.2403 163.545 44.7023 163.723 45.225 163.723C45.645 163.723 45.9903 163.657 46.261 163.527C46.541 163.396 46.7323 163.275 46.835 163.163C46.9377 163.051 47.0357 162.925 47.129 162.785L48.305 163.317C48.081 163.774 47.7077 164.161 47.185 164.479C46.6623 164.787 46.0043 164.941 45.211 164.941C44.5297 164.941 43.923 164.787 43.391 164.479C42.8683 164.161 42.4577 163.723 42.159 163.163C41.8603 162.603 41.711 161.968 41.711 161.259ZM51.3294 154.595V164.899H49.8734V154.595H51.3294Z" fill="#6B6B6B"/>
<path d="M343.852 163.817C344.244 163.817 344.592 163.677 344.896 163.397C345.208 163.117 345.448 162.725 345.616 162.221C345.784 161.709 345.868 161.125 345.868 160.469C345.868 159.805 345.784 159.221 345.616 158.717C345.448 158.213 345.212 157.821 344.908 157.541C344.604 157.261 344.252 157.121 343.852 157.121C343.452 157.121 343.096 157.261 342.784 157.541C342.48 157.821 342.244 158.213 342.076 158.717C341.908 159.221 341.824 159.805 341.824 160.469C341.824 161.125 341.908 161.709 342.076 162.221C342.244 162.725 342.48 163.117 342.784 163.397C343.096 163.677 343.452 163.817 343.852 163.817ZM340.576 160.469C340.576 159.613 340.716 158.849 340.996 158.177C341.276 157.497 341.664 156.969 342.16 156.593C342.656 156.209 343.22 156.017 343.852 156.017C344.484 156.017 345.048 156.209 345.544 156.593C346.04 156.969 346.424 157.497 346.696 158.177C346.976 158.849 347.116 159.613 347.116 160.469C347.116 161.325 346.976 162.093 346.696 162.773C346.424 163.445 346.04 163.969 345.544 164.345C345.048 164.721 344.484 164.909 343.852 164.909C343.22 164.909 342.656 164.721 342.16 164.345C341.664 163.969 341.276 163.445 340.996 162.773C340.716 162.093 340.576 161.325 340.576 160.469ZM349.499 165.473H348.251L350.819 155.537H352.055L349.499 165.473ZM356.648 164.837L355.4 164.825V157.445L353.876 158.309L353.348 157.265L355.412 156.113H356.648V164.837ZM361.676 163.817C362.068 163.817 362.416 163.677 362.72 163.397C363.032 163.117 363.272 162.725 363.44 162.221C363.608 161.709 363.692 161.125 363.692 160.469C363.692 159.805 363.608 159.221 363.44 158.717C363.272 158.213 363.036 157.821 362.732 157.541C362.428 157.261 362.076 157.121 361.676 157.121C361.276 157.121 360.92 157.261 360.608 157.541C360.304 157.821 360.068 158.213 359.9 158.717C359.732 159.221 359.648 159.805 359.648 160.469C359.648 161.125 359.732 161.709 359.9 162.221C360.068 162.725 360.304 163.117 360.608 163.397C360.92 163.677 361.276 163.817 361.676 163.817ZM358.4 160.469C358.4 159.613 358.54 158.849 358.82 158.177C359.1 157.497 359.488 156.969 359.984 156.593C360.48 156.209 361.044 156.017 361.676 156.017C362.308 156.017 362.872 156.209 363.368 156.593C363.864 156.969 364.248 157.497 364.52 158.177C364.8 158.849 364.94 159.613 364.94 160.469C364.94 161.325 364.8 162.093 364.52 162.773C364.248 163.445 363.864 163.969 363.368 164.345C362.872 164.721 362.308 164.909 361.676 164.909C361.044 164.909 360.48 164.721 359.984 164.345C359.488 163.969 359.1 163.445 358.82 162.773C358.54 162.093 358.4 161.325 358.4 160.469ZM369.375 163.817C369.767 163.817 370.115 163.677 370.419 163.397C370.731 163.117 370.971 162.725 371.139 162.221C371.307 161.709 371.391 161.125 371.391 160.469C371.391 159.805 371.307 159.221 371.139 158.717C370.971 158.213 370.735 157.821 370.431 157.541C370.127 157.261 369.775 157.121 369.375 157.121C368.975 157.121 368.619 157.261 368.307 157.541C368.003 157.821 367.767 158.213 367.599 158.717C367.431 159.221 367.347 159.805 367.347 160.469C367.347 161.125 367.431 161.709 367.599 162.221C367.767 162.725 368.003 163.117 368.307 163.397C368.619 163.677 368.975 163.817 369.375 163.817ZM366.099 160.469C366.099 159.613 366.239 158.849 366.519 158.177C366.799 157.497 367.187 156.969 367.683 156.593C368.179 156.209 368.743 156.017 369.375 156.017C370.007 156.017 370.571 156.209 371.067 156.593C371.563 156.969 371.947 157.497 372.219 158.177C372.499 158.849 372.639 159.613 372.639 160.469C372.639 161.325 372.499 162.093 372.219 162.773C371.947 163.445 371.563 163.969 371.067 164.345C370.571 164.721 370.007 164.909 369.375 164.909C368.743 164.909 368.179 164.721 367.683 164.345C367.187 163.969 366.799 163.445 366.519 162.773C366.239 162.093 366.099 161.325 366.099 160.469Z" fill="#6B6B6B"/>
<mask id="path-13-inside-2_2274_3396" fill="white">
<path d="M16 178.801C16 176.592 17.7909 174.801 20 174.801H370C372.209 174.801 374 176.592 374 178.801V212.801C374 215.01 372.209 216.801 370 216.801H20C17.7909 216.801 16 215.01 16 212.801V178.801Z"/>
</mask>
<path d="M16 178.801C16 176.592 17.7909 174.801 20 174.801H370C372.209 174.801 374 176.592 374 178.801V212.801C374 215.01 372.209 216.801 370 216.801H20C17.7909 216.801 16 215.01 16 212.801V178.801Z" fill="white"/>
<path d="M20 175.801H370V173.801H20V175.801ZM373 178.801V212.801H375V178.801H373ZM370 215.801H20V217.801H370V215.801ZM17 212.801V178.801H15V212.801H17ZM20 215.801C18.3431 215.801 17 214.458 17 212.801H15C15 215.562 17.2386 217.801 20 217.801V215.801ZM373 212.801C373 214.458 371.657 215.801 370 215.801V217.801C372.761 217.801 375 215.562 375 212.801H373ZM370 175.801C371.657 175.801 373 177.144 373 178.801H375C375 176.039 372.761 173.801 370 173.801V175.801ZM20 173.801C17.2386 173.801 15 176.039 15 178.801H17C17 177.144 18.3431 175.801 20 175.801V173.801Z" fill="#C2C2C2" mask="url(#path-13-inside-2_2274_3396)"/>
<path d="M37.552 191.433H34V201.865H32.592V191.433H29.024V190.185H37.552V191.433ZM43.7428 197.193C43.6681 196.51 43.4441 195.939 43.0708 195.481C42.7081 195.011 42.1588 194.777 41.4228 194.777C40.7508 194.777 40.1748 195.006 39.6948 195.465C39.2254 195.913 38.9428 196.494 38.8468 197.209L43.7428 197.193ZM37.4548 197.737C37.4548 196.926 37.6201 196.206 37.9508 195.577C38.2814 194.947 38.7454 194.457 39.3428 194.105C39.9401 193.753 40.6174 193.577 41.3748 193.577C42.9641 193.577 44.1001 194.323 44.7828 195.817C45.0068 196.414 45.1188 197.049 45.1188 197.721C45.1188 197.902 45.1134 198.051 45.1028 198.169C45.0921 198.275 45.0868 198.334 45.0868 198.345H38.8468C38.9534 199.038 39.2414 199.603 39.7108 200.041C40.1908 200.478 40.7508 200.697 41.3908 200.697C41.9028 200.697 42.3241 200.617 42.6548 200.457C42.9961 200.297 43.2308 200.142 43.3588 199.993C43.4974 199.833 43.6201 199.673 43.7268 199.513L44.8468 200.089C44.6014 200.59 44.1801 201.017 43.5828 201.369C42.9961 201.721 42.2601 201.897 41.3748 201.897C40.6174 201.897 39.9401 201.721 39.3428 201.369C38.7454 201.017 38.2814 200.526 37.9508 199.897C37.6201 199.267 37.4548 198.547 37.4548 197.737ZM50.6661 197.737L53.7541 201.865H52.0101L49.8821 198.921L47.7861 201.865H46.0261L49.0821 197.737L45.9941 193.593H47.7701L49.8821 196.585L52.0101 193.593H53.7701L50.6661 197.737ZM58.2314 201.897C57.5487 201.897 56.9887 201.673 56.5514 201.225C56.114 200.777 55.8847 200.201 55.8634 199.497V194.873H54.4874V193.641H55.8634V191.449H57.2714V193.641H59.0474V194.873H57.2714V199.401C57.2714 199.721 57.362 199.998 57.5434 200.233C57.7247 200.467 57.954 200.585 58.2314 200.585C58.3914 200.585 58.5354 200.574 58.6634 200.553C58.7914 200.531 58.9194 200.505 59.0474 200.473L59.3034 201.769C58.898 201.854 58.5407 201.897 58.2314 201.897Z" fill="#C2C2C2"/>
</g>
<defs>
<clipPath id="clip0_2274_3396">
<rect width="390" height="278" fill="white" transform="translate(0 0.800781)"/>
</clipPath>
</defs>
</svg>
