<svg xmlns="http://www.w3.org/2000/svg" width="908" height="133" fill="none"><path fill="#fff" d="M.5 0h907v132.8H.5z"/><path fill="#6B6B6B" d="M58.947 90.846a.5.5 0 0 0 0 .707l3.182 3.182a.5.5 0 0 0 .707-.707l-2.828-2.829 2.828-2.828a.5.5 0 1 0-.707-.707zm253.507.707a.5.5 0 0 0 0-.707l-3.182-3.182a.5.5 0 1 0-.707.707l2.829 2.828-2.829 2.829a.5.5 0 0 0 .707.707zm-253.153.146h252.8v-1h-252.8zm268.447-.853a.5.5 0 0 0 0 .707l3.182 3.182a.5.5 0 1 0 .707-.707l-2.828-2.829 2.828-2.828a.5.5 0 0 0-.707-.707zm522.307.707a.5.5 0 0 0 0-.707l-3.182-3.182a.5.5 0 0 0-.707.707l2.828 2.828-2.828 2.829a.5.5 0 0 0 .707.707zm-521.953.146h521.6v-1h-521.6zm-186.961 9.633h-4.812v2.784h4.044v1.08h-4.044v3.888h-1.248v-8.832h6.06zm2.592 1.512v6.24h-1.248v-6.24zm-1.332-2.04q0-.312.192-.504a.7.7 0 0 1 .516-.204.66.66 0 0 1 .504.204.66.66 0 0 1 .204.504q0 .3-.204.504a.66.66 0 0 1-.504.204.72.72 0 0 1-.516-.192.72.72 0 0 1-.192-.516m6.207 5.148 2.316 3.132h-1.548l-1.5-2.124-1.488 2.124h-1.548l2.28-3.132-2.328-3.144h1.56l1.524 2.184 1.512-2.184h1.56zm7.486-.468q-.084-.696-.492-1.164-.408-.48-1.176-.48-.696 0-1.212.48a1.96 1.96 0 0 0-.612 1.176zm-4.692.48q0-.924.384-1.644t1.056-1.116a3 3 0 0 1 1.56-.408q1.236 0 1.812.6.588.6.792 1.104.276.672.276 1.488 0 .168-.012.3-.012.12-.012.156h-4.656q.108.72.624 1.176t1.188.456q.54 0 .888-.168.36-.168.492-.312a3 3 0 0 0 .252-.324l1.008.456q-.288.588-.96.996-.672.396-1.692.396-.876 0-1.56-.396a2.87 2.87 0 0 1-1.056-1.128q-.384-.72-.384-1.632m9.899 3.18a3.03 3.03 0 0 1-1.548-.396 2.87 2.87 0 0 1-1.056-1.128q-.384-.72-.384-1.644t.372-1.644a2.74 2.74 0 0 1 1.068-1.128 2.96 2.96 0 0 1 1.548-.408q.504 0 1.056.264.552.252.924.84v-3.648h1.248v8.844h-1.248v-1.044a2.36 2.36 0 0 1-.936.828q-.552.264-1.044.264m-1.74-3.156q0 .96.504 1.56.516.588 1.332.588.504 0 .936-.288t.684-.78q.264-.492.264-1.08 0-.576-.264-1.068a2 2 0 0 0-.684-.78 1.66 1.66 0 0 0-.936-.288q-.816 0-1.332.6-.504.588-.504 1.536m10.175-4.056q.312 0 .504.192a.68.68 0 0 1 .192.504.7.7 0 0 1-.204.516.67.67 0 0 1-.492.192.7.7 0 0 1-.504-.204.7.7 0 0 1-.204-.504q0-.3.192-.492a.7.7 0 0 1 .516-.204m-.708 4.728q0-.3.192-.492a.7.7 0 0 1 .516-.204q.312 0 .504.192a.68.68 0 0 1 .192.504.7.7 0 0 1-.204.516.67.67 0 0 1-.492.192.7.7 0 0 1-.504-.204.7.7 0 0 1-.204-.504m10.229-2.136q.576.336.912.912.348.564.348 1.128 0 .732-.372 1.308a2.5 2.5 0 0 1-1.044.9q-.672.324-1.524.324t-1.524-.324a2.64 2.64 0 0 1-1.056-.924 2.5 2.5 0 0 1-.372-1.356h1.248q0 .66.48 1.08t1.224.42q.768 0 1.248-.408.48-.42.48-1.08 0-.648-.48-1.056t-1.224-.408h-.624v-1.044h.624q.696 0 1.14-.372t.444-.96-.432-.948q-.432-.372-1.104-.372-.66 0-1.092.372-.42.372-.42.96h-1.248q0-.708.348-1.26.36-.564.984-.864.624-.312 1.428-.312.792 0 1.416.3.636.3.984.84t.348 1.224q0 .516-.312 1.056-.312.528-.828.864m5.542 4.512-1.248-.012v-7.38l-1.524.864-.528-1.044 2.064-1.152h1.236zm4.644-1.008q.78 0 1.272-.504.504-.504.504-1.308t-.504-1.308q-.492-.516-1.272-.516-.768 0-1.26.516-.492.504-.492 1.308t.492 1.308 1.26.504m-3-1.812q0-.792.48-1.656l2.412-4.272h1.428l-1.752 3.06q.204-.048.48-.048.864 0 1.536.384.684.372 1.056 1.032.384.66.384 1.5t-.384 1.5-1.068 1.032-1.56.372-1.56-.372a2.7 2.7 0 0 1-1.068-1.032 2.93 2.93 0 0 1-.384-1.5m10.579 1.896q.804 0 1.308-.588.504-.6.504-1.56 0-.948-.504-1.536t-1.308-.588q-.504 0-.936.288a2 2 0 0 0-.684.78q-.252.48-.252 1.056 0 .588.252 1.08t.684.78.936.288m-3.132-5.304h1.248v1.08q.324-.54.9-.804.576-.276 1.056-.276.876 0 1.548.408.684.396 1.056 1.116.384.708.384 1.632t-.384 1.656q-.372.72-1.056 1.128-.672.396-1.548.396-.48 0-1.056-.276a2.15 2.15 0 0 1-.9-.828v3.732h-1.248zm10.6 3.144 2.316 3.132h-1.548l-1.5-2.124-1.488 2.124h-1.548l2.28-3.132-2.328-3.144h1.56l1.524 2.184 1.512-2.184h1.56zm4.399 1.272q-.408-1.392-.408-2.556t.408-2.544q.42-1.392 1.068-2.424h1.32q-.732 1.008-1.2 2.4t-.468 2.568.468 2.568 1.2 2.4h-1.32q-.648-1.032-1.068-2.412m5.261-4.8v6.66h-1.248v-8.832h1.344l3.216 5.208 3.216-5.208h1.344v8.832h-1.248v-6.672l-3.312 5.184zm10.966.42v6.24h-1.248v-6.24zm-1.332-2.04q0-.312.192-.504a.7.7 0 0 1 .516-.204.66.66 0 0 1 .504.204.66.66 0 0 1 .204.504q0 .3-.204.504a.66.66 0 0 1-.504.204.72.72 0 0 1-.516-.192.72.72 0 0 1-.192-.516m7.365 4.8q0-.792-.408-1.26-.396-.48-1.092-.48-.468 0-.852.24-.372.228-.588.624a1.9 1.9 0 0 0-.204.876v3.48h-1.248v-6.276h1.248v1.056q.288-.456.792-.744.504-.3 1.02-.3.648 0 1.236.3a2.3 2.3 0 0 1 .96.9q.384.612.384 1.536v3.528h-1.248zm5.045-3.48q.42 1.392.42 2.544t-.42 2.544q-.408 1.392-1.044 2.424h-1.32q.732-1.008 1.188-2.4.468-1.392.468-2.568t-.468-2.568q-.456-1.392-1.188-2.4h1.32q.636 1.032 1.044 2.424m304.207-.792h-4.812v2.784h4.044v1.08h-4.044v3.888h-1.248v-8.832h6.06zm2.592 1.512v6.24h-1.248v-6.24zm-1.332-2.04q0-.312.192-.504a.7.7 0 0 1 .516-.204.66.66 0 0 1 .504.204.66.66 0 0 1 .204.504q0 .3-.204.504a.66.66 0 0 1-.504.204.72.72 0 0 1-.516-.192.72.72 0 0 1-.192-.516m6.207 5.148 2.316 3.132h-1.548l-1.5-2.124-1.488 2.124H544.1l2.28-3.132-2.328-3.144h1.56l1.524 2.184 1.512-2.184h1.56zm7.486-.468q-.084-.696-.492-1.164-.408-.48-1.176-.48-.696 0-1.212.48a1.96 1.96 0 0 0-.612 1.176zm-4.692.48q0-.924.384-1.644t1.056-1.116a3 3 0 0 1 1.56-.408q1.236 0 1.812.6.588.6.792 1.104.276.672.276 1.488 0 .168-.012.3-.012.12-.012.156h-4.656q.108.72.624 1.176t1.188.456q.54 0 .888-.168.36-.168.492-.312a3 3 0 0 0 .252-.324l1.008.456q-.288.588-.96.996-.672.396-1.692.396-.876 0-1.56-.396a2.87 2.87 0 0 1-1.056-1.128q-.384-.72-.384-1.632m9.899 3.18a3.03 3.03 0 0 1-1.548-.396 2.87 2.87 0 0 1-1.056-1.128q-.384-.72-.384-1.644t.372-1.644a2.74 2.74 0 0 1 1.068-1.128 2.96 2.96 0 0 1 1.548-.408q.504 0 1.056.264.552.252.924.84v-3.648h1.248v8.844h-1.248v-1.044a2.36 2.36 0 0 1-.936.828q-.552.264-1.044.264m-1.74-3.156q0 .96.504 1.56.516.588 1.332.588.504 0 .936-.288t.684-.78q.264-.492.264-1.08 0-.576-.264-1.068a2 2 0 0 0-.684-.78 1.66 1.66 0 0 0-.936-.288q-.816 0-1.332.6-.504.588-.504 1.536m10.175-4.056q.312 0 .504.192a.68.68 0 0 1 .192.504.7.7 0 0 1-.204.516.67.67 0 0 1-.492.192.7.7 0 0 1-.504-.204.7.7 0 0 1-.204-.504q0-.3.192-.492a.7.7 0 0 1 .516-.204m-.708 4.728q0-.3.192-.492a.7.7 0 0 1 .516-.204q.312 0 .504.192a.68.68 0 0 1 .192.504.7.7 0 0 1-.204.516.67.67 0 0 1-.492.192.7.7 0 0 1-.504-.204.7.7 0 0 1-.204-.504m8.596 1.368q.78 0 1.272-.504.504-.504.504-1.308t-.504-1.308q-.492-.516-1.272-.516-.768 0-1.26.516-.492.504-.492 1.308t.492 1.308 1.26.504m-3-1.812q0-.792.48-1.656l2.412-4.272h1.428l-1.752 3.06q.204-.048.48-.048.864 0 1.536.384.684.372 1.056 1.032.384.66.384 1.5t-.384 1.5-1.068 1.032-1.56.372-1.56-.372a2.7 2.7 0 0 1-1.068-1.032 2.93 2.93 0 0 1-.384-1.5m7.447-1.26.288-4.656h4.656v1.092h-3.456l-.144 2.172q.636-.288 1.248-.288.888 0 1.584.372.708.372 1.092 1.032.396.66.396 1.512 0 .864-.396 1.536-.384.672-1.092 1.044-.696.372-1.584.372-.696 0-1.308-.288a3 3 0 0 1-1.044-.804 2.8 2.8 0 0 1-.588-1.176l1.212-.288q.144.612.624 1.008.48.384 1.104.384.804 0 1.308-.492.516-.504.516-1.296 0-.768-.516-1.248-.504-.492-1.308-.492-.336 0-.708.192a2.2 2.2 0 0 0-.648.468zm6.907 2.988 1.224-1.128a53 53 0 0 0 1.548-1.44 7.2 7.2 0 0 0 .984-1.176q.396-.612.396-1.152 0-.744-.432-1.212-.42-.48-1.092-.48-.516 0-.996.336a2 2 0 0 0-.708.864l-1.092-.48q.36-.816 1.14-1.332.792-.528 1.656-.528.804 0 1.428.36.636.36.984 1.008.36.636.36 1.464 0 .816-.492 1.62a7.4 7.4 0 0 1-1.176 1.488q-.684.684-1.752 1.596l-.216.192h3.768v1.092h-5.412zm10.083.168q.804 0 1.308-.588.504-.6.504-1.56 0-.948-.504-1.536t-1.308-.588q-.504 0-.936.288a2 2 0 0 0-.684.78q-.252.48-.252 1.056 0 .588.252 1.08t.684.78.936.288m-3.132-5.304h1.248v1.08q.324-.54.9-.804.576-.276 1.056-.276.876 0 1.548.408.684.396 1.056 1.116.384.708.384 1.632t-.384 1.656q-.372.72-1.056 1.128-.672.396-1.548.396-.48 0-1.056-.276a2.15 2.15 0 0 1-.9-.828v3.732h-1.248zm10.6 3.144 2.316 3.132h-1.548l-1.5-2.124-1.488 2.124h-1.548l2.28-3.132-2.328-3.144h1.56l1.524 2.184 1.512-2.184h1.56zm4.399 1.272q-.408-1.392-.408-2.556t.408-2.544q.42-1.392 1.068-2.424h1.32q-.732 1.008-1.2 2.4t-.468 2.568.468 2.568 1.2 2.4h-1.32q-.648-1.032-1.068-2.412m5.26-4.8v6.66H614.2v-8.832h1.344l3.216 5.208 3.216-5.208h1.344v8.832h-1.248v-6.672l-3.312 5.184zm12.384 5.688q.492 0 .924-.276a2.05 2.05 0 0 0 .684-.768q.264-.492.264-1.08t-.264-1.068a1.94 1.94 0 0 0-.684-.768 1.64 1.64 0 0 0-.924-.288q-.804 0-1.308.588t-.504 1.536.504 1.536 1.308.588m-3.06-2.124q0-.912.372-1.632.384-.72 1.056-1.116a2.96 2.96 0 0 1 1.548-.408q.552 0 1.056.276.516.264.888.804v-1.104h1.248v6.276l-1.248.012v-1.044a2.6 2.6 0 0 1-.888.828 2.25 2.25 0 0 1-1.056.264 3.03 3.03 0 0 1-1.548-.396 2.87 2.87 0 0 1-1.056-1.128q-.372-.72-.372-1.632m11.276-.036 2.316 3.132h-1.548l-1.5-2.124-1.488 2.124h-1.548l2.28-3.132-2.328-3.144h1.56l1.524 2.184 1.512-2.184h1.56zm5.887-3.828q.42 1.392.42 2.544t-.42 2.544q-.408 1.392-1.044 2.424h-1.32q.732-1.008 1.188-2.4.468-1.392.468-2.568t-.468-2.568q-.456-1.392-1.188-2.4h1.32q.636 1.032 1.044 2.424M61.05 35.47h4.088v1.009h-5.253v-8.243h1.165zm7.457.102q.459 0 .862-.258.404-.27.638-.717.247-.459.247-1.008t-.247-.997a1.8 1.8 0 0 0-.638-.716 1.53 1.53 0 0 0-.862-.27q-.75 0-1.221.55-.47.548-.47 1.433t.47 1.434 1.22.549m-2.856-1.983q0-.85.347-1.523a2.6 2.6 0 0 1 .985-1.042q.64-.38 1.445-.38.515 0 .986.257.48.247.829.75v-1.03h1.164v5.858l-1.164.011v-.974a2.45 2.45 0 0 1-.83.772 2.1 2.1 0 0 1-.985.247 2.83 2.83 0 0 1-1.445-.37 2.7 2.7 0 0 1-.985-1.053 3.3 3.3 0 0 1-.347-1.523m10.179 2.946q-.438 0-.952-.235-.505-.235-.874-.784v.974h-1.165v-8.254h1.165v3.404q.37-.57.874-.795.514-.235.963-.235.806 0 1.445.38.638.382.996 1.054.36.672.359 1.534 0 .862-.359 1.534a2.66 2.66 0 0 1-.996 1.053q-.639.37-1.456.37m-1.826-2.946q0 .549.235 1.008.236.46.639.728.413.27.884.269.762 0 1.232-.549.482-.56.482-1.456 0-.885-.482-1.433-.47-.56-1.232-.56-.47 0-.873.268-.404.27-.65.728a2.15 2.15 0 0 0-.235.997m9.944-.47q-.078-.65-.46-1.087-.38-.447-1.097-.448-.65 0-1.131.448a1.83 1.83 0 0 0-.571 1.098zm-4.38.448q0-.863.36-1.535a2.6 2.6 0 0 1 .985-1.041q.637-.381 1.456-.381 1.154 0 1.691.56.549.56.74 1.03.256.627.257 1.39 0 .156-.011.28a2 2 0 0 0-.012.145H80.69q.1.672.582 1.097.481.426 1.109.426.504 0 .829-.157.336-.156.459-.291t.235-.302l.941.425q-.27.549-.896.93-.627.37-1.58.37-.817 0-1.455-.37a2.7 2.7 0 0 1-.986-1.053 3.2 3.2 0 0 1-.358-1.523m7.695-5.331v8.243H86.1v-8.243zm200.617 6.377a1.2 1.2 0 0 0 .836-.336q.373-.336.576-.94.201-.615.201-1.402 0-.797-.201-1.402-.202-.605-.567-.94a1.243 1.243 0 0 0-1.699 0q-.365.335-.566.94-.202.604-.202 1.402 0 .788.202 1.401.201.606.566.941.375.336.854.336m-2.62-2.678q0-1.027.336-1.834.336-.816.931-1.267.596-.46 1.353-.46.759 0 1.354.46.595.45.922 1.267.336.807.336 1.834t-.336 1.843q-.327.807-.922 1.258t-1.354.45q-.757 0-1.353-.45-.595-.451-.931-1.258-.336-.816-.336-1.843m7.138 4.003h-.998l2.054-7.949h.989zm5.719-.509-.998-.01v-5.903l-1.22.69-.422-.834 1.651-.922h.989zm4.023-.816q.47 0 .835-.336.375-.336.576-.94.202-.615.202-1.402 0-.797-.202-1.402-.201-.605-.566-.94a1.245 1.245 0 0 0-1.7 0q-.365.335-.566.94-.202.604-.202 1.402 0 .788.202 1.401.201.606.566.941.375.336.855.336m-2.621-2.678q0-1.027.336-1.834.336-.816.931-1.267.595-.46 1.354-.46.758 0 1.353.46.595.45.922 1.267.336.807.336 1.834t-.336 1.843q-.327.807-.922 1.258a2.18 2.18 0 0 1-1.353.45q-.759 0-1.354-.45-.595-.451-.931-1.258-.336-.816-.336-1.843m8.78 2.678q.47 0 .835-.336.375-.336.576-.94.202-.615.202-1.402 0-.797-.202-1.402-.201-.605-.566-.94a1.2 1.2 0 0 0-.845-.337q-.48 0-.854.336-.365.336-.567.941-.201.604-.201 1.402 0 .788.201 1.401.202.606.567.941.374.336.854.336m-2.621-2.678q0-1.027.336-1.834.336-.816.932-1.267a2.15 2.15 0 0 1 1.353-.46q.759 0 1.354.46.596.45.921 1.267.336.807.336 1.834t-.336 1.843q-.326.807-.921 1.258t-1.354.45a2.18 2.18 0 0 1-1.353-.45q-.596-.451-.932-1.258-.336-.816-.336-1.843"/><mask id="a" fill="#fff"><path d="M59 47.8a4 4 0 0 1 4-4h244.8a4 4 0 0 1 4 4v24.8a4 4 0 0 1-4 4H63a4 4 0 0 1-4-4z"/></mask><path fill="#fff" d="M59 47.8a4 4 0 0 1 4-4h244.8a4 4 0 0 1 4 4v24.8a4 4 0 0 1-4 4H63a4 4 0 0 1-4-4z"/><path fill="#C2C2C2" d="M63 44.6h244.8V43H63zm248 3.2v24.8h1.6V47.8zm-3.2 28H63v1.6h244.8zm-248-3.2V47.8h-1.6v24.8zm3.2 3.2a3.2 3.2 0 0 1-3.2-3.2h-1.6a4.8 4.8 0 0 0 4.8 4.8zm248-3.2a3.2 3.2 0 0 1-3.2 3.2v1.6a4.8 4.8 0 0 0 4.8-4.8zm-3.2-28a3.2 3.2 0 0 1 3.2 3.2h1.6a4.8 4.8 0 0 0-4.8-4.8zM63 43a4.8 4.8 0 0 0-4.8 4.8h1.6a3.2 3.2 0 0 1 3.2-3.2z" mask="url(#a)"/><path fill="#C2C2C2" d="M76.241 56.907H73.4v8.345h-1.127v-8.345H69.42v-.999h6.822zm4.953 4.608q-.09-.82-.538-1.37-.436-.563-1.318-.563a1.93 1.93 0 0 0-1.383.55q-.562.538-.678 1.396zm-5.03.435q0-.974.396-1.728a2.9 2.9 0 0 1 1.114-1.178 3.14 3.14 0 0 1 1.625-.422q1.907 0 2.727 1.792.269.717.269 1.523a4 4 0 0 1-.026.5h-4.992q.128.831.691 1.356.576.525 1.344.525.615 0 1.011-.192.41-.192.564-.371.166-.192.294-.384l.896.46q-.294.602-1.011 1.025-.704.422-1.767.422-.908 0-1.625-.422a2.9 2.9 0 0 1-1.114-1.178q-.397-.755-.397-1.728m10.569 0 2.47 3.302h-1.395l-1.703-2.355-1.677 2.355H83.02l2.444-3.302-2.47-3.315h1.42l1.69 2.393 1.703-2.393h1.408zm6.052 3.328q-.819 0-1.344-.538-.526-.537-.55-1.382v-3.7h-1.102v-.985h1.101V56.92h1.127v1.753h1.42v.986h-1.42v3.622q0 .384.217.666a.67.67 0 0 0 .55.281q.193 0 .346-.025.154-.026.308-.064l.204 1.037a4.2 4.2 0 0 1-.857.102"/><path fill="#6B6B6B" d="M330.05 33.07h4.088v1.008h-5.253v-8.243h1.165zm7.457.101q.459 0 .862-.257.404-.27.638-.717a2.1 2.1 0 0 0 .247-1.008q0-.549-.247-.997a1.8 1.8 0 0 0-.638-.717 1.53 1.53 0 0 0-.862-.269q-.752 0-1.221.55-.471.548-.471 1.433t.471 1.433q.47.55 1.221.55m-2.856-1.982q0-.852.347-1.523a2.6 2.6 0 0 1 .985-1.042q.64-.38 1.445-.38.516 0 .986.257.481.246.829.75v-1.03h1.164v5.857l-1.164.012v-.975a2.46 2.46 0 0 1-.829.773 2.1 2.1 0 0 1-.986.246 2.83 2.83 0 0 1-1.445-.37 2.7 2.7 0 0 1-.985-1.052q-.348-.672-.347-1.523m10.179 2.945q-.438 0-.952-.235-.504-.235-.874-.784v.975h-1.165v-8.255h1.165v3.405q.37-.57.874-.795.515-.235.963-.235.806 0 1.445.38.637.381.996 1.053t.359 1.535-.359 1.534a2.66 2.66 0 0 1-.996 1.053q-.639.37-1.456.37m-1.826-2.945q0 .549.235 1.008.236.46.639.728.414.269.884.269.762 0 1.232-.55.482-.559.482-1.455 0-.885-.482-1.434-.47-.56-1.232-.56-.47 0-.873.269a2 2 0 0 0-.65.728 2.15 2.15 0 0 0-.235.997m9.944-.47q-.078-.65-.459-1.087-.381-.448-1.098-.448-.65 0-1.131.448a1.83 1.83 0 0 0-.571 1.098zm-4.379.447q0-.862.358-1.534.359-.672.986-1.042.638-.38 1.456-.38 1.154 0 1.691.56.549.56.739 1.03.258.627.258 1.389 0 .157-.011.28a2 2 0 0 0-.012.145h-4.345q.1.672.582 1.098t1.109.426q.504 0 .829-.157.336-.157.459-.291.124-.134.235-.303l.941.426q-.269.548-.896.93-.627.369-1.579.369a2.85 2.85 0 0 1-1.456-.37 2.7 2.7 0 0 1-.986-1.052 3.2 3.2 0 0 1-.358-1.524m7.695-5.33v8.242h-1.165v-8.243zm469.417 6.375q.47 0 .835-.336.375-.336.576-.941.202-.615.202-1.402 0-.796-.202-1.401-.201-.605-.566-.941a1.2 1.2 0 0 0-.845-.336q-.48 0-.854.336-.365.337-.567.94-.201.606-.201 1.402 0 .787.201 1.402.202.605.567.94.374.337.854.337m-2.621-2.679q0-1.027.336-1.833.336-.817.932-1.267a2.15 2.15 0 0 1 1.353-.461q.759 0 1.354.46.596.452.921 1.268.336.806.336 1.833 0 1.028-.336 1.844-.325.806-.921 1.257-.595.451-1.354.451a2.18 2.18 0 0 1-1.353-.45q-.596-.452-.932-1.258-.336-.816-.336-1.844m7.139 4.004h-.998l2.054-7.95h.989zm5.719-.51-.999-.009v-5.904l-1.219.691-.422-.835 1.651-.921h.989zm4.023-.815q.47 0 .835-.336.374-.336.576-.941.201-.615.201-1.402 0-.796-.201-1.401-.202-.605-.567-.941a1.245 1.245 0 0 0-1.699 0q-.365.337-.566.94-.202.606-.202 1.402 0 .787.202 1.402.201.605.566.94.375.337.855.337m-2.621-2.679q0-1.027.336-1.833.336-.817.931-1.267.595-.461 1.354-.461.758 0 1.353.46.595.452.922 1.268.336.806.336 1.833 0 1.028-.336 1.844-.327.806-.922 1.257-.596.451-1.353.451-.759 0-1.354-.45-.595-.452-.931-1.258-.336-.816-.336-1.844m8.78 2.679q.47 0 .835-.336.375-.336.576-.941.202-.615.202-1.402 0-.796-.202-1.401-.201-.605-.566-.941a1.2 1.2 0 0 0-.845-.336q-.48 0-.854.336-.365.337-.567.94-.201.606-.201 1.402 0 .787.201 1.402.202.605.567.94.374.337.854.337m-2.621-2.679q0-1.027.336-1.833.337-.817.931-1.267.595-.461 1.354-.461t1.354.46q.595.452.921 1.268.336.806.336 1.833 0 1.028-.336 1.844-.326.806-.921 1.257t-1.354.451-1.354-.45q-.594-.452-.931-1.258-.336-.816-.336-1.844"/><mask id="b" fill="#fff"><path d="M328 45.4a4 4 0 0 1 4-4h513.6a4 4 0 0 1 4 4v24.8a4 4 0 0 1-4 4H332a4 4 0 0 1-4-4z"/></mask><path fill="#fff" d="M328 45.4a4 4 0 0 1 4-4h513.6a4 4 0 0 1 4 4v24.8a4 4 0 0 1-4 4H332a4 4 0 0 1-4-4z"/><path fill="#C2C2C2" d="M332 42.2h513.6v-1.6H332zm516.8 3.2v24.8h1.6V45.4zm-3.2 28H332V75h513.6zm-516.8-3.2V45.4h-1.6v24.8zm3.2 3.2a3.2 3.2 0 0 1-3.2-3.2h-1.6A4.8 4.8 0 0 0 332 75zm516.8-3.2a3.2 3.2 0 0 1-3.2 3.2V75a4.8 4.8 0 0 0 4.8-4.8zm-3.2-28a3.2 3.2 0 0 1 3.2 3.2h1.6a4.8 4.8 0 0 0-4.8-4.8zM332 40.6a4.8 4.8 0 0 0-4.8 4.8h1.6a3.2 3.2 0 0 1 3.2-3.2z" mask="url(#b)"/><path fill="#C2C2C2" d="M345.241 54.506H342.4v8.346h-1.127v-8.346h-2.854v-.998h6.822zm4.953 4.608q-.09-.819-.538-1.37-.435-.562-1.318-.562a1.93 1.93 0 0 0-1.383.55q-.562.537-.678 1.395zm-5.031.436q0-.974.397-1.728a2.9 2.9 0 0 1 1.114-1.178 3.14 3.14 0 0 1 1.625-.422q1.908 0 2.727 1.792.269.716.269 1.523a4 4 0 0 1-.026.499h-4.992q.128.832.691 1.357.576.525 1.344.525.615 0 1.011-.192.41-.192.564-.372.166-.192.294-.384l.896.461q-.294.602-1.011 1.024-.704.423-1.767.423-.908 0-1.625-.423a2.9 2.9 0 0 1-1.114-1.177q-.397-.756-.397-1.728m10.57 0 2.47 3.302h-1.395l-1.703-2.355-1.676 2.355h-1.408l2.444-3.302-2.47-3.316h1.421l1.689 2.394 1.703-2.394h1.408zm6.052 3.328q-.819 0-1.344-.538t-.551-1.382v-3.7h-1.1v-.985h1.1v-1.754h1.127v1.754h1.421v.985h-1.421v3.623q0 .384.217.665a.67.67 0 0 0 .551.282q.192 0 .345-.026.154-.025.308-.064l.204 1.037q-.486.103-.857.103"/></svg>