<svg xmlns="http://www.w3.org/2000/svg" width="390" height="279" fill="none"><g clip-path="url(#a)"><path fill="#fff" d="M0 .8h390v278H0z"/><path fill="#fff" d="M16.5-.2A7.5 7.5 0 0 1 24-7.7h342a7.5 7.5 0 0 1 7.5 7.5v122.001a7.5 7.5 0 0 1-7.5 7.5H24a7.5 7.5 0 0 1-7.5-7.5z"/><path stroke="#C2C2C2" d="M16.5-.2A7.5 7.5 0 0 1 24-7.7h342a7.5 7.5 0 0 1 7.5 7.5v122.001a7.5 7.5 0 0 1-7.5 7.5H24a7.5 7.5 0 0 1-7.5-7.5z"/><path fill="#6B6B6B" d="M42.562 26.639h5.11v1.26h-6.566V17.595h1.456zm9.321.126q.574 0 1.078-.322.504-.336.798-.896.309-.575.308-1.26 0-.687-.308-1.246a2.26 2.26 0 0 0-.798-.896 1.9 1.9 0 0 0-1.078-.336q-.938 0-1.526.686-.588.685-.588 1.792 0 1.105.588 1.792.587.686 1.526.686m-3.57-2.478q0-1.065.434-1.904a3.25 3.25 0 0 1 1.232-1.302q.798-.476 1.806-.476.644 0 1.232.322a2.8 2.8 0 0 1 1.036.938v-1.288h1.456v7.322l-1.456.014v-1.218q-.448.644-1.036.966a2.6 2.6 0 0 1-1.232.308q-1.008 0-1.806-.462a3.35 3.35 0 0 1-1.232-1.316q-.434-.84-.434-1.904m12.724 3.682q-.545 0-1.19-.294-.63-.294-1.092-.98v1.218h-1.456V17.595h1.456v4.256q.462-.714 1.092-.994.644-.294 1.204-.294 1.008 0 1.806.476t1.246 1.316.448 1.918-.448 1.918a3.3 3.3 0 0 1-1.246 1.316q-.798.462-1.82.462m-2.282-3.682q0 .686.294 1.26t.798.91q.518.336 1.106.336.952 0 1.54-.686.602-.7.602-1.82 0-1.107-.602-1.792-.588-.7-1.54-.7a1.93 1.93 0 0 0-1.092.336 2.5 2.5 0 0 0-.812.91 2.7 2.7 0 0 0-.294 1.246m12.43-.588q-.098-.813-.574-1.358-.476-.56-1.372-.56-.812 0-1.414.56-.588.546-.714 1.372zm-5.474.56q0-1.078.448-1.918a3.25 3.25 0 0 1 1.232-1.302q.798-.476 1.82-.476 1.442 0 2.114.7.686.7.924 1.288.322.783.322 1.736 0 .195-.014.35-.014.14-.014.182h-5.432q.126.84.728 1.372.601.531 1.386.532.63 0 1.036-.196.42-.195.574-.364t.294-.378l1.176.532q-.336.685-1.12 1.162-.784.462-1.974.462-1.022 0-1.82-.462a3.35 3.35 0 0 1-1.232-1.316q-.448-.84-.448-1.904m9.618-6.664v10.304h-1.456V17.595zm244.523 9.222q.588 0 1.044-.42.468-.42.72-1.176.252-.768.252-1.752 0-.996-.252-1.752t-.708-1.176a1.5 1.5 0 0 0-1.056-.42q-.6 0-1.068.42-.456.42-.708 1.176t-.252 1.752q0 .984.252 1.752.252.756.708 1.176.468.42 1.068.42m-3.276-3.348q0-1.284.42-2.292.42-1.02 1.164-1.584a2.7 2.7 0 0 1 1.692-.576 2.7 2.7 0 0 1 1.692.576q.744.564 1.152 1.584.42 1.008.42 2.292t-.42 2.304q-.408 1.008-1.152 1.572a2.73 2.73 0 0 1-1.692.564 2.73 2.73 0 0 1-1.692-.564q-.744-.564-1.164-1.572-.42-1.02-.42-2.304m8.923 5.004h-1.248l2.568-9.936h1.236zm7.149-.636-1.248-.012v-7.38l-1.524.864-.528-1.044 2.064-1.152h1.236zm5.028-1.02q.588 0 1.044-.42.468-.42.72-1.176.252-.768.252-1.752 0-.996-.252-1.752t-.708-1.176a1.5 1.5 0 0 0-1.056-.42q-.6 0-1.068.42-.456.42-.708 1.176t-.252 1.752q0 .984.252 1.752.252.756.708 1.176.468.42 1.068.42m-3.276-3.348q0-1.284.42-2.292.42-1.02 1.164-1.584a2.7 2.7 0 0 1 1.692-.576 2.7 2.7 0 0 1 1.692.576q.744.564 1.152 1.584.42 1.008.42 2.292t-.42 2.304q-.408 1.008-1.152 1.572a2.73 2.73 0 0 1-1.692.564 2.73 2.73 0 0 1-1.692-.564q-.744-.564-1.164-1.572-.42-1.02-.42-2.304m10.975 3.348q.588 0 1.044-.42.468-.42.72-1.176.252-.768.252-1.752 0-.996-.252-1.752t-.708-1.176a1.5 1.5 0 0 0-1.056-.42q-.6 0-1.068.42-.456.42-.708 1.176t-.252 1.752q0 .984.252 1.752.252.756.708 1.176.468.42 1.068.42m-3.276-3.348q0-1.284.42-2.292.42-1.02 1.164-1.584a2.7 2.7 0 0 1 1.692-.576 2.7 2.7 0 0 1 1.692.576q.744.564 1.152 1.584.42 1.008.42 2.292t-.42 2.304q-.408 1.008-1.152 1.572a2.73 2.73 0 0 1-1.692.564 2.73 2.73 0 0 1-1.692-.564q-.744-.564-1.164-1.572-.42-1.02-.42-2.304"/><mask id="b" fill="#fff"><path d="M40 41.8a4 4 0 0 1 4-4h302a4 4 0 0 1 4 4v34a4 4 0 0 1-4 4H44a4 4 0 0 1-4-4z"/></mask><path fill="#fff" d="M40 41.8a4 4 0 0 1 4-4h302a4 4 0 0 1 4 4v34a4 4 0 0 1-4 4H44a4 4 0 0 1-4-4z"/><path fill="#C2C2C2" d="M44 38.8h302v-2H44zm305 3v34h2v-34zm-3 37H44v2h302zm-305-3v-34h-2v34zm3 3a3 3 0 0 1-3-3h-2a5 5 0 0 0 5 5zm305-3a3 3 0 0 1-3 3v2a5 5 0 0 0 5-5zm-3-37a3 3 0 0 1 3 3h2a5 5 0 0 0-5-5zm-302-2a5 5 0 0 0-5 5h2a3 3 0 0 1 3-3z" mask="url(#b)"/><path fill="#C2C2C2" d="M61.552 54.433H58v10.432h-1.408V54.433h-3.568v-1.248h8.528zm6.19 5.76q-.111-1.025-.671-1.712-.544-.705-1.648-.704-1.008 0-1.728.688-.705.672-.848 1.744zm-6.287.544q0-1.215.496-2.16a3.63 3.63 0 0 1 1.392-1.472q.895-.528 2.032-.528 2.384 0 3.408 2.24.336.896.336 1.904a5 5 0 0 1-.032.624h-6.24q.159 1.04.864 1.696.72.656 1.68.656.768 0 1.264-.24.512-.24.704-.464.207-.24.368-.48l1.12.576q-.369.752-1.264 1.28-.88.528-2.208.528-1.137 0-2.032-.528a3.63 3.63 0 0 1-1.392-1.472q-.496-.945-.496-2.16m13.211 0 3.088 4.128H76.01l-2.128-2.944-2.096 2.944h-1.76l3.056-4.128-3.088-4.144h1.776l2.112 2.992 2.128-2.992h1.76zm7.565 4.16q-1.023 0-1.68-.672-.655-.672-.688-1.728v-4.624h-1.376V56.64h1.376v-2.192h1.408v2.192h1.776v1.232h-1.776V62.4q0 .48.272.832.273.351.688.352.24 0 .432-.032t.384-.08l.256 1.296a5.3 5.3 0 0 1-1.072.128"/><path fill="#6B6B6B" d="M39.576 93.377a.6.6 0 0 0 0 .848l3.818 3.818a.6.6 0 0 0 .849-.848L40.848 93.8l3.395-3.394a.6.6 0 1 0-.849-.849zm310.848.848a.6.6 0 0 0 0-.849l-3.818-3.818a.6.6 0 0 0-.849.849l3.394 3.394-3.394 3.394a.6.6 0 0 0 .849.848zM40 94.401h310v-1.2H40zm153.918 10.454h-5.614v3.248h4.718v1.26h-4.718v4.536h-1.456v-10.304h7.07zm3.024 1.764v7.28h-1.456v-7.28zm-1.554-2.38q0-.364.224-.588a.82.82 0 0 1 .602-.238q.364 0 .588.238a.77.77 0 0 1 .238.588.8.8 0 0 1-.238.588.77.77 0 0 1-.588.238.85.85 0 0 1-.602-.224.85.85 0 0 1-.224-.602m4.813-.644v10.304h-1.456v-10.304zm3.142 0v10.304h-1.456v-10.304zM15.576 230.377a.6.6 0 0 0 0 .848l3.818 3.818a.599.599 0 1 0 .849-.848l-3.394-3.394 3.394-3.394a.6.6 0 0 0-.849-.849zm358.848.848a.6.6 0 0 0 0-.848l-3.818-3.819a.601.601 0 0 0-.849.849l3.394 3.394-3.394 3.394a.6.6 0 1 0 .849.848zM16 231.401h358v-1.2H16zm178.418 10.454h-5.614v3.248h4.718v1.26h-4.718v4.536h-1.456v-10.304h7.07zm3.024 1.764v7.28h-1.456v-7.28zm-1.554-2.38q0-.364.224-.588a.82.82 0 0 1 .602-.238q.364 0 .588.238a.77.77 0 0 1 .238.588.8.8 0 0 1-.238.588.77.77 0 0 1-.588.238.85.85 0 0 1-.602-.224.85.85 0 0 1-.224-.602m4.813-.644v10.304h-1.456v-10.304zm3.142 0v10.304h-1.456v-10.304zM18.562 163.639h5.11v1.26h-6.566v-10.304h1.456zm9.321.126q.574 0 1.078-.322.504-.336.798-.896.308-.575.308-1.26a2.54 2.54 0 0 0-.308-1.246 2.25 2.25 0 0 0-.798-.896 1.9 1.9 0 0 0-1.078-.336q-.938 0-1.526.686-.588.685-.588 1.792 0 1.105.588 1.792.587.686 1.526.686m-3.57-2.478q0-1.065.434-1.904a3.25 3.25 0 0 1 1.232-1.302q.798-.477 1.806-.476.645 0 1.232.322.603.308 1.036.938v-1.288h1.456v7.322l-1.456.014v-1.218q-.447.643-1.036.966a2.6 2.6 0 0 1-1.232.308q-1.008 0-1.806-.462a3.35 3.35 0 0 1-1.232-1.316q-.434-.84-.434-1.904m12.724 3.682q-.545 0-1.19-.294-.63-.294-1.092-.98v1.218h-1.456v-10.318h1.456v4.256q.462-.714 1.092-.994.644-.294 1.204-.294 1.008 0 1.806.476t1.246 1.316.448 1.918q0 1.077-.448 1.918-.448.84-1.246 1.316-.798.462-1.82.462m-2.282-3.682q0 .685.294 1.26.294.573.798.91.518.336 1.106.336.952 0 1.54-.686.602-.7.602-1.82 0-1.107-.602-1.792-.588-.7-1.54-.7a1.93 1.93 0 0 0-1.092.336 2.5 2.5 0 0 0-.812.91 2.7 2.7 0 0 0-.294 1.246m12.43-.588q-.098-.812-.574-1.358-.476-.56-1.372-.56-.812 0-1.414.56-.588.546-.714 1.372zm-5.474.56q0-1.078.448-1.918a3.25 3.25 0 0 1 1.232-1.302q.798-.477 1.82-.476 1.442 0 2.114.7.686.7.924 1.288.322.783.322 1.736 0 .195-.014.35-.014.14-.014.182h-5.432q.126.84.728 1.372t1.386.532q.63 0 1.036-.196.42-.196.574-.364t.294-.378l1.176.532q-.336.685-1.12 1.162-.784.462-1.974.462-1.022 0-1.82-.462a3.36 3.36 0 0 1-1.232-1.316q-.448-.84-.448-1.904m9.618-6.664v10.304h-1.456v-10.304zm292.523 9.222q.588 0 1.044-.42.468-.42.72-1.176.252-.768.252-1.752 0-.996-.252-1.752t-.708-1.176a1.5 1.5 0 0 0-1.056-.42q-.6 0-1.068.42-.456.42-.708 1.176t-.252 1.752q0 .984.252 1.752.252.756.708 1.176.468.42 1.068.42m-3.276-3.348q0-1.284.42-2.292.42-1.02 1.164-1.584a2.7 2.7 0 0 1 1.692-.576 2.7 2.7 0 0 1 1.692.576q.744.564 1.152 1.584.42 1.008.42 2.292t-.42 2.304q-.408 1.008-1.152 1.572a2.73 2.73 0 0 1-1.692.564 2.73 2.73 0 0 1-1.692-.564q-.744-.564-1.164-1.572-.42-1.02-.42-2.304m8.923 5.004h-1.248l2.568-9.936h1.236zm7.149-.636-1.248-.012v-7.38l-1.524.864-.528-1.044 2.064-1.152h1.236zm5.028-1.02q.588 0 1.044-.42.468-.42.72-1.176.252-.768.252-1.752 0-.996-.252-1.752t-.708-1.176a1.5 1.5 0 0 0-1.056-.42q-.6 0-1.068.42-.456.42-.708 1.176t-.252 1.752q0 .984.252 1.752.252.756.708 1.176.468.42 1.068.42m-3.276-3.348q0-1.284.42-2.292.42-1.02 1.164-1.584a2.7 2.7 0 0 1 1.692-.576 2.7 2.7 0 0 1 1.692.576q.744.564 1.152 1.584.42 1.008.42 2.292t-.42 2.304q-.408 1.008-1.152 1.572a2.73 2.73 0 0 1-1.692.564 2.73 2.73 0 0 1-1.692-.564q-.744-.564-1.164-1.572-.42-1.02-.42-2.304m10.975 3.348q.588 0 1.044-.42.468-.42.72-1.176.252-.768.252-1.752 0-.996-.252-1.752t-.708-1.176a1.5 1.5 0 0 0-1.056-.42q-.6 0-1.068.42-.456.42-.708 1.176t-.252 1.752q0 .984.252 1.752.252.756.708 1.176.468.42 1.068.42m-3.276-3.348q0-1.284.42-2.292.42-1.02 1.164-1.584a2.7 2.7 0 0 1 1.692-.576 2.7 2.7 0 0 1 1.692.576q.744.564 1.152 1.584.42 1.008.42 2.292t-.42 2.304q-.408 1.008-1.152 1.572a2.73 2.73 0 0 1-1.692.564 2.73 2.73 0 0 1-1.692-.564q-.744-.564-1.164-1.572-.42-1.02-.42-2.304"/><mask id="c" fill="#fff"><path d="M16 178.801a4 4 0 0 1 4-4h350a4 4 0 0 1 4 4v34a4 4 0 0 1-4 4H20a4 4 0 0 1-4-4z"/></mask><path fill="#fff" d="M16 178.801a4 4 0 0 1 4-4h350a4 4 0 0 1 4 4v34a4 4 0 0 1-4 4H20a4 4 0 0 1-4-4z"/><path fill="#C2C2C2" d="M20 175.801h350v-2H20zm353 3v34h2v-34zm-3 37H20v2h350zm-353-3v-34h-2v34zm3 3a3 3 0 0 1-3-3h-2a5 5 0 0 0 5 5zm353-3a3 3 0 0 1-3 3v2a5 5 0 0 0 5-5zm-3-37a3 3 0 0 1 3 3h2a5 5 0 0 0-5-5zm-350-2a5 5 0 0 0-5 5h2a3 3 0 0 1 3-3z" mask="url(#c)"/><path fill="#C2C2C2" d="M37.552 191.433H34v10.432h-1.408v-10.432h-3.568v-1.248h8.528zm6.19 5.76q-.111-1.025-.671-1.712-.544-.704-1.648-.704-1.008 0-1.728.688-.705.672-.848 1.744zm-6.287.544q0-1.216.496-2.16.495-.945 1.392-1.472.895-.528 2.032-.528 2.384 0 3.408 2.24.336.896.336 1.904a5 5 0 0 1-.032.624h-6.24q.159 1.04.864 1.696.72.656 1.68.656.768 0 1.264-.24.512-.24.704-.464.207-.24.368-.48l1.12.576q-.369.752-1.264 1.28-.88.528-2.208.528-1.137 0-2.032-.528a3.63 3.63 0 0 1-1.392-1.472q-.496-.945-.496-2.16m13.211 0 3.088 4.128H52.01l-2.128-2.944-2.096 2.944h-1.76l3.056-4.128-3.088-4.144h1.776l2.112 2.992 2.128-2.992h1.76zm7.565 4.16q-1.023 0-1.68-.672-.655-.672-.688-1.728v-4.624h-1.376v-1.232h1.376v-2.192h1.408v2.192h1.776v1.232h-1.776v4.528q0 .48.272.832.273.351.688.352.24 0 .432-.032a5 5 0 0 0 .384-.08l.256 1.296a5.3 5.3 0 0 1-1.072.128"/></g><defs><clipPath id="a"><path fill="#fff" d="M0 .8h390v278H0z"/></clipPath></defs></svg>